%TF.GenerationSoftware,KiCad,Pcbnew,9.0.8-9.0.8~ubuntu22.04.1*%
%TF.CreationDate,2026-03-23T14:42:39-05:00*%
%TF.ProjectId,RamanSpectrometerBoard,52616d61-6e53-4706-9563-74726f6d6574,rev?*%
%TF.SameCoordinates,Original*%
%TF.FileFunction,Soldermask,Bot*%
%TF.FilePolarity,Negative*%
%FSLAX46Y46*%
G04 Gerber Fmt 4.6, Leading zero omitted, Abs format (unit mm)*
G04 Created by KiCad (PCBNEW 9.0.8-9.0.8~ubuntu22.04.1) date 2026-03-23 14:42:39*
%MOMM*%
%LPD*%
G01*
G04 APERTURE LIST*
G04 Aperture macros list*
%AMRoundRect*
0 Rectangle with rounded corners*
0 $1 Rounding radius*
0 $2 $3 $4 $5 $6 $7 $8 $9 X,Y pos of 4 corners*
0 Add a 4 corners polygon primitive as box body*
4,1,4,$2,$3,$4,$5,$6,$7,$8,$9,$2,$3,0*
0 Add four circle primitives for the rounded corners*
1,1,$1+$1,$2,$3*
1,1,$1+$1,$4,$5*
1,1,$1+$1,$6,$7*
1,1,$1+$1,$8,$9*
0 Add four rect primitives between the rounded corners*
20,1,$1+$1,$2,$3,$4,$5,0*
20,1,$1+$1,$4,$5,$6,$7,0*
20,1,$1+$1,$6,$7,$8,$9,0*
20,1,$1+$1,$8,$9,$2,$3,0*%
G04 Aperture macros list end*
%ADD10C,2.362200*%
%ADD11R,1.800000X1.800000*%
%ADD12C,1.800000*%
%ADD13RoundRect,0.250000X-0.750000X0.600000X-0.750000X-0.600000X0.750000X-0.600000X0.750000X0.600000X0*%
%ADD14O,2.000000X1.700000*%
%ADD15C,1.440000*%
%ADD16C,0.800000*%
%ADD17C,6.000000*%
%ADD18C,1.524000*%
%ADD19C,1.100000*%
%ADD20C,1.400000*%
%ADD21C,4.000000*%
%ADD22C,2.000000*%
%ADD23C,1.308000*%
%ADD24C,1.208000*%
%ADD25RoundRect,0.218750X0.256250X-0.218750X0.256250X0.218750X-0.256250X0.218750X-0.256250X-0.218750X0*%
%ADD26RoundRect,0.200000X0.200000X0.275000X-0.200000X0.275000X-0.200000X-0.275000X0.200000X-0.275000X0*%
%ADD27RoundRect,0.237500X0.237500X-0.250000X0.237500X0.250000X-0.237500X0.250000X-0.237500X-0.250000X0*%
%ADD28RoundRect,0.200000X-0.275000X0.200000X-0.275000X-0.200000X0.275000X-0.200000X0.275000X0.200000X0*%
%ADD29RoundRect,0.150000X-0.587500X-0.150000X0.587500X-0.150000X0.587500X0.150000X-0.587500X0.150000X0*%
%ADD30RoundRect,0.237500X0.250000X0.237500X-0.250000X0.237500X-0.250000X-0.237500X0.250000X-0.237500X0*%
%ADD31RoundRect,0.150000X0.150000X-0.587500X0.150000X0.587500X-0.150000X0.587500X-0.150000X-0.587500X0*%
%ADD32RoundRect,0.150000X-0.150000X0.587500X-0.150000X-0.587500X0.150000X-0.587500X0.150000X0.587500X0*%
%ADD33RoundRect,0.200000X-0.200000X-0.275000X0.200000X-0.275000X0.200000X0.275000X-0.200000X0.275000X0*%
%ADD34RoundRect,0.225000X-0.250000X0.225000X-0.250000X-0.225000X0.250000X-0.225000X0.250000X0.225000X0*%
%ADD35RoundRect,0.200000X0.275000X-0.200000X0.275000X0.200000X-0.275000X0.200000X-0.275000X-0.200000X0*%
%ADD36RoundRect,0.237500X-0.250000X-0.237500X0.250000X-0.237500X0.250000X0.237500X-0.250000X0.237500X0*%
%ADD37RoundRect,0.237500X-0.237500X0.250000X-0.237500X-0.250000X0.237500X-0.250000X0.237500X0.250000X0*%
G04 APERTURE END LIST*
D10*
%TO.C,J4*%
X142596424Y-68494551D03*
X142596424Y-73994550D03*
%TD*%
D11*
%TO.C,U8*%
X166771400Y-62838600D03*
D12*
X169311400Y-62838600D03*
X171851400Y-62838600D03*
%TD*%
D13*
%TO.C,J6*%
X181886024Y-75113000D03*
D14*
X181886024Y-77613000D03*
%TD*%
D15*
%TO.C,RV1*%
X160456024Y-97763000D03*
X162996024Y-95223000D03*
X165536024Y-97763000D03*
%TD*%
D16*
%TO.C,H3*%
X86346024Y-118273000D03*
X87005034Y-116682010D03*
X87005034Y-119863990D03*
X88596024Y-116023000D03*
D17*
X88596024Y-118273000D03*
D16*
X88596024Y-120523000D03*
X90187014Y-116682010D03*
X90187014Y-119863990D03*
X90846024Y-118273000D03*
%TD*%
D18*
%TO.C,U2*%
X127966024Y-74422000D03*
X125426024Y-74422000D03*
X122886024Y-74422000D03*
%TD*%
%TO.C,Conn2*%
X168479024Y-116967000D03*
X165939024Y-116967000D03*
%TD*%
D10*
%TO.C,J3*%
X115012024Y-68875551D03*
X115012024Y-74375550D03*
%TD*%
D16*
%TO.C,H2*%
X182866024Y-62103000D03*
X183525034Y-60512010D03*
X183525034Y-63693990D03*
X185116024Y-59853000D03*
D17*
X185116024Y-62103000D03*
D16*
X185116024Y-64353000D03*
X186707014Y-60512010D03*
X186707014Y-63693990D03*
X187366024Y-62103000D03*
%TD*%
D18*
%TO.C,Conn1*%
X138507024Y-116713000D03*
X135967024Y-116713000D03*
X133427024Y-116713000D03*
X130887024Y-116713000D03*
X128347024Y-116713000D03*
X125807024Y-116713000D03*
X123267024Y-116713000D03*
X120727024Y-116713000D03*
X118187024Y-116713000D03*
X115647024Y-116713000D03*
%TD*%
%TO.C,Conn6*%
X98375024Y-116967000D03*
X95835024Y-116967000D03*
%TD*%
D16*
%TO.C,H4*%
X182866024Y-118273000D03*
X183525034Y-116682010D03*
X183525034Y-119863990D03*
X185116024Y-116023000D03*
D17*
X185116024Y-118273000D03*
D16*
X185116024Y-120523000D03*
X186707014Y-116682010D03*
X186707014Y-119863990D03*
X187366024Y-118273000D03*
%TD*%
%TO.C,H1*%
X86346024Y-62103000D03*
X87005034Y-60512010D03*
X87005034Y-63693990D03*
X88596024Y-59853000D03*
D17*
X88596024Y-62103000D03*
D16*
X88596024Y-64353000D03*
X90187014Y-60512010D03*
X90187014Y-63693990D03*
X90846024Y-62103000D03*
%TD*%
D18*
%TO.C,Conn4*%
X158700024Y-116713000D03*
X156160024Y-116713000D03*
X153620024Y-116713000D03*
X151080024Y-116713000D03*
X148540024Y-116713000D03*
X146000024Y-116713000D03*
%TD*%
D19*
%TO.C,J1*%
X175896524Y-104648000D03*
X173356524Y-103378000D03*
X175896524Y-102108000D03*
X173356524Y-100838000D03*
X175896524Y-99568000D03*
X173356524Y-98298000D03*
X175896524Y-97028000D03*
X173356524Y-95758000D03*
D20*
X187326524Y-106528000D03*
X185536524Y-103988000D03*
X187326524Y-96418000D03*
X185536524Y-93878000D03*
D21*
X182246524Y-105918000D03*
X182246524Y-94488000D03*
D22*
X179196524Y-108078000D03*
X179196524Y-92328000D03*
%TD*%
D18*
%TO.C,Conn3*%
X176607024Y-115506500D03*
X176607024Y-118046500D03*
%TD*%
%TO.C,Conn5*%
X165050024Y-109347000D03*
X167590024Y-109347000D03*
%TD*%
%TO.C,Conn7*%
X108217524Y-116840000D03*
X105677524Y-116840000D03*
%TD*%
D13*
%TO.C,J5*%
X181853524Y-84513000D03*
D14*
X181853524Y-87013000D03*
%TD*%
D10*
%TO.C,J2*%
X105233024Y-68795001D03*
X105233024Y-74295000D03*
%TD*%
D23*
%TO.C,U1*%
X93279024Y-97182000D03*
X95819024Y-97182000D03*
X98359024Y-97182000D03*
X100899024Y-97182000D03*
X126299024Y-97182000D03*
X95819024Y-81942000D03*
X103439024Y-97182000D03*
X105979024Y-97182000D03*
X108519024Y-97182000D03*
X111059024Y-97182000D03*
X113599024Y-97182000D03*
X116139024Y-97182000D03*
X118679024Y-97182000D03*
X121219024Y-97182000D03*
X123759024Y-97182000D03*
X123759024Y-81942000D03*
X121219024Y-81942000D03*
X118679024Y-81942000D03*
X116139024Y-81942000D03*
X113599024Y-81942000D03*
X111059024Y-81942000D03*
X108519024Y-81942000D03*
X105979024Y-81942000D03*
X103439024Y-81942000D03*
X100899024Y-81942000D03*
X98359024Y-81942000D03*
X128839024Y-97182000D03*
X131379024Y-97182000D03*
X133919024Y-97182000D03*
X136459024Y-97182000D03*
X138999024Y-97182000D03*
X141539024Y-97182000D03*
X144079024Y-97182000D03*
X146619024Y-97182000D03*
X149159024Y-97182000D03*
X149159024Y-81942000D03*
X146619024Y-81942000D03*
X144079024Y-81942000D03*
X141539024Y-81942000D03*
X138999024Y-81942000D03*
X136459024Y-81942000D03*
X133919024Y-81942000D03*
X131379024Y-81942000D03*
X128839024Y-81942000D03*
X90739024Y-97182000D03*
X126299024Y-81942000D03*
X93279024Y-81942000D03*
D24*
X105709024Y-86392000D03*
X103709024Y-86392000D03*
X103709024Y-84392000D03*
X105709024Y-84392000D03*
X105709024Y-88392000D03*
X103709024Y-88392000D03*
D23*
X90739024Y-81942000D03*
%TD*%
D25*
%TO.C,D5*%
X184018524Y-76800500D03*
X184018524Y-75225500D03*
%TD*%
D26*
%TO.C,R23*%
X158650000Y-74500000D03*
X157000000Y-74500000D03*
%TD*%
D27*
%TO.C,R8*%
X176536024Y-83375500D03*
X176536024Y-81550500D03*
%TD*%
D28*
%TO.C,R16*%
X187243524Y-75188000D03*
X187243524Y-76838000D03*
%TD*%
D29*
%TO.C,Q2*%
X178348524Y-83413000D03*
X178348524Y-81513000D03*
X180223524Y-82463000D03*
%TD*%
D30*
%TO.C,R10*%
X159739524Y-110617000D03*
X157914524Y-110617000D03*
%TD*%
%TO.C,R9*%
X161517524Y-108458000D03*
X159692524Y-108458000D03*
%TD*%
D31*
%TO.C,Q8*%
X160181598Y-72747500D03*
X158281598Y-72747500D03*
X159231598Y-70872500D03*
%TD*%
D32*
%TO.C,Q4*%
X155591024Y-107901500D03*
X157491024Y-107901500D03*
X156541024Y-109776500D03*
%TD*%
D33*
%TO.C,R30*%
X156000000Y-70000000D03*
X157650000Y-70000000D03*
%TD*%
D29*
%TO.C,Q1*%
X172598524Y-86163000D03*
X172598524Y-84263000D03*
X174473524Y-85213000D03*
%TD*%
%TO.C,Q3*%
X161621024Y-112390000D03*
X161621024Y-110490000D03*
X163496024Y-111440000D03*
%TD*%
D34*
%TO.C,C9*%
X185643524Y-75238000D03*
X185643524Y-76788000D03*
%TD*%
D35*
%TO.C,R29*%
X160075000Y-76075000D03*
X160075000Y-74425000D03*
%TD*%
D30*
%TO.C,R5*%
X171698524Y-87913000D03*
X169873524Y-87913000D03*
%TD*%
D36*
%TO.C,R7*%
X176373524Y-85213000D03*
X178198524Y-85213000D03*
%TD*%
D37*
%TO.C,R6*%
X170686024Y-84300500D03*
X170686024Y-86125500D03*
%TD*%
M02*
