%TF.GenerationSoftware,KiCad,Pcbnew,9.0.8-9.0.8~ubuntu22.04.1*%
%TF.CreationDate,2026-03-23T14:42:38-05:00*%
%TF.ProjectId,RamanSpectrometerBoard,52616d61-6e53-4706-9563-74726f6d6574,rev?*%
%TF.SameCoordinates,Original*%
%TF.FileFunction,Paste,Top*%
%TF.FilePolarity,Positive*%
%FSLAX46Y46*%
G04 Gerber Fmt 4.6, Leading zero omitted, Abs format (unit mm)*
G04 Created by KiCad (PCBNEW 9.0.8-9.0.8~ubuntu22.04.1) date 2026-03-23 14:42:38*
%MOMM*%
%LPD*%
G01*
G04 APERTURE LIST*
G04 Aperture macros list*
%AMRoundRect*
0 Rectangle with rounded corners*
0 $1 Rounding radius*
0 $2 $3 $4 $5 $6 $7 $8 $9 X,Y pos of 4 corners*
0 Add a 4 corners polygon primitive as box body*
4,1,4,$2,$3,$4,$5,$6,$7,$8,$9,$2,$3,0*
0 Add four circle primitives for the rounded corners*
1,1,$1+$1,$2,$3*
1,1,$1+$1,$4,$5*
1,1,$1+$1,$6,$7*
1,1,$1+$1,$8,$9*
0 Add four rect primitives between the rounded corners*
20,1,$1+$1,$2,$3,$4,$5,0*
20,1,$1+$1,$4,$5,$6,$7,0*
20,1,$1+$1,$6,$7,$8,$9,0*
20,1,$1+$1,$8,$9,$2,$3,0*%
G04 Aperture macros list end*
%ADD10RoundRect,0.200000X0.200000X0.275000X-0.200000X0.275000X-0.200000X-0.275000X0.200000X-0.275000X0*%
%ADD11RoundRect,0.200000X-0.200000X-0.275000X0.200000X-0.275000X0.200000X0.275000X-0.200000X0.275000X0*%
%ADD12RoundRect,0.109756X-0.377744X-0.115244X0.377744X-0.115244X0.377744X0.115244X-0.377744X0.115244X0*%
%ADD13RoundRect,0.097561X-0.389939X-0.102439X0.389939X-0.102439X0.389939X0.102439X-0.389939X0.102439X0*%
%ADD14RoundRect,0.068597X0.437653X-0.072028X0.437653X0.072028X-0.437653X0.072028X-0.437653X-0.072028X0*%
%ADD15RoundRect,0.068597X0.418903X-0.072028X0.418903X0.072028X-0.418903X0.072028X-0.418903X-0.072028X0*%
%ADD16RoundRect,0.097561X-0.414939X-0.102439X0.414939X-0.102439X0.414939X0.102439X-0.414939X0.102439X0*%
%ADD17RoundRect,0.111951X-0.385299X-0.117549X0.385299X-0.117549X0.385299X0.117549X-0.385299X0.117549X0*%
%ADD18RoundRect,0.225000X-0.225000X-0.250000X0.225000X-0.250000X0.225000X0.250000X-0.225000X0.250000X0*%
%ADD19RoundRect,0.150000X-0.150000X0.825000X-0.150000X-0.825000X0.150000X-0.825000X0.150000X0.825000X0*%
%ADD20RoundRect,0.237500X-0.300000X-0.237500X0.300000X-0.237500X0.300000X0.237500X-0.300000X0.237500X0*%
%ADD21RoundRect,0.237500X-0.237500X0.250000X-0.237500X-0.250000X0.237500X-0.250000X0.237500X0.250000X0*%
%ADD22RoundRect,0.237500X0.237500X-0.300000X0.237500X0.300000X-0.237500X0.300000X-0.237500X-0.300000X0*%
%ADD23RoundRect,0.237500X0.237500X-0.250000X0.237500X0.250000X-0.237500X0.250000X-0.237500X-0.250000X0*%
%ADD24RoundRect,0.237500X-0.287500X-0.237500X0.287500X-0.237500X0.287500X0.237500X-0.287500X0.237500X0*%
%ADD25R,2.299995X2.560396*%
%ADD26RoundRect,0.200000X0.275000X-0.200000X0.275000X0.200000X-0.275000X0.200000X-0.275000X-0.200000X0*%
%ADD27RoundRect,0.150000X-0.587500X-0.150000X0.587500X-0.150000X0.587500X0.150000X-0.587500X0.150000X0*%
%ADD28RoundRect,0.150000X0.150000X-0.587500X0.150000X0.587500X-0.150000X0.587500X-0.150000X-0.587500X0*%
%ADD29RoundRect,0.225000X0.250000X-0.225000X0.250000X0.225000X-0.250000X0.225000X-0.250000X-0.225000X0*%
%ADD30RoundRect,0.225000X0.225000X0.250000X-0.225000X0.250000X-0.225000X-0.250000X0.225000X-0.250000X0*%
%ADD31RoundRect,0.200000X-0.275000X0.200000X-0.275000X-0.200000X0.275000X-0.200000X0.275000X0.200000X0*%
%ADD32R,1.950000X1.200000*%
%ADD33RoundRect,0.250000X-0.625000X0.400000X-0.625000X-0.400000X0.625000X-0.400000X0.625000X0.400000X0*%
%ADD34RoundRect,0.150000X-0.150000X0.587500X-0.150000X-0.587500X0.150000X-0.587500X0.150000X0.587500X0*%
%ADD35R,0.914400X0.711200*%
%ADD36RoundRect,0.250000X0.550000X-1.500000X0.550000X1.500000X-0.550000X1.500000X-0.550000X-1.500000X0*%
%ADD37RoundRect,0.237500X0.300000X0.237500X-0.300000X0.237500X-0.300000X-0.237500X0.300000X-0.237500X0*%
%ADD38R,1.460500X0.533400*%
%ADD39R,1.400000X1.600000*%
%ADD40RoundRect,0.250000X1.250000X0.550000X-1.250000X0.550000X-1.250000X-0.550000X1.250000X-0.550000X0*%
%ADD41R,0.700000X0.640000*%
%ADD42RoundRect,0.150000X0.825000X0.150000X-0.825000X0.150000X-0.825000X-0.150000X0.825000X-0.150000X0*%
%ADD43R,2.950000X3.500000*%
%ADD44RoundRect,0.145000X-0.435000X0.480000X-0.435000X-0.480000X0.435000X-0.480000X0.435000X0.480000X0*%
G04 APERTURE END LIST*
D10*
%TO.C,R13*%
X167061024Y-89763000D03*
X165411024Y-89763000D03*
%TD*%
D11*
%TO.C,R12*%
X157561024Y-86213000D03*
X159211024Y-86213000D03*
%TD*%
D12*
%TO.C,R22*%
X171648524Y-71988000D03*
D13*
X171648524Y-72963000D03*
D14*
X171679774Y-72472375D03*
D15*
X173498524Y-72472375D03*
D16*
X173498524Y-72963000D03*
D17*
X173523524Y-71988000D03*
%TD*%
D18*
%TO.C,C21*%
X153200000Y-62750000D03*
X154750000Y-62750000D03*
%TD*%
D19*
%TO.C,U6*%
X100788024Y-101157000D03*
X99518024Y-101157000D03*
X98248024Y-101157000D03*
X96978024Y-101157000D03*
X96978024Y-106107000D03*
X98248024Y-106107000D03*
X99518024Y-106107000D03*
X100788024Y-106107000D03*
%TD*%
D20*
%TO.C,C2*%
X127865524Y-76581000D03*
X129590524Y-76581000D03*
%TD*%
D21*
%TO.C,R27*%
X91517024Y-108180500D03*
X91517024Y-110005500D03*
%TD*%
D22*
%TO.C,C16*%
X87326024Y-106107000D03*
X87326024Y-104382000D03*
%TD*%
%TO.C,C1*%
X170786024Y-93975500D03*
X170786024Y-92250500D03*
%TD*%
D23*
%TO.C,R26*%
X98121024Y-110005500D03*
X98121024Y-108180500D03*
%TD*%
D10*
%TO.C,R20*%
X168825000Y-70000000D03*
X167175000Y-70000000D03*
%TD*%
D24*
%TO.C,D1*%
X135269000Y-60198000D03*
X137019000Y-60198000D03*
%TD*%
D25*
%TO.C,C14*%
X162279791Y-72603594D03*
X162279791Y-68559202D03*
%TD*%
D24*
%TO.C,D2*%
X135269000Y-62992000D03*
X137019000Y-62992000D03*
%TD*%
D26*
%TO.C,R17*%
X165536024Y-79188000D03*
X165536024Y-77538000D03*
%TD*%
D18*
%TO.C,C11*%
X153150000Y-61100000D03*
X154700000Y-61100000D03*
%TD*%
D27*
%TO.C,Q6*%
X167148524Y-71513000D03*
X167148524Y-73413000D03*
X169023524Y-72463000D03*
%TD*%
D28*
%TO.C,Q5*%
X167824024Y-67662500D03*
X169724024Y-67662500D03*
X168774024Y-65787500D03*
%TD*%
D26*
%TO.C,R15*%
X163886024Y-87988000D03*
X163886024Y-86338000D03*
%TD*%
D29*
%TO.C,C10*%
X169436024Y-78513000D03*
X169436024Y-76963000D03*
%TD*%
D30*
%TO.C,C5*%
X167011024Y-91313000D03*
X165461024Y-91313000D03*
%TD*%
D31*
%TO.C,R14*%
X167086024Y-77538000D03*
X167086024Y-79188000D03*
%TD*%
%TO.C,R11*%
X162236024Y-80188000D03*
X162236024Y-81838000D03*
%TD*%
D21*
%TO.C,R2*%
X133731000Y-62992000D03*
X133731000Y-64817000D03*
%TD*%
D26*
%TO.C,R21*%
X165236024Y-73388000D03*
X165236024Y-71738000D03*
%TD*%
D29*
%TO.C,C13*%
X158979791Y-63256398D03*
X158979791Y-61706398D03*
%TD*%
D23*
%TO.C,R25*%
X99645024Y-110005500D03*
X99645024Y-108180500D03*
%TD*%
D22*
%TO.C,C18*%
X88442800Y-109879300D03*
X88442800Y-108154300D03*
%TD*%
D32*
%TO.C,S1*%
X103582024Y-102442000D03*
X103582024Y-104942000D03*
X103582024Y-107442000D03*
X109232024Y-102442000D03*
X109232024Y-104942000D03*
X109232024Y-107442000D03*
%TD*%
D22*
%TO.C,C17*%
X96597024Y-109955500D03*
X96597024Y-108230500D03*
%TD*%
D33*
%TO.C,R24*%
X149779791Y-64078697D03*
X149779791Y-67178697D03*
%TD*%
D34*
%TO.C,Q7*%
X150929791Y-69191197D03*
X149029791Y-69191197D03*
X149979791Y-71066197D03*
%TD*%
D23*
%TO.C,R4*%
X136906000Y-71143500D03*
X136906000Y-69318500D03*
%TD*%
D30*
%TO.C,C12*%
X149954791Y-62328697D03*
X148404791Y-62328697D03*
%TD*%
D23*
%TO.C,R28*%
X89993024Y-110005500D03*
X89993024Y-108180500D03*
%TD*%
D35*
%TO.C,D4*%
X131597400Y-70993000D03*
X134848600Y-70993000D03*
%TD*%
D19*
%TO.C,U7*%
X92660024Y-101157000D03*
X91390024Y-101157000D03*
X90120024Y-101157000D03*
X88850024Y-101157000D03*
X88850024Y-106107000D03*
X90120024Y-106107000D03*
X91390024Y-106107000D03*
X92660024Y-106107000D03*
%TD*%
D36*
%TO.C,C8*%
X177643524Y-70963000D03*
X177643524Y-65563000D03*
%TD*%
D37*
%TO.C,C3*%
X122859524Y-76708000D03*
X121134524Y-76708000D03*
%TD*%
D38*
%TO.C,U5*%
X158488941Y-68501398D03*
X158488941Y-67231398D03*
X158488941Y-65961398D03*
X158488941Y-64691398D03*
X153040641Y-64691398D03*
X153040641Y-65961398D03*
X153040641Y-67231398D03*
X153040641Y-68501398D03*
%TD*%
D39*
%TO.C,SW2*%
X94970024Y-77260000D03*
X94970024Y-70060000D03*
X97970024Y-77260000D03*
X97970024Y-70060000D03*
%TD*%
D22*
%TO.C,C15*%
X95327024Y-106145500D03*
X95327024Y-104420500D03*
%TD*%
D40*
%TO.C,C4*%
X160836024Y-90213000D03*
X156436024Y-90213000D03*
%TD*%
D21*
%TO.C,R3*%
X133731000Y-66421000D03*
X133731000Y-68246000D03*
%TD*%
D11*
%TO.C,R18*%
X165386024Y-92913000D03*
X167036024Y-92913000D03*
%TD*%
D26*
%TO.C,R19*%
X166174024Y-67950000D03*
X166174024Y-66300000D03*
%TD*%
D41*
%TO.C,RN2*%
X173286024Y-80345500D03*
X173286024Y-79405500D03*
X171886024Y-79405500D03*
X171886024Y-80345500D03*
%TD*%
D20*
%TO.C,C20*%
X175637500Y-62750000D03*
X177362500Y-62750000D03*
%TD*%
D24*
%TO.C,D3*%
X135269000Y-65532000D03*
X137019000Y-65532000D03*
%TD*%
D19*
%TO.C,U3*%
X160141024Y-79038000D03*
X158871024Y-79038000D03*
X157601024Y-79038000D03*
X156331024Y-79038000D03*
X156331024Y-83988000D03*
X157601024Y-83988000D03*
X158871024Y-83988000D03*
X160141024Y-83988000D03*
%TD*%
D41*
%TO.C,RN1*%
X173286024Y-77845500D03*
X173286024Y-76905500D03*
X171886024Y-76905500D03*
X171886024Y-77845500D03*
%TD*%
D21*
%TO.C,R1*%
X133731000Y-59666500D03*
X133731000Y-61491500D03*
%TD*%
D42*
%TO.C,MOSFET1*%
X136841000Y-77089000D03*
X136841000Y-75819000D03*
X136841000Y-74549000D03*
X136841000Y-73279000D03*
X131891000Y-73279000D03*
X131891000Y-74549000D03*
X131891000Y-75819000D03*
X131891000Y-77089000D03*
%TD*%
D43*
%TO.C,L1*%
X152954791Y-73381398D03*
X158404791Y-73381398D03*
%TD*%
D39*
%TO.C,SW1*%
X97970024Y-60662000D03*
X97970024Y-67862000D03*
X94970024Y-60662000D03*
X94970024Y-67862000D03*
%TD*%
D19*
%TO.C,U4*%
X173271024Y-82763000D03*
X172001024Y-82763000D03*
X170731024Y-82763000D03*
X169461024Y-82763000D03*
X168191024Y-82763000D03*
X166921024Y-82763000D03*
X165651024Y-82763000D03*
X165651024Y-87713000D03*
X166921024Y-87713000D03*
X168191024Y-87713000D03*
X169461024Y-87713000D03*
X170731024Y-87713000D03*
X172001024Y-87713000D03*
X173271024Y-87713000D03*
%TD*%
D44*
%TO.C,D6*%
X149779791Y-73098697D03*
X149779791Y-76158697D03*
%TD*%
D30*
%TO.C,C7*%
X167111024Y-80713000D03*
X165561024Y-80713000D03*
%TD*%
D18*
%TO.C,C6*%
X162361024Y-84713000D03*
X163911024Y-84713000D03*
%TD*%
D22*
%TO.C,C19*%
X162250000Y-62862500D03*
X162250000Y-61137500D03*
%TD*%
M02*
