M48
; DRILL file {KiCad 9.0.8-9.0.8~ubuntu22.04.1} date 2026-03-23T14:42:36-0500
; FORMAT={-:-/ absolute / inch / decimal}
; #@! TF.CreationDate,2026-03-23T14:42:36-05:00
; #@! TF.GenerationSoftware,Kicad,Pcbnew,9.0.8-9.0.8~ubuntu22.04.1
; #@! TF.FileFunction,Plated,1,2,PTH
FMAT,2
INCH
; #@! TA.AperFunction,Plated,PTH,ViaDrill
T1C0.0118
; #@! TA.AperFunction,Plated,PTH,ComponentDrill
T2C0.0197
; #@! TA.AperFunction,Plated,PTH,ComponentDrill
T3C0.0276
; #@! TA.AperFunction,Plated,PTH,ComponentDrill
T4C0.0315
; #@! TA.AperFunction,Plated,PTH,ComponentDrill
T5C0.0350
; #@! TA.AperFunction,Plated,PTH,ComponentDrill
T6C0.0354
; #@! TA.AperFunction,Plated,PTH,ComponentDrill
T7C0.0394
; #@! TA.AperFunction,Plated,PTH,ComponentDrill
T8C0.0402
; #@! TA.AperFunction,Plated,PTH,ComponentDrill
T9C0.0630
; #@! TA.AperFunction,Plated,PTH,ComponentDrill
T10C0.0730
; #@! TA.AperFunction,Plated,PTH,ComponentDrill
T11C0.1181
; #@! TA.AperFunction,Plated,PTH,ComponentDrill
T12C0.1280
%
G90
G05
T1
X3.378Y-3.981
X3.392Y-4.11
X3.3971Y-3.8818
X3.398Y-2.685
X3.398Y-2.855
X3.398Y-2.935
X3.398Y-3.105
X3.398Y-3.265
X3.418Y-4.261
X3.438Y-3.98
X3.438Y-4.1774
X3.453Y-3.2897
X3.483Y-4.2591
X3.498Y-3.92
X3.498Y-3.9826
X3.523Y-3.8953
X3.533Y-4.045
X3.543Y-4.2591
X3.548Y-3.9826
X3.548Y-4.1774
X3.553Y-4.4
X3.574Y-3.738
X3.583Y-3.45
X3.583Y-3.62
X3.598Y-4.1774
X3.603Y-4.2591
X3.613Y-2.685
X3.613Y-2.855
X3.613Y-2.935
X3.613Y-3.105
X3.638Y-3.78
X3.638Y-4.445
X3.64Y-4.08
X3.648Y-3.9826
X3.678Y-2.675
X3.678Y-3.8953
X3.688Y-2.39
X3.693Y-4.265
X3.723Y-3.745
X3.739Y-3.0417
X3.743Y-2.765
X3.753Y-4.105
X3.763Y-3.7553
X3.798Y-3.45
X3.798Y-3.62
X3.8Y-4.11
X3.803Y-4.26
X3.818Y-3.9826
X3.8293Y-3.8947
X3.848Y-3.92
X3.853Y-2.675
X3.8571Y-2.3883
X3.863Y-4.26
X3.868Y-3.9826
X3.868Y-4.045
X3.868Y-4.1774
X3.868Y-4.385
X3.898Y-4.515
X3.898Y-4.685
X3.918Y-2.76
X3.918Y-4.18
X3.923Y-3.04
X3.923Y-4.3309
X3.943Y-4.3947
X3.953Y-3.8947
X3.968Y-3.9826
X3.978Y-3.78
X3.998Y-4.355
X4.008Y-4.19
X4.038Y-2.665
X4.043Y-4.4194
X4.063Y-3.535
X4.063Y-3.705
X4.078Y-4.03
X4.113Y-4.515
X4.113Y-4.685
X4.148Y-4.135
X4.213Y-4.185
X4.213Y-4.355
X4.218Y-3.4
X4.253Y-2.665
X4.278Y-3.535
X4.278Y-3.705
X4.288Y-3.97
X4.298Y-4.035
X4.298Y-4.445
X4.3005Y-4.1316
X4.358Y-3.9944
X4.378Y-3.36
X4.3909Y-4.0621
X4.423Y-2.675
X4.493Y-4.2
X4.498Y-3.3461
X4.498Y-3.535
X4.498Y-3.705
X4.498Y-4.075
X4.498Y-4.245
X4.498Y-4.37
X4.498Y-4.54
X4.568Y-2.58
X4.578Y-4.02
X4.608Y-3.92
X4.623Y-3.9944
X4.638Y-2.615
X4.638Y-2.675
X4.678Y-3.9197
X4.713Y-3.535
X4.713Y-3.705
X4.713Y-4.075
X4.713Y-4.245
X4.713Y-4.37
X4.713Y-4.54
X4.73Y-2.71
X4.75Y-2.57
X4.7691Y-2.9724
X4.788Y-3.9444
X4.79Y-2.39
X4.878Y-4.075
X4.878Y-4.245
X4.878Y-4.365
X4.878Y-4.535
X4.928Y-3.9697
X4.95Y-3.7303
X4.96Y-2.36
X4.978Y-3.535
X4.978Y-3.705
X5.003Y-3.275
X5.023Y-3.23
X5.048Y-3.9444
X5.075Y-2.709
X5.093Y-4.075
X5.093Y-4.245
X5.093Y-4.365
X5.093Y-4.535
X5.102Y-2.9689
X5.123Y-3.11
X5.123Y-3.28
X5.178Y-3.7797
X5.193Y-3.535
X5.193Y-3.705
X5.208Y-2.682
X5.248Y-3.92
X5.2559Y-3.035
X5.26Y-3.11
X5.298Y-4.005
X5.3Y-2.424
X5.303Y-4.08
X5.303Y-4.25
X5.303Y-4.365
X5.303Y-4.535
X5.308Y-2.53
X5.338Y-3.28
X5.353Y-3.535
X5.353Y-3.705
X5.3647Y-2.4114
X5.3944Y-2.48
X5.3944Y-2.58
X5.3975Y-3.1102
X5.403Y-3.7303
X5.424Y-2.704
X5.452Y-4.654
X5.46Y-2.9847
X5.493Y-3.115
X5.513Y-2.495
X5.513Y-2.665
X5.518Y-4.08
X5.518Y-4.25
X5.518Y-4.365
X5.518Y-4.535
X5.568Y-3.535
X5.568Y-3.705
X5.663Y-3.8947
X5.673Y-4.085
X5.673Y-4.255
X5.673Y-4.365
X5.673Y-4.535
X5.72Y-3.1
X5.728Y-2.495
X5.728Y-2.665
X5.753Y-3.755
X5.79Y-2.455
X5.803Y-3.3461
X5.8427Y-3.39
X5.8791Y-3.4018
X5.888Y-4.085
X5.888Y-4.255
X5.888Y-4.365
X5.888Y-4.535
X5.8969Y-3.0514
X5.9028Y-3.3782
X5.9682Y-3.7718
X5.975Y-3.195
X5.9803Y-2.3366
X5.9876Y-3.4611
X5.9918Y-3.7482
X6.0039Y-2.5098
X6.018Y-3.555
X6.028Y-4.065
X6.03Y-2.74
X6.07Y-3.555
X6.08Y-3.195
X6.0827Y-2.6969
X6.1005Y-4.0475
X6.1319Y-3.0118
X6.1549Y-3.0512
X6.16Y-3.49
X6.1614Y-3.6122
X6.165Y-2.335
X6.1811Y-2.6476
X6.208Y-4.115
X6.213Y-4.53
X6.244Y-4.232
X6.245Y-3.55
X6.258Y-4.1
X6.2598Y-2.3819
X6.265Y-3.855
X6.2992Y-2.6476
X6.32Y-3.785
X6.363Y-4.385
X6.38Y-3.85
X6.38Y-3.85
X6.3923Y-3.3835
X6.428Y-4.53
X6.45Y-3.0
X6.45Y-4.272
X6.473Y-4.1
X6.5172Y-2.7249
X6.5172Y-2.9985
X6.536Y-2.378
X6.5842Y-2.595
X6.588Y-4.36
X6.6685Y-3.1493
X6.6707Y-3.3922
X6.6708Y-2.9854
X6.712Y-2.372
X6.7224Y-3.9052
X6.7239Y-3.5866
X6.7345Y-2.6614
X6.7672Y-3.1632
X6.7717Y-2.5787
X6.783Y-4.36
X6.833Y-3.815
X6.848Y-4.71
X6.868Y-4.574
X6.8776Y-4.0871
X6.884Y-2.372
X6.888Y-4.1793
X6.9193Y-2.5295
X6.9193Y-2.6378
X6.92Y-2.585
X6.945Y-2.945
X6.945Y-3.11
X6.955Y-3.405
X6.955Y-3.525
X6.955Y-3.525
X6.993Y-3.68
X6.998Y-4.36
X7.04Y-2.365
X7.053Y-3.845
X7.053Y-4.015
X7.075Y-2.58
X7.0768Y-2.5295
X7.0768Y-2.628
X7.123Y-4.295
X7.218Y-4.355
X7.235Y-2.655
X7.235Y-2.765
X7.245Y-3.195
X7.2593Y-3.315
X7.2593Y-3.425
X7.268Y-3.845
X7.268Y-4.015
X7.34Y-2.655
X7.34Y-2.765
X7.35Y-3.195
X7.3643Y-3.315
X7.3643Y-3.425
X7.383Y-4.125
T2
X3.3994Y-2.445
X3.3994Y-4.6564
X3.4254Y-2.3824
X3.4254Y-2.5076
X3.4254Y-4.5938
X3.4254Y-4.7191
X3.488Y-2.3564
X3.488Y-2.5336
X3.488Y-4.5678
X3.488Y-4.745
X3.5507Y-2.3824
X3.5507Y-2.5076
X3.5507Y-4.5938
X3.5507Y-4.7191
X3.5766Y-2.445
X3.5766Y-4.6564
X7.1994Y-2.445
X7.1994Y-4.6564
X7.2254Y-2.3824
X7.2254Y-2.5076
X7.2254Y-4.5938
X7.2254Y-4.7191
X7.288Y-2.3564
X7.288Y-2.5336
X7.288Y-4.5678
X7.288Y-4.745
X7.3507Y-2.3824
X7.3507Y-2.5076
X7.3507Y-4.5938
X7.3507Y-4.7191
X7.3766Y-2.445
X7.3766Y-4.6564
T3
X4.083Y-3.3225
X4.083Y-3.4013
X4.083Y-3.48
X4.1618Y-3.3225
X4.1618Y-3.4013
X4.1618Y-3.48
T4
X3.5724Y-3.2261
X3.5724Y-3.8261
X3.6724Y-3.2261
X3.6724Y-3.8261
X3.7724Y-3.2261
X3.7724Y-3.8261
X3.8724Y-3.2261
X3.8724Y-3.8261
X3.9724Y-3.2261
X3.9724Y-3.8261
X4.0724Y-3.2261
X4.0724Y-3.8261
X4.1724Y-3.2261
X4.1724Y-3.8261
X4.2724Y-3.2261
X4.2724Y-3.8261
X4.3724Y-3.2261
X4.3724Y-3.8261
X4.4724Y-3.2261
X4.4724Y-3.8261
X4.5724Y-3.2261
X4.5724Y-3.8261
X4.6724Y-3.2261
X4.6724Y-3.8261
X4.7724Y-3.2261
X4.7724Y-3.8261
X4.8724Y-3.2261
X4.8724Y-3.8261
X4.9724Y-3.2261
X4.9724Y-3.8261
X5.0724Y-3.2261
X5.0724Y-3.8261
X5.1724Y-3.2261
X5.1724Y-3.8261
X5.2724Y-3.2261
X5.2724Y-3.8261
X5.3724Y-3.2261
X5.3724Y-3.8261
X5.4724Y-3.2261
X5.4724Y-3.8261
X5.5724Y-3.2261
X5.5724Y-3.8261
X5.6724Y-3.2261
X5.6724Y-3.8261
X5.7724Y-3.2261
X5.7724Y-3.8261
X5.8724Y-3.2261
X5.8724Y-3.8261
X6.3172Y-3.8489
X6.4172Y-3.7489
X6.5172Y-3.8489
T5
X4.838Y-2.93
X4.938Y-2.93
X5.038Y-2.93
T6
X3.773Y-4.605
X3.873Y-4.605
X4.1605Y-4.6
X4.2605Y-4.6
X4.553Y-4.595
X4.653Y-4.595
X4.753Y-4.595
X4.853Y-4.595
X4.953Y-4.595
X5.053Y-4.595
X5.153Y-4.595
X5.253Y-4.595
X5.353Y-4.595
X5.453Y-4.595
X5.748Y-4.595
X5.848Y-4.595
X5.948Y-4.595
X6.048Y-4.595
X6.148Y-4.595
X6.248Y-4.595
X6.498Y-4.305
X6.533Y-4.605
X6.598Y-4.305
X6.633Y-4.605
X6.8251Y-3.77
X6.8251Y-3.87
X6.8251Y-3.97
X6.8251Y-4.07
X6.9251Y-3.82
X6.9251Y-3.92
X6.9251Y-4.02
X6.9251Y-4.12
X6.953Y-4.5475
X6.953Y-4.6475
T7
X6.5658Y-2.474
X6.6658Y-2.474
X6.7658Y-2.474
X7.1596Y-3.3273
X7.1596Y-3.4257
X7.1609Y-2.9572
X7.1609Y-3.0556
T8
X7.3046Y-3.696
X7.3046Y-4.094
X7.3751Y-3.796
X7.3751Y-4.194
T9
X7.055Y-3.635
X7.055Y-4.255
T10
X4.143Y-2.7085
X4.143Y-2.925
X4.528Y-2.7116
X4.528Y-2.9282
X5.614Y-2.6966
X5.614Y-2.9132
T11
X3.488Y-2.445
X3.488Y-4.6564
X7.288Y-2.445
X7.288Y-4.6564
T12
X7.1751Y-3.72
X7.1751Y-4.17
M30
