%TF.GenerationSoftware,KiCad,Pcbnew,9.0.8-9.0.8~ubuntu22.04.1*%
%TF.CreationDate,2026-03-23T14:42:38-05:00*%
%TF.ProjectId,RamanSpectrometerBoard,52616d61-6e53-4706-9563-74726f6d6574,rev?*%
%TF.SameCoordinates,Original*%
%TF.FileFunction,Soldermask,Top*%
%TF.FilePolarity,Negative*%
%FSLAX46Y46*%
G04 Gerber Fmt 4.6, Leading zero omitted, Abs format (unit mm)*
G04 Created by KiCad (PCBNEW 9.0.8-9.0.8~ubuntu22.04.1) date 2026-03-23 14:42:38*
%MOMM*%
%LPD*%
G01*
G04 APERTURE LIST*
G04 Aperture macros list*
%AMRoundRect*
0 Rectangle with rounded corners*
0 $1 Rounding radius*
0 $2 $3 $4 $5 $6 $7 $8 $9 X,Y pos of 4 corners*
0 Add a 4 corners polygon primitive as box body*
4,1,4,$2,$3,$4,$5,$6,$7,$8,$9,$2,$3,0*
0 Add four circle primitives for the rounded corners*
1,1,$1+$1,$2,$3*
1,1,$1+$1,$4,$5*
1,1,$1+$1,$6,$7*
1,1,$1+$1,$8,$9*
0 Add four rect primitives between the rounded corners*
20,1,$1+$1,$2,$3,$4,$5,0*
20,1,$1+$1,$4,$5,$6,$7,0*
20,1,$1+$1,$6,$7,$8,$9,0*
20,1,$1+$1,$8,$9,$2,$3,0*%
G04 Aperture macros list end*
%ADD10RoundRect,0.200000X0.200000X0.275000X-0.200000X0.275000X-0.200000X-0.275000X0.200000X-0.275000X0*%
%ADD11C,2.362200*%
%ADD12RoundRect,0.200000X-0.200000X-0.275000X0.200000X-0.275000X0.200000X0.275000X-0.200000X0.275000X0*%
%ADD13R,1.800000X1.800000*%
%ADD14C,1.800000*%
%ADD15RoundRect,0.109756X-0.377744X-0.115244X0.377744X-0.115244X0.377744X0.115244X-0.377744X0.115244X0*%
%ADD16RoundRect,0.097561X-0.389939X-0.102439X0.389939X-0.102439X0.389939X0.102439X-0.389939X0.102439X0*%
%ADD17RoundRect,0.068597X0.437653X-0.072028X0.437653X0.072028X-0.437653X0.072028X-0.437653X-0.072028X0*%
%ADD18RoundRect,0.068597X0.418903X-0.072028X0.418903X0.072028X-0.418903X0.072028X-0.418903X-0.072028X0*%
%ADD19RoundRect,0.097561X-0.414939X-0.102439X0.414939X-0.102439X0.414939X0.102439X-0.414939X0.102439X0*%
%ADD20RoundRect,0.225000X-0.225000X-0.250000X0.225000X-0.250000X0.225000X0.250000X-0.225000X0.250000X0*%
%ADD21RoundRect,0.150000X-0.150000X0.825000X-0.150000X-0.825000X0.150000X-0.825000X0.150000X0.825000X0*%
%ADD22RoundRect,0.237500X-0.300000X-0.237500X0.300000X-0.237500X0.300000X0.237500X-0.300000X0.237500X0*%
%ADD23RoundRect,0.237500X-0.237500X0.250000X-0.237500X-0.250000X0.237500X-0.250000X0.237500X0.250000X0*%
%ADD24RoundRect,0.237500X0.237500X-0.300000X0.237500X0.300000X-0.237500X0.300000X-0.237500X-0.300000X0*%
%ADD25RoundRect,0.237500X0.237500X-0.250000X0.237500X0.250000X-0.237500X0.250000X-0.237500X-0.250000X0*%
%ADD26RoundRect,0.250000X-0.750000X0.600000X-0.750000X-0.600000X0.750000X-0.600000X0.750000X0.600000X0*%
%ADD27O,2.000000X1.700000*%
%ADD28C,1.440000*%
%ADD29RoundRect,0.237500X-0.287500X-0.237500X0.287500X-0.237500X0.287500X0.237500X-0.287500X0.237500X0*%
%ADD30C,0.800000*%
%ADD31C,6.000000*%
%ADD32R,2.299995X2.560396*%
%ADD33RoundRect,0.200000X0.275000X-0.200000X0.275000X0.200000X-0.275000X0.200000X-0.275000X-0.200000X0*%
%ADD34C,1.524000*%
%ADD35RoundRect,0.150000X-0.587500X-0.150000X0.587500X-0.150000X0.587500X0.150000X-0.587500X0.150000X0*%
%ADD36RoundRect,0.150000X0.150000X-0.587500X0.150000X0.587500X-0.150000X0.587500X-0.150000X-0.587500X0*%
%ADD37RoundRect,0.225000X0.250000X-0.225000X0.250000X0.225000X-0.250000X0.225000X-0.250000X-0.225000X0*%
%ADD38RoundRect,0.225000X0.225000X0.250000X-0.225000X0.250000X-0.225000X-0.250000X0.225000X-0.250000X0*%
%ADD39RoundRect,0.200000X-0.275000X0.200000X-0.275000X-0.200000X0.275000X-0.200000X0.275000X0.200000X0*%
%ADD40RoundRect,0.102000X-0.975000X0.600000X-0.975000X-0.600000X0.975000X-0.600000X0.975000X0.600000X0*%
%ADD41RoundRect,0.250000X-0.625000X0.400000X-0.625000X-0.400000X0.625000X-0.400000X0.625000X0.400000X0*%
%ADD42RoundRect,0.150000X-0.150000X0.587500X-0.150000X-0.587500X0.150000X-0.587500X0.150000X0.587500X0*%
%ADD43R,0.914400X0.711200*%
%ADD44RoundRect,0.250000X0.550000X-1.500000X0.550000X1.500000X-0.550000X1.500000X-0.550000X-1.500000X0*%
%ADD45RoundRect,0.237500X0.300000X0.237500X-0.300000X0.237500X-0.300000X-0.237500X0.300000X-0.237500X0*%
%ADD46R,1.460500X0.533400*%
%ADD47C,1.100000*%
%ADD48C,1.400000*%
%ADD49C,4.000000*%
%ADD50C,2.000000*%
%ADD51R,1.400000X1.600000*%
%ADD52RoundRect,0.250000X1.250000X0.550000X-1.250000X0.550000X-1.250000X-0.550000X1.250000X-0.550000X0*%
%ADD53R,0.700000X0.640000*%
%ADD54RoundRect,0.150000X0.825000X0.150000X-0.825000X0.150000X-0.825000X-0.150000X0.825000X-0.150000X0*%
%ADD55R,2.950000X3.500000*%
%ADD56RoundRect,0.170500X-0.511500X0.556500X-0.511500X-0.556500X0.511500X-0.556500X0.511500X0.556500X0*%
%ADD57C,1.308000*%
%ADD58C,1.208000*%
G04 APERTURE END LIST*
D10*
%TO.C,R13*%
X167061024Y-89763000D03*
X165411024Y-89763000D03*
%TD*%
D11*
%TO.C,J4*%
X142596424Y-68494551D03*
X142596424Y-73994550D03*
%TD*%
D12*
%TO.C,R12*%
X157561024Y-86213000D03*
X159211024Y-86213000D03*
%TD*%
D13*
%TO.C,U8*%
X166771400Y-62838600D03*
D14*
X169311400Y-62838600D03*
X171851400Y-62838600D03*
%TD*%
D15*
%TO.C,R22*%
X171648524Y-71988000D03*
D16*
X171648524Y-72963000D03*
D17*
X171679774Y-72472375D03*
D18*
X173498524Y-72472375D03*
D19*
X173498524Y-72963000D03*
D15*
X173523524Y-71988000D03*
%TD*%
D20*
%TO.C,C21*%
X153200000Y-62750000D03*
X154750000Y-62750000D03*
%TD*%
D21*
%TO.C,U6*%
X100788024Y-101157000D03*
X99518024Y-101157000D03*
X98248024Y-101157000D03*
X96978024Y-101157000D03*
X96978024Y-106107000D03*
X98248024Y-106107000D03*
X99518024Y-106107000D03*
X100788024Y-106107000D03*
%TD*%
D22*
%TO.C,C2*%
X127865524Y-76581000D03*
X129590524Y-76581000D03*
%TD*%
D23*
%TO.C,R27*%
X91517024Y-108180500D03*
X91517024Y-110005500D03*
%TD*%
D24*
%TO.C,C16*%
X87326024Y-106107000D03*
X87326024Y-104382000D03*
%TD*%
%TO.C,C1*%
X170786024Y-93975500D03*
X170786024Y-92250500D03*
%TD*%
D25*
%TO.C,R26*%
X98121024Y-110005500D03*
X98121024Y-108180500D03*
%TD*%
D26*
%TO.C,J6*%
X181886024Y-75113000D03*
D27*
X181886024Y-77613000D03*
%TD*%
D28*
%TO.C,RV1*%
X160456024Y-97763000D03*
X162996024Y-95223000D03*
X165536024Y-97763000D03*
%TD*%
D10*
%TO.C,R20*%
X168825000Y-70000000D03*
X167175000Y-70000000D03*
%TD*%
D29*
%TO.C,D1*%
X135269000Y-60198000D03*
X137019000Y-60198000D03*
%TD*%
D30*
%TO.C,H3*%
X86346024Y-118273000D03*
X87005034Y-116682010D03*
X87005034Y-119863990D03*
X88596024Y-116023000D03*
D31*
X88596024Y-118273000D03*
D30*
X88596024Y-120523000D03*
X90187014Y-116682010D03*
X90187014Y-119863990D03*
X90846024Y-118273000D03*
%TD*%
D32*
%TO.C,C14*%
X162279791Y-72603594D03*
X162279791Y-68559202D03*
%TD*%
D29*
%TO.C,D2*%
X135269000Y-62992000D03*
X137019000Y-62992000D03*
%TD*%
D33*
%TO.C,R17*%
X165536024Y-79188000D03*
X165536024Y-77538000D03*
%TD*%
D20*
%TO.C,C11*%
X153150000Y-61100000D03*
X154700000Y-61100000D03*
%TD*%
D34*
%TO.C,U2*%
X127966024Y-74422000D03*
X125426024Y-74422000D03*
X122886024Y-74422000D03*
%TD*%
D35*
%TO.C,Q6*%
X167148524Y-71513000D03*
X167148524Y-73413000D03*
X169023524Y-72463000D03*
%TD*%
D36*
%TO.C,Q5*%
X167824024Y-67662500D03*
X169724024Y-67662500D03*
X168774024Y-65787500D03*
%TD*%
D34*
%TO.C,Conn2*%
X168479024Y-116967000D03*
X165939024Y-116967000D03*
%TD*%
D11*
%TO.C,J3*%
X115012024Y-68875551D03*
X115012024Y-74375550D03*
%TD*%
D33*
%TO.C,R15*%
X163886024Y-87988000D03*
X163886024Y-86338000D03*
%TD*%
D37*
%TO.C,C10*%
X169436024Y-78513000D03*
X169436024Y-76963000D03*
%TD*%
D38*
%TO.C,C5*%
X167011024Y-91313000D03*
X165461024Y-91313000D03*
%TD*%
D39*
%TO.C,R14*%
X167086024Y-77538000D03*
X167086024Y-79188000D03*
%TD*%
%TO.C,R11*%
X162236024Y-80188000D03*
X162236024Y-81838000D03*
%TD*%
D23*
%TO.C,R2*%
X133731000Y-62992000D03*
X133731000Y-64817000D03*
%TD*%
D33*
%TO.C,R21*%
X165236024Y-73388000D03*
X165236024Y-71738000D03*
%TD*%
D37*
%TO.C,C13*%
X158979791Y-63256398D03*
X158979791Y-61706398D03*
%TD*%
D25*
%TO.C,R25*%
X99645024Y-110005500D03*
X99645024Y-108180500D03*
%TD*%
D24*
%TO.C,C18*%
X88442800Y-109879300D03*
X88442800Y-108154300D03*
%TD*%
D30*
%TO.C,H2*%
X182866024Y-62103000D03*
X183525034Y-60512010D03*
X183525034Y-63693990D03*
X185116024Y-59853000D03*
D31*
X185116024Y-62103000D03*
D30*
X185116024Y-64353000D03*
X186707014Y-60512010D03*
X186707014Y-63693990D03*
X187366024Y-62103000D03*
%TD*%
D34*
%TO.C,Conn1*%
X138507024Y-116713000D03*
X135967024Y-116713000D03*
X133427024Y-116713000D03*
X130887024Y-116713000D03*
X128347024Y-116713000D03*
X125807024Y-116713000D03*
X123267024Y-116713000D03*
X120727024Y-116713000D03*
X118187024Y-116713000D03*
X115647024Y-116713000D03*
%TD*%
%TO.C,Conn6*%
X98375024Y-116967000D03*
X95835024Y-116967000D03*
%TD*%
D40*
%TO.C,S1*%
X103582024Y-102442000D03*
X103582024Y-104942000D03*
X103582024Y-107442000D03*
X109232024Y-102442000D03*
X109232024Y-104942000D03*
X109232024Y-107442000D03*
%TD*%
D30*
%TO.C,H4*%
X182866024Y-118273000D03*
X183525034Y-116682010D03*
X183525034Y-119863990D03*
X185116024Y-116023000D03*
D31*
X185116024Y-118273000D03*
D30*
X185116024Y-120523000D03*
X186707014Y-116682010D03*
X186707014Y-119863990D03*
X187366024Y-118273000D03*
%TD*%
D24*
%TO.C,C17*%
X96597024Y-109955500D03*
X96597024Y-108230500D03*
%TD*%
D41*
%TO.C,R24*%
X149779791Y-64078697D03*
X149779791Y-67178697D03*
%TD*%
D42*
%TO.C,Q7*%
X150929791Y-69191197D03*
X149029791Y-69191197D03*
X149979791Y-71066197D03*
%TD*%
D25*
%TO.C,R4*%
X136906000Y-71143500D03*
X136906000Y-69318500D03*
%TD*%
D30*
%TO.C,H1*%
X86346024Y-62103000D03*
X87005034Y-60512010D03*
X87005034Y-63693990D03*
X88596024Y-59853000D03*
D31*
X88596024Y-62103000D03*
D30*
X88596024Y-64353000D03*
X90187014Y-60512010D03*
X90187014Y-63693990D03*
X90846024Y-62103000D03*
%TD*%
D38*
%TO.C,C12*%
X149954791Y-62328697D03*
X148404791Y-62328697D03*
%TD*%
D25*
%TO.C,R28*%
X89993024Y-110005500D03*
X89993024Y-108180500D03*
%TD*%
D43*
%TO.C,D4*%
X131597400Y-70993000D03*
X134848600Y-70993000D03*
%TD*%
D34*
%TO.C,Conn4*%
X158700024Y-116713000D03*
X156160024Y-116713000D03*
X153620024Y-116713000D03*
X151080024Y-116713000D03*
X148540024Y-116713000D03*
X146000024Y-116713000D03*
%TD*%
D21*
%TO.C,U7*%
X92660024Y-101157000D03*
X91390024Y-101157000D03*
X90120024Y-101157000D03*
X88850024Y-101157000D03*
X88850024Y-106107000D03*
X90120024Y-106107000D03*
X91390024Y-106107000D03*
X92660024Y-106107000D03*
%TD*%
D44*
%TO.C,C8*%
X177643524Y-70963000D03*
X177643524Y-65563000D03*
%TD*%
D45*
%TO.C,C3*%
X122859524Y-76708000D03*
X121134524Y-76708000D03*
%TD*%
D46*
%TO.C,U5*%
X158488941Y-68501398D03*
X158488941Y-67231398D03*
X158488941Y-65961398D03*
X158488941Y-64691398D03*
X153040641Y-64691398D03*
X153040641Y-65961398D03*
X153040641Y-67231398D03*
X153040641Y-68501398D03*
%TD*%
D47*
%TO.C,J1*%
X175896524Y-104648000D03*
X173356524Y-103378000D03*
X175896524Y-102108000D03*
X173356524Y-100838000D03*
X175896524Y-99568000D03*
X173356524Y-98298000D03*
X175896524Y-97028000D03*
X173356524Y-95758000D03*
D48*
X187326524Y-106528000D03*
X185536524Y-103988000D03*
X187326524Y-96418000D03*
X185536524Y-93878000D03*
D49*
X182246524Y-105918000D03*
X182246524Y-94488000D03*
D50*
X179196524Y-108078000D03*
X179196524Y-92328000D03*
%TD*%
D51*
%TO.C,SW2*%
X94970024Y-77260000D03*
X94970024Y-70060000D03*
X97970024Y-77260000D03*
X97970024Y-70060000D03*
%TD*%
D24*
%TO.C,C15*%
X95327024Y-106145500D03*
X95327024Y-104420500D03*
%TD*%
D52*
%TO.C,C4*%
X160836024Y-90213000D03*
X156436024Y-90213000D03*
%TD*%
D34*
%TO.C,Conn3*%
X176607024Y-115506500D03*
X176607024Y-118046500D03*
%TD*%
%TO.C,Conn5*%
X165050024Y-109347000D03*
X167590024Y-109347000D03*
%TD*%
D23*
%TO.C,R3*%
X133731000Y-66421000D03*
X133731000Y-68246000D03*
%TD*%
D12*
%TO.C,R18*%
X165386024Y-92913000D03*
X167036024Y-92913000D03*
%TD*%
D33*
%TO.C,R19*%
X166174024Y-67950000D03*
X166174024Y-66300000D03*
%TD*%
D53*
%TO.C,RN2*%
X173286024Y-80345500D03*
X173286024Y-79405500D03*
X171886024Y-79405500D03*
X171886024Y-80345500D03*
%TD*%
D22*
%TO.C,C20*%
X175637500Y-62750000D03*
X177362500Y-62750000D03*
%TD*%
D34*
%TO.C,Conn7*%
X108217524Y-116840000D03*
X105677524Y-116840000D03*
%TD*%
D29*
%TO.C,D3*%
X135269000Y-65532000D03*
X137019000Y-65532000D03*
%TD*%
D21*
%TO.C,U3*%
X160141024Y-79038000D03*
X158871024Y-79038000D03*
X157601024Y-79038000D03*
X156331024Y-79038000D03*
X156331024Y-83988000D03*
X157601024Y-83988000D03*
X158871024Y-83988000D03*
X160141024Y-83988000D03*
%TD*%
D53*
%TO.C,RN1*%
X173286024Y-77845500D03*
X173286024Y-76905500D03*
X171886024Y-76905500D03*
X171886024Y-77845500D03*
%TD*%
D23*
%TO.C,R1*%
X133731000Y-59666500D03*
X133731000Y-61491500D03*
%TD*%
D26*
%TO.C,J5*%
X181853524Y-84513000D03*
D27*
X181853524Y-87013000D03*
%TD*%
D54*
%TO.C,MOSFET1*%
X136841000Y-77089000D03*
X136841000Y-75819000D03*
X136841000Y-74549000D03*
X136841000Y-73279000D03*
X131891000Y-73279000D03*
X131891000Y-74549000D03*
X131891000Y-75819000D03*
X131891000Y-77089000D03*
%TD*%
D55*
%TO.C,L1*%
X152954791Y-73381398D03*
X158404791Y-73381398D03*
%TD*%
D51*
%TO.C,SW1*%
X97970024Y-60662000D03*
X97970024Y-67862000D03*
X94970024Y-60662000D03*
X94970024Y-67862000D03*
%TD*%
D21*
%TO.C,U4*%
X173271024Y-82763000D03*
X172001024Y-82763000D03*
X170731024Y-82763000D03*
X169461024Y-82763000D03*
X168191024Y-82763000D03*
X166921024Y-82763000D03*
X165651024Y-82763000D03*
X165651024Y-87713000D03*
X166921024Y-87713000D03*
X168191024Y-87713000D03*
X169461024Y-87713000D03*
X170731024Y-87713000D03*
X172001024Y-87713000D03*
X173271024Y-87713000D03*
%TD*%
D56*
%TO.C,D6*%
X149779791Y-73098697D03*
X149779791Y-76158697D03*
%TD*%
D38*
%TO.C,C7*%
X167111024Y-80713000D03*
X165561024Y-80713000D03*
%TD*%
D20*
%TO.C,C6*%
X162361024Y-84713000D03*
X163911024Y-84713000D03*
%TD*%
D11*
%TO.C,J2*%
X105233024Y-68795001D03*
X105233024Y-74295000D03*
%TD*%
D24*
%TO.C,C19*%
X162250000Y-62862500D03*
X162250000Y-61137500D03*
%TD*%
D57*
%TO.C,U1*%
X93279024Y-97182000D03*
X95819024Y-97182000D03*
X98359024Y-97182000D03*
X100899024Y-97182000D03*
X126299024Y-97182000D03*
X95819024Y-81942000D03*
X103439024Y-97182000D03*
X105979024Y-97182000D03*
X108519024Y-97182000D03*
X111059024Y-97182000D03*
X113599024Y-97182000D03*
X116139024Y-97182000D03*
X118679024Y-97182000D03*
X121219024Y-97182000D03*
X123759024Y-97182000D03*
X123759024Y-81942000D03*
X121219024Y-81942000D03*
X118679024Y-81942000D03*
X116139024Y-81942000D03*
X113599024Y-81942000D03*
X111059024Y-81942000D03*
X108519024Y-81942000D03*
X105979024Y-81942000D03*
X103439024Y-81942000D03*
X100899024Y-81942000D03*
X98359024Y-81942000D03*
X128839024Y-97182000D03*
X131379024Y-97182000D03*
X133919024Y-97182000D03*
X136459024Y-97182000D03*
X138999024Y-97182000D03*
X141539024Y-97182000D03*
X144079024Y-97182000D03*
X146619024Y-97182000D03*
X149159024Y-97182000D03*
X149159024Y-81942000D03*
X146619024Y-81942000D03*
X144079024Y-81942000D03*
X141539024Y-81942000D03*
X138999024Y-81942000D03*
X136459024Y-81942000D03*
X133919024Y-81942000D03*
X131379024Y-81942000D03*
X128839024Y-81942000D03*
X90739024Y-97182000D03*
X126299024Y-81942000D03*
X93279024Y-81942000D03*
D58*
X105709024Y-86392000D03*
X103709024Y-86392000D03*
X103709024Y-84392000D03*
X105709024Y-84392000D03*
X105709024Y-88392000D03*
X103709024Y-88392000D03*
D57*
X90739024Y-81942000D03*
%TD*%
M02*
