%TF.GenerationSoftware,KiCad,Pcbnew,8.0.8*%
%TF.CreationDate,2025-03-18T22:16:49-05:00*%
%TF.ProjectId,Raman_Spectrometer_Board,52616d61-6e5f-4537-9065-6374726f6d65,rev?*%
%TF.SameCoordinates,Original*%
%TF.FileFunction,Copper,L2,Bot*%
%TF.FilePolarity,Positive*%
%FSLAX46Y46*%
G04 Gerber Fmt 4.6, Leading zero omitted, Abs format (unit mm)*
G04 Created by KiCad (PCBNEW 8.0.8) date 2025-03-18 22:16:49*
%MOMM*%
%LPD*%
G01*
G04 APERTURE LIST*
%TA.AperFunction,ComponentPad*%
%ADD10R,1.700000X1.700000*%
%TD*%
%TA.AperFunction,ComponentPad*%
%ADD11O,1.700000X1.700000*%
%TD*%
%TA.AperFunction,ComponentPad*%
%ADD12C,1.524000*%
%TD*%
%TA.AperFunction,ComponentPad*%
%ADD13C,1.308000*%
%TD*%
%TA.AperFunction,ComponentPad*%
%ADD14C,1.208000*%
%TD*%
%TA.AperFunction,ComponentPad*%
%ADD15C,1.100000*%
%TD*%
%TA.AperFunction,ComponentPad*%
%ADD16C,1.400000*%
%TD*%
%TA.AperFunction,ComponentPad*%
%ADD17C,4.000000*%
%TD*%
%TA.AperFunction,ComponentPad*%
%ADD18C,2.000000*%
%TD*%
%TA.AperFunction,ComponentPad*%
%ADD19O,3.000000X5.100000*%
%TD*%
%TA.AperFunction,ViaPad*%
%ADD20C,0.800000*%
%TD*%
%TA.AperFunction,Conductor*%
%ADD21C,0.250000*%
%TD*%
%TA.AperFunction,Conductor*%
%ADD22C,0.254000*%
%TD*%
%TA.AperFunction,Conductor*%
%ADD23C,0.508000*%
%TD*%
%TA.AperFunction,Conductor*%
%ADD24C,0.381000*%
%TD*%
G04 APERTURE END LIST*
D10*
%TO.P,J3,1,Pin_1*%
%TO.N,GND*%
X103505000Y-60960000D03*
D11*
%TO.P,J3,2,Pin_2*%
%TO.N,STRAIN_GAUGE_1*%
X106045000Y-60960000D03*
%TO.P,J3,3,Pin_3*%
%TO.N,+5V*%
X108585000Y-60960000D03*
%TD*%
D10*
%TO.P,J2,1,Pin_1*%
%TO.N,GND*%
X108570000Y-69596000D03*
D11*
%TO.P,J2,2,Pin_2*%
%TO.N,STRAIN_GAUGE_2*%
X106030000Y-69596000D03*
%TO.P,J2,3,Pin_3*%
%TO.N,+5V*%
X103490000Y-69596000D03*
%TD*%
D12*
%TO.P,Conn12,1*%
%TO.N,+5V*%
X88519000Y-42164000D03*
%TO.P,Conn12,2*%
%TO.N,GimbalPWM_B*%
X88519000Y-44704000D03*
%TO.P,Conn12,3*%
%TO.N,GND*%
X88519000Y-47244000D03*
%TD*%
%TO.P,Conn8,1*%
%TO.N,+3.3V*%
X142494000Y-34861500D03*
%TO.P,Conn8,2*%
%TO.N,Limit Switch 1*%
X142494000Y-37401500D03*
%TD*%
D13*
%TO.P,U1,0,RX1*%
%TO.N,unconnected-(U1-RX1-Pad0)*%
X133350000Y-105156000D03*
%TO.P,U1,1,TX1*%
%TO.N,unconnected-(U1-TX1-Pad1)*%
X133350000Y-102616000D03*
%TO.P,U1,2,OUT2*%
%TO.N,unconnected-(U1-OUT2-Pad2)*%
X133350000Y-100076000D03*
%TO.P,U1,3,LRCLK2*%
%TO.N,SEL*%
X133350000Y-97536000D03*
%TO.P,U1,3.3V_1,3.3V*%
%TO.N,+3.3V*%
X133350000Y-72136000D03*
%TO.P,U1,3.3V_2,3.3V*%
X118110000Y-102616000D03*
%TO.P,U1,4,BCLK2*%
%TO.N,IN_A*%
X133350000Y-94996000D03*
%TO.P,U1,5,IN2*%
%TO.N,unconnected-(U1-IN2-Pad5)*%
X133350000Y-92456000D03*
%TO.P,U1,6,OUT1D*%
%TO.N,PWM*%
X133350000Y-89916000D03*
%TO.P,U1,7,RX2*%
%TO.N,IN_B*%
X133350000Y-87376000D03*
%TO.P,U1,8,TX2*%
%TO.N,unconnected-(U1-TX2-Pad8)*%
X133350000Y-84836000D03*
%TO.P,U1,9,OUT1C*%
%TO.N,FAN_OUT*%
X133350000Y-82296000D03*
%TO.P,U1,10,CS1*%
%TO.N,unconnected-(U1-CS1-Pad10)*%
X133350000Y-79756000D03*
%TO.P,U1,11,MOSI*%
%TO.N,unconnected-(U1-MOSI-Pad11)*%
X133350000Y-77216000D03*
%TO.P,U1,12,MISO*%
%TO.N,unconnected-(U1-MISO-Pad12)*%
X133350000Y-74676000D03*
%TO.P,U1,13,SCK*%
%TO.N,unconnected-(U1-SCK-Pad13)*%
X118110000Y-74676000D03*
%TO.P,U1,14,A0*%
%TO.N,unconnected-(U1-A0-Pad14)*%
X118110000Y-77216000D03*
%TO.P,U1,15,A1*%
%TO.N,unconnected-(U1-A1-Pad15)*%
X118110000Y-79756000D03*
%TO.P,U1,16,A2*%
%TO.N,unconnected-(U1-A2-Pad16)*%
X118110000Y-82296000D03*
%TO.P,U1,17,A3*%
%TO.N,GPIO*%
X118110000Y-84836000D03*
%TO.P,U1,18,A4*%
%TO.N,SDA*%
X118110000Y-87376000D03*
%TO.P,U1,19,A5*%
%TO.N,SCL*%
X118110000Y-89916000D03*
%TO.P,U1,20,A6*%
%TO.N,CS*%
X118110000Y-92456000D03*
%TO.P,U1,21,A7*%
%TO.N,unconnected-(U1-A7-Pad21)*%
X118110000Y-94996000D03*
%TO.P,U1,22,A8*%
%TO.N,Encoder A*%
X118110000Y-97536000D03*
%TO.P,U1,23,A9*%
%TO.N,Encoder B*%
X118110000Y-100076000D03*
%TO.P,U1,24,A10*%
%TO.N,CCD_ROG_3.3V*%
X133350000Y-69596000D03*
%TO.P,U1,25,A11*%
%TO.N,CLD_CLK_3.3V*%
X133350000Y-67056000D03*
%TO.P,U1,26,A12*%
%TO.N,unconnected-(U1-A12-Pad26)*%
X133350000Y-64516000D03*
%TO.P,U1,27,A13*%
%TO.N,unconnected-(U1-A13-Pad27)*%
X133350000Y-61976000D03*
%TO.P,U1,28,RX7*%
%TO.N,Limit Switch 3*%
X133350000Y-59436000D03*
%TO.P,U1,29,TX7*%
%TO.N,Limit Switch 2*%
X133350000Y-56896000D03*
%TO.P,U1,30,CRX3*%
%TO.N,Limit Switch 1*%
X133350000Y-54356000D03*
%TO.P,U1,31,CTX3*%
%TO.N,unconnected-(U1-CTX3-Pad31)*%
X133350000Y-51816000D03*
%TO.P,U1,32,OUT1B*%
%TO.N,unconnected-(U1-OUT1B-Pad32)*%
X133350000Y-49276000D03*
%TO.P,U1,33,MCLK2*%
%TO.N,Green_Laser_3.3V*%
X118110000Y-49276000D03*
%TO.P,U1,34,RX8*%
%TO.N,CCD_Vout*%
X118110000Y-51816000D03*
%TO.P,U1,35,TX8*%
%TO.N,unconnected-(U1-TX8-Pad35)*%
X118110000Y-54356000D03*
%TO.P,U1,36,CS2*%
%TO.N,GimbalPWM_A*%
X118110000Y-56896000D03*
%TO.P,U1,37,CS3*%
%TO.N,GimbalPWM_B*%
X118110000Y-59436000D03*
%TO.P,U1,38,A14*%
%TO.N,STRAIN_GAUGE_2*%
X118110000Y-61976000D03*
%TO.P,U1,39,A15*%
%TO.N,STRAIN_GAUGE_1*%
X118110000Y-64516000D03*
%TO.P,U1,40,A16*%
%TO.N,SW1*%
X118110000Y-67056000D03*
%TO.P,U1,41,A17*%
%TO.N,SW2*%
X118110000Y-69596000D03*
%TO.P,U1,GND1,GND*%
%TO.N,GND*%
X133350000Y-107696000D03*
%TO.P,U1,GND2,GND*%
X118110000Y-72136000D03*
%TO.P,U1,GND3,GND*%
X118110000Y-105156000D03*
D14*
%TO.P,U1,GND5,GND*%
X122560000Y-92726000D03*
%TO.P,U1,LED,LED*%
%TO.N,LED*%
X122560000Y-94726000D03*
%TO.P,U1,R+,R+*%
%TO.N,R+*%
X120560000Y-94726000D03*
%TO.P,U1,R-,R-*%
%TO.N,R-*%
X120560000Y-92726000D03*
%TO.P,U1,T+,T+*%
%TO.N,T+*%
X124560000Y-92726000D03*
%TO.P,U1,T-,T-*%
%TO.N,T-*%
X124560000Y-94726000D03*
D13*
%TO.P,U1,VIN,VIN*%
%TO.N,+5V*%
X118110000Y-107696000D03*
%TD*%
D12*
%TO.P,Conn3,1*%
%TO.N,Net-(Q1-D)*%
X77724000Y-31430000D03*
%TO.P,Conn3,2*%
%TO.N,+12V*%
X77724000Y-33970000D03*
%TD*%
%TO.P,Conn7,1*%
%TO.N,+5V*%
X77724000Y-85852000D03*
%TO.P,Conn7,2*%
%TO.N,Encoder A*%
X77724000Y-88392000D03*
%TO.P,Conn7,3*%
%TO.N,Encoder B*%
X77724000Y-90932000D03*
%TO.P,Conn7,4*%
%TO.N,GND*%
X77724000Y-93472000D03*
%TD*%
%TO.P,Conn2,1*%
%TO.N,+3.3V*%
X142240000Y-66040000D03*
%TO.P,Conn2,2*%
%TO.N,GND*%
X142240000Y-68580000D03*
%TO.P,Conn2,3*%
%TO.N,SCL*%
X142240000Y-71120000D03*
%TO.P,Conn2,4*%
%TO.N,SDA*%
X142240000Y-73660000D03*
%TO.P,Conn2,5*%
%TO.N,GPIO*%
X142240000Y-76200000D03*
%TO.P,Conn2,6*%
%TO.N,+3.3V*%
X142240000Y-78740000D03*
%TD*%
%TO.P,Conn4,1*%
%TO.N,Net-(Q2-D)*%
X77724000Y-58862000D03*
%TO.P,Conn4,2*%
%TO.N,+5V*%
X77724000Y-61402000D03*
%TD*%
D15*
%TO.P,J1,1*%
%TO.N,T+*%
X130083670Y-36528132D03*
%TO.P,J1,2*%
%TO.N,Net-(C3-Pad1)*%
X128813670Y-39068132D03*
%TO.P,J1,3*%
%TO.N,T-*%
X127543670Y-36528132D03*
%TO.P,J1,4*%
%TO.N,R+*%
X126273670Y-39068132D03*
%TO.P,J1,5*%
%TO.N,Net-(C3-Pad1)*%
X125003670Y-36528132D03*
%TO.P,J1,6*%
%TO.N,R-*%
X123733670Y-39068132D03*
%TO.P,J1,7*%
%TO.N,unconnected-(J1-Pad7)*%
X122463670Y-36528132D03*
%TO.P,J1,8*%
%TO.N,GND*%
X121193670Y-39068132D03*
D16*
%TO.P,J1,9*%
X131963670Y-25098132D03*
%TO.P,J1,10*%
%TO.N,LED*%
X129423670Y-26888132D03*
%TO.P,J1,11*%
%TO.N,unconnected-(J1-Pad11)*%
X121853670Y-25098132D03*
%TO.P,J1,12*%
%TO.N,unconnected-(J1-Pad12)*%
X119313670Y-26888132D03*
D17*
%TO.P,J1,13*%
%TO.N,N/C*%
X131353670Y-30178132D03*
%TO.P,J1,14*%
X119923670Y-30178132D03*
D18*
%TO.P,J1,SH*%
%TO.N,GND*%
X133513670Y-33228132D03*
X117763670Y-33228132D03*
%TD*%
D12*
%TO.P,Conn5,1*%
%TO.N,+5V*%
X77724000Y-41590000D03*
%TO.P,Conn5,2*%
%TO.N,CCD_CLK_5V*%
X77724000Y-44130000D03*
%TO.P,Conn5,3*%
%TO.N,CCD_ROG_5V*%
X77724000Y-46670000D03*
%TO.P,Conn5,4*%
%TO.N,CCD_Vout*%
X77724000Y-49210000D03*
%TO.P,Conn5,5*%
%TO.N,GND*%
X77724000Y-51750000D03*
%TD*%
%TO.P,U2,1,Vi*%
%TO.N,+12V*%
X91821000Y-100076000D03*
%TO.P,U2,2,GND*%
%TO.N,GND*%
X91821000Y-102616000D03*
%TO.P,U2,3,Vo*%
%TO.N,+5V*%
X91821000Y-105156000D03*
%TD*%
%TO.P,Conn6,1*%
%TO.N,IN_B*%
X142240000Y-87376000D03*
%TO.P,Conn6,2*%
%TO.N,PWM*%
X142240000Y-89916000D03*
%TO.P,Conn6,3*%
%TO.N,CS*%
X142240000Y-92456000D03*
%TO.P,Conn6,4*%
%TO.N,IN_A*%
X142240000Y-94996000D03*
%TO.P,Conn6,5*%
%TO.N,SEL*%
X142240000Y-97536000D03*
%TD*%
%TO.P,Conn9,1*%
%TO.N,+3.3V*%
X142494000Y-44704000D03*
%TO.P,Conn9,2*%
%TO.N,Limit Switch 2*%
X142494000Y-47244000D03*
%TD*%
%TO.P,Conn11,1*%
%TO.N,+5V*%
X88519000Y-31369000D03*
%TO.P,Conn11,2*%
%TO.N,GimbalPWM_A*%
X88519000Y-33909000D03*
%TO.P,Conn11,3*%
%TO.N,GND*%
X88519000Y-36449000D03*
%TD*%
D19*
%TO.P,Conn1,1,GND*%
%TO.N,GND*%
X93407200Y-70739000D03*
%TO.P,Conn1,4,PV+*%
%TO.N,+12V*%
X93407200Y-78613000D03*
%TD*%
D12*
%TO.P,Conn10,1*%
%TO.N,+3.3V*%
X142494000Y-54610000D03*
%TO.P,Conn10,2*%
%TO.N,Limit Switch 3*%
X142494000Y-57150000D03*
%TD*%
D20*
%TO.N,GND*%
X125730000Y-88900000D03*
X127000000Y-85090000D03*
X127000000Y-78740000D03*
X127000000Y-74676000D03*
X127000000Y-72136000D03*
X127000000Y-66040000D03*
X127000000Y-59690000D03*
X127000000Y-54610000D03*
%TO.N,CCD_ROG_5V*%
X98228433Y-43122567D03*
%TO.N,GimbalPWM_B*%
X90805000Y-49784000D03*
%TO.N,CCD_CLK_5V*%
X99250500Y-43116500D03*
%TO.N,GimbalPWM_B*%
X113157000Y-50003000D03*
X113218029Y-54229000D03*
%TO.N,+5V*%
X135382000Y-104013000D03*
%TO.N,+12V*%
X140081000Y-107315000D03*
X96393000Y-111506000D03*
%TO.N,SCL*%
X120777000Y-71501000D03*
%TO.N,GPIO*%
X119888000Y-76708000D03*
%TO.N,FAN_OUT*%
X114173000Y-57658000D03*
X91948000Y-57658000D03*
%TO.N,+3.3V*%
X105156000Y-40386000D03*
X114210000Y-40005000D03*
X105156000Y-46482000D03*
X113411000Y-46228000D03*
%TO.N,CLD_CLK_3.3V*%
X105537000Y-41656000D03*
X131953000Y-42799000D03*
%TO.N,CCD_ROG_3.3V*%
X105029000Y-34798000D03*
X114455317Y-34781318D03*
%TO.N,GimbalPWM_A*%
X115122029Y-34036000D03*
X115122029Y-53340000D03*
%TO.N,Green_Laser_3.3V*%
X108458000Y-48895000D03*
%TO.N,GND*%
X120650000Y-66040000D03*
X125730000Y-99060000D03*
X119380000Y-46990000D03*
X88900000Y-66040000D03*
X120650000Y-54610000D03*
X101600000Y-97790000D03*
X107950000Y-78740000D03*
X81026000Y-54737000D03*
X138938000Y-61722000D03*
X107950000Y-72390000D03*
X88900000Y-91313000D03*
X101600000Y-27940000D03*
X101600000Y-104140000D03*
X138938000Y-53340000D03*
X82550000Y-66040000D03*
X82550000Y-27940000D03*
X88900000Y-72390000D03*
X120650000Y-59690000D03*
X106680000Y-27940000D03*
X138938000Y-40640000D03*
X133350000Y-27940000D03*
X95250000Y-27940000D03*
X120650000Y-104140000D03*
X95250000Y-104140000D03*
X107950000Y-91440000D03*
X82804000Y-37592000D03*
X138938000Y-34290000D03*
X115570000Y-104140000D03*
X120650000Y-34290000D03*
X137160000Y-85090000D03*
X107950000Y-85090000D03*
X81026000Y-42164000D03*
X125730000Y-104140000D03*
X107950000Y-104140000D03*
X107950000Y-97790000D03*
X78740000Y-72390000D03*
X88900000Y-27940000D03*
X88900000Y-85090000D03*
X120650000Y-99060000D03*
%TO.N,FAN_OUT*%
X113919000Y-91186000D03*
%TO.N,CCD_ROG_3.3V*%
X116840000Y-70395000D03*
%TO.N,+5V*%
X103505000Y-105156000D03*
X93726000Y-108966000D03*
%TD*%
D21*
%TO.N,CCD_ROG_3.3V*%
X119470000Y-70395000D02*
X132551000Y-70395000D01*
X117311000Y-70866000D02*
X118999000Y-70866000D01*
X132551000Y-70395000D02*
X133350000Y-69596000D01*
X116840000Y-70395000D02*
X117311000Y-70866000D01*
X118999000Y-70866000D02*
X119470000Y-70395000D01*
%TO.N,Encoder B*%
X108654000Y-95954000D02*
X84649604Y-95954000D01*
X79627604Y-90932000D02*
X77724000Y-90932000D01*
X118110000Y-100076000D02*
X112776000Y-100076000D01*
X112776000Y-100076000D02*
X108654000Y-95954000D01*
X84649604Y-95954000D02*
X79627604Y-90932000D01*
%TO.N,Encoder A*%
X118110000Y-97536000D02*
X116078000Y-95504000D01*
X116078000Y-95504000D02*
X84836000Y-95504000D01*
X84836000Y-95504000D02*
X77724000Y-88392000D01*
D22*
%TO.N,CCD_CLK_5V*%
X95758000Y-39624000D02*
X79629000Y-39624000D01*
X79629000Y-39624000D02*
X79121000Y-40132000D01*
X99250500Y-43116500D02*
X95758000Y-39624000D01*
X79121000Y-40132000D02*
X79121000Y-42733000D01*
X79121000Y-42733000D02*
X77724000Y-44130000D01*
%TO.N,CCD_ROG_5V*%
X98228433Y-42736485D02*
X98228433Y-43122567D01*
X95569948Y-40078000D02*
X98228433Y-42736485D01*
X79937000Y-40078000D02*
X95569948Y-40078000D01*
X79575000Y-40440000D02*
X79937000Y-40078000D01*
X79575000Y-44819000D02*
X79575000Y-40440000D01*
X77724000Y-46670000D02*
X79575000Y-44819000D01*
%TO.N,CCD_CLK_5V*%
X77724000Y-44130000D02*
X77724000Y-43815000D01*
%TO.N,CCD_Vout*%
X79025000Y-50511000D02*
X77724000Y-49210000D01*
X91259000Y-50511000D02*
X79025000Y-50511000D01*
X91313000Y-50457000D02*
X91259000Y-50511000D01*
X112582866Y-50457000D02*
X91313000Y-50457000D01*
X112855866Y-50730000D02*
X112582866Y-50457000D01*
X116897000Y-50730000D02*
X112855866Y-50730000D01*
X117983000Y-51816000D02*
X116897000Y-50730000D01*
X118110000Y-51816000D02*
X117983000Y-51816000D01*
%TO.N,GimbalPWM_B*%
X91024000Y-50003000D02*
X90805000Y-49784000D01*
X113157000Y-50003000D02*
X91024000Y-50003000D01*
X113218029Y-54544029D02*
X113218029Y-54229000D01*
X118110000Y-59436000D02*
X113218029Y-54544029D01*
%TO.N,+5V*%
X131953000Y-104521000D02*
X132461000Y-104013000D01*
X131953000Y-107315000D02*
X131953000Y-104521000D01*
X131445000Y-107823000D02*
X131953000Y-107315000D01*
X132461000Y-104013000D02*
X135382000Y-104013000D01*
X118237000Y-107823000D02*
X131445000Y-107823000D01*
X118110000Y-107696000D02*
X118237000Y-107823000D01*
D23*
%TO.N,+12V*%
X135763000Y-111506000D02*
X96393000Y-111506000D01*
X139954000Y-107315000D02*
X135763000Y-111506000D01*
X140081000Y-107315000D02*
X139954000Y-107315000D01*
D22*
%TO.N,SCL*%
X141986000Y-70866000D02*
X142240000Y-71120000D01*
X121412000Y-70866000D02*
X141986000Y-70866000D01*
X120777000Y-71501000D02*
X121412000Y-70866000D01*
%TO.N,GPIO*%
X120650000Y-75946000D02*
X119888000Y-76708000D01*
X141986000Y-75946000D02*
X120650000Y-75946000D01*
X142240000Y-76200000D02*
X141986000Y-75946000D01*
%TO.N,STRAIN_GAUGE_2*%
X118491000Y-61976000D02*
X118110000Y-61976000D01*
X119380000Y-62865000D02*
X118491000Y-61976000D01*
X119380000Y-65024000D02*
X119380000Y-62865000D01*
X107315000Y-66548000D02*
X116459000Y-66548000D01*
X117221000Y-65786000D02*
X118618000Y-65786000D01*
X106045000Y-67818000D02*
X107315000Y-66548000D01*
X116459000Y-66548000D02*
X117221000Y-65786000D01*
X106045000Y-67945000D02*
X106045000Y-67818000D01*
X106030000Y-67960000D02*
X106045000Y-67945000D01*
X118618000Y-65786000D02*
X119380000Y-65024000D01*
X106030000Y-69596000D02*
X106030000Y-67960000D01*
%TO.N,STRAIN_GAUGE_1*%
X107315000Y-64516000D02*
X118110000Y-64516000D01*
X106045000Y-63246000D02*
X107315000Y-64516000D01*
X106045000Y-60960000D02*
X106045000Y-63246000D01*
D21*
%TO.N,FAN_OUT*%
X114173000Y-57658000D02*
X91948000Y-57658000D01*
D22*
%TO.N,+3.3V*%
X105537000Y-40005000D02*
X105156000Y-40386000D01*
X106299000Y-40005000D02*
X105537000Y-40005000D01*
X114210000Y-40005000D02*
X106299000Y-40005000D01*
X113411000Y-46228000D02*
X105410000Y-46228000D01*
X105410000Y-46228000D02*
X105156000Y-46482000D01*
%TO.N,CLD_CLK_3.3V*%
X130810000Y-41656000D02*
X131953000Y-42799000D01*
X105537000Y-41656000D02*
X130810000Y-41656000D01*
D21*
%TO.N,CCD_ROG_3.3V*%
X105045682Y-34781318D02*
X105029000Y-34798000D01*
X114455317Y-34781318D02*
X105045682Y-34781318D01*
D22*
%TO.N,GimbalPWM_A*%
X114995029Y-33909000D02*
X88519000Y-33909000D01*
X115122029Y-34036000D02*
X114995029Y-33909000D01*
X115122029Y-53908029D02*
X115122029Y-53340000D01*
X118110000Y-56896000D02*
X115122029Y-53908029D01*
%TO.N,Green_Laser_3.3V*%
X108839000Y-49276000D02*
X108458000Y-48895000D01*
X118110000Y-49276000D02*
X108839000Y-49276000D01*
D21*
%TO.N,FAN_OUT*%
X131953000Y-83693000D02*
X133350000Y-82296000D01*
X131953000Y-89916000D02*
X131953000Y-83693000D01*
X130879000Y-90990000D02*
X131953000Y-89916000D01*
X113919000Y-91186000D02*
X118743604Y-91186000D01*
X118939604Y-90990000D02*
X130879000Y-90990000D01*
X118743604Y-91186000D02*
X118939604Y-90990000D01*
%TO.N,SDA*%
X115824000Y-86487000D02*
X116713000Y-87376000D01*
X115824000Y-74803000D02*
X115824000Y-86487000D01*
X117221000Y-73406000D02*
X115824000Y-74803000D01*
X141986000Y-73406000D02*
X117221000Y-73406000D01*
X116713000Y-87376000D02*
X118110000Y-87376000D01*
X142240000Y-73660000D02*
X141986000Y-73406000D01*
D23*
%TO.N,+12V*%
X75946000Y-35748000D02*
X77724000Y-33970000D01*
X75946000Y-75692000D02*
X75946000Y-35748000D01*
X78867000Y-78613000D02*
X75946000Y-75692000D01*
X93407200Y-78613000D02*
X78867000Y-78613000D01*
D21*
%TO.N,CS*%
X119126000Y-91440000D02*
X118110000Y-92456000D01*
X141224000Y-91440000D02*
X119126000Y-91440000D01*
X142240000Y-92456000D02*
X141224000Y-91440000D01*
D22*
%TO.N,+5V*%
X116840000Y-108966000D02*
X118110000Y-107696000D01*
D24*
X103505000Y-105156000D02*
X91821000Y-105156000D01*
D22*
X93726000Y-108966000D02*
X116840000Y-108966000D01*
%TD*%
%TA.AperFunction,Conductor*%
%TO.N,GND*%
G36*
X141687335Y-19069685D02*
G01*
X141733090Y-19122489D01*
X141743034Y-19191647D01*
X141714009Y-19255203D01*
X141656292Y-19292660D01*
X141568713Y-19319226D01*
X141407680Y-19368075D01*
X141046972Y-19517487D01*
X141046967Y-19517489D01*
X140702657Y-19701527D01*
X140702639Y-19701538D01*
X140378023Y-19918439D01*
X140378009Y-19918449D01*
X140076202Y-20166136D01*
X139800136Y-20442202D01*
X139552449Y-20744009D01*
X139552439Y-20744023D01*
X139335538Y-21068639D01*
X139335527Y-21068657D01*
X139151489Y-21412967D01*
X139151487Y-21412972D01*
X139002075Y-21773680D01*
X138888735Y-22147314D01*
X138888732Y-22147325D01*
X138812568Y-22530234D01*
X138774300Y-22918788D01*
X138774300Y-23309211D01*
X138812568Y-23697765D01*
X138888732Y-24080674D01*
X138888735Y-24080685D01*
X139002075Y-24454319D01*
X139151487Y-24815027D01*
X139151489Y-24815032D01*
X139335527Y-25159342D01*
X139335538Y-25159360D01*
X139552439Y-25483976D01*
X139552449Y-25483990D01*
X139800136Y-25785797D01*
X140076202Y-26061863D01*
X140076207Y-26061867D01*
X140076208Y-26061868D01*
X140378015Y-26309555D01*
X140702646Y-26526466D01*
X140702655Y-26526471D01*
X140702657Y-26526472D01*
X141046967Y-26710510D01*
X141046969Y-26710510D01*
X141046975Y-26710514D01*
X141266812Y-26801574D01*
X141407680Y-26859924D01*
X141407684Y-26859925D01*
X141407686Y-26859926D01*
X141781305Y-26973262D01*
X141781311Y-26973263D01*
X141781314Y-26973264D01*
X141781325Y-26973267D01*
X142164234Y-27049431D01*
X142552785Y-27087700D01*
X142552788Y-27087700D01*
X142943212Y-27087700D01*
X142943215Y-27087700D01*
X143331766Y-27049431D01*
X143406307Y-27034603D01*
X143714674Y-26973267D01*
X143714685Y-26973264D01*
X143714685Y-26973263D01*
X143714695Y-26973262D01*
X144088314Y-26859926D01*
X144449025Y-26710514D01*
X144793354Y-26526466D01*
X145117985Y-26309555D01*
X145419792Y-26061868D01*
X145695868Y-25785792D01*
X145943555Y-25483985D01*
X146160466Y-25159354D01*
X146344514Y-24815025D01*
X146493926Y-24454314D01*
X146523623Y-24356414D01*
X146561920Y-24297978D01*
X146625732Y-24269522D01*
X146694799Y-24280082D01*
X146747192Y-24326306D01*
X146766283Y-24392412D01*
X146766283Y-110735587D01*
X146746598Y-110802626D01*
X146693794Y-110848381D01*
X146624636Y-110858325D01*
X146561080Y-110829300D01*
X146523622Y-110771582D01*
X146517530Y-110751500D01*
X146493926Y-110673686D01*
X146481984Y-110644856D01*
X146435574Y-110532812D01*
X146344514Y-110312975D01*
X146160466Y-109968646D01*
X145943555Y-109644015D01*
X145695868Y-109342208D01*
X145695867Y-109342207D01*
X145695863Y-109342202D01*
X145419797Y-109066136D01*
X145117990Y-108818449D01*
X145117989Y-108818448D01*
X145117985Y-108818445D01*
X144793354Y-108601534D01*
X144793349Y-108601531D01*
X144793342Y-108601527D01*
X144449032Y-108417489D01*
X144449027Y-108417487D01*
X144088319Y-108268075D01*
X143714685Y-108154735D01*
X143714674Y-108154732D01*
X143331765Y-108078568D01*
X143039126Y-108049746D01*
X142943215Y-108040300D01*
X142552785Y-108040300D01*
X142464165Y-108049028D01*
X142164234Y-108078568D01*
X141781325Y-108154732D01*
X141781314Y-108154735D01*
X141407680Y-108268075D01*
X141046972Y-108417487D01*
X141046967Y-108417489D01*
X140702657Y-108601527D01*
X140702639Y-108601538D01*
X140378023Y-108818439D01*
X140378009Y-108818449D01*
X140076202Y-109066136D01*
X139800136Y-109342202D01*
X139552449Y-109644009D01*
X139552439Y-109644023D01*
X139335538Y-109968639D01*
X139335527Y-109968657D01*
X139151489Y-110312967D01*
X139151487Y-110312972D01*
X139002075Y-110673680D01*
X138888735Y-111047314D01*
X138888732Y-111047325D01*
X138812568Y-111430234D01*
X138786565Y-111694256D01*
X138774300Y-111818785D01*
X138774300Y-112209215D01*
X138782272Y-112290151D01*
X138812568Y-112597765D01*
X138888732Y-112980674D01*
X138888735Y-112980685D01*
X139002075Y-113354319D01*
X139151487Y-113715027D01*
X139151489Y-113715032D01*
X139335527Y-114059342D01*
X139335538Y-114059360D01*
X139552439Y-114383976D01*
X139552449Y-114383990D01*
X139800136Y-114685797D01*
X140076202Y-114961863D01*
X140076207Y-114961867D01*
X140076208Y-114961868D01*
X140378015Y-115209555D01*
X140702646Y-115426466D01*
X140702655Y-115426471D01*
X140702657Y-115426472D01*
X141046967Y-115610510D01*
X141046969Y-115610510D01*
X141046975Y-115610514D01*
X141266812Y-115701574D01*
X141407680Y-115759924D01*
X141407684Y-115759925D01*
X141407686Y-115759926D01*
X141503463Y-115788979D01*
X141561899Y-115827275D01*
X141590356Y-115891087D01*
X141579796Y-115960154D01*
X141533572Y-116012548D01*
X141467400Y-116031639D01*
X80634317Y-115999060D01*
X80567288Y-115979340D01*
X80521561Y-115926511D01*
X80511655Y-115857347D01*
X80540714Y-115793807D01*
X80586930Y-115760499D01*
X80588311Y-115759926D01*
X80588314Y-115759926D01*
X80949025Y-115610514D01*
X81293354Y-115426466D01*
X81617985Y-115209555D01*
X81919792Y-114961868D01*
X82195868Y-114685792D01*
X82443555Y-114383985D01*
X82660466Y-114059354D01*
X82844514Y-113715025D01*
X82993926Y-113354314D01*
X83107262Y-112980695D01*
X83107264Y-112980685D01*
X83107267Y-112980674D01*
X83183431Y-112597765D01*
X83206145Y-112367144D01*
X83221700Y-112209215D01*
X83221700Y-111818785D01*
X83190893Y-111506000D01*
X95487540Y-111506000D01*
X95507326Y-111694256D01*
X95507327Y-111694259D01*
X95565818Y-111874277D01*
X95565821Y-111874284D01*
X95660467Y-112038216D01*
X95708946Y-112092057D01*
X95787129Y-112178888D01*
X95940265Y-112290148D01*
X95940270Y-112290151D01*
X96113192Y-112367142D01*
X96113197Y-112367144D01*
X96298354Y-112406500D01*
X96298355Y-112406500D01*
X96487644Y-112406500D01*
X96487646Y-112406500D01*
X96672803Y-112367144D01*
X96845730Y-112290151D01*
X96853944Y-112284182D01*
X96919750Y-112260702D01*
X96926831Y-112260500D01*
X135682554Y-112260500D01*
X135682574Y-112260501D01*
X135688688Y-112260501D01*
X135837314Y-112260501D01*
X135958894Y-112236315D01*
X135958894Y-112236316D01*
X135958900Y-112236313D01*
X135983080Y-112231505D01*
X136043447Y-112206500D01*
X136120389Y-112174630D01*
X136243966Y-112092059D01*
X140084206Y-108251819D01*
X140145529Y-108218334D01*
X140171887Y-108215500D01*
X140175644Y-108215500D01*
X140175646Y-108215500D01*
X140360803Y-108176144D01*
X140533730Y-108099151D01*
X140686871Y-107987888D01*
X140813533Y-107847216D01*
X140908179Y-107683284D01*
X140966674Y-107503256D01*
X140986460Y-107315000D01*
X140966674Y-107126744D01*
X140908179Y-106946716D01*
X140813533Y-106782784D01*
X140686871Y-106642112D01*
X140602503Y-106580815D01*
X140533734Y-106530851D01*
X140533729Y-106530848D01*
X140360807Y-106453857D01*
X140360802Y-106453855D01*
X140215001Y-106422865D01*
X140175646Y-106414500D01*
X139986354Y-106414500D01*
X139953897Y-106421398D01*
X139801197Y-106453855D01*
X139801192Y-106453857D01*
X139628270Y-106530848D01*
X139628265Y-106530851D01*
X139475129Y-106642111D01*
X139348465Y-106782785D01*
X139260019Y-106935979D01*
X139240313Y-106961660D01*
X135486794Y-110715181D01*
X135425471Y-110748666D01*
X135399113Y-110751500D01*
X96926831Y-110751500D01*
X96859792Y-110731815D01*
X96853944Y-110727817D01*
X96845730Y-110721849D01*
X96845729Y-110721848D01*
X96672807Y-110644857D01*
X96672802Y-110644855D01*
X96527001Y-110613865D01*
X96487646Y-110605500D01*
X96298354Y-110605500D01*
X96265897Y-110612398D01*
X96113197Y-110644855D01*
X96113192Y-110644857D01*
X95940270Y-110721848D01*
X95940265Y-110721851D01*
X95787129Y-110833111D01*
X95660466Y-110973785D01*
X95565821Y-111137715D01*
X95565818Y-111137722D01*
X95507327Y-111317740D01*
X95507326Y-111317744D01*
X95487540Y-111506000D01*
X83190893Y-111506000D01*
X83183431Y-111430234D01*
X83107267Y-111047325D01*
X83107264Y-111047314D01*
X83107263Y-111047311D01*
X83107262Y-111047305D01*
X82993926Y-110673686D01*
X82981984Y-110644856D01*
X82935574Y-110532812D01*
X82844514Y-110312975D01*
X82660466Y-109968646D01*
X82443555Y-109644015D01*
X82195868Y-109342208D01*
X82195867Y-109342207D01*
X82195863Y-109342202D01*
X81919797Y-109066136D01*
X81617990Y-108818449D01*
X81617989Y-108818448D01*
X81617985Y-108818445D01*
X81293354Y-108601534D01*
X81293349Y-108601531D01*
X81293342Y-108601527D01*
X80949032Y-108417489D01*
X80949027Y-108417487D01*
X80588319Y-108268075D01*
X80214685Y-108154735D01*
X80214674Y-108154732D01*
X79831765Y-108078568D01*
X79539126Y-108049746D01*
X79443215Y-108040300D01*
X79052785Y-108040300D01*
X78964165Y-108049028D01*
X78664234Y-108078568D01*
X78281325Y-108154732D01*
X78281314Y-108154735D01*
X77907680Y-108268075D01*
X77546972Y-108417487D01*
X77546967Y-108417489D01*
X77202657Y-108601527D01*
X77202639Y-108601538D01*
X76878023Y-108818439D01*
X76878009Y-108818449D01*
X76576202Y-109066136D01*
X76300136Y-109342202D01*
X76052449Y-109644009D01*
X76052439Y-109644023D01*
X75835538Y-109968639D01*
X75835527Y-109968657D01*
X75651489Y-110312967D01*
X75651487Y-110312972D01*
X75502075Y-110673680D01*
X75454869Y-110829300D01*
X75446065Y-110858325D01*
X75426661Y-110922291D01*
X75388363Y-110980730D01*
X75324551Y-111009186D01*
X75255484Y-110998626D01*
X75203090Y-110952402D01*
X75184000Y-110886296D01*
X75184000Y-105155997D01*
X90553677Y-105155997D01*
X90553677Y-105156002D01*
X90572929Y-105376062D01*
X90572930Y-105376070D01*
X90630104Y-105589445D01*
X90630105Y-105589447D01*
X90630106Y-105589450D01*
X90676160Y-105688214D01*
X90723466Y-105789662D01*
X90723468Y-105789666D01*
X90850170Y-105970615D01*
X90850175Y-105970621D01*
X91006378Y-106126824D01*
X91006384Y-106126829D01*
X91187333Y-106253531D01*
X91187335Y-106253532D01*
X91187338Y-106253534D01*
X91387550Y-106346894D01*
X91600932Y-106404070D01*
X91758123Y-106417822D01*
X91820998Y-106423323D01*
X91821000Y-106423323D01*
X91821002Y-106423323D01*
X91876017Y-106418509D01*
X92041068Y-106404070D01*
X92254450Y-106346894D01*
X92454662Y-106253534D01*
X92635620Y-106126826D01*
X92791826Y-105970620D01*
X92841362Y-105899876D01*
X92895939Y-105856251D01*
X92942936Y-105847000D01*
X102883768Y-105847000D01*
X102950807Y-105866685D01*
X102956653Y-105870682D01*
X103052265Y-105940148D01*
X103052270Y-105940151D01*
X103225192Y-106017142D01*
X103225197Y-106017144D01*
X103410354Y-106056500D01*
X103410355Y-106056500D01*
X103599644Y-106056500D01*
X103599646Y-106056500D01*
X103784803Y-106017144D01*
X103957730Y-105940151D01*
X104110871Y-105828888D01*
X104237533Y-105688216D01*
X104332179Y-105524284D01*
X104390674Y-105344256D01*
X104410460Y-105156000D01*
X104390674Y-104967744D01*
X104332179Y-104787716D01*
X104237533Y-104623784D01*
X104110871Y-104483112D01*
X104058848Y-104445315D01*
X103957734Y-104371851D01*
X103957729Y-104371848D01*
X103784807Y-104294857D01*
X103784802Y-104294855D01*
X103639001Y-104263865D01*
X103599646Y-104255500D01*
X103410354Y-104255500D01*
X103377897Y-104262398D01*
X103225197Y-104294855D01*
X103225192Y-104294857D01*
X103052270Y-104371848D01*
X103052265Y-104371851D01*
X102956653Y-104441318D01*
X102890847Y-104464798D01*
X102883768Y-104465000D01*
X92942936Y-104465000D01*
X92875897Y-104445315D01*
X92841361Y-104412123D01*
X92791827Y-104341381D01*
X92745301Y-104294855D01*
X92635620Y-104185174D01*
X92635616Y-104185171D01*
X92635615Y-104185170D01*
X92454666Y-104058468D01*
X92454662Y-104058466D01*
X92357159Y-104013000D01*
X92254450Y-103965106D01*
X92254447Y-103965105D01*
X92254445Y-103965104D01*
X92041070Y-103907930D01*
X92041062Y-103907929D01*
X91821002Y-103888677D01*
X91820998Y-103888677D01*
X91600937Y-103907929D01*
X91600929Y-103907930D01*
X91387554Y-103965104D01*
X91387548Y-103965107D01*
X91187340Y-104058465D01*
X91187338Y-104058466D01*
X91006377Y-104185175D01*
X90850175Y-104341377D01*
X90723466Y-104522338D01*
X90723465Y-104522340D01*
X90630107Y-104722548D01*
X90630104Y-104722554D01*
X90572930Y-104935929D01*
X90572929Y-104935937D01*
X90553677Y-105155997D01*
X75184000Y-105155997D01*
X75184000Y-100075997D01*
X90553677Y-100075997D01*
X90553677Y-100076002D01*
X90572929Y-100296062D01*
X90572930Y-100296070D01*
X90630104Y-100509445D01*
X90630105Y-100509447D01*
X90630106Y-100509450D01*
X90708452Y-100677464D01*
X90723466Y-100709662D01*
X90723468Y-100709666D01*
X90850170Y-100890615D01*
X90850175Y-100890621D01*
X91006378Y-101046824D01*
X91006384Y-101046829D01*
X91187333Y-101173531D01*
X91187335Y-101173532D01*
X91187338Y-101173534D01*
X91387550Y-101266894D01*
X91600932Y-101324070D01*
X91758123Y-101337822D01*
X91820998Y-101343323D01*
X91821000Y-101343323D01*
X91821002Y-101343323D01*
X91876017Y-101338509D01*
X92041068Y-101324070D01*
X92254450Y-101266894D01*
X92454662Y-101173534D01*
X92635620Y-101046826D01*
X92791826Y-100890620D01*
X92918534Y-100709662D01*
X93011894Y-100509450D01*
X93069070Y-100296068D01*
X93088323Y-100076000D01*
X93069070Y-99855932D01*
X93011894Y-99642550D01*
X92918534Y-99442339D01*
X92791826Y-99261380D01*
X92635620Y-99105174D01*
X92635616Y-99105171D01*
X92635615Y-99105170D01*
X92454666Y-98978468D01*
X92454662Y-98978466D01*
X92416809Y-98960815D01*
X92254450Y-98885106D01*
X92254447Y-98885105D01*
X92254445Y-98885104D01*
X92041070Y-98827930D01*
X92041062Y-98827929D01*
X91821002Y-98808677D01*
X91820998Y-98808677D01*
X91600937Y-98827929D01*
X91600929Y-98827930D01*
X91387554Y-98885104D01*
X91387548Y-98885107D01*
X91187340Y-98978465D01*
X91187338Y-98978466D01*
X91006377Y-99105175D01*
X90850175Y-99261377D01*
X90723466Y-99442338D01*
X90723465Y-99442340D01*
X90630107Y-99642548D01*
X90630104Y-99642554D01*
X90572930Y-99855929D01*
X90572929Y-99855937D01*
X90553677Y-100075997D01*
X75184000Y-100075997D01*
X75184000Y-76296387D01*
X75203685Y-76229348D01*
X75256489Y-76183593D01*
X75325647Y-76173649D01*
X75389203Y-76202674D01*
X75395681Y-76208706D01*
X78276600Y-79089624D01*
X78276621Y-79089647D01*
X78386029Y-79199055D01*
X78386032Y-79199057D01*
X78386034Y-79199059D01*
X78468605Y-79254230D01*
X78509611Y-79281630D01*
X78590043Y-79314945D01*
X78590044Y-79314946D01*
X78613603Y-79324704D01*
X78646920Y-79338505D01*
X78646929Y-79338506D01*
X78646930Y-79338507D01*
X78671103Y-79343315D01*
X78671110Y-79343316D01*
X78792686Y-79367501D01*
X78792688Y-79367501D01*
X78947426Y-79367501D01*
X78947446Y-79367500D01*
X91282700Y-79367500D01*
X91349739Y-79387185D01*
X91395494Y-79439989D01*
X91406700Y-79491500D01*
X91406700Y-79794127D01*
X91432235Y-79988070D01*
X91440930Y-80054116D01*
X91473278Y-80174840D01*
X91508802Y-80307418D01*
X91508805Y-80307428D01*
X91609153Y-80549690D01*
X91609158Y-80549700D01*
X91740275Y-80776803D01*
X91899918Y-80984851D01*
X91899926Y-80984860D01*
X92085340Y-81170274D01*
X92085348Y-81170281D01*
X92293396Y-81329924D01*
X92520499Y-81461041D01*
X92520509Y-81461046D01*
X92762771Y-81561394D01*
X92762781Y-81561398D01*
X93016084Y-81629270D01*
X93276080Y-81663500D01*
X93276087Y-81663500D01*
X93538313Y-81663500D01*
X93538320Y-81663500D01*
X93798316Y-81629270D01*
X94051619Y-81561398D01*
X94293897Y-81461043D01*
X94521003Y-81329924D01*
X94729051Y-81170282D01*
X94729055Y-81170277D01*
X94729060Y-81170274D01*
X94914474Y-80984860D01*
X94914477Y-80984855D01*
X94914482Y-80984851D01*
X95074124Y-80776803D01*
X95205243Y-80549697D01*
X95305598Y-80307419D01*
X95373470Y-80054116D01*
X95407700Y-79794120D01*
X95407700Y-77431880D01*
X95373470Y-77171884D01*
X95305598Y-76918581D01*
X95270425Y-76833666D01*
X95205246Y-76676309D01*
X95205241Y-76676299D01*
X95074124Y-76449196D01*
X94914481Y-76241148D01*
X94914474Y-76241140D01*
X94729060Y-76055726D01*
X94729051Y-76055718D01*
X94521003Y-75896075D01*
X94293900Y-75764958D01*
X94293890Y-75764953D01*
X94051628Y-75664605D01*
X94051621Y-75664603D01*
X94051619Y-75664602D01*
X93798316Y-75596730D01*
X93740539Y-75589123D01*
X93538327Y-75562500D01*
X93538320Y-75562500D01*
X93276080Y-75562500D01*
X93276072Y-75562500D01*
X93044972Y-75592926D01*
X93016084Y-75596730D01*
X92762781Y-75664602D01*
X92762771Y-75664605D01*
X92520509Y-75764953D01*
X92520499Y-75764958D01*
X92293396Y-75896075D01*
X92085348Y-76055718D01*
X91899918Y-76241148D01*
X91740275Y-76449196D01*
X91609158Y-76676299D01*
X91609153Y-76676309D01*
X91508805Y-76918571D01*
X91508802Y-76918581D01*
X91441214Y-77170826D01*
X91440930Y-77171885D01*
X91406700Y-77431872D01*
X91406700Y-77734500D01*
X91387015Y-77801539D01*
X91334211Y-77847294D01*
X91282700Y-77858500D01*
X79230886Y-77858500D01*
X79163847Y-77838815D01*
X79143205Y-77822181D01*
X76736819Y-75415794D01*
X76703334Y-75354471D01*
X76700500Y-75328113D01*
X76700500Y-62463308D01*
X76720185Y-62396269D01*
X76772989Y-62350514D01*
X76842147Y-62340570D01*
X76905216Y-62369372D01*
X76905237Y-62369349D01*
X76905323Y-62369421D01*
X76905703Y-62369595D01*
X76907280Y-62371063D01*
X76909384Y-62372829D01*
X77090333Y-62499531D01*
X77090335Y-62499532D01*
X77090338Y-62499534D01*
X77290550Y-62592894D01*
X77503932Y-62650070D01*
X77661123Y-62663822D01*
X77723998Y-62669323D01*
X77724000Y-62669323D01*
X77724002Y-62669323D01*
X77779017Y-62664509D01*
X77944068Y-62650070D01*
X78157450Y-62592894D01*
X78357662Y-62499534D01*
X78538620Y-62372826D01*
X78694826Y-62216620D01*
X78821534Y-62035662D01*
X78914894Y-61835450D01*
X78972070Y-61622068D01*
X78989428Y-61423663D01*
X78991323Y-61402002D01*
X78991323Y-61401997D01*
X78973249Y-61195408D01*
X78972070Y-61181932D01*
X78914894Y-60968550D01*
X78821534Y-60768339D01*
X78749946Y-60666100D01*
X78694827Y-60587381D01*
X78658630Y-60551184D01*
X78538620Y-60431174D01*
X78538616Y-60431171D01*
X78538615Y-60431170D01*
X78357666Y-60304468D01*
X78357658Y-60304464D01*
X78228811Y-60244382D01*
X78176371Y-60198210D01*
X78157219Y-60131017D01*
X78177435Y-60064135D01*
X78228811Y-60019618D01*
X78234802Y-60016824D01*
X78357662Y-59959534D01*
X78538620Y-59832826D01*
X78694826Y-59676620D01*
X78821534Y-59495662D01*
X78914894Y-59295450D01*
X78972070Y-59082068D01*
X78991323Y-58862000D01*
X78972070Y-58641932D01*
X78914894Y-58428550D01*
X78821534Y-58228339D01*
X78749946Y-58126100D01*
X78694827Y-58047381D01*
X78658630Y-58011184D01*
X78538620Y-57891174D01*
X78538616Y-57891171D01*
X78538615Y-57891170D01*
X78357666Y-57764468D01*
X78357662Y-57764466D01*
X78357660Y-57764465D01*
X78157450Y-57671106D01*
X78157447Y-57671105D01*
X78157445Y-57671104D01*
X77944070Y-57613930D01*
X77944062Y-57613929D01*
X77724002Y-57594677D01*
X77723998Y-57594677D01*
X77503937Y-57613929D01*
X77503929Y-57613930D01*
X77290554Y-57671104D01*
X77290548Y-57671107D01*
X77090340Y-57764465D01*
X77090338Y-57764466D01*
X76909374Y-57891177D01*
X76905230Y-57894655D01*
X76903798Y-57892949D01*
X76850858Y-57921857D01*
X76781166Y-57916873D01*
X76725233Y-57875001D01*
X76700816Y-57809537D01*
X76700500Y-57800691D01*
X76700500Y-50271308D01*
X76720185Y-50204269D01*
X76772989Y-50158514D01*
X76842147Y-50148570D01*
X76905216Y-50177372D01*
X76905237Y-50177349D01*
X76905323Y-50177421D01*
X76905703Y-50177595D01*
X76907280Y-50179063D01*
X76909384Y-50180829D01*
X77090333Y-50307531D01*
X77090335Y-50307532D01*
X77090338Y-50307534D01*
X77290550Y-50400894D01*
X77503932Y-50458070D01*
X77661123Y-50471822D01*
X77723998Y-50477323D01*
X77724000Y-50477323D01*
X77724002Y-50477323D01*
X77779017Y-50472509D01*
X77944068Y-50458070D01*
X77985791Y-50446890D01*
X78055640Y-50448553D01*
X78105565Y-50478984D01*
X78537589Y-50911008D01*
X78624992Y-50998411D01*
X78624994Y-50998413D01*
X78624996Y-50998414D01*
X78727756Y-51067076D01*
X78727760Y-51067078D01*
X78727767Y-51067083D01*
X78769816Y-51084500D01*
X78841966Y-51114386D01*
X78963192Y-51138499D01*
X78963196Y-51138500D01*
X78963197Y-51138500D01*
X91320804Y-51138500D01*
X91320805Y-51138499D01*
X91442035Y-51114386D01*
X91491398Y-51093938D01*
X91538850Y-51084500D01*
X112271585Y-51084500D01*
X112338624Y-51104185D01*
X112359266Y-51120819D01*
X112368455Y-51130008D01*
X112444076Y-51205629D01*
X112455859Y-51217412D01*
X112558626Y-51286079D01*
X112558639Y-51286086D01*
X112672826Y-51333383D01*
X112672831Y-51333385D01*
X112672835Y-51333385D01*
X112672836Y-51333386D01*
X112794060Y-51357500D01*
X112794063Y-51357500D01*
X116585719Y-51357500D01*
X116652758Y-51377185D01*
X116673400Y-51393819D01*
X116921692Y-51642111D01*
X116955177Y-51703434D01*
X116957482Y-51741233D01*
X116950554Y-51815999D01*
X116950554Y-51816000D01*
X116970295Y-52029047D01*
X116970296Y-52029050D01*
X117028846Y-52234835D01*
X117028849Y-52234840D01*
X117124219Y-52426370D01*
X117253159Y-52597114D01*
X117411278Y-52741258D01*
X117411283Y-52741261D01*
X117411286Y-52741263D01*
X117593186Y-52853891D01*
X117593187Y-52853891D01*
X117593190Y-52853893D01*
X117792703Y-52931185D01*
X117968845Y-52964111D01*
X118031125Y-52995779D01*
X118066398Y-53056092D01*
X118063464Y-53125900D01*
X118023255Y-53183040D01*
X117968845Y-53207888D01*
X117792703Y-53240815D01*
X117666533Y-53289693D01*
X117593192Y-53318106D01*
X117593186Y-53318108D01*
X117411286Y-53430736D01*
X117411283Y-53430738D01*
X117411279Y-53430740D01*
X117411278Y-53430742D01*
X117321632Y-53512465D01*
X117253158Y-53574887D01*
X117124219Y-53745629D01*
X117028849Y-53937158D01*
X117028846Y-53937164D01*
X116970296Y-54142949D01*
X116970295Y-54142952D01*
X116950554Y-54355999D01*
X116950554Y-54356000D01*
X116969229Y-54557536D01*
X116955814Y-54626105D01*
X116907457Y-54676537D01*
X116839511Y-54692820D01*
X116773548Y-54669783D01*
X116758077Y-54656658D01*
X115965425Y-53864006D01*
X115931940Y-53802683D01*
X115936924Y-53732991D01*
X115945720Y-53714323D01*
X115949208Y-53708284D01*
X116007703Y-53528256D01*
X116027489Y-53340000D01*
X116007703Y-53151744D01*
X115949208Y-52971716D01*
X115854562Y-52807784D01*
X115727900Y-52667112D01*
X115727899Y-52667111D01*
X115574763Y-52555851D01*
X115574758Y-52555848D01*
X115401836Y-52478857D01*
X115401831Y-52478855D01*
X115256030Y-52447865D01*
X115216675Y-52439500D01*
X115027383Y-52439500D01*
X114994926Y-52446398D01*
X114842226Y-52478855D01*
X114842221Y-52478857D01*
X114669299Y-52555848D01*
X114669294Y-52555851D01*
X114516158Y-52667111D01*
X114389495Y-52807785D01*
X114294850Y-52971715D01*
X114294847Y-52971722D01*
X114244752Y-53125900D01*
X114236355Y-53151744D01*
X114216569Y-53340000D01*
X114236355Y-53528256D01*
X114236356Y-53528259D01*
X114294847Y-53708277D01*
X114294849Y-53708281D01*
X114294850Y-53708284D01*
X114389496Y-53872216D01*
X114439943Y-53928242D01*
X114476572Y-53968924D01*
X114506039Y-54027704D01*
X114518641Y-54091058D01*
X114518643Y-54091064D01*
X114540579Y-54144022D01*
X114565944Y-54205258D01*
X114565949Y-54205268D01*
X114634617Y-54308036D01*
X114634620Y-54308040D01*
X116932462Y-56605881D01*
X116965947Y-56667204D01*
X116968252Y-56705003D01*
X116950554Y-56895999D01*
X116950554Y-56896000D01*
X116969229Y-57097536D01*
X116955814Y-57166105D01*
X116907457Y-57216537D01*
X116839511Y-57232820D01*
X116773548Y-57209783D01*
X116758077Y-57196658D01*
X114126772Y-54565353D01*
X114093287Y-54504030D01*
X114096522Y-54439353D01*
X114103703Y-54417256D01*
X114123489Y-54229000D01*
X114103703Y-54040744D01*
X114045208Y-53860716D01*
X113950562Y-53696784D01*
X113823900Y-53556112D01*
X113823899Y-53556111D01*
X113670763Y-53444851D01*
X113670758Y-53444848D01*
X113497836Y-53367857D01*
X113497831Y-53367855D01*
X113352030Y-53336865D01*
X113312675Y-53328500D01*
X113123383Y-53328500D01*
X113090926Y-53335398D01*
X112938226Y-53367855D01*
X112938221Y-53367857D01*
X112765299Y-53444848D01*
X112765294Y-53444851D01*
X112612158Y-53556111D01*
X112485495Y-53696785D01*
X112390850Y-53860715D01*
X112390847Y-53860722D01*
X112336592Y-54027704D01*
X112332355Y-54040744D01*
X112312569Y-54229000D01*
X112332355Y-54417256D01*
X112332356Y-54417259D01*
X112390847Y-54597277D01*
X112390850Y-54597284D01*
X112485496Y-54761216D01*
X112547491Y-54830068D01*
X112612158Y-54901888D01*
X112765294Y-55013148D01*
X112765295Y-55013148D01*
X112765299Y-55013151D01*
X112801709Y-55029362D01*
X112806372Y-55031438D01*
X112843617Y-55057036D01*
X114332400Y-56545819D01*
X114365885Y-56607142D01*
X114360901Y-56676834D01*
X114319029Y-56732767D01*
X114253565Y-56757184D01*
X114244719Y-56757500D01*
X114078354Y-56757500D01*
X114045897Y-56764398D01*
X113893197Y-56796855D01*
X113893192Y-56796857D01*
X113720270Y-56873848D01*
X113720265Y-56873851D01*
X113567130Y-56985110D01*
X113567126Y-56985114D01*
X113561400Y-56991474D01*
X113501913Y-57028121D01*
X113469252Y-57032500D01*
X92651748Y-57032500D01*
X92584709Y-57012815D01*
X92559600Y-56991474D01*
X92553873Y-56985114D01*
X92553869Y-56985110D01*
X92400734Y-56873851D01*
X92400729Y-56873848D01*
X92227807Y-56796857D01*
X92227802Y-56796855D01*
X92082001Y-56765865D01*
X92042646Y-56757500D01*
X91853354Y-56757500D01*
X91820897Y-56764398D01*
X91668197Y-56796855D01*
X91668192Y-56796857D01*
X91495270Y-56873848D01*
X91495265Y-56873851D01*
X91342129Y-56985111D01*
X91215466Y-57125785D01*
X91120821Y-57289715D01*
X91120818Y-57289722D01*
X91062327Y-57469740D01*
X91062326Y-57469744D01*
X91042540Y-57658000D01*
X91062326Y-57846256D01*
X91062327Y-57846259D01*
X91120818Y-58026277D01*
X91120821Y-58026284D01*
X91215467Y-58190216D01*
X91317185Y-58303185D01*
X91342129Y-58330888D01*
X91495265Y-58442148D01*
X91495270Y-58442151D01*
X91668192Y-58519142D01*
X91668197Y-58519144D01*
X91853354Y-58558500D01*
X91853355Y-58558500D01*
X92042644Y-58558500D01*
X92042646Y-58558500D01*
X92227803Y-58519144D01*
X92400730Y-58442151D01*
X92553871Y-58330888D01*
X92556788Y-58327647D01*
X92559600Y-58324526D01*
X92619087Y-58287879D01*
X92651748Y-58283500D01*
X113469252Y-58283500D01*
X113536291Y-58303185D01*
X113561400Y-58324526D01*
X113567126Y-58330885D01*
X113567130Y-58330889D01*
X113720265Y-58442148D01*
X113720270Y-58442151D01*
X113893192Y-58519142D01*
X113893197Y-58519144D01*
X114078354Y-58558500D01*
X114078355Y-58558500D01*
X114267644Y-58558500D01*
X114267646Y-58558500D01*
X114452803Y-58519144D01*
X114625730Y-58442151D01*
X114778871Y-58330888D01*
X114905533Y-58190216D01*
X115000179Y-58026284D01*
X115058674Y-57846256D01*
X115078460Y-57658000D01*
X115072061Y-57597121D01*
X115084630Y-57528395D01*
X115132362Y-57477371D01*
X115200102Y-57460253D01*
X115266344Y-57482475D01*
X115283063Y-57496482D01*
X116932462Y-59145881D01*
X116965947Y-59207204D01*
X116968252Y-59245003D01*
X116950554Y-59435999D01*
X116950554Y-59436000D01*
X116970295Y-59649047D01*
X116970296Y-59649050D01*
X117028846Y-59854835D01*
X117028849Y-59854841D01*
X117110898Y-60019618D01*
X117124219Y-60046370D01*
X117253159Y-60217114D01*
X117411278Y-60361258D01*
X117411283Y-60361261D01*
X117411286Y-60361263D01*
X117593186Y-60473891D01*
X117593187Y-60473891D01*
X117593190Y-60473893D01*
X117792703Y-60551185D01*
X117968845Y-60584111D01*
X118031125Y-60615779D01*
X118066398Y-60676092D01*
X118063464Y-60745900D01*
X118023255Y-60803040D01*
X117968845Y-60827888D01*
X117792703Y-60860815D01*
X117666533Y-60909693D01*
X117593192Y-60938106D01*
X117593186Y-60938108D01*
X117411286Y-61050736D01*
X117411283Y-61050738D01*
X117411279Y-61050740D01*
X117411278Y-61050742D01*
X117253159Y-61194886D01*
X117253158Y-61194887D01*
X117124219Y-61365629D01*
X117028849Y-61557158D01*
X117028846Y-61557164D01*
X116970296Y-61762949D01*
X116970295Y-61762952D01*
X116950554Y-61975999D01*
X116950554Y-61976000D01*
X116970295Y-62189047D01*
X116970296Y-62189050D01*
X117028846Y-62394835D01*
X117028849Y-62394841D01*
X117080980Y-62499534D01*
X117124219Y-62586370D01*
X117253159Y-62757114D01*
X117411278Y-62901258D01*
X117411283Y-62901261D01*
X117411286Y-62901263D01*
X117593186Y-63013891D01*
X117593187Y-63013891D01*
X117593190Y-63013893D01*
X117792703Y-63091185D01*
X117968845Y-63124111D01*
X118031125Y-63155779D01*
X118066398Y-63216092D01*
X118063464Y-63285900D01*
X118023255Y-63343040D01*
X117968845Y-63367888D01*
X117792703Y-63400815D01*
X117719859Y-63429035D01*
X117593192Y-63478106D01*
X117593186Y-63478108D01*
X117411286Y-63590736D01*
X117411283Y-63590738D01*
X117411279Y-63590740D01*
X117411278Y-63590742D01*
X117350654Y-63646008D01*
X117253158Y-63734887D01*
X117174364Y-63839227D01*
X117118255Y-63880863D01*
X117075410Y-63888500D01*
X107626281Y-63888500D01*
X107559242Y-63868815D01*
X107538600Y-63852181D01*
X106708819Y-63022400D01*
X106675334Y-62961077D01*
X106672500Y-62934719D01*
X106672500Y-62233826D01*
X106692185Y-62166787D01*
X106725375Y-62132252D01*
X106916401Y-61998495D01*
X107083495Y-61831401D01*
X107213425Y-61645842D01*
X107268002Y-61602217D01*
X107337500Y-61595023D01*
X107399855Y-61626546D01*
X107416575Y-61645842D01*
X107546500Y-61831395D01*
X107546505Y-61831401D01*
X107713599Y-61998495D01*
X107766679Y-62035662D01*
X107907165Y-62134032D01*
X107907167Y-62134033D01*
X107907170Y-62134035D01*
X108121337Y-62233903D01*
X108349592Y-62295063D01*
X108537918Y-62311539D01*
X108584999Y-62315659D01*
X108585000Y-62315659D01*
X108585001Y-62315659D01*
X108624234Y-62312226D01*
X108820408Y-62295063D01*
X109048663Y-62233903D01*
X109262830Y-62134035D01*
X109456401Y-61998495D01*
X109623495Y-61831401D01*
X109759035Y-61637830D01*
X109858903Y-61423663D01*
X109920063Y-61195408D01*
X109940659Y-60960000D01*
X109938743Y-60938106D01*
X109931981Y-60860815D01*
X109920063Y-60724592D01*
X109858903Y-60496337D01*
X109759035Y-60282171D01*
X109753425Y-60274158D01*
X109623494Y-60088597D01*
X109456402Y-59921506D01*
X109456395Y-59921501D01*
X109262834Y-59785967D01*
X109262830Y-59785965D01*
X109262828Y-59785964D01*
X109048663Y-59686097D01*
X109048659Y-59686096D01*
X109048655Y-59686094D01*
X108820413Y-59624938D01*
X108820403Y-59624936D01*
X108585001Y-59604341D01*
X108584999Y-59604341D01*
X108349596Y-59624936D01*
X108349586Y-59624938D01*
X108121344Y-59686094D01*
X108121335Y-59686098D01*
X107907171Y-59785964D01*
X107907169Y-59785965D01*
X107713597Y-59921505D01*
X107546505Y-60088597D01*
X107416575Y-60274158D01*
X107361998Y-60317783D01*
X107292500Y-60324977D01*
X107230145Y-60293454D01*
X107213425Y-60274158D01*
X107083494Y-60088597D01*
X106916402Y-59921506D01*
X106916395Y-59921501D01*
X106722834Y-59785967D01*
X106722830Y-59785965D01*
X106722828Y-59785964D01*
X106508663Y-59686097D01*
X106508659Y-59686096D01*
X106508655Y-59686094D01*
X106280413Y-59624938D01*
X106280403Y-59624936D01*
X106045001Y-59604341D01*
X106044999Y-59604341D01*
X105809596Y-59624936D01*
X105809586Y-59624938D01*
X105581344Y-59686094D01*
X105581335Y-59686098D01*
X105367171Y-59785964D01*
X105367169Y-59785965D01*
X105173597Y-59921505D01*
X105006505Y-60088597D01*
X104870965Y-60282169D01*
X104870964Y-60282171D01*
X104771098Y-60496335D01*
X104771094Y-60496344D01*
X104709938Y-60724586D01*
X104709936Y-60724596D01*
X104689341Y-60959999D01*
X104689341Y-60960000D01*
X104709936Y-61195403D01*
X104709938Y-61195413D01*
X104771094Y-61423655D01*
X104771096Y-61423659D01*
X104771097Y-61423663D01*
X104775000Y-61432032D01*
X104870965Y-61637830D01*
X104870967Y-61637834D01*
X104958574Y-61762949D01*
X105006505Y-61831401D01*
X105173599Y-61998495D01*
X105364624Y-62132252D01*
X105408248Y-62186828D01*
X105417500Y-62233826D01*
X105417500Y-63307807D01*
X105441612Y-63429028D01*
X105441615Y-63429039D01*
X105461940Y-63478104D01*
X105461941Y-63478108D01*
X105488915Y-63543231D01*
X105488917Y-63543234D01*
X105537204Y-63615501D01*
X105557585Y-63646003D01*
X105557591Y-63646011D01*
X106827589Y-64916008D01*
X106873778Y-64962197D01*
X106914993Y-65003412D01*
X107017760Y-65072079D01*
X107017773Y-65072086D01*
X107131960Y-65119383D01*
X107131965Y-65119385D01*
X107131969Y-65119385D01*
X107131970Y-65119386D01*
X107253194Y-65143500D01*
X107253197Y-65143500D01*
X107376803Y-65143500D01*
X116676718Y-65143500D01*
X116743757Y-65163185D01*
X116789512Y-65215989D01*
X116799456Y-65285147D01*
X116770431Y-65348703D01*
X116764399Y-65355181D01*
X116235400Y-65884181D01*
X116174077Y-65917666D01*
X116147719Y-65920500D01*
X107253195Y-65920500D01*
X107131970Y-65944613D01*
X107131960Y-65944616D01*
X107017773Y-65991913D01*
X107017758Y-65991921D01*
X106978572Y-66018106D01*
X106978570Y-66018108D01*
X106914989Y-66060590D01*
X106914988Y-66060591D01*
X105940170Y-67035411D01*
X105644992Y-67330589D01*
X105601289Y-67374292D01*
X105557586Y-67417994D01*
X105557585Y-67417996D01*
X105488233Y-67521789D01*
X105486586Y-67526393D01*
X105441614Y-67634964D01*
X105417653Y-67755431D01*
X105417645Y-67755469D01*
X105417500Y-67756194D01*
X105417500Y-67810572D01*
X105415118Y-67834761D01*
X105414650Y-67837114D01*
X105414649Y-67837116D01*
X105402500Y-67898192D01*
X105402500Y-68322173D01*
X105382815Y-68389212D01*
X105349624Y-68423748D01*
X105158594Y-68557508D01*
X104991505Y-68724597D01*
X104861575Y-68910158D01*
X104806998Y-68953783D01*
X104737500Y-68960977D01*
X104675145Y-68929454D01*
X104658425Y-68910158D01*
X104528494Y-68724597D01*
X104361402Y-68557506D01*
X104361395Y-68557501D01*
X104167834Y-68421967D01*
X104167830Y-68421965D01*
X104155512Y-68416221D01*
X103953663Y-68322097D01*
X103953659Y-68322096D01*
X103953655Y-68322094D01*
X103725413Y-68260938D01*
X103725403Y-68260936D01*
X103490001Y-68240341D01*
X103489999Y-68240341D01*
X103254596Y-68260936D01*
X103254586Y-68260938D01*
X103026344Y-68322094D01*
X103026335Y-68322098D01*
X102812171Y-68421964D01*
X102812169Y-68421965D01*
X102618597Y-68557505D01*
X102451505Y-68724597D01*
X102315965Y-68918169D01*
X102315964Y-68918171D01*
X102216098Y-69132335D01*
X102216094Y-69132344D01*
X102154938Y-69360586D01*
X102154936Y-69360596D01*
X102134341Y-69595999D01*
X102134341Y-69596000D01*
X102154936Y-69831403D01*
X102154938Y-69831413D01*
X102216094Y-70059655D01*
X102216096Y-70059659D01*
X102216097Y-70059663D01*
X102220000Y-70068032D01*
X102315965Y-70273830D01*
X102315967Y-70273834D01*
X102338057Y-70305381D01*
X102451505Y-70467401D01*
X102618599Y-70634495D01*
X102692938Y-70686548D01*
X102812165Y-70770032D01*
X102812167Y-70770033D01*
X102812170Y-70770035D01*
X103026337Y-70869903D01*
X103254592Y-70931063D01*
X103442918Y-70947539D01*
X103489999Y-70951659D01*
X103490000Y-70951659D01*
X103490001Y-70951659D01*
X103529234Y-70948226D01*
X103725408Y-70931063D01*
X103953663Y-70869903D01*
X104167830Y-70770035D01*
X104361401Y-70634495D01*
X104528495Y-70467401D01*
X104658425Y-70281842D01*
X104713002Y-70238217D01*
X104782500Y-70231023D01*
X104844855Y-70262546D01*
X104861575Y-70281842D01*
X104991500Y-70467395D01*
X104991505Y-70467401D01*
X105158599Y-70634495D01*
X105232938Y-70686548D01*
X105352165Y-70770032D01*
X105352167Y-70770033D01*
X105352170Y-70770035D01*
X105566337Y-70869903D01*
X105794592Y-70931063D01*
X105982918Y-70947539D01*
X106029999Y-70951659D01*
X106030000Y-70951659D01*
X106030001Y-70951659D01*
X106069234Y-70948226D01*
X106265408Y-70931063D01*
X106493663Y-70869903D01*
X106707830Y-70770035D01*
X106901401Y-70634495D01*
X107068495Y-70467401D01*
X107204035Y-70273830D01*
X107303903Y-70059663D01*
X107365063Y-69831408D01*
X107385659Y-69596000D01*
X107365063Y-69360592D01*
X107303903Y-69132337D01*
X107204035Y-68918171D01*
X107198425Y-68910158D01*
X107068494Y-68724597D01*
X106901402Y-68557506D01*
X106901401Y-68557505D01*
X106710376Y-68423748D01*
X106666752Y-68369171D01*
X106657500Y-68322173D01*
X106657500Y-68144281D01*
X106677185Y-68077242D01*
X106693819Y-68056600D01*
X107538600Y-67211819D01*
X107599923Y-67178334D01*
X107626281Y-67175500D01*
X116520804Y-67175500D01*
X116520805Y-67175499D01*
X116642035Y-67151386D01*
X116722784Y-67117937D01*
X116756233Y-67104083D01*
X116770271Y-67094702D01*
X116836948Y-67073824D01*
X116904328Y-67092308D01*
X116951019Y-67144286D01*
X116962634Y-67186363D01*
X116970295Y-67269047D01*
X116970296Y-67269050D01*
X117028846Y-67474835D01*
X117028849Y-67474841D01*
X117054519Y-67526393D01*
X117124219Y-67666370D01*
X117253159Y-67837114D01*
X117411278Y-67981258D01*
X117411283Y-67981261D01*
X117411286Y-67981263D01*
X117593186Y-68093891D01*
X117593187Y-68093891D01*
X117593190Y-68093893D01*
X117792703Y-68171185D01*
X117968845Y-68204111D01*
X118031125Y-68235779D01*
X118066398Y-68296092D01*
X118063464Y-68365900D01*
X118023255Y-68423040D01*
X117968845Y-68447888D01*
X117792703Y-68480815D01*
X117666533Y-68529693D01*
X117593192Y-68558106D01*
X117593186Y-68558108D01*
X117411286Y-68670736D01*
X117411283Y-68670738D01*
X117411279Y-68670740D01*
X117411278Y-68670742D01*
X117253159Y-68814886D01*
X117253158Y-68814887D01*
X117124219Y-68985629D01*
X117028849Y-69177158D01*
X117028846Y-69177164D01*
X116970296Y-69382949D01*
X116969242Y-69388590D01*
X116967851Y-69388329D01*
X116944609Y-69446872D01*
X116887812Y-69487563D01*
X116846919Y-69494500D01*
X116745354Y-69494500D01*
X116720532Y-69499776D01*
X116560197Y-69533855D01*
X116560192Y-69533857D01*
X116387270Y-69610848D01*
X116387265Y-69610851D01*
X116234129Y-69722111D01*
X116107466Y-69862785D01*
X116012821Y-70026715D01*
X116012818Y-70026722D01*
X115954327Y-70206740D01*
X115954326Y-70206744D01*
X115934540Y-70395000D01*
X115954326Y-70583256D01*
X115954327Y-70583259D01*
X116012818Y-70763277D01*
X116012821Y-70763284D01*
X116107467Y-70927216D01*
X116234129Y-71067888D01*
X116387265Y-71179148D01*
X116387270Y-71179151D01*
X116560192Y-71256142D01*
X116560197Y-71256144D01*
X116745354Y-71295500D01*
X116804546Y-71295500D01*
X116871585Y-71315185D01*
X116892227Y-71331819D01*
X116912263Y-71351855D01*
X116912266Y-71351857D01*
X116912267Y-71351858D01*
X117014715Y-71420312D01*
X117053882Y-71436535D01*
X117053883Y-71436536D01*
X117053884Y-71436536D01*
X117128548Y-71467463D01*
X117138211Y-71469385D01*
X117188966Y-71479481D01*
X117249392Y-71491501D01*
X117249394Y-71491501D01*
X117378721Y-71491501D01*
X117378741Y-71491500D01*
X119060607Y-71491500D01*
X119121029Y-71479481D01*
X119181452Y-71467463D01*
X119181455Y-71467461D01*
X119181458Y-71467461D01*
X119214787Y-71453654D01*
X119214786Y-71453654D01*
X119214792Y-71453652D01*
X119295286Y-71420312D01*
X119346509Y-71386084D01*
X119397733Y-71351858D01*
X119484858Y-71264733D01*
X119484858Y-71264731D01*
X119495066Y-71254524D01*
X119495066Y-71254522D01*
X119692773Y-71056818D01*
X119754097Y-71023334D01*
X119780454Y-71020500D01*
X119815611Y-71020500D01*
X119882650Y-71040185D01*
X119928405Y-71092989D01*
X119938349Y-71162147D01*
X119933542Y-71182818D01*
X119909717Y-71256144D01*
X119891326Y-71312744D01*
X119871540Y-71501000D01*
X119891326Y-71689256D01*
X119891327Y-71689259D01*
X119949818Y-71869277D01*
X119949821Y-71869284D01*
X120044467Y-72033216D01*
X120171129Y-72173888D01*
X120324265Y-72285148D01*
X120324270Y-72285151D01*
X120497192Y-72362142D01*
X120497197Y-72362144D01*
X120682354Y-72401500D01*
X120682355Y-72401500D01*
X120871644Y-72401500D01*
X120871646Y-72401500D01*
X121056803Y-72362144D01*
X121229730Y-72285151D01*
X121382871Y-72173888D01*
X121509533Y-72033216D01*
X121604179Y-71869284D01*
X121662674Y-71689256D01*
X121671578Y-71604536D01*
X121698161Y-71539924D01*
X121755458Y-71499939D01*
X121794898Y-71493500D01*
X132179951Y-71493500D01*
X132246990Y-71513185D01*
X132292745Y-71565989D01*
X132302689Y-71635147D01*
X132290951Y-71672772D01*
X132268849Y-71717158D01*
X132268846Y-71717164D01*
X132210296Y-71922949D01*
X132210295Y-71922952D01*
X132190554Y-72135999D01*
X132190554Y-72136000D01*
X132210295Y-72349047D01*
X132210296Y-72349050D01*
X132268846Y-72554835D01*
X132268849Y-72554841D01*
X132291947Y-72601228D01*
X132304208Y-72670014D01*
X132277335Y-72734509D01*
X132219859Y-72774236D01*
X132180947Y-72780500D01*
X117159389Y-72780500D01*
X117098971Y-72792518D01*
X117055743Y-72801116D01*
X117038546Y-72804537D01*
X116939945Y-72845380D01*
X116939944Y-72845380D01*
X116924718Y-72851686D01*
X116924716Y-72851687D01*
X116822265Y-72920142D01*
X116822262Y-72920145D01*
X115425269Y-74317140D01*
X115338143Y-74404265D01*
X115338142Y-74404267D01*
X115332084Y-74413334D01*
X115269688Y-74506714D01*
X115269686Y-74506716D01*
X115269686Y-74506718D01*
X115269685Y-74506719D01*
X115241829Y-74573972D01*
X115222539Y-74620541D01*
X115222535Y-74620555D01*
X115198500Y-74741389D01*
X115198500Y-74741394D01*
X115198500Y-86548606D01*
X115207706Y-86594887D01*
X115222538Y-86669455D01*
X115222538Y-86669456D01*
X115232837Y-86694318D01*
X115232838Y-86694322D01*
X115269685Y-86783281D01*
X115269687Y-86783285D01*
X115282527Y-86802500D01*
X115282528Y-86802502D01*
X115338141Y-86885732D01*
X115338144Y-86885736D01*
X115429586Y-86977178D01*
X115429608Y-86977198D01*
X116224016Y-87771606D01*
X116224045Y-87771637D01*
X116314266Y-87861858D01*
X116380544Y-87906143D01*
X116416715Y-87930312D01*
X116483396Y-87957931D01*
X116483398Y-87957933D01*
X116530543Y-87977461D01*
X116530548Y-87977463D01*
X116554068Y-87982141D01*
X116575286Y-87986362D01*
X116575306Y-87986365D01*
X116575328Y-87986370D01*
X116651391Y-88001499D01*
X116651392Y-88001500D01*
X116651393Y-88001500D01*
X116651394Y-88001500D01*
X117073900Y-88001500D01*
X117140939Y-88021185D01*
X117172854Y-88050773D01*
X117253159Y-88157114D01*
X117411278Y-88301258D01*
X117411283Y-88301261D01*
X117411286Y-88301263D01*
X117593186Y-88413891D01*
X117593187Y-88413891D01*
X117593190Y-88413893D01*
X117792703Y-88491185D01*
X117968845Y-88524111D01*
X118031125Y-88555779D01*
X118066398Y-88616092D01*
X118063464Y-88685900D01*
X118023255Y-88743040D01*
X117968845Y-88767888D01*
X117792703Y-88800815D01*
X117666533Y-88849693D01*
X117593192Y-88878106D01*
X117593186Y-88878108D01*
X117411286Y-88990736D01*
X117411283Y-88990738D01*
X117411279Y-88990740D01*
X117411278Y-88990742D01*
X117253159Y-89134886D01*
X117253158Y-89134887D01*
X117124219Y-89305629D01*
X117028849Y-89497158D01*
X117028846Y-89497164D01*
X116970296Y-89702949D01*
X116970295Y-89702952D01*
X116950554Y-89915999D01*
X116950554Y-89916000D01*
X116970295Y-90129047D01*
X116970296Y-90129050D01*
X117028846Y-90334835D01*
X117028849Y-90334841D01*
X117051947Y-90381228D01*
X117064208Y-90450014D01*
X117037335Y-90514509D01*
X116979859Y-90554236D01*
X116940947Y-90560500D01*
X114622748Y-90560500D01*
X114555709Y-90540815D01*
X114530600Y-90519474D01*
X114524873Y-90513114D01*
X114524869Y-90513110D01*
X114371734Y-90401851D01*
X114371729Y-90401848D01*
X114198807Y-90324857D01*
X114198802Y-90324855D01*
X114044278Y-90292011D01*
X114013646Y-90285500D01*
X113824354Y-90285500D01*
X113793722Y-90292011D01*
X113639197Y-90324855D01*
X113639192Y-90324857D01*
X113466270Y-90401848D01*
X113466265Y-90401851D01*
X113313129Y-90513111D01*
X113186466Y-90653785D01*
X113091821Y-90817715D01*
X113091818Y-90817722D01*
X113033327Y-90997740D01*
X113033326Y-90997744D01*
X113013540Y-91186000D01*
X113033326Y-91374256D01*
X113033327Y-91374259D01*
X113091818Y-91554277D01*
X113091821Y-91554284D01*
X113186467Y-91718216D01*
X113280219Y-91822338D01*
X113313129Y-91858888D01*
X113466265Y-91970148D01*
X113466270Y-91970151D01*
X113639192Y-92047142D01*
X113639197Y-92047144D01*
X113824354Y-92086500D01*
X113824355Y-92086500D01*
X114013644Y-92086500D01*
X114013646Y-92086500D01*
X114198803Y-92047144D01*
X114371730Y-91970151D01*
X114524871Y-91858888D01*
X114527788Y-91855647D01*
X114530600Y-91852526D01*
X114590087Y-91815879D01*
X114622748Y-91811500D01*
X116940947Y-91811500D01*
X117007986Y-91831185D01*
X117053741Y-91883989D01*
X117063685Y-91953147D01*
X117051947Y-91990772D01*
X117028849Y-92037158D01*
X117028846Y-92037164D01*
X116970296Y-92242949D01*
X116970295Y-92242952D01*
X116950554Y-92455999D01*
X116950554Y-92456000D01*
X116970295Y-92669047D01*
X116970296Y-92669050D01*
X117028846Y-92874835D01*
X117028849Y-92874841D01*
X117056226Y-92929821D01*
X117124219Y-93066370D01*
X117253159Y-93237114D01*
X117411278Y-93381258D01*
X117411283Y-93381261D01*
X117411286Y-93381263D01*
X117593186Y-93493891D01*
X117593187Y-93493891D01*
X117593190Y-93493893D01*
X117792703Y-93571185D01*
X117968845Y-93604111D01*
X118031125Y-93635779D01*
X118066398Y-93696092D01*
X118063464Y-93765900D01*
X118023255Y-93823040D01*
X117968845Y-93847888D01*
X117792703Y-93880815D01*
X117747141Y-93898466D01*
X117593192Y-93958106D01*
X117593186Y-93958108D01*
X117411286Y-94070736D01*
X117411283Y-94070738D01*
X117411279Y-94070740D01*
X117411278Y-94070742D01*
X117253159Y-94214886D01*
X117253158Y-94214887D01*
X117124219Y-94385629D01*
X117028849Y-94577158D01*
X117028846Y-94577164D01*
X116970296Y-94782949D01*
X116970295Y-94782952D01*
X116950554Y-94995999D01*
X116950554Y-94996000D01*
X116969518Y-95200654D01*
X116956103Y-95269223D01*
X116907746Y-95319655D01*
X116839800Y-95335938D01*
X116773837Y-95312901D01*
X116758366Y-95299776D01*
X116568198Y-95109608D01*
X116568178Y-95109586D01*
X116476736Y-95018144D01*
X116476732Y-95018141D01*
X116410793Y-94974082D01*
X116374286Y-94949688D01*
X116374287Y-94949688D01*
X116374285Y-94949687D01*
X116326322Y-94929821D01*
X116293792Y-94916347D01*
X116260453Y-94902537D01*
X116250427Y-94900543D01*
X116200029Y-94890518D01*
X116139610Y-94878500D01*
X116139607Y-94878500D01*
X116139606Y-94878500D01*
X85146452Y-94878500D01*
X85079413Y-94858815D01*
X85058771Y-94842181D01*
X78992386Y-88775796D01*
X78958901Y-88714473D01*
X78960291Y-88656023D01*
X78972070Y-88612068D01*
X78991323Y-88392000D01*
X78989050Y-88366024D01*
X78973705Y-88190620D01*
X78972070Y-88171932D01*
X78914894Y-87958550D01*
X78821534Y-87758339D01*
X78707913Y-87596070D01*
X78694827Y-87577381D01*
X78694823Y-87577377D01*
X78538620Y-87421174D01*
X78538616Y-87421171D01*
X78538615Y-87421170D01*
X78357666Y-87294468D01*
X78357658Y-87294464D01*
X78228811Y-87234382D01*
X78176371Y-87188210D01*
X78157219Y-87121017D01*
X78177435Y-87054135D01*
X78228811Y-87009618D01*
X78234802Y-87006824D01*
X78357662Y-86949534D01*
X78538620Y-86822826D01*
X78694826Y-86666620D01*
X78821534Y-86485662D01*
X78914894Y-86285450D01*
X78972070Y-86072068D01*
X78991323Y-85852000D01*
X78989050Y-85826024D01*
X78972070Y-85631937D01*
X78972070Y-85631932D01*
X78914894Y-85418550D01*
X78821534Y-85218339D01*
X78758180Y-85127859D01*
X78694827Y-85037381D01*
X78694823Y-85037377D01*
X78538620Y-84881174D01*
X78538616Y-84881171D01*
X78538615Y-84881170D01*
X78357666Y-84754468D01*
X78357662Y-84754466D01*
X78357660Y-84754465D01*
X78157450Y-84661106D01*
X78157447Y-84661105D01*
X78157445Y-84661104D01*
X77944070Y-84603930D01*
X77944062Y-84603929D01*
X77724002Y-84584677D01*
X77723998Y-84584677D01*
X77503937Y-84603929D01*
X77503929Y-84603930D01*
X77290554Y-84661104D01*
X77290548Y-84661107D01*
X77090340Y-84754465D01*
X77090338Y-84754466D01*
X76909377Y-84881175D01*
X76753175Y-85037377D01*
X76626466Y-85218338D01*
X76626465Y-85218340D01*
X76533107Y-85418548D01*
X76533104Y-85418554D01*
X76475930Y-85631929D01*
X76475929Y-85631937D01*
X76456677Y-85851997D01*
X76456677Y-85852002D01*
X76475929Y-86072062D01*
X76475930Y-86072070D01*
X76533104Y-86285445D01*
X76533105Y-86285447D01*
X76533106Y-86285450D01*
X76610180Y-86450736D01*
X76626466Y-86485662D01*
X76626468Y-86485666D01*
X76753170Y-86666615D01*
X76753175Y-86666621D01*
X76909378Y-86822824D01*
X76909384Y-86822829D01*
X77090333Y-86949531D01*
X77090335Y-86949532D01*
X77090338Y-86949534D01*
X77149664Y-86977198D01*
X77219189Y-87009618D01*
X77271628Y-87055790D01*
X77290780Y-87122984D01*
X77270564Y-87189865D01*
X77219189Y-87234382D01*
X77090340Y-87294465D01*
X77090338Y-87294466D01*
X76909377Y-87421175D01*
X76753175Y-87577377D01*
X76626466Y-87758338D01*
X76626465Y-87758340D01*
X76533107Y-87958548D01*
X76533104Y-87958554D01*
X76475930Y-88171929D01*
X76475929Y-88171937D01*
X76456677Y-88391997D01*
X76456677Y-88392002D01*
X76475929Y-88612062D01*
X76475930Y-88612070D01*
X76533104Y-88825445D01*
X76533105Y-88825447D01*
X76533106Y-88825450D01*
X76610180Y-88990736D01*
X76626466Y-89025662D01*
X76626468Y-89025666D01*
X76753170Y-89206615D01*
X76753175Y-89206621D01*
X76909378Y-89362824D01*
X76909384Y-89362829D01*
X77090333Y-89489531D01*
X77090335Y-89489532D01*
X77090338Y-89489534D01*
X77209748Y-89545215D01*
X77219189Y-89549618D01*
X77271628Y-89595790D01*
X77290780Y-89662984D01*
X77270564Y-89729865D01*
X77219189Y-89774382D01*
X77090340Y-89834465D01*
X77090338Y-89834466D01*
X76909377Y-89961175D01*
X76753175Y-90117377D01*
X76626466Y-90298338D01*
X76626465Y-90298340D01*
X76533107Y-90498548D01*
X76533104Y-90498554D01*
X76475930Y-90711929D01*
X76475929Y-90711937D01*
X76456677Y-90931997D01*
X76456677Y-90932002D01*
X76475929Y-91152062D01*
X76475930Y-91152070D01*
X76533104Y-91365445D01*
X76533105Y-91365447D01*
X76533106Y-91365450D01*
X76537214Y-91374259D01*
X76626466Y-91565662D01*
X76626468Y-91565666D01*
X76753170Y-91746615D01*
X76753175Y-91746621D01*
X76909378Y-91902824D01*
X76909384Y-91902829D01*
X77090333Y-92029531D01*
X77090335Y-92029532D01*
X77090338Y-92029534D01*
X77290550Y-92122894D01*
X77503932Y-92180070D01*
X77661123Y-92193822D01*
X77723998Y-92199323D01*
X77724000Y-92199323D01*
X77724002Y-92199323D01*
X77779017Y-92194509D01*
X77944068Y-92180070D01*
X78157450Y-92122894D01*
X78357662Y-92029534D01*
X78538620Y-91902826D01*
X78694826Y-91746620D01*
X78790225Y-91610376D01*
X78844802Y-91566752D01*
X78891800Y-91557500D01*
X79317152Y-91557500D01*
X79384191Y-91577185D01*
X79404833Y-91593819D01*
X84250867Y-96439855D01*
X84250871Y-96439858D01*
X84353314Y-96508309D01*
X84353315Y-96508309D01*
X84353319Y-96508312D01*
X84420000Y-96535931D01*
X84420002Y-96535933D01*
X84467147Y-96555461D01*
X84467152Y-96555463D01*
X84487201Y-96559451D01*
X84515952Y-96565170D01*
X84587996Y-96579501D01*
X84587998Y-96579501D01*
X84717325Y-96579501D01*
X84717345Y-96579500D01*
X108343548Y-96579500D01*
X108410587Y-96599185D01*
X108431229Y-96615819D01*
X112287016Y-100471606D01*
X112287045Y-100471637D01*
X112377263Y-100561855D01*
X112377267Y-100561858D01*
X112479707Y-100630307D01*
X112479713Y-100630310D01*
X112479714Y-100630311D01*
X112593548Y-100677463D01*
X112638328Y-100686370D01*
X112714391Y-100701499D01*
X112714392Y-100701500D01*
X112714393Y-100701500D01*
X112714394Y-100701500D01*
X117073900Y-100701500D01*
X117140939Y-100721185D01*
X117172854Y-100750773D01*
X117253159Y-100857114D01*
X117411278Y-101001258D01*
X117411283Y-101001261D01*
X117411286Y-101001263D01*
X117593186Y-101113891D01*
X117593187Y-101113891D01*
X117593190Y-101113893D01*
X117792703Y-101191185D01*
X117968845Y-101224111D01*
X118031125Y-101255779D01*
X118066398Y-101316092D01*
X118063464Y-101385900D01*
X118023255Y-101443040D01*
X117968845Y-101467888D01*
X117792703Y-101500815D01*
X117666533Y-101549693D01*
X117593192Y-101578106D01*
X117593186Y-101578108D01*
X117411286Y-101690736D01*
X117411283Y-101690738D01*
X117411279Y-101690740D01*
X117411278Y-101690742D01*
X117253159Y-101834886D01*
X117253158Y-101834887D01*
X117124219Y-102005629D01*
X117028849Y-102197158D01*
X117028846Y-102197164D01*
X116970296Y-102402949D01*
X116970295Y-102402952D01*
X116950554Y-102615999D01*
X116950554Y-102616000D01*
X116970295Y-102829047D01*
X116970296Y-102829050D01*
X117028846Y-103034835D01*
X117028849Y-103034841D01*
X117124219Y-103226370D01*
X117253159Y-103397114D01*
X117411278Y-103541258D01*
X117411283Y-103541261D01*
X117411286Y-103541263D01*
X117593186Y-103653891D01*
X117593187Y-103653891D01*
X117593190Y-103653893D01*
X117792703Y-103731185D01*
X118003020Y-103770500D01*
X118003022Y-103770500D01*
X118216978Y-103770500D01*
X118216980Y-103770500D01*
X118427297Y-103731185D01*
X118626810Y-103653893D01*
X118808722Y-103541258D01*
X118966841Y-103397114D01*
X119095781Y-103226370D01*
X119191151Y-103034840D01*
X119191151Y-103034837D01*
X119191153Y-103034835D01*
X119249703Y-102829050D01*
X119249704Y-102829047D01*
X119269446Y-102616000D01*
X119269446Y-102615999D01*
X119249704Y-102402952D01*
X119249703Y-102402949D01*
X119191153Y-102197164D01*
X119191150Y-102197158D01*
X119095781Y-102005630D01*
X118966841Y-101834886D01*
X118808722Y-101690742D01*
X118808716Y-101690738D01*
X118808713Y-101690736D01*
X118626813Y-101578108D01*
X118626807Y-101578106D01*
X118427297Y-101500815D01*
X118251153Y-101467888D01*
X118188874Y-101436221D01*
X118153601Y-101375908D01*
X118156535Y-101306100D01*
X118196744Y-101248960D01*
X118251152Y-101224112D01*
X118427297Y-101191185D01*
X118626810Y-101113893D01*
X118808722Y-101001258D01*
X118966841Y-100857114D01*
X119095781Y-100686370D01*
X119191151Y-100494840D01*
X119191151Y-100494837D01*
X119191153Y-100494835D01*
X119247706Y-100296070D01*
X119249704Y-100289048D01*
X119269446Y-100076000D01*
X119249704Y-99862952D01*
X119241200Y-99833065D01*
X119191153Y-99657164D01*
X119191150Y-99657158D01*
X119183875Y-99642548D01*
X119095781Y-99465630D01*
X118966841Y-99294886D01*
X118808722Y-99150742D01*
X118808716Y-99150738D01*
X118808713Y-99150736D01*
X118626813Y-99038108D01*
X118626807Y-99038106D01*
X118427297Y-98960815D01*
X118251153Y-98927888D01*
X118188874Y-98896221D01*
X118153601Y-98835908D01*
X118156535Y-98766100D01*
X118196744Y-98708960D01*
X118251152Y-98684112D01*
X118427297Y-98651185D01*
X118626810Y-98573893D01*
X118808722Y-98461258D01*
X118966841Y-98317114D01*
X119095781Y-98146370D01*
X119191151Y-97954840D01*
X119191151Y-97954837D01*
X119191153Y-97954835D01*
X119247706Y-97756070D01*
X119249704Y-97749048D01*
X119269446Y-97536000D01*
X119249704Y-97322952D01*
X119227039Y-97243292D01*
X119191153Y-97117164D01*
X119191150Y-97117158D01*
X119183875Y-97102548D01*
X119095781Y-96925630D01*
X118966841Y-96754886D01*
X118808722Y-96610742D01*
X118808716Y-96610738D01*
X118808713Y-96610736D01*
X118626813Y-96498108D01*
X118626807Y-96498106D01*
X118427297Y-96420815D01*
X118251153Y-96387888D01*
X118188874Y-96356221D01*
X118153601Y-96295908D01*
X118156535Y-96226100D01*
X118196744Y-96168960D01*
X118251152Y-96144112D01*
X118427297Y-96111185D01*
X118626810Y-96033893D01*
X118808722Y-95921258D01*
X118966841Y-95777114D01*
X119095781Y-95606370D01*
X119191151Y-95414840D01*
X119191151Y-95414837D01*
X119191153Y-95414835D01*
X119247706Y-95216070D01*
X119249704Y-95209048D01*
X119262051Y-95075796D01*
X119287837Y-95010861D01*
X119344637Y-94970173D01*
X119414418Y-94966653D01*
X119475025Y-95001418D01*
X119504788Y-95053305D01*
X119525669Y-95126696D01*
X119525672Y-95126702D01*
X119616912Y-95309935D01*
X119740269Y-95473287D01*
X119891537Y-95611185D01*
X119891539Y-95611187D01*
X120065569Y-95718942D01*
X120065575Y-95718945D01*
X120106010Y-95734609D01*
X120256444Y-95792888D01*
X120457653Y-95830500D01*
X120457656Y-95830500D01*
X120662344Y-95830500D01*
X120662347Y-95830500D01*
X120863556Y-95792888D01*
X121054427Y-95718944D01*
X121228462Y-95611186D01*
X121379732Y-95473285D01*
X121461046Y-95365608D01*
X121517154Y-95323971D01*
X121586866Y-95319279D01*
X121648048Y-95353022D01*
X121658954Y-95365608D01*
X121740266Y-95473283D01*
X121740268Y-95473286D01*
X121891537Y-95611185D01*
X121891539Y-95611187D01*
X122065569Y-95718942D01*
X122065575Y-95718945D01*
X122106010Y-95734609D01*
X122256444Y-95792888D01*
X122457653Y-95830500D01*
X122457656Y-95830500D01*
X122662344Y-95830500D01*
X122662347Y-95830500D01*
X122863556Y-95792888D01*
X123054427Y-95718944D01*
X123228462Y-95611186D01*
X123379732Y-95473285D01*
X123461046Y-95365608D01*
X123517154Y-95323971D01*
X123586866Y-95319279D01*
X123648048Y-95353022D01*
X123658954Y-95365608D01*
X123740266Y-95473283D01*
X123740268Y-95473286D01*
X123891537Y-95611185D01*
X123891539Y-95611187D01*
X124065569Y-95718942D01*
X124065575Y-95718945D01*
X124106010Y-95734609D01*
X124256444Y-95792888D01*
X124457653Y-95830500D01*
X124457656Y-95830500D01*
X124662344Y-95830500D01*
X124662347Y-95830500D01*
X124863556Y-95792888D01*
X125054427Y-95718944D01*
X125228462Y-95611186D01*
X125379732Y-95473285D01*
X125503088Y-95309935D01*
X125594328Y-95126701D01*
X125650345Y-94929821D01*
X125669232Y-94726000D01*
X125650345Y-94522179D01*
X125594328Y-94325299D01*
X125503088Y-94142065D01*
X125379732Y-93978715D01*
X125379730Y-93978712D01*
X125228462Y-93840814D01*
X125228460Y-93840812D01*
X125213302Y-93831427D01*
X125166666Y-93779400D01*
X125155562Y-93710418D01*
X125183515Y-93646384D01*
X125213302Y-93620573D01*
X125228460Y-93611187D01*
X125228459Y-93611187D01*
X125228462Y-93611186D01*
X125379732Y-93473285D01*
X125503088Y-93309935D01*
X125594328Y-93126701D01*
X125650345Y-92929821D01*
X125669232Y-92726000D01*
X125650345Y-92522179D01*
X125594328Y-92325299D01*
X125554229Y-92244771D01*
X125541968Y-92175987D01*
X125568841Y-92111492D01*
X125626317Y-92071764D01*
X125665230Y-92065500D01*
X132096583Y-92065500D01*
X132163622Y-92085185D01*
X132209377Y-92137989D01*
X132219321Y-92207147D01*
X132215850Y-92223433D01*
X132210295Y-92242954D01*
X132190554Y-92455999D01*
X132190554Y-92456000D01*
X132210295Y-92669047D01*
X132210296Y-92669050D01*
X132268846Y-92874835D01*
X132268849Y-92874841D01*
X132296226Y-92929821D01*
X132364219Y-93066370D01*
X132493159Y-93237114D01*
X132651278Y-93381258D01*
X132651283Y-93381261D01*
X132651286Y-93381263D01*
X132833186Y-93493891D01*
X132833187Y-93493891D01*
X132833190Y-93493893D01*
X133032703Y-93571185D01*
X133208845Y-93604111D01*
X133271125Y-93635779D01*
X133306398Y-93696092D01*
X133303464Y-93765900D01*
X133263255Y-93823040D01*
X133208845Y-93847888D01*
X133032703Y-93880815D01*
X132987141Y-93898466D01*
X132833192Y-93958106D01*
X132833186Y-93958108D01*
X132651286Y-94070736D01*
X132651283Y-94070738D01*
X132651279Y-94070740D01*
X132651278Y-94070742D01*
X132493159Y-94214886D01*
X132493158Y-94214887D01*
X132364219Y-94385629D01*
X132268849Y-94577158D01*
X132268846Y-94577164D01*
X132210296Y-94782949D01*
X132210295Y-94782952D01*
X132190554Y-94995999D01*
X132190554Y-94996000D01*
X132210295Y-95209047D01*
X132210296Y-95209050D01*
X132268846Y-95414835D01*
X132268849Y-95414841D01*
X132276124Y-95429451D01*
X132364219Y-95606370D01*
X132493159Y-95777114D01*
X132651278Y-95921258D01*
X132651283Y-95921261D01*
X132651286Y-95921263D01*
X132833186Y-96033891D01*
X132833187Y-96033891D01*
X132833190Y-96033893D01*
X133032703Y-96111185D01*
X133208845Y-96144111D01*
X133271125Y-96175779D01*
X133306398Y-96236092D01*
X133303464Y-96305900D01*
X133263255Y-96363040D01*
X133208845Y-96387888D01*
X133032703Y-96420815D01*
X132983548Y-96439858D01*
X132833192Y-96498106D01*
X132833186Y-96498108D01*
X132651286Y-96610736D01*
X132651283Y-96610738D01*
X132651279Y-96610740D01*
X132651278Y-96610742D01*
X132493159Y-96754886D01*
X132493158Y-96754887D01*
X132364219Y-96925629D01*
X132268849Y-97117158D01*
X132268846Y-97117164D01*
X132210296Y-97322949D01*
X132210295Y-97322952D01*
X132190554Y-97535999D01*
X132190554Y-97536000D01*
X132210295Y-97749047D01*
X132210296Y-97749050D01*
X132268846Y-97954835D01*
X132268849Y-97954841D01*
X132276124Y-97969451D01*
X132364219Y-98146370D01*
X132493159Y-98317114D01*
X132651278Y-98461258D01*
X132651283Y-98461261D01*
X132651286Y-98461263D01*
X132833186Y-98573891D01*
X132833187Y-98573891D01*
X132833190Y-98573893D01*
X133032703Y-98651185D01*
X133208845Y-98684111D01*
X133271125Y-98715779D01*
X133306398Y-98776092D01*
X133303464Y-98845900D01*
X133263255Y-98903040D01*
X133208845Y-98927888D01*
X133032703Y-98960815D01*
X132987141Y-98978466D01*
X132833192Y-99038106D01*
X132833186Y-99038108D01*
X132651286Y-99150736D01*
X132651283Y-99150738D01*
X132651279Y-99150740D01*
X132651278Y-99150742D01*
X132493159Y-99294886D01*
X132493158Y-99294887D01*
X132364219Y-99465629D01*
X132268849Y-99657158D01*
X132268846Y-99657164D01*
X132210296Y-99862949D01*
X132210295Y-99862952D01*
X132190554Y-100075999D01*
X132190554Y-100076000D01*
X132210295Y-100289047D01*
X132210296Y-100289050D01*
X132268846Y-100494835D01*
X132268849Y-100494841D01*
X132359783Y-100677461D01*
X132364219Y-100686370D01*
X132493159Y-100857114D01*
X132651278Y-101001258D01*
X132651283Y-101001261D01*
X132651286Y-101001263D01*
X132833186Y-101113891D01*
X132833187Y-101113891D01*
X132833190Y-101113893D01*
X133032703Y-101191185D01*
X133208845Y-101224111D01*
X133271125Y-101255779D01*
X133306398Y-101316092D01*
X133303464Y-101385900D01*
X133263255Y-101443040D01*
X133208845Y-101467888D01*
X133032703Y-101500815D01*
X132906533Y-101549693D01*
X132833192Y-101578106D01*
X132833186Y-101578108D01*
X132651286Y-101690736D01*
X132651283Y-101690738D01*
X132651279Y-101690740D01*
X132651278Y-101690742D01*
X132493159Y-101834886D01*
X132493158Y-101834887D01*
X132364219Y-102005629D01*
X132268849Y-102197158D01*
X132268846Y-102197164D01*
X132210296Y-102402949D01*
X132210295Y-102402952D01*
X132190554Y-102615999D01*
X132190554Y-102616000D01*
X132210295Y-102829047D01*
X132210296Y-102829050D01*
X132268846Y-103034835D01*
X132268849Y-103034841D01*
X132366774Y-103231501D01*
X132364521Y-103232622D01*
X132380211Y-103289602D01*
X132359397Y-103356300D01*
X132305828Y-103401156D01*
X132280436Y-103409122D01*
X132277978Y-103409611D01*
X132277960Y-103409616D01*
X132163771Y-103456914D01*
X132163769Y-103456915D01*
X132128048Y-103480784D01*
X132128047Y-103480784D01*
X132060995Y-103525586D01*
X132060987Y-103525592D01*
X131678652Y-103907929D01*
X131552992Y-104033589D01*
X131528116Y-104058465D01*
X131465586Y-104120994D01*
X131465585Y-104120996D01*
X131396233Y-104224789D01*
X131394586Y-104229393D01*
X131349615Y-104337962D01*
X131349612Y-104337972D01*
X131332904Y-104421972D01*
X131332904Y-104421973D01*
X131325500Y-104459194D01*
X131325500Y-107003719D01*
X131305815Y-107070758D01*
X131289181Y-107091400D01*
X131221400Y-107159181D01*
X131160077Y-107192666D01*
X131133719Y-107195500D01*
X119227267Y-107195500D01*
X119160228Y-107175815D01*
X119116267Y-107126771D01*
X119095781Y-107085631D01*
X119095781Y-107085630D01*
X118966841Y-106914886D01*
X118808722Y-106770742D01*
X118808716Y-106770738D01*
X118808713Y-106770736D01*
X118626813Y-106658108D01*
X118626807Y-106658106D01*
X118585522Y-106642112D01*
X118427297Y-106580815D01*
X118216980Y-106541500D01*
X118003020Y-106541500D01*
X117792703Y-106580815D01*
X117666533Y-106629693D01*
X117593192Y-106658106D01*
X117593186Y-106658108D01*
X117411286Y-106770736D01*
X117411283Y-106770738D01*
X117411279Y-106770740D01*
X117411278Y-106770742D01*
X117253159Y-106914886D01*
X117253158Y-106914887D01*
X117124219Y-107085629D01*
X117028849Y-107277158D01*
X117028846Y-107277164D01*
X116970296Y-107482949D01*
X116970295Y-107482952D01*
X116951733Y-107683277D01*
X116950554Y-107696000D01*
X116952316Y-107715011D01*
X116968252Y-107886995D01*
X116954837Y-107955565D01*
X116932462Y-107986117D01*
X116616398Y-108302182D01*
X116555077Y-108335666D01*
X116528719Y-108338500D01*
X94427947Y-108338500D01*
X94360908Y-108318815D01*
X94335800Y-108297476D01*
X94331871Y-108293112D01*
X94331869Y-108293111D01*
X94331867Y-108293108D01*
X94331864Y-108293106D01*
X94178734Y-108181851D01*
X94178729Y-108181848D01*
X94005807Y-108104857D01*
X94005802Y-108104855D01*
X93860001Y-108073865D01*
X93820646Y-108065500D01*
X93631354Y-108065500D01*
X93598897Y-108072398D01*
X93446197Y-108104855D01*
X93446192Y-108104857D01*
X93273270Y-108181848D01*
X93273265Y-108181851D01*
X93120129Y-108293111D01*
X92993466Y-108433785D01*
X92898821Y-108597715D01*
X92898818Y-108597722D01*
X92854574Y-108733893D01*
X92840326Y-108777744D01*
X92820540Y-108966000D01*
X92840326Y-109154256D01*
X92840327Y-109154259D01*
X92898818Y-109334277D01*
X92898821Y-109334284D01*
X92993467Y-109498216D01*
X93083204Y-109597879D01*
X93120129Y-109638888D01*
X93273265Y-109750148D01*
X93273270Y-109750151D01*
X93446192Y-109827142D01*
X93446197Y-109827144D01*
X93631354Y-109866500D01*
X93631355Y-109866500D01*
X93820644Y-109866500D01*
X93820646Y-109866500D01*
X94005803Y-109827144D01*
X94178730Y-109750151D01*
X94331871Y-109638888D01*
X94335799Y-109634525D01*
X94395286Y-109597879D01*
X94427947Y-109593500D01*
X116901804Y-109593500D01*
X116901805Y-109593499D01*
X117023035Y-109569386D01*
X117103784Y-109535937D01*
X117137233Y-109522083D01*
X117240008Y-109453411D01*
X117327411Y-109366008D01*
X117821917Y-108871500D01*
X117883238Y-108838017D01*
X117932380Y-108837295D01*
X118003020Y-108850500D01*
X118003021Y-108850500D01*
X118216978Y-108850500D01*
X118216980Y-108850500D01*
X118427297Y-108811185D01*
X118626810Y-108733893D01*
X118808722Y-108621258D01*
X118960536Y-108482861D01*
X119023339Y-108452246D01*
X119044073Y-108450500D01*
X131506804Y-108450500D01*
X131506805Y-108450499D01*
X131628035Y-108426386D01*
X131708784Y-108392937D01*
X131742233Y-108379083D01*
X131845008Y-108310411D01*
X131932411Y-108223008D01*
X132440410Y-107715009D01*
X132444724Y-107708551D01*
X132453114Y-107695998D01*
X132475500Y-107662493D01*
X132509083Y-107612233D01*
X132556385Y-107498035D01*
X132580500Y-107376803D01*
X132580500Y-106260056D01*
X132600185Y-106193017D01*
X132652989Y-106147262D01*
X132722147Y-106137318D01*
X132769774Y-106154627D01*
X132833190Y-106193893D01*
X133032703Y-106271185D01*
X133243020Y-106310500D01*
X133243022Y-106310500D01*
X133456978Y-106310500D01*
X133456980Y-106310500D01*
X133667297Y-106271185D01*
X133866810Y-106193893D01*
X134048722Y-106081258D01*
X134206841Y-105937114D01*
X134335781Y-105766370D01*
X134431151Y-105574840D01*
X134431151Y-105574837D01*
X134431153Y-105574835D01*
X134487706Y-105376070D01*
X134489704Y-105369048D01*
X134509446Y-105156000D01*
X134489704Y-104942952D01*
X134448585Y-104798434D01*
X134449171Y-104728567D01*
X134487438Y-104670108D01*
X134551235Y-104641618D01*
X134567851Y-104640500D01*
X134680053Y-104640500D01*
X134747092Y-104660185D01*
X134772199Y-104681523D01*
X134776129Y-104685888D01*
X134776132Y-104685891D01*
X134776135Y-104685893D01*
X134929265Y-104797148D01*
X134929270Y-104797151D01*
X135102192Y-104874142D01*
X135102197Y-104874144D01*
X135287354Y-104913500D01*
X135287355Y-104913500D01*
X135476644Y-104913500D01*
X135476646Y-104913500D01*
X135661803Y-104874144D01*
X135834730Y-104797151D01*
X135987871Y-104685888D01*
X136114533Y-104545216D01*
X136209179Y-104381284D01*
X136267674Y-104201256D01*
X136287460Y-104013000D01*
X136267674Y-103824744D01*
X136209179Y-103644716D01*
X136114533Y-103480784D01*
X135987871Y-103340112D01*
X135987870Y-103340111D01*
X135834734Y-103228851D01*
X135834729Y-103228848D01*
X135661807Y-103151857D01*
X135661802Y-103151855D01*
X135516001Y-103120865D01*
X135476646Y-103112500D01*
X135287354Y-103112500D01*
X135254897Y-103119398D01*
X135102197Y-103151855D01*
X135102192Y-103151857D01*
X134929270Y-103228848D01*
X134929265Y-103228851D01*
X134776135Y-103340106D01*
X134776132Y-103340108D01*
X134774175Y-103342281D01*
X134772200Y-103344474D01*
X134712714Y-103381121D01*
X134680053Y-103385500D01*
X134456810Y-103385500D01*
X134389771Y-103365815D01*
X134344016Y-103313011D01*
X134334072Y-103243853D01*
X134345810Y-103206228D01*
X134431151Y-103034840D01*
X134431151Y-103034837D01*
X134431153Y-103034835D01*
X134489703Y-102829050D01*
X134489704Y-102829047D01*
X134509446Y-102616000D01*
X134509446Y-102615999D01*
X134489704Y-102402952D01*
X134489703Y-102402949D01*
X134431153Y-102197164D01*
X134431150Y-102197158D01*
X134335781Y-102005630D01*
X134206841Y-101834886D01*
X134048722Y-101690742D01*
X134048716Y-101690738D01*
X134048713Y-101690736D01*
X133866813Y-101578108D01*
X133866807Y-101578106D01*
X133667297Y-101500815D01*
X133491153Y-101467888D01*
X133428874Y-101436221D01*
X133393601Y-101375908D01*
X133396535Y-101306100D01*
X133436744Y-101248960D01*
X133491152Y-101224112D01*
X133667297Y-101191185D01*
X133866810Y-101113893D01*
X134048722Y-101001258D01*
X134206841Y-100857114D01*
X134335781Y-100686370D01*
X134431151Y-100494840D01*
X134431151Y-100494837D01*
X134431153Y-100494835D01*
X134487706Y-100296070D01*
X134489704Y-100289048D01*
X134509446Y-100076000D01*
X134489704Y-99862952D01*
X134481200Y-99833065D01*
X134431153Y-99657164D01*
X134431150Y-99657158D01*
X134423875Y-99642548D01*
X134335781Y-99465630D01*
X134206841Y-99294886D01*
X134048722Y-99150742D01*
X134048716Y-99150738D01*
X134048713Y-99150736D01*
X133866813Y-99038108D01*
X133866807Y-99038106D01*
X133667297Y-98960815D01*
X133491153Y-98927888D01*
X133428874Y-98896221D01*
X133393601Y-98835908D01*
X133396535Y-98766100D01*
X133436744Y-98708960D01*
X133491152Y-98684112D01*
X133667297Y-98651185D01*
X133866810Y-98573893D01*
X134048722Y-98461258D01*
X134206841Y-98317114D01*
X134335781Y-98146370D01*
X134431151Y-97954840D01*
X134431151Y-97954837D01*
X134431153Y-97954835D01*
X134487706Y-97756070D01*
X134489704Y-97749048D01*
X134509446Y-97536000D01*
X134489704Y-97322952D01*
X134467039Y-97243292D01*
X134431153Y-97117164D01*
X134431150Y-97117158D01*
X134423875Y-97102548D01*
X134335781Y-96925630D01*
X134206841Y-96754886D01*
X134048722Y-96610742D01*
X134048716Y-96610738D01*
X134048713Y-96610736D01*
X133866813Y-96498108D01*
X133866807Y-96498106D01*
X133667297Y-96420815D01*
X133491153Y-96387888D01*
X133428874Y-96356221D01*
X133393601Y-96295908D01*
X133396535Y-96226100D01*
X133436744Y-96168960D01*
X133491152Y-96144112D01*
X133667297Y-96111185D01*
X133866810Y-96033893D01*
X134048722Y-95921258D01*
X134206841Y-95777114D01*
X134335781Y-95606370D01*
X134431151Y-95414840D01*
X134431151Y-95414837D01*
X134431153Y-95414835D01*
X134487706Y-95216070D01*
X134489704Y-95209048D01*
X134509446Y-94996000D01*
X134489704Y-94782952D01*
X134473500Y-94726000D01*
X134431153Y-94577164D01*
X134431150Y-94577158D01*
X134403774Y-94522179D01*
X134335781Y-94385630D01*
X134206841Y-94214886D01*
X134048722Y-94070742D01*
X134048716Y-94070738D01*
X134048713Y-94070736D01*
X133866813Y-93958108D01*
X133866807Y-93958106D01*
X133667297Y-93880815D01*
X133491153Y-93847888D01*
X133428874Y-93816221D01*
X133393601Y-93755908D01*
X133396535Y-93686100D01*
X133436744Y-93628960D01*
X133491152Y-93604112D01*
X133667297Y-93571185D01*
X133866810Y-93493893D01*
X134048722Y-93381258D01*
X134206841Y-93237114D01*
X134335781Y-93066370D01*
X134431151Y-92874840D01*
X134431151Y-92874837D01*
X134431153Y-92874835D01*
X134487706Y-92676070D01*
X134489704Y-92669048D01*
X134509446Y-92456000D01*
X134489704Y-92242952D01*
X134484150Y-92223431D01*
X134484738Y-92153566D01*
X134523005Y-92095108D01*
X134586803Y-92066618D01*
X134603417Y-92065500D01*
X140875997Y-92065500D01*
X140943036Y-92085185D01*
X140988791Y-92137989D01*
X140998735Y-92207147D01*
X140995772Y-92221592D01*
X140991931Y-92235926D01*
X140991930Y-92235933D01*
X140972677Y-92455997D01*
X140972677Y-92456002D01*
X140991929Y-92676062D01*
X140991930Y-92676070D01*
X141049104Y-92889445D01*
X141049105Y-92889447D01*
X141049106Y-92889450D01*
X141131605Y-93066370D01*
X141142466Y-93089662D01*
X141142468Y-93089666D01*
X141269170Y-93270615D01*
X141269175Y-93270621D01*
X141425378Y-93426824D01*
X141425384Y-93426829D01*
X141606333Y-93553531D01*
X141606335Y-93553532D01*
X141606338Y-93553534D01*
X141714801Y-93604111D01*
X141735189Y-93613618D01*
X141787628Y-93659790D01*
X141806780Y-93726984D01*
X141786564Y-93793865D01*
X141735189Y-93838382D01*
X141606340Y-93898465D01*
X141606338Y-93898466D01*
X141425377Y-94025175D01*
X141269175Y-94181377D01*
X141142466Y-94362338D01*
X141142465Y-94362340D01*
X141049107Y-94562548D01*
X141049104Y-94562554D01*
X140991930Y-94775929D01*
X140991929Y-94775937D01*
X140972677Y-94995997D01*
X140972677Y-94996002D01*
X140991929Y-95216062D01*
X140991930Y-95216070D01*
X141049104Y-95429445D01*
X141049105Y-95429447D01*
X141049106Y-95429450D01*
X141131605Y-95606370D01*
X141142466Y-95629662D01*
X141142468Y-95629666D01*
X141269170Y-95810615D01*
X141269175Y-95810621D01*
X141425378Y-95966824D01*
X141425384Y-95966829D01*
X141606333Y-96093531D01*
X141606335Y-96093532D01*
X141606338Y-96093534D01*
X141714801Y-96144111D01*
X141735189Y-96153618D01*
X141787628Y-96199790D01*
X141806780Y-96266984D01*
X141786564Y-96333865D01*
X141735189Y-96378382D01*
X141606340Y-96438465D01*
X141606338Y-96438466D01*
X141425377Y-96565175D01*
X141269175Y-96721377D01*
X141142466Y-96902338D01*
X141142465Y-96902340D01*
X141049107Y-97102548D01*
X141049104Y-97102554D01*
X140991930Y-97315929D01*
X140991929Y-97315937D01*
X140972677Y-97535997D01*
X140972677Y-97536002D01*
X140991929Y-97756062D01*
X140991930Y-97756070D01*
X141049104Y-97969445D01*
X141049105Y-97969447D01*
X141049106Y-97969450D01*
X141131605Y-98146370D01*
X141142466Y-98169662D01*
X141142468Y-98169666D01*
X141269170Y-98350615D01*
X141269175Y-98350621D01*
X141425378Y-98506824D01*
X141425384Y-98506829D01*
X141606333Y-98633531D01*
X141606335Y-98633532D01*
X141606338Y-98633534D01*
X141806550Y-98726894D01*
X142019932Y-98784070D01*
X142177123Y-98797822D01*
X142239998Y-98803323D01*
X142240000Y-98803323D01*
X142240002Y-98803323D01*
X142295017Y-98798509D01*
X142460068Y-98784070D01*
X142673450Y-98726894D01*
X142873662Y-98633534D01*
X143054620Y-98506826D01*
X143210826Y-98350620D01*
X143337534Y-98169662D01*
X143430894Y-97969450D01*
X143488070Y-97756068D01*
X143507323Y-97536000D01*
X143488070Y-97315932D01*
X143430894Y-97102550D01*
X143337534Y-96902339D01*
X143210826Y-96721380D01*
X143054620Y-96565174D01*
X143054616Y-96565171D01*
X143054615Y-96565170D01*
X142873666Y-96438468D01*
X142873658Y-96438464D01*
X142744811Y-96378382D01*
X142692371Y-96332210D01*
X142673219Y-96265017D01*
X142693435Y-96198135D01*
X142744811Y-96153618D01*
X142750802Y-96150824D01*
X142873662Y-96093534D01*
X143054620Y-95966826D01*
X143210826Y-95810620D01*
X143337534Y-95629662D01*
X143430894Y-95429450D01*
X143488070Y-95216068D01*
X143507323Y-94996000D01*
X143505405Y-94974082D01*
X143488684Y-94782952D01*
X143488070Y-94775932D01*
X143430894Y-94562550D01*
X143337534Y-94362339D01*
X143210826Y-94181380D01*
X143054620Y-94025174D01*
X143054616Y-94025171D01*
X143054615Y-94025170D01*
X142873666Y-93898468D01*
X142873658Y-93898464D01*
X142744811Y-93838382D01*
X142692371Y-93792210D01*
X142673219Y-93725017D01*
X142693435Y-93658135D01*
X142744811Y-93613618D01*
X142750802Y-93610824D01*
X142873662Y-93553534D01*
X143054620Y-93426826D01*
X143210826Y-93270620D01*
X143337534Y-93089662D01*
X143430894Y-92889450D01*
X143488070Y-92676068D01*
X143507323Y-92456000D01*
X143488070Y-92235932D01*
X143430894Y-92022550D01*
X143337534Y-91822339D01*
X143210826Y-91641380D01*
X143054620Y-91485174D01*
X143054616Y-91485171D01*
X143054615Y-91485170D01*
X142873666Y-91358468D01*
X142873658Y-91358464D01*
X142744811Y-91298382D01*
X142692371Y-91252210D01*
X142673219Y-91185017D01*
X142693435Y-91118135D01*
X142744811Y-91073618D01*
X142750802Y-91070824D01*
X142873662Y-91013534D01*
X143054620Y-90886826D01*
X143210826Y-90730620D01*
X143337534Y-90549662D01*
X143430894Y-90349450D01*
X143488070Y-90136068D01*
X143507323Y-89916000D01*
X143488070Y-89695932D01*
X143430894Y-89482550D01*
X143337534Y-89282339D01*
X143210826Y-89101380D01*
X143054620Y-88945174D01*
X143054616Y-88945171D01*
X143054615Y-88945170D01*
X142873666Y-88818468D01*
X142873658Y-88818464D01*
X142744811Y-88758382D01*
X142692371Y-88712210D01*
X142673219Y-88645017D01*
X142693435Y-88578135D01*
X142744811Y-88533618D01*
X142750802Y-88530824D01*
X142873662Y-88473534D01*
X143054620Y-88346826D01*
X143210826Y-88190620D01*
X143337534Y-88009662D01*
X143430894Y-87809450D01*
X143488070Y-87596068D01*
X143507323Y-87376000D01*
X143488070Y-87155932D01*
X143430894Y-86942550D01*
X143337534Y-86742339D01*
X143210826Y-86561380D01*
X143054620Y-86405174D01*
X143054616Y-86405171D01*
X143054615Y-86405170D01*
X142873666Y-86278468D01*
X142873662Y-86278466D01*
X142862328Y-86273181D01*
X142673450Y-86185106D01*
X142673447Y-86185105D01*
X142673445Y-86185104D01*
X142460070Y-86127930D01*
X142460062Y-86127929D01*
X142240002Y-86108677D01*
X142239998Y-86108677D01*
X142019937Y-86127929D01*
X142019929Y-86127930D01*
X141806554Y-86185104D01*
X141806548Y-86185107D01*
X141606340Y-86278465D01*
X141606338Y-86278466D01*
X141425377Y-86405175D01*
X141269175Y-86561377D01*
X141142466Y-86742338D01*
X141142465Y-86742340D01*
X141049107Y-86942548D01*
X141049104Y-86942554D01*
X140991930Y-87155929D01*
X140991929Y-87155937D01*
X140972677Y-87375997D01*
X140972677Y-87376002D01*
X140991929Y-87596062D01*
X140991930Y-87596070D01*
X141049104Y-87809445D01*
X141049105Y-87809447D01*
X141049106Y-87809450D01*
X141127452Y-87977464D01*
X141142466Y-88009662D01*
X141142468Y-88009666D01*
X141269170Y-88190615D01*
X141269175Y-88190621D01*
X141425378Y-88346824D01*
X141425384Y-88346829D01*
X141606333Y-88473531D01*
X141606335Y-88473532D01*
X141606338Y-88473534D01*
X141714801Y-88524111D01*
X141735189Y-88533618D01*
X141787628Y-88579790D01*
X141806780Y-88646984D01*
X141786564Y-88713865D01*
X141735189Y-88758382D01*
X141606340Y-88818465D01*
X141606338Y-88818466D01*
X141425377Y-88945175D01*
X141269175Y-89101377D01*
X141142466Y-89282338D01*
X141142465Y-89282340D01*
X141049107Y-89482548D01*
X141049104Y-89482554D01*
X140991930Y-89695929D01*
X140991929Y-89695937D01*
X140972677Y-89915997D01*
X140972677Y-89916002D01*
X140991929Y-90136062D01*
X140991930Y-90136070D01*
X141049104Y-90349445D01*
X141049105Y-90349447D01*
X141049106Y-90349450D01*
X141142466Y-90549662D01*
X141191281Y-90619378D01*
X141213608Y-90685582D01*
X141196598Y-90753350D01*
X141145650Y-90801163D01*
X141089706Y-90814500D01*
X134367221Y-90814500D01*
X134300182Y-90794815D01*
X134254427Y-90742011D01*
X134244483Y-90672853D01*
X134268267Y-90615773D01*
X134310007Y-90560500D01*
X134335781Y-90526370D01*
X134431151Y-90334840D01*
X134431151Y-90334837D01*
X134431153Y-90334835D01*
X134487706Y-90136070D01*
X134489704Y-90129048D01*
X134509446Y-89916000D01*
X134489704Y-89702952D01*
X134478332Y-89662984D01*
X134431153Y-89497164D01*
X134431150Y-89497158D01*
X134423875Y-89482548D01*
X134335781Y-89305630D01*
X134206841Y-89134886D01*
X134048722Y-88990742D01*
X134048716Y-88990738D01*
X134048713Y-88990736D01*
X133866813Y-88878108D01*
X133866807Y-88878106D01*
X133667297Y-88800815D01*
X133491153Y-88767888D01*
X133428874Y-88736221D01*
X133393601Y-88675908D01*
X133396535Y-88606100D01*
X133436744Y-88548960D01*
X133491152Y-88524112D01*
X133667297Y-88491185D01*
X133866810Y-88413893D01*
X134048722Y-88301258D01*
X134206841Y-88157114D01*
X134335781Y-87986370D01*
X134431151Y-87794840D01*
X134431151Y-87794837D01*
X134431153Y-87794835D01*
X134487706Y-87596070D01*
X134489704Y-87589048D01*
X134509446Y-87376000D01*
X134489704Y-87162952D01*
X134477772Y-87121017D01*
X134431153Y-86957164D01*
X134431150Y-86957158D01*
X134395584Y-86885732D01*
X134335781Y-86765630D01*
X134206841Y-86594886D01*
X134048722Y-86450742D01*
X134048716Y-86450738D01*
X134048713Y-86450736D01*
X133866813Y-86338108D01*
X133866807Y-86338106D01*
X133667297Y-86260815D01*
X133491153Y-86227888D01*
X133428874Y-86196221D01*
X133393601Y-86135908D01*
X133396535Y-86066100D01*
X133436744Y-86008960D01*
X133491152Y-85984112D01*
X133667297Y-85951185D01*
X133866810Y-85873893D01*
X134048722Y-85761258D01*
X134206841Y-85617114D01*
X134335781Y-85446370D01*
X134431151Y-85254840D01*
X134431151Y-85254837D01*
X134431153Y-85254835D01*
X134489703Y-85049050D01*
X134489704Y-85049047D01*
X134509446Y-84836000D01*
X134509446Y-84835999D01*
X134489704Y-84622952D01*
X134489703Y-84622949D01*
X134431153Y-84417164D01*
X134431150Y-84417158D01*
X134335781Y-84225630D01*
X134206841Y-84054886D01*
X134048722Y-83910742D01*
X134048716Y-83910738D01*
X134048713Y-83910736D01*
X133866813Y-83798108D01*
X133866807Y-83798106D01*
X133667297Y-83720815D01*
X133491153Y-83687888D01*
X133428874Y-83656221D01*
X133393601Y-83595908D01*
X133396535Y-83526100D01*
X133436744Y-83468960D01*
X133491152Y-83444112D01*
X133667297Y-83411185D01*
X133866810Y-83333893D01*
X134048722Y-83221258D01*
X134206841Y-83077114D01*
X134335781Y-82906370D01*
X134431151Y-82714840D01*
X134431151Y-82714837D01*
X134431153Y-82714835D01*
X134467040Y-82588705D01*
X134489704Y-82509048D01*
X134509446Y-82296000D01*
X134489704Y-82082952D01*
X134481200Y-82053065D01*
X134431153Y-81877164D01*
X134431150Y-81877158D01*
X134335781Y-81685630D01*
X134206841Y-81514886D01*
X134048722Y-81370742D01*
X134048716Y-81370738D01*
X134048713Y-81370736D01*
X133866813Y-81258108D01*
X133866807Y-81258106D01*
X133667297Y-81180815D01*
X133491153Y-81147888D01*
X133428874Y-81116221D01*
X133393601Y-81055908D01*
X133396535Y-80986100D01*
X133436744Y-80928960D01*
X133491152Y-80904112D01*
X133667297Y-80871185D01*
X133866810Y-80793893D01*
X134048722Y-80681258D01*
X134206841Y-80537114D01*
X134335781Y-80366370D01*
X134431151Y-80174840D01*
X134431151Y-80174837D01*
X134431153Y-80174835D01*
X134478814Y-80007323D01*
X134489704Y-79969048D01*
X134509446Y-79756000D01*
X134489704Y-79542952D01*
X134475065Y-79491500D01*
X134431153Y-79337164D01*
X134431150Y-79337158D01*
X134420089Y-79314944D01*
X134335781Y-79145630D01*
X134206841Y-78974886D01*
X134048722Y-78830742D01*
X134048716Y-78830738D01*
X134048713Y-78830736D01*
X133866813Y-78718108D01*
X133866807Y-78718106D01*
X133667297Y-78640815D01*
X133491153Y-78607888D01*
X133428874Y-78576221D01*
X133393601Y-78515908D01*
X133396535Y-78446100D01*
X133436744Y-78388960D01*
X133491152Y-78364112D01*
X133667297Y-78331185D01*
X133866810Y-78253893D01*
X134048722Y-78141258D01*
X134206841Y-77997114D01*
X134335781Y-77826370D01*
X134431151Y-77634840D01*
X134431151Y-77634837D01*
X134431153Y-77634835D01*
X134464679Y-77517000D01*
X134489704Y-77429048D01*
X134509446Y-77216000D01*
X134489704Y-77002952D01*
X134481200Y-76973065D01*
X134431153Y-76797164D01*
X134431150Y-76797158D01*
X134409049Y-76752772D01*
X134396788Y-76683986D01*
X134423661Y-76619491D01*
X134481137Y-76579764D01*
X134520049Y-76573500D01*
X140942154Y-76573500D01*
X141009193Y-76593185D01*
X141054536Y-76645095D01*
X141142466Y-76833662D01*
X141142468Y-76833666D01*
X141269170Y-77014615D01*
X141269175Y-77014621D01*
X141425378Y-77170824D01*
X141425384Y-77170829D01*
X141606333Y-77297531D01*
X141606335Y-77297532D01*
X141606338Y-77297534D01*
X141724707Y-77352730D01*
X141735189Y-77357618D01*
X141787628Y-77403790D01*
X141806780Y-77470984D01*
X141786564Y-77537865D01*
X141735189Y-77582382D01*
X141606340Y-77642465D01*
X141606338Y-77642466D01*
X141425377Y-77769175D01*
X141269175Y-77925377D01*
X141142466Y-78106338D01*
X141142465Y-78106340D01*
X141049107Y-78306548D01*
X141049104Y-78306554D01*
X140991930Y-78519929D01*
X140991929Y-78519937D01*
X140972677Y-78739997D01*
X140972677Y-78740002D01*
X140991929Y-78960062D01*
X140991930Y-78960070D01*
X141049104Y-79173445D01*
X141049105Y-79173447D01*
X141049106Y-79173450D01*
X141139593Y-79367500D01*
X141142466Y-79373662D01*
X141142468Y-79373666D01*
X141269170Y-79554615D01*
X141269175Y-79554621D01*
X141425378Y-79710824D01*
X141425384Y-79710829D01*
X141606333Y-79837531D01*
X141606335Y-79837532D01*
X141606338Y-79837534D01*
X141806550Y-79930894D01*
X142019932Y-79988070D01*
X142177123Y-80001822D01*
X142239998Y-80007323D01*
X142240000Y-80007323D01*
X142240002Y-80007323D01*
X142295017Y-80002509D01*
X142460068Y-79988070D01*
X142673450Y-79930894D01*
X142873662Y-79837534D01*
X143054620Y-79710826D01*
X143210826Y-79554620D01*
X143337534Y-79373662D01*
X143430894Y-79173450D01*
X143488070Y-78960068D01*
X143507323Y-78740000D01*
X143488070Y-78519932D01*
X143430894Y-78306550D01*
X143337534Y-78106339D01*
X143210826Y-77925380D01*
X143054620Y-77769174D01*
X143054616Y-77769171D01*
X143054615Y-77769170D01*
X142873666Y-77642468D01*
X142873658Y-77642464D01*
X142744811Y-77582382D01*
X142692371Y-77536210D01*
X142673219Y-77469017D01*
X142693435Y-77402135D01*
X142744811Y-77357618D01*
X142755293Y-77352730D01*
X142873662Y-77297534D01*
X143054620Y-77170826D01*
X143210826Y-77014620D01*
X143337534Y-76833662D01*
X143430894Y-76633450D01*
X143488070Y-76420068D01*
X143503724Y-76241140D01*
X143507323Y-76200002D01*
X143507323Y-76199997D01*
X143494700Y-76055718D01*
X143488070Y-75979932D01*
X143430894Y-75766550D01*
X143337534Y-75566339D01*
X143262087Y-75458589D01*
X143210827Y-75385381D01*
X143137682Y-75312236D01*
X143054620Y-75229174D01*
X143054616Y-75229171D01*
X143054615Y-75229170D01*
X142873666Y-75102468D01*
X142873658Y-75102464D01*
X142744811Y-75042382D01*
X142692371Y-74996210D01*
X142673219Y-74929017D01*
X142693435Y-74862135D01*
X142744811Y-74817618D01*
X142750802Y-74814824D01*
X142873662Y-74757534D01*
X143054620Y-74630826D01*
X143210826Y-74474620D01*
X143337534Y-74293662D01*
X143430894Y-74093450D01*
X143488070Y-73880068D01*
X143507323Y-73660000D01*
X143488070Y-73439932D01*
X143430894Y-73226550D01*
X143337534Y-73026339D01*
X143210826Y-72845380D01*
X143054620Y-72689174D01*
X143054616Y-72689171D01*
X143054615Y-72689170D01*
X142873666Y-72562468D01*
X142873658Y-72562464D01*
X142744811Y-72502382D01*
X142692371Y-72456210D01*
X142673219Y-72389017D01*
X142693435Y-72322135D01*
X142744811Y-72277618D01*
X142750802Y-72274824D01*
X142873662Y-72217534D01*
X143054620Y-72090826D01*
X143210826Y-71934620D01*
X143337534Y-71753662D01*
X143430894Y-71553450D01*
X143488070Y-71340068D01*
X143507323Y-71120000D01*
X143488070Y-70899932D01*
X143430894Y-70686550D01*
X143337534Y-70486339D01*
X143210826Y-70305380D01*
X143054620Y-70149174D01*
X143054616Y-70149171D01*
X143054615Y-70149170D01*
X142873666Y-70022468D01*
X142873662Y-70022466D01*
X142857297Y-70014835D01*
X142673450Y-69929106D01*
X142673447Y-69929105D01*
X142673445Y-69929104D01*
X142460070Y-69871930D01*
X142460062Y-69871929D01*
X142240002Y-69852677D01*
X142239998Y-69852677D01*
X142019937Y-69871929D01*
X142019929Y-69871930D01*
X141806554Y-69929104D01*
X141806548Y-69929107D01*
X141606340Y-70022465D01*
X141606338Y-70022466D01*
X141425378Y-70149174D01*
X141372374Y-70202180D01*
X141311051Y-70235666D01*
X141284692Y-70238500D01*
X134520049Y-70238500D01*
X134453010Y-70218815D01*
X134407255Y-70166011D01*
X134397311Y-70096853D01*
X134409049Y-70059228D01*
X134419578Y-70038080D01*
X134431151Y-70014840D01*
X134431151Y-70014837D01*
X134431153Y-70014835D01*
X134477290Y-69852677D01*
X134489704Y-69809048D01*
X134509446Y-69596000D01*
X134503687Y-69533856D01*
X134489704Y-69382952D01*
X134489703Y-69382949D01*
X134431153Y-69177164D01*
X134431150Y-69177158D01*
X134404664Y-69123967D01*
X134335781Y-68985630D01*
X134206841Y-68814886D01*
X134048722Y-68670742D01*
X134048716Y-68670738D01*
X134048713Y-68670736D01*
X133866813Y-68558108D01*
X133866807Y-68558106D01*
X133667297Y-68480815D01*
X133491153Y-68447888D01*
X133428874Y-68416221D01*
X133393601Y-68355908D01*
X133396535Y-68286100D01*
X133436744Y-68228960D01*
X133491152Y-68204112D01*
X133667297Y-68171185D01*
X133866810Y-68093893D01*
X134048722Y-67981258D01*
X134206841Y-67837114D01*
X134335781Y-67666370D01*
X134431151Y-67474840D01*
X134431151Y-67474837D01*
X134431153Y-67474835D01*
X134478814Y-67307323D01*
X134489704Y-67269048D01*
X134509446Y-67056000D01*
X134489704Y-66842952D01*
X134481200Y-66813065D01*
X134431153Y-66637164D01*
X134431150Y-66637158D01*
X134349634Y-66473451D01*
X134335781Y-66445630D01*
X134206841Y-66274886D01*
X134048722Y-66130742D01*
X134048716Y-66130738D01*
X134048713Y-66130736D01*
X133902165Y-66039997D01*
X140972677Y-66039997D01*
X140972677Y-66040002D01*
X140991929Y-66260062D01*
X140991930Y-66260070D01*
X141049104Y-66473445D01*
X141049105Y-66473447D01*
X141049106Y-66473450D01*
X141125444Y-66637158D01*
X141142466Y-66673662D01*
X141142468Y-66673666D01*
X141269170Y-66854615D01*
X141269175Y-66854621D01*
X141425378Y-67010824D01*
X141425384Y-67010829D01*
X141606333Y-67137531D01*
X141606335Y-67137532D01*
X141606338Y-67137534D01*
X141806550Y-67230894D01*
X142019932Y-67288070D01*
X142177123Y-67301822D01*
X142239998Y-67307323D01*
X142240000Y-67307323D01*
X142240002Y-67307323D01*
X142295017Y-67302509D01*
X142460068Y-67288070D01*
X142673450Y-67230894D01*
X142873662Y-67137534D01*
X143054620Y-67010826D01*
X143210826Y-66854620D01*
X143337534Y-66673662D01*
X143430894Y-66473450D01*
X143488070Y-66260068D01*
X143507323Y-66040000D01*
X143488070Y-65819932D01*
X143430894Y-65606550D01*
X143337534Y-65406339D01*
X143210826Y-65225380D01*
X143054620Y-65069174D01*
X143054616Y-65069171D01*
X143054615Y-65069170D01*
X142873666Y-64942468D01*
X142873662Y-64942466D01*
X142816922Y-64916008D01*
X142673450Y-64849106D01*
X142673447Y-64849105D01*
X142673445Y-64849104D01*
X142460070Y-64791930D01*
X142460062Y-64791929D01*
X142240002Y-64772677D01*
X142239998Y-64772677D01*
X142019937Y-64791929D01*
X142019929Y-64791930D01*
X141806554Y-64849104D01*
X141806548Y-64849107D01*
X141606340Y-64942465D01*
X141606338Y-64942466D01*
X141425377Y-65069175D01*
X141269175Y-65225377D01*
X141142466Y-65406338D01*
X141142465Y-65406340D01*
X141049107Y-65606548D01*
X141049104Y-65606554D01*
X140991930Y-65819929D01*
X140991929Y-65819937D01*
X140972677Y-66039997D01*
X133902165Y-66039997D01*
X133866813Y-66018108D01*
X133866807Y-66018106D01*
X133667297Y-65940815D01*
X133491153Y-65907888D01*
X133428874Y-65876221D01*
X133393601Y-65815908D01*
X133396535Y-65746100D01*
X133436744Y-65688960D01*
X133491152Y-65664112D01*
X133667297Y-65631185D01*
X133866810Y-65553893D01*
X134048722Y-65441258D01*
X134206841Y-65297114D01*
X134335781Y-65126370D01*
X134431151Y-64934840D01*
X134431151Y-64934837D01*
X134431153Y-64934835D01*
X134489703Y-64729050D01*
X134489704Y-64729047D01*
X134509446Y-64516000D01*
X134509446Y-64515999D01*
X134489704Y-64302952D01*
X134489703Y-64302949D01*
X134431153Y-64097164D01*
X134431150Y-64097158D01*
X134335781Y-63905630D01*
X134206841Y-63734886D01*
X134048722Y-63590742D01*
X134048716Y-63590738D01*
X134048713Y-63590736D01*
X133866813Y-63478108D01*
X133866807Y-63478106D01*
X133866802Y-63478104D01*
X133667297Y-63400815D01*
X133491153Y-63367888D01*
X133428874Y-63336221D01*
X133393601Y-63275908D01*
X133396535Y-63206100D01*
X133436744Y-63148960D01*
X133491152Y-63124112D01*
X133667297Y-63091185D01*
X133866810Y-63013893D01*
X134048722Y-62901258D01*
X134206841Y-62757114D01*
X134335781Y-62586370D01*
X134431151Y-62394840D01*
X134431151Y-62394837D01*
X134431153Y-62394835D01*
X134476941Y-62233905D01*
X134489704Y-62189048D01*
X134509446Y-61976000D01*
X134489704Y-61762952D01*
X134481200Y-61733065D01*
X134431153Y-61557164D01*
X134431150Y-61557158D01*
X134364678Y-61423664D01*
X134335781Y-61365630D01*
X134206841Y-61194886D01*
X134048722Y-61050742D01*
X134048716Y-61050738D01*
X134048713Y-61050736D01*
X133866813Y-60938108D01*
X133866807Y-60938106D01*
X133667297Y-60860815D01*
X133491153Y-60827888D01*
X133428874Y-60796221D01*
X133393601Y-60735908D01*
X133396535Y-60666100D01*
X133436744Y-60608960D01*
X133491152Y-60584112D01*
X133667297Y-60551185D01*
X133866810Y-60473893D01*
X134048722Y-60361258D01*
X134206841Y-60217114D01*
X134335781Y-60046370D01*
X134431151Y-59854840D01*
X134431151Y-59854837D01*
X134431153Y-59854835D01*
X134479162Y-59686098D01*
X134489704Y-59649048D01*
X134509446Y-59436000D01*
X134489704Y-59222952D01*
X134481013Y-59192406D01*
X134431153Y-59017164D01*
X134431150Y-59017158D01*
X134353889Y-58861997D01*
X134335781Y-58825630D01*
X134206841Y-58654886D01*
X134048722Y-58510742D01*
X134048716Y-58510738D01*
X134048713Y-58510736D01*
X133866813Y-58398108D01*
X133866807Y-58398106D01*
X133866714Y-58398070D01*
X133667297Y-58320815D01*
X133491153Y-58287888D01*
X133428874Y-58256221D01*
X133393601Y-58195908D01*
X133396535Y-58126100D01*
X133436744Y-58068960D01*
X133491152Y-58044112D01*
X133667297Y-58011185D01*
X133866810Y-57933893D01*
X134048722Y-57821258D01*
X134206841Y-57677114D01*
X134335781Y-57506370D01*
X134431151Y-57314840D01*
X134431151Y-57314837D01*
X134431153Y-57314835D01*
X134473470Y-57166105D01*
X134489704Y-57109048D01*
X134509446Y-56896000D01*
X134489704Y-56682952D01*
X134468134Y-56607142D01*
X134431153Y-56477164D01*
X134431150Y-56477158D01*
X134360552Y-56335377D01*
X134335781Y-56285630D01*
X134206841Y-56114886D01*
X134048722Y-55970742D01*
X134048716Y-55970738D01*
X134048713Y-55970736D01*
X133866813Y-55858108D01*
X133866807Y-55858106D01*
X133866714Y-55858070D01*
X133667297Y-55780815D01*
X133491153Y-55747888D01*
X133428874Y-55716221D01*
X133393601Y-55655908D01*
X133396535Y-55586100D01*
X133436744Y-55528960D01*
X133491152Y-55504112D01*
X133667297Y-55471185D01*
X133866810Y-55393893D01*
X134048722Y-55281258D01*
X134206841Y-55137114D01*
X134335781Y-54966370D01*
X134431151Y-54774840D01*
X134431151Y-54774837D01*
X134431153Y-54774835D01*
X134473470Y-54626105D01*
X134478053Y-54609997D01*
X141226677Y-54609997D01*
X141226677Y-54610002D01*
X141245929Y-54830062D01*
X141245930Y-54830070D01*
X141303104Y-55043445D01*
X141303105Y-55043447D01*
X141303106Y-55043450D01*
X141346781Y-55137112D01*
X141396466Y-55243662D01*
X141396468Y-55243666D01*
X141523170Y-55424615D01*
X141523175Y-55424621D01*
X141679378Y-55580824D01*
X141679384Y-55580829D01*
X141860333Y-55707531D01*
X141860335Y-55707532D01*
X141860338Y-55707534D01*
X141933179Y-55741500D01*
X141989189Y-55767618D01*
X142041628Y-55813790D01*
X142060780Y-55880984D01*
X142040564Y-55947865D01*
X141989189Y-55992382D01*
X141860340Y-56052465D01*
X141860338Y-56052466D01*
X141679377Y-56179175D01*
X141523175Y-56335377D01*
X141396466Y-56516338D01*
X141396465Y-56516340D01*
X141303107Y-56716548D01*
X141303104Y-56716554D01*
X141245930Y-56929929D01*
X141245929Y-56929937D01*
X141226677Y-57149997D01*
X141226677Y-57150002D01*
X141245929Y-57370062D01*
X141245930Y-57370070D01*
X141303104Y-57583445D01*
X141303105Y-57583447D01*
X141303106Y-57583450D01*
X141343981Y-57671107D01*
X141396466Y-57783662D01*
X141396468Y-57783666D01*
X141523170Y-57964615D01*
X141523175Y-57964621D01*
X141679378Y-58120824D01*
X141679384Y-58120829D01*
X141860333Y-58247531D01*
X141860335Y-58247532D01*
X141860338Y-58247534D01*
X142060550Y-58340894D01*
X142273932Y-58398070D01*
X142431123Y-58411822D01*
X142493998Y-58417323D01*
X142494000Y-58417323D01*
X142494002Y-58417323D01*
X142549017Y-58412509D01*
X142714068Y-58398070D01*
X142927450Y-58340894D01*
X143127662Y-58247534D01*
X143308620Y-58120826D01*
X143464826Y-57964620D01*
X143591534Y-57783662D01*
X143684894Y-57583450D01*
X143742070Y-57370068D01*
X143761323Y-57150000D01*
X143759204Y-57125784D01*
X143747454Y-56991474D01*
X143742070Y-56929932D01*
X143684894Y-56716550D01*
X143591534Y-56516339D01*
X143464826Y-56335380D01*
X143308620Y-56179174D01*
X143308616Y-56179171D01*
X143308615Y-56179170D01*
X143127666Y-56052468D01*
X143127658Y-56052464D01*
X142998811Y-55992382D01*
X142946371Y-55946210D01*
X142927219Y-55879017D01*
X142947435Y-55812135D01*
X142998811Y-55767618D01*
X143054821Y-55741500D01*
X143127662Y-55707534D01*
X143308620Y-55580826D01*
X143464826Y-55424620D01*
X143591534Y-55243662D01*
X143684894Y-55043450D01*
X143742070Y-54830068D01*
X143761323Y-54610000D01*
X143757740Y-54569050D01*
X143746393Y-54439350D01*
X143742070Y-54389932D01*
X143684894Y-54176550D01*
X143591534Y-53976339D01*
X143510579Y-53860722D01*
X143464827Y-53795381D01*
X143402437Y-53732991D01*
X143308620Y-53639174D01*
X143308616Y-53639171D01*
X143308615Y-53639170D01*
X143127666Y-53512468D01*
X143127662Y-53512466D01*
X143127660Y-53512465D01*
X142927450Y-53419106D01*
X142927447Y-53419105D01*
X142927445Y-53419104D01*
X142714070Y-53361930D01*
X142714062Y-53361929D01*
X142494002Y-53342677D01*
X142493998Y-53342677D01*
X142273937Y-53361929D01*
X142273929Y-53361930D01*
X142060554Y-53419104D01*
X142060548Y-53419107D01*
X141860340Y-53512465D01*
X141860338Y-53512466D01*
X141679377Y-53639175D01*
X141523175Y-53795377D01*
X141396466Y-53976338D01*
X141396465Y-53976340D01*
X141303107Y-54176548D01*
X141303104Y-54176554D01*
X141245930Y-54389929D01*
X141245929Y-54389937D01*
X141226677Y-54609997D01*
X134478053Y-54609997D01*
X134489704Y-54569048D01*
X134509446Y-54356000D01*
X134505001Y-54308036D01*
X134489704Y-54142952D01*
X134489703Y-54142949D01*
X134431153Y-53937164D01*
X134431150Y-53937158D01*
X134394725Y-53864006D01*
X134335781Y-53745630D01*
X134206841Y-53574886D01*
X134048722Y-53430742D01*
X134048716Y-53430738D01*
X134048713Y-53430736D01*
X133866813Y-53318108D01*
X133866807Y-53318106D01*
X133667297Y-53240815D01*
X133491153Y-53207888D01*
X133428874Y-53176221D01*
X133393601Y-53115908D01*
X133396535Y-53046100D01*
X133436744Y-52988960D01*
X133491152Y-52964112D01*
X133667297Y-52931185D01*
X133866810Y-52853893D01*
X134048722Y-52741258D01*
X134206841Y-52597114D01*
X134335781Y-52426370D01*
X134431151Y-52234840D01*
X134431151Y-52234837D01*
X134431153Y-52234835D01*
X134489703Y-52029050D01*
X134489704Y-52029047D01*
X134509446Y-51816000D01*
X134509446Y-51815999D01*
X134489704Y-51602952D01*
X134489703Y-51602949D01*
X134431153Y-51397164D01*
X134431150Y-51397158D01*
X134411403Y-51357500D01*
X134335781Y-51205630D01*
X134206841Y-51034886D01*
X134048722Y-50890742D01*
X134048716Y-50890738D01*
X134048713Y-50890736D01*
X133866813Y-50778108D01*
X133866807Y-50778106D01*
X133667297Y-50700815D01*
X133491153Y-50667888D01*
X133428874Y-50636221D01*
X133393601Y-50575908D01*
X133396535Y-50506100D01*
X133436744Y-50448960D01*
X133491152Y-50424112D01*
X133667297Y-50391185D01*
X133866810Y-50313893D01*
X134048722Y-50201258D01*
X134206841Y-50057114D01*
X134335781Y-49886370D01*
X134431151Y-49694840D01*
X134431151Y-49694837D01*
X134431153Y-49694835D01*
X134489703Y-49489050D01*
X134489704Y-49489047D01*
X134509446Y-49276000D01*
X134509446Y-49275999D01*
X134489704Y-49062952D01*
X134489703Y-49062949D01*
X134431153Y-48857164D01*
X134431150Y-48857158D01*
X134356251Y-48706740D01*
X134335781Y-48665630D01*
X134206841Y-48494886D01*
X134048722Y-48350742D01*
X134048716Y-48350738D01*
X134048713Y-48350736D01*
X133866813Y-48238108D01*
X133866807Y-48238106D01*
X133667297Y-48160815D01*
X133456980Y-48121500D01*
X133243020Y-48121500D01*
X133032703Y-48160815D01*
X132906533Y-48209693D01*
X132833192Y-48238106D01*
X132833186Y-48238108D01*
X132651286Y-48350736D01*
X132651283Y-48350738D01*
X132651279Y-48350740D01*
X132651278Y-48350742D01*
X132519793Y-48470606D01*
X132493158Y-48494887D01*
X132364219Y-48665629D01*
X132268849Y-48857158D01*
X132268846Y-48857164D01*
X132210296Y-49062949D01*
X132210295Y-49062952D01*
X132190554Y-49275999D01*
X132190554Y-49276000D01*
X132210295Y-49489047D01*
X132210296Y-49489050D01*
X132268846Y-49694835D01*
X132268849Y-49694840D01*
X132364219Y-49886370D01*
X132493159Y-50057114D01*
X132651278Y-50201258D01*
X132651283Y-50201261D01*
X132651286Y-50201263D01*
X132833186Y-50313891D01*
X132833187Y-50313891D01*
X132833190Y-50313893D01*
X133032703Y-50391185D01*
X133208845Y-50424111D01*
X133271125Y-50455779D01*
X133306398Y-50516092D01*
X133303464Y-50585900D01*
X133263255Y-50643040D01*
X133208845Y-50667888D01*
X133032703Y-50700815D01*
X133005698Y-50711277D01*
X132833192Y-50778106D01*
X132833186Y-50778108D01*
X132651286Y-50890736D01*
X132651283Y-50890738D01*
X132651279Y-50890740D01*
X132651278Y-50890742D01*
X132533168Y-50998413D01*
X132493158Y-51034887D01*
X132364219Y-51205629D01*
X132268849Y-51397158D01*
X132268846Y-51397164D01*
X132210296Y-51602949D01*
X132210295Y-51602952D01*
X132190554Y-51815999D01*
X132190554Y-51816000D01*
X132210295Y-52029047D01*
X132210296Y-52029050D01*
X132268846Y-52234835D01*
X132268849Y-52234840D01*
X132364219Y-52426370D01*
X132493159Y-52597114D01*
X132651278Y-52741258D01*
X132651283Y-52741261D01*
X132651286Y-52741263D01*
X132833186Y-52853891D01*
X132833187Y-52853891D01*
X132833190Y-52853893D01*
X133032703Y-52931185D01*
X133208845Y-52964111D01*
X133271125Y-52995779D01*
X133306398Y-53056092D01*
X133303464Y-53125900D01*
X133263255Y-53183040D01*
X133208845Y-53207888D01*
X133032703Y-53240815D01*
X132906533Y-53289693D01*
X132833192Y-53318106D01*
X132833186Y-53318108D01*
X132651286Y-53430736D01*
X132651283Y-53430738D01*
X132651279Y-53430740D01*
X132651278Y-53430742D01*
X132561632Y-53512465D01*
X132493158Y-53574887D01*
X132364219Y-53745629D01*
X132268849Y-53937158D01*
X132268846Y-53937164D01*
X132210296Y-54142949D01*
X132210295Y-54142952D01*
X132190554Y-54355999D01*
X132190554Y-54356000D01*
X132210295Y-54569047D01*
X132210296Y-54569050D01*
X132268846Y-54774835D01*
X132268849Y-54774840D01*
X132364219Y-54966370D01*
X132493159Y-55137114D01*
X132651278Y-55281258D01*
X132651283Y-55281261D01*
X132651286Y-55281263D01*
X132833186Y-55393891D01*
X132833187Y-55393891D01*
X132833190Y-55393893D01*
X133032703Y-55471185D01*
X133208845Y-55504111D01*
X133271125Y-55535779D01*
X133306398Y-55596092D01*
X133303464Y-55665900D01*
X133263255Y-55723040D01*
X133208845Y-55747888D01*
X133032703Y-55780815D01*
X132951857Y-55812135D01*
X132833192Y-55858106D01*
X132833186Y-55858108D01*
X132651286Y-55970736D01*
X132651283Y-55970738D01*
X132651279Y-55970740D01*
X132651278Y-55970742D01*
X132561633Y-56052464D01*
X132493158Y-56114887D01*
X132364219Y-56285629D01*
X132268849Y-56477158D01*
X132268846Y-56477164D01*
X132210296Y-56682949D01*
X132210295Y-56682952D01*
X132190554Y-56895999D01*
X132190554Y-56896000D01*
X132210295Y-57109047D01*
X132210296Y-57109050D01*
X132268846Y-57314835D01*
X132268849Y-57314841D01*
X132349779Y-57477371D01*
X132364219Y-57506370D01*
X132493159Y-57677114D01*
X132651278Y-57821258D01*
X132651283Y-57821261D01*
X132651286Y-57821263D01*
X132833186Y-57933891D01*
X132833187Y-57933891D01*
X132833190Y-57933893D01*
X133032703Y-58011185D01*
X133208845Y-58044111D01*
X133271125Y-58075779D01*
X133306398Y-58136092D01*
X133303464Y-58205900D01*
X133263255Y-58263040D01*
X133208845Y-58287888D01*
X133032703Y-58320815D01*
X132980871Y-58340895D01*
X132833192Y-58398106D01*
X132833186Y-58398108D01*
X132651286Y-58510736D01*
X132651283Y-58510738D01*
X132651279Y-58510740D01*
X132651278Y-58510742D01*
X132493159Y-58654886D01*
X132493158Y-58654887D01*
X132364219Y-58825629D01*
X132268849Y-59017158D01*
X132268846Y-59017164D01*
X132210296Y-59222949D01*
X132210295Y-59222952D01*
X132190554Y-59435999D01*
X132190554Y-59436000D01*
X132210295Y-59649047D01*
X132210296Y-59649050D01*
X132268846Y-59854835D01*
X132268849Y-59854841D01*
X132350898Y-60019618D01*
X132364219Y-60046370D01*
X132493159Y-60217114D01*
X132651278Y-60361258D01*
X132651283Y-60361261D01*
X132651286Y-60361263D01*
X132833186Y-60473891D01*
X132833187Y-60473891D01*
X132833190Y-60473893D01*
X133032703Y-60551185D01*
X133208845Y-60584111D01*
X133271125Y-60615779D01*
X133306398Y-60676092D01*
X133303464Y-60745900D01*
X133263255Y-60803040D01*
X133208845Y-60827888D01*
X133032703Y-60860815D01*
X132906533Y-60909693D01*
X132833192Y-60938106D01*
X132833186Y-60938108D01*
X132651286Y-61050736D01*
X132651283Y-61050738D01*
X132651279Y-61050740D01*
X132651278Y-61050742D01*
X132493159Y-61194886D01*
X132493158Y-61194887D01*
X132364219Y-61365629D01*
X132268849Y-61557158D01*
X132268846Y-61557164D01*
X132210296Y-61762949D01*
X132210295Y-61762952D01*
X132190554Y-61975999D01*
X132190554Y-61976000D01*
X132210295Y-62189047D01*
X132210296Y-62189050D01*
X132268846Y-62394835D01*
X132268849Y-62394841D01*
X132320980Y-62499534D01*
X132364219Y-62586370D01*
X132493159Y-62757114D01*
X132651278Y-62901258D01*
X132651283Y-62901261D01*
X132651286Y-62901263D01*
X132833186Y-63013891D01*
X132833187Y-63013891D01*
X132833190Y-63013893D01*
X133032703Y-63091185D01*
X133208845Y-63124111D01*
X133271125Y-63155779D01*
X133306398Y-63216092D01*
X133303464Y-63285900D01*
X133263255Y-63343040D01*
X133208845Y-63367888D01*
X133032703Y-63400815D01*
X132959859Y-63429035D01*
X132833192Y-63478106D01*
X132833186Y-63478108D01*
X132651286Y-63590736D01*
X132651283Y-63590738D01*
X132651279Y-63590740D01*
X132651278Y-63590742D01*
X132590654Y-63646008D01*
X132493158Y-63734887D01*
X132364219Y-63905629D01*
X132268849Y-64097158D01*
X132268846Y-64097164D01*
X132210296Y-64302949D01*
X132210295Y-64302952D01*
X132190554Y-64515999D01*
X132190554Y-64516000D01*
X132210295Y-64729047D01*
X132210296Y-64729050D01*
X132268846Y-64934835D01*
X132268849Y-64934841D01*
X132335737Y-65069170D01*
X132364219Y-65126370D01*
X132493159Y-65297114D01*
X132651278Y-65441258D01*
X132651283Y-65441261D01*
X132651286Y-65441263D01*
X132833186Y-65553891D01*
X132833187Y-65553891D01*
X132833190Y-65553893D01*
X133032703Y-65631185D01*
X133208845Y-65664111D01*
X133271125Y-65695779D01*
X133306398Y-65756092D01*
X133303464Y-65825900D01*
X133263255Y-65883040D01*
X133208845Y-65907888D01*
X133032703Y-65940815D01*
X133022892Y-65944616D01*
X132833192Y-66018106D01*
X132833186Y-66018108D01*
X132651286Y-66130736D01*
X132651283Y-66130738D01*
X132651279Y-66130740D01*
X132651278Y-66130742D01*
X132494777Y-66273411D01*
X132493158Y-66274887D01*
X132364219Y-66445629D01*
X132268849Y-66637158D01*
X132268846Y-66637164D01*
X132210296Y-66842949D01*
X132210295Y-66842952D01*
X132190554Y-67055999D01*
X132190554Y-67056000D01*
X132210295Y-67269047D01*
X132210296Y-67269050D01*
X132268846Y-67474835D01*
X132268849Y-67474841D01*
X132294519Y-67526393D01*
X132364219Y-67666370D01*
X132493159Y-67837114D01*
X132651278Y-67981258D01*
X132651283Y-67981261D01*
X132651286Y-67981263D01*
X132833186Y-68093891D01*
X132833187Y-68093891D01*
X132833190Y-68093893D01*
X133032703Y-68171185D01*
X133208845Y-68204111D01*
X133271125Y-68235779D01*
X133306398Y-68296092D01*
X133303464Y-68365900D01*
X133263255Y-68423040D01*
X133208845Y-68447888D01*
X133032703Y-68480815D01*
X132906533Y-68529693D01*
X132833192Y-68558106D01*
X132833186Y-68558108D01*
X132651286Y-68670736D01*
X132651283Y-68670738D01*
X132651279Y-68670740D01*
X132651278Y-68670742D01*
X132493159Y-68814886D01*
X132493158Y-68814887D01*
X132364219Y-68985629D01*
X132268849Y-69177158D01*
X132268846Y-69177164D01*
X132210296Y-69382949D01*
X132210295Y-69382952D01*
X132190554Y-69595999D01*
X132194081Y-69634058D01*
X132180667Y-69702627D01*
X132132310Y-69753060D01*
X132070610Y-69769500D01*
X119537741Y-69769500D01*
X119537721Y-69769499D01*
X119531607Y-69769499D01*
X119408394Y-69769499D01*
X119408393Y-69769499D01*
X119402331Y-69770096D01*
X119402073Y-69767479D01*
X119343837Y-69762255D01*
X119288669Y-69719380D01*
X119265438Y-69653486D01*
X119265790Y-69635446D01*
X119269446Y-69596000D01*
X119249704Y-69382952D01*
X119241200Y-69353065D01*
X119191153Y-69177164D01*
X119191150Y-69177158D01*
X119164664Y-69123967D01*
X119095781Y-68985630D01*
X118966841Y-68814886D01*
X118808722Y-68670742D01*
X118808716Y-68670738D01*
X118808713Y-68670736D01*
X118626813Y-68558108D01*
X118626807Y-68558106D01*
X118427297Y-68480815D01*
X118251153Y-68447888D01*
X118188874Y-68416221D01*
X118153601Y-68355908D01*
X118156535Y-68286100D01*
X118196744Y-68228960D01*
X118251152Y-68204112D01*
X118427297Y-68171185D01*
X118626810Y-68093893D01*
X118808722Y-67981258D01*
X118966841Y-67837114D01*
X119095781Y-67666370D01*
X119191151Y-67474840D01*
X119191151Y-67474837D01*
X119191153Y-67474835D01*
X119238814Y-67307323D01*
X119249704Y-67269048D01*
X119269446Y-67056000D01*
X119249704Y-66842952D01*
X119241200Y-66813065D01*
X119191153Y-66637164D01*
X119191150Y-66637158D01*
X119109634Y-66473451D01*
X119095781Y-66445630D01*
X119053246Y-66389305D01*
X119028555Y-66323945D01*
X119043120Y-66255610D01*
X119064518Y-66226900D01*
X119105411Y-66186008D01*
X119867411Y-65424008D01*
X119892812Y-65385992D01*
X119936083Y-65321233D01*
X119973907Y-65229917D01*
X119983386Y-65207034D01*
X120007500Y-65085803D01*
X120007500Y-64962197D01*
X120007500Y-62803197D01*
X119998627Y-62758589D01*
X119983386Y-62681966D01*
X119946491Y-62592894D01*
X119946491Y-62592893D01*
X119936086Y-62567773D01*
X119936079Y-62567760D01*
X119867412Y-62464993D01*
X119865727Y-62463308D01*
X119780008Y-62377589D01*
X119289975Y-61887556D01*
X119256490Y-61826233D01*
X119254185Y-61811315D01*
X119249704Y-61762952D01*
X119209619Y-61622068D01*
X119191153Y-61557164D01*
X119191150Y-61557158D01*
X119124678Y-61423664D01*
X119095781Y-61365630D01*
X118966841Y-61194886D01*
X118808722Y-61050742D01*
X118808716Y-61050738D01*
X118808713Y-61050736D01*
X118626813Y-60938108D01*
X118626807Y-60938106D01*
X118427297Y-60860815D01*
X118251153Y-60827888D01*
X118188874Y-60796221D01*
X118153601Y-60735908D01*
X118156535Y-60666100D01*
X118196744Y-60608960D01*
X118251152Y-60584112D01*
X118427297Y-60551185D01*
X118626810Y-60473893D01*
X118808722Y-60361258D01*
X118966841Y-60217114D01*
X119095781Y-60046370D01*
X119191151Y-59854840D01*
X119191151Y-59854837D01*
X119191153Y-59854835D01*
X119239162Y-59686098D01*
X119249704Y-59649048D01*
X119269446Y-59436000D01*
X119249704Y-59222952D01*
X119241013Y-59192406D01*
X119191153Y-59017164D01*
X119191150Y-59017158D01*
X119113889Y-58861997D01*
X119095781Y-58825630D01*
X118966841Y-58654886D01*
X118808722Y-58510742D01*
X118808716Y-58510738D01*
X118808713Y-58510736D01*
X118626813Y-58398108D01*
X118626807Y-58398106D01*
X118626714Y-58398070D01*
X118427297Y-58320815D01*
X118251153Y-58287888D01*
X118188874Y-58256221D01*
X118153601Y-58195908D01*
X118156535Y-58126100D01*
X118196744Y-58068960D01*
X118251152Y-58044112D01*
X118427297Y-58011185D01*
X118626810Y-57933893D01*
X118808722Y-57821258D01*
X118966841Y-57677114D01*
X119095781Y-57506370D01*
X119191151Y-57314840D01*
X119191151Y-57314837D01*
X119191153Y-57314835D01*
X119233470Y-57166105D01*
X119249704Y-57109048D01*
X119269446Y-56896000D01*
X119249704Y-56682952D01*
X119228134Y-56607142D01*
X119191153Y-56477164D01*
X119191150Y-56477158D01*
X119120552Y-56335377D01*
X119095781Y-56285630D01*
X118966841Y-56114886D01*
X118808722Y-55970742D01*
X118808716Y-55970738D01*
X118808713Y-55970736D01*
X118626813Y-55858108D01*
X118626807Y-55858106D01*
X118626714Y-55858070D01*
X118427297Y-55780815D01*
X118251153Y-55747888D01*
X118188874Y-55716221D01*
X118153601Y-55655908D01*
X118156535Y-55586100D01*
X118196744Y-55528960D01*
X118251152Y-55504112D01*
X118427297Y-55471185D01*
X118626810Y-55393893D01*
X118808722Y-55281258D01*
X118966841Y-55137114D01*
X119095781Y-54966370D01*
X119191151Y-54774840D01*
X119191151Y-54774837D01*
X119191153Y-54774835D01*
X119233470Y-54626105D01*
X119249704Y-54569048D01*
X119269446Y-54356000D01*
X119265001Y-54308036D01*
X119249704Y-54142952D01*
X119249703Y-54142949D01*
X119191153Y-53937164D01*
X119191150Y-53937158D01*
X119154725Y-53864006D01*
X119095781Y-53745630D01*
X118966841Y-53574886D01*
X118808722Y-53430742D01*
X118808716Y-53430738D01*
X118808713Y-53430736D01*
X118626813Y-53318108D01*
X118626807Y-53318106D01*
X118427297Y-53240815D01*
X118251153Y-53207888D01*
X118188874Y-53176221D01*
X118153601Y-53115908D01*
X118156535Y-53046100D01*
X118196744Y-52988960D01*
X118251152Y-52964112D01*
X118427297Y-52931185D01*
X118626810Y-52853893D01*
X118808722Y-52741258D01*
X118966841Y-52597114D01*
X119095781Y-52426370D01*
X119191151Y-52234840D01*
X119191151Y-52234837D01*
X119191153Y-52234835D01*
X119249703Y-52029050D01*
X119249704Y-52029047D01*
X119269446Y-51816000D01*
X119269446Y-51815999D01*
X119249704Y-51602952D01*
X119249703Y-51602949D01*
X119191153Y-51397164D01*
X119191150Y-51397158D01*
X119171403Y-51357500D01*
X119095781Y-51205630D01*
X118966841Y-51034886D01*
X118808722Y-50890742D01*
X118808716Y-50890738D01*
X118808713Y-50890736D01*
X118626813Y-50778108D01*
X118626807Y-50778106D01*
X118427297Y-50700815D01*
X118251153Y-50667888D01*
X118188874Y-50636221D01*
X118153601Y-50575908D01*
X118156535Y-50506100D01*
X118196744Y-50448960D01*
X118251152Y-50424112D01*
X118427297Y-50391185D01*
X118626810Y-50313893D01*
X118808722Y-50201258D01*
X118966841Y-50057114D01*
X119095781Y-49886370D01*
X119191151Y-49694840D01*
X119191151Y-49694837D01*
X119191153Y-49694835D01*
X119249703Y-49489050D01*
X119249704Y-49489047D01*
X119269446Y-49276000D01*
X119269446Y-49275999D01*
X119249704Y-49062952D01*
X119249703Y-49062949D01*
X119191153Y-48857164D01*
X119191150Y-48857158D01*
X119116251Y-48706740D01*
X119095781Y-48665630D01*
X118966841Y-48494886D01*
X118808722Y-48350742D01*
X118808716Y-48350738D01*
X118808713Y-48350736D01*
X118626813Y-48238108D01*
X118626807Y-48238106D01*
X118427297Y-48160815D01*
X118216980Y-48121500D01*
X118003020Y-48121500D01*
X117792703Y-48160815D01*
X117666533Y-48209693D01*
X117593192Y-48238106D01*
X117593186Y-48238108D01*
X117411286Y-48350736D01*
X117411283Y-48350738D01*
X117411279Y-48350740D01*
X117411278Y-48350742D01*
X117279793Y-48470606D01*
X117253158Y-48494887D01*
X117174364Y-48599227D01*
X117118255Y-48640863D01*
X117075410Y-48648500D01*
X109414840Y-48648500D01*
X109347801Y-48628815D01*
X109302046Y-48576011D01*
X109296909Y-48562817D01*
X109285182Y-48526724D01*
X109285180Y-48526720D01*
X109285179Y-48526716D01*
X109190533Y-48362784D01*
X109063871Y-48222112D01*
X108979503Y-48160815D01*
X108910734Y-48110851D01*
X108910729Y-48110848D01*
X108737807Y-48033857D01*
X108737802Y-48033855D01*
X108592001Y-48002865D01*
X108552646Y-47994500D01*
X108363354Y-47994500D01*
X108330897Y-48001398D01*
X108178197Y-48033855D01*
X108178192Y-48033857D01*
X108005270Y-48110848D01*
X108005265Y-48110851D01*
X107852129Y-48222111D01*
X107725466Y-48362785D01*
X107630821Y-48526715D01*
X107630818Y-48526722D01*
X107572327Y-48706740D01*
X107572326Y-48706744D01*
X107552540Y-48895000D01*
X107572326Y-49083256D01*
X107572327Y-49083259D01*
X107614542Y-49213182D01*
X107616537Y-49283023D01*
X107580457Y-49342856D01*
X107517756Y-49373684D01*
X107496611Y-49375500D01*
X91680552Y-49375500D01*
X91613513Y-49355815D01*
X91573165Y-49313500D01*
X91537534Y-49251785D01*
X91410870Y-49111111D01*
X91257734Y-48999851D01*
X91257729Y-48999848D01*
X91084807Y-48922857D01*
X91084802Y-48922855D01*
X90939001Y-48891865D01*
X90899646Y-48883500D01*
X90710354Y-48883500D01*
X90677897Y-48890398D01*
X90525197Y-48922855D01*
X90525192Y-48922857D01*
X90352270Y-48999848D01*
X90352265Y-48999851D01*
X90199129Y-49111111D01*
X90072466Y-49251785D01*
X89977821Y-49415715D01*
X89977818Y-49415722D01*
X89937132Y-49540942D01*
X89919326Y-49595744D01*
X89908911Y-49694840D01*
X89900753Y-49772462D01*
X89874168Y-49837076D01*
X89816871Y-49877061D01*
X89777432Y-49883500D01*
X79336281Y-49883500D01*
X79269242Y-49863815D01*
X79248600Y-49847181D01*
X78992984Y-49591565D01*
X78959499Y-49530242D01*
X78960890Y-49471790D01*
X78972070Y-49430068D01*
X78987667Y-49251785D01*
X78991323Y-49210002D01*
X78991323Y-49209997D01*
X78982672Y-49111112D01*
X78972070Y-48989932D01*
X78914894Y-48776550D01*
X78821534Y-48576339D01*
X78758180Y-48485859D01*
X78694827Y-48395381D01*
X78640977Y-48341531D01*
X78538620Y-48239174D01*
X78538616Y-48239171D01*
X78538615Y-48239170D01*
X78357666Y-48112468D01*
X78357658Y-48112464D01*
X78228811Y-48052382D01*
X78176371Y-48006210D01*
X78157219Y-47939017D01*
X78177435Y-47872135D01*
X78228811Y-47827618D01*
X78234802Y-47824824D01*
X78357662Y-47767534D01*
X78538620Y-47640826D01*
X78694826Y-47484620D01*
X78821534Y-47303662D01*
X78914894Y-47103450D01*
X78972070Y-46890068D01*
X78986509Y-46725017D01*
X78991323Y-46670002D01*
X78991323Y-46669997D01*
X78984103Y-46587474D01*
X78974876Y-46482000D01*
X104250540Y-46482000D01*
X104270326Y-46670256D01*
X104270327Y-46670259D01*
X104328818Y-46850277D01*
X104328821Y-46850284D01*
X104423467Y-47014216D01*
X104503814Y-47103450D01*
X104550129Y-47154888D01*
X104703265Y-47266148D01*
X104703270Y-47266151D01*
X104876192Y-47343142D01*
X104876197Y-47343144D01*
X105061354Y-47382500D01*
X105061355Y-47382500D01*
X105250644Y-47382500D01*
X105250646Y-47382500D01*
X105435803Y-47343144D01*
X105608730Y-47266151D01*
X105761871Y-47154888D01*
X105888533Y-47014216D01*
X105944372Y-46917499D01*
X105994939Y-46869285D01*
X106051759Y-46855500D01*
X112709053Y-46855500D01*
X112776092Y-46875185D01*
X112801199Y-46896523D01*
X112805129Y-46900888D01*
X112805132Y-46900891D01*
X112805135Y-46900893D01*
X112958265Y-47012148D01*
X112958270Y-47012151D01*
X113131192Y-47089142D01*
X113131197Y-47089144D01*
X113316354Y-47128500D01*
X113316355Y-47128500D01*
X113505644Y-47128500D01*
X113505646Y-47128500D01*
X113690803Y-47089144D01*
X113863730Y-47012151D01*
X114016871Y-46900888D01*
X114143533Y-46760216D01*
X114238179Y-46596284D01*
X114296674Y-46416256D01*
X114316460Y-46228000D01*
X114296674Y-46039744D01*
X114238179Y-45859716D01*
X114143533Y-45695784D01*
X114016871Y-45555112D01*
X114016870Y-45555111D01*
X113863734Y-45443851D01*
X113863729Y-45443848D01*
X113690807Y-45366857D01*
X113690802Y-45366855D01*
X113535238Y-45333790D01*
X113505646Y-45327500D01*
X113316354Y-45327500D01*
X113286762Y-45333790D01*
X113131197Y-45366855D01*
X113131192Y-45366857D01*
X112958270Y-45443848D01*
X112958265Y-45443851D01*
X112805135Y-45555106D01*
X112805132Y-45555108D01*
X112803175Y-45557281D01*
X112801200Y-45559474D01*
X112741714Y-45596121D01*
X112709053Y-45600500D01*
X105353072Y-45600500D01*
X105327292Y-45597790D01*
X105250651Y-45581500D01*
X105250646Y-45581500D01*
X105061354Y-45581500D01*
X105028897Y-45588398D01*
X104876197Y-45620855D01*
X104876192Y-45620857D01*
X104703270Y-45697848D01*
X104703265Y-45697851D01*
X104550129Y-45809111D01*
X104423466Y-45949785D01*
X104328821Y-46113715D01*
X104328818Y-46113722D01*
X104277009Y-46273175D01*
X104270326Y-46293744D01*
X104250540Y-46482000D01*
X78974876Y-46482000D01*
X78972070Y-46449932D01*
X78960890Y-46408207D01*
X78962553Y-46338359D01*
X78992984Y-46288434D01*
X80062408Y-45219011D01*
X80062408Y-45219010D01*
X80062411Y-45219008D01*
X80131083Y-45116233D01*
X80137464Y-45100829D01*
X80146707Y-45078514D01*
X80178385Y-45002035D01*
X80189806Y-44944620D01*
X80202500Y-44880805D01*
X80202500Y-40829500D01*
X80222185Y-40762461D01*
X80274989Y-40716706D01*
X80326500Y-40705500D01*
X88142394Y-40705500D01*
X88209433Y-40725185D01*
X88255188Y-40777989D01*
X88265132Y-40847147D01*
X88236107Y-40910703D01*
X88177329Y-40948477D01*
X88174488Y-40949275D01*
X88085554Y-40973104D01*
X88085548Y-40973107D01*
X87885340Y-41066465D01*
X87885338Y-41066466D01*
X87704377Y-41193175D01*
X87548175Y-41349377D01*
X87421466Y-41530338D01*
X87421465Y-41530340D01*
X87328107Y-41730548D01*
X87328104Y-41730554D01*
X87270930Y-41943929D01*
X87270929Y-41943937D01*
X87251677Y-42163997D01*
X87251677Y-42164002D01*
X87270929Y-42384062D01*
X87270930Y-42384070D01*
X87328104Y-42597445D01*
X87328105Y-42597447D01*
X87328106Y-42597450D01*
X87398409Y-42748215D01*
X87421466Y-42797662D01*
X87421468Y-42797666D01*
X87548170Y-42978615D01*
X87548175Y-42978621D01*
X87704378Y-43134824D01*
X87704384Y-43134829D01*
X87885333Y-43261531D01*
X87885335Y-43261532D01*
X87885338Y-43261534D01*
X88000812Y-43315380D01*
X88014189Y-43321618D01*
X88066628Y-43367790D01*
X88085780Y-43434984D01*
X88065564Y-43501865D01*
X88014189Y-43546382D01*
X87885340Y-43606465D01*
X87885338Y-43606466D01*
X87704377Y-43733175D01*
X87548175Y-43889377D01*
X87421466Y-44070338D01*
X87421465Y-44070340D01*
X87328107Y-44270548D01*
X87328104Y-44270554D01*
X87270930Y-44483929D01*
X87270929Y-44483937D01*
X87251677Y-44703997D01*
X87251677Y-44704002D01*
X87270929Y-44924062D01*
X87270930Y-44924070D01*
X87328104Y-45137445D01*
X87328105Y-45137447D01*
X87328106Y-45137450D01*
X87370113Y-45227534D01*
X87421466Y-45337662D01*
X87421468Y-45337666D01*
X87548170Y-45518615D01*
X87548175Y-45518621D01*
X87704378Y-45674824D01*
X87704384Y-45674829D01*
X87885333Y-45801531D01*
X87885335Y-45801532D01*
X87885338Y-45801534D01*
X88085550Y-45894894D01*
X88298932Y-45952070D01*
X88456123Y-45965822D01*
X88518998Y-45971323D01*
X88519000Y-45971323D01*
X88519002Y-45971323D01*
X88574017Y-45966509D01*
X88739068Y-45952070D01*
X88952450Y-45894894D01*
X89152662Y-45801534D01*
X89333620Y-45674826D01*
X89489826Y-45518620D01*
X89616534Y-45337662D01*
X89709894Y-45137450D01*
X89767070Y-44924068D01*
X89786323Y-44704000D01*
X89786323Y-44703997D01*
X141226677Y-44703997D01*
X141226677Y-44704002D01*
X141245929Y-44924062D01*
X141245930Y-44924070D01*
X141303104Y-45137445D01*
X141303105Y-45137447D01*
X141303106Y-45137450D01*
X141345113Y-45227534D01*
X141396466Y-45337662D01*
X141396468Y-45337666D01*
X141523170Y-45518615D01*
X141523175Y-45518621D01*
X141679378Y-45674824D01*
X141679384Y-45674829D01*
X141860333Y-45801531D01*
X141860335Y-45801532D01*
X141860338Y-45801534D01*
X141975812Y-45855380D01*
X141989189Y-45861618D01*
X142041628Y-45907790D01*
X142060780Y-45974984D01*
X142040564Y-46041865D01*
X141989189Y-46086382D01*
X141860340Y-46146465D01*
X141860338Y-46146466D01*
X141679377Y-46273175D01*
X141523175Y-46429377D01*
X141396466Y-46610338D01*
X141396465Y-46610340D01*
X141303107Y-46810548D01*
X141303104Y-46810554D01*
X141245930Y-47023929D01*
X141245929Y-47023937D01*
X141226677Y-47243997D01*
X141226677Y-47244002D01*
X141245929Y-47464062D01*
X141245930Y-47464070D01*
X141303104Y-47677445D01*
X141303105Y-47677447D01*
X141303106Y-47677450D01*
X141345113Y-47767534D01*
X141396466Y-47877662D01*
X141396468Y-47877666D01*
X141523170Y-48058615D01*
X141523175Y-48058621D01*
X141679378Y-48214824D01*
X141679384Y-48214829D01*
X141860333Y-48341531D01*
X141860335Y-48341532D01*
X141860338Y-48341534D01*
X142060550Y-48434894D01*
X142273932Y-48492070D01*
X142431123Y-48505822D01*
X142493998Y-48511323D01*
X142494000Y-48511323D01*
X142494002Y-48511323D01*
X142549017Y-48506509D01*
X142714068Y-48492070D01*
X142927450Y-48434894D01*
X143127662Y-48341534D01*
X143308620Y-48214826D01*
X143464826Y-48058620D01*
X143591534Y-47877662D01*
X143684894Y-47677450D01*
X143742070Y-47464068D01*
X143761323Y-47244000D01*
X143742070Y-47023932D01*
X143684894Y-46810550D01*
X143591534Y-46610339D01*
X143479217Y-46449932D01*
X143464827Y-46429381D01*
X143443655Y-46408209D01*
X143308620Y-46273174D01*
X143308616Y-46273171D01*
X143308615Y-46273170D01*
X143127666Y-46146468D01*
X143127658Y-46146464D01*
X142998811Y-46086382D01*
X142946371Y-46040210D01*
X142927219Y-45973017D01*
X142947435Y-45906135D01*
X142998811Y-45861618D01*
X143012188Y-45855380D01*
X143127662Y-45801534D01*
X143308620Y-45674826D01*
X143464826Y-45518620D01*
X143591534Y-45337662D01*
X143684894Y-45137450D01*
X143742070Y-44924068D01*
X143761323Y-44704000D01*
X143742070Y-44483932D01*
X143684894Y-44270550D01*
X143591534Y-44070339D01*
X143476964Y-43906715D01*
X143464827Y-43889381D01*
X143393682Y-43818236D01*
X143308620Y-43733174D01*
X143308616Y-43733171D01*
X143308615Y-43733170D01*
X143127666Y-43606468D01*
X143127662Y-43606466D01*
X143127658Y-43606464D01*
X142927450Y-43513106D01*
X142927447Y-43513105D01*
X142927445Y-43513104D01*
X142714070Y-43455930D01*
X142714062Y-43455929D01*
X142494002Y-43436677D01*
X142493998Y-43436677D01*
X142273937Y-43455929D01*
X142273929Y-43455930D01*
X142060554Y-43513104D01*
X142060548Y-43513107D01*
X141860340Y-43606465D01*
X141860338Y-43606466D01*
X141679377Y-43733175D01*
X141523175Y-43889377D01*
X141396466Y-44070338D01*
X141396465Y-44070340D01*
X141303107Y-44270548D01*
X141303104Y-44270554D01*
X141245930Y-44483929D01*
X141245929Y-44483937D01*
X141226677Y-44703997D01*
X89786323Y-44703997D01*
X89767070Y-44483932D01*
X89709894Y-44270550D01*
X89616534Y-44070339D01*
X89501964Y-43906715D01*
X89489827Y-43889381D01*
X89418682Y-43818236D01*
X89333620Y-43733174D01*
X89333616Y-43733171D01*
X89333615Y-43733170D01*
X89152666Y-43606468D01*
X89152658Y-43606464D01*
X89023811Y-43546382D01*
X88971371Y-43500210D01*
X88952219Y-43433017D01*
X88972435Y-43366135D01*
X89023811Y-43321618D01*
X89037188Y-43315380D01*
X89152662Y-43261534D01*
X89333620Y-43134826D01*
X89489826Y-42978620D01*
X89616534Y-42797662D01*
X89709894Y-42597450D01*
X89767070Y-42384068D01*
X89783496Y-42196315D01*
X89786323Y-42164002D01*
X89786323Y-42163997D01*
X89767070Y-41943937D01*
X89767070Y-41943932D01*
X89709894Y-41730550D01*
X89616534Y-41530339D01*
X89489826Y-41349380D01*
X89333620Y-41193174D01*
X89333616Y-41193171D01*
X89333615Y-41193170D01*
X89152666Y-41066468D01*
X89152662Y-41066466D01*
X89046152Y-41016800D01*
X88952450Y-40973106D01*
X88952447Y-40973105D01*
X88952445Y-40973104D01*
X88863512Y-40949275D01*
X88803852Y-40912910D01*
X88773323Y-40850063D01*
X88781618Y-40780687D01*
X88826103Y-40726809D01*
X88892655Y-40705535D01*
X88895606Y-40705500D01*
X95258667Y-40705500D01*
X95325706Y-40725185D01*
X95346348Y-40741819D01*
X97337114Y-42732585D01*
X97370599Y-42793908D01*
X97367364Y-42858583D01*
X97342761Y-42934304D01*
X97342759Y-42934310D01*
X97338102Y-42978620D01*
X97322973Y-43122567D01*
X97342759Y-43310823D01*
X97342760Y-43310826D01*
X97401251Y-43490844D01*
X97401254Y-43490851D01*
X97495900Y-43654783D01*
X97566484Y-43733174D01*
X97622562Y-43795455D01*
X97775698Y-43906715D01*
X97775703Y-43906718D01*
X97948625Y-43983709D01*
X97948630Y-43983711D01*
X98133787Y-44023067D01*
X98133788Y-44023067D01*
X98323077Y-44023067D01*
X98323079Y-44023067D01*
X98508236Y-43983711D01*
X98681163Y-43906718D01*
X98681174Y-43906709D01*
X98683139Y-43905576D01*
X98684435Y-43905261D01*
X98687100Y-43904075D01*
X98687316Y-43904562D01*
X98751037Y-43889097D01*
X98795587Y-43899678D01*
X98797766Y-43900648D01*
X98797770Y-43900651D01*
X98970697Y-43977644D01*
X99155854Y-44017000D01*
X99155855Y-44017000D01*
X99345144Y-44017000D01*
X99345146Y-44017000D01*
X99530303Y-43977644D01*
X99703230Y-43900651D01*
X99856371Y-43789388D01*
X99983033Y-43648716D01*
X100077679Y-43484784D01*
X100136174Y-43304756D01*
X100155960Y-43116500D01*
X100136174Y-42928244D01*
X100077679Y-42748216D01*
X99983033Y-42584284D01*
X99856371Y-42443612D01*
X99856370Y-42443611D01*
X99703234Y-42332351D01*
X99703229Y-42332348D01*
X99530307Y-42255357D01*
X99530302Y-42255355D01*
X99384501Y-42224365D01*
X99345146Y-42216000D01*
X99345145Y-42216000D01*
X99288781Y-42216000D01*
X99221742Y-42196315D01*
X99201100Y-42179681D01*
X97407420Y-40386000D01*
X104250540Y-40386000D01*
X104270326Y-40574256D01*
X104270327Y-40574259D01*
X104328818Y-40754277D01*
X104328821Y-40754284D01*
X104423467Y-40918216D01*
X104544478Y-41052612D01*
X104550129Y-41058888D01*
X104666587Y-41143500D01*
X104709253Y-41198830D01*
X104715232Y-41268443D01*
X104711633Y-41282136D01*
X104651327Y-41467740D01*
X104651326Y-41467744D01*
X104631540Y-41656000D01*
X104651326Y-41844256D01*
X104651327Y-41844259D01*
X104709818Y-42024277D01*
X104709821Y-42024284D01*
X104804467Y-42188216D01*
X104894204Y-42287879D01*
X104931129Y-42328888D01*
X105084265Y-42440148D01*
X105084270Y-42440151D01*
X105257192Y-42517142D01*
X105257197Y-42517144D01*
X105442354Y-42556500D01*
X105442355Y-42556500D01*
X105631644Y-42556500D01*
X105631646Y-42556500D01*
X105816803Y-42517144D01*
X105989730Y-42440151D01*
X106142871Y-42328888D01*
X106146799Y-42324525D01*
X106206286Y-42287879D01*
X106238947Y-42283500D01*
X130498719Y-42283500D01*
X130565758Y-42303185D01*
X130586400Y-42319819D01*
X131014371Y-42747790D01*
X131047856Y-42809113D01*
X131050010Y-42822505D01*
X131067326Y-42987256D01*
X131067327Y-42987259D01*
X131125818Y-43167277D01*
X131125821Y-43167284D01*
X131220467Y-43331216D01*
X131332760Y-43455930D01*
X131347129Y-43471888D01*
X131500265Y-43583148D01*
X131500270Y-43583151D01*
X131673192Y-43660142D01*
X131673197Y-43660144D01*
X131858354Y-43699500D01*
X131858355Y-43699500D01*
X132047644Y-43699500D01*
X132047646Y-43699500D01*
X132232803Y-43660144D01*
X132405730Y-43583151D01*
X132558871Y-43471888D01*
X132685533Y-43331216D01*
X132780179Y-43167284D01*
X132838674Y-42987256D01*
X132858460Y-42799000D01*
X132838674Y-42610744D01*
X132780179Y-42430716D01*
X132685533Y-42266784D01*
X132558871Y-42126112D01*
X132558870Y-42126111D01*
X132405734Y-42014851D01*
X132405729Y-42014848D01*
X132232807Y-41937857D01*
X132232802Y-41937855D01*
X132087001Y-41906865D01*
X132047646Y-41898500D01*
X132047645Y-41898500D01*
X131991281Y-41898500D01*
X131924242Y-41878815D01*
X131903600Y-41862181D01*
X131210013Y-41168593D01*
X131210007Y-41168588D01*
X131191989Y-41156549D01*
X131107239Y-41099920D01*
X131107226Y-41099913D01*
X131073785Y-41086062D01*
X130993035Y-41052614D01*
X130993027Y-41052612D01*
X130871807Y-41028500D01*
X130871803Y-41028500D01*
X114708517Y-41028500D01*
X114641478Y-41008815D01*
X114595723Y-40956011D01*
X114585779Y-40886853D01*
X114614804Y-40823297D01*
X114658076Y-40791222D01*
X114662730Y-40789151D01*
X114815871Y-40677888D01*
X114942533Y-40537216D01*
X115037179Y-40373284D01*
X115095674Y-40193256D01*
X115115460Y-40005000D01*
X115095674Y-39816744D01*
X115037179Y-39636716D01*
X114942533Y-39472784D01*
X114815871Y-39332112D01*
X114815870Y-39332111D01*
X114662734Y-39220851D01*
X114662729Y-39220848D01*
X114489807Y-39143857D01*
X114489802Y-39143855D01*
X114344001Y-39112865D01*
X114304646Y-39104500D01*
X114115354Y-39104500D01*
X114082897Y-39111398D01*
X113930197Y-39143855D01*
X113930192Y-39143857D01*
X113757270Y-39220848D01*
X113757265Y-39220851D01*
X113604135Y-39332106D01*
X113604132Y-39332108D01*
X113602175Y-39334281D01*
X113600200Y-39336474D01*
X113540714Y-39373121D01*
X113508053Y-39377500D01*
X105475194Y-39377500D01*
X105353970Y-39401613D01*
X105353960Y-39401616D01*
X105239773Y-39448913D01*
X105239760Y-39448920D01*
X105216292Y-39464602D01*
X105149615Y-39485480D01*
X105147401Y-39485500D01*
X105061354Y-39485500D01*
X105028897Y-39492398D01*
X104876197Y-39524855D01*
X104876192Y-39524857D01*
X104703270Y-39601848D01*
X104703265Y-39601851D01*
X104550129Y-39713111D01*
X104423466Y-39853785D01*
X104328821Y-40017715D01*
X104328818Y-40017722D01*
X104271784Y-40193256D01*
X104270326Y-40197744D01*
X104250540Y-40386000D01*
X97407420Y-40386000D01*
X96158013Y-39136593D01*
X96158010Y-39136590D01*
X96109983Y-39104500D01*
X96055555Y-39068132D01*
X122678087Y-39068132D01*
X122698369Y-39274064D01*
X122715978Y-39332112D01*
X122758438Y-39472086D01*
X122855985Y-39654582D01*
X122855987Y-39654584D01*
X122987259Y-39814542D01*
X123035078Y-39853785D01*
X123147220Y-39945817D01*
X123329716Y-40043364D01*
X123527736Y-40103432D01*
X123527735Y-40103432D01*
X123546199Y-40105250D01*
X123733670Y-40123715D01*
X123939604Y-40103432D01*
X124137624Y-40043364D01*
X124320120Y-39945817D01*
X124480080Y-39814542D01*
X124611355Y-39654582D01*
X124708902Y-39472086D01*
X124768970Y-39274066D01*
X124789253Y-39068132D01*
X125218087Y-39068132D01*
X125238369Y-39274064D01*
X125255978Y-39332112D01*
X125298438Y-39472086D01*
X125395985Y-39654582D01*
X125395987Y-39654584D01*
X125527259Y-39814542D01*
X125575078Y-39853785D01*
X125687220Y-39945817D01*
X125869716Y-40043364D01*
X126067736Y-40103432D01*
X126067735Y-40103432D01*
X126086199Y-40105250D01*
X126273670Y-40123715D01*
X126479604Y-40103432D01*
X126677624Y-40043364D01*
X126860120Y-39945817D01*
X127020080Y-39814542D01*
X127151355Y-39654582D01*
X127248902Y-39472086D01*
X127308970Y-39274066D01*
X127329253Y-39068132D01*
X127758087Y-39068132D01*
X127778369Y-39274064D01*
X127795978Y-39332112D01*
X127838438Y-39472086D01*
X127935985Y-39654582D01*
X127935987Y-39654584D01*
X128067259Y-39814542D01*
X128115078Y-39853785D01*
X128227220Y-39945817D01*
X128409716Y-40043364D01*
X128607736Y-40103432D01*
X128607735Y-40103432D01*
X128626199Y-40105250D01*
X128813670Y-40123715D01*
X129019604Y-40103432D01*
X129217624Y-40043364D01*
X129400120Y-39945817D01*
X129560080Y-39814542D01*
X129691355Y-39654582D01*
X129788902Y-39472086D01*
X129848970Y-39274066D01*
X129869253Y-39068132D01*
X129848970Y-38862198D01*
X129788902Y-38664178D01*
X129691355Y-38481682D01*
X129601612Y-38372329D01*
X129560080Y-38321721D01*
X129400122Y-38190449D01*
X129400123Y-38190449D01*
X129400120Y-38190447D01*
X129217624Y-38092900D01*
X129019604Y-38032832D01*
X129019602Y-38032831D01*
X129019604Y-38032831D01*
X128813670Y-38012549D01*
X128607737Y-38032831D01*
X128409713Y-38092901D01*
X128299568Y-38151775D01*
X128227220Y-38190447D01*
X128227218Y-38190448D01*
X128227217Y-38190449D01*
X128067259Y-38321721D01*
X127935987Y-38481679D01*
X127838439Y-38664175D01*
X127778369Y-38862199D01*
X127758087Y-39068132D01*
X127329253Y-39068132D01*
X127308970Y-38862198D01*
X127248902Y-38664178D01*
X127151355Y-38481682D01*
X127061612Y-38372329D01*
X127020080Y-38321721D01*
X126860122Y-38190449D01*
X126860123Y-38190449D01*
X126860120Y-38190447D01*
X126677624Y-38092900D01*
X126479604Y-38032832D01*
X126479602Y-38032831D01*
X126479604Y-38032831D01*
X126273670Y-38012549D01*
X126067737Y-38032831D01*
X125869713Y-38092901D01*
X125759568Y-38151775D01*
X125687220Y-38190447D01*
X125687218Y-38190448D01*
X125687217Y-38190449D01*
X125527259Y-38321721D01*
X125395987Y-38481679D01*
X125298439Y-38664175D01*
X125238369Y-38862199D01*
X125218087Y-39068132D01*
X124789253Y-39068132D01*
X124768970Y-38862198D01*
X124708902Y-38664178D01*
X124611355Y-38481682D01*
X124521612Y-38372329D01*
X124480080Y-38321721D01*
X124320122Y-38190449D01*
X124320123Y-38190449D01*
X124320120Y-38190447D01*
X124137624Y-38092900D01*
X123939604Y-38032832D01*
X123939602Y-38032831D01*
X123939604Y-38032831D01*
X123733670Y-38012549D01*
X123527737Y-38032831D01*
X123329713Y-38092901D01*
X123219568Y-38151775D01*
X123147220Y-38190447D01*
X123147218Y-38190448D01*
X123147217Y-38190449D01*
X122987259Y-38321721D01*
X122855987Y-38481679D01*
X122758439Y-38664175D01*
X122698369Y-38862199D01*
X122678087Y-39068132D01*
X96055555Y-39068132D01*
X96055233Y-39067917D01*
X96055229Y-39067915D01*
X96055227Y-39067914D01*
X96055228Y-39067914D01*
X96021785Y-39054062D01*
X95941035Y-39020614D01*
X95941027Y-39020612D01*
X95819807Y-38996500D01*
X95819803Y-38996500D01*
X79690803Y-38996500D01*
X79567196Y-38996500D01*
X79567194Y-38996500D01*
X79445970Y-39020613D01*
X79445960Y-39020616D01*
X79331773Y-39067913D01*
X79331760Y-39067920D01*
X79228991Y-39136589D01*
X79228987Y-39136592D01*
X78840726Y-39524855D01*
X78720992Y-39644589D01*
X78652470Y-39713111D01*
X78633589Y-39731992D01*
X78564915Y-39834770D01*
X78564162Y-39836590D01*
X78564152Y-39836614D01*
X78517614Y-39948964D01*
X78517612Y-39948972D01*
X78495911Y-40058066D01*
X78495912Y-40058067D01*
X78493500Y-40070193D01*
X78493500Y-40361167D01*
X78473815Y-40428206D01*
X78421011Y-40473961D01*
X78351853Y-40483905D01*
X78317096Y-40473549D01*
X78157456Y-40399108D01*
X78157445Y-40399104D01*
X77944070Y-40341930D01*
X77944062Y-40341929D01*
X77724002Y-40322677D01*
X77723998Y-40322677D01*
X77503937Y-40341929D01*
X77503929Y-40341930D01*
X77290554Y-40399104D01*
X77290548Y-40399107D01*
X77090340Y-40492465D01*
X77090338Y-40492466D01*
X76909374Y-40619177D01*
X76905230Y-40622655D01*
X76903798Y-40620949D01*
X76850858Y-40649857D01*
X76781166Y-40644873D01*
X76725233Y-40603001D01*
X76700816Y-40537537D01*
X76700500Y-40528691D01*
X76700500Y-36528132D01*
X121408087Y-36528132D01*
X121428369Y-36734064D01*
X121438615Y-36767839D01*
X121488438Y-36932086D01*
X121585985Y-37114582D01*
X121585987Y-37114584D01*
X121717259Y-37274542D01*
X121813879Y-37353834D01*
X121877220Y-37405817D01*
X122059716Y-37503364D01*
X122257736Y-37563432D01*
X122257735Y-37563432D01*
X122276199Y-37565250D01*
X122463670Y-37583715D01*
X122669604Y-37563432D01*
X122867624Y-37503364D01*
X123050120Y-37405817D01*
X123210080Y-37274542D01*
X123341355Y-37114582D01*
X123438902Y-36932086D01*
X123498970Y-36734066D01*
X123519253Y-36528132D01*
X123948087Y-36528132D01*
X123968369Y-36734064D01*
X123978615Y-36767839D01*
X124028438Y-36932086D01*
X124125985Y-37114582D01*
X124125987Y-37114584D01*
X124257259Y-37274542D01*
X124353879Y-37353834D01*
X124417220Y-37405817D01*
X124599716Y-37503364D01*
X124797736Y-37563432D01*
X124797735Y-37563432D01*
X124816199Y-37565250D01*
X125003670Y-37583715D01*
X125209604Y-37563432D01*
X125407624Y-37503364D01*
X125590120Y-37405817D01*
X125750080Y-37274542D01*
X125881355Y-37114582D01*
X125978902Y-36932086D01*
X126038970Y-36734066D01*
X126059253Y-36528132D01*
X126488087Y-36528132D01*
X126508369Y-36734064D01*
X126518615Y-36767839D01*
X126568438Y-36932086D01*
X126665985Y-37114582D01*
X126665987Y-37114584D01*
X126797259Y-37274542D01*
X126893879Y-37353834D01*
X126957220Y-37405817D01*
X127139716Y-37503364D01*
X127337736Y-37563432D01*
X127337735Y-37563432D01*
X127356199Y-37565250D01*
X127543670Y-37583715D01*
X127749604Y-37563432D01*
X127947624Y-37503364D01*
X128130120Y-37405817D01*
X128290080Y-37274542D01*
X128421355Y-37114582D01*
X128518902Y-36932086D01*
X128578970Y-36734066D01*
X128599253Y-36528132D01*
X129028087Y-36528132D01*
X129048369Y-36734064D01*
X129058615Y-36767839D01*
X129108438Y-36932086D01*
X129205985Y-37114582D01*
X129205987Y-37114584D01*
X129337259Y-37274542D01*
X129433879Y-37353834D01*
X129497220Y-37405817D01*
X129679716Y-37503364D01*
X129877736Y-37563432D01*
X129877735Y-37563432D01*
X129896199Y-37565250D01*
X130083670Y-37583715D01*
X130289604Y-37563432D01*
X130487624Y-37503364D01*
X130670120Y-37405817D01*
X130830080Y-37274542D01*
X130961355Y-37114582D01*
X131058902Y-36932086D01*
X131118970Y-36734066D01*
X131139253Y-36528132D01*
X131118970Y-36322198D01*
X131058902Y-36124178D01*
X130961355Y-35941682D01*
X130871612Y-35832329D01*
X130830080Y-35781721D01*
X130670122Y-35650449D01*
X130670123Y-35650449D01*
X130670120Y-35650447D01*
X130487624Y-35552900D01*
X130289604Y-35492832D01*
X130289602Y-35492831D01*
X130289604Y-35492831D01*
X130083670Y-35472549D01*
X129877737Y-35492831D01*
X129679713Y-35552901D01*
X129569568Y-35611775D01*
X129497220Y-35650447D01*
X129497218Y-35650448D01*
X129497217Y-35650449D01*
X129337259Y-35781721D01*
X129205987Y-35941679D01*
X129108439Y-36124175D01*
X129048369Y-36322199D01*
X129028087Y-36528132D01*
X128599253Y-36528132D01*
X128578970Y-36322198D01*
X128518902Y-36124178D01*
X128421355Y-35941682D01*
X128331612Y-35832329D01*
X128290080Y-35781721D01*
X128130122Y-35650449D01*
X128130123Y-35650449D01*
X128130120Y-35650447D01*
X127947624Y-35552900D01*
X127749604Y-35492832D01*
X127749602Y-35492831D01*
X127749604Y-35492831D01*
X127543670Y-35472549D01*
X127337737Y-35492831D01*
X127139713Y-35552901D01*
X127029568Y-35611775D01*
X126957220Y-35650447D01*
X126957218Y-35650448D01*
X126957217Y-35650449D01*
X126797259Y-35781721D01*
X126665987Y-35941679D01*
X126568439Y-36124175D01*
X126508369Y-36322199D01*
X126488087Y-36528132D01*
X126059253Y-36528132D01*
X126038970Y-36322198D01*
X125978902Y-36124178D01*
X125881355Y-35941682D01*
X125791612Y-35832329D01*
X125750080Y-35781721D01*
X125590122Y-35650449D01*
X125590123Y-35650449D01*
X125590120Y-35650447D01*
X125407624Y-35552900D01*
X125209604Y-35492832D01*
X125209602Y-35492831D01*
X125209604Y-35492831D01*
X125003670Y-35472549D01*
X124797737Y-35492831D01*
X124599713Y-35552901D01*
X124489568Y-35611775D01*
X124417220Y-35650447D01*
X124417218Y-35650448D01*
X124417217Y-35650449D01*
X124257259Y-35781721D01*
X124125987Y-35941679D01*
X124028439Y-36124175D01*
X123968369Y-36322199D01*
X123948087Y-36528132D01*
X123519253Y-36528132D01*
X123498970Y-36322198D01*
X123438902Y-36124178D01*
X123341355Y-35941682D01*
X123251612Y-35832329D01*
X123210080Y-35781721D01*
X123050122Y-35650449D01*
X123050123Y-35650449D01*
X123050120Y-35650447D01*
X122867624Y-35552900D01*
X122669604Y-35492832D01*
X122669602Y-35492831D01*
X122669604Y-35492831D01*
X122463670Y-35472549D01*
X122257737Y-35492831D01*
X122059713Y-35552901D01*
X121949568Y-35611775D01*
X121877220Y-35650447D01*
X121877218Y-35650448D01*
X121877217Y-35650449D01*
X121717259Y-35781721D01*
X121585987Y-35941679D01*
X121488439Y-36124175D01*
X121428369Y-36322199D01*
X121408087Y-36528132D01*
X76700500Y-36528132D01*
X76700500Y-36111886D01*
X76720185Y-36044847D01*
X76736819Y-36024205D01*
X77110577Y-35650447D01*
X77498930Y-35262093D01*
X77560251Y-35228610D01*
X77597413Y-35226248D01*
X77704851Y-35235647D01*
X77723999Y-35237323D01*
X77724000Y-35237323D01*
X77724002Y-35237323D01*
X77779017Y-35232509D01*
X77944068Y-35218070D01*
X78157450Y-35160894D01*
X78357662Y-35067534D01*
X78538620Y-34940826D01*
X78694826Y-34784620D01*
X78821534Y-34603662D01*
X78914894Y-34403450D01*
X78972070Y-34190068D01*
X78991323Y-33970000D01*
X78985986Y-33909002D01*
X78973298Y-33763968D01*
X78972070Y-33749932D01*
X78914894Y-33536550D01*
X78821534Y-33336339D01*
X78708463Y-33174856D01*
X78694827Y-33155381D01*
X78633823Y-33094377D01*
X78538620Y-32999174D01*
X78538616Y-32999171D01*
X78538615Y-32999170D01*
X78357666Y-32872468D01*
X78357658Y-32872464D01*
X78228811Y-32812382D01*
X78176371Y-32766210D01*
X78157219Y-32699017D01*
X78177435Y-32632135D01*
X78228811Y-32587618D01*
X78234802Y-32584824D01*
X78357662Y-32527534D01*
X78538620Y-32400826D01*
X78694826Y-32244620D01*
X78821534Y-32063662D01*
X78914894Y-31863450D01*
X78972070Y-31650068D01*
X78991323Y-31430000D01*
X78987398Y-31385141D01*
X78985986Y-31368997D01*
X87251677Y-31368997D01*
X87251677Y-31369002D01*
X87270929Y-31589062D01*
X87270930Y-31589070D01*
X87328104Y-31802445D01*
X87328105Y-31802447D01*
X87328106Y-31802450D01*
X87421466Y-32002662D01*
X87421468Y-32002666D01*
X87548170Y-32183615D01*
X87548175Y-32183621D01*
X87704378Y-32339824D01*
X87704384Y-32339829D01*
X87885333Y-32466531D01*
X87885335Y-32466532D01*
X87885338Y-32466534D01*
X88004748Y-32522215D01*
X88014189Y-32526618D01*
X88066628Y-32572790D01*
X88085780Y-32639984D01*
X88065564Y-32706865D01*
X88014189Y-32751382D01*
X87885340Y-32811465D01*
X87885338Y-32811466D01*
X87704377Y-32938175D01*
X87548175Y-33094377D01*
X87421466Y-33275338D01*
X87421465Y-33275340D01*
X87328107Y-33475548D01*
X87328104Y-33475554D01*
X87270930Y-33688929D01*
X87270929Y-33688937D01*
X87251677Y-33908997D01*
X87251677Y-33909002D01*
X87270929Y-34129062D01*
X87270930Y-34129070D01*
X87328104Y-34342445D01*
X87328105Y-34342447D01*
X87328106Y-34342450D01*
X87356940Y-34404284D01*
X87421466Y-34542662D01*
X87421468Y-34542666D01*
X87548170Y-34723615D01*
X87548175Y-34723621D01*
X87704378Y-34879824D01*
X87704384Y-34879829D01*
X87885333Y-35006531D01*
X87885335Y-35006532D01*
X87885338Y-35006534D01*
X88085550Y-35099894D01*
X88298932Y-35157070D01*
X88456123Y-35170822D01*
X88518998Y-35176323D01*
X88519000Y-35176323D01*
X88519002Y-35176323D01*
X88574017Y-35171509D01*
X88739068Y-35157070D01*
X88952450Y-35099894D01*
X89152662Y-35006534D01*
X89333620Y-34879826D01*
X89489826Y-34723620D01*
X89583824Y-34589377D01*
X89638401Y-34545752D01*
X89685399Y-34536500D01*
X104013309Y-34536500D01*
X104080348Y-34556185D01*
X104126103Y-34608989D01*
X104136629Y-34673458D01*
X104123540Y-34798000D01*
X104143326Y-34986256D01*
X104143327Y-34986259D01*
X104201818Y-35166277D01*
X104201821Y-35166284D01*
X104296467Y-35330216D01*
X104408109Y-35454207D01*
X104423129Y-35470888D01*
X104576265Y-35582148D01*
X104576270Y-35582151D01*
X104749192Y-35659142D01*
X104749197Y-35659144D01*
X104934354Y-35698500D01*
X104934355Y-35698500D01*
X105123644Y-35698500D01*
X105123646Y-35698500D01*
X105308803Y-35659144D01*
X105481730Y-35582151D01*
X105634871Y-35470888D01*
X105655618Y-35447845D01*
X105715105Y-35411197D01*
X105747768Y-35406818D01*
X113751569Y-35406818D01*
X113818608Y-35426503D01*
X113843717Y-35447844D01*
X113849443Y-35454203D01*
X113849447Y-35454207D01*
X114002582Y-35565466D01*
X114002587Y-35565469D01*
X114175509Y-35642460D01*
X114175514Y-35642462D01*
X114360671Y-35681818D01*
X114360672Y-35681818D01*
X114549961Y-35681818D01*
X114549963Y-35681818D01*
X114735120Y-35642462D01*
X114908047Y-35565469D01*
X115061188Y-35454206D01*
X115187850Y-35313534D01*
X115282496Y-35149602D01*
X115340991Y-34969574D01*
X115340991Y-34969570D01*
X115341154Y-34969070D01*
X115380591Y-34911395D01*
X115408649Y-34894109D01*
X115481895Y-34861497D01*
X141226677Y-34861497D01*
X141226677Y-34861502D01*
X141245929Y-35081562D01*
X141245930Y-35081570D01*
X141303104Y-35294945D01*
X141303105Y-35294947D01*
X141303106Y-35294950D01*
X141385147Y-35470888D01*
X141396466Y-35495162D01*
X141396468Y-35495166D01*
X141523170Y-35676115D01*
X141523175Y-35676121D01*
X141679378Y-35832324D01*
X141679384Y-35832329D01*
X141860333Y-35959031D01*
X141860335Y-35959032D01*
X141860338Y-35959034D01*
X141979748Y-36014715D01*
X141989189Y-36019118D01*
X142041628Y-36065290D01*
X142060780Y-36132484D01*
X142040564Y-36199365D01*
X141989189Y-36243882D01*
X141860340Y-36303965D01*
X141860338Y-36303966D01*
X141679377Y-36430675D01*
X141523175Y-36586877D01*
X141396466Y-36767838D01*
X141396465Y-36767840D01*
X141303107Y-36968048D01*
X141303104Y-36968054D01*
X141245930Y-37181429D01*
X141245929Y-37181437D01*
X141226677Y-37401497D01*
X141226677Y-37401502D01*
X141245929Y-37621562D01*
X141245930Y-37621570D01*
X141303104Y-37834945D01*
X141303105Y-37834947D01*
X141303106Y-37834950D01*
X141385921Y-38012549D01*
X141396466Y-38035162D01*
X141396468Y-38035166D01*
X141523170Y-38216115D01*
X141523175Y-38216121D01*
X141679378Y-38372324D01*
X141679384Y-38372329D01*
X141860333Y-38499031D01*
X141860335Y-38499032D01*
X141860338Y-38499034D01*
X142060550Y-38592394D01*
X142273932Y-38649570D01*
X142431123Y-38663322D01*
X142493998Y-38668823D01*
X142494000Y-38668823D01*
X142494002Y-38668823D01*
X142549017Y-38664009D01*
X142714068Y-38649570D01*
X142927450Y-38592394D01*
X143127662Y-38499034D01*
X143308620Y-38372326D01*
X143464826Y-38216120D01*
X143591534Y-38035162D01*
X143684894Y-37834950D01*
X143742070Y-37621568D01*
X143761323Y-37401500D01*
X143742070Y-37181432D01*
X143684894Y-36968050D01*
X143591534Y-36767839D01*
X143464826Y-36586880D01*
X143308620Y-36430674D01*
X143308616Y-36430671D01*
X143308615Y-36430670D01*
X143127666Y-36303968D01*
X143127658Y-36303964D01*
X142998811Y-36243882D01*
X142946371Y-36197710D01*
X142927219Y-36130517D01*
X142947435Y-36063635D01*
X142998811Y-36019118D01*
X143004802Y-36016324D01*
X143127662Y-35959034D01*
X143308620Y-35832326D01*
X143464826Y-35676120D01*
X143591534Y-35495162D01*
X143684894Y-35294950D01*
X143742070Y-35081568D01*
X143758470Y-34894109D01*
X143761323Y-34861502D01*
X143761323Y-34861497D01*
X143742070Y-34641437D01*
X143742070Y-34641432D01*
X143684894Y-34428050D01*
X143591534Y-34227839D01*
X143464826Y-34046880D01*
X143308620Y-33890674D01*
X143308616Y-33890671D01*
X143308615Y-33890670D01*
X143127666Y-33763968D01*
X143127662Y-33763966D01*
X143127660Y-33763965D01*
X142927450Y-33670606D01*
X142927447Y-33670605D01*
X142927445Y-33670604D01*
X142714070Y-33613430D01*
X142714062Y-33613429D01*
X142494002Y-33594177D01*
X142493998Y-33594177D01*
X142273937Y-33613429D01*
X142273929Y-33613430D01*
X142060554Y-33670604D01*
X142060548Y-33670607D01*
X141860340Y-33763965D01*
X141860338Y-33763966D01*
X141679377Y-33890675D01*
X141523175Y-34046877D01*
X141396466Y-34227838D01*
X141396465Y-34227840D01*
X141303107Y-34428048D01*
X141303104Y-34428054D01*
X141245930Y-34641429D01*
X141245929Y-34641437D01*
X141226677Y-34861497D01*
X115481895Y-34861497D01*
X115574759Y-34820151D01*
X115727900Y-34708888D01*
X115854562Y-34568216D01*
X115949208Y-34404284D01*
X116007703Y-34224256D01*
X116027489Y-34036000D01*
X116007703Y-33847744D01*
X115949208Y-33667716D01*
X115854562Y-33503784D01*
X115727900Y-33363112D01*
X115727899Y-33363111D01*
X115574763Y-33251851D01*
X115574758Y-33251848D01*
X115401836Y-33174857D01*
X115401831Y-33174855D01*
X115256030Y-33143865D01*
X115216675Y-33135500D01*
X115027383Y-33135500D01*
X114994926Y-33142398D01*
X114842226Y-33174855D01*
X114842221Y-33174857D01*
X114669299Y-33251848D01*
X114669298Y-33251849D01*
X114661085Y-33257817D01*
X114595279Y-33281298D01*
X114588198Y-33281500D01*
X89685399Y-33281500D01*
X89618360Y-33261815D01*
X89583824Y-33228623D01*
X89489827Y-33094381D01*
X89489823Y-33094377D01*
X89333620Y-32938174D01*
X89333616Y-32938171D01*
X89333615Y-32938170D01*
X89152666Y-32811468D01*
X89152658Y-32811464D01*
X89023811Y-32751382D01*
X88971371Y-32705210D01*
X88952219Y-32638017D01*
X88972435Y-32571135D01*
X89023811Y-32526618D01*
X89029802Y-32523824D01*
X89152662Y-32466534D01*
X89333620Y-32339826D01*
X89489826Y-32183620D01*
X89616534Y-32002662D01*
X89709894Y-31802450D01*
X89767070Y-31589068D01*
X89784911Y-31385139D01*
X89786323Y-31369002D01*
X89786323Y-31368997D01*
X89772407Y-31209937D01*
X89767070Y-31148932D01*
X89709894Y-30935550D01*
X89616534Y-30735339D01*
X89489826Y-30554380D01*
X89333620Y-30398174D01*
X89333616Y-30398171D01*
X89333615Y-30398170D01*
X89152666Y-30271468D01*
X89152662Y-30271466D01*
X89152660Y-30271465D01*
X88952493Y-30178126D01*
X117418226Y-30178126D01*
X117418226Y-30178137D01*
X117437980Y-30492136D01*
X117437981Y-30492143D01*
X117449854Y-30554381D01*
X117496009Y-30796338D01*
X117496940Y-30801215D01*
X117594167Y-31100448D01*
X117594169Y-31100453D01*
X117728131Y-31385135D01*
X117728134Y-31385141D01*
X117896721Y-31650793D01*
X117896724Y-31650797D01*
X118097276Y-31893222D01*
X118097278Y-31893224D01*
X118097280Y-31893226D01*
X118278776Y-32063662D01*
X118326638Y-32108608D01*
X118326648Y-32108616D01*
X118581174Y-32293540D01*
X118581179Y-32293542D01*
X118581186Y-32293548D01*
X118856904Y-32445126D01*
X118856909Y-32445128D01*
X118856911Y-32445129D01*
X118856912Y-32445130D01*
X119149441Y-32560950D01*
X119149444Y-32560951D01*
X119449597Y-32638017D01*
X119454197Y-32639198D01*
X119519680Y-32647470D01*
X119766340Y-32678631D01*
X119766349Y-32678631D01*
X119766352Y-32678632D01*
X119766354Y-32678632D01*
X120080986Y-32678632D01*
X120080988Y-32678632D01*
X120080991Y-32678631D01*
X120080999Y-32678631D01*
X120267263Y-32655100D01*
X120393143Y-32639198D01*
X120697895Y-32560951D01*
X120700565Y-32559894D01*
X120990427Y-32445130D01*
X120990428Y-32445129D01*
X120990426Y-32445129D01*
X120990436Y-32445126D01*
X121266154Y-32293548D01*
X121520700Y-32108610D01*
X121750060Y-31893226D01*
X121950617Y-31650795D01*
X122119207Y-31385139D01*
X122253173Y-31100447D01*
X122350401Y-30801211D01*
X122409358Y-30492147D01*
X122409359Y-30492136D01*
X122429114Y-30178137D01*
X122429114Y-30178126D01*
X122409359Y-29864127D01*
X122409358Y-29864120D01*
X122409358Y-29864117D01*
X122350401Y-29555053D01*
X122253173Y-29255817D01*
X122119207Y-28971125D01*
X121950617Y-28705469D01*
X121950615Y-28705466D01*
X121750063Y-28463041D01*
X121750061Y-28463039D01*
X121520701Y-28247655D01*
X121520691Y-28247647D01*
X121266165Y-28062723D01*
X121266158Y-28062718D01*
X121266154Y-28062716D01*
X120990436Y-27911138D01*
X120990433Y-27911136D01*
X120990428Y-27911134D01*
X120990427Y-27911133D01*
X120697898Y-27795314D01*
X120697896Y-27795313D01*
X120697895Y-27795313D01*
X120609938Y-27772729D01*
X120404989Y-27720107D01*
X120344951Y-27684369D01*
X120313766Y-27621845D01*
X120321334Y-27552387D01*
X120336879Y-27525269D01*
X120338728Y-27522821D01*
X120437899Y-27323660D01*
X120498785Y-27109668D01*
X120519313Y-26888132D01*
X120519313Y-26888131D01*
X128218027Y-26888131D01*
X128218027Y-26888132D01*
X128238554Y-27109667D01*
X128238555Y-27109669D01*
X128299439Y-27323655D01*
X128299445Y-27323670D01*
X128398608Y-27522815D01*
X128398613Y-27522823D01*
X128532690Y-27700370D01*
X128697107Y-27850255D01*
X128697109Y-27850257D01*
X128886265Y-27967377D01*
X128886266Y-27967377D01*
X128886269Y-27967379D01*
X129093730Y-28047750D01*
X129312427Y-28088632D01*
X129312429Y-28088632D01*
X129534912Y-28088632D01*
X129534913Y-28088632D01*
X129606508Y-28075248D01*
X129676021Y-28082278D01*
X129730701Y-28125774D01*
X129753184Y-28191928D01*
X129736332Y-28259735D01*
X129714177Y-28287528D01*
X129527278Y-28463039D01*
X129527276Y-28463041D01*
X129326724Y-28705466D01*
X129326721Y-28705470D01*
X129158134Y-28971122D01*
X129158131Y-28971128D01*
X129024169Y-29255810D01*
X129024167Y-29255815D01*
X128926940Y-29555048D01*
X128867981Y-29864120D01*
X128867980Y-29864127D01*
X128848226Y-30178126D01*
X128848226Y-30178137D01*
X128867980Y-30492136D01*
X128867981Y-30492143D01*
X128879854Y-30554381D01*
X128926009Y-30796338D01*
X128926940Y-30801215D01*
X129024167Y-31100448D01*
X129024169Y-31100453D01*
X129158131Y-31385135D01*
X129158134Y-31385141D01*
X129326721Y-31650793D01*
X129326724Y-31650797D01*
X129527276Y-31893222D01*
X129527278Y-31893224D01*
X129527280Y-31893226D01*
X129708776Y-32063662D01*
X129756638Y-32108608D01*
X129756648Y-32108616D01*
X130011174Y-32293540D01*
X130011179Y-32293542D01*
X130011186Y-32293548D01*
X130286904Y-32445126D01*
X130286909Y-32445128D01*
X130286911Y-32445129D01*
X130286912Y-32445130D01*
X130579441Y-32560950D01*
X130579444Y-32560951D01*
X130879597Y-32638017D01*
X130884197Y-32639198D01*
X130949680Y-32647470D01*
X131196340Y-32678631D01*
X131196349Y-32678631D01*
X131196352Y-32678632D01*
X131196354Y-32678632D01*
X131510986Y-32678632D01*
X131510988Y-32678632D01*
X131510991Y-32678631D01*
X131510999Y-32678631D01*
X131697263Y-32655100D01*
X131823143Y-32639198D01*
X132127895Y-32560951D01*
X132130565Y-32559894D01*
X132420427Y-32445130D01*
X132420428Y-32445129D01*
X132420426Y-32445129D01*
X132420436Y-32445126D01*
X132696154Y-32293548D01*
X132950700Y-32108610D01*
X133180060Y-31893226D01*
X133380617Y-31650795D01*
X133549207Y-31385139D01*
X133683173Y-31100447D01*
X133780401Y-30801211D01*
X133839358Y-30492147D01*
X133839359Y-30492136D01*
X133859114Y-30178137D01*
X133859114Y-30178126D01*
X133839359Y-29864127D01*
X133839358Y-29864120D01*
X133839358Y-29864117D01*
X133780401Y-29555053D01*
X133683173Y-29255817D01*
X133549207Y-28971125D01*
X133380617Y-28705469D01*
X133380615Y-28705466D01*
X133180063Y-28463041D01*
X133180061Y-28463039D01*
X132950701Y-28247655D01*
X132950691Y-28247647D01*
X132696165Y-28062723D01*
X132696158Y-28062718D01*
X132696154Y-28062716D01*
X132420436Y-27911138D01*
X132420433Y-27911136D01*
X132420428Y-27911134D01*
X132420427Y-27911133D01*
X132127898Y-27795313D01*
X132127895Y-27795312D01*
X131823146Y-27717066D01*
X131823133Y-27717064D01*
X131510999Y-27677632D01*
X131510988Y-27677632D01*
X131196352Y-27677632D01*
X131196340Y-27677632D01*
X130884206Y-27717064D01*
X130884193Y-27717066D01*
X130579449Y-27795311D01*
X130510407Y-27822647D01*
X130440829Y-27829023D01*
X130378849Y-27796770D01*
X130344145Y-27736128D01*
X130347735Y-27666351D01*
X130365804Y-27632629D01*
X130448728Y-27522821D01*
X130547899Y-27323660D01*
X130608785Y-27109668D01*
X130629313Y-26888132D01*
X130608785Y-26666596D01*
X130547899Y-26452604D01*
X130547894Y-26452593D01*
X130448731Y-26253448D01*
X130448726Y-26253440D01*
X130314649Y-26075893D01*
X130150232Y-25926008D01*
X130150230Y-25926006D01*
X129961074Y-25808886D01*
X129961068Y-25808884D01*
X129753610Y-25728514D01*
X129534913Y-25687632D01*
X129312427Y-25687632D01*
X129093730Y-25728514D01*
X128962534Y-25779339D01*
X128886271Y-25808884D01*
X128886265Y-25808886D01*
X128697109Y-25926006D01*
X128697107Y-25926008D01*
X128532690Y-26075893D01*
X128398613Y-26253440D01*
X128398608Y-26253448D01*
X128299445Y-26452593D01*
X128299439Y-26452608D01*
X128238555Y-26666594D01*
X128238554Y-26666596D01*
X128218027Y-26888131D01*
X120519313Y-26888131D01*
X120498785Y-26666596D01*
X120437899Y-26452604D01*
X120437894Y-26452593D01*
X120338731Y-26253448D01*
X120338726Y-26253440D01*
X120204649Y-26075893D01*
X120040232Y-25926008D01*
X120040230Y-25926006D01*
X119851074Y-25808886D01*
X119851068Y-25808884D01*
X119643610Y-25728514D01*
X119424913Y-25687632D01*
X119202427Y-25687632D01*
X118983730Y-25728514D01*
X118852534Y-25779339D01*
X118776271Y-25808884D01*
X118776265Y-25808886D01*
X118587109Y-25926006D01*
X118587107Y-25926008D01*
X118422690Y-26075893D01*
X118288613Y-26253440D01*
X118288608Y-26253448D01*
X118189445Y-26452593D01*
X118189439Y-26452608D01*
X118128555Y-26666594D01*
X118128554Y-26666596D01*
X118108027Y-26888131D01*
X118108027Y-26888132D01*
X118128554Y-27109667D01*
X118128555Y-27109669D01*
X118189439Y-27323655D01*
X118189445Y-27323670D01*
X118288608Y-27522815D01*
X118288613Y-27522823D01*
X118422690Y-27700370D01*
X118587103Y-27850252D01*
X118591680Y-27853708D01*
X118590683Y-27855027D01*
X118632167Y-27901302D01*
X118643275Y-27970283D01*
X118615326Y-28034319D01*
X118584079Y-28060023D01*
X118584309Y-28060385D01*
X118584338Y-28060425D01*
X118584335Y-28060426D01*
X118584467Y-28060634D01*
X118581178Y-28062720D01*
X118326648Y-28247647D01*
X118326638Y-28247655D01*
X118097278Y-28463039D01*
X118097276Y-28463041D01*
X117896724Y-28705466D01*
X117896721Y-28705470D01*
X117728134Y-28971122D01*
X117728131Y-28971128D01*
X117594169Y-29255810D01*
X117594167Y-29255815D01*
X117496940Y-29555048D01*
X117437981Y-29864120D01*
X117437980Y-29864127D01*
X117418226Y-30178126D01*
X88952493Y-30178126D01*
X88952450Y-30178106D01*
X88952447Y-30178105D01*
X88952445Y-30178104D01*
X88739070Y-30120930D01*
X88739062Y-30120929D01*
X88519002Y-30101677D01*
X88518998Y-30101677D01*
X88298937Y-30120929D01*
X88298929Y-30120930D01*
X88085554Y-30178104D01*
X88085550Y-30178106D01*
X88063103Y-30188572D01*
X87885340Y-30271465D01*
X87885338Y-30271466D01*
X87704377Y-30398175D01*
X87548175Y-30554377D01*
X87421466Y-30735338D01*
X87421465Y-30735340D01*
X87328107Y-30935548D01*
X87328104Y-30935554D01*
X87270930Y-31148929D01*
X87270929Y-31148937D01*
X87251677Y-31368997D01*
X78985986Y-31368997D01*
X78972070Y-31209937D01*
X78972070Y-31209932D01*
X78914894Y-30996550D01*
X78821534Y-30796339D01*
X78694826Y-30615380D01*
X78538620Y-30459174D01*
X78538616Y-30459171D01*
X78538615Y-30459170D01*
X78357666Y-30332468D01*
X78357662Y-30332466D01*
X78357660Y-30332465D01*
X78157450Y-30239106D01*
X78157447Y-30239105D01*
X78157445Y-30239104D01*
X77944070Y-30181930D01*
X77944062Y-30181929D01*
X77724002Y-30162677D01*
X77723998Y-30162677D01*
X77503937Y-30181929D01*
X77503929Y-30181930D01*
X77290554Y-30239104D01*
X77290548Y-30239107D01*
X77090340Y-30332465D01*
X77090338Y-30332466D01*
X76909377Y-30459175D01*
X76753175Y-30615377D01*
X76626466Y-30796338D01*
X76626465Y-30796340D01*
X76533107Y-30996548D01*
X76533104Y-30996554D01*
X76475930Y-31209929D01*
X76475929Y-31209937D01*
X76456677Y-31429997D01*
X76456677Y-31430002D01*
X76475929Y-31650062D01*
X76475930Y-31650070D01*
X76533104Y-31863445D01*
X76533105Y-31863447D01*
X76533106Y-31863450D01*
X76598023Y-32002666D01*
X76626466Y-32063662D01*
X76626468Y-32063666D01*
X76753170Y-32244615D01*
X76753175Y-32244621D01*
X76909378Y-32400824D01*
X76909384Y-32400829D01*
X77090333Y-32527531D01*
X77090335Y-32527532D01*
X77090338Y-32527534D01*
X77183841Y-32571135D01*
X77219189Y-32587618D01*
X77271628Y-32633790D01*
X77290780Y-32700984D01*
X77270564Y-32767865D01*
X77219189Y-32812382D01*
X77090340Y-32872465D01*
X77090338Y-32872466D01*
X76909377Y-32999175D01*
X76753175Y-33155377D01*
X76626466Y-33336338D01*
X76626465Y-33336340D01*
X76533107Y-33536548D01*
X76533104Y-33536554D01*
X76475930Y-33749929D01*
X76475929Y-33749937D01*
X76456677Y-33969997D01*
X76456677Y-33970003D01*
X76467750Y-34096583D01*
X76453983Y-34165083D01*
X76431903Y-34195070D01*
X75395681Y-35231293D01*
X75334358Y-35264778D01*
X75264666Y-35259794D01*
X75208733Y-35217922D01*
X75184316Y-35152458D01*
X75184000Y-35143612D01*
X75184000Y-24241703D01*
X75203685Y-24174664D01*
X75256489Y-24128909D01*
X75325647Y-24118965D01*
X75389203Y-24147990D01*
X75426659Y-24205705D01*
X75450984Y-24285893D01*
X75502075Y-24454319D01*
X75651487Y-24815027D01*
X75651489Y-24815032D01*
X75835527Y-25159342D01*
X75835538Y-25159360D01*
X76052439Y-25483976D01*
X76052449Y-25483990D01*
X76300136Y-25785797D01*
X76576202Y-26061863D01*
X76576207Y-26061867D01*
X76576208Y-26061868D01*
X76878015Y-26309555D01*
X77202646Y-26526466D01*
X77202655Y-26526471D01*
X77202657Y-26526472D01*
X77546967Y-26710510D01*
X77546969Y-26710510D01*
X77546975Y-26710514D01*
X77766812Y-26801574D01*
X77907680Y-26859924D01*
X77907684Y-26859925D01*
X77907686Y-26859926D01*
X78281305Y-26973262D01*
X78281311Y-26973263D01*
X78281314Y-26973264D01*
X78281325Y-26973267D01*
X78664234Y-27049431D01*
X79052785Y-27087700D01*
X79052788Y-27087700D01*
X79443212Y-27087700D01*
X79443215Y-27087700D01*
X79831766Y-27049431D01*
X79906307Y-27034603D01*
X80214674Y-26973267D01*
X80214685Y-26973264D01*
X80214685Y-26973263D01*
X80214695Y-26973262D01*
X80588314Y-26859926D01*
X80949025Y-26710514D01*
X81293354Y-26526466D01*
X81617985Y-26309555D01*
X81919792Y-26061868D01*
X82195868Y-25785792D01*
X82443555Y-25483985D01*
X82660466Y-25159354D01*
X82693190Y-25098131D01*
X120648027Y-25098131D01*
X120648027Y-25098132D01*
X120668554Y-25319667D01*
X120668555Y-25319669D01*
X120729439Y-25533655D01*
X120729445Y-25533670D01*
X120828608Y-25732815D01*
X120828613Y-25732823D01*
X120962690Y-25910370D01*
X121127107Y-26060255D01*
X121127109Y-26060257D01*
X121316265Y-26177377D01*
X121316266Y-26177377D01*
X121316269Y-26177379D01*
X121523730Y-26257750D01*
X121742427Y-26298632D01*
X121742429Y-26298632D01*
X121964911Y-26298632D01*
X121964913Y-26298632D01*
X122183610Y-26257750D01*
X122391071Y-26177379D01*
X122580232Y-26060256D01*
X122744651Y-25910368D01*
X122878728Y-25732821D01*
X122977899Y-25533660D01*
X123038785Y-25319668D01*
X123059313Y-25098132D01*
X123038785Y-24876596D01*
X122977899Y-24662604D01*
X122977894Y-24662593D01*
X122878731Y-24463448D01*
X122878726Y-24463440D01*
X122744649Y-24285893D01*
X122580232Y-24136008D01*
X122580230Y-24136006D01*
X122391074Y-24018886D01*
X122391068Y-24018884D01*
X122183610Y-23938514D01*
X121964913Y-23897632D01*
X121742427Y-23897632D01*
X121523730Y-23938514D01*
X121392534Y-23989339D01*
X121316271Y-24018884D01*
X121316265Y-24018886D01*
X121127109Y-24136006D01*
X121127107Y-24136008D01*
X120962690Y-24285893D01*
X120828613Y-24463440D01*
X120828608Y-24463448D01*
X120729445Y-24662593D01*
X120729439Y-24662608D01*
X120668555Y-24876594D01*
X120668554Y-24876596D01*
X120648027Y-25098131D01*
X82693190Y-25098131D01*
X82844514Y-24815025D01*
X82993926Y-24454314D01*
X83107262Y-24080695D01*
X83107264Y-24080685D01*
X83107267Y-24080674D01*
X83183431Y-23697765D01*
X83221700Y-23309211D01*
X83221700Y-22918788D01*
X83183431Y-22530234D01*
X83107267Y-22147325D01*
X83107264Y-22147314D01*
X83107263Y-22147311D01*
X83107262Y-22147305D01*
X82993926Y-21773686D01*
X82844514Y-21412975D01*
X82660466Y-21068646D01*
X82443555Y-20744015D01*
X82195868Y-20442208D01*
X82195867Y-20442207D01*
X82195863Y-20442202D01*
X81919797Y-20166136D01*
X81617990Y-19918449D01*
X81617989Y-19918448D01*
X81617985Y-19918445D01*
X81293354Y-19701534D01*
X81293349Y-19701531D01*
X81293342Y-19701527D01*
X80949032Y-19517489D01*
X80949027Y-19517487D01*
X80588319Y-19368075D01*
X80454880Y-19327597D01*
X80339707Y-19292660D01*
X80281270Y-19254363D01*
X80252814Y-19190551D01*
X80263374Y-19121484D01*
X80309598Y-19069090D01*
X80375704Y-19050000D01*
X141620296Y-19050000D01*
X141687335Y-19069685D01*
G37*
%TD.AperFunction*%
%TA.AperFunction,Conductor*%
G36*
X123521809Y-92085185D02*
G01*
X123567564Y-92137989D01*
X123577508Y-92207147D01*
X123565770Y-92244772D01*
X123525673Y-92325295D01*
X123525672Y-92325299D01*
X123488485Y-92456000D01*
X123469654Y-92522183D01*
X123450768Y-92725999D01*
X123450768Y-92726000D01*
X123469654Y-92929816D01*
X123469654Y-92929818D01*
X123469655Y-92929821D01*
X123515134Y-93089662D01*
X123525673Y-93126704D01*
X123616912Y-93309935D01*
X123740269Y-93473287D01*
X123828298Y-93553535D01*
X123890785Y-93610500D01*
X123891537Y-93611185D01*
X123891538Y-93611186D01*
X123906699Y-93620574D01*
X123953334Y-93672603D01*
X123964437Y-93741585D01*
X123936483Y-93805619D01*
X123906699Y-93831426D01*
X123891538Y-93840813D01*
X123891537Y-93840814D01*
X123740269Y-93978712D01*
X123658954Y-94086392D01*
X123602845Y-94128028D01*
X123533133Y-94132719D01*
X123471951Y-94098977D01*
X123461046Y-94086392D01*
X123379730Y-93978712D01*
X123228462Y-93840814D01*
X123228460Y-93840812D01*
X123054430Y-93733057D01*
X123054424Y-93733054D01*
X122865306Y-93659790D01*
X122863556Y-93659112D01*
X122662347Y-93621500D01*
X122457653Y-93621500D01*
X122256444Y-93659112D01*
X122256441Y-93659112D01*
X122256441Y-93659113D01*
X122065575Y-93733054D01*
X122065569Y-93733057D01*
X121891539Y-93840812D01*
X121891537Y-93840814D01*
X121740269Y-93978712D01*
X121658954Y-94086392D01*
X121602845Y-94128028D01*
X121533133Y-94132719D01*
X121471951Y-94098977D01*
X121461046Y-94086392D01*
X121379730Y-93978712D01*
X121228462Y-93840814D01*
X121228460Y-93840812D01*
X121213302Y-93831427D01*
X121166666Y-93779400D01*
X121155562Y-93710418D01*
X121183515Y-93646384D01*
X121213302Y-93620573D01*
X121228460Y-93611187D01*
X121228459Y-93611187D01*
X121228462Y-93611186D01*
X121379732Y-93473285D01*
X121503088Y-93309935D01*
X121594328Y-93126701D01*
X121650345Y-92929821D01*
X121669232Y-92726000D01*
X121650345Y-92522179D01*
X121594328Y-92325299D01*
X121554229Y-92244771D01*
X121541968Y-92175987D01*
X121568841Y-92111492D01*
X121626317Y-92071764D01*
X121665230Y-92065500D01*
X123454770Y-92065500D01*
X123521809Y-92085185D01*
G37*
%TD.AperFunction*%
%TA.AperFunction,Conductor*%
G36*
X132246990Y-76593185D02*
G01*
X132292745Y-76645989D01*
X132302689Y-76715147D01*
X132290951Y-76752772D01*
X132268849Y-76797158D01*
X132268846Y-76797164D01*
X132210296Y-77002949D01*
X132210295Y-77002952D01*
X132190554Y-77215999D01*
X132190554Y-77216000D01*
X132210295Y-77429047D01*
X132210296Y-77429050D01*
X132268846Y-77634835D01*
X132268849Y-77634841D01*
X132272646Y-77642466D01*
X132364219Y-77826370D01*
X132493159Y-77997114D01*
X132651278Y-78141258D01*
X132651283Y-78141261D01*
X132651286Y-78141263D01*
X132833186Y-78253891D01*
X132833187Y-78253891D01*
X132833190Y-78253893D01*
X133032703Y-78331185D01*
X133208845Y-78364111D01*
X133271125Y-78395779D01*
X133306398Y-78456092D01*
X133303464Y-78525900D01*
X133263255Y-78583040D01*
X133208845Y-78607888D01*
X133032703Y-78640815D01*
X132906533Y-78689693D01*
X132833192Y-78718106D01*
X132833186Y-78718108D01*
X132651286Y-78830736D01*
X132651283Y-78830738D01*
X132651279Y-78830740D01*
X132651278Y-78830742D01*
X132493159Y-78974886D01*
X132493158Y-78974887D01*
X132364219Y-79145629D01*
X132268849Y-79337158D01*
X132268846Y-79337164D01*
X132210296Y-79542949D01*
X132210295Y-79542952D01*
X132190554Y-79755999D01*
X132190554Y-79756000D01*
X132210295Y-79969047D01*
X132210296Y-79969050D01*
X132268846Y-80174835D01*
X132268849Y-80174841D01*
X132364219Y-80366370D01*
X132493159Y-80537114D01*
X132651278Y-80681258D01*
X132651283Y-80681261D01*
X132651286Y-80681263D01*
X132833186Y-80793891D01*
X132833187Y-80793891D01*
X132833190Y-80793893D01*
X133032703Y-80871185D01*
X133208845Y-80904111D01*
X133271125Y-80935779D01*
X133306398Y-80996092D01*
X133303464Y-81065900D01*
X133263255Y-81123040D01*
X133208845Y-81147888D01*
X133032703Y-81180815D01*
X132906533Y-81229693D01*
X132833192Y-81258106D01*
X132833186Y-81258108D01*
X132651286Y-81370736D01*
X132651283Y-81370738D01*
X132651279Y-81370740D01*
X132651278Y-81370742D01*
X132552222Y-81461043D01*
X132493158Y-81514887D01*
X132364219Y-81685629D01*
X132268849Y-81877158D01*
X132268846Y-81877164D01*
X132210296Y-82082949D01*
X132210295Y-82082952D01*
X132190554Y-82295999D01*
X132190554Y-82296000D01*
X132208492Y-82489583D01*
X132195077Y-82558152D01*
X132172702Y-82588705D01*
X131684297Y-83077112D01*
X131554269Y-83207140D01*
X131554267Y-83207142D01*
X131510704Y-83250704D01*
X131467142Y-83294266D01*
X131440666Y-83333891D01*
X131440665Y-83333893D01*
X131398688Y-83396714D01*
X131376410Y-83450500D01*
X131351538Y-83510545D01*
X131351535Y-83510555D01*
X131327500Y-83631389D01*
X131327500Y-89605547D01*
X131307815Y-89672586D01*
X131291181Y-89693228D01*
X130656229Y-90328181D01*
X130594906Y-90361666D01*
X130568548Y-90364500D01*
X119346914Y-90364500D01*
X119279875Y-90344815D01*
X119234120Y-90292011D01*
X119224176Y-90222853D01*
X119227648Y-90206565D01*
X119247706Y-90136070D01*
X119249704Y-90129048D01*
X119269446Y-89916000D01*
X119249704Y-89702952D01*
X119238332Y-89662984D01*
X119191153Y-89497164D01*
X119191150Y-89497158D01*
X119183875Y-89482548D01*
X119095781Y-89305630D01*
X118966841Y-89134886D01*
X118808722Y-88990742D01*
X118808716Y-88990738D01*
X118808713Y-88990736D01*
X118626813Y-88878108D01*
X118626807Y-88878106D01*
X118427297Y-88800815D01*
X118251153Y-88767888D01*
X118188874Y-88736221D01*
X118153601Y-88675908D01*
X118156535Y-88606100D01*
X118196744Y-88548960D01*
X118251152Y-88524112D01*
X118427297Y-88491185D01*
X118626810Y-88413893D01*
X118808722Y-88301258D01*
X118966841Y-88157114D01*
X119095781Y-87986370D01*
X119191151Y-87794840D01*
X119191151Y-87794837D01*
X119191153Y-87794835D01*
X119247706Y-87596070D01*
X119249704Y-87589048D01*
X119269446Y-87376000D01*
X119249704Y-87162952D01*
X119237772Y-87121017D01*
X119191153Y-86957164D01*
X119191150Y-86957158D01*
X119155584Y-86885732D01*
X119095781Y-86765630D01*
X118966841Y-86594886D01*
X118808722Y-86450742D01*
X118808716Y-86450738D01*
X118808713Y-86450736D01*
X118626813Y-86338108D01*
X118626807Y-86338106D01*
X118427297Y-86260815D01*
X118251153Y-86227888D01*
X118188874Y-86196221D01*
X118153601Y-86135908D01*
X118156535Y-86066100D01*
X118196744Y-86008960D01*
X118251152Y-85984112D01*
X118427297Y-85951185D01*
X118626810Y-85873893D01*
X118808722Y-85761258D01*
X118966841Y-85617114D01*
X119095781Y-85446370D01*
X119191151Y-85254840D01*
X119191151Y-85254837D01*
X119191153Y-85254835D01*
X119249703Y-85049050D01*
X119249704Y-85049047D01*
X119269446Y-84836000D01*
X119269446Y-84835999D01*
X119249704Y-84622952D01*
X119249703Y-84622949D01*
X119191153Y-84417164D01*
X119191150Y-84417158D01*
X119095781Y-84225630D01*
X118966841Y-84054886D01*
X118808722Y-83910742D01*
X118808716Y-83910738D01*
X118808713Y-83910736D01*
X118626813Y-83798108D01*
X118626807Y-83798106D01*
X118427297Y-83720815D01*
X118251153Y-83687888D01*
X118188874Y-83656221D01*
X118153601Y-83595908D01*
X118156535Y-83526100D01*
X118196744Y-83468960D01*
X118251152Y-83444112D01*
X118427297Y-83411185D01*
X118626810Y-83333893D01*
X118808722Y-83221258D01*
X118966841Y-83077114D01*
X119095781Y-82906370D01*
X119191151Y-82714840D01*
X119191151Y-82714837D01*
X119191153Y-82714835D01*
X119227040Y-82588705D01*
X119249704Y-82509048D01*
X119269446Y-82296000D01*
X119249704Y-82082952D01*
X119241200Y-82053065D01*
X119191153Y-81877164D01*
X119191150Y-81877158D01*
X119095781Y-81685630D01*
X118966841Y-81514886D01*
X118808722Y-81370742D01*
X118808716Y-81370738D01*
X118808713Y-81370736D01*
X118626813Y-81258108D01*
X118626807Y-81258106D01*
X118427297Y-81180815D01*
X118251153Y-81147888D01*
X118188874Y-81116221D01*
X118153601Y-81055908D01*
X118156535Y-80986100D01*
X118196744Y-80928960D01*
X118251152Y-80904112D01*
X118427297Y-80871185D01*
X118626810Y-80793893D01*
X118808722Y-80681258D01*
X118966841Y-80537114D01*
X119095781Y-80366370D01*
X119191151Y-80174840D01*
X119191151Y-80174837D01*
X119191153Y-80174835D01*
X119238814Y-80007323D01*
X119249704Y-79969048D01*
X119269446Y-79756000D01*
X119249704Y-79542952D01*
X119235065Y-79491500D01*
X119191153Y-79337164D01*
X119191150Y-79337158D01*
X119180089Y-79314944D01*
X119095781Y-79145630D01*
X118966841Y-78974886D01*
X118808722Y-78830742D01*
X118808716Y-78830738D01*
X118808713Y-78830736D01*
X118626813Y-78718108D01*
X118626807Y-78718106D01*
X118427297Y-78640815D01*
X118251153Y-78607888D01*
X118188874Y-78576221D01*
X118153601Y-78515908D01*
X118156535Y-78446100D01*
X118196744Y-78388960D01*
X118251152Y-78364112D01*
X118427297Y-78331185D01*
X118626810Y-78253893D01*
X118808722Y-78141258D01*
X118966841Y-77997114D01*
X119095781Y-77826370D01*
X119191151Y-77634840D01*
X119218045Y-77540317D01*
X119255323Y-77481225D01*
X119318633Y-77451667D01*
X119387872Y-77461029D01*
X119410193Y-77473932D01*
X119420232Y-77481225D01*
X119435270Y-77492151D01*
X119608192Y-77569142D01*
X119608197Y-77569144D01*
X119793354Y-77608500D01*
X119793355Y-77608500D01*
X119982644Y-77608500D01*
X119982646Y-77608500D01*
X120167803Y-77569144D01*
X120340730Y-77492151D01*
X120493871Y-77380888D01*
X120620533Y-77240216D01*
X120715179Y-77076284D01*
X120773674Y-76896256D01*
X120790989Y-76731506D01*
X120817572Y-76666895D01*
X120826630Y-76656788D01*
X120873603Y-76609817D01*
X120934926Y-76576333D01*
X120961282Y-76573500D01*
X132179951Y-76573500D01*
X132246990Y-76593185D01*
G37*
%TD.AperFunction*%
%TA.AperFunction,Conductor*%
G36*
X132247986Y-74051185D02*
G01*
X132293741Y-74103989D01*
X132303685Y-74173147D01*
X132291947Y-74210772D01*
X132268849Y-74257158D01*
X132268846Y-74257164D01*
X132210296Y-74462949D01*
X132210295Y-74462952D01*
X132190554Y-74675999D01*
X132190554Y-74676000D01*
X132210295Y-74889047D01*
X132210296Y-74889050D01*
X132268846Y-75094835D01*
X132268849Y-75094841D01*
X132290951Y-75139228D01*
X132303212Y-75208014D01*
X132276339Y-75272509D01*
X132218863Y-75312236D01*
X132179951Y-75318500D01*
X120588192Y-75318500D01*
X120466973Y-75342612D01*
X120466961Y-75342615D01*
X120430597Y-75357677D01*
X120430598Y-75357678D01*
X120352770Y-75389915D01*
X120352760Y-75389920D01*
X120249992Y-75458588D01*
X120249988Y-75458591D01*
X119937400Y-75771181D01*
X119876077Y-75804666D01*
X119849719Y-75807500D01*
X119793354Y-75807500D01*
X119760897Y-75814398D01*
X119608197Y-75846855D01*
X119608192Y-75846857D01*
X119435270Y-75923848D01*
X119435265Y-75923851D01*
X119282129Y-76035111D01*
X119155466Y-76175785D01*
X119069462Y-76324749D01*
X119018895Y-76372965D01*
X118950288Y-76386188D01*
X118885423Y-76360220D01*
X118878538Y-76354387D01*
X118846026Y-76324749D01*
X118808722Y-76290742D01*
X118808715Y-76290738D01*
X118808713Y-76290736D01*
X118626813Y-76178108D01*
X118626807Y-76178106D01*
X118620816Y-76175785D01*
X118427297Y-76100815D01*
X118251153Y-76067888D01*
X118188874Y-76036221D01*
X118153601Y-75975908D01*
X118156535Y-75906100D01*
X118196744Y-75848960D01*
X118251152Y-75824112D01*
X118427297Y-75791185D01*
X118626810Y-75713893D01*
X118808722Y-75601258D01*
X118966841Y-75457114D01*
X119095781Y-75286370D01*
X119191151Y-75094840D01*
X119191151Y-75094837D01*
X119191153Y-75094835D01*
X119238814Y-74927323D01*
X119249704Y-74889048D01*
X119269446Y-74676000D01*
X119249704Y-74462952D01*
X119241200Y-74433065D01*
X119191153Y-74257164D01*
X119191150Y-74257158D01*
X119168053Y-74210772D01*
X119155792Y-74141986D01*
X119182665Y-74077491D01*
X119240141Y-74037764D01*
X119279053Y-74031500D01*
X132180947Y-74031500D01*
X132247986Y-74051185D01*
G37*
%TD.AperFunction*%
%TD*%
M02*
