%TF.GenerationSoftware,KiCad,Pcbnew,8.0.8*%
%TF.CreationDate,2025-03-18T22:16:49-05:00*%
%TF.ProjectId,Raman_Spectrometer_Board,52616d61-6e5f-4537-9065-6374726f6d65,rev?*%
%TF.SameCoordinates,Original*%
%TF.FileFunction,Paste,Top*%
%TF.FilePolarity,Positive*%
%FSLAX46Y46*%
G04 Gerber Fmt 4.6, Leading zero omitted, Abs format (unit mm)*
G04 Created by KiCad (PCBNEW 8.0.8) date 2025-03-18 22:16:49*
%MOMM*%
%LPD*%
G01*
G04 APERTURE LIST*
G04 Aperture macros list*
%AMRoundRect*
0 Rectangle with rounded corners*
0 $1 Rounding radius*
0 $2 $3 $4 $5 $6 $7 $8 $9 X,Y pos of 4 corners*
0 Add a 4 corners polygon primitive as box body*
4,1,4,$2,$3,$4,$5,$6,$7,$8,$9,$2,$3,0*
0 Add four circle primitives for the rounded corners*
1,1,$1+$1,$2,$3*
1,1,$1+$1,$4,$5*
1,1,$1+$1,$6,$7*
1,1,$1+$1,$8,$9*
0 Add four rect primitives between the rounded corners*
20,1,$1+$1,$2,$3,$4,$5,0*
20,1,$1+$1,$4,$5,$6,$7,0*
20,1,$1+$1,$6,$7,$8,$9,0*
20,1,$1+$1,$8,$9,$2,$3,0*%
G04 Aperture macros list end*
%ADD10R,1.600000X1.400000*%
%ADD11RoundRect,0.237500X-0.287500X-0.237500X0.287500X-0.237500X0.287500X0.237500X-0.287500X0.237500X0*%
%ADD12RoundRect,0.150000X0.587500X0.150000X-0.587500X0.150000X-0.587500X-0.150000X0.587500X-0.150000X0*%
%ADD13RoundRect,0.237500X-0.237500X0.250000X-0.237500X-0.250000X0.237500X-0.250000X0.237500X0.250000X0*%
%ADD14RoundRect,0.237500X0.237500X-0.250000X0.237500X0.250000X-0.237500X0.250000X-0.237500X-0.250000X0*%
%ADD15RoundRect,0.237500X0.250000X0.237500X-0.250000X0.237500X-0.250000X-0.237500X0.250000X-0.237500X0*%
%ADD16RoundRect,0.237500X-0.237500X0.300000X-0.237500X-0.300000X0.237500X-0.300000X0.237500X0.300000X0*%
%ADD17RoundRect,0.237500X0.300000X0.237500X-0.300000X0.237500X-0.300000X-0.237500X0.300000X-0.237500X0*%
G04 APERTURE END LIST*
D10*
%TO.C,SW1*%
X86360000Y-21336000D03*
X93560000Y-21336000D03*
X86360000Y-24336000D03*
X93560000Y-24336000D03*
%TD*%
D11*
%TO.C,D2*%
X140457250Y-103124000D03*
X142207250Y-103124000D03*
%TD*%
D12*
%TO.C,Q2*%
X89662000Y-60828000D03*
X89662000Y-58928000D03*
X87787000Y-59878000D03*
%TD*%
D13*
%TO.C,R5*%
X106807000Y-36806500D03*
X106807000Y-38631500D03*
%TD*%
D11*
%TO.C,D1*%
X140476000Y-105029000D03*
X142226000Y-105029000D03*
%TD*%
D12*
%TO.C,Q3*%
X104188500Y-38730000D03*
X104188500Y-36830000D03*
X102313500Y-37780000D03*
%TD*%
D14*
%TO.C,R3*%
X106807000Y-32535500D03*
X106807000Y-30710500D03*
%TD*%
D15*
%TO.C,R1*%
X138707500Y-105029000D03*
X136882500Y-105029000D03*
%TD*%
D11*
%TO.C,D3*%
X140457250Y-101346000D03*
X142207250Y-101346000D03*
%TD*%
D16*
%TO.C,C3*%
X117602000Y-42190500D03*
X117602000Y-43915500D03*
%TD*%
D12*
%TO.C,Q1*%
X104188500Y-32573000D03*
X104188500Y-30673000D03*
X102313500Y-31623000D03*
%TD*%
%TO.C,Q4*%
X104188500Y-44892000D03*
X104188500Y-42992000D03*
X102313500Y-43942000D03*
%TD*%
D15*
%TO.C,R2*%
X138688750Y-103124000D03*
X136863750Y-103124000D03*
%TD*%
D17*
%TO.C,C1*%
X91921500Y-96012000D03*
X90196500Y-96012000D03*
%TD*%
D10*
%TO.C,SW2*%
X98552000Y-21336000D03*
X105752000Y-21336000D03*
X98552000Y-24336000D03*
X105752000Y-24336000D03*
%TD*%
D15*
%TO.C,R4*%
X138688750Y-101346000D03*
X136863750Y-101346000D03*
%TD*%
D17*
%TO.C,C2*%
X90069500Y-108966000D03*
X91794500Y-108966000D03*
%TD*%
D13*
%TO.C,R6*%
X106807000Y-43029500D03*
X106807000Y-44854500D03*
%TD*%
M02*
