M48
; DRILL file {KiCad 8.0.8} date 2025-03-18T22:16:45-0500
; FORMAT={-:-/ absolute / metric / decimal}
; #@! TF.CreationDate,2025-03-18T22:16:45-05:00
; #@! TF.GenerationSoftware,Kicad,Pcbnew,8.0.8
; #@! TF.FileFunction,Plated,1,2,PTH
FMAT,2
METRIC
; #@! TA.AperFunction,Plated,PTH,ViaDrill
T1C0.400
; #@! TA.AperFunction,Plated,PTH,ComponentDrill
T2C0.700
; #@! TA.AperFunction,Plated,PTH,ComponentDrill
T3C0.800
; #@! TA.AperFunction,Plated,PTH,ComponentDrill
T4C0.889
; #@! TA.AperFunction,Plated,PTH,ComponentDrill
T5C0.900
; #@! TA.AperFunction,Plated,PTH,ComponentDrill
T6C1.000
; #@! TA.AperFunction,Plated,PTH,ComponentDrill
T7C1.020
; #@! TA.AperFunction,Plated,PTH,ComponentDrill
T8C1.600
; #@! TA.AperFunction,Plated,PTH,ComponentDrill
T9C2.000
; #@! TA.AperFunction,Plated,PTH,ComponentDrill
T10C3.250
%
G90
G05
T1
X78.74Y-72.39
X81.026Y-42.164
X81.026Y-54.737
X82.55Y-27.94
X82.55Y-66.04
X82.804Y-37.592
X88.9Y-27.94
X88.9Y-66.04
X88.9Y-72.39
X88.9Y-85.09
X88.9Y-91.313
X90.805Y-49.784
X91.948Y-57.658
X93.726Y-108.966
X95.25Y-27.94
X95.25Y-104.14
X96.393Y-111.506
X98.228Y-43.123
X99.251Y-43.116
X101.6Y-27.94
X101.6Y-97.79
X101.6Y-104.14
X103.505Y-105.156
X105.029Y-34.798
X105.156Y-40.386
X105.156Y-46.482
X105.537Y-41.656
X106.68Y-27.94
X107.95Y-72.39
X107.95Y-78.74
X107.95Y-85.09
X107.95Y-91.44
X107.95Y-97.79
X107.95Y-104.14
X108.458Y-48.895
X113.157Y-50.003
X113.218Y-54.229
X113.411Y-46.228
X113.919Y-91.186
X114.173Y-57.658
X114.21Y-40.005
X114.455Y-34.781
X115.122Y-34.036
X115.122Y-53.34
X115.57Y-104.14
X116.84Y-70.395
X119.38Y-46.99
X119.888Y-76.708
X120.65Y-34.29
X120.65Y-54.61
X120.65Y-59.69
X120.65Y-66.04
X120.65Y-99.06
X120.65Y-104.14
X120.777Y-71.501
X125.73Y-88.9
X125.73Y-99.06
X125.73Y-104.14
X127.0Y-54.61
X127.0Y-59.69
X127.0Y-66.04
X127.0Y-72.136
X127.0Y-74.676
X127.0Y-78.74
X127.0Y-85.09
X131.953Y-42.799
X133.35Y-27.94
X135.382Y-104.013
X137.16Y-85.09
X138.938Y-34.29
X138.938Y-40.64
X138.938Y-53.34
X138.938Y-61.722
X140.081Y-107.315
T2
X120.56Y-92.726
X120.56Y-94.726
X122.56Y-92.726
X122.56Y-94.726
X124.56Y-92.726
X124.56Y-94.726
T3
X118.11Y-49.276
X118.11Y-51.816
X118.11Y-54.356
X118.11Y-56.896
X118.11Y-59.436
X118.11Y-61.976
X118.11Y-64.516
X118.11Y-67.056
X118.11Y-69.596
X118.11Y-72.136
X118.11Y-74.676
X118.11Y-77.216
X118.11Y-79.756
X118.11Y-82.296
X118.11Y-84.836
X118.11Y-87.376
X118.11Y-89.916
X118.11Y-92.456
X118.11Y-94.996
X118.11Y-97.536
X118.11Y-100.076
X118.11Y-102.616
X118.11Y-105.156
X118.11Y-107.696
X133.35Y-49.276
X133.35Y-51.816
X133.35Y-54.356
X133.35Y-56.896
X133.35Y-59.436
X133.35Y-61.976
X133.35Y-64.516
X133.35Y-67.056
X133.35Y-69.596
X133.35Y-72.136
X133.35Y-74.676
X133.35Y-77.216
X133.35Y-79.756
X133.35Y-82.296
X133.35Y-84.836
X133.35Y-87.376
X133.35Y-89.916
X133.35Y-92.456
X133.35Y-94.996
X133.35Y-97.536
X133.35Y-100.076
X133.35Y-102.616
X133.35Y-105.156
X133.35Y-107.696
T4
X91.821Y-100.076
X91.821Y-102.616
X91.821Y-105.156
T5
X77.724Y-31.43
X77.724Y-33.97
X77.724Y-41.59
X77.724Y-44.13
X77.724Y-46.67
X77.724Y-49.21
X77.724Y-51.75
X77.724Y-58.862
X77.724Y-61.402
X77.724Y-85.852
X77.724Y-88.392
X77.724Y-90.932
X77.724Y-93.472
X88.519Y-31.369
X88.519Y-33.909
X88.519Y-36.449
X88.519Y-42.164
X88.519Y-44.704
X88.519Y-47.244
X121.194Y-39.068
X122.464Y-36.528
X123.734Y-39.068
X125.004Y-36.528
X126.274Y-39.068
X127.544Y-36.528
X128.814Y-39.068
X130.084Y-36.528
X142.24Y-66.04
X142.24Y-68.58
X142.24Y-71.12
X142.24Y-73.66
X142.24Y-76.2
X142.24Y-78.74
X142.24Y-87.376
X142.24Y-89.916
X142.24Y-92.456
X142.24Y-94.996
X142.24Y-97.536
X142.494Y-34.861
X142.494Y-37.401
X142.494Y-44.704
X142.494Y-47.244
X142.494Y-54.61
X142.494Y-57.15
T6
X103.49Y-69.596
X103.505Y-60.96
X106.03Y-69.596
X106.045Y-60.96
X108.57Y-69.596
X108.585Y-60.96
T7
X119.314Y-26.888
X121.854Y-25.098
X129.424Y-26.888
X131.964Y-25.098
T8
X117.764Y-33.228
X133.514Y-33.228
T10
X119.924Y-30.178
X131.354Y-30.178
T9
X93.407Y-69.689G85X93.407Y-71.789
G05
X93.407Y-77.563G85X93.407Y-79.663
G05
M30
