%TF.GenerationSoftware,KiCad,Pcbnew,8.0.8*%
%TF.CreationDate,2025-03-18T22:16:49-05:00*%
%TF.ProjectId,Raman_Spectrometer_Board,52616d61-6e5f-4537-9065-6374726f6d65,rev?*%
%TF.SameCoordinates,Original*%
%TF.FileFunction,Soldermask,Top*%
%TF.FilePolarity,Negative*%
%FSLAX46Y46*%
G04 Gerber Fmt 4.6, Leading zero omitted, Abs format (unit mm)*
G04 Created by KiCad (PCBNEW 8.0.8) date 2025-03-18 22:16:49*
%MOMM*%
%LPD*%
G01*
G04 APERTURE LIST*
G04 Aperture macros list*
%AMRoundRect*
0 Rectangle with rounded corners*
0 $1 Rounding radius*
0 $2 $3 $4 $5 $6 $7 $8 $9 X,Y pos of 4 corners*
0 Add a 4 corners polygon primitive as box body*
4,1,4,$2,$3,$4,$5,$6,$7,$8,$9,$2,$3,0*
0 Add four circle primitives for the rounded corners*
1,1,$1+$1,$2,$3*
1,1,$1+$1,$4,$5*
1,1,$1+$1,$6,$7*
1,1,$1+$1,$8,$9*
0 Add four rect primitives between the rounded corners*
20,1,$1+$1,$2,$3,$4,$5,0*
20,1,$1+$1,$4,$5,$6,$7,0*
20,1,$1+$1,$6,$7,$8,$9,0*
20,1,$1+$1,$8,$9,$2,$3,0*%
G04 Aperture macros list end*
%ADD10R,1.700000X1.700000*%
%ADD11O,1.700000X1.700000*%
%ADD12C,1.524000*%
%ADD13R,1.600000X1.400000*%
%ADD14RoundRect,0.237500X-0.287500X-0.237500X0.287500X-0.237500X0.287500X0.237500X-0.287500X0.237500X0*%
%ADD15C,1.308000*%
%ADD16C,1.208000*%
%ADD17C,2.946400*%
%ADD18RoundRect,0.150000X0.587500X0.150000X-0.587500X0.150000X-0.587500X-0.150000X0.587500X-0.150000X0*%
%ADD19RoundRect,0.237500X-0.237500X0.250000X-0.237500X-0.250000X0.237500X-0.250000X0.237500X0.250000X0*%
%ADD20RoundRect,0.237500X0.237500X-0.250000X0.237500X0.250000X-0.237500X0.250000X-0.237500X-0.250000X0*%
%ADD21RoundRect,0.237500X0.250000X0.237500X-0.250000X0.237500X-0.250000X-0.237500X0.250000X-0.237500X0*%
%ADD22RoundRect,0.237500X-0.237500X0.300000X-0.237500X-0.300000X0.237500X-0.300000X0.237500X0.300000X0*%
%ADD23C,1.100000*%
%ADD24C,1.400000*%
%ADD25C,4.000000*%
%ADD26C,2.000000*%
%ADD27RoundRect,0.237500X0.300000X0.237500X-0.300000X0.237500X-0.300000X-0.237500X0.300000X-0.237500X0*%
%ADD28O,3.000000X5.100000*%
G04 APERTURE END LIST*
D10*
%TO.C,J3*%
X103505000Y-60960000D03*
D11*
X106045000Y-60960000D03*
X108585000Y-60960000D03*
%TD*%
D10*
%TO.C,J2*%
X108570000Y-69596000D03*
D11*
X106030000Y-69596000D03*
X103490000Y-69596000D03*
%TD*%
D12*
%TO.C,Conn12*%
X88519000Y-42164000D03*
X88519000Y-44704000D03*
X88519000Y-47244000D03*
%TD*%
%TO.C,Conn8*%
X142494000Y-34861500D03*
X142494000Y-37401500D03*
%TD*%
D13*
%TO.C,SW1*%
X86360000Y-21336000D03*
X93560000Y-21336000D03*
X86360000Y-24336000D03*
X93560000Y-24336000D03*
%TD*%
D14*
%TO.C,D2*%
X140457250Y-103124000D03*
X142207250Y-103124000D03*
%TD*%
D15*
%TO.C,U1*%
X133350000Y-105156000D03*
X133350000Y-102616000D03*
X133350000Y-100076000D03*
X133350000Y-97536000D03*
X133350000Y-72136000D03*
X118110000Y-102616000D03*
X133350000Y-94996000D03*
X133350000Y-92456000D03*
X133350000Y-89916000D03*
X133350000Y-87376000D03*
X133350000Y-84836000D03*
X133350000Y-82296000D03*
X133350000Y-79756000D03*
X133350000Y-77216000D03*
X133350000Y-74676000D03*
X118110000Y-74676000D03*
X118110000Y-77216000D03*
X118110000Y-79756000D03*
X118110000Y-82296000D03*
X118110000Y-84836000D03*
X118110000Y-87376000D03*
X118110000Y-89916000D03*
X118110000Y-92456000D03*
X118110000Y-94996000D03*
X118110000Y-97536000D03*
X118110000Y-100076000D03*
X133350000Y-69596000D03*
X133350000Y-67056000D03*
X133350000Y-64516000D03*
X133350000Y-61976000D03*
X133350000Y-59436000D03*
X133350000Y-56896000D03*
X133350000Y-54356000D03*
X133350000Y-51816000D03*
X133350000Y-49276000D03*
X118110000Y-49276000D03*
X118110000Y-51816000D03*
X118110000Y-54356000D03*
X118110000Y-56896000D03*
X118110000Y-59436000D03*
X118110000Y-61976000D03*
X118110000Y-64516000D03*
X118110000Y-67056000D03*
X118110000Y-69596000D03*
X133350000Y-107696000D03*
X118110000Y-72136000D03*
X118110000Y-105156000D03*
D16*
X122560000Y-92726000D03*
X122560000Y-94726000D03*
X120560000Y-94726000D03*
X120560000Y-92726000D03*
X124560000Y-92726000D03*
X124560000Y-94726000D03*
D15*
X118110000Y-107696000D03*
%TD*%
D17*
%TO.C,H3*%
X142748000Y-23114000D03*
%TD*%
D18*
%TO.C,Q2*%
X89662000Y-60828000D03*
X89662000Y-58928000D03*
X87787000Y-59878000D03*
%TD*%
D19*
%TO.C,R5*%
X106807000Y-36806500D03*
X106807000Y-38631500D03*
%TD*%
D14*
%TO.C,D1*%
X140476000Y-105029000D03*
X142226000Y-105029000D03*
%TD*%
D18*
%TO.C,Q3*%
X104188500Y-38730000D03*
X104188500Y-36830000D03*
X102313500Y-37780000D03*
%TD*%
D20*
%TO.C,R3*%
X106807000Y-32535500D03*
X106807000Y-30710500D03*
%TD*%
D21*
%TO.C,R1*%
X138707500Y-105029000D03*
X136882500Y-105029000D03*
%TD*%
D17*
%TO.C,H4*%
X142748000Y-112014000D03*
%TD*%
D14*
%TO.C,D3*%
X140457250Y-101346000D03*
X142207250Y-101346000D03*
%TD*%
D22*
%TO.C,C3*%
X117602000Y-42190500D03*
X117602000Y-43915500D03*
%TD*%
D18*
%TO.C,Q1*%
X104188500Y-32573000D03*
X104188500Y-30673000D03*
X102313500Y-31623000D03*
%TD*%
D12*
%TO.C,Conn3*%
X77724000Y-31430000D03*
X77724000Y-33970000D03*
%TD*%
%TO.C,Conn7*%
X77724000Y-85852000D03*
X77724000Y-88392000D03*
X77724000Y-90932000D03*
X77724000Y-93472000D03*
%TD*%
D17*
%TO.C,H1*%
X79248000Y-23114000D03*
%TD*%
D12*
%TO.C,Conn2*%
X142240000Y-66040000D03*
X142240000Y-68580000D03*
X142240000Y-71120000D03*
X142240000Y-73660000D03*
X142240000Y-76200000D03*
X142240000Y-78740000D03*
%TD*%
%TO.C,Conn4*%
X77724000Y-58862000D03*
X77724000Y-61402000D03*
%TD*%
D18*
%TO.C,Q4*%
X104188500Y-44892000D03*
X104188500Y-42992000D03*
X102313500Y-43942000D03*
%TD*%
D23*
%TO.C,J1*%
X130083670Y-36528132D03*
X128813670Y-39068132D03*
X127543670Y-36528132D03*
X126273670Y-39068132D03*
X125003670Y-36528132D03*
X123733670Y-39068132D03*
X122463670Y-36528132D03*
X121193670Y-39068132D03*
D24*
X131963670Y-25098132D03*
X129423670Y-26888132D03*
X121853670Y-25098132D03*
X119313670Y-26888132D03*
D25*
X131353670Y-30178132D03*
X119923670Y-30178132D03*
D26*
X133513670Y-33228132D03*
X117763670Y-33228132D03*
%TD*%
D21*
%TO.C,R2*%
X138688750Y-103124000D03*
X136863750Y-103124000D03*
%TD*%
D27*
%TO.C,C1*%
X91921500Y-96012000D03*
X90196500Y-96012000D03*
%TD*%
D13*
%TO.C,SW2*%
X98552000Y-21336000D03*
X105752000Y-21336000D03*
X98552000Y-24336000D03*
X105752000Y-24336000D03*
%TD*%
D12*
%TO.C,Conn5*%
X77724000Y-41590000D03*
X77724000Y-44130000D03*
X77724000Y-46670000D03*
X77724000Y-49210000D03*
X77724000Y-51750000D03*
%TD*%
%TO.C,U2*%
X91821000Y-100076000D03*
X91821000Y-102616000D03*
X91821000Y-105156000D03*
%TD*%
D21*
%TO.C,R4*%
X138688750Y-101346000D03*
X136863750Y-101346000D03*
%TD*%
D27*
%TO.C,C2*%
X90069500Y-108966000D03*
X91794500Y-108966000D03*
%TD*%
D12*
%TO.C,Conn6*%
X142240000Y-87376000D03*
X142240000Y-89916000D03*
X142240000Y-92456000D03*
X142240000Y-94996000D03*
X142240000Y-97536000D03*
%TD*%
%TO.C,Conn9*%
X142494000Y-44704000D03*
X142494000Y-47244000D03*
%TD*%
%TO.C,Conn11*%
X88519000Y-31369000D03*
X88519000Y-33909000D03*
X88519000Y-36449000D03*
%TD*%
D28*
%TO.C,Conn1*%
X93407200Y-70739000D03*
X93407200Y-78613000D03*
%TD*%
D12*
%TO.C,Conn10*%
X142494000Y-54610000D03*
X142494000Y-57150000D03*
%TD*%
D17*
%TO.C,H2*%
X79248000Y-112014000D03*
%TD*%
D19*
%TO.C,R6*%
X106807000Y-43029500D03*
X106807000Y-44854500D03*
%TD*%
M02*
