%TF.GenerationSoftware,KiCad,Pcbnew,7.0.7*%
%TF.CreationDate,2023-10-31T17:39:05-05:00*%
%TF.ProjectId,Laser_Diode_Breakout,4c617365-725f-4446-996f-64655f427265,rev?*%
%TF.SameCoordinates,Original*%
%TF.FileFunction,Legend,Bot*%
%TF.FilePolarity,Positive*%
%FSLAX46Y46*%
G04 Gerber Fmt 4.6, Leading zero omitted, Abs format (unit mm)*
G04 Created by KiCad (PCBNEW 7.0.7) date 2023-10-31 17:39:05*
%MOMM*%
%LPD*%
G01*
G04 APERTURE LIST*
%ADD10C,0.152400*%
%ADD11C,0.177800*%
%ADD12C,0.150000*%
%ADD13C,0.120000*%
G04 APERTURE END LIST*
D10*
X62886780Y-25442334D02*
X62886780Y-26085801D01*
X62886780Y-26085801D02*
X63851980Y-25672144D01*
X63300438Y-26591382D02*
X63254476Y-26499458D01*
X63254476Y-26499458D02*
X63208514Y-26453496D01*
X63208514Y-26453496D02*
X63116590Y-26407534D01*
X63116590Y-26407534D02*
X63070628Y-26407534D01*
X63070628Y-26407534D02*
X62978704Y-26453496D01*
X62978704Y-26453496D02*
X62932742Y-26499458D01*
X62932742Y-26499458D02*
X62886780Y-26591382D01*
X62886780Y-26591382D02*
X62886780Y-26775229D01*
X62886780Y-26775229D02*
X62932742Y-26867153D01*
X62932742Y-26867153D02*
X62978704Y-26913115D01*
X62978704Y-26913115D02*
X63070628Y-26959077D01*
X63070628Y-26959077D02*
X63116590Y-26959077D01*
X63116590Y-26959077D02*
X63208514Y-26913115D01*
X63208514Y-26913115D02*
X63254476Y-26867153D01*
X63254476Y-26867153D02*
X63300438Y-26775229D01*
X63300438Y-26775229D02*
X63300438Y-26591382D01*
X63300438Y-26591382D02*
X63346399Y-26499458D01*
X63346399Y-26499458D02*
X63392361Y-26453496D01*
X63392361Y-26453496D02*
X63484285Y-26407534D01*
X63484285Y-26407534D02*
X63668133Y-26407534D01*
X63668133Y-26407534D02*
X63760057Y-26453496D01*
X63760057Y-26453496D02*
X63806019Y-26499458D01*
X63806019Y-26499458D02*
X63851980Y-26591382D01*
X63851980Y-26591382D02*
X63851980Y-26775229D01*
X63851980Y-26775229D02*
X63806019Y-26867153D01*
X63806019Y-26867153D02*
X63760057Y-26913115D01*
X63760057Y-26913115D02*
X63668133Y-26959077D01*
X63668133Y-26959077D02*
X63484285Y-26959077D01*
X63484285Y-26959077D02*
X63392361Y-26913115D01*
X63392361Y-26913115D02*
X63346399Y-26867153D01*
X63346399Y-26867153D02*
X63300438Y-26775229D01*
X62978704Y-27326772D02*
X62932742Y-27372734D01*
X62932742Y-27372734D02*
X62886780Y-27464658D01*
X62886780Y-27464658D02*
X62886780Y-27694467D01*
X62886780Y-27694467D02*
X62932742Y-27786391D01*
X62932742Y-27786391D02*
X62978704Y-27832353D01*
X62978704Y-27832353D02*
X63070628Y-27878315D01*
X63070628Y-27878315D02*
X63162552Y-27878315D01*
X63162552Y-27878315D02*
X63300438Y-27832353D01*
X63300438Y-27832353D02*
X63851980Y-27280810D01*
X63851980Y-27280810D02*
X63851980Y-27878315D01*
X63208514Y-28291972D02*
X63851980Y-28291972D01*
X63300438Y-28291972D02*
X63254476Y-28337934D01*
X63254476Y-28337934D02*
X63208514Y-28429858D01*
X63208514Y-28429858D02*
X63208514Y-28567743D01*
X63208514Y-28567743D02*
X63254476Y-28659667D01*
X63254476Y-28659667D02*
X63346399Y-28705629D01*
X63346399Y-28705629D02*
X63851980Y-28705629D01*
X63851980Y-29165248D02*
X63208514Y-29165248D01*
X63300438Y-29165248D02*
X63254476Y-29211210D01*
X63254476Y-29211210D02*
X63208514Y-29303134D01*
X63208514Y-29303134D02*
X63208514Y-29441019D01*
X63208514Y-29441019D02*
X63254476Y-29532943D01*
X63254476Y-29532943D02*
X63346399Y-29578905D01*
X63346399Y-29578905D02*
X63851980Y-29578905D01*
X63346399Y-29578905D02*
X63254476Y-29624867D01*
X63254476Y-29624867D02*
X63208514Y-29716791D01*
X63208514Y-29716791D02*
X63208514Y-29854677D01*
X63208514Y-29854677D02*
X63254476Y-29946600D01*
X63254476Y-29946600D02*
X63346399Y-29992562D01*
X63346399Y-29992562D02*
X63851980Y-29992562D01*
X63851980Y-31739114D02*
X63392361Y-31417381D01*
X63851980Y-31187571D02*
X62886780Y-31187571D01*
X62886780Y-31187571D02*
X62886780Y-31555266D01*
X62886780Y-31555266D02*
X62932742Y-31647190D01*
X62932742Y-31647190D02*
X62978704Y-31693152D01*
X62978704Y-31693152D02*
X63070628Y-31739114D01*
X63070628Y-31739114D02*
X63208514Y-31739114D01*
X63208514Y-31739114D02*
X63300438Y-31693152D01*
X63300438Y-31693152D02*
X63346399Y-31647190D01*
X63346399Y-31647190D02*
X63392361Y-31555266D01*
X63392361Y-31555266D02*
X63392361Y-31187571D01*
X63806019Y-32520466D02*
X63851980Y-32428542D01*
X63851980Y-32428542D02*
X63851980Y-32244695D01*
X63851980Y-32244695D02*
X63806019Y-32152771D01*
X63806019Y-32152771D02*
X63714095Y-32106809D01*
X63714095Y-32106809D02*
X63346399Y-32106809D01*
X63346399Y-32106809D02*
X63254476Y-32152771D01*
X63254476Y-32152771D02*
X63208514Y-32244695D01*
X63208514Y-32244695D02*
X63208514Y-32428542D01*
X63208514Y-32428542D02*
X63254476Y-32520466D01*
X63254476Y-32520466D02*
X63346399Y-32566428D01*
X63346399Y-32566428D02*
X63438323Y-32566428D01*
X63438323Y-32566428D02*
X63530247Y-32106809D01*
X63851980Y-33393742D02*
X62886780Y-33393742D01*
X63806019Y-33393742D02*
X63851980Y-33301818D01*
X63851980Y-33301818D02*
X63851980Y-33117971D01*
X63851980Y-33117971D02*
X63806019Y-33026047D01*
X63806019Y-33026047D02*
X63760057Y-32980085D01*
X63760057Y-32980085D02*
X63668133Y-32934123D01*
X63668133Y-32934123D02*
X63392361Y-32934123D01*
X63392361Y-32934123D02*
X63300438Y-32980085D01*
X63300438Y-32980085D02*
X63254476Y-33026047D01*
X63254476Y-33026047D02*
X63208514Y-33117971D01*
X63208514Y-33117971D02*
X63208514Y-33301818D01*
X63208514Y-33301818D02*
X63254476Y-33393742D01*
X65405952Y-27694467D02*
X64440752Y-27694467D01*
X64440752Y-27694467D02*
X64440752Y-27924277D01*
X64440752Y-27924277D02*
X64486714Y-28062162D01*
X64486714Y-28062162D02*
X64578638Y-28154086D01*
X64578638Y-28154086D02*
X64670562Y-28200048D01*
X64670562Y-28200048D02*
X64854410Y-28246010D01*
X64854410Y-28246010D02*
X64992295Y-28246010D01*
X64992295Y-28246010D02*
X65176143Y-28200048D01*
X65176143Y-28200048D02*
X65268067Y-28154086D01*
X65268067Y-28154086D02*
X65359991Y-28062162D01*
X65359991Y-28062162D02*
X65405952Y-27924277D01*
X65405952Y-27924277D02*
X65405952Y-27694467D01*
X65405952Y-28659667D02*
X64762486Y-28659667D01*
X64440752Y-28659667D02*
X64486714Y-28613705D01*
X64486714Y-28613705D02*
X64532676Y-28659667D01*
X64532676Y-28659667D02*
X64486714Y-28705629D01*
X64486714Y-28705629D02*
X64440752Y-28659667D01*
X64440752Y-28659667D02*
X64532676Y-28659667D01*
X65405952Y-29257172D02*
X65359991Y-29165248D01*
X65359991Y-29165248D02*
X65314029Y-29119286D01*
X65314029Y-29119286D02*
X65222105Y-29073324D01*
X65222105Y-29073324D02*
X64946333Y-29073324D01*
X64946333Y-29073324D02*
X64854410Y-29119286D01*
X64854410Y-29119286D02*
X64808448Y-29165248D01*
X64808448Y-29165248D02*
X64762486Y-29257172D01*
X64762486Y-29257172D02*
X64762486Y-29395057D01*
X64762486Y-29395057D02*
X64808448Y-29486981D01*
X64808448Y-29486981D02*
X64854410Y-29532943D01*
X64854410Y-29532943D02*
X64946333Y-29578905D01*
X64946333Y-29578905D02*
X65222105Y-29578905D01*
X65222105Y-29578905D02*
X65314029Y-29532943D01*
X65314029Y-29532943D02*
X65359991Y-29486981D01*
X65359991Y-29486981D02*
X65405952Y-29395057D01*
X65405952Y-29395057D02*
X65405952Y-29257172D01*
X65405952Y-30406219D02*
X64440752Y-30406219D01*
X65359991Y-30406219D02*
X65405952Y-30314295D01*
X65405952Y-30314295D02*
X65405952Y-30130448D01*
X65405952Y-30130448D02*
X65359991Y-30038524D01*
X65359991Y-30038524D02*
X65314029Y-29992562D01*
X65314029Y-29992562D02*
X65222105Y-29946600D01*
X65222105Y-29946600D02*
X64946333Y-29946600D01*
X64946333Y-29946600D02*
X64854410Y-29992562D01*
X64854410Y-29992562D02*
X64808448Y-30038524D01*
X64808448Y-30038524D02*
X64762486Y-30130448D01*
X64762486Y-30130448D02*
X64762486Y-30314295D01*
X64762486Y-30314295D02*
X64808448Y-30406219D01*
X65359991Y-31233533D02*
X65405952Y-31141609D01*
X65405952Y-31141609D02*
X65405952Y-30957762D01*
X65405952Y-30957762D02*
X65359991Y-30865838D01*
X65359991Y-30865838D02*
X65268067Y-30819876D01*
X65268067Y-30819876D02*
X64900371Y-30819876D01*
X64900371Y-30819876D02*
X64808448Y-30865838D01*
X64808448Y-30865838D02*
X64762486Y-30957762D01*
X64762486Y-30957762D02*
X64762486Y-31141609D01*
X64762486Y-31141609D02*
X64808448Y-31233533D01*
X64808448Y-31233533D02*
X64900371Y-31279495D01*
X64900371Y-31279495D02*
X64992295Y-31279495D01*
X64992295Y-31279495D02*
X65084219Y-30819876D01*
D11*
X53562121Y-41370551D02*
X54425721Y-41370551D01*
X54425721Y-41370551D02*
X54425721Y-41164932D01*
X54425721Y-41164932D02*
X54384597Y-41041561D01*
X54384597Y-41041561D02*
X54302349Y-40959313D01*
X54302349Y-40959313D02*
X54220102Y-40918190D01*
X54220102Y-40918190D02*
X54055606Y-40877066D01*
X54055606Y-40877066D02*
X53932235Y-40877066D01*
X53932235Y-40877066D02*
X53767740Y-40918190D01*
X53767740Y-40918190D02*
X53685492Y-40959313D01*
X53685492Y-40959313D02*
X53603245Y-41041561D01*
X53603245Y-41041561D02*
X53562121Y-41164932D01*
X53562121Y-41164932D02*
X53562121Y-41370551D01*
X53562121Y-40506951D02*
X54137854Y-40506951D01*
X54425721Y-40506951D02*
X54384597Y-40548075D01*
X54384597Y-40548075D02*
X54343473Y-40506951D01*
X54343473Y-40506951D02*
X54384597Y-40465828D01*
X54384597Y-40465828D02*
X54425721Y-40506951D01*
X54425721Y-40506951D02*
X54343473Y-40506951D01*
X53562121Y-39972342D02*
X53603245Y-40054590D01*
X53603245Y-40054590D02*
X53644368Y-40095713D01*
X53644368Y-40095713D02*
X53726616Y-40136837D01*
X53726616Y-40136837D02*
X53973359Y-40136837D01*
X53973359Y-40136837D02*
X54055606Y-40095713D01*
X54055606Y-40095713D02*
X54096730Y-40054590D01*
X54096730Y-40054590D02*
X54137854Y-39972342D01*
X54137854Y-39972342D02*
X54137854Y-39848971D01*
X54137854Y-39848971D02*
X54096730Y-39766723D01*
X54096730Y-39766723D02*
X54055606Y-39725599D01*
X54055606Y-39725599D02*
X53973359Y-39684475D01*
X53973359Y-39684475D02*
X53726616Y-39684475D01*
X53726616Y-39684475D02*
X53644368Y-39725599D01*
X53644368Y-39725599D02*
X53603245Y-39766723D01*
X53603245Y-39766723D02*
X53562121Y-39848971D01*
X53562121Y-39848971D02*
X53562121Y-39972342D01*
X53562121Y-38944247D02*
X54425721Y-38944247D01*
X53603245Y-38944247D02*
X53562121Y-39026495D01*
X53562121Y-39026495D02*
X53562121Y-39190990D01*
X53562121Y-39190990D02*
X53603245Y-39273238D01*
X53603245Y-39273238D02*
X53644368Y-39314361D01*
X53644368Y-39314361D02*
X53726616Y-39355485D01*
X53726616Y-39355485D02*
X53973359Y-39355485D01*
X53973359Y-39355485D02*
X54055606Y-39314361D01*
X54055606Y-39314361D02*
X54096730Y-39273238D01*
X54096730Y-39273238D02*
X54137854Y-39190990D01*
X54137854Y-39190990D02*
X54137854Y-39026495D01*
X54137854Y-39026495D02*
X54096730Y-38944247D01*
X53603245Y-38204019D02*
X53562121Y-38286267D01*
X53562121Y-38286267D02*
X53562121Y-38450762D01*
X53562121Y-38450762D02*
X53603245Y-38533009D01*
X53603245Y-38533009D02*
X53685492Y-38574133D01*
X53685492Y-38574133D02*
X54014483Y-38574133D01*
X54014483Y-38574133D02*
X54096730Y-38533009D01*
X54096730Y-38533009D02*
X54137854Y-38450762D01*
X54137854Y-38450762D02*
X54137854Y-38286267D01*
X54137854Y-38286267D02*
X54096730Y-38204019D01*
X54096730Y-38204019D02*
X54014483Y-38162895D01*
X54014483Y-38162895D02*
X53932235Y-38162895D01*
X53932235Y-38162895D02*
X53849987Y-38574133D01*
X54014483Y-36846933D02*
X53973359Y-36723561D01*
X53973359Y-36723561D02*
X53932235Y-36682438D01*
X53932235Y-36682438D02*
X53849987Y-36641314D01*
X53849987Y-36641314D02*
X53726616Y-36641314D01*
X53726616Y-36641314D02*
X53644368Y-36682438D01*
X53644368Y-36682438D02*
X53603245Y-36723561D01*
X53603245Y-36723561D02*
X53562121Y-36805809D01*
X53562121Y-36805809D02*
X53562121Y-37134799D01*
X53562121Y-37134799D02*
X54425721Y-37134799D01*
X54425721Y-37134799D02*
X54425721Y-36846933D01*
X54425721Y-36846933D02*
X54384597Y-36764685D01*
X54384597Y-36764685D02*
X54343473Y-36723561D01*
X54343473Y-36723561D02*
X54261225Y-36682438D01*
X54261225Y-36682438D02*
X54178978Y-36682438D01*
X54178978Y-36682438D02*
X54096730Y-36723561D01*
X54096730Y-36723561D02*
X54055606Y-36764685D01*
X54055606Y-36764685D02*
X54014483Y-36846933D01*
X54014483Y-36846933D02*
X54014483Y-37134799D01*
X53562121Y-36271199D02*
X54137854Y-36271199D01*
X53973359Y-36271199D02*
X54055606Y-36230076D01*
X54055606Y-36230076D02*
X54096730Y-36188952D01*
X54096730Y-36188952D02*
X54137854Y-36106704D01*
X54137854Y-36106704D02*
X54137854Y-36024457D01*
X53603245Y-35407599D02*
X53562121Y-35489847D01*
X53562121Y-35489847D02*
X53562121Y-35654342D01*
X53562121Y-35654342D02*
X53603245Y-35736589D01*
X53603245Y-35736589D02*
X53685492Y-35777713D01*
X53685492Y-35777713D02*
X54014483Y-35777713D01*
X54014483Y-35777713D02*
X54096730Y-35736589D01*
X54096730Y-35736589D02*
X54137854Y-35654342D01*
X54137854Y-35654342D02*
X54137854Y-35489847D01*
X54137854Y-35489847D02*
X54096730Y-35407599D01*
X54096730Y-35407599D02*
X54014483Y-35366475D01*
X54014483Y-35366475D02*
X53932235Y-35366475D01*
X53932235Y-35366475D02*
X53849987Y-35777713D01*
X53562121Y-34626246D02*
X54014483Y-34626246D01*
X54014483Y-34626246D02*
X54096730Y-34667370D01*
X54096730Y-34667370D02*
X54137854Y-34749618D01*
X54137854Y-34749618D02*
X54137854Y-34914113D01*
X54137854Y-34914113D02*
X54096730Y-34996360D01*
X53603245Y-34626246D02*
X53562121Y-34708494D01*
X53562121Y-34708494D02*
X53562121Y-34914113D01*
X53562121Y-34914113D02*
X53603245Y-34996360D01*
X53603245Y-34996360D02*
X53685492Y-35037484D01*
X53685492Y-35037484D02*
X53767740Y-35037484D01*
X53767740Y-35037484D02*
X53849987Y-34996360D01*
X53849987Y-34996360D02*
X53891111Y-34914113D01*
X53891111Y-34914113D02*
X53891111Y-34708494D01*
X53891111Y-34708494D02*
X53932235Y-34626246D01*
X53562121Y-34215008D02*
X54425721Y-34215008D01*
X53891111Y-34132761D02*
X53562121Y-33886018D01*
X54137854Y-33886018D02*
X53808864Y-34215008D01*
X53562121Y-33392532D02*
X53603245Y-33474780D01*
X53603245Y-33474780D02*
X53644368Y-33515903D01*
X53644368Y-33515903D02*
X53726616Y-33557027D01*
X53726616Y-33557027D02*
X53973359Y-33557027D01*
X53973359Y-33557027D02*
X54055606Y-33515903D01*
X54055606Y-33515903D02*
X54096730Y-33474780D01*
X54096730Y-33474780D02*
X54137854Y-33392532D01*
X54137854Y-33392532D02*
X54137854Y-33269161D01*
X54137854Y-33269161D02*
X54096730Y-33186913D01*
X54096730Y-33186913D02*
X54055606Y-33145789D01*
X54055606Y-33145789D02*
X53973359Y-33104665D01*
X53973359Y-33104665D02*
X53726616Y-33104665D01*
X53726616Y-33104665D02*
X53644368Y-33145789D01*
X53644368Y-33145789D02*
X53603245Y-33186913D01*
X53603245Y-33186913D02*
X53562121Y-33269161D01*
X53562121Y-33269161D02*
X53562121Y-33392532D01*
X54137854Y-32364437D02*
X53562121Y-32364437D01*
X54137854Y-32734551D02*
X53685492Y-32734551D01*
X53685492Y-32734551D02*
X53603245Y-32693428D01*
X53603245Y-32693428D02*
X53562121Y-32611180D01*
X53562121Y-32611180D02*
X53562121Y-32487809D01*
X53562121Y-32487809D02*
X53603245Y-32405561D01*
X53603245Y-32405561D02*
X53644368Y-32364437D01*
X54137854Y-32076571D02*
X54137854Y-31747580D01*
X54425721Y-31953199D02*
X53685492Y-31953199D01*
X53685492Y-31953199D02*
X53603245Y-31912076D01*
X53603245Y-31912076D02*
X53562121Y-31829828D01*
X53562121Y-31829828D02*
X53562121Y-31747580D01*
X53603245Y-31418590D02*
X53562121Y-31418590D01*
X53562121Y-31418590D02*
X53479873Y-31459713D01*
X53479873Y-31459713D02*
X53438749Y-31500837D01*
X53562121Y-29897009D02*
X53973359Y-30184875D01*
X53562121Y-30390494D02*
X54425721Y-30390494D01*
X54425721Y-30390494D02*
X54425721Y-30061504D01*
X54425721Y-30061504D02*
X54384597Y-29979256D01*
X54384597Y-29979256D02*
X54343473Y-29938133D01*
X54343473Y-29938133D02*
X54261225Y-29897009D01*
X54261225Y-29897009D02*
X54137854Y-29897009D01*
X54137854Y-29897009D02*
X54055606Y-29938133D01*
X54055606Y-29938133D02*
X54014483Y-29979256D01*
X54014483Y-29979256D02*
X53973359Y-30061504D01*
X53973359Y-30061504D02*
X53973359Y-30390494D01*
X53603245Y-29197904D02*
X53562121Y-29280152D01*
X53562121Y-29280152D02*
X53562121Y-29444647D01*
X53562121Y-29444647D02*
X53603245Y-29526894D01*
X53603245Y-29526894D02*
X53685492Y-29568018D01*
X53685492Y-29568018D02*
X54014483Y-29568018D01*
X54014483Y-29568018D02*
X54096730Y-29526894D01*
X54096730Y-29526894D02*
X54137854Y-29444647D01*
X54137854Y-29444647D02*
X54137854Y-29280152D01*
X54137854Y-29280152D02*
X54096730Y-29197904D01*
X54096730Y-29197904D02*
X54014483Y-29156780D01*
X54014483Y-29156780D02*
X53932235Y-29156780D01*
X53932235Y-29156780D02*
X53849987Y-29568018D01*
X54137854Y-28868913D02*
X53562121Y-28663294D01*
X53562121Y-28663294D02*
X54137854Y-28457675D01*
X53562121Y-27676323D02*
X53562121Y-28169808D01*
X53562121Y-27923065D02*
X54425721Y-27923065D01*
X54425721Y-27923065D02*
X54302349Y-28005313D01*
X54302349Y-28005313D02*
X54220102Y-28087561D01*
X54220102Y-28087561D02*
X54178978Y-28169808D01*
X52171725Y-42419209D02*
X53035325Y-42419209D01*
X53035325Y-42419209D02*
X52418468Y-42131343D01*
X52418468Y-42131343D02*
X53035325Y-41843476D01*
X53035325Y-41843476D02*
X52171725Y-41843476D01*
X52171725Y-41062124D02*
X52624087Y-41062124D01*
X52624087Y-41062124D02*
X52706334Y-41103248D01*
X52706334Y-41103248D02*
X52747458Y-41185496D01*
X52747458Y-41185496D02*
X52747458Y-41349991D01*
X52747458Y-41349991D02*
X52706334Y-41432238D01*
X52212849Y-41062124D02*
X52171725Y-41144372D01*
X52171725Y-41144372D02*
X52171725Y-41349991D01*
X52171725Y-41349991D02*
X52212849Y-41432238D01*
X52212849Y-41432238D02*
X52295096Y-41473362D01*
X52295096Y-41473362D02*
X52377344Y-41473362D01*
X52377344Y-41473362D02*
X52459591Y-41432238D01*
X52459591Y-41432238D02*
X52500715Y-41349991D01*
X52500715Y-41349991D02*
X52500715Y-41144372D01*
X52500715Y-41144372D02*
X52541839Y-41062124D01*
X52171725Y-40650886D02*
X52747458Y-40650886D01*
X52582963Y-40650886D02*
X52665210Y-40609763D01*
X52665210Y-40609763D02*
X52706334Y-40568639D01*
X52706334Y-40568639D02*
X52747458Y-40486391D01*
X52747458Y-40486391D02*
X52747458Y-40404144D01*
X52212849Y-40157400D02*
X52171725Y-40075153D01*
X52171725Y-40075153D02*
X52171725Y-39910657D01*
X52171725Y-39910657D02*
X52212849Y-39828410D01*
X52212849Y-39828410D02*
X52295096Y-39787286D01*
X52295096Y-39787286D02*
X52336220Y-39787286D01*
X52336220Y-39787286D02*
X52418468Y-39828410D01*
X52418468Y-39828410D02*
X52459591Y-39910657D01*
X52459591Y-39910657D02*
X52459591Y-40034029D01*
X52459591Y-40034029D02*
X52500715Y-40116276D01*
X52500715Y-40116276D02*
X52582963Y-40157400D01*
X52582963Y-40157400D02*
X52624087Y-40157400D01*
X52624087Y-40157400D02*
X52706334Y-40116276D01*
X52706334Y-40116276D02*
X52747458Y-40034029D01*
X52747458Y-40034029D02*
X52747458Y-39910657D01*
X52747458Y-39910657D02*
X52706334Y-39828410D01*
X52171725Y-38265705D02*
X52582963Y-38553571D01*
X52171725Y-38759190D02*
X53035325Y-38759190D01*
X53035325Y-38759190D02*
X53035325Y-38430200D01*
X53035325Y-38430200D02*
X52994201Y-38347952D01*
X52994201Y-38347952D02*
X52953077Y-38306829D01*
X52953077Y-38306829D02*
X52870829Y-38265705D01*
X52870829Y-38265705D02*
X52747458Y-38265705D01*
X52747458Y-38265705D02*
X52665210Y-38306829D01*
X52665210Y-38306829D02*
X52624087Y-38347952D01*
X52624087Y-38347952D02*
X52582963Y-38430200D01*
X52582963Y-38430200D02*
X52582963Y-38759190D01*
X52171725Y-37772219D02*
X52212849Y-37854467D01*
X52212849Y-37854467D02*
X52253972Y-37895590D01*
X52253972Y-37895590D02*
X52336220Y-37936714D01*
X52336220Y-37936714D02*
X52582963Y-37936714D01*
X52582963Y-37936714D02*
X52665210Y-37895590D01*
X52665210Y-37895590D02*
X52706334Y-37854467D01*
X52706334Y-37854467D02*
X52747458Y-37772219D01*
X52747458Y-37772219D02*
X52747458Y-37648848D01*
X52747458Y-37648848D02*
X52706334Y-37566600D01*
X52706334Y-37566600D02*
X52665210Y-37525476D01*
X52665210Y-37525476D02*
X52582963Y-37484352D01*
X52582963Y-37484352D02*
X52336220Y-37484352D01*
X52336220Y-37484352D02*
X52253972Y-37525476D01*
X52253972Y-37525476D02*
X52212849Y-37566600D01*
X52212849Y-37566600D02*
X52171725Y-37648848D01*
X52171725Y-37648848D02*
X52171725Y-37772219D01*
X52747458Y-37196486D02*
X52171725Y-36990867D01*
X52171725Y-36990867D02*
X52747458Y-36785248D01*
X52212849Y-36127267D02*
X52171725Y-36209515D01*
X52171725Y-36209515D02*
X52171725Y-36374010D01*
X52171725Y-36374010D02*
X52212849Y-36456257D01*
X52212849Y-36456257D02*
X52295096Y-36497381D01*
X52295096Y-36497381D02*
X52624087Y-36497381D01*
X52624087Y-36497381D02*
X52706334Y-36456257D01*
X52706334Y-36456257D02*
X52747458Y-36374010D01*
X52747458Y-36374010D02*
X52747458Y-36209515D01*
X52747458Y-36209515D02*
X52706334Y-36127267D01*
X52706334Y-36127267D02*
X52624087Y-36086143D01*
X52624087Y-36086143D02*
X52541839Y-36086143D01*
X52541839Y-36086143D02*
X52459591Y-36497381D01*
X52171725Y-35716028D02*
X52747458Y-35716028D01*
X52582963Y-35716028D02*
X52665210Y-35674905D01*
X52665210Y-35674905D02*
X52706334Y-35633781D01*
X52706334Y-35633781D02*
X52747458Y-35551533D01*
X52747458Y-35551533D02*
X52747458Y-35469286D01*
X52171725Y-34523437D02*
X53035325Y-34523437D01*
X53035325Y-34523437D02*
X53035325Y-34317818D01*
X53035325Y-34317818D02*
X52994201Y-34194447D01*
X52994201Y-34194447D02*
X52911953Y-34112199D01*
X52911953Y-34112199D02*
X52829706Y-34071076D01*
X52829706Y-34071076D02*
X52665210Y-34029952D01*
X52665210Y-34029952D02*
X52541839Y-34029952D01*
X52541839Y-34029952D02*
X52377344Y-34071076D01*
X52377344Y-34071076D02*
X52295096Y-34112199D01*
X52295096Y-34112199D02*
X52212849Y-34194447D01*
X52212849Y-34194447D02*
X52171725Y-34317818D01*
X52171725Y-34317818D02*
X52171725Y-34523437D01*
X52212849Y-33330847D02*
X52171725Y-33413095D01*
X52171725Y-33413095D02*
X52171725Y-33577590D01*
X52171725Y-33577590D02*
X52212849Y-33659837D01*
X52212849Y-33659837D02*
X52295096Y-33700961D01*
X52295096Y-33700961D02*
X52624087Y-33700961D01*
X52624087Y-33700961D02*
X52706334Y-33659837D01*
X52706334Y-33659837D02*
X52747458Y-33577590D01*
X52747458Y-33577590D02*
X52747458Y-33413095D01*
X52747458Y-33413095D02*
X52706334Y-33330847D01*
X52706334Y-33330847D02*
X52624087Y-33289723D01*
X52624087Y-33289723D02*
X52541839Y-33289723D01*
X52541839Y-33289723D02*
X52459591Y-33700961D01*
X52212849Y-32960732D02*
X52171725Y-32878485D01*
X52171725Y-32878485D02*
X52171725Y-32713989D01*
X52171725Y-32713989D02*
X52212849Y-32631742D01*
X52212849Y-32631742D02*
X52295096Y-32590618D01*
X52295096Y-32590618D02*
X52336220Y-32590618D01*
X52336220Y-32590618D02*
X52418468Y-32631742D01*
X52418468Y-32631742D02*
X52459591Y-32713989D01*
X52459591Y-32713989D02*
X52459591Y-32837361D01*
X52459591Y-32837361D02*
X52500715Y-32919608D01*
X52500715Y-32919608D02*
X52582963Y-32960732D01*
X52582963Y-32960732D02*
X52624087Y-32960732D01*
X52624087Y-32960732D02*
X52706334Y-32919608D01*
X52706334Y-32919608D02*
X52747458Y-32837361D01*
X52747458Y-32837361D02*
X52747458Y-32713989D01*
X52747458Y-32713989D02*
X52706334Y-32631742D01*
X52171725Y-32220503D02*
X52747458Y-32220503D01*
X53035325Y-32220503D02*
X52994201Y-32261627D01*
X52994201Y-32261627D02*
X52953077Y-32220503D01*
X52953077Y-32220503D02*
X52994201Y-32179380D01*
X52994201Y-32179380D02*
X53035325Y-32220503D01*
X53035325Y-32220503D02*
X52953077Y-32220503D01*
X52747458Y-31439151D02*
X52048353Y-31439151D01*
X52048353Y-31439151D02*
X51966106Y-31480275D01*
X51966106Y-31480275D02*
X51924982Y-31521399D01*
X51924982Y-31521399D02*
X51883858Y-31603646D01*
X51883858Y-31603646D02*
X51883858Y-31727018D01*
X51883858Y-31727018D02*
X51924982Y-31809265D01*
X52212849Y-31439151D02*
X52171725Y-31521399D01*
X52171725Y-31521399D02*
X52171725Y-31685894D01*
X52171725Y-31685894D02*
X52212849Y-31768142D01*
X52212849Y-31768142D02*
X52253972Y-31809265D01*
X52253972Y-31809265D02*
X52336220Y-31850389D01*
X52336220Y-31850389D02*
X52582963Y-31850389D01*
X52582963Y-31850389D02*
X52665210Y-31809265D01*
X52665210Y-31809265D02*
X52706334Y-31768142D01*
X52706334Y-31768142D02*
X52747458Y-31685894D01*
X52747458Y-31685894D02*
X52747458Y-31521399D01*
X52747458Y-31521399D02*
X52706334Y-31439151D01*
X52747458Y-31027913D02*
X52171725Y-31027913D01*
X52665210Y-31027913D02*
X52706334Y-30986790D01*
X52706334Y-30986790D02*
X52747458Y-30904542D01*
X52747458Y-30904542D02*
X52747458Y-30781171D01*
X52747458Y-30781171D02*
X52706334Y-30698923D01*
X52706334Y-30698923D02*
X52624087Y-30657799D01*
X52624087Y-30657799D02*
X52171725Y-30657799D01*
X53035325Y-29711952D02*
X53035325Y-29218466D01*
X52171725Y-29465209D02*
X53035325Y-29465209D01*
X52212849Y-28601609D02*
X52171725Y-28683857D01*
X52171725Y-28683857D02*
X52171725Y-28848352D01*
X52171725Y-28848352D02*
X52212849Y-28930599D01*
X52212849Y-28930599D02*
X52295096Y-28971723D01*
X52295096Y-28971723D02*
X52624087Y-28971723D01*
X52624087Y-28971723D02*
X52706334Y-28930599D01*
X52706334Y-28930599D02*
X52747458Y-28848352D01*
X52747458Y-28848352D02*
X52747458Y-28683857D01*
X52747458Y-28683857D02*
X52706334Y-28601609D01*
X52706334Y-28601609D02*
X52624087Y-28560485D01*
X52624087Y-28560485D02*
X52541839Y-28560485D01*
X52541839Y-28560485D02*
X52459591Y-28971723D01*
X52171725Y-27820256D02*
X52624087Y-27820256D01*
X52624087Y-27820256D02*
X52706334Y-27861380D01*
X52706334Y-27861380D02*
X52747458Y-27943628D01*
X52747458Y-27943628D02*
X52747458Y-28108123D01*
X52747458Y-28108123D02*
X52706334Y-28190370D01*
X52212849Y-27820256D02*
X52171725Y-27902504D01*
X52171725Y-27902504D02*
X52171725Y-28108123D01*
X52171725Y-28108123D02*
X52212849Y-28190370D01*
X52212849Y-28190370D02*
X52295096Y-28231494D01*
X52295096Y-28231494D02*
X52377344Y-28231494D01*
X52377344Y-28231494D02*
X52459591Y-28190370D01*
X52459591Y-28190370D02*
X52500715Y-28108123D01*
X52500715Y-28108123D02*
X52500715Y-27902504D01*
X52500715Y-27902504D02*
X52541839Y-27820256D01*
X52171725Y-27409018D02*
X52747458Y-27409018D01*
X52665210Y-27409018D02*
X52706334Y-27367895D01*
X52706334Y-27367895D02*
X52747458Y-27285647D01*
X52747458Y-27285647D02*
X52747458Y-27162276D01*
X52747458Y-27162276D02*
X52706334Y-27080028D01*
X52706334Y-27080028D02*
X52624087Y-27038904D01*
X52624087Y-27038904D02*
X52171725Y-27038904D01*
X52624087Y-27038904D02*
X52706334Y-26997780D01*
X52706334Y-26997780D02*
X52747458Y-26915533D01*
X52747458Y-26915533D02*
X52747458Y-26792161D01*
X52747458Y-26792161D02*
X52706334Y-26709914D01*
X52706334Y-26709914D02*
X52624087Y-26668790D01*
X52624087Y-26668790D02*
X52171725Y-26668790D01*
X50781329Y-40774255D02*
X51644929Y-40774255D01*
X51644929Y-40774255D02*
X51028072Y-40486389D01*
X51028072Y-40486389D02*
X51644929Y-40198522D01*
X51644929Y-40198522D02*
X50781329Y-40198522D01*
X50781329Y-39787284D02*
X51357062Y-39787284D01*
X51644929Y-39787284D02*
X51603805Y-39828408D01*
X51603805Y-39828408D02*
X51562681Y-39787284D01*
X51562681Y-39787284D02*
X51603805Y-39746161D01*
X51603805Y-39746161D02*
X51644929Y-39787284D01*
X51644929Y-39787284D02*
X51562681Y-39787284D01*
X50822453Y-39417170D02*
X50781329Y-39334923D01*
X50781329Y-39334923D02*
X50781329Y-39170427D01*
X50781329Y-39170427D02*
X50822453Y-39088180D01*
X50822453Y-39088180D02*
X50904700Y-39047056D01*
X50904700Y-39047056D02*
X50945824Y-39047056D01*
X50945824Y-39047056D02*
X51028072Y-39088180D01*
X51028072Y-39088180D02*
X51069195Y-39170427D01*
X51069195Y-39170427D02*
X51069195Y-39293799D01*
X51069195Y-39293799D02*
X51110319Y-39376046D01*
X51110319Y-39376046D02*
X51192567Y-39417170D01*
X51192567Y-39417170D02*
X51233691Y-39417170D01*
X51233691Y-39417170D02*
X51315938Y-39376046D01*
X51315938Y-39376046D02*
X51357062Y-39293799D01*
X51357062Y-39293799D02*
X51357062Y-39170427D01*
X51357062Y-39170427D02*
X51315938Y-39088180D01*
X50822453Y-38718065D02*
X50781329Y-38635818D01*
X50781329Y-38635818D02*
X50781329Y-38471322D01*
X50781329Y-38471322D02*
X50822453Y-38389075D01*
X50822453Y-38389075D02*
X50904700Y-38347951D01*
X50904700Y-38347951D02*
X50945824Y-38347951D01*
X50945824Y-38347951D02*
X51028072Y-38389075D01*
X51028072Y-38389075D02*
X51069195Y-38471322D01*
X51069195Y-38471322D02*
X51069195Y-38594694D01*
X51069195Y-38594694D02*
X51110319Y-38676941D01*
X51110319Y-38676941D02*
X51192567Y-38718065D01*
X51192567Y-38718065D02*
X51233691Y-38718065D01*
X51233691Y-38718065D02*
X51315938Y-38676941D01*
X51315938Y-38676941D02*
X51357062Y-38594694D01*
X51357062Y-38594694D02*
X51357062Y-38471322D01*
X51357062Y-38471322D02*
X51315938Y-38389075D01*
X50781329Y-37854465D02*
X50822453Y-37936713D01*
X50822453Y-37936713D02*
X50863576Y-37977836D01*
X50863576Y-37977836D02*
X50945824Y-38018960D01*
X50945824Y-38018960D02*
X51192567Y-38018960D01*
X51192567Y-38018960D02*
X51274814Y-37977836D01*
X51274814Y-37977836D02*
X51315938Y-37936713D01*
X51315938Y-37936713D02*
X51357062Y-37854465D01*
X51357062Y-37854465D02*
X51357062Y-37731094D01*
X51357062Y-37731094D02*
X51315938Y-37648846D01*
X51315938Y-37648846D02*
X51274814Y-37607722D01*
X51274814Y-37607722D02*
X51192567Y-37566598D01*
X51192567Y-37566598D02*
X50945824Y-37566598D01*
X50945824Y-37566598D02*
X50863576Y-37607722D01*
X50863576Y-37607722D02*
X50822453Y-37648846D01*
X50822453Y-37648846D02*
X50781329Y-37731094D01*
X50781329Y-37731094D02*
X50781329Y-37854465D01*
X51357062Y-36826370D02*
X50781329Y-36826370D01*
X51357062Y-37196484D02*
X50904700Y-37196484D01*
X50904700Y-37196484D02*
X50822453Y-37155361D01*
X50822453Y-37155361D02*
X50781329Y-37073113D01*
X50781329Y-37073113D02*
X50781329Y-36949742D01*
X50781329Y-36949742D02*
X50822453Y-36867494D01*
X50822453Y-36867494D02*
X50863576Y-36826370D01*
X50781329Y-36415132D02*
X51357062Y-36415132D01*
X51192567Y-36415132D02*
X51274814Y-36374009D01*
X51274814Y-36374009D02*
X51315938Y-36332885D01*
X51315938Y-36332885D02*
X51357062Y-36250637D01*
X51357062Y-36250637D02*
X51357062Y-36168390D01*
X50781329Y-35880522D02*
X51357062Y-35880522D01*
X51644929Y-35880522D02*
X51603805Y-35921646D01*
X51603805Y-35921646D02*
X51562681Y-35880522D01*
X51562681Y-35880522D02*
X51603805Y-35839399D01*
X51603805Y-35839399D02*
X51644929Y-35880522D01*
X51644929Y-35880522D02*
X51562681Y-35880522D01*
X50822453Y-34852427D02*
X50781329Y-34729056D01*
X50781329Y-34729056D02*
X50781329Y-34523437D01*
X50781329Y-34523437D02*
X50822453Y-34441189D01*
X50822453Y-34441189D02*
X50863576Y-34400065D01*
X50863576Y-34400065D02*
X50945824Y-34358942D01*
X50945824Y-34358942D02*
X51028072Y-34358942D01*
X51028072Y-34358942D02*
X51110319Y-34400065D01*
X51110319Y-34400065D02*
X51151443Y-34441189D01*
X51151443Y-34441189D02*
X51192567Y-34523437D01*
X51192567Y-34523437D02*
X51233691Y-34687932D01*
X51233691Y-34687932D02*
X51274814Y-34770180D01*
X51274814Y-34770180D02*
X51315938Y-34811303D01*
X51315938Y-34811303D02*
X51398186Y-34852427D01*
X51398186Y-34852427D02*
X51480433Y-34852427D01*
X51480433Y-34852427D02*
X51562681Y-34811303D01*
X51562681Y-34811303D02*
X51603805Y-34770180D01*
X51603805Y-34770180D02*
X51644929Y-34687932D01*
X51644929Y-34687932D02*
X51644929Y-34482313D01*
X51644929Y-34482313D02*
X51603805Y-34358942D01*
X50781329Y-33289723D02*
X50781329Y-33330847D01*
X50781329Y-33330847D02*
X50822453Y-33413094D01*
X50822453Y-33413094D02*
X50945824Y-33536466D01*
X50945824Y-33536466D02*
X51192567Y-33742085D01*
X51192567Y-33742085D02*
X51315938Y-33824332D01*
X51315938Y-33824332D02*
X51439310Y-33865456D01*
X51439310Y-33865456D02*
X51521557Y-33865456D01*
X51521557Y-33865456D02*
X51603805Y-33824332D01*
X51603805Y-33824332D02*
X51644929Y-33742085D01*
X51644929Y-33742085D02*
X51644929Y-33700961D01*
X51644929Y-33700961D02*
X51603805Y-33618713D01*
X51603805Y-33618713D02*
X51521557Y-33577589D01*
X51521557Y-33577589D02*
X51480433Y-33577589D01*
X51480433Y-33577589D02*
X51398186Y-33618713D01*
X51398186Y-33618713D02*
X51357062Y-33659837D01*
X51357062Y-33659837D02*
X51192567Y-33906580D01*
X51192567Y-33906580D02*
X51151443Y-33947704D01*
X51151443Y-33947704D02*
X51069195Y-33988827D01*
X51069195Y-33988827D02*
X50945824Y-33988827D01*
X50945824Y-33988827D02*
X50863576Y-33947704D01*
X50863576Y-33947704D02*
X50822453Y-33906580D01*
X50822453Y-33906580D02*
X50781329Y-33824332D01*
X50781329Y-33824332D02*
X50781329Y-33700961D01*
X50781329Y-33700961D02*
X50822453Y-33618713D01*
X50822453Y-33618713D02*
X50863576Y-33577589D01*
X50863576Y-33577589D02*
X51028072Y-33454218D01*
X51028072Y-33454218D02*
X51151443Y-33413094D01*
X51151443Y-33413094D02*
X51233691Y-33413094D01*
X51644929Y-33042980D02*
X51644929Y-32549494D01*
X50781329Y-32796237D02*
X51644929Y-32796237D01*
X50822453Y-32220504D02*
X50781329Y-32220504D01*
X50781329Y-32220504D02*
X50699081Y-32261627D01*
X50699081Y-32261627D02*
X50657957Y-32302751D01*
X51562681Y-31233532D02*
X51603805Y-31192408D01*
X51603805Y-31192408D02*
X51644929Y-31110161D01*
X51644929Y-31110161D02*
X51644929Y-30904542D01*
X51644929Y-30904542D02*
X51603805Y-30822294D01*
X51603805Y-30822294D02*
X51562681Y-30781170D01*
X51562681Y-30781170D02*
X51480433Y-30740047D01*
X51480433Y-30740047D02*
X51398186Y-30740047D01*
X51398186Y-30740047D02*
X51274814Y-30781170D01*
X51274814Y-30781170D02*
X50781329Y-31274656D01*
X50781329Y-31274656D02*
X50781329Y-30740047D01*
X51644929Y-30205437D02*
X51644929Y-30123190D01*
X51644929Y-30123190D02*
X51603805Y-30040942D01*
X51603805Y-30040942D02*
X51562681Y-29999818D01*
X51562681Y-29999818D02*
X51480433Y-29958694D01*
X51480433Y-29958694D02*
X51315938Y-29917571D01*
X51315938Y-29917571D02*
X51110319Y-29917571D01*
X51110319Y-29917571D02*
X50945824Y-29958694D01*
X50945824Y-29958694D02*
X50863576Y-29999818D01*
X50863576Y-29999818D02*
X50822453Y-30040942D01*
X50822453Y-30040942D02*
X50781329Y-30123190D01*
X50781329Y-30123190D02*
X50781329Y-30205437D01*
X50781329Y-30205437D02*
X50822453Y-30287685D01*
X50822453Y-30287685D02*
X50863576Y-30328809D01*
X50863576Y-30328809D02*
X50945824Y-30369932D01*
X50945824Y-30369932D02*
X51110319Y-30411056D01*
X51110319Y-30411056D02*
X51315938Y-30411056D01*
X51315938Y-30411056D02*
X51480433Y-30369932D01*
X51480433Y-30369932D02*
X51562681Y-30328809D01*
X51562681Y-30328809D02*
X51603805Y-30287685D01*
X51603805Y-30287685D02*
X51644929Y-30205437D01*
X51562681Y-29588580D02*
X51603805Y-29547456D01*
X51603805Y-29547456D02*
X51644929Y-29465209D01*
X51644929Y-29465209D02*
X51644929Y-29259590D01*
X51644929Y-29259590D02*
X51603805Y-29177342D01*
X51603805Y-29177342D02*
X51562681Y-29136218D01*
X51562681Y-29136218D02*
X51480433Y-29095095D01*
X51480433Y-29095095D02*
X51398186Y-29095095D01*
X51398186Y-29095095D02*
X51274814Y-29136218D01*
X51274814Y-29136218D02*
X50781329Y-29629704D01*
X50781329Y-29629704D02*
X50781329Y-29095095D01*
X51644929Y-28807228D02*
X51644929Y-28272619D01*
X51644929Y-28272619D02*
X51315938Y-28560485D01*
X51315938Y-28560485D02*
X51315938Y-28437114D01*
X51315938Y-28437114D02*
X51274814Y-28354866D01*
X51274814Y-28354866D02*
X51233691Y-28313742D01*
X51233691Y-28313742D02*
X51151443Y-28272619D01*
X51151443Y-28272619D02*
X50945824Y-28272619D01*
X50945824Y-28272619D02*
X50863576Y-28313742D01*
X50863576Y-28313742D02*
X50822453Y-28354866D01*
X50822453Y-28354866D02*
X50781329Y-28437114D01*
X50781329Y-28437114D02*
X50781329Y-28683857D01*
X50781329Y-28683857D02*
X50822453Y-28766104D01*
X50822453Y-28766104D02*
X50863576Y-28807228D01*
X49473180Y-37977838D02*
X49432057Y-38018962D01*
X49432057Y-38018962D02*
X49390933Y-38142333D01*
X49390933Y-38142333D02*
X49390933Y-38224581D01*
X49390933Y-38224581D02*
X49432057Y-38347952D01*
X49432057Y-38347952D02*
X49514304Y-38430200D01*
X49514304Y-38430200D02*
X49596552Y-38471323D01*
X49596552Y-38471323D02*
X49761047Y-38512447D01*
X49761047Y-38512447D02*
X49884418Y-38512447D01*
X49884418Y-38512447D02*
X50048914Y-38471323D01*
X50048914Y-38471323D02*
X50131161Y-38430200D01*
X50131161Y-38430200D02*
X50213409Y-38347952D01*
X50213409Y-38347952D02*
X50254533Y-38224581D01*
X50254533Y-38224581D02*
X50254533Y-38142333D01*
X50254533Y-38142333D02*
X50213409Y-38018962D01*
X50213409Y-38018962D02*
X50172285Y-37977838D01*
X49390933Y-37237609D02*
X49843295Y-37237609D01*
X49843295Y-37237609D02*
X49925542Y-37278733D01*
X49925542Y-37278733D02*
X49966666Y-37360981D01*
X49966666Y-37360981D02*
X49966666Y-37525476D01*
X49966666Y-37525476D02*
X49925542Y-37607723D01*
X49432057Y-37237609D02*
X49390933Y-37319857D01*
X49390933Y-37319857D02*
X49390933Y-37525476D01*
X49390933Y-37525476D02*
X49432057Y-37607723D01*
X49432057Y-37607723D02*
X49514304Y-37648847D01*
X49514304Y-37648847D02*
X49596552Y-37648847D01*
X49596552Y-37648847D02*
X49678799Y-37607723D01*
X49678799Y-37607723D02*
X49719923Y-37525476D01*
X49719923Y-37525476D02*
X49719923Y-37319857D01*
X49719923Y-37319857D02*
X49761047Y-37237609D01*
X49390933Y-36703000D02*
X49432057Y-36785248D01*
X49432057Y-36785248D02*
X49514304Y-36826371D01*
X49514304Y-36826371D02*
X50254533Y-36826371D01*
X49432057Y-36045019D02*
X49390933Y-36127267D01*
X49390933Y-36127267D02*
X49390933Y-36291762D01*
X49390933Y-36291762D02*
X49432057Y-36374009D01*
X49432057Y-36374009D02*
X49514304Y-36415133D01*
X49514304Y-36415133D02*
X49843295Y-36415133D01*
X49843295Y-36415133D02*
X49925542Y-36374009D01*
X49925542Y-36374009D02*
X49966666Y-36291762D01*
X49966666Y-36291762D02*
X49966666Y-36127267D01*
X49966666Y-36127267D02*
X49925542Y-36045019D01*
X49925542Y-36045019D02*
X49843295Y-36003895D01*
X49843295Y-36003895D02*
X49761047Y-36003895D01*
X49761047Y-36003895D02*
X49678799Y-36415133D01*
X49390933Y-35633780D02*
X50254533Y-35633780D01*
X49925542Y-35633780D02*
X49966666Y-35551533D01*
X49966666Y-35551533D02*
X49966666Y-35387038D01*
X49966666Y-35387038D02*
X49925542Y-35304790D01*
X49925542Y-35304790D02*
X49884418Y-35263666D01*
X49884418Y-35263666D02*
X49802171Y-35222542D01*
X49802171Y-35222542D02*
X49555428Y-35222542D01*
X49555428Y-35222542D02*
X49473180Y-35263666D01*
X49473180Y-35263666D02*
X49432057Y-35304790D01*
X49432057Y-35304790D02*
X49390933Y-35387038D01*
X49390933Y-35387038D02*
X49390933Y-35551533D01*
X49390933Y-35551533D02*
X49432057Y-35633780D01*
X49843295Y-34194447D02*
X49843295Y-33906581D01*
X49390933Y-33783209D02*
X49390933Y-34194447D01*
X49390933Y-34194447D02*
X50254533Y-34194447D01*
X50254533Y-34194447D02*
X50254533Y-33783209D01*
X49390933Y-33413095D02*
X50254533Y-33413095D01*
X49390933Y-33042981D02*
X49843295Y-33042981D01*
X49843295Y-33042981D02*
X49925542Y-33084105D01*
X49925542Y-33084105D02*
X49966666Y-33166353D01*
X49966666Y-33166353D02*
X49966666Y-33289724D01*
X49966666Y-33289724D02*
X49925542Y-33371972D01*
X49925542Y-33371972D02*
X49884418Y-33413095D01*
X49390933Y-32508372D02*
X49432057Y-32590620D01*
X49432057Y-32590620D02*
X49514304Y-32631743D01*
X49514304Y-32631743D02*
X50254533Y-32631743D01*
X49432057Y-31850391D02*
X49390933Y-31932639D01*
X49390933Y-31932639D02*
X49390933Y-32097134D01*
X49390933Y-32097134D02*
X49432057Y-32179381D01*
X49432057Y-32179381D02*
X49514304Y-32220505D01*
X49514304Y-32220505D02*
X49843295Y-32220505D01*
X49843295Y-32220505D02*
X49925542Y-32179381D01*
X49925542Y-32179381D02*
X49966666Y-32097134D01*
X49966666Y-32097134D02*
X49966666Y-31932639D01*
X49966666Y-31932639D02*
X49925542Y-31850391D01*
X49925542Y-31850391D02*
X49843295Y-31809267D01*
X49843295Y-31809267D02*
X49761047Y-31809267D01*
X49761047Y-31809267D02*
X49678799Y-32220505D01*
X49390933Y-31439152D02*
X49966666Y-31439152D01*
X49802171Y-31439152D02*
X49884418Y-31398029D01*
X49884418Y-31398029D02*
X49925542Y-31356905D01*
X49925542Y-31356905D02*
X49966666Y-31274657D01*
X49966666Y-31274657D02*
X49966666Y-31192410D01*
X49432057Y-30945666D02*
X49390933Y-30863419D01*
X49390933Y-30863419D02*
X49390933Y-30698923D01*
X49390933Y-30698923D02*
X49432057Y-30616676D01*
X49432057Y-30616676D02*
X49514304Y-30575552D01*
X49514304Y-30575552D02*
X49555428Y-30575552D01*
X49555428Y-30575552D02*
X49637676Y-30616676D01*
X49637676Y-30616676D02*
X49678799Y-30698923D01*
X49678799Y-30698923D02*
X49678799Y-30822295D01*
X49678799Y-30822295D02*
X49719923Y-30904542D01*
X49719923Y-30904542D02*
X49802171Y-30945666D01*
X49802171Y-30945666D02*
X49843295Y-30945666D01*
X49843295Y-30945666D02*
X49925542Y-30904542D01*
X49925542Y-30904542D02*
X49966666Y-30822295D01*
X49966666Y-30822295D02*
X49966666Y-30698923D01*
X49966666Y-30698923D02*
X49925542Y-30616676D01*
D12*
X74434458Y-46519095D02*
X74196363Y-47519095D01*
X74196363Y-47519095D02*
X74005887Y-46804809D01*
X74005887Y-46804809D02*
X73815411Y-47519095D01*
X73815411Y-47519095D02*
X73577316Y-46519095D01*
X72767792Y-47519095D02*
X72767792Y-46995285D01*
X72767792Y-46995285D02*
X72815411Y-46900047D01*
X72815411Y-46900047D02*
X72910649Y-46852428D01*
X72910649Y-46852428D02*
X73101125Y-46852428D01*
X73101125Y-46852428D02*
X73196363Y-46900047D01*
X72767792Y-47471476D02*
X72863030Y-47519095D01*
X72863030Y-47519095D02*
X73101125Y-47519095D01*
X73101125Y-47519095D02*
X73196363Y-47471476D01*
X73196363Y-47471476D02*
X73243982Y-47376237D01*
X73243982Y-47376237D02*
X73243982Y-47280999D01*
X73243982Y-47280999D02*
X73196363Y-47185761D01*
X73196363Y-47185761D02*
X73101125Y-47138142D01*
X73101125Y-47138142D02*
X72863030Y-47138142D01*
X72863030Y-47138142D02*
X72767792Y-47090523D01*
X72291601Y-47519095D02*
X72291601Y-46852428D01*
X72291601Y-47042904D02*
X72243982Y-46947666D01*
X72243982Y-46947666D02*
X72196363Y-46900047D01*
X72196363Y-46900047D02*
X72101125Y-46852428D01*
X72101125Y-46852428D02*
X72005887Y-46852428D01*
X71672553Y-46852428D02*
X71672553Y-47519095D01*
X71672553Y-46947666D02*
X71624934Y-46900047D01*
X71624934Y-46900047D02*
X71529696Y-46852428D01*
X71529696Y-46852428D02*
X71386839Y-46852428D01*
X71386839Y-46852428D02*
X71291601Y-46900047D01*
X71291601Y-46900047D02*
X71243982Y-46995285D01*
X71243982Y-46995285D02*
X71243982Y-47519095D01*
X70767791Y-47519095D02*
X70767791Y-46852428D01*
X70767791Y-46519095D02*
X70815410Y-46566714D01*
X70815410Y-46566714D02*
X70767791Y-46614333D01*
X70767791Y-46614333D02*
X70720172Y-46566714D01*
X70720172Y-46566714D02*
X70767791Y-46519095D01*
X70767791Y-46519095D02*
X70767791Y-46614333D01*
X70291601Y-46852428D02*
X70291601Y-47519095D01*
X70291601Y-46947666D02*
X70243982Y-46900047D01*
X70243982Y-46900047D02*
X70148744Y-46852428D01*
X70148744Y-46852428D02*
X70005887Y-46852428D01*
X70005887Y-46852428D02*
X69910649Y-46900047D01*
X69910649Y-46900047D02*
X69863030Y-46995285D01*
X69863030Y-46995285D02*
X69863030Y-47519095D01*
X68958268Y-46852428D02*
X68958268Y-47661952D01*
X68958268Y-47661952D02*
X69005887Y-47757190D01*
X69005887Y-47757190D02*
X69053506Y-47804809D01*
X69053506Y-47804809D02*
X69148744Y-47852428D01*
X69148744Y-47852428D02*
X69291601Y-47852428D01*
X69291601Y-47852428D02*
X69386839Y-47804809D01*
X68958268Y-47471476D02*
X69053506Y-47519095D01*
X69053506Y-47519095D02*
X69243982Y-47519095D01*
X69243982Y-47519095D02*
X69339220Y-47471476D01*
X69339220Y-47471476D02*
X69386839Y-47423856D01*
X69386839Y-47423856D02*
X69434458Y-47328618D01*
X69434458Y-47328618D02*
X69434458Y-47042904D01*
X69434458Y-47042904D02*
X69386839Y-46947666D01*
X69386839Y-46947666D02*
X69339220Y-46900047D01*
X69339220Y-46900047D02*
X69243982Y-46852428D01*
X69243982Y-46852428D02*
X69053506Y-46852428D01*
X69053506Y-46852428D02*
X68958268Y-46900047D01*
X68482077Y-47423856D02*
X68434458Y-47471476D01*
X68434458Y-47471476D02*
X68482077Y-47519095D01*
X68482077Y-47519095D02*
X68529696Y-47471476D01*
X68529696Y-47471476D02*
X68482077Y-47423856D01*
X68482077Y-47423856D02*
X68482077Y-47519095D01*
X68482077Y-47138142D02*
X68529696Y-46566714D01*
X68529696Y-46566714D02*
X68482077Y-46519095D01*
X68482077Y-46519095D02*
X68434458Y-46566714D01*
X68434458Y-46566714D02*
X68482077Y-47138142D01*
X68482077Y-47138142D02*
X68482077Y-46519095D01*
X67386839Y-46519095D02*
X66815411Y-46519095D01*
X67101125Y-47519095D02*
X67101125Y-46519095D01*
X66482077Y-47519095D02*
X66482077Y-46519095D01*
X66053506Y-47519095D02*
X66053506Y-46995285D01*
X66053506Y-46995285D02*
X66101125Y-46900047D01*
X66101125Y-46900047D02*
X66196363Y-46852428D01*
X66196363Y-46852428D02*
X66339220Y-46852428D01*
X66339220Y-46852428D02*
X66434458Y-46900047D01*
X66434458Y-46900047D02*
X66482077Y-46947666D01*
X65577315Y-47519095D02*
X65577315Y-46852428D01*
X65577315Y-46519095D02*
X65624934Y-46566714D01*
X65624934Y-46566714D02*
X65577315Y-46614333D01*
X65577315Y-46614333D02*
X65529696Y-46566714D01*
X65529696Y-46566714D02*
X65577315Y-46519095D01*
X65577315Y-46519095D02*
X65577315Y-46614333D01*
X65148744Y-47471476D02*
X65053506Y-47519095D01*
X65053506Y-47519095D02*
X64863030Y-47519095D01*
X64863030Y-47519095D02*
X64767792Y-47471476D01*
X64767792Y-47471476D02*
X64720173Y-47376237D01*
X64720173Y-47376237D02*
X64720173Y-47328618D01*
X64720173Y-47328618D02*
X64767792Y-47233380D01*
X64767792Y-47233380D02*
X64863030Y-47185761D01*
X64863030Y-47185761D02*
X65005887Y-47185761D01*
X65005887Y-47185761D02*
X65101125Y-47138142D01*
X65101125Y-47138142D02*
X65148744Y-47042904D01*
X65148744Y-47042904D02*
X65148744Y-46995285D01*
X65148744Y-46995285D02*
X65101125Y-46900047D01*
X65101125Y-46900047D02*
X65005887Y-46852428D01*
X65005887Y-46852428D02*
X64863030Y-46852428D01*
X64863030Y-46852428D02*
X64767792Y-46900047D01*
X63529696Y-47519095D02*
X63529696Y-46519095D01*
X63529696Y-46900047D02*
X63434458Y-46852428D01*
X63434458Y-46852428D02*
X63243982Y-46852428D01*
X63243982Y-46852428D02*
X63148744Y-46900047D01*
X63148744Y-46900047D02*
X63101125Y-46947666D01*
X63101125Y-46947666D02*
X63053506Y-47042904D01*
X63053506Y-47042904D02*
X63053506Y-47328618D01*
X63053506Y-47328618D02*
X63101125Y-47423856D01*
X63101125Y-47423856D02*
X63148744Y-47471476D01*
X63148744Y-47471476D02*
X63243982Y-47519095D01*
X63243982Y-47519095D02*
X63434458Y-47519095D01*
X63434458Y-47519095D02*
X63529696Y-47471476D01*
X62482077Y-47519095D02*
X62577315Y-47471476D01*
X62577315Y-47471476D02*
X62624934Y-47423856D01*
X62624934Y-47423856D02*
X62672553Y-47328618D01*
X62672553Y-47328618D02*
X62672553Y-47042904D01*
X62672553Y-47042904D02*
X62624934Y-46947666D01*
X62624934Y-46947666D02*
X62577315Y-46900047D01*
X62577315Y-46900047D02*
X62482077Y-46852428D01*
X62482077Y-46852428D02*
X62339220Y-46852428D01*
X62339220Y-46852428D02*
X62243982Y-46900047D01*
X62243982Y-46900047D02*
X62196363Y-46947666D01*
X62196363Y-46947666D02*
X62148744Y-47042904D01*
X62148744Y-47042904D02*
X62148744Y-47328618D01*
X62148744Y-47328618D02*
X62196363Y-47423856D01*
X62196363Y-47423856D02*
X62243982Y-47471476D01*
X62243982Y-47471476D02*
X62339220Y-47519095D01*
X62339220Y-47519095D02*
X62482077Y-47519095D01*
X61291601Y-47519095D02*
X61291601Y-46995285D01*
X61291601Y-46995285D02*
X61339220Y-46900047D01*
X61339220Y-46900047D02*
X61434458Y-46852428D01*
X61434458Y-46852428D02*
X61624934Y-46852428D01*
X61624934Y-46852428D02*
X61720172Y-46900047D01*
X61291601Y-47471476D02*
X61386839Y-47519095D01*
X61386839Y-47519095D02*
X61624934Y-47519095D01*
X61624934Y-47519095D02*
X61720172Y-47471476D01*
X61720172Y-47471476D02*
X61767791Y-47376237D01*
X61767791Y-47376237D02*
X61767791Y-47280999D01*
X61767791Y-47280999D02*
X61720172Y-47185761D01*
X61720172Y-47185761D02*
X61624934Y-47138142D01*
X61624934Y-47138142D02*
X61386839Y-47138142D01*
X61386839Y-47138142D02*
X61291601Y-47090523D01*
X60815410Y-47519095D02*
X60815410Y-46852428D01*
X60815410Y-47042904D02*
X60767791Y-46947666D01*
X60767791Y-46947666D02*
X60720172Y-46900047D01*
X60720172Y-46900047D02*
X60624934Y-46852428D01*
X60624934Y-46852428D02*
X60529696Y-46852428D01*
X59767791Y-47519095D02*
X59767791Y-46519095D01*
X59767791Y-47471476D02*
X59863029Y-47519095D01*
X59863029Y-47519095D02*
X60053505Y-47519095D01*
X60053505Y-47519095D02*
X60148743Y-47471476D01*
X60148743Y-47471476D02*
X60196362Y-47423856D01*
X60196362Y-47423856D02*
X60243981Y-47328618D01*
X60243981Y-47328618D02*
X60243981Y-47042904D01*
X60243981Y-47042904D02*
X60196362Y-46947666D01*
X60196362Y-46947666D02*
X60148743Y-46900047D01*
X60148743Y-46900047D02*
X60053505Y-46852428D01*
X60053505Y-46852428D02*
X59863029Y-46852428D01*
X59863029Y-46852428D02*
X59767791Y-46900047D01*
X73910649Y-49081476D02*
X74005887Y-49129095D01*
X74005887Y-49129095D02*
X74196363Y-49129095D01*
X74196363Y-49129095D02*
X74291601Y-49081476D01*
X74291601Y-49081476D02*
X74339220Y-49033856D01*
X74339220Y-49033856D02*
X74386839Y-48938618D01*
X74386839Y-48938618D02*
X74386839Y-48652904D01*
X74386839Y-48652904D02*
X74339220Y-48557666D01*
X74339220Y-48557666D02*
X74291601Y-48510047D01*
X74291601Y-48510047D02*
X74196363Y-48462428D01*
X74196363Y-48462428D02*
X74005887Y-48462428D01*
X74005887Y-48462428D02*
X73910649Y-48510047D01*
X73339220Y-49129095D02*
X73434458Y-49081476D01*
X73434458Y-49081476D02*
X73482077Y-49033856D01*
X73482077Y-49033856D02*
X73529696Y-48938618D01*
X73529696Y-48938618D02*
X73529696Y-48652904D01*
X73529696Y-48652904D02*
X73482077Y-48557666D01*
X73482077Y-48557666D02*
X73434458Y-48510047D01*
X73434458Y-48510047D02*
X73339220Y-48462428D01*
X73339220Y-48462428D02*
X73196363Y-48462428D01*
X73196363Y-48462428D02*
X73101125Y-48510047D01*
X73101125Y-48510047D02*
X73053506Y-48557666D01*
X73053506Y-48557666D02*
X73005887Y-48652904D01*
X73005887Y-48652904D02*
X73005887Y-48938618D01*
X73005887Y-48938618D02*
X73053506Y-49033856D01*
X73053506Y-49033856D02*
X73101125Y-49081476D01*
X73101125Y-49081476D02*
X73196363Y-49129095D01*
X73196363Y-49129095D02*
X73339220Y-49129095D01*
X72577315Y-48462428D02*
X72577315Y-49129095D01*
X72577315Y-48557666D02*
X72529696Y-48510047D01*
X72529696Y-48510047D02*
X72434458Y-48462428D01*
X72434458Y-48462428D02*
X72291601Y-48462428D01*
X72291601Y-48462428D02*
X72196363Y-48510047D01*
X72196363Y-48510047D02*
X72148744Y-48605285D01*
X72148744Y-48605285D02*
X72148744Y-49129095D01*
X71815410Y-48462428D02*
X71434458Y-48462428D01*
X71672553Y-48129095D02*
X71672553Y-48986237D01*
X71672553Y-48986237D02*
X71624934Y-49081476D01*
X71624934Y-49081476D02*
X71529696Y-49129095D01*
X71529696Y-49129095D02*
X71434458Y-49129095D01*
X70672553Y-49129095D02*
X70672553Y-48605285D01*
X70672553Y-48605285D02*
X70720172Y-48510047D01*
X70720172Y-48510047D02*
X70815410Y-48462428D01*
X70815410Y-48462428D02*
X71005886Y-48462428D01*
X71005886Y-48462428D02*
X71101124Y-48510047D01*
X70672553Y-49081476D02*
X70767791Y-49129095D01*
X70767791Y-49129095D02*
X71005886Y-49129095D01*
X71005886Y-49129095D02*
X71101124Y-49081476D01*
X71101124Y-49081476D02*
X71148743Y-48986237D01*
X71148743Y-48986237D02*
X71148743Y-48890999D01*
X71148743Y-48890999D02*
X71101124Y-48795761D01*
X71101124Y-48795761D02*
X71005886Y-48748142D01*
X71005886Y-48748142D02*
X70767791Y-48748142D01*
X70767791Y-48748142D02*
X70672553Y-48700523D01*
X70196362Y-49129095D02*
X70196362Y-48462428D01*
X70196362Y-48129095D02*
X70243981Y-48176714D01*
X70243981Y-48176714D02*
X70196362Y-48224333D01*
X70196362Y-48224333D02*
X70148743Y-48176714D01*
X70148743Y-48176714D02*
X70196362Y-48129095D01*
X70196362Y-48129095D02*
X70196362Y-48224333D01*
X69720172Y-48462428D02*
X69720172Y-49129095D01*
X69720172Y-48557666D02*
X69672553Y-48510047D01*
X69672553Y-48510047D02*
X69577315Y-48462428D01*
X69577315Y-48462428D02*
X69434458Y-48462428D01*
X69434458Y-48462428D02*
X69339220Y-48510047D01*
X69339220Y-48510047D02*
X69291601Y-48605285D01*
X69291601Y-48605285D02*
X69291601Y-49129095D01*
X68863029Y-49081476D02*
X68767791Y-49129095D01*
X68767791Y-49129095D02*
X68577315Y-49129095D01*
X68577315Y-49129095D02*
X68482077Y-49081476D01*
X68482077Y-49081476D02*
X68434458Y-48986237D01*
X68434458Y-48986237D02*
X68434458Y-48938618D01*
X68434458Y-48938618D02*
X68482077Y-48843380D01*
X68482077Y-48843380D02*
X68577315Y-48795761D01*
X68577315Y-48795761D02*
X68720172Y-48795761D01*
X68720172Y-48795761D02*
X68815410Y-48748142D01*
X68815410Y-48748142D02*
X68863029Y-48652904D01*
X68863029Y-48652904D02*
X68863029Y-48605285D01*
X68863029Y-48605285D02*
X68815410Y-48510047D01*
X68815410Y-48510047D02*
X68720172Y-48462428D01*
X68720172Y-48462428D02*
X68577315Y-48462428D01*
X68577315Y-48462428D02*
X68482077Y-48510047D01*
X67101124Y-49129095D02*
X67196362Y-49081476D01*
X67196362Y-49081476D02*
X67243981Y-48986237D01*
X67243981Y-48986237D02*
X67243981Y-48129095D01*
X66291600Y-49129095D02*
X66291600Y-48605285D01*
X66291600Y-48605285D02*
X66339219Y-48510047D01*
X66339219Y-48510047D02*
X66434457Y-48462428D01*
X66434457Y-48462428D02*
X66624933Y-48462428D01*
X66624933Y-48462428D02*
X66720171Y-48510047D01*
X66291600Y-49081476D02*
X66386838Y-49129095D01*
X66386838Y-49129095D02*
X66624933Y-49129095D01*
X66624933Y-49129095D02*
X66720171Y-49081476D01*
X66720171Y-49081476D02*
X66767790Y-48986237D01*
X66767790Y-48986237D02*
X66767790Y-48890999D01*
X66767790Y-48890999D02*
X66720171Y-48795761D01*
X66720171Y-48795761D02*
X66624933Y-48748142D01*
X66624933Y-48748142D02*
X66386838Y-48748142D01*
X66386838Y-48748142D02*
X66291600Y-48700523D01*
X65863028Y-49081476D02*
X65767790Y-49129095D01*
X65767790Y-49129095D02*
X65577314Y-49129095D01*
X65577314Y-49129095D02*
X65482076Y-49081476D01*
X65482076Y-49081476D02*
X65434457Y-48986237D01*
X65434457Y-48986237D02*
X65434457Y-48938618D01*
X65434457Y-48938618D02*
X65482076Y-48843380D01*
X65482076Y-48843380D02*
X65577314Y-48795761D01*
X65577314Y-48795761D02*
X65720171Y-48795761D01*
X65720171Y-48795761D02*
X65815409Y-48748142D01*
X65815409Y-48748142D02*
X65863028Y-48652904D01*
X65863028Y-48652904D02*
X65863028Y-48605285D01*
X65863028Y-48605285D02*
X65815409Y-48510047D01*
X65815409Y-48510047D02*
X65720171Y-48462428D01*
X65720171Y-48462428D02*
X65577314Y-48462428D01*
X65577314Y-48462428D02*
X65482076Y-48510047D01*
X64624933Y-49081476D02*
X64720171Y-49129095D01*
X64720171Y-49129095D02*
X64910647Y-49129095D01*
X64910647Y-49129095D02*
X65005885Y-49081476D01*
X65005885Y-49081476D02*
X65053504Y-48986237D01*
X65053504Y-48986237D02*
X65053504Y-48605285D01*
X65053504Y-48605285D02*
X65005885Y-48510047D01*
X65005885Y-48510047D02*
X64910647Y-48462428D01*
X64910647Y-48462428D02*
X64720171Y-48462428D01*
X64720171Y-48462428D02*
X64624933Y-48510047D01*
X64624933Y-48510047D02*
X64577314Y-48605285D01*
X64577314Y-48605285D02*
X64577314Y-48700523D01*
X64577314Y-48700523D02*
X65053504Y-48795761D01*
X64148742Y-49129095D02*
X64148742Y-48462428D01*
X64148742Y-48652904D02*
X64101123Y-48557666D01*
X64101123Y-48557666D02*
X64053504Y-48510047D01*
X64053504Y-48510047D02*
X63958266Y-48462428D01*
X63958266Y-48462428D02*
X63863028Y-48462428D01*
X63577313Y-49081476D02*
X63482075Y-49129095D01*
X63482075Y-49129095D02*
X63291599Y-49129095D01*
X63291599Y-49129095D02*
X63196361Y-49081476D01*
X63196361Y-49081476D02*
X63148742Y-48986237D01*
X63148742Y-48986237D02*
X63148742Y-48938618D01*
X63148742Y-48938618D02*
X63196361Y-48843380D01*
X63196361Y-48843380D02*
X63291599Y-48795761D01*
X63291599Y-48795761D02*
X63434456Y-48795761D01*
X63434456Y-48795761D02*
X63529694Y-48748142D01*
X63529694Y-48748142D02*
X63577313Y-48652904D01*
X63577313Y-48652904D02*
X63577313Y-48605285D01*
X63577313Y-48605285D02*
X63529694Y-48510047D01*
X63529694Y-48510047D02*
X63434456Y-48462428D01*
X63434456Y-48462428D02*
X63291599Y-48462428D01*
X63291599Y-48462428D02*
X63196361Y-48510047D01*
X62101122Y-48462428D02*
X61720170Y-48462428D01*
X61958265Y-48129095D02*
X61958265Y-48986237D01*
X61958265Y-48986237D02*
X61910646Y-49081476D01*
X61910646Y-49081476D02*
X61815408Y-49129095D01*
X61815408Y-49129095D02*
X61720170Y-49129095D01*
X61386836Y-49129095D02*
X61386836Y-48129095D01*
X60958265Y-49129095D02*
X60958265Y-48605285D01*
X60958265Y-48605285D02*
X61005884Y-48510047D01*
X61005884Y-48510047D02*
X61101122Y-48462428D01*
X61101122Y-48462428D02*
X61243979Y-48462428D01*
X61243979Y-48462428D02*
X61339217Y-48510047D01*
X61339217Y-48510047D02*
X61386836Y-48557666D01*
X60053503Y-49129095D02*
X60053503Y-48605285D01*
X60053503Y-48605285D02*
X60101122Y-48510047D01*
X60101122Y-48510047D02*
X60196360Y-48462428D01*
X60196360Y-48462428D02*
X60386836Y-48462428D01*
X60386836Y-48462428D02*
X60482074Y-48510047D01*
X60053503Y-49081476D02*
X60148741Y-49129095D01*
X60148741Y-49129095D02*
X60386836Y-49129095D01*
X60386836Y-49129095D02*
X60482074Y-49081476D01*
X60482074Y-49081476D02*
X60529693Y-48986237D01*
X60529693Y-48986237D02*
X60529693Y-48890999D01*
X60529693Y-48890999D02*
X60482074Y-48795761D01*
X60482074Y-48795761D02*
X60386836Y-48748142D01*
X60386836Y-48748142D02*
X60148741Y-48748142D01*
X60148741Y-48748142D02*
X60053503Y-48700523D01*
X59720169Y-48462428D02*
X59339217Y-48462428D01*
X59577312Y-48129095D02*
X59577312Y-48986237D01*
X59577312Y-48986237D02*
X59529693Y-49081476D01*
X59529693Y-49081476D02*
X59434455Y-49129095D01*
X59434455Y-49129095D02*
X59339217Y-49129095D01*
X74434458Y-50072428D02*
X74243982Y-50739095D01*
X74243982Y-50739095D02*
X74053506Y-50262904D01*
X74053506Y-50262904D02*
X73863030Y-50739095D01*
X73863030Y-50739095D02*
X73672554Y-50072428D01*
X73291601Y-50739095D02*
X73291601Y-50072428D01*
X73291601Y-49739095D02*
X73339220Y-49786714D01*
X73339220Y-49786714D02*
X73291601Y-49834333D01*
X73291601Y-49834333D02*
X73243982Y-49786714D01*
X73243982Y-49786714D02*
X73291601Y-49739095D01*
X73291601Y-49739095D02*
X73291601Y-49834333D01*
X72672554Y-50739095D02*
X72767792Y-50691476D01*
X72767792Y-50691476D02*
X72815411Y-50596237D01*
X72815411Y-50596237D02*
X72815411Y-49739095D01*
X72148744Y-50739095D02*
X72243982Y-50691476D01*
X72243982Y-50691476D02*
X72291601Y-50596237D01*
X72291601Y-50596237D02*
X72291601Y-49739095D01*
X71005886Y-50739095D02*
X71005886Y-49739095D01*
X70577315Y-50739095D02*
X70577315Y-50215285D01*
X70577315Y-50215285D02*
X70624934Y-50120047D01*
X70624934Y-50120047D02*
X70720172Y-50072428D01*
X70720172Y-50072428D02*
X70863029Y-50072428D01*
X70863029Y-50072428D02*
X70958267Y-50120047D01*
X70958267Y-50120047D02*
X71005886Y-50167666D01*
X69672553Y-50072428D02*
X69672553Y-50739095D01*
X70101124Y-50072428D02*
X70101124Y-50596237D01*
X70101124Y-50596237D02*
X70053505Y-50691476D01*
X70053505Y-50691476D02*
X69958267Y-50739095D01*
X69958267Y-50739095D02*
X69815410Y-50739095D01*
X69815410Y-50739095D02*
X69720172Y-50691476D01*
X69720172Y-50691476D02*
X69672553Y-50643856D01*
X69196362Y-50739095D02*
X69196362Y-50072428D01*
X69196362Y-50262904D02*
X69148743Y-50167666D01*
X69148743Y-50167666D02*
X69101124Y-50120047D01*
X69101124Y-50120047D02*
X69005886Y-50072428D01*
X69005886Y-50072428D02*
X68910648Y-50072428D01*
X68720171Y-50072428D02*
X68339219Y-50072428D01*
X68577314Y-49739095D02*
X68577314Y-50596237D01*
X68577314Y-50596237D02*
X68529695Y-50691476D01*
X68529695Y-50691476D02*
X68434457Y-50739095D01*
X68434457Y-50739095D02*
X68339219Y-50739095D01*
X67339218Y-50072428D02*
X67101123Y-50739095D01*
X66863028Y-50072428D02*
X67101123Y-50739095D01*
X67101123Y-50739095D02*
X67196361Y-50977190D01*
X67196361Y-50977190D02*
X67243980Y-51024809D01*
X67243980Y-51024809D02*
X67339218Y-51072428D01*
X66339218Y-50739095D02*
X66434456Y-50691476D01*
X66434456Y-50691476D02*
X66482075Y-50643856D01*
X66482075Y-50643856D02*
X66529694Y-50548618D01*
X66529694Y-50548618D02*
X66529694Y-50262904D01*
X66529694Y-50262904D02*
X66482075Y-50167666D01*
X66482075Y-50167666D02*
X66434456Y-50120047D01*
X66434456Y-50120047D02*
X66339218Y-50072428D01*
X66339218Y-50072428D02*
X66196361Y-50072428D01*
X66196361Y-50072428D02*
X66101123Y-50120047D01*
X66101123Y-50120047D02*
X66053504Y-50167666D01*
X66053504Y-50167666D02*
X66005885Y-50262904D01*
X66005885Y-50262904D02*
X66005885Y-50548618D01*
X66005885Y-50548618D02*
X66053504Y-50643856D01*
X66053504Y-50643856D02*
X66101123Y-50691476D01*
X66101123Y-50691476D02*
X66196361Y-50739095D01*
X66196361Y-50739095D02*
X66339218Y-50739095D01*
X65148742Y-50072428D02*
X65148742Y-50739095D01*
X65577313Y-50072428D02*
X65577313Y-50596237D01*
X65577313Y-50596237D02*
X65529694Y-50691476D01*
X65529694Y-50691476D02*
X65434456Y-50739095D01*
X65434456Y-50739095D02*
X65291599Y-50739095D01*
X65291599Y-50739095D02*
X65196361Y-50691476D01*
X65196361Y-50691476D02*
X65148742Y-50643856D01*
X64672551Y-50739095D02*
X64672551Y-50072428D01*
X64672551Y-50262904D02*
X64624932Y-50167666D01*
X64624932Y-50167666D02*
X64577313Y-50120047D01*
X64577313Y-50120047D02*
X64482075Y-50072428D01*
X64482075Y-50072428D02*
X64386837Y-50072428D01*
X62910646Y-50691476D02*
X63005884Y-50739095D01*
X63005884Y-50739095D02*
X63196360Y-50739095D01*
X63196360Y-50739095D02*
X63291598Y-50691476D01*
X63291598Y-50691476D02*
X63339217Y-50596237D01*
X63339217Y-50596237D02*
X63339217Y-50215285D01*
X63339217Y-50215285D02*
X63291598Y-50120047D01*
X63291598Y-50120047D02*
X63196360Y-50072428D01*
X63196360Y-50072428D02*
X63005884Y-50072428D01*
X63005884Y-50072428D02*
X62910646Y-50120047D01*
X62910646Y-50120047D02*
X62863027Y-50215285D01*
X62863027Y-50215285D02*
X62863027Y-50310523D01*
X62863027Y-50310523D02*
X63339217Y-50405761D01*
X62529693Y-50072428D02*
X62291598Y-50739095D01*
X62053503Y-50072428D02*
X62291598Y-50739095D01*
X62291598Y-50739095D02*
X62386836Y-50977190D01*
X62386836Y-50977190D02*
X62434455Y-51024809D01*
X62434455Y-51024809D02*
X62529693Y-51072428D01*
X61291598Y-50691476D02*
X61386836Y-50739095D01*
X61386836Y-50739095D02*
X61577312Y-50739095D01*
X61577312Y-50739095D02*
X61672550Y-50691476D01*
X61672550Y-50691476D02*
X61720169Y-50596237D01*
X61720169Y-50596237D02*
X61720169Y-50215285D01*
X61720169Y-50215285D02*
X61672550Y-50120047D01*
X61672550Y-50120047D02*
X61577312Y-50072428D01*
X61577312Y-50072428D02*
X61386836Y-50072428D01*
X61386836Y-50072428D02*
X61291598Y-50120047D01*
X61291598Y-50120047D02*
X61243979Y-50215285D01*
X61243979Y-50215285D02*
X61243979Y-50310523D01*
X61243979Y-50310523D02*
X61720169Y-50405761D01*
X60863026Y-50691476D02*
X60767788Y-50739095D01*
X60767788Y-50739095D02*
X60577312Y-50739095D01*
X60577312Y-50739095D02*
X60482074Y-50691476D01*
X60482074Y-50691476D02*
X60434455Y-50596237D01*
X60434455Y-50596237D02*
X60434455Y-50548618D01*
X60434455Y-50548618D02*
X60482074Y-50453380D01*
X60482074Y-50453380D02*
X60577312Y-50405761D01*
X60577312Y-50405761D02*
X60720169Y-50405761D01*
X60720169Y-50405761D02*
X60815407Y-50358142D01*
X60815407Y-50358142D02*
X60863026Y-50262904D01*
X60863026Y-50262904D02*
X60863026Y-50215285D01*
X60863026Y-50215285D02*
X60815407Y-50120047D01*
X60815407Y-50120047D02*
X60720169Y-50072428D01*
X60720169Y-50072428D02*
X60577312Y-50072428D01*
X60577312Y-50072428D02*
X60482074Y-50120047D01*
X60005883Y-50643856D02*
X59958264Y-50691476D01*
X59958264Y-50691476D02*
X60005883Y-50739095D01*
X60005883Y-50739095D02*
X60053502Y-50691476D01*
X60053502Y-50691476D02*
X60005883Y-50643856D01*
X60005883Y-50643856D02*
X60005883Y-50739095D01*
D10*
X62886780Y-35441467D02*
X62886780Y-34981848D01*
X62886780Y-34981848D02*
X63346399Y-34935886D01*
X63346399Y-34935886D02*
X63300438Y-34981848D01*
X63300438Y-34981848D02*
X63254476Y-35073772D01*
X63254476Y-35073772D02*
X63254476Y-35303581D01*
X63254476Y-35303581D02*
X63300438Y-35395505D01*
X63300438Y-35395505D02*
X63346399Y-35441467D01*
X63346399Y-35441467D02*
X63438323Y-35487429D01*
X63438323Y-35487429D02*
X63668133Y-35487429D01*
X63668133Y-35487429D02*
X63760057Y-35441467D01*
X63760057Y-35441467D02*
X63806019Y-35395505D01*
X63806019Y-35395505D02*
X63851980Y-35303581D01*
X63851980Y-35303581D02*
X63851980Y-35073772D01*
X63851980Y-35073772D02*
X63806019Y-34981848D01*
X63806019Y-34981848D02*
X63760057Y-34935886D01*
X62978704Y-35855124D02*
X62932742Y-35901086D01*
X62932742Y-35901086D02*
X62886780Y-35993010D01*
X62886780Y-35993010D02*
X62886780Y-36222819D01*
X62886780Y-36222819D02*
X62932742Y-36314743D01*
X62932742Y-36314743D02*
X62978704Y-36360705D01*
X62978704Y-36360705D02*
X63070628Y-36406667D01*
X63070628Y-36406667D02*
X63162552Y-36406667D01*
X63162552Y-36406667D02*
X63300438Y-36360705D01*
X63300438Y-36360705D02*
X63851980Y-35809162D01*
X63851980Y-35809162D02*
X63851980Y-36406667D01*
X62886780Y-37004172D02*
X62886780Y-37096095D01*
X62886780Y-37096095D02*
X62932742Y-37188019D01*
X62932742Y-37188019D02*
X62978704Y-37233981D01*
X62978704Y-37233981D02*
X63070628Y-37279943D01*
X63070628Y-37279943D02*
X63254476Y-37325905D01*
X63254476Y-37325905D02*
X63484285Y-37325905D01*
X63484285Y-37325905D02*
X63668133Y-37279943D01*
X63668133Y-37279943D02*
X63760057Y-37233981D01*
X63760057Y-37233981D02*
X63806019Y-37188019D01*
X63806019Y-37188019D02*
X63851980Y-37096095D01*
X63851980Y-37096095D02*
X63851980Y-37004172D01*
X63851980Y-37004172D02*
X63806019Y-36912248D01*
X63806019Y-36912248D02*
X63760057Y-36866286D01*
X63760057Y-36866286D02*
X63668133Y-36820324D01*
X63668133Y-36820324D02*
X63484285Y-36774362D01*
X63484285Y-36774362D02*
X63254476Y-36774362D01*
X63254476Y-36774362D02*
X63070628Y-36820324D01*
X63070628Y-36820324D02*
X62978704Y-36866286D01*
X62978704Y-36866286D02*
X62932742Y-36912248D01*
X62932742Y-36912248D02*
X62886780Y-37004172D01*
X63208514Y-37739562D02*
X63851980Y-37739562D01*
X63300438Y-37739562D02*
X63254476Y-37785524D01*
X63254476Y-37785524D02*
X63208514Y-37877448D01*
X63208514Y-37877448D02*
X63208514Y-38015333D01*
X63208514Y-38015333D02*
X63254476Y-38107257D01*
X63254476Y-38107257D02*
X63346399Y-38153219D01*
X63346399Y-38153219D02*
X63851980Y-38153219D01*
X63851980Y-38612838D02*
X63208514Y-38612838D01*
X63300438Y-38612838D02*
X63254476Y-38658800D01*
X63254476Y-38658800D02*
X63208514Y-38750724D01*
X63208514Y-38750724D02*
X63208514Y-38888609D01*
X63208514Y-38888609D02*
X63254476Y-38980533D01*
X63254476Y-38980533D02*
X63346399Y-39026495D01*
X63346399Y-39026495D02*
X63851980Y-39026495D01*
X63346399Y-39026495D02*
X63254476Y-39072457D01*
X63254476Y-39072457D02*
X63208514Y-39164381D01*
X63208514Y-39164381D02*
X63208514Y-39302267D01*
X63208514Y-39302267D02*
X63254476Y-39394190D01*
X63254476Y-39394190D02*
X63346399Y-39440152D01*
X63346399Y-39440152D02*
X63851980Y-39440152D01*
X62932742Y-41140742D02*
X62886780Y-41048818D01*
X62886780Y-41048818D02*
X62886780Y-40910932D01*
X62886780Y-40910932D02*
X62932742Y-40773047D01*
X62932742Y-40773047D02*
X63024666Y-40681123D01*
X63024666Y-40681123D02*
X63116590Y-40635161D01*
X63116590Y-40635161D02*
X63300438Y-40589199D01*
X63300438Y-40589199D02*
X63438323Y-40589199D01*
X63438323Y-40589199D02*
X63622171Y-40635161D01*
X63622171Y-40635161D02*
X63714095Y-40681123D01*
X63714095Y-40681123D02*
X63806019Y-40773047D01*
X63806019Y-40773047D02*
X63851980Y-40910932D01*
X63851980Y-40910932D02*
X63851980Y-41002856D01*
X63851980Y-41002856D02*
X63806019Y-41140742D01*
X63806019Y-41140742D02*
X63760057Y-41186704D01*
X63760057Y-41186704D02*
X63438323Y-41186704D01*
X63438323Y-41186704D02*
X63438323Y-41002856D01*
X63851980Y-41600361D02*
X63208514Y-41600361D01*
X63392361Y-41600361D02*
X63300438Y-41646323D01*
X63300438Y-41646323D02*
X63254476Y-41692285D01*
X63254476Y-41692285D02*
X63208514Y-41784209D01*
X63208514Y-41784209D02*
X63208514Y-41876132D01*
X63806019Y-42565561D02*
X63851980Y-42473637D01*
X63851980Y-42473637D02*
X63851980Y-42289790D01*
X63851980Y-42289790D02*
X63806019Y-42197866D01*
X63806019Y-42197866D02*
X63714095Y-42151904D01*
X63714095Y-42151904D02*
X63346399Y-42151904D01*
X63346399Y-42151904D02*
X63254476Y-42197866D01*
X63254476Y-42197866D02*
X63208514Y-42289790D01*
X63208514Y-42289790D02*
X63208514Y-42473637D01*
X63208514Y-42473637D02*
X63254476Y-42565561D01*
X63254476Y-42565561D02*
X63346399Y-42611523D01*
X63346399Y-42611523D02*
X63438323Y-42611523D01*
X63438323Y-42611523D02*
X63530247Y-42151904D01*
X63806019Y-43392875D02*
X63851980Y-43300951D01*
X63851980Y-43300951D02*
X63851980Y-43117104D01*
X63851980Y-43117104D02*
X63806019Y-43025180D01*
X63806019Y-43025180D02*
X63714095Y-42979218D01*
X63714095Y-42979218D02*
X63346399Y-42979218D01*
X63346399Y-42979218D02*
X63254476Y-43025180D01*
X63254476Y-43025180D02*
X63208514Y-43117104D01*
X63208514Y-43117104D02*
X63208514Y-43300951D01*
X63208514Y-43300951D02*
X63254476Y-43392875D01*
X63254476Y-43392875D02*
X63346399Y-43438837D01*
X63346399Y-43438837D02*
X63438323Y-43438837D01*
X63438323Y-43438837D02*
X63530247Y-42979218D01*
X63208514Y-43852494D02*
X63851980Y-43852494D01*
X63300438Y-43852494D02*
X63254476Y-43898456D01*
X63254476Y-43898456D02*
X63208514Y-43990380D01*
X63208514Y-43990380D02*
X63208514Y-44128265D01*
X63208514Y-44128265D02*
X63254476Y-44220189D01*
X63254476Y-44220189D02*
X63346399Y-44266151D01*
X63346399Y-44266151D02*
X63851980Y-44266151D01*
X65405952Y-37854467D02*
X64440752Y-37854467D01*
X64440752Y-37854467D02*
X64440752Y-38084277D01*
X64440752Y-38084277D02*
X64486714Y-38222162D01*
X64486714Y-38222162D02*
X64578638Y-38314086D01*
X64578638Y-38314086D02*
X64670562Y-38360048D01*
X64670562Y-38360048D02*
X64854410Y-38406010D01*
X64854410Y-38406010D02*
X64992295Y-38406010D01*
X64992295Y-38406010D02*
X65176143Y-38360048D01*
X65176143Y-38360048D02*
X65268067Y-38314086D01*
X65268067Y-38314086D02*
X65359991Y-38222162D01*
X65359991Y-38222162D02*
X65405952Y-38084277D01*
X65405952Y-38084277D02*
X65405952Y-37854467D01*
X65405952Y-38819667D02*
X64762486Y-38819667D01*
X64440752Y-38819667D02*
X64486714Y-38773705D01*
X64486714Y-38773705D02*
X64532676Y-38819667D01*
X64532676Y-38819667D02*
X64486714Y-38865629D01*
X64486714Y-38865629D02*
X64440752Y-38819667D01*
X64440752Y-38819667D02*
X64532676Y-38819667D01*
X65405952Y-39417172D02*
X65359991Y-39325248D01*
X65359991Y-39325248D02*
X65314029Y-39279286D01*
X65314029Y-39279286D02*
X65222105Y-39233324D01*
X65222105Y-39233324D02*
X64946333Y-39233324D01*
X64946333Y-39233324D02*
X64854410Y-39279286D01*
X64854410Y-39279286D02*
X64808448Y-39325248D01*
X64808448Y-39325248D02*
X64762486Y-39417172D01*
X64762486Y-39417172D02*
X64762486Y-39555057D01*
X64762486Y-39555057D02*
X64808448Y-39646981D01*
X64808448Y-39646981D02*
X64854410Y-39692943D01*
X64854410Y-39692943D02*
X64946333Y-39738905D01*
X64946333Y-39738905D02*
X65222105Y-39738905D01*
X65222105Y-39738905D02*
X65314029Y-39692943D01*
X65314029Y-39692943D02*
X65359991Y-39646981D01*
X65359991Y-39646981D02*
X65405952Y-39555057D01*
X65405952Y-39555057D02*
X65405952Y-39417172D01*
X65405952Y-40566219D02*
X64440752Y-40566219D01*
X65359991Y-40566219D02*
X65405952Y-40474295D01*
X65405952Y-40474295D02*
X65405952Y-40290448D01*
X65405952Y-40290448D02*
X65359991Y-40198524D01*
X65359991Y-40198524D02*
X65314029Y-40152562D01*
X65314029Y-40152562D02*
X65222105Y-40106600D01*
X65222105Y-40106600D02*
X64946333Y-40106600D01*
X64946333Y-40106600D02*
X64854410Y-40152562D01*
X64854410Y-40152562D02*
X64808448Y-40198524D01*
X64808448Y-40198524D02*
X64762486Y-40290448D01*
X64762486Y-40290448D02*
X64762486Y-40474295D01*
X64762486Y-40474295D02*
X64808448Y-40566219D01*
X65359991Y-41393533D02*
X65405952Y-41301609D01*
X65405952Y-41301609D02*
X65405952Y-41117762D01*
X65405952Y-41117762D02*
X65359991Y-41025838D01*
X65359991Y-41025838D02*
X65268067Y-40979876D01*
X65268067Y-40979876D02*
X64900371Y-40979876D01*
X64900371Y-40979876D02*
X64808448Y-41025838D01*
X64808448Y-41025838D02*
X64762486Y-41117762D01*
X64762486Y-41117762D02*
X64762486Y-41301609D01*
X64762486Y-41301609D02*
X64808448Y-41393533D01*
X64808448Y-41393533D02*
X64900371Y-41439495D01*
X64900371Y-41439495D02*
X64992295Y-41439495D01*
X64992295Y-41439495D02*
X65084219Y-40979876D01*
D12*
X71574819Y-38000609D02*
X71098628Y-37667276D01*
X71574819Y-37429181D02*
X70574819Y-37429181D01*
X70574819Y-37429181D02*
X70574819Y-37810133D01*
X70574819Y-37810133D02*
X70622438Y-37905371D01*
X70622438Y-37905371D02*
X70670057Y-37952990D01*
X70670057Y-37952990D02*
X70765295Y-38000609D01*
X70765295Y-38000609D02*
X70908152Y-38000609D01*
X70908152Y-38000609D02*
X71003390Y-37952990D01*
X71003390Y-37952990D02*
X71051009Y-37905371D01*
X71051009Y-37905371D02*
X71098628Y-37810133D01*
X71098628Y-37810133D02*
X71098628Y-37429181D01*
X71574819Y-38952990D02*
X71574819Y-38381562D01*
X71574819Y-38667276D02*
X70574819Y-38667276D01*
X70574819Y-38667276D02*
X70717676Y-38572038D01*
X70717676Y-38572038D02*
X70812914Y-38476800D01*
X70812914Y-38476800D02*
X70860533Y-38381562D01*
X67887085Y-17816304D02*
X67934704Y-17863924D01*
X67934704Y-17863924D02*
X68077561Y-17911543D01*
X68077561Y-17911543D02*
X68172799Y-17911543D01*
X68172799Y-17911543D02*
X68315656Y-17863924D01*
X68315656Y-17863924D02*
X68410894Y-17768685D01*
X68410894Y-17768685D02*
X68458513Y-17673447D01*
X68458513Y-17673447D02*
X68506132Y-17482971D01*
X68506132Y-17482971D02*
X68506132Y-17340114D01*
X68506132Y-17340114D02*
X68458513Y-17149638D01*
X68458513Y-17149638D02*
X68410894Y-17054400D01*
X68410894Y-17054400D02*
X68315656Y-16959162D01*
X68315656Y-16959162D02*
X68172799Y-16911543D01*
X68172799Y-16911543D02*
X68077561Y-16911543D01*
X68077561Y-16911543D02*
X67934704Y-16959162D01*
X67934704Y-16959162D02*
X67887085Y-17006781D01*
X67315656Y-17911543D02*
X67410894Y-17863924D01*
X67410894Y-17863924D02*
X67458513Y-17816304D01*
X67458513Y-17816304D02*
X67506132Y-17721066D01*
X67506132Y-17721066D02*
X67506132Y-17435352D01*
X67506132Y-17435352D02*
X67458513Y-17340114D01*
X67458513Y-17340114D02*
X67410894Y-17292495D01*
X67410894Y-17292495D02*
X67315656Y-17244876D01*
X67315656Y-17244876D02*
X67172799Y-17244876D01*
X67172799Y-17244876D02*
X67077561Y-17292495D01*
X67077561Y-17292495D02*
X67029942Y-17340114D01*
X67029942Y-17340114D02*
X66982323Y-17435352D01*
X66982323Y-17435352D02*
X66982323Y-17721066D01*
X66982323Y-17721066D02*
X67029942Y-17816304D01*
X67029942Y-17816304D02*
X67077561Y-17863924D01*
X67077561Y-17863924D02*
X67172799Y-17911543D01*
X67172799Y-17911543D02*
X67315656Y-17911543D01*
X66553751Y-17244876D02*
X66553751Y-17911543D01*
X66553751Y-17340114D02*
X66506132Y-17292495D01*
X66506132Y-17292495D02*
X66410894Y-17244876D01*
X66410894Y-17244876D02*
X66268037Y-17244876D01*
X66268037Y-17244876D02*
X66172799Y-17292495D01*
X66172799Y-17292495D02*
X66125180Y-17387733D01*
X66125180Y-17387733D02*
X66125180Y-17911543D01*
X65648989Y-17244876D02*
X65648989Y-17911543D01*
X65648989Y-17340114D02*
X65601370Y-17292495D01*
X65601370Y-17292495D02*
X65506132Y-17244876D01*
X65506132Y-17244876D02*
X65363275Y-17244876D01*
X65363275Y-17244876D02*
X65268037Y-17292495D01*
X65268037Y-17292495D02*
X65220418Y-17387733D01*
X65220418Y-17387733D02*
X65220418Y-17911543D01*
X64220418Y-17911543D02*
X64791846Y-17911543D01*
X64506132Y-17911543D02*
X64506132Y-16911543D01*
X64506132Y-16911543D02*
X64601370Y-17054400D01*
X64601370Y-17054400D02*
X64696608Y-17149638D01*
X64696608Y-17149638D02*
X64791846Y-17197257D01*
X60722166Y-34744819D02*
X61055499Y-34268628D01*
X61293594Y-34744819D02*
X61293594Y-33744819D01*
X61293594Y-33744819D02*
X60912642Y-33744819D01*
X60912642Y-33744819D02*
X60817404Y-33792438D01*
X60817404Y-33792438D02*
X60769785Y-33840057D01*
X60769785Y-33840057D02*
X60722166Y-33935295D01*
X60722166Y-33935295D02*
X60722166Y-34078152D01*
X60722166Y-34078152D02*
X60769785Y-34173390D01*
X60769785Y-34173390D02*
X60817404Y-34221009D01*
X60817404Y-34221009D02*
X60912642Y-34268628D01*
X60912642Y-34268628D02*
X61293594Y-34268628D01*
X59865023Y-34078152D02*
X59865023Y-34744819D01*
X60103118Y-33697200D02*
X60341213Y-34411485D01*
X60341213Y-34411485D02*
X59722166Y-34411485D01*
X61055238Y-37888057D02*
X61150476Y-37840438D01*
X61150476Y-37840438D02*
X61245714Y-37745200D01*
X61245714Y-37745200D02*
X61388571Y-37602342D01*
X61388571Y-37602342D02*
X61483809Y-37554723D01*
X61483809Y-37554723D02*
X61579047Y-37554723D01*
X61531428Y-37792819D02*
X61626666Y-37745200D01*
X61626666Y-37745200D02*
X61721904Y-37649961D01*
X61721904Y-37649961D02*
X61769523Y-37459485D01*
X61769523Y-37459485D02*
X61769523Y-37126152D01*
X61769523Y-37126152D02*
X61721904Y-36935676D01*
X61721904Y-36935676D02*
X61626666Y-36840438D01*
X61626666Y-36840438D02*
X61531428Y-36792819D01*
X61531428Y-36792819D02*
X61340952Y-36792819D01*
X61340952Y-36792819D02*
X61245714Y-36840438D01*
X61245714Y-36840438D02*
X61150476Y-36935676D01*
X61150476Y-36935676D02*
X61102857Y-37126152D01*
X61102857Y-37126152D02*
X61102857Y-37459485D01*
X61102857Y-37459485D02*
X61150476Y-37649961D01*
X61150476Y-37649961D02*
X61245714Y-37745200D01*
X61245714Y-37745200D02*
X61340952Y-37792819D01*
X61340952Y-37792819D02*
X61531428Y-37792819D01*
X60150476Y-37792819D02*
X60721904Y-37792819D01*
X60436190Y-37792819D02*
X60436190Y-36792819D01*
X60436190Y-36792819D02*
X60531428Y-36935676D01*
X60531428Y-36935676D02*
X60626666Y-37030914D01*
X60626666Y-37030914D02*
X60721904Y-37078533D01*
X71828819Y-30382609D02*
X71352628Y-30049276D01*
X71828819Y-29811181D02*
X70828819Y-29811181D01*
X70828819Y-29811181D02*
X70828819Y-30192133D01*
X70828819Y-30192133D02*
X70876438Y-30287371D01*
X70876438Y-30287371D02*
X70924057Y-30334990D01*
X70924057Y-30334990D02*
X71019295Y-30382609D01*
X71019295Y-30382609D02*
X71162152Y-30382609D01*
X71162152Y-30382609D02*
X71257390Y-30334990D01*
X71257390Y-30334990D02*
X71305009Y-30287371D01*
X71305009Y-30287371D02*
X71352628Y-30192133D01*
X71352628Y-30192133D02*
X71352628Y-29811181D01*
X70924057Y-30763562D02*
X70876438Y-30811181D01*
X70876438Y-30811181D02*
X70828819Y-30906419D01*
X70828819Y-30906419D02*
X70828819Y-31144514D01*
X70828819Y-31144514D02*
X70876438Y-31239752D01*
X70876438Y-31239752D02*
X70924057Y-31287371D01*
X70924057Y-31287371D02*
X71019295Y-31334990D01*
X71019295Y-31334990D02*
X71114533Y-31334990D01*
X71114533Y-31334990D02*
X71257390Y-31287371D01*
X71257390Y-31287371D02*
X71828819Y-30715943D01*
X71828819Y-30715943D02*
X71828819Y-31334990D01*
X60618666Y-41094819D02*
X60951999Y-40618628D01*
X61190094Y-41094819D02*
X61190094Y-40094819D01*
X61190094Y-40094819D02*
X60809142Y-40094819D01*
X60809142Y-40094819D02*
X60713904Y-40142438D01*
X60713904Y-40142438D02*
X60666285Y-40190057D01*
X60666285Y-40190057D02*
X60618666Y-40285295D01*
X60618666Y-40285295D02*
X60618666Y-40428152D01*
X60618666Y-40428152D02*
X60666285Y-40523390D01*
X60666285Y-40523390D02*
X60713904Y-40571009D01*
X60713904Y-40571009D02*
X60809142Y-40618628D01*
X60809142Y-40618628D02*
X61190094Y-40618628D01*
X60285332Y-40094819D02*
X59666285Y-40094819D01*
X59666285Y-40094819D02*
X59999618Y-40475771D01*
X59999618Y-40475771D02*
X59856761Y-40475771D01*
X59856761Y-40475771D02*
X59761523Y-40523390D01*
X59761523Y-40523390D02*
X59713904Y-40571009D01*
X59713904Y-40571009D02*
X59666285Y-40666247D01*
X59666285Y-40666247D02*
X59666285Y-40904342D01*
X59666285Y-40904342D02*
X59713904Y-40999580D01*
X59713904Y-40999580D02*
X59761523Y-41047200D01*
X59761523Y-41047200D02*
X59856761Y-41094819D01*
X59856761Y-41094819D02*
X60142475Y-41094819D01*
X60142475Y-41094819D02*
X60237713Y-41047200D01*
X60237713Y-41047200D02*
X60285332Y-40999580D01*
X61055238Y-31538057D02*
X61150476Y-31490438D01*
X61150476Y-31490438D02*
X61245714Y-31395200D01*
X61245714Y-31395200D02*
X61388571Y-31252342D01*
X61388571Y-31252342D02*
X61483809Y-31204723D01*
X61483809Y-31204723D02*
X61579047Y-31204723D01*
X61531428Y-31442819D02*
X61626666Y-31395200D01*
X61626666Y-31395200D02*
X61721904Y-31299961D01*
X61721904Y-31299961D02*
X61769523Y-31109485D01*
X61769523Y-31109485D02*
X61769523Y-30776152D01*
X61769523Y-30776152D02*
X61721904Y-30585676D01*
X61721904Y-30585676D02*
X61626666Y-30490438D01*
X61626666Y-30490438D02*
X61531428Y-30442819D01*
X61531428Y-30442819D02*
X61340952Y-30442819D01*
X61340952Y-30442819D02*
X61245714Y-30490438D01*
X61245714Y-30490438D02*
X61150476Y-30585676D01*
X61150476Y-30585676D02*
X61102857Y-30776152D01*
X61102857Y-30776152D02*
X61102857Y-31109485D01*
X61102857Y-31109485D02*
X61150476Y-31299961D01*
X61150476Y-31299961D02*
X61245714Y-31395200D01*
X61245714Y-31395200D02*
X61340952Y-31442819D01*
X61340952Y-31442819D02*
X61531428Y-31442819D01*
X60721904Y-30538057D02*
X60674285Y-30490438D01*
X60674285Y-30490438D02*
X60579047Y-30442819D01*
X60579047Y-30442819D02*
X60340952Y-30442819D01*
X60340952Y-30442819D02*
X60245714Y-30490438D01*
X60245714Y-30490438D02*
X60198095Y-30538057D01*
X60198095Y-30538057D02*
X60150476Y-30633295D01*
X60150476Y-30633295D02*
X60150476Y-30728533D01*
X60150476Y-30728533D02*
X60198095Y-30871390D01*
X60198095Y-30871390D02*
X60769523Y-31442819D01*
X60769523Y-31442819D02*
X60150476Y-31442819D01*
D13*
%TO.C,R1*%
X75554724Y-35990212D02*
X75554724Y-40344340D01*
X72134724Y-35990212D02*
X72134724Y-40344340D01*
D12*
%TO.C,Conn1*%
X72898000Y-24892000D02*
X72898000Y-19812000D01*
X72898000Y-19812000D02*
X60198000Y-19812000D01*
X72898000Y-18288000D02*
X72898000Y-19812000D01*
X60198000Y-24892000D02*
X72898000Y-24892000D01*
X60198000Y-24892000D02*
X60198000Y-19812000D01*
X60198000Y-19812000D02*
X60198000Y-18288000D01*
X60198000Y-18288000D02*
X72898000Y-18288000D01*
D13*
%TO.C,R4*%
X57403276Y-33767500D02*
X57912724Y-33767500D01*
X57403276Y-34812500D02*
X57912724Y-34812500D01*
%TO.C,Q1*%
X57921920Y-36032000D02*
X57271920Y-36032000D01*
X57921920Y-36032000D02*
X58571920Y-36032000D01*
X57921920Y-39152000D02*
X56246920Y-39152000D01*
X57921920Y-39152000D02*
X58571920Y-39152000D01*
%TO.C,R2*%
X74246724Y-29822212D02*
X74246724Y-31276340D01*
X72426724Y-29822212D02*
X72426724Y-31276340D01*
%TO.C,R3*%
X57403276Y-40117500D02*
X57912724Y-40117500D01*
X57403276Y-41162500D02*
X57912724Y-41162500D01*
%TO.C,Q2*%
X57921224Y-29497276D02*
X57271224Y-29497276D01*
X57921224Y-29497276D02*
X58571224Y-29497276D01*
X57921224Y-32617276D02*
X56246224Y-32617276D01*
X57921224Y-32617276D02*
X58571224Y-32617276D01*
%TO.C,G\u002A\u002A\u002A*%
G36*
X83706423Y-28641997D02*
G01*
X83769373Y-28644065D01*
X83828913Y-28647643D01*
X83904157Y-28654054D01*
X84013077Y-28666182D01*
X84108191Y-28681137D01*
X84193187Y-28699779D01*
X84271750Y-28722967D01*
X84347567Y-28751560D01*
X84424323Y-28786416D01*
X84427540Y-28787990D01*
X84479650Y-28815118D01*
X84520851Y-28841141D01*
X84558512Y-28871277D01*
X84600006Y-28910742D01*
X84655622Y-28972383D01*
X84721298Y-29068590D01*
X84769151Y-29173108D01*
X84799610Y-29286744D01*
X84802576Y-29304768D01*
X84809382Y-29370944D01*
X84812561Y-29447064D01*
X84812101Y-29525924D01*
X84807991Y-29600318D01*
X84800219Y-29663041D01*
X84786834Y-29727661D01*
X84744927Y-29862147D01*
X84685918Y-29986719D01*
X84610056Y-30100975D01*
X84517590Y-30204512D01*
X84408766Y-30296930D01*
X84379129Y-30318384D01*
X84305896Y-30366810D01*
X84226581Y-30412556D01*
X84136791Y-30458055D01*
X84032136Y-30505744D01*
X84021525Y-30510458D01*
X83988645Y-30526180D01*
X83964980Y-30539218D01*
X83955074Y-30547130D01*
X83960701Y-30551532D01*
X83982208Y-30558852D01*
X84016185Y-30567488D01*
X84058829Y-30576369D01*
X84151449Y-30597497D01*
X84252715Y-30631638D01*
X84336192Y-30674137D01*
X84402026Y-30725115D01*
X84450365Y-30784690D01*
X84481355Y-30852982D01*
X84495142Y-30930108D01*
X84495051Y-30992309D01*
X84483160Y-31063665D01*
X84457266Y-31134454D01*
X84416152Y-31207857D01*
X84358602Y-31287056D01*
X84300351Y-31353638D01*
X84224426Y-31428659D01*
X84136876Y-31505917D01*
X84041086Y-31582579D01*
X83940438Y-31655810D01*
X83838317Y-31722776D01*
X83808131Y-31741874D01*
X83774882Y-31764905D01*
X83759154Y-31779315D01*
X83760811Y-31785214D01*
X83776874Y-31788688D01*
X83810128Y-31799530D01*
X83854517Y-31817783D01*
X83913084Y-31844634D01*
X83959713Y-31869922D01*
X84025599Y-31919591D01*
X84076920Y-31977654D01*
X84111210Y-32041661D01*
X84125970Y-32096930D01*
X84130412Y-32172026D01*
X84119163Y-32246562D01*
X84092653Y-32314257D01*
X84077472Y-32342520D01*
X84066007Y-32364882D01*
X84061622Y-32374876D01*
X84067770Y-32376450D01*
X84090075Y-32378804D01*
X84124856Y-32381304D01*
X84168074Y-32383619D01*
X84260224Y-32393848D01*
X84342764Y-32416717D01*
X84410452Y-32451807D01*
X84462885Y-32498905D01*
X84499658Y-32557798D01*
X84510079Y-32590384D01*
X84517720Y-32645192D01*
X84518116Y-32706272D01*
X84511328Y-32766678D01*
X84497414Y-32819460D01*
X84469912Y-32882552D01*
X84432013Y-32949684D01*
X84383472Y-33019723D01*
X84323054Y-33094182D01*
X84249528Y-33174578D01*
X84161662Y-33262424D01*
X84058223Y-33359235D01*
X84051467Y-33365498D01*
X84026856Y-33390408D01*
X84010924Y-33410025D01*
X84006850Y-33420554D01*
X84010753Y-33423685D01*
X84030063Y-33430776D01*
X84058507Y-33436699D01*
X84089489Y-33442349D01*
X84171840Y-33468901D01*
X84241722Y-33509960D01*
X84298166Y-33564851D01*
X84340203Y-33632899D01*
X84344932Y-33643425D01*
X84370377Y-33722823D01*
X84376648Y-33800345D01*
X84363620Y-33876433D01*
X84331167Y-33951530D01*
X84279164Y-34026079D01*
X84207484Y-34100525D01*
X84152699Y-34150595D01*
X84218564Y-34163435D01*
X84226807Y-34165089D01*
X84317839Y-34190444D01*
X84395824Y-34225797D01*
X84458159Y-34269991D01*
X84478696Y-34289506D01*
X84519997Y-34339476D01*
X84549790Y-34396114D01*
X84571759Y-34465770D01*
X84582927Y-34537538D01*
X84584326Y-34618880D01*
X84576650Y-34704854D01*
X84560821Y-34791441D01*
X84537764Y-34874619D01*
X84508402Y-34950370D01*
X84473658Y-35014674D01*
X84434455Y-35063511D01*
X84420744Y-35075826D01*
X84397557Y-35090082D01*
X84383770Y-35087809D01*
X84379732Y-35069810D01*
X84385793Y-35036885D01*
X84402303Y-34989836D01*
X84408243Y-34974429D01*
X84423055Y-34931933D01*
X84439043Y-34881892D01*
X84453647Y-34832164D01*
X84459764Y-34809594D01*
X84470615Y-34763166D01*
X84477147Y-34720331D01*
X84480346Y-34673307D01*
X84481194Y-34614308D01*
X84480870Y-34569525D01*
X84479220Y-34528050D01*
X84475603Y-34497599D01*
X84469388Y-34473323D01*
X84459947Y-34450369D01*
X84444270Y-34421413D01*
X84399023Y-34366109D01*
X84338921Y-34322850D01*
X84263441Y-34291313D01*
X84172062Y-34271173D01*
X84165043Y-34270211D01*
X84100831Y-34266108D01*
X84031332Y-34268562D01*
X83962731Y-34276858D01*
X83901215Y-34290280D01*
X83852970Y-34308111D01*
X83830588Y-34317603D01*
X83789494Y-34330771D01*
X83742772Y-34342488D01*
X83696492Y-34351455D01*
X83656725Y-34356373D01*
X83629544Y-34355941D01*
X83611871Y-34350861D01*
X83587455Y-34333119D01*
X83579400Y-34308078D01*
X83589421Y-34279027D01*
X83590402Y-34277596D01*
X83603912Y-34264764D01*
X83627469Y-34251832D01*
X83664164Y-34237372D01*
X83717083Y-34219953D01*
X83757207Y-34207728D01*
X83805533Y-34193734D01*
X83847041Y-34182479D01*
X83875718Y-34175642D01*
X83910535Y-34165858D01*
X83972174Y-34138337D01*
X84036874Y-34099241D01*
X84100286Y-34051934D01*
X84158059Y-33999781D01*
X84205844Y-33946148D01*
X84239292Y-33894399D01*
X84249419Y-33872041D01*
X84267335Y-33806012D01*
X84267183Y-33742913D01*
X84249525Y-33684993D01*
X84214924Y-33634497D01*
X84163943Y-33593673D01*
X84160112Y-33591437D01*
X84105369Y-33566947D01*
X84038415Y-33547476D01*
X83966005Y-33534621D01*
X83894891Y-33529980D01*
X83864174Y-33530642D01*
X83832801Y-33534962D01*
X83804246Y-33545633D01*
X83769089Y-33565302D01*
X83768575Y-33565612D01*
X83738549Y-33584207D01*
X83715832Y-33599206D01*
X83705305Y-33607388D01*
X83696976Y-33613518D01*
X83675222Y-33626226D01*
X83645716Y-33641874D01*
X83623735Y-33653289D01*
X83580286Y-33676722D01*
X83541739Y-33698443D01*
X83530399Y-33705031D01*
X83512045Y-33715487D01*
X83493808Y-33725395D01*
X83472681Y-33736249D01*
X83445657Y-33749545D01*
X83409728Y-33766776D01*
X83361887Y-33789438D01*
X83299127Y-33819025D01*
X83288592Y-33823994D01*
X83241688Y-33846283D01*
X83200233Y-33866233D01*
X83168392Y-33881829D01*
X83150329Y-33891055D01*
X83149857Y-33891311D01*
X83127611Y-33901818D01*
X83094052Y-33915966D01*
X83056254Y-33930770D01*
X83056033Y-33930853D01*
X83017250Y-33946279D01*
X82981856Y-33961759D01*
X82957490Y-33973952D01*
X82950126Y-33977916D01*
X82918002Y-33992041D01*
X82883220Y-34004047D01*
X82874922Y-34006563D01*
X82835228Y-34020586D01*
X82799049Y-34035875D01*
X82782431Y-34043537D01*
X82752673Y-34055913D01*
X82716036Y-34069448D01*
X82668476Y-34085607D01*
X82605950Y-34105856D01*
X82584025Y-34112843D01*
X82524127Y-34131706D01*
X82479110Y-34145357D01*
X82445984Y-34154593D01*
X82421758Y-34160205D01*
X82403442Y-34162991D01*
X82388045Y-34163743D01*
X82377129Y-34164216D01*
X82335980Y-34170422D01*
X82286609Y-34182312D01*
X82236295Y-34197962D01*
X82192316Y-34215451D01*
X82179212Y-34220986D01*
X82152842Y-34228951D01*
X82136016Y-34229647D01*
X82129201Y-34228002D01*
X82118890Y-34231626D01*
X82114366Y-34234208D01*
X82093256Y-34240308D01*
X82058044Y-34248254D01*
X82012117Y-34257413D01*
X81958862Y-34267150D01*
X81901665Y-34276829D01*
X81843912Y-34285815D01*
X81788990Y-34293474D01*
X81744446Y-34297987D01*
X81677697Y-34301238D01*
X81608325Y-34301306D01*
X81540793Y-34298411D01*
X81479565Y-34292770D01*
X81429105Y-34284603D01*
X81393876Y-34274127D01*
X81371206Y-34263093D01*
X81330017Y-34233856D01*
X81306373Y-34199317D01*
X81299442Y-34161145D01*
X81401650Y-34161145D01*
X81409775Y-34169168D01*
X81433529Y-34179956D01*
X81439476Y-34182254D01*
X81475334Y-34190857D01*
X81527991Y-34197108D01*
X81598899Y-34201193D01*
X81666239Y-34201843D01*
X81798775Y-34194042D01*
X81944274Y-34175160D01*
X82100901Y-34145733D01*
X82266818Y-34106298D01*
X82440188Y-34057388D01*
X82619176Y-33999540D01*
X82801942Y-33933288D01*
X82986652Y-33859169D01*
X83171467Y-33777718D01*
X83354550Y-33689470D01*
X83412655Y-33659828D01*
X83470782Y-33629471D01*
X83523492Y-33601268D01*
X83566671Y-33577421D01*
X83596203Y-33560133D01*
X83660569Y-33520089D01*
X83601154Y-33520125D01*
X83574192Y-33520724D01*
X83506667Y-33525340D01*
X83424826Y-33534047D01*
X83331933Y-33546284D01*
X83231250Y-33561494D01*
X83126041Y-33579115D01*
X83019568Y-33598590D01*
X82915093Y-33619358D01*
X82815881Y-33640860D01*
X82725194Y-33662537D01*
X82646295Y-33683829D01*
X82556285Y-33710042D01*
X82469757Y-33735352D01*
X82398062Y-33756477D01*
X82338960Y-33774083D01*
X82290209Y-33788839D01*
X82249569Y-33801413D01*
X82214799Y-33812473D01*
X82194490Y-33818848D01*
X82155580Y-33830580D01*
X82115774Y-33842154D01*
X82063056Y-33857678D01*
X81969747Y-33887558D01*
X81876060Y-33920318D01*
X81784423Y-33954919D01*
X81697264Y-33990319D01*
X81617010Y-34025481D01*
X81546090Y-34059363D01*
X81486930Y-34090926D01*
X81441958Y-34119129D01*
X81413603Y-34142933D01*
X81406522Y-34150993D01*
X81401650Y-34161145D01*
X81299442Y-34161145D01*
X81298815Y-34157690D01*
X81301930Y-34132150D01*
X81317635Y-34096590D01*
X81347685Y-34060822D01*
X81393305Y-34023729D01*
X81455720Y-33984193D01*
X81536155Y-33941097D01*
X81584612Y-33917793D01*
X81639019Y-33894226D01*
X81699783Y-33870630D01*
X81770121Y-33845820D01*
X81853248Y-33818612D01*
X81952382Y-33787821D01*
X81974056Y-33781194D01*
X82036530Y-33761937D01*
X82102320Y-33741482D01*
X82160336Y-33723274D01*
X82212056Y-33707200D01*
X82272980Y-33688801D01*
X82344720Y-33667618D01*
X82429347Y-33643044D01*
X82528936Y-33614471D01*
X82645560Y-33581295D01*
X82725476Y-33559419D01*
X82962558Y-33503403D01*
X83200138Y-33460112D01*
X83433718Y-33430285D01*
X83658799Y-33414662D01*
X83660569Y-33414595D01*
X83835274Y-33408005D01*
X83896460Y-33359320D01*
X83933081Y-33330147D01*
X83971236Y-33299697D01*
X84002207Y-33274927D01*
X84022686Y-33257826D01*
X84073382Y-33211381D01*
X84128963Y-33156046D01*
X84184784Y-33096685D01*
X84236203Y-33038162D01*
X84278579Y-32985341D01*
X84291243Y-32968213D01*
X84344406Y-32888074D01*
X84381368Y-32815554D01*
X84402947Y-32748792D01*
X84409958Y-32685927D01*
X84408749Y-32647230D01*
X84402953Y-32616354D01*
X84389784Y-32589683D01*
X84366462Y-32559117D01*
X84360882Y-32553254D01*
X84327751Y-32532185D01*
X84279920Y-32515061D01*
X84221269Y-32502548D01*
X84155678Y-32495315D01*
X84087027Y-32494030D01*
X84019196Y-32499360D01*
X84002654Y-32501596D01*
X83971074Y-32506519D01*
X83945841Y-32512649D01*
X83922443Y-32522017D01*
X83896365Y-32536654D01*
X83863093Y-32558593D01*
X83818116Y-32589865D01*
X83792311Y-32607622D01*
X83760178Y-32628805D01*
X83736483Y-32643289D01*
X83725056Y-32648655D01*
X83718948Y-32650560D01*
X83699374Y-32660823D01*
X83673444Y-32677003D01*
X83669083Y-32679870D01*
X83612792Y-32711552D01*
X83551803Y-32737601D01*
X83489722Y-32757246D01*
X83430155Y-32769716D01*
X83376709Y-32774239D01*
X83332989Y-32770044D01*
X83302602Y-32756357D01*
X83292178Y-32739274D01*
X83290448Y-32709171D01*
X83300502Y-32674347D01*
X83311615Y-32657400D01*
X83342947Y-32627744D01*
X83388992Y-32595260D01*
X83447045Y-32561288D01*
X83514402Y-32527167D01*
X83588356Y-32494234D01*
X83666203Y-32463828D01*
X83745239Y-32437287D01*
X83822756Y-32415951D01*
X83852940Y-32408069D01*
X83884886Y-32396411D01*
X83908836Y-32381303D01*
X83931684Y-32359150D01*
X83960469Y-32325152D01*
X83995991Y-32269108D01*
X84015840Y-32211809D01*
X84022012Y-32148601D01*
X84021926Y-32128101D01*
X84020294Y-32097340D01*
X84014653Y-32075689D01*
X84002522Y-32055965D01*
X83981422Y-32030984D01*
X83931885Y-31984971D01*
X83857445Y-31939043D01*
X83766772Y-31902956D01*
X83660569Y-31877048D01*
X83591252Y-31864428D01*
X83469097Y-31925570D01*
X83465529Y-31927352D01*
X83413827Y-31952547D01*
X83362392Y-31976586D01*
X83317001Y-31996825D01*
X83283429Y-32010618D01*
X83250337Y-32023434D01*
X83220490Y-32035693D01*
X83202582Y-32043889D01*
X83194884Y-32047388D01*
X83169283Y-32057410D01*
X83131546Y-32071290D01*
X83085879Y-32087557D01*
X83036485Y-32104738D01*
X82987568Y-32121361D01*
X82943330Y-32135956D01*
X82907977Y-32147048D01*
X82901032Y-32149164D01*
X82864513Y-32160815D01*
X82819550Y-32175721D01*
X82774293Y-32191190D01*
X82767256Y-32193627D01*
X82716886Y-32210590D01*
X82664651Y-32227518D01*
X82620803Y-32241081D01*
X82582752Y-32252402D01*
X82538094Y-32265713D01*
X82501973Y-32276504D01*
X82474650Y-32284240D01*
X82410436Y-32300399D01*
X82330211Y-32318607D01*
X82236302Y-32338365D01*
X82131038Y-32359173D01*
X82016749Y-32380532D01*
X81913691Y-32398109D01*
X81769981Y-32417894D01*
X81637353Y-32429870D01*
X81511720Y-32434473D01*
X81493275Y-32434622D01*
X81440268Y-32434736D01*
X81401899Y-32433856D01*
X81374155Y-32431496D01*
X81353020Y-32427175D01*
X81334481Y-32420407D01*
X81314525Y-32410709D01*
X81291753Y-32397903D01*
X81253391Y-32367080D01*
X81232356Y-32332021D01*
X81227963Y-32298240D01*
X81338425Y-32298240D01*
X81338449Y-32299300D01*
X81343589Y-32311533D01*
X81359013Y-32320489D01*
X81386605Y-32326426D01*
X81428250Y-32329603D01*
X81485831Y-32330277D01*
X81561232Y-32328705D01*
X81595387Y-32327467D01*
X81658275Y-32324314D01*
X81717586Y-32320324D01*
X81767912Y-32315884D01*
X81803844Y-32311380D01*
X81812078Y-32310030D01*
X82001051Y-32277564D01*
X82170854Y-32245369D01*
X82322091Y-32213318D01*
X82455368Y-32181282D01*
X82571291Y-32149134D01*
X82588791Y-32143846D01*
X82693152Y-32111015D01*
X82803041Y-32074489D01*
X82914351Y-32035753D01*
X83022977Y-31996294D01*
X83124814Y-31957596D01*
X83215757Y-31921145D01*
X83291700Y-31888428D01*
X83305484Y-31882076D01*
X83337670Y-31866217D01*
X83360053Y-31853661D01*
X83368445Y-31846684D01*
X83366399Y-31845113D01*
X83349078Y-31841546D01*
X83316899Y-31837942D01*
X83273245Y-31834513D01*
X83221500Y-31831472D01*
X83165049Y-31829031D01*
X83107275Y-31827402D01*
X83051564Y-31826798D01*
X83018071Y-31827225D01*
X82950461Y-31829927D01*
X82877596Y-31834683D01*
X82805741Y-31840982D01*
X82741161Y-31848315D01*
X82690121Y-31856174D01*
X82665208Y-31860816D01*
X82623427Y-31868513D01*
X82573576Y-31877634D01*
X82521778Y-31887057D01*
X82510877Y-31889068D01*
X82434726Y-31904482D01*
X82344938Y-31924529D01*
X82246018Y-31948063D01*
X82142473Y-31973936D01*
X82038809Y-32001001D01*
X81939532Y-32028112D01*
X81849147Y-32054121D01*
X81772162Y-32077880D01*
X81715507Y-32096807D01*
X81625206Y-32129676D01*
X81544344Y-32162555D01*
X81474542Y-32194620D01*
X81417427Y-32225046D01*
X81374619Y-32253008D01*
X81347744Y-32277681D01*
X81338425Y-32298240D01*
X81227963Y-32298240D01*
X81226940Y-32290378D01*
X81227367Y-32283825D01*
X81237257Y-32246388D01*
X81261002Y-32210785D01*
X81300409Y-32174884D01*
X81357283Y-32136555D01*
X81405071Y-32109299D01*
X81513980Y-32057184D01*
X81640714Y-32008033D01*
X81784039Y-31962348D01*
X81941481Y-31918554D01*
X82125157Y-31871944D01*
X82304360Y-31831220D01*
X82476408Y-31796911D01*
X82638623Y-31769545D01*
X82788324Y-31749651D01*
X82922831Y-31737758D01*
X82960536Y-31735869D01*
X83028295Y-31733884D01*
X83051564Y-31733606D01*
X83104072Y-31732978D01*
X83183893Y-31733091D01*
X83263785Y-31734160D01*
X83339775Y-31736124D01*
X83407890Y-31738922D01*
X83464157Y-31742492D01*
X83504602Y-31746771D01*
X83526990Y-31749895D01*
X83552641Y-31751507D01*
X83574173Y-31747931D01*
X83598699Y-31737641D01*
X83633335Y-31719105D01*
X83635539Y-31717889D01*
X83676586Y-31694434D01*
X83723170Y-31666259D01*
X83777951Y-31631686D01*
X83843588Y-31589039D01*
X83922741Y-31536640D01*
X83969710Y-31503829D01*
X84058304Y-31434956D01*
X84146016Y-31358612D01*
X84225657Y-31280867D01*
X84242069Y-31263522D01*
X84297651Y-31200077D01*
X84338902Y-31143259D01*
X84367672Y-31089781D01*
X84385808Y-31036360D01*
X84395161Y-30979710D01*
X84396378Y-30965178D01*
X84396539Y-30931105D01*
X84390065Y-30902566D01*
X84375076Y-30869207D01*
X84372054Y-30863563D01*
X84351358Y-30833022D01*
X84324609Y-30801898D01*
X84296115Y-30774426D01*
X84270182Y-30754838D01*
X84251118Y-30747368D01*
X84246058Y-30746568D01*
X84225234Y-30739808D01*
X84197674Y-30728407D01*
X84191500Y-30725659D01*
X84154854Y-30711197D01*
X84115894Y-30699500D01*
X84071704Y-30690136D01*
X84019370Y-30682677D01*
X83955976Y-30676691D01*
X83878608Y-30671748D01*
X83784351Y-30667420D01*
X83702200Y-30664030D01*
X83629653Y-30660721D01*
X83572776Y-30657580D01*
X83529415Y-30654364D01*
X83497419Y-30650833D01*
X83474634Y-30646743D01*
X83458909Y-30641852D01*
X83448092Y-30635920D01*
X83440029Y-30628703D01*
X83422216Y-30615103D01*
X83395086Y-30603363D01*
X83385955Y-30600106D01*
X83359007Y-30584649D01*
X83331925Y-30563058D01*
X83317605Y-30549069D01*
X83303929Y-30530791D01*
X83299605Y-30510596D01*
X83301185Y-30483330D01*
X83409863Y-30483330D01*
X83418221Y-30494329D01*
X83442892Y-30502376D01*
X83480800Y-30507074D01*
X83528867Y-30508022D01*
X83584017Y-30504825D01*
X83610343Y-30501873D01*
X83682413Y-30489937D01*
X83760354Y-30472465D01*
X83840528Y-30450660D01*
X83919297Y-30425722D01*
X83993022Y-30398853D01*
X84058066Y-30371256D01*
X84110791Y-30344131D01*
X84147559Y-30318681D01*
X84157773Y-30309028D01*
X84176800Y-30281861D01*
X84177132Y-30259019D01*
X84158660Y-30241276D01*
X84150604Y-30238165D01*
X84119114Y-30233448D01*
X84074235Y-30232475D01*
X84020179Y-30234822D01*
X83961155Y-30240063D01*
X83901374Y-30247776D01*
X83845047Y-30257535D01*
X83796383Y-30268917D01*
X83759595Y-30281496D01*
X83758818Y-30281837D01*
X83738900Y-30289896D01*
X83707293Y-30302063D01*
X83670472Y-30315840D01*
X83670353Y-30315884D01*
X83631405Y-30331549D01*
X83595877Y-30348036D01*
X83571447Y-30361784D01*
X83569930Y-30362819D01*
X83543826Y-30379409D01*
X83521934Y-30391505D01*
X83497830Y-30405170D01*
X83468371Y-30425722D01*
X83440533Y-30448170D01*
X83419385Y-30468400D01*
X83409997Y-30482301D01*
X83409863Y-30483330D01*
X83301185Y-30483330D01*
X83301399Y-30479645D01*
X83307062Y-30448303D01*
X83319384Y-30420475D01*
X83341008Y-30393236D01*
X83374621Y-30363212D01*
X83422909Y-30327032D01*
X83461669Y-30300787D01*
X83577610Y-30236324D01*
X83703481Y-30184678D01*
X83833864Y-30148208D01*
X83852026Y-30144608D01*
X83909272Y-30136055D01*
X83972219Y-30129875D01*
X84035826Y-30126285D01*
X84074235Y-30125779D01*
X84095054Y-30125504D01*
X84144862Y-30127749D01*
X84180210Y-30133238D01*
X84198636Y-30140062D01*
X84230730Y-30158703D01*
X84259933Y-30182545D01*
X84281173Y-30207178D01*
X84289380Y-30228190D01*
X84289809Y-30233961D01*
X84294945Y-30240795D01*
X84307844Y-30237663D01*
X84330939Y-30223604D01*
X84366667Y-30197654D01*
X84370567Y-30194703D01*
X84458416Y-30117446D01*
X84536877Y-30027836D01*
X84603391Y-29929630D01*
X84655398Y-29826584D01*
X84690342Y-29722456D01*
X84694913Y-29702653D01*
X84708545Y-29618925D01*
X84715565Y-29528699D01*
X84716079Y-29437042D01*
X84710192Y-29349024D01*
X84698008Y-29269715D01*
X84679631Y-29204182D01*
X84657663Y-29153591D01*
X84603019Y-29064718D01*
X84532424Y-28985828D01*
X84447247Y-28918111D01*
X84348857Y-28862756D01*
X84238622Y-28820953D01*
X84149390Y-28797130D01*
X84013161Y-28769768D01*
X83872128Y-28750790D01*
X83733373Y-28741081D01*
X83603977Y-28741529D01*
X83585355Y-28742442D01*
X83536850Y-28745097D01*
X83497014Y-28747676D01*
X83469552Y-28749924D01*
X83458172Y-28751584D01*
X83453665Y-28752816D01*
X83432881Y-28756356D01*
X83399639Y-28761070D01*
X83358542Y-28766277D01*
X83272794Y-28777910D01*
X83166103Y-28796849D01*
X83062996Y-28820966D01*
X82960211Y-28851349D01*
X82854491Y-28889086D01*
X82742575Y-28935266D01*
X82621204Y-28990978D01*
X82487119Y-29057309D01*
X82384617Y-29110472D01*
X82289537Y-29162178D01*
X82199527Y-29214033D01*
X82111746Y-29267892D01*
X82023352Y-29325612D01*
X81931505Y-29389047D01*
X81833362Y-29460054D01*
X81726082Y-29540488D01*
X81606825Y-29632204D01*
X81583583Y-29650497D01*
X81507748Y-29713585D01*
X81434801Y-29779199D01*
X81366353Y-29845528D01*
X81304017Y-29910758D01*
X81249401Y-29973078D01*
X81204118Y-30030675D01*
X81169779Y-30081737D01*
X81147994Y-30124451D01*
X81140374Y-30157004D01*
X81140524Y-30159635D01*
X81151623Y-30183397D01*
X81178677Y-30210390D01*
X81180878Y-30212176D01*
X81211837Y-30243711D01*
X81223453Y-30271848D01*
X81215836Y-30296846D01*
X81212588Y-30300911D01*
X81203428Y-30305897D01*
X81189572Y-30300994D01*
X81165661Y-30284928D01*
X81160025Y-30280833D01*
X81116431Y-30245627D01*
X81081996Y-30211478D01*
X81059382Y-30181337D01*
X81051252Y-30158155D01*
X81052105Y-30149808D01*
X81061856Y-30118641D01*
X81080658Y-30077492D01*
X81106214Y-30030424D01*
X81136224Y-29981503D01*
X81168391Y-29934794D01*
X81200416Y-29894360D01*
X81234570Y-29855611D01*
X81294612Y-29790727D01*
X81356293Y-29728632D01*
X81421797Y-29667457D01*
X81493307Y-29605334D01*
X81573006Y-29540394D01*
X81663076Y-29470768D01*
X81765701Y-29394588D01*
X81883065Y-29309984D01*
X81951019Y-29262826D01*
X82112160Y-29159883D01*
X82290417Y-29057393D01*
X82487119Y-28954574D01*
X82522740Y-28936785D01*
X82593333Y-28901814D01*
X82649514Y-28874499D01*
X82693491Y-28853815D01*
X82727474Y-28838736D01*
X82753672Y-28828237D01*
X82774293Y-28821293D01*
X82792328Y-28814960D01*
X82808951Y-28806739D01*
X82818120Y-28802161D01*
X82843903Y-28791968D01*
X82881333Y-28778458D01*
X82926245Y-28763081D01*
X82974475Y-28747290D01*
X83021856Y-28732535D01*
X83028770Y-28730494D01*
X83090199Y-28714981D01*
X83166281Y-28699309D01*
X83252496Y-28684167D01*
X83344323Y-28670250D01*
X83437242Y-28658248D01*
X83526734Y-28648854D01*
X83608277Y-28642760D01*
X83648163Y-28641616D01*
X83706423Y-28641997D01*
G37*
G36*
X83723065Y-35630119D02*
G01*
X83844492Y-35659830D01*
X83955873Y-35705121D01*
X84041893Y-35753359D01*
X84133492Y-35819468D01*
X84207368Y-35891780D01*
X84263013Y-35969781D01*
X84299917Y-36052958D01*
X84310615Y-36093550D01*
X84317923Y-36171943D01*
X84307954Y-36255165D01*
X84307847Y-36255668D01*
X84292637Y-36309381D01*
X84269993Y-36358209D01*
X84238053Y-36404096D01*
X84194954Y-36448984D01*
X84138832Y-36494817D01*
X84067824Y-36543535D01*
X83980069Y-36597084D01*
X83974977Y-36600102D01*
X83946871Y-36619024D01*
X83934658Y-36631968D01*
X83938891Y-36637867D01*
X83960121Y-36635653D01*
X83979313Y-36632901D01*
X84013961Y-36629557D01*
X84058574Y-36626153D01*
X84108138Y-36623116D01*
X84109023Y-36623068D01*
X84161514Y-36620640D01*
X84198303Y-36620162D01*
X84223364Y-36621910D01*
X84240671Y-36626155D01*
X84254200Y-36633173D01*
X84257775Y-36635625D01*
X84274752Y-36655227D01*
X84279478Y-36684411D01*
X84279478Y-36684759D01*
X84278353Y-36701661D01*
X84273269Y-36714395D01*
X84261592Y-36723862D01*
X84240687Y-36730964D01*
X84207919Y-36736601D01*
X84160654Y-36741676D01*
X84096257Y-36747088D01*
X84032950Y-36752253D01*
X83929540Y-36761395D01*
X83840890Y-36770337D01*
X83763736Y-36779448D01*
X83694814Y-36789095D01*
X83630862Y-36799648D01*
X83580225Y-36808682D01*
X83534334Y-36817030D01*
X83502943Y-36823097D01*
X83483306Y-36827514D01*
X83472678Y-36830913D01*
X83468315Y-36833923D01*
X83467470Y-36837175D01*
X83465278Y-36840586D01*
X83450152Y-36851515D01*
X83425384Y-36864906D01*
X83421866Y-36866604D01*
X83369329Y-36891549D01*
X83321791Y-36913409D01*
X83282448Y-36930771D01*
X83254491Y-36942223D01*
X83241117Y-36946355D01*
X83232632Y-36947857D01*
X83207360Y-36957160D01*
X83174444Y-36972399D01*
X83139772Y-36990582D01*
X83109228Y-37008718D01*
X83088698Y-37023817D01*
X83085682Y-37026711D01*
X83064452Y-37058195D01*
X83061219Y-37090267D01*
X83074525Y-37120832D01*
X83102912Y-37147793D01*
X83144922Y-37169054D01*
X83199098Y-37182521D01*
X83216017Y-37184740D01*
X83257763Y-37189203D01*
X83311210Y-37194105D01*
X83371258Y-37198991D01*
X83432811Y-37203405D01*
X83478220Y-37206531D01*
X83583080Y-37214912D01*
X83671567Y-37224144D01*
X83746153Y-37234774D01*
X83809315Y-37247347D01*
X83863527Y-37262410D01*
X83911263Y-37280510D01*
X83954998Y-37302193D01*
X83997208Y-37328004D01*
X84029317Y-37351057D01*
X84064371Y-37384719D01*
X84090010Y-37424465D01*
X84111479Y-37477141D01*
X84114531Y-37486158D01*
X84123065Y-37516294D01*
X84125887Y-37542691D01*
X84123205Y-37572977D01*
X84115226Y-37614776D01*
X84104876Y-37645039D01*
X84073487Y-37693879D01*
X84023941Y-37745257D01*
X83957012Y-37798413D01*
X83873474Y-37852585D01*
X83868177Y-37855745D01*
X83837414Y-37874621D01*
X83814534Y-37889524D01*
X83804156Y-37897465D01*
X83794786Y-37903963D01*
X83771280Y-37917809D01*
X83737378Y-37936791D01*
X83696736Y-37958819D01*
X83594267Y-38013545D01*
X83637321Y-38043243D01*
X83670172Y-38068534D01*
X83725078Y-38127335D01*
X83766963Y-38198588D01*
X83796188Y-38283198D01*
X83813113Y-38382067D01*
X83818100Y-38496101D01*
X83817569Y-38525113D01*
X83810720Y-38611382D01*
X83794593Y-38686951D01*
X83767286Y-38757085D01*
X83726899Y-38827049D01*
X83671531Y-38902105D01*
X83616073Y-38971423D01*
X83643272Y-38990444D01*
X83661460Y-39004354D01*
X83697265Y-39036441D01*
X83734736Y-39074560D01*
X83769630Y-39114059D01*
X83797708Y-39150286D01*
X83814729Y-39178586D01*
X83834911Y-39240498D01*
X83841781Y-39319156D01*
X83829388Y-39401277D01*
X83797760Y-39486355D01*
X83785936Y-39507389D01*
X83753171Y-39552131D01*
X83706498Y-39605475D01*
X83647528Y-39665865D01*
X83577873Y-39731743D01*
X83499147Y-39801553D01*
X83412962Y-39873738D01*
X83320930Y-39946742D01*
X83238756Y-40010183D01*
X83280063Y-40022379D01*
X83286463Y-40024475D01*
X83321034Y-40040989D01*
X83349859Y-40061869D01*
X83352389Y-40064325D01*
X83368882Y-40084332D01*
X83376499Y-40106833D01*
X83378347Y-40140393D01*
X83375990Y-40170027D01*
X83363183Y-40210908D01*
X83337346Y-40253070D01*
X83296344Y-40300690D01*
X83287467Y-40310329D01*
X83273622Y-40327403D01*
X83270096Y-40335349D01*
X83275084Y-40338033D01*
X83293834Y-40347671D01*
X83320772Y-40361292D01*
X83339151Y-40371518D01*
X83369191Y-40396517D01*
X83387643Y-40428747D01*
X83396230Y-40472043D01*
X83396674Y-40530240D01*
X83395690Y-40547934D01*
X83390431Y-40591399D01*
X83379663Y-40628767D01*
X83360772Y-40670228D01*
X83326045Y-40728762D01*
X83277757Y-40795527D01*
X83219520Y-40866075D01*
X83154568Y-40936703D01*
X83086135Y-41003705D01*
X83017456Y-41063379D01*
X83003309Y-41075355D01*
X82987214Y-41091083D01*
X82982797Y-41098888D01*
X82989340Y-41098975D01*
X83011756Y-41092546D01*
X83046827Y-41079597D01*
X83091552Y-41061470D01*
X83142931Y-41039504D01*
X83197963Y-41015041D01*
X83253648Y-40989422D01*
X83306986Y-40963987D01*
X83354975Y-40940078D01*
X83394616Y-40919036D01*
X83422909Y-40902201D01*
X83461397Y-40874605D01*
X83519561Y-40825088D01*
X83572549Y-40771048D01*
X83616161Y-40716905D01*
X83646199Y-40667082D01*
X83665225Y-40620551D01*
X83673940Y-40577172D01*
X83669047Y-40539629D01*
X83650667Y-40503492D01*
X83647720Y-40499064D01*
X83629660Y-40462219D01*
X83628593Y-40430985D01*
X83644288Y-40401643D01*
X83656783Y-40388313D01*
X83670922Y-40384341D01*
X83693124Y-40391565D01*
X83695820Y-40392822D01*
X83719140Y-40410590D01*
X83748736Y-40441789D01*
X83781806Y-40482964D01*
X83815547Y-40530660D01*
X83847156Y-40581425D01*
X83862099Y-40610163D01*
X83886940Y-40669452D01*
X83910033Y-40737518D01*
X83929157Y-40807543D01*
X83942089Y-40872709D01*
X83942759Y-40877134D01*
X83949877Y-40921390D01*
X83957203Y-40962987D01*
X83963252Y-40993449D01*
X83967965Y-41025762D01*
X83971152Y-41076318D01*
X83972105Y-41136937D01*
X83970845Y-41202524D01*
X83967396Y-41267985D01*
X83961779Y-41328226D01*
X83951236Y-41390967D01*
X83928378Y-41481050D01*
X83897185Y-41575807D01*
X83859921Y-41669150D01*
X83818848Y-41754993D01*
X83776231Y-41827248D01*
X83761630Y-41850607D01*
X83745729Y-41879279D01*
X83735494Y-41897317D01*
X83710084Y-41935592D01*
X83675514Y-41983220D01*
X83634358Y-42036994D01*
X83589190Y-42093702D01*
X83542583Y-42150136D01*
X83497109Y-42203087D01*
X83455344Y-42249344D01*
X83419859Y-42285699D01*
X83399866Y-42304826D01*
X83355196Y-42345949D01*
X83318660Y-42376238D01*
X83286464Y-42398420D01*
X83254811Y-42415222D01*
X83219907Y-42429371D01*
X83216404Y-42430632D01*
X83186957Y-42439842D01*
X83168469Y-42442052D01*
X83161454Y-42436344D01*
X83166425Y-42421799D01*
X83183896Y-42397500D01*
X83214383Y-42362527D01*
X83258398Y-42315962D01*
X83316456Y-42256887D01*
X83396330Y-42174606D01*
X83478761Y-42083883D01*
X83549839Y-41997864D01*
X83612286Y-41913034D01*
X83668823Y-41825879D01*
X83722171Y-41732883D01*
X83742543Y-41694111D01*
X83801922Y-41560770D01*
X83842858Y-41429731D01*
X83865821Y-41298572D01*
X83871282Y-41164868D01*
X83859714Y-41026199D01*
X83857533Y-41011427D01*
X83847765Y-40955493D01*
X83835377Y-40895539D01*
X83821374Y-40835489D01*
X83806758Y-40779263D01*
X83792534Y-40730783D01*
X83779705Y-40693971D01*
X83769274Y-40672747D01*
X83764034Y-40666349D01*
X83756623Y-40663896D01*
X83748454Y-40674513D01*
X83736358Y-40700911D01*
X83711157Y-40750191D01*
X83659774Y-40823763D01*
X83594419Y-40895542D01*
X83518391Y-40962409D01*
X83434987Y-41021241D01*
X83347505Y-41068919D01*
X83308080Y-41086903D01*
X83238065Y-41117589D01*
X83164141Y-41148687D01*
X83089447Y-41178981D01*
X83017124Y-41207253D01*
X82950311Y-41232283D01*
X82892147Y-41252855D01*
X82845771Y-41267751D01*
X82814323Y-41275752D01*
X82790680Y-41279162D01*
X82745108Y-41278328D01*
X82714604Y-41264831D01*
X82699018Y-41238620D01*
X82697354Y-41226972D01*
X82701271Y-41210891D01*
X82714897Y-41191139D01*
X82740827Y-41163026D01*
X82751162Y-41152773D01*
X82785990Y-41120915D01*
X82827349Y-41085736D01*
X82868367Y-41053158D01*
X82880201Y-41043904D01*
X82919943Y-41010572D01*
X82966688Y-40968931D01*
X83015559Y-40923391D01*
X83061678Y-40878363D01*
X83092083Y-40847316D01*
X83167309Y-40764615D01*
X83225368Y-40690624D01*
X83266518Y-40624947D01*
X83291018Y-40567191D01*
X83299127Y-40516961D01*
X83297476Y-40491692D01*
X83289593Y-40471730D01*
X83272069Y-40458854D01*
X83241516Y-40450734D01*
X83194545Y-40445039D01*
X83149103Y-40438024D01*
X83110016Y-40423387D01*
X83089508Y-40402160D01*
X83087643Y-40374383D01*
X83087758Y-40373943D01*
X83097508Y-40356395D01*
X83118418Y-40328939D01*
X83147488Y-40295252D01*
X83181724Y-40259007D01*
X83184645Y-40256038D01*
X83217674Y-40221116D01*
X83244617Y-40190239D01*
X83262768Y-40166659D01*
X83269419Y-40153628D01*
X83266370Y-40142042D01*
X83249822Y-40131510D01*
X83218287Y-40129479D01*
X83171071Y-40136010D01*
X83107476Y-40151164D01*
X83026807Y-40175002D01*
X82989533Y-40186462D01*
X82931726Y-40202224D01*
X82889280Y-40209998D01*
X82860313Y-40209616D01*
X82842943Y-40200910D01*
X82835289Y-40183711D01*
X82835468Y-40157850D01*
X82836167Y-40153182D01*
X82841723Y-40139091D01*
X82854851Y-40125726D01*
X82879066Y-40110175D01*
X82917879Y-40089526D01*
X82930204Y-40083219D01*
X82970691Y-40062403D01*
X83006745Y-40043735D01*
X83031759Y-40030634D01*
X83047234Y-40021110D01*
X83079977Y-39997929D01*
X83124148Y-39964541D01*
X83177715Y-39922563D01*
X83238645Y-39873615D01*
X83304907Y-39819316D01*
X83374470Y-39761286D01*
X83445300Y-39701142D01*
X83526251Y-39629233D01*
X83600236Y-39556596D01*
X83657535Y-39490837D01*
X83698650Y-39430832D01*
X83724082Y-39375457D01*
X83734332Y-39323590D01*
X83729903Y-39274106D01*
X83711296Y-39225882D01*
X83679013Y-39177796D01*
X83678320Y-39176937D01*
X83643368Y-39139171D01*
X83605743Y-39107428D01*
X83568627Y-39083449D01*
X83535202Y-39068976D01*
X83508651Y-39065750D01*
X83492155Y-39075514D01*
X83482460Y-39084416D01*
X83461269Y-39100040D01*
X83434211Y-39118491D01*
X83406756Y-39136150D01*
X83384376Y-39149399D01*
X83372543Y-39154620D01*
X83370780Y-39155116D01*
X83356828Y-39163281D01*
X83335601Y-39178296D01*
X83314491Y-39192599D01*
X83267402Y-39219449D01*
X83207077Y-39249721D01*
X83136997Y-39281844D01*
X83060642Y-39314248D01*
X82981491Y-39345361D01*
X82903026Y-39373611D01*
X82870643Y-39384432D01*
X82838902Y-39393486D01*
X82814792Y-39396989D01*
X82792044Y-39395697D01*
X82764390Y-39390368D01*
X82725704Y-39379986D01*
X82700749Y-39367039D01*
X82688456Y-39348966D01*
X82685170Y-39322646D01*
X82689547Y-39304313D01*
X82709925Y-39271302D01*
X82720020Y-39259934D01*
X82886209Y-39259934D01*
X82893732Y-39260037D01*
X82915909Y-39254235D01*
X82947795Y-39243281D01*
X82984680Y-39228824D01*
X83021856Y-39212508D01*
X83033410Y-39207232D01*
X83070929Y-39191199D01*
X83104062Y-39178370D01*
X83120366Y-39171761D01*
X83153972Y-39156310D01*
X83195470Y-39135921D01*
X83239363Y-39113239D01*
X83270546Y-39096185D01*
X83312469Y-39071715D01*
X83347428Y-39049576D01*
X83370062Y-39033058D01*
X83403104Y-39004679D01*
X83342778Y-39010646D01*
X83316447Y-39014433D01*
X83263925Y-39026526D01*
X83208790Y-39043583D01*
X83158470Y-39063188D01*
X83120394Y-39082929D01*
X83115090Y-39086360D01*
X83068045Y-39117688D01*
X83021290Y-39150235D01*
X82977520Y-39181963D01*
X82939431Y-39210835D01*
X82909719Y-39234812D01*
X82891080Y-39251858D01*
X82886209Y-39259934D01*
X82720020Y-39259934D01*
X82745997Y-39230682D01*
X82796731Y-39183471D01*
X82861096Y-39130684D01*
X82938060Y-39073338D01*
X83006582Y-39025736D01*
X83080100Y-38979181D01*
X83144965Y-38944452D01*
X83204151Y-38920378D01*
X83260631Y-38905789D01*
X83317381Y-38899514D01*
X83377374Y-38900381D01*
X83389979Y-38901246D01*
X83403104Y-38902356D01*
X83431570Y-38904764D01*
X83466357Y-38908652D01*
X83487853Y-38912215D01*
X83499449Y-38912869D01*
X83525295Y-38902068D01*
X83556356Y-38874834D01*
X83593319Y-38830506D01*
X83636870Y-38768421D01*
X83676308Y-38700199D01*
X83705553Y-38624078D01*
X83719381Y-38544957D01*
X83718419Y-38459017D01*
X83703289Y-38362442D01*
X83700005Y-38347510D01*
X83679874Y-38274584D01*
X83655205Y-38217509D01*
X83623783Y-38173011D01*
X83583398Y-38137815D01*
X83531836Y-38108645D01*
X83494352Y-38093120D01*
X83460050Y-38086695D01*
X83426075Y-38091902D01*
X83384254Y-38108749D01*
X83345787Y-38126640D01*
X83294180Y-38150268D01*
X83253470Y-38168418D01*
X83225980Y-38180062D01*
X83214027Y-38184171D01*
X83205924Y-38186796D01*
X83184183Y-38195774D01*
X83154612Y-38208928D01*
X83129853Y-38219909D01*
X83105534Y-38229841D01*
X83093356Y-38233660D01*
X83083498Y-38236555D01*
X83058440Y-38246108D01*
X83022219Y-38260849D01*
X82978531Y-38279243D01*
X82931074Y-38299754D01*
X82883543Y-38320845D01*
X82859613Y-38331335D01*
X82827205Y-38344708D01*
X82804322Y-38353155D01*
X82782944Y-38360308D01*
X82739044Y-38376118D01*
X82685699Y-38396222D01*
X82628208Y-38418613D01*
X82571872Y-38441282D01*
X82514418Y-38463754D01*
X82397160Y-38503651D01*
X82277202Y-38537266D01*
X82157855Y-38563999D01*
X82042428Y-38583247D01*
X81934230Y-38594411D01*
X81836573Y-38596888D01*
X81752766Y-38590077D01*
X81717472Y-38584341D01*
X81688024Y-38577479D01*
X81666672Y-38567785D01*
X81647133Y-38552243D01*
X81623123Y-38527835D01*
X81599602Y-38500645D01*
X81582582Y-38476274D01*
X81580903Y-38472164D01*
X81734877Y-38472164D01*
X81738482Y-38478536D01*
X81742278Y-38479890D01*
X81762916Y-38482264D01*
X81797898Y-38484053D01*
X81843585Y-38485102D01*
X81896333Y-38485256D01*
X81928605Y-38484998D01*
X81969206Y-38484217D01*
X82005165Y-38482470D01*
X82039449Y-38479216D01*
X82075022Y-38473914D01*
X82114850Y-38466022D01*
X82161900Y-38455000D01*
X82219137Y-38440307D01*
X82289526Y-38421400D01*
X82376034Y-38397741D01*
X82463999Y-38372800D01*
X82596608Y-38331398D01*
X82721758Y-38287004D01*
X82847090Y-38237013D01*
X82902924Y-38213598D01*
X82971087Y-38185007D01*
X83038388Y-38156773D01*
X83096125Y-38132545D01*
X83098402Y-38131589D01*
X83146664Y-38110956D01*
X83191196Y-38091296D01*
X83227134Y-38074794D01*
X83249614Y-38063633D01*
X83284273Y-38044592D01*
X83190199Y-38050358D01*
X83181013Y-38050977D01*
X83123103Y-38056653D01*
X83061121Y-38065034D01*
X83007002Y-38074545D01*
X82927094Y-38091110D01*
X82820357Y-38113446D01*
X82730149Y-38132642D01*
X82654715Y-38149096D01*
X82592300Y-38163210D01*
X82541149Y-38175383D01*
X82499508Y-38186014D01*
X82465621Y-38195504D01*
X82437733Y-38204252D01*
X82315862Y-38245062D01*
X82195793Y-38285539D01*
X82092485Y-38320752D01*
X82004835Y-38351132D01*
X81931739Y-38377113D01*
X81872094Y-38399127D01*
X81824796Y-38417608D01*
X81788740Y-38432989D01*
X81762825Y-38445702D01*
X81745944Y-38456180D01*
X81736996Y-38464856D01*
X81734877Y-38472164D01*
X81580903Y-38472164D01*
X81576086Y-38460368D01*
X81576131Y-38458695D01*
X81584392Y-38436971D01*
X81607356Y-38413234D01*
X81645687Y-38387163D01*
X81700046Y-38358437D01*
X81771096Y-38326734D01*
X81859500Y-38291733D01*
X81965919Y-38253112D01*
X82091018Y-38210550D01*
X82140251Y-38194241D01*
X82233576Y-38163445D01*
X82311920Y-38137857D01*
X82377873Y-38116725D01*
X82434020Y-38099294D01*
X82482951Y-38084810D01*
X82527253Y-38072519D01*
X82569513Y-38061667D01*
X82612321Y-38051499D01*
X82658262Y-38041263D01*
X82709926Y-38030202D01*
X82748051Y-38022172D01*
X82867971Y-37997572D01*
X82971202Y-37977647D01*
X83059669Y-37962168D01*
X83135298Y-37950907D01*
X83200013Y-37943636D01*
X83255741Y-37940128D01*
X83284273Y-37940143D01*
X83304406Y-37940154D01*
X83347934Y-37943487D01*
X83388250Y-37949899D01*
X83462519Y-37964761D01*
X83604848Y-37890604D01*
X83670971Y-37855386D01*
X83773479Y-37796838D01*
X83857330Y-37743136D01*
X83922823Y-37694086D01*
X83970256Y-37649490D01*
X83996860Y-37614812D01*
X84017225Y-37567245D01*
X84018050Y-37521312D01*
X83999485Y-37477583D01*
X83961676Y-37436625D01*
X83904774Y-37399006D01*
X83869948Y-37382257D01*
X83826202Y-37366139D01*
X83775238Y-37352382D01*
X83714959Y-37340645D01*
X83643266Y-37330589D01*
X83558063Y-37321872D01*
X83457253Y-37314153D01*
X83338737Y-37307093D01*
X83291583Y-37304083D01*
X83206516Y-37295234D01*
X83138478Y-37282638D01*
X83085770Y-37265931D01*
X83046690Y-37244750D01*
X83001768Y-37203725D01*
X82966293Y-37152591D01*
X82946157Y-37098647D01*
X82937684Y-37057841D01*
X82818854Y-37096378D01*
X82816615Y-37097105D01*
X82769591Y-37112608D01*
X82728254Y-37126661D01*
X82696998Y-37137745D01*
X82680219Y-37144340D01*
X82676682Y-37145737D01*
X82655902Y-37152483D01*
X82621466Y-37162860D01*
X82577311Y-37175749D01*
X82527371Y-37190031D01*
X82475583Y-37204586D01*
X82425881Y-37218294D01*
X82382203Y-37230036D01*
X82348484Y-37238694D01*
X82347495Y-37238940D01*
X82327120Y-37244543D01*
X82300037Y-37252503D01*
X82296326Y-37253580D01*
X82272377Y-37258342D01*
X82258156Y-37257540D01*
X82249860Y-37256418D01*
X82231390Y-37262306D01*
X82223818Y-37266097D01*
X82209138Y-37271775D01*
X82188400Y-37277436D01*
X82157123Y-37284233D01*
X82110823Y-37293319D01*
X82076935Y-37300030D01*
X82030048Y-37309668D01*
X81984622Y-37319307D01*
X81945407Y-37325307D01*
X81888888Y-37329601D01*
X81823424Y-37331490D01*
X81753794Y-37331086D01*
X81684778Y-37328498D01*
X81621153Y-37323839D01*
X81567699Y-37317218D01*
X81529195Y-37308747D01*
X81524270Y-37307109D01*
X81475584Y-37282606D01*
X81435347Y-37247716D01*
X81406261Y-37206195D01*
X81391026Y-37161802D01*
X81391378Y-37150177D01*
X81500947Y-37150177D01*
X81502729Y-37162594D01*
X81517476Y-37179922D01*
X81525110Y-37187369D01*
X81545405Y-37201495D01*
X81571883Y-37211986D01*
X81607261Y-37219301D01*
X81654253Y-37223902D01*
X81715575Y-37226249D01*
X81793942Y-37226801D01*
X81867799Y-37225775D01*
X81969769Y-37220465D01*
X82062799Y-37209930D01*
X82153246Y-37193375D01*
X82247466Y-37170004D01*
X82377433Y-37133774D01*
X82531391Y-37089426D01*
X82666996Y-37048541D01*
X82784861Y-37010916D01*
X82885598Y-36976345D01*
X82969821Y-36944624D01*
X83038142Y-36915550D01*
X83091174Y-36888917D01*
X83127062Y-36869248D01*
X83171823Y-36845467D01*
X83210004Y-36825916D01*
X83264468Y-36798886D01*
X83101076Y-36803568D01*
X83013993Y-36806286D01*
X82901404Y-36810695D01*
X82804387Y-36815780D01*
X82720429Y-36821727D01*
X82647017Y-36828724D01*
X82581638Y-36836956D01*
X82521778Y-36846611D01*
X82504329Y-36849645D01*
X82460782Y-36856784D01*
X82409545Y-36864796D01*
X82358386Y-36872453D01*
X82243227Y-36890924D01*
X82126458Y-36913068D01*
X82014166Y-36937696D01*
X81908251Y-36964226D01*
X81810616Y-36992079D01*
X81723162Y-37020672D01*
X81647788Y-37049424D01*
X81586398Y-37077755D01*
X81540891Y-37105082D01*
X81513170Y-37130826D01*
X81511313Y-37133358D01*
X81500947Y-37150177D01*
X81391378Y-37150177D01*
X81392344Y-37118296D01*
X81392959Y-37116063D01*
X81409930Y-37085317D01*
X81442008Y-37050845D01*
X81486004Y-37015607D01*
X81538727Y-36982561D01*
X81552790Y-36975180D01*
X81611092Y-36949591D01*
X81685158Y-36922828D01*
X81771981Y-36895689D01*
X81868552Y-36868975D01*
X81971866Y-36843484D01*
X82078913Y-36820015D01*
X82186687Y-36799368D01*
X82292179Y-36782342D01*
X82327831Y-36777143D01*
X82392294Y-36767556D01*
X82453971Y-36758172D01*
X82507254Y-36749850D01*
X82546534Y-36743445D01*
X82548975Y-36743035D01*
X82618808Y-36733259D01*
X82705661Y-36724259D01*
X82806867Y-36716248D01*
X82919756Y-36709439D01*
X83041661Y-36704044D01*
X83123246Y-36700994D01*
X83236669Y-36696534D01*
X83264468Y-36695342D01*
X83332575Y-36692423D01*
X83412364Y-36688572D01*
X83477431Y-36684891D01*
X83529175Y-36681287D01*
X83568992Y-36677672D01*
X83598281Y-36673954D01*
X83618438Y-36670042D01*
X83630862Y-36665847D01*
X83631536Y-36665520D01*
X83713325Y-36625705D01*
X83780136Y-36592602D01*
X83834943Y-36564626D01*
X83880721Y-36540188D01*
X83920446Y-36517699D01*
X83957092Y-36495574D01*
X83993634Y-36472222D01*
X84059584Y-36426009D01*
X84122618Y-36373247D01*
X84168440Y-36323479D01*
X84196061Y-36277654D01*
X84204109Y-36248562D01*
X84209066Y-36201025D01*
X84208498Y-36148103D01*
X84202563Y-36097325D01*
X84191420Y-36056219D01*
X84189151Y-36050843D01*
X84156766Y-35995727D01*
X84108899Y-35939647D01*
X84049019Y-35885765D01*
X83980596Y-35837240D01*
X83907097Y-35797232D01*
X83866506Y-35779200D01*
X83809551Y-35757586D01*
X83753840Y-35742075D01*
X83694130Y-35731576D01*
X83625177Y-35724999D01*
X83541739Y-35721254D01*
X83538829Y-35721171D01*
X83432506Y-35721131D01*
X83339419Y-35728059D01*
X83254067Y-35742902D01*
X83170949Y-35766611D01*
X83084564Y-35800133D01*
X83040965Y-35819252D01*
X82994347Y-35841412D01*
X82963198Y-35859768D01*
X82945731Y-35876180D01*
X82940159Y-35892510D01*
X82944692Y-35910619D01*
X82957545Y-35932368D01*
X82957805Y-35932753D01*
X82991846Y-36000246D01*
X83007491Y-36074336D01*
X83004661Y-36154093D01*
X82983279Y-36238589D01*
X82982534Y-36240673D01*
X82954881Y-36299320D01*
X82917634Y-36344381D01*
X82867582Y-36378807D01*
X82801511Y-36405550D01*
X82743174Y-36422171D01*
X82693288Y-36430782D01*
X82653441Y-36429507D01*
X82619843Y-36418185D01*
X82588706Y-36396659D01*
X82573551Y-36382515D01*
X82539258Y-36335112D01*
X82521173Y-36278637D01*
X82519559Y-36238167D01*
X82612279Y-36238167D01*
X82617994Y-36278443D01*
X82639510Y-36309208D01*
X82656092Y-36320582D01*
X82697939Y-36332158D01*
X82747831Y-36327006D01*
X82804100Y-36305166D01*
X82810796Y-36301677D01*
X82842500Y-36281751D01*
X82864665Y-36258247D01*
X82884904Y-36223470D01*
X82904716Y-36176844D01*
X82918041Y-36114618D01*
X82913810Y-36058674D01*
X82913713Y-36058293D01*
X82897560Y-36017070D01*
X82872232Y-35974692D01*
X82843903Y-35941512D01*
X82838815Y-35937065D01*
X82829951Y-35932077D01*
X82819980Y-35933694D01*
X82805744Y-35943830D01*
X82784084Y-35964399D01*
X82751842Y-35997316D01*
X82735795Y-36014269D01*
X82684124Y-36076431D01*
X82645926Y-36135545D01*
X82621783Y-36189996D01*
X82612279Y-36238167D01*
X82519559Y-36238167D01*
X82518472Y-36210913D01*
X82520373Y-36190947D01*
X82533857Y-36133141D01*
X82560295Y-36075693D01*
X82601303Y-36015591D01*
X82658496Y-35949822D01*
X82735798Y-35868077D01*
X82683252Y-35852072D01*
X82663863Y-35846737D01*
X82580773Y-35833781D01*
X82484321Y-35832211D01*
X82376578Y-35841773D01*
X82259615Y-35862215D01*
X82135501Y-35893284D01*
X82006307Y-35934728D01*
X81961588Y-35951036D01*
X81895156Y-35977670D01*
X81836019Y-36005467D01*
X81779855Y-36036933D01*
X81722343Y-36074573D01*
X81659161Y-36120891D01*
X81585989Y-36178394D01*
X81549370Y-36208660D01*
X81464690Y-36286453D01*
X81393637Y-36363750D01*
X81337452Y-36438964D01*
X81297374Y-36510510D01*
X81274642Y-36576801D01*
X81271375Y-36589537D01*
X81258044Y-36616298D01*
X81240362Y-36624848D01*
X81219409Y-36614452D01*
X81208247Y-36600542D01*
X81200772Y-36569462D01*
X81207647Y-36527655D01*
X81228966Y-36473758D01*
X81255754Y-36421706D01*
X81300287Y-36351893D01*
X81355021Y-36284167D01*
X81423846Y-36213332D01*
X81425216Y-36212016D01*
X81539222Y-36108985D01*
X81650842Y-36021982D01*
X81763670Y-35949158D01*
X81881302Y-35888660D01*
X82007332Y-35838637D01*
X82145357Y-35797236D01*
X82298971Y-35762607D01*
X82351776Y-35753173D01*
X82475232Y-35739409D01*
X82585992Y-35739914D01*
X82684836Y-35754724D01*
X82772543Y-35783873D01*
X82825257Y-35807115D01*
X82829951Y-35804746D01*
X82885072Y-35776921D01*
X82895960Y-35771477D01*
X83035503Y-35710540D01*
X83177046Y-35664374D01*
X83318581Y-35633114D01*
X83458102Y-35616895D01*
X83593599Y-35615852D01*
X83723065Y-35630119D01*
G37*
%TD*%
M02*
