%TF.GenerationSoftware,KiCad,Pcbnew,7.0.7*%
%TF.CreationDate,2023-11-02T23:29:27-05:00*%
%TF.ProjectId,Laser_Diode_Breakout,4c617365-725f-4446-996f-64655f427265,rev?*%
%TF.SameCoordinates,Original*%
%TF.FileFunction,Legend,Top*%
%TF.FilePolarity,Positive*%
%FSLAX46Y46*%
G04 Gerber Fmt 4.6, Leading zero omitted, Abs format (unit mm)*
G04 Created by KiCad (PCBNEW 7.0.7) date 2023-11-02 23:29:27*
%MOMM*%
%LPD*%
G01*
G04 APERTURE LIST*
%ADD10C,0.150000*%
%ADD11C,0.203200*%
%ADD12C,0.254000*%
%ADD13C,0.120000*%
%ADD14C,0.100000*%
%ADD15C,0.200000*%
G04 APERTURE END LIST*
D10*
X56801180Y-27419541D02*
X55801180Y-27657636D01*
X55801180Y-27657636D02*
X56515466Y-27848112D01*
X56515466Y-27848112D02*
X55801180Y-28038588D01*
X55801180Y-28038588D02*
X56801180Y-28276684D01*
X55801180Y-29086207D02*
X56324990Y-29086207D01*
X56324990Y-29086207D02*
X56420228Y-29038588D01*
X56420228Y-29038588D02*
X56467847Y-28943350D01*
X56467847Y-28943350D02*
X56467847Y-28752874D01*
X56467847Y-28752874D02*
X56420228Y-28657636D01*
X55848800Y-29086207D02*
X55801180Y-28990969D01*
X55801180Y-28990969D02*
X55801180Y-28752874D01*
X55801180Y-28752874D02*
X55848800Y-28657636D01*
X55848800Y-28657636D02*
X55944038Y-28610017D01*
X55944038Y-28610017D02*
X56039276Y-28610017D01*
X56039276Y-28610017D02*
X56134514Y-28657636D01*
X56134514Y-28657636D02*
X56182133Y-28752874D01*
X56182133Y-28752874D02*
X56182133Y-28990969D01*
X56182133Y-28990969D02*
X56229752Y-29086207D01*
X55801180Y-29562398D02*
X56467847Y-29562398D01*
X56277371Y-29562398D02*
X56372609Y-29610017D01*
X56372609Y-29610017D02*
X56420228Y-29657636D01*
X56420228Y-29657636D02*
X56467847Y-29752874D01*
X56467847Y-29752874D02*
X56467847Y-29848112D01*
X56467847Y-30181446D02*
X55801180Y-30181446D01*
X56372609Y-30181446D02*
X56420228Y-30229065D01*
X56420228Y-30229065D02*
X56467847Y-30324303D01*
X56467847Y-30324303D02*
X56467847Y-30467160D01*
X56467847Y-30467160D02*
X56420228Y-30562398D01*
X56420228Y-30562398D02*
X56324990Y-30610017D01*
X56324990Y-30610017D02*
X55801180Y-30610017D01*
X55801180Y-31086208D02*
X56467847Y-31086208D01*
X56801180Y-31086208D02*
X56753561Y-31038589D01*
X56753561Y-31038589D02*
X56705942Y-31086208D01*
X56705942Y-31086208D02*
X56753561Y-31133827D01*
X56753561Y-31133827D02*
X56801180Y-31086208D01*
X56801180Y-31086208D02*
X56705942Y-31086208D01*
X56467847Y-31562398D02*
X55801180Y-31562398D01*
X56372609Y-31562398D02*
X56420228Y-31610017D01*
X56420228Y-31610017D02*
X56467847Y-31705255D01*
X56467847Y-31705255D02*
X56467847Y-31848112D01*
X56467847Y-31848112D02*
X56420228Y-31943350D01*
X56420228Y-31943350D02*
X56324990Y-31990969D01*
X56324990Y-31990969D02*
X55801180Y-31990969D01*
X56467847Y-32895731D02*
X55658323Y-32895731D01*
X55658323Y-32895731D02*
X55563085Y-32848112D01*
X55563085Y-32848112D02*
X55515466Y-32800493D01*
X55515466Y-32800493D02*
X55467847Y-32705255D01*
X55467847Y-32705255D02*
X55467847Y-32562398D01*
X55467847Y-32562398D02*
X55515466Y-32467160D01*
X55848800Y-32895731D02*
X55801180Y-32800493D01*
X55801180Y-32800493D02*
X55801180Y-32610017D01*
X55801180Y-32610017D02*
X55848800Y-32514779D01*
X55848800Y-32514779D02*
X55896419Y-32467160D01*
X55896419Y-32467160D02*
X55991657Y-32419541D01*
X55991657Y-32419541D02*
X56277371Y-32419541D01*
X56277371Y-32419541D02*
X56372609Y-32467160D01*
X56372609Y-32467160D02*
X56420228Y-32514779D01*
X56420228Y-32514779D02*
X56467847Y-32610017D01*
X56467847Y-32610017D02*
X56467847Y-32800493D01*
X56467847Y-32800493D02*
X56420228Y-32895731D01*
X55896419Y-33371922D02*
X55848800Y-33419541D01*
X55848800Y-33419541D02*
X55801180Y-33371922D01*
X55801180Y-33371922D02*
X55848800Y-33324303D01*
X55848800Y-33324303D02*
X55896419Y-33371922D01*
X55896419Y-33371922D02*
X55801180Y-33371922D01*
X56182133Y-33371922D02*
X56753561Y-33324303D01*
X56753561Y-33324303D02*
X56801180Y-33371922D01*
X56801180Y-33371922D02*
X56753561Y-33419541D01*
X56753561Y-33419541D02*
X56182133Y-33371922D01*
X56182133Y-33371922D02*
X56801180Y-33371922D01*
X56801180Y-34467160D02*
X56801180Y-35038588D01*
X55801180Y-34752874D02*
X56801180Y-34752874D01*
X55801180Y-35371922D02*
X56801180Y-35371922D01*
X55801180Y-35800493D02*
X56324990Y-35800493D01*
X56324990Y-35800493D02*
X56420228Y-35752874D01*
X56420228Y-35752874D02*
X56467847Y-35657636D01*
X56467847Y-35657636D02*
X56467847Y-35514779D01*
X56467847Y-35514779D02*
X56420228Y-35419541D01*
X56420228Y-35419541D02*
X56372609Y-35371922D01*
X55801180Y-36276684D02*
X56467847Y-36276684D01*
X56801180Y-36276684D02*
X56753561Y-36229065D01*
X56753561Y-36229065D02*
X56705942Y-36276684D01*
X56705942Y-36276684D02*
X56753561Y-36324303D01*
X56753561Y-36324303D02*
X56801180Y-36276684D01*
X56801180Y-36276684D02*
X56705942Y-36276684D01*
X55848800Y-36705255D02*
X55801180Y-36800493D01*
X55801180Y-36800493D02*
X55801180Y-36990969D01*
X55801180Y-36990969D02*
X55848800Y-37086207D01*
X55848800Y-37086207D02*
X55944038Y-37133826D01*
X55944038Y-37133826D02*
X55991657Y-37133826D01*
X55991657Y-37133826D02*
X56086895Y-37086207D01*
X56086895Y-37086207D02*
X56134514Y-36990969D01*
X56134514Y-36990969D02*
X56134514Y-36848112D01*
X56134514Y-36848112D02*
X56182133Y-36752874D01*
X56182133Y-36752874D02*
X56277371Y-36705255D01*
X56277371Y-36705255D02*
X56324990Y-36705255D01*
X56324990Y-36705255D02*
X56420228Y-36752874D01*
X56420228Y-36752874D02*
X56467847Y-36848112D01*
X56467847Y-36848112D02*
X56467847Y-36990969D01*
X56467847Y-36990969D02*
X56420228Y-37086207D01*
X55801180Y-38324303D02*
X56801180Y-38324303D01*
X56420228Y-38324303D02*
X56467847Y-38419541D01*
X56467847Y-38419541D02*
X56467847Y-38610017D01*
X56467847Y-38610017D02*
X56420228Y-38705255D01*
X56420228Y-38705255D02*
X56372609Y-38752874D01*
X56372609Y-38752874D02*
X56277371Y-38800493D01*
X56277371Y-38800493D02*
X55991657Y-38800493D01*
X55991657Y-38800493D02*
X55896419Y-38752874D01*
X55896419Y-38752874D02*
X55848800Y-38705255D01*
X55848800Y-38705255D02*
X55801180Y-38610017D01*
X55801180Y-38610017D02*
X55801180Y-38419541D01*
X55801180Y-38419541D02*
X55848800Y-38324303D01*
X55801180Y-39371922D02*
X55848800Y-39276684D01*
X55848800Y-39276684D02*
X55896419Y-39229065D01*
X55896419Y-39229065D02*
X55991657Y-39181446D01*
X55991657Y-39181446D02*
X56277371Y-39181446D01*
X56277371Y-39181446D02*
X56372609Y-39229065D01*
X56372609Y-39229065D02*
X56420228Y-39276684D01*
X56420228Y-39276684D02*
X56467847Y-39371922D01*
X56467847Y-39371922D02*
X56467847Y-39514779D01*
X56467847Y-39514779D02*
X56420228Y-39610017D01*
X56420228Y-39610017D02*
X56372609Y-39657636D01*
X56372609Y-39657636D02*
X56277371Y-39705255D01*
X56277371Y-39705255D02*
X55991657Y-39705255D01*
X55991657Y-39705255D02*
X55896419Y-39657636D01*
X55896419Y-39657636D02*
X55848800Y-39610017D01*
X55848800Y-39610017D02*
X55801180Y-39514779D01*
X55801180Y-39514779D02*
X55801180Y-39371922D01*
X55801180Y-40562398D02*
X56324990Y-40562398D01*
X56324990Y-40562398D02*
X56420228Y-40514779D01*
X56420228Y-40514779D02*
X56467847Y-40419541D01*
X56467847Y-40419541D02*
X56467847Y-40229065D01*
X56467847Y-40229065D02*
X56420228Y-40133827D01*
X55848800Y-40562398D02*
X55801180Y-40467160D01*
X55801180Y-40467160D02*
X55801180Y-40229065D01*
X55801180Y-40229065D02*
X55848800Y-40133827D01*
X55848800Y-40133827D02*
X55944038Y-40086208D01*
X55944038Y-40086208D02*
X56039276Y-40086208D01*
X56039276Y-40086208D02*
X56134514Y-40133827D01*
X56134514Y-40133827D02*
X56182133Y-40229065D01*
X56182133Y-40229065D02*
X56182133Y-40467160D01*
X56182133Y-40467160D02*
X56229752Y-40562398D01*
X55801180Y-41038589D02*
X56467847Y-41038589D01*
X56277371Y-41038589D02*
X56372609Y-41086208D01*
X56372609Y-41086208D02*
X56420228Y-41133827D01*
X56420228Y-41133827D02*
X56467847Y-41229065D01*
X56467847Y-41229065D02*
X56467847Y-41324303D01*
X55801180Y-42086208D02*
X56801180Y-42086208D01*
X55848800Y-42086208D02*
X55801180Y-41990970D01*
X55801180Y-41990970D02*
X55801180Y-41800494D01*
X55801180Y-41800494D02*
X55848800Y-41705256D01*
X55848800Y-41705256D02*
X55896419Y-41657637D01*
X55896419Y-41657637D02*
X55991657Y-41610018D01*
X55991657Y-41610018D02*
X56277371Y-41610018D01*
X56277371Y-41610018D02*
X56372609Y-41657637D01*
X56372609Y-41657637D02*
X56420228Y-41705256D01*
X56420228Y-41705256D02*
X56467847Y-41800494D01*
X56467847Y-41800494D02*
X56467847Y-41990970D01*
X56467847Y-41990970D02*
X56420228Y-42086208D01*
X54238800Y-27943350D02*
X54191180Y-27848112D01*
X54191180Y-27848112D02*
X54191180Y-27657636D01*
X54191180Y-27657636D02*
X54238800Y-27562398D01*
X54238800Y-27562398D02*
X54286419Y-27514779D01*
X54286419Y-27514779D02*
X54381657Y-27467160D01*
X54381657Y-27467160D02*
X54667371Y-27467160D01*
X54667371Y-27467160D02*
X54762609Y-27514779D01*
X54762609Y-27514779D02*
X54810228Y-27562398D01*
X54810228Y-27562398D02*
X54857847Y-27657636D01*
X54857847Y-27657636D02*
X54857847Y-27848112D01*
X54857847Y-27848112D02*
X54810228Y-27943350D01*
X54191180Y-28514779D02*
X54238800Y-28419541D01*
X54238800Y-28419541D02*
X54286419Y-28371922D01*
X54286419Y-28371922D02*
X54381657Y-28324303D01*
X54381657Y-28324303D02*
X54667371Y-28324303D01*
X54667371Y-28324303D02*
X54762609Y-28371922D01*
X54762609Y-28371922D02*
X54810228Y-28419541D01*
X54810228Y-28419541D02*
X54857847Y-28514779D01*
X54857847Y-28514779D02*
X54857847Y-28657636D01*
X54857847Y-28657636D02*
X54810228Y-28752874D01*
X54810228Y-28752874D02*
X54762609Y-28800493D01*
X54762609Y-28800493D02*
X54667371Y-28848112D01*
X54667371Y-28848112D02*
X54381657Y-28848112D01*
X54381657Y-28848112D02*
X54286419Y-28800493D01*
X54286419Y-28800493D02*
X54238800Y-28752874D01*
X54238800Y-28752874D02*
X54191180Y-28657636D01*
X54191180Y-28657636D02*
X54191180Y-28514779D01*
X54857847Y-29276684D02*
X54191180Y-29276684D01*
X54762609Y-29276684D02*
X54810228Y-29324303D01*
X54810228Y-29324303D02*
X54857847Y-29419541D01*
X54857847Y-29419541D02*
X54857847Y-29562398D01*
X54857847Y-29562398D02*
X54810228Y-29657636D01*
X54810228Y-29657636D02*
X54714990Y-29705255D01*
X54714990Y-29705255D02*
X54191180Y-29705255D01*
X54857847Y-30038589D02*
X54857847Y-30419541D01*
X55191180Y-30181446D02*
X54334038Y-30181446D01*
X54334038Y-30181446D02*
X54238800Y-30229065D01*
X54238800Y-30229065D02*
X54191180Y-30324303D01*
X54191180Y-30324303D02*
X54191180Y-30419541D01*
X54191180Y-31181446D02*
X54714990Y-31181446D01*
X54714990Y-31181446D02*
X54810228Y-31133827D01*
X54810228Y-31133827D02*
X54857847Y-31038589D01*
X54857847Y-31038589D02*
X54857847Y-30848113D01*
X54857847Y-30848113D02*
X54810228Y-30752875D01*
X54238800Y-31181446D02*
X54191180Y-31086208D01*
X54191180Y-31086208D02*
X54191180Y-30848113D01*
X54191180Y-30848113D02*
X54238800Y-30752875D01*
X54238800Y-30752875D02*
X54334038Y-30705256D01*
X54334038Y-30705256D02*
X54429276Y-30705256D01*
X54429276Y-30705256D02*
X54524514Y-30752875D01*
X54524514Y-30752875D02*
X54572133Y-30848113D01*
X54572133Y-30848113D02*
X54572133Y-31086208D01*
X54572133Y-31086208D02*
X54619752Y-31181446D01*
X54191180Y-31657637D02*
X54857847Y-31657637D01*
X55191180Y-31657637D02*
X55143561Y-31610018D01*
X55143561Y-31610018D02*
X55095942Y-31657637D01*
X55095942Y-31657637D02*
X55143561Y-31705256D01*
X55143561Y-31705256D02*
X55191180Y-31657637D01*
X55191180Y-31657637D02*
X55095942Y-31657637D01*
X54857847Y-32133827D02*
X54191180Y-32133827D01*
X54762609Y-32133827D02*
X54810228Y-32181446D01*
X54810228Y-32181446D02*
X54857847Y-32276684D01*
X54857847Y-32276684D02*
X54857847Y-32419541D01*
X54857847Y-32419541D02*
X54810228Y-32514779D01*
X54810228Y-32514779D02*
X54714990Y-32562398D01*
X54714990Y-32562398D02*
X54191180Y-32562398D01*
X54238800Y-32990970D02*
X54191180Y-33086208D01*
X54191180Y-33086208D02*
X54191180Y-33276684D01*
X54191180Y-33276684D02*
X54238800Y-33371922D01*
X54238800Y-33371922D02*
X54334038Y-33419541D01*
X54334038Y-33419541D02*
X54381657Y-33419541D01*
X54381657Y-33419541D02*
X54476895Y-33371922D01*
X54476895Y-33371922D02*
X54524514Y-33276684D01*
X54524514Y-33276684D02*
X54524514Y-33133827D01*
X54524514Y-33133827D02*
X54572133Y-33038589D01*
X54572133Y-33038589D02*
X54667371Y-32990970D01*
X54667371Y-32990970D02*
X54714990Y-32990970D01*
X54714990Y-32990970D02*
X54810228Y-33038589D01*
X54810228Y-33038589D02*
X54857847Y-33133827D01*
X54857847Y-33133827D02*
X54857847Y-33276684D01*
X54857847Y-33276684D02*
X54810228Y-33371922D01*
X54191180Y-34752875D02*
X54238800Y-34657637D01*
X54238800Y-34657637D02*
X54334038Y-34610018D01*
X54334038Y-34610018D02*
X55191180Y-34610018D01*
X54191180Y-35562399D02*
X54714990Y-35562399D01*
X54714990Y-35562399D02*
X54810228Y-35514780D01*
X54810228Y-35514780D02*
X54857847Y-35419542D01*
X54857847Y-35419542D02*
X54857847Y-35229066D01*
X54857847Y-35229066D02*
X54810228Y-35133828D01*
X54238800Y-35562399D02*
X54191180Y-35467161D01*
X54191180Y-35467161D02*
X54191180Y-35229066D01*
X54191180Y-35229066D02*
X54238800Y-35133828D01*
X54238800Y-35133828D02*
X54334038Y-35086209D01*
X54334038Y-35086209D02*
X54429276Y-35086209D01*
X54429276Y-35086209D02*
X54524514Y-35133828D01*
X54524514Y-35133828D02*
X54572133Y-35229066D01*
X54572133Y-35229066D02*
X54572133Y-35467161D01*
X54572133Y-35467161D02*
X54619752Y-35562399D01*
X54238800Y-35990971D02*
X54191180Y-36086209D01*
X54191180Y-36086209D02*
X54191180Y-36276685D01*
X54191180Y-36276685D02*
X54238800Y-36371923D01*
X54238800Y-36371923D02*
X54334038Y-36419542D01*
X54334038Y-36419542D02*
X54381657Y-36419542D01*
X54381657Y-36419542D02*
X54476895Y-36371923D01*
X54476895Y-36371923D02*
X54524514Y-36276685D01*
X54524514Y-36276685D02*
X54524514Y-36133828D01*
X54524514Y-36133828D02*
X54572133Y-36038590D01*
X54572133Y-36038590D02*
X54667371Y-35990971D01*
X54667371Y-35990971D02*
X54714990Y-35990971D01*
X54714990Y-35990971D02*
X54810228Y-36038590D01*
X54810228Y-36038590D02*
X54857847Y-36133828D01*
X54857847Y-36133828D02*
X54857847Y-36276685D01*
X54857847Y-36276685D02*
X54810228Y-36371923D01*
X54238800Y-37229066D02*
X54191180Y-37133828D01*
X54191180Y-37133828D02*
X54191180Y-36943352D01*
X54191180Y-36943352D02*
X54238800Y-36848114D01*
X54238800Y-36848114D02*
X54334038Y-36800495D01*
X54334038Y-36800495D02*
X54714990Y-36800495D01*
X54714990Y-36800495D02*
X54810228Y-36848114D01*
X54810228Y-36848114D02*
X54857847Y-36943352D01*
X54857847Y-36943352D02*
X54857847Y-37133828D01*
X54857847Y-37133828D02*
X54810228Y-37229066D01*
X54810228Y-37229066D02*
X54714990Y-37276685D01*
X54714990Y-37276685D02*
X54619752Y-37276685D01*
X54619752Y-37276685D02*
X54524514Y-36800495D01*
X54191180Y-37705257D02*
X54857847Y-37705257D01*
X54667371Y-37705257D02*
X54762609Y-37752876D01*
X54762609Y-37752876D02*
X54810228Y-37800495D01*
X54810228Y-37800495D02*
X54857847Y-37895733D01*
X54857847Y-37895733D02*
X54857847Y-37990971D01*
X54238800Y-38276686D02*
X54191180Y-38371924D01*
X54191180Y-38371924D02*
X54191180Y-38562400D01*
X54191180Y-38562400D02*
X54238800Y-38657638D01*
X54238800Y-38657638D02*
X54334038Y-38705257D01*
X54334038Y-38705257D02*
X54381657Y-38705257D01*
X54381657Y-38705257D02*
X54476895Y-38657638D01*
X54476895Y-38657638D02*
X54524514Y-38562400D01*
X54524514Y-38562400D02*
X54524514Y-38419543D01*
X54524514Y-38419543D02*
X54572133Y-38324305D01*
X54572133Y-38324305D02*
X54667371Y-38276686D01*
X54667371Y-38276686D02*
X54714990Y-38276686D01*
X54714990Y-38276686D02*
X54810228Y-38324305D01*
X54810228Y-38324305D02*
X54857847Y-38419543D01*
X54857847Y-38419543D02*
X54857847Y-38562400D01*
X54857847Y-38562400D02*
X54810228Y-38657638D01*
X54857847Y-39752877D02*
X54857847Y-40133829D01*
X55191180Y-39895734D02*
X54334038Y-39895734D01*
X54334038Y-39895734D02*
X54238800Y-39943353D01*
X54238800Y-39943353D02*
X54191180Y-40038591D01*
X54191180Y-40038591D02*
X54191180Y-40133829D01*
X54191180Y-40467163D02*
X55191180Y-40467163D01*
X54191180Y-40895734D02*
X54714990Y-40895734D01*
X54714990Y-40895734D02*
X54810228Y-40848115D01*
X54810228Y-40848115D02*
X54857847Y-40752877D01*
X54857847Y-40752877D02*
X54857847Y-40610020D01*
X54857847Y-40610020D02*
X54810228Y-40514782D01*
X54810228Y-40514782D02*
X54762609Y-40467163D01*
X54191180Y-41800496D02*
X54714990Y-41800496D01*
X54714990Y-41800496D02*
X54810228Y-41752877D01*
X54810228Y-41752877D02*
X54857847Y-41657639D01*
X54857847Y-41657639D02*
X54857847Y-41467163D01*
X54857847Y-41467163D02*
X54810228Y-41371925D01*
X54238800Y-41800496D02*
X54191180Y-41705258D01*
X54191180Y-41705258D02*
X54191180Y-41467163D01*
X54191180Y-41467163D02*
X54238800Y-41371925D01*
X54238800Y-41371925D02*
X54334038Y-41324306D01*
X54334038Y-41324306D02*
X54429276Y-41324306D01*
X54429276Y-41324306D02*
X54524514Y-41371925D01*
X54524514Y-41371925D02*
X54572133Y-41467163D01*
X54572133Y-41467163D02*
X54572133Y-41705258D01*
X54572133Y-41705258D02*
X54619752Y-41800496D01*
X54857847Y-42133830D02*
X54857847Y-42514782D01*
X55191180Y-42276687D02*
X54334038Y-42276687D01*
X54334038Y-42276687D02*
X54238800Y-42324306D01*
X54238800Y-42324306D02*
X54191180Y-42419544D01*
X54191180Y-42419544D02*
X54191180Y-42514782D01*
X53247847Y-27419541D02*
X52581180Y-27610017D01*
X52581180Y-27610017D02*
X53057371Y-27800493D01*
X53057371Y-27800493D02*
X52581180Y-27990969D01*
X52581180Y-27990969D02*
X53247847Y-28181445D01*
X52581180Y-28562398D02*
X53247847Y-28562398D01*
X53581180Y-28562398D02*
X53533561Y-28514779D01*
X53533561Y-28514779D02*
X53485942Y-28562398D01*
X53485942Y-28562398D02*
X53533561Y-28610017D01*
X53533561Y-28610017D02*
X53581180Y-28562398D01*
X53581180Y-28562398D02*
X53485942Y-28562398D01*
X52581180Y-29181445D02*
X52628800Y-29086207D01*
X52628800Y-29086207D02*
X52724038Y-29038588D01*
X52724038Y-29038588D02*
X53581180Y-29038588D01*
X52581180Y-29705255D02*
X52628800Y-29610017D01*
X52628800Y-29610017D02*
X52724038Y-29562398D01*
X52724038Y-29562398D02*
X53581180Y-29562398D01*
X52581180Y-30848113D02*
X53581180Y-30848113D01*
X52581180Y-31276684D02*
X53104990Y-31276684D01*
X53104990Y-31276684D02*
X53200228Y-31229065D01*
X53200228Y-31229065D02*
X53247847Y-31133827D01*
X53247847Y-31133827D02*
X53247847Y-30990970D01*
X53247847Y-30990970D02*
X53200228Y-30895732D01*
X53200228Y-30895732D02*
X53152609Y-30848113D01*
X53247847Y-32181446D02*
X52581180Y-32181446D01*
X53247847Y-31752875D02*
X52724038Y-31752875D01*
X52724038Y-31752875D02*
X52628800Y-31800494D01*
X52628800Y-31800494D02*
X52581180Y-31895732D01*
X52581180Y-31895732D02*
X52581180Y-32038589D01*
X52581180Y-32038589D02*
X52628800Y-32133827D01*
X52628800Y-32133827D02*
X52676419Y-32181446D01*
X52581180Y-32657637D02*
X53247847Y-32657637D01*
X53057371Y-32657637D02*
X53152609Y-32705256D01*
X53152609Y-32705256D02*
X53200228Y-32752875D01*
X53200228Y-32752875D02*
X53247847Y-32848113D01*
X53247847Y-32848113D02*
X53247847Y-32943351D01*
X53247847Y-33133828D02*
X53247847Y-33514780D01*
X53581180Y-33276685D02*
X52724038Y-33276685D01*
X52724038Y-33276685D02*
X52628800Y-33324304D01*
X52628800Y-33324304D02*
X52581180Y-33419542D01*
X52581180Y-33419542D02*
X52581180Y-33514780D01*
X53247847Y-34514781D02*
X52581180Y-34752876D01*
X53247847Y-34990971D02*
X52581180Y-34752876D01*
X52581180Y-34752876D02*
X52343085Y-34657638D01*
X52343085Y-34657638D02*
X52295466Y-34610019D01*
X52295466Y-34610019D02*
X52247847Y-34514781D01*
X52581180Y-35514781D02*
X52628800Y-35419543D01*
X52628800Y-35419543D02*
X52676419Y-35371924D01*
X52676419Y-35371924D02*
X52771657Y-35324305D01*
X52771657Y-35324305D02*
X53057371Y-35324305D01*
X53057371Y-35324305D02*
X53152609Y-35371924D01*
X53152609Y-35371924D02*
X53200228Y-35419543D01*
X53200228Y-35419543D02*
X53247847Y-35514781D01*
X53247847Y-35514781D02*
X53247847Y-35657638D01*
X53247847Y-35657638D02*
X53200228Y-35752876D01*
X53200228Y-35752876D02*
X53152609Y-35800495D01*
X53152609Y-35800495D02*
X53057371Y-35848114D01*
X53057371Y-35848114D02*
X52771657Y-35848114D01*
X52771657Y-35848114D02*
X52676419Y-35800495D01*
X52676419Y-35800495D02*
X52628800Y-35752876D01*
X52628800Y-35752876D02*
X52581180Y-35657638D01*
X52581180Y-35657638D02*
X52581180Y-35514781D01*
X53247847Y-36705257D02*
X52581180Y-36705257D01*
X53247847Y-36276686D02*
X52724038Y-36276686D01*
X52724038Y-36276686D02*
X52628800Y-36324305D01*
X52628800Y-36324305D02*
X52581180Y-36419543D01*
X52581180Y-36419543D02*
X52581180Y-36562400D01*
X52581180Y-36562400D02*
X52628800Y-36657638D01*
X52628800Y-36657638D02*
X52676419Y-36705257D01*
X52581180Y-37181448D02*
X53247847Y-37181448D01*
X53057371Y-37181448D02*
X53152609Y-37229067D01*
X53152609Y-37229067D02*
X53200228Y-37276686D01*
X53200228Y-37276686D02*
X53247847Y-37371924D01*
X53247847Y-37371924D02*
X53247847Y-37467162D01*
X52628800Y-38943353D02*
X52581180Y-38848115D01*
X52581180Y-38848115D02*
X52581180Y-38657639D01*
X52581180Y-38657639D02*
X52628800Y-38562401D01*
X52628800Y-38562401D02*
X52724038Y-38514782D01*
X52724038Y-38514782D02*
X53104990Y-38514782D01*
X53104990Y-38514782D02*
X53200228Y-38562401D01*
X53200228Y-38562401D02*
X53247847Y-38657639D01*
X53247847Y-38657639D02*
X53247847Y-38848115D01*
X53247847Y-38848115D02*
X53200228Y-38943353D01*
X53200228Y-38943353D02*
X53104990Y-38990972D01*
X53104990Y-38990972D02*
X53009752Y-38990972D01*
X53009752Y-38990972D02*
X52914514Y-38514782D01*
X53247847Y-39324306D02*
X52581180Y-39562401D01*
X53247847Y-39800496D02*
X52581180Y-39562401D01*
X52581180Y-39562401D02*
X52343085Y-39467163D01*
X52343085Y-39467163D02*
X52295466Y-39419544D01*
X52295466Y-39419544D02*
X52247847Y-39324306D01*
X52628800Y-40562401D02*
X52581180Y-40467163D01*
X52581180Y-40467163D02*
X52581180Y-40276687D01*
X52581180Y-40276687D02*
X52628800Y-40181449D01*
X52628800Y-40181449D02*
X52724038Y-40133830D01*
X52724038Y-40133830D02*
X53104990Y-40133830D01*
X53104990Y-40133830D02*
X53200228Y-40181449D01*
X53200228Y-40181449D02*
X53247847Y-40276687D01*
X53247847Y-40276687D02*
X53247847Y-40467163D01*
X53247847Y-40467163D02*
X53200228Y-40562401D01*
X53200228Y-40562401D02*
X53104990Y-40610020D01*
X53104990Y-40610020D02*
X53009752Y-40610020D01*
X53009752Y-40610020D02*
X52914514Y-40133830D01*
X52628800Y-40990973D02*
X52581180Y-41086211D01*
X52581180Y-41086211D02*
X52581180Y-41276687D01*
X52581180Y-41276687D02*
X52628800Y-41371925D01*
X52628800Y-41371925D02*
X52724038Y-41419544D01*
X52724038Y-41419544D02*
X52771657Y-41419544D01*
X52771657Y-41419544D02*
X52866895Y-41371925D01*
X52866895Y-41371925D02*
X52914514Y-41276687D01*
X52914514Y-41276687D02*
X52914514Y-41133830D01*
X52914514Y-41133830D02*
X52962133Y-41038592D01*
X52962133Y-41038592D02*
X53057371Y-40990973D01*
X53057371Y-40990973D02*
X53104990Y-40990973D01*
X53104990Y-40990973D02*
X53200228Y-41038592D01*
X53200228Y-41038592D02*
X53247847Y-41133830D01*
X53247847Y-41133830D02*
X53247847Y-41276687D01*
X53247847Y-41276687D02*
X53200228Y-41371925D01*
X52676419Y-41848116D02*
X52628800Y-41895735D01*
X52628800Y-41895735D02*
X52581180Y-41848116D01*
X52581180Y-41848116D02*
X52628800Y-41800497D01*
X52628800Y-41800497D02*
X52676419Y-41848116D01*
X52676419Y-41848116D02*
X52581180Y-41848116D01*
D11*
X76601908Y-28239357D02*
X76601908Y-29001357D01*
X76601908Y-29001357D02*
X75458908Y-28511500D01*
X76112051Y-29600071D02*
X76166479Y-29491214D01*
X76166479Y-29491214D02*
X76220908Y-29436785D01*
X76220908Y-29436785D02*
X76329765Y-29382357D01*
X76329765Y-29382357D02*
X76384194Y-29382357D01*
X76384194Y-29382357D02*
X76493051Y-29436785D01*
X76493051Y-29436785D02*
X76547479Y-29491214D01*
X76547479Y-29491214D02*
X76601908Y-29600071D01*
X76601908Y-29600071D02*
X76601908Y-29817785D01*
X76601908Y-29817785D02*
X76547479Y-29926643D01*
X76547479Y-29926643D02*
X76493051Y-29981071D01*
X76493051Y-29981071D02*
X76384194Y-30035500D01*
X76384194Y-30035500D02*
X76329765Y-30035500D01*
X76329765Y-30035500D02*
X76220908Y-29981071D01*
X76220908Y-29981071D02*
X76166479Y-29926643D01*
X76166479Y-29926643D02*
X76112051Y-29817785D01*
X76112051Y-29817785D02*
X76112051Y-29600071D01*
X76112051Y-29600071D02*
X76057622Y-29491214D01*
X76057622Y-29491214D02*
X76003194Y-29436785D01*
X76003194Y-29436785D02*
X75894337Y-29382357D01*
X75894337Y-29382357D02*
X75676622Y-29382357D01*
X75676622Y-29382357D02*
X75567765Y-29436785D01*
X75567765Y-29436785D02*
X75513337Y-29491214D01*
X75513337Y-29491214D02*
X75458908Y-29600071D01*
X75458908Y-29600071D02*
X75458908Y-29817785D01*
X75458908Y-29817785D02*
X75513337Y-29926643D01*
X75513337Y-29926643D02*
X75567765Y-29981071D01*
X75567765Y-29981071D02*
X75676622Y-30035500D01*
X75676622Y-30035500D02*
X75894337Y-30035500D01*
X75894337Y-30035500D02*
X76003194Y-29981071D01*
X76003194Y-29981071D02*
X76057622Y-29926643D01*
X76057622Y-29926643D02*
X76112051Y-29817785D01*
X76493051Y-30470928D02*
X76547479Y-30525356D01*
X76547479Y-30525356D02*
X76601908Y-30634214D01*
X76601908Y-30634214D02*
X76601908Y-30906356D01*
X76601908Y-30906356D02*
X76547479Y-31015214D01*
X76547479Y-31015214D02*
X76493051Y-31069642D01*
X76493051Y-31069642D02*
X76384194Y-31124071D01*
X76384194Y-31124071D02*
X76275337Y-31124071D01*
X76275337Y-31124071D02*
X76112051Y-31069642D01*
X76112051Y-31069642D02*
X75458908Y-30416499D01*
X75458908Y-30416499D02*
X75458908Y-31124071D01*
X76220908Y-31613927D02*
X75458908Y-31613927D01*
X76112051Y-31613927D02*
X76166479Y-31668356D01*
X76166479Y-31668356D02*
X76220908Y-31777213D01*
X76220908Y-31777213D02*
X76220908Y-31940499D01*
X76220908Y-31940499D02*
X76166479Y-32049356D01*
X76166479Y-32049356D02*
X76057622Y-32103785D01*
X76057622Y-32103785D02*
X75458908Y-32103785D01*
X75458908Y-32648070D02*
X76220908Y-32648070D01*
X76112051Y-32648070D02*
X76166479Y-32702499D01*
X76166479Y-32702499D02*
X76220908Y-32811356D01*
X76220908Y-32811356D02*
X76220908Y-32974642D01*
X76220908Y-32974642D02*
X76166479Y-33083499D01*
X76166479Y-33083499D02*
X76057622Y-33137928D01*
X76057622Y-33137928D02*
X75458908Y-33137928D01*
X76057622Y-33137928D02*
X76166479Y-33192356D01*
X76166479Y-33192356D02*
X76220908Y-33301213D01*
X76220908Y-33301213D02*
X76220908Y-33464499D01*
X76220908Y-33464499D02*
X76166479Y-33573356D01*
X76166479Y-33573356D02*
X76057622Y-33627785D01*
X76057622Y-33627785D02*
X75458908Y-33627785D01*
X73618678Y-30334857D02*
X74162964Y-29953857D01*
X73618678Y-29681714D02*
X74761678Y-29681714D01*
X74761678Y-29681714D02*
X74761678Y-30117143D01*
X74761678Y-30117143D02*
X74707249Y-30226000D01*
X74707249Y-30226000D02*
X74652821Y-30280429D01*
X74652821Y-30280429D02*
X74543964Y-30334857D01*
X74543964Y-30334857D02*
X74380678Y-30334857D01*
X74380678Y-30334857D02*
X74271821Y-30280429D01*
X74271821Y-30280429D02*
X74217392Y-30226000D01*
X74217392Y-30226000D02*
X74162964Y-30117143D01*
X74162964Y-30117143D02*
X74162964Y-29681714D01*
X73673107Y-31260143D02*
X73618678Y-31151286D01*
X73618678Y-31151286D02*
X73618678Y-30933572D01*
X73618678Y-30933572D02*
X73673107Y-30824714D01*
X73673107Y-30824714D02*
X73781964Y-30770286D01*
X73781964Y-30770286D02*
X74217392Y-30770286D01*
X74217392Y-30770286D02*
X74326249Y-30824714D01*
X74326249Y-30824714D02*
X74380678Y-30933572D01*
X74380678Y-30933572D02*
X74380678Y-31151286D01*
X74380678Y-31151286D02*
X74326249Y-31260143D01*
X74326249Y-31260143D02*
X74217392Y-31314572D01*
X74217392Y-31314572D02*
X74108535Y-31314572D01*
X74108535Y-31314572D02*
X73999678Y-30770286D01*
X73618678Y-32294286D02*
X74761678Y-32294286D01*
X73673107Y-32294286D02*
X73618678Y-32185428D01*
X73618678Y-32185428D02*
X73618678Y-31967714D01*
X73618678Y-31967714D02*
X73673107Y-31858857D01*
X73673107Y-31858857D02*
X73727535Y-31804428D01*
X73727535Y-31804428D02*
X73836392Y-31750000D01*
X73836392Y-31750000D02*
X74162964Y-31750000D01*
X74162964Y-31750000D02*
X74271821Y-31804428D01*
X74271821Y-31804428D02*
X74326249Y-31858857D01*
X74326249Y-31858857D02*
X74380678Y-31967714D01*
X74380678Y-31967714D02*
X74380678Y-32185428D01*
X74380678Y-32185428D02*
X74326249Y-32294286D01*
X71778448Y-28892499D02*
X72921448Y-28892499D01*
X72921448Y-28892499D02*
X72921448Y-29164642D01*
X72921448Y-29164642D02*
X72867019Y-29327928D01*
X72867019Y-29327928D02*
X72758162Y-29436785D01*
X72758162Y-29436785D02*
X72649305Y-29491214D01*
X72649305Y-29491214D02*
X72431591Y-29545642D01*
X72431591Y-29545642D02*
X72268305Y-29545642D01*
X72268305Y-29545642D02*
X72050591Y-29491214D01*
X72050591Y-29491214D02*
X71941734Y-29436785D01*
X71941734Y-29436785D02*
X71832877Y-29327928D01*
X71832877Y-29327928D02*
X71778448Y-29164642D01*
X71778448Y-29164642D02*
X71778448Y-28892499D01*
X71778448Y-30035499D02*
X72540448Y-30035499D01*
X72921448Y-30035499D02*
X72867019Y-29981071D01*
X72867019Y-29981071D02*
X72812591Y-30035499D01*
X72812591Y-30035499D02*
X72867019Y-30089928D01*
X72867019Y-30089928D02*
X72921448Y-30035499D01*
X72921448Y-30035499D02*
X72812591Y-30035499D01*
X71778448Y-30743071D02*
X71832877Y-30634214D01*
X71832877Y-30634214D02*
X71887305Y-30579785D01*
X71887305Y-30579785D02*
X71996162Y-30525357D01*
X71996162Y-30525357D02*
X72322734Y-30525357D01*
X72322734Y-30525357D02*
X72431591Y-30579785D01*
X72431591Y-30579785D02*
X72486019Y-30634214D01*
X72486019Y-30634214D02*
X72540448Y-30743071D01*
X72540448Y-30743071D02*
X72540448Y-30906357D01*
X72540448Y-30906357D02*
X72486019Y-31015214D01*
X72486019Y-31015214D02*
X72431591Y-31069643D01*
X72431591Y-31069643D02*
X72322734Y-31124071D01*
X72322734Y-31124071D02*
X71996162Y-31124071D01*
X71996162Y-31124071D02*
X71887305Y-31069643D01*
X71887305Y-31069643D02*
X71832877Y-31015214D01*
X71832877Y-31015214D02*
X71778448Y-30906357D01*
X71778448Y-30906357D02*
X71778448Y-30743071D01*
X71778448Y-32103786D02*
X72921448Y-32103786D01*
X71832877Y-32103786D02*
X71778448Y-31994928D01*
X71778448Y-31994928D02*
X71778448Y-31777214D01*
X71778448Y-31777214D02*
X71832877Y-31668357D01*
X71832877Y-31668357D02*
X71887305Y-31613928D01*
X71887305Y-31613928D02*
X71996162Y-31559500D01*
X71996162Y-31559500D02*
X72322734Y-31559500D01*
X72322734Y-31559500D02*
X72431591Y-31613928D01*
X72431591Y-31613928D02*
X72486019Y-31668357D01*
X72486019Y-31668357D02*
X72540448Y-31777214D01*
X72540448Y-31777214D02*
X72540448Y-31994928D01*
X72540448Y-31994928D02*
X72486019Y-32103786D01*
X71832877Y-33083500D02*
X71778448Y-32974643D01*
X71778448Y-32974643D02*
X71778448Y-32756929D01*
X71778448Y-32756929D02*
X71832877Y-32648071D01*
X71832877Y-32648071D02*
X71941734Y-32593643D01*
X71941734Y-32593643D02*
X72377162Y-32593643D01*
X72377162Y-32593643D02*
X72486019Y-32648071D01*
X72486019Y-32648071D02*
X72540448Y-32756929D01*
X72540448Y-32756929D02*
X72540448Y-32974643D01*
X72540448Y-32974643D02*
X72486019Y-33083500D01*
X72486019Y-33083500D02*
X72377162Y-33137929D01*
X72377162Y-33137929D02*
X72268305Y-33137929D01*
X72268305Y-33137929D02*
X72159448Y-32593643D01*
X76347908Y-37020500D02*
X76347908Y-36476214D01*
X76347908Y-36476214D02*
X75803622Y-36421786D01*
X75803622Y-36421786D02*
X75858051Y-36476214D01*
X75858051Y-36476214D02*
X75912479Y-36585072D01*
X75912479Y-36585072D02*
X75912479Y-36857214D01*
X75912479Y-36857214D02*
X75858051Y-36966072D01*
X75858051Y-36966072D02*
X75803622Y-37020500D01*
X75803622Y-37020500D02*
X75694765Y-37074929D01*
X75694765Y-37074929D02*
X75422622Y-37074929D01*
X75422622Y-37074929D02*
X75313765Y-37020500D01*
X75313765Y-37020500D02*
X75259337Y-36966072D01*
X75259337Y-36966072D02*
X75204908Y-36857214D01*
X75204908Y-36857214D02*
X75204908Y-36585072D01*
X75204908Y-36585072D02*
X75259337Y-36476214D01*
X75259337Y-36476214D02*
X75313765Y-36421786D01*
X76239051Y-37510357D02*
X76293479Y-37564785D01*
X76293479Y-37564785D02*
X76347908Y-37673643D01*
X76347908Y-37673643D02*
X76347908Y-37945785D01*
X76347908Y-37945785D02*
X76293479Y-38054643D01*
X76293479Y-38054643D02*
X76239051Y-38109071D01*
X76239051Y-38109071D02*
X76130194Y-38163500D01*
X76130194Y-38163500D02*
X76021337Y-38163500D01*
X76021337Y-38163500D02*
X75858051Y-38109071D01*
X75858051Y-38109071D02*
X75204908Y-37455928D01*
X75204908Y-37455928D02*
X75204908Y-38163500D01*
X76347908Y-38871071D02*
X76347908Y-38979928D01*
X76347908Y-38979928D02*
X76293479Y-39088785D01*
X76293479Y-39088785D02*
X76239051Y-39143214D01*
X76239051Y-39143214D02*
X76130194Y-39197642D01*
X76130194Y-39197642D02*
X75912479Y-39252071D01*
X75912479Y-39252071D02*
X75640337Y-39252071D01*
X75640337Y-39252071D02*
X75422622Y-39197642D01*
X75422622Y-39197642D02*
X75313765Y-39143214D01*
X75313765Y-39143214D02*
X75259337Y-39088785D01*
X75259337Y-39088785D02*
X75204908Y-38979928D01*
X75204908Y-38979928D02*
X75204908Y-38871071D01*
X75204908Y-38871071D02*
X75259337Y-38762214D01*
X75259337Y-38762214D02*
X75313765Y-38707785D01*
X75313765Y-38707785D02*
X75422622Y-38653356D01*
X75422622Y-38653356D02*
X75640337Y-38598928D01*
X75640337Y-38598928D02*
X75912479Y-38598928D01*
X75912479Y-38598928D02*
X76130194Y-38653356D01*
X76130194Y-38653356D02*
X76239051Y-38707785D01*
X76239051Y-38707785D02*
X76293479Y-38762214D01*
X76293479Y-38762214D02*
X76347908Y-38871071D01*
X75966908Y-39741927D02*
X75204908Y-39741927D01*
X75858051Y-39741927D02*
X75912479Y-39796356D01*
X75912479Y-39796356D02*
X75966908Y-39905213D01*
X75966908Y-39905213D02*
X75966908Y-40068499D01*
X75966908Y-40068499D02*
X75912479Y-40177356D01*
X75912479Y-40177356D02*
X75803622Y-40231785D01*
X75803622Y-40231785D02*
X75204908Y-40231785D01*
X75204908Y-40776070D02*
X75966908Y-40776070D01*
X75858051Y-40776070D02*
X75912479Y-40830499D01*
X75912479Y-40830499D02*
X75966908Y-40939356D01*
X75966908Y-40939356D02*
X75966908Y-41102642D01*
X75966908Y-41102642D02*
X75912479Y-41211499D01*
X75912479Y-41211499D02*
X75803622Y-41265928D01*
X75803622Y-41265928D02*
X75204908Y-41265928D01*
X75803622Y-41265928D02*
X75912479Y-41320356D01*
X75912479Y-41320356D02*
X75966908Y-41429213D01*
X75966908Y-41429213D02*
X75966908Y-41592499D01*
X75966908Y-41592499D02*
X75912479Y-41701356D01*
X75912479Y-41701356D02*
X75803622Y-41755785D01*
X75803622Y-41755785D02*
X75204908Y-41755785D01*
X74453249Y-37564786D02*
X74507678Y-37455929D01*
X74507678Y-37455929D02*
X74507678Y-37292643D01*
X74507678Y-37292643D02*
X74453249Y-37129357D01*
X74453249Y-37129357D02*
X74344392Y-37020500D01*
X74344392Y-37020500D02*
X74235535Y-36966071D01*
X74235535Y-36966071D02*
X74017821Y-36911643D01*
X74017821Y-36911643D02*
X73854535Y-36911643D01*
X73854535Y-36911643D02*
X73636821Y-36966071D01*
X73636821Y-36966071D02*
X73527964Y-37020500D01*
X73527964Y-37020500D02*
X73419107Y-37129357D01*
X73419107Y-37129357D02*
X73364678Y-37292643D01*
X73364678Y-37292643D02*
X73364678Y-37401500D01*
X73364678Y-37401500D02*
X73419107Y-37564786D01*
X73419107Y-37564786D02*
X73473535Y-37619214D01*
X73473535Y-37619214D02*
X73854535Y-37619214D01*
X73854535Y-37619214D02*
X73854535Y-37401500D01*
X73364678Y-38109071D02*
X74126678Y-38109071D01*
X73908964Y-38109071D02*
X74017821Y-38163500D01*
X74017821Y-38163500D02*
X74072249Y-38217929D01*
X74072249Y-38217929D02*
X74126678Y-38326786D01*
X74126678Y-38326786D02*
X74126678Y-38435643D01*
X73419107Y-39252071D02*
X73364678Y-39143214D01*
X73364678Y-39143214D02*
X73364678Y-38925500D01*
X73364678Y-38925500D02*
X73419107Y-38816642D01*
X73419107Y-38816642D02*
X73527964Y-38762214D01*
X73527964Y-38762214D02*
X73963392Y-38762214D01*
X73963392Y-38762214D02*
X74072249Y-38816642D01*
X74072249Y-38816642D02*
X74126678Y-38925500D01*
X74126678Y-38925500D02*
X74126678Y-39143214D01*
X74126678Y-39143214D02*
X74072249Y-39252071D01*
X74072249Y-39252071D02*
X73963392Y-39306500D01*
X73963392Y-39306500D02*
X73854535Y-39306500D01*
X73854535Y-39306500D02*
X73745678Y-38762214D01*
X73419107Y-40231785D02*
X73364678Y-40122928D01*
X73364678Y-40122928D02*
X73364678Y-39905214D01*
X73364678Y-39905214D02*
X73419107Y-39796356D01*
X73419107Y-39796356D02*
X73527964Y-39741928D01*
X73527964Y-39741928D02*
X73963392Y-39741928D01*
X73963392Y-39741928D02*
X74072249Y-39796356D01*
X74072249Y-39796356D02*
X74126678Y-39905214D01*
X74126678Y-39905214D02*
X74126678Y-40122928D01*
X74126678Y-40122928D02*
X74072249Y-40231785D01*
X74072249Y-40231785D02*
X73963392Y-40286214D01*
X73963392Y-40286214D02*
X73854535Y-40286214D01*
X73854535Y-40286214D02*
X73745678Y-39741928D01*
X74126678Y-40776070D02*
X73364678Y-40776070D01*
X74017821Y-40776070D02*
X74072249Y-40830499D01*
X74072249Y-40830499D02*
X74126678Y-40939356D01*
X74126678Y-40939356D02*
X74126678Y-41102642D01*
X74126678Y-41102642D02*
X74072249Y-41211499D01*
X74072249Y-41211499D02*
X73963392Y-41265928D01*
X73963392Y-41265928D02*
X73364678Y-41265928D01*
X71524448Y-37020499D02*
X72667448Y-37020499D01*
X72667448Y-37020499D02*
X72667448Y-37292642D01*
X72667448Y-37292642D02*
X72613019Y-37455928D01*
X72613019Y-37455928D02*
X72504162Y-37564785D01*
X72504162Y-37564785D02*
X72395305Y-37619214D01*
X72395305Y-37619214D02*
X72177591Y-37673642D01*
X72177591Y-37673642D02*
X72014305Y-37673642D01*
X72014305Y-37673642D02*
X71796591Y-37619214D01*
X71796591Y-37619214D02*
X71687734Y-37564785D01*
X71687734Y-37564785D02*
X71578877Y-37455928D01*
X71578877Y-37455928D02*
X71524448Y-37292642D01*
X71524448Y-37292642D02*
X71524448Y-37020499D01*
X71524448Y-38163499D02*
X72286448Y-38163499D01*
X72667448Y-38163499D02*
X72613019Y-38109071D01*
X72613019Y-38109071D02*
X72558591Y-38163499D01*
X72558591Y-38163499D02*
X72613019Y-38217928D01*
X72613019Y-38217928D02*
X72667448Y-38163499D01*
X72667448Y-38163499D02*
X72558591Y-38163499D01*
X71524448Y-38871071D02*
X71578877Y-38762214D01*
X71578877Y-38762214D02*
X71633305Y-38707785D01*
X71633305Y-38707785D02*
X71742162Y-38653357D01*
X71742162Y-38653357D02*
X72068734Y-38653357D01*
X72068734Y-38653357D02*
X72177591Y-38707785D01*
X72177591Y-38707785D02*
X72232019Y-38762214D01*
X72232019Y-38762214D02*
X72286448Y-38871071D01*
X72286448Y-38871071D02*
X72286448Y-39034357D01*
X72286448Y-39034357D02*
X72232019Y-39143214D01*
X72232019Y-39143214D02*
X72177591Y-39197643D01*
X72177591Y-39197643D02*
X72068734Y-39252071D01*
X72068734Y-39252071D02*
X71742162Y-39252071D01*
X71742162Y-39252071D02*
X71633305Y-39197643D01*
X71633305Y-39197643D02*
X71578877Y-39143214D01*
X71578877Y-39143214D02*
X71524448Y-39034357D01*
X71524448Y-39034357D02*
X71524448Y-38871071D01*
X71524448Y-40231786D02*
X72667448Y-40231786D01*
X71578877Y-40231786D02*
X71524448Y-40122928D01*
X71524448Y-40122928D02*
X71524448Y-39905214D01*
X71524448Y-39905214D02*
X71578877Y-39796357D01*
X71578877Y-39796357D02*
X71633305Y-39741928D01*
X71633305Y-39741928D02*
X71742162Y-39687500D01*
X71742162Y-39687500D02*
X72068734Y-39687500D01*
X72068734Y-39687500D02*
X72177591Y-39741928D01*
X72177591Y-39741928D02*
X72232019Y-39796357D01*
X72232019Y-39796357D02*
X72286448Y-39905214D01*
X72286448Y-39905214D02*
X72286448Y-40122928D01*
X72286448Y-40122928D02*
X72232019Y-40231786D01*
X71578877Y-41211500D02*
X71524448Y-41102643D01*
X71524448Y-41102643D02*
X71524448Y-40884929D01*
X71524448Y-40884929D02*
X71578877Y-40776071D01*
X71578877Y-40776071D02*
X71687734Y-40721643D01*
X71687734Y-40721643D02*
X72123162Y-40721643D01*
X72123162Y-40721643D02*
X72232019Y-40776071D01*
X72232019Y-40776071D02*
X72286448Y-40884929D01*
X72286448Y-40884929D02*
X72286448Y-41102643D01*
X72286448Y-41102643D02*
X72232019Y-41211500D01*
X72232019Y-41211500D02*
X72123162Y-41265929D01*
X72123162Y-41265929D02*
X72014305Y-41265929D01*
X72014305Y-41265929D02*
X71905448Y-40721643D01*
D12*
X62550318Y-31671381D02*
X61280318Y-31671381D01*
X61280318Y-31671381D02*
X61280318Y-31369000D01*
X61280318Y-31369000D02*
X61340794Y-31187571D01*
X61340794Y-31187571D02*
X61461746Y-31066619D01*
X61461746Y-31066619D02*
X61582699Y-31006142D01*
X61582699Y-31006142D02*
X61824603Y-30945666D01*
X61824603Y-30945666D02*
X62006032Y-30945666D01*
X62006032Y-30945666D02*
X62247937Y-31006142D01*
X62247937Y-31006142D02*
X62368889Y-31066619D01*
X62368889Y-31066619D02*
X62489842Y-31187571D01*
X62489842Y-31187571D02*
X62550318Y-31369000D01*
X62550318Y-31369000D02*
X62550318Y-31671381D01*
X62550318Y-29736142D02*
X62550318Y-30461857D01*
X62550318Y-30099000D02*
X61280318Y-30099000D01*
X61280318Y-30099000D02*
X61461746Y-30219952D01*
X61461746Y-30219952D02*
X61582699Y-30340904D01*
X61582699Y-30340904D02*
X61643175Y-30461857D01*
X62550318Y-39290685D02*
X61280318Y-39290685D01*
X61280318Y-39290685D02*
X61280318Y-38988304D01*
X61280318Y-38988304D02*
X61340794Y-38806875D01*
X61340794Y-38806875D02*
X61461746Y-38685923D01*
X61461746Y-38685923D02*
X61582699Y-38625446D01*
X61582699Y-38625446D02*
X61824603Y-38564970D01*
X61824603Y-38564970D02*
X62006032Y-38564970D01*
X62006032Y-38564970D02*
X62247937Y-38625446D01*
X62247937Y-38625446D02*
X62368889Y-38685923D01*
X62368889Y-38685923D02*
X62489842Y-38806875D01*
X62489842Y-38806875D02*
X62550318Y-38988304D01*
X62550318Y-38988304D02*
X62550318Y-39290685D01*
X61401270Y-38081161D02*
X61340794Y-38020685D01*
X61340794Y-38020685D02*
X61280318Y-37899732D01*
X61280318Y-37899732D02*
X61280318Y-37597351D01*
X61280318Y-37597351D02*
X61340794Y-37476399D01*
X61340794Y-37476399D02*
X61401270Y-37415923D01*
X61401270Y-37415923D02*
X61522222Y-37355446D01*
X61522222Y-37355446D02*
X61643175Y-37355446D01*
X61643175Y-37355446D02*
X61824603Y-37415923D01*
X61824603Y-37415923D02*
X62550318Y-38141637D01*
X62550318Y-38141637D02*
X62550318Y-37355446D01*
D13*
%TO.C,D1*%
X64492225Y-34541724D02*
X65404393Y-33629557D01*
X63502276Y-33551775D02*
X64492225Y-34541724D01*
X64414443Y-32639607D02*
X63502276Y-33551775D01*
X65404180Y-33629426D02*
G75*
G03*
X64414443Y-32639607I1582544J2572150D01*
G01*
D10*
%TO.C,V2*%
X58273007Y-47519276D02*
G75*
G03*
X58273007Y-47519276I-4018283J0D01*
G01*
%TO.C,V1*%
X83673007Y-22119276D02*
G75*
G03*
X83673007Y-22119276I-4018283J0D01*
G01*
D14*
%TO.C,D2*%
X66985640Y-42076580D02*
X66985640Y-42076580D01*
X66985640Y-41976580D02*
X66985640Y-41976580D01*
D15*
X66985640Y-41476580D02*
X66985640Y-41476580D01*
X66985640Y-35876580D02*
X66985640Y-35876580D01*
D14*
X66985640Y-41976580D02*
G75*
G03*
X66985640Y-42076580I0J-50000D01*
G01*
X66985640Y-42076580D02*
G75*
G03*
X66985640Y-41976580I0J50000D01*
G01*
D15*
X66985640Y-35876580D02*
G75*
G03*
X66985640Y-41476580I0J-2800000D01*
G01*
X66985640Y-41476580D02*
G75*
G03*
X66985640Y-35876580I0J2800000D01*
G01*
D10*
%TO.C,V3*%
X58271987Y-22119016D02*
G75*
G03*
X58271987Y-22119016I-4018283J0D01*
G01*
%TO.C,V4*%
X83671982Y-47519016D02*
G75*
G03*
X83671982Y-47519016I-4018283J0D01*
G01*
%TD*%
M02*
