%TF.GenerationSoftware,KiCad,Pcbnew,7.0.7*%
%TF.CreationDate,2023-11-02T23:29:27-05:00*%
%TF.ProjectId,Laser_Diode_Breakout,4c617365-725f-4446-996f-64655f427265,rev?*%
%TF.SameCoordinates,Original*%
%TF.FileFunction,Copper,L2,Bot*%
%TF.FilePolarity,Positive*%
%FSLAX46Y46*%
G04 Gerber Fmt 4.6, Leading zero omitted, Abs format (unit mm)*
G04 Created by KiCad (PCBNEW 7.0.7) date 2023-11-02 23:29:27*
%MOMM*%
%LPD*%
G01*
G04 APERTURE LIST*
G04 Aperture macros list*
%AMRoundRect*
0 Rectangle with rounded corners*
0 $1 Rounding radius*
0 $2 $3 $4 $5 $6 $7 $8 $9 X,Y pos of 4 corners*
0 Add a 4 corners polygon primitive as box body*
4,1,4,$2,$3,$4,$5,$6,$7,$8,$9,$2,$3,0*
0 Add four circle primitives for the rounded corners*
1,1,$1+$1,$2,$3*
1,1,$1+$1,$4,$5*
1,1,$1+$1,$6,$7*
1,1,$1+$1,$8,$9*
0 Add four rect primitives between the rounded corners*
20,1,$1+$1,$2,$3,$4,$5,0*
20,1,$1+$1,$4,$5,$6,$7,0*
20,1,$1+$1,$6,$7,$8,$9,0*
20,1,$1+$1,$8,$9,$2,$3,0*%
G04 Aperture macros list end*
%TA.AperFunction,ComponentPad*%
%ADD10O,1.200000X1.600000*%
%TD*%
%TA.AperFunction,ComponentPad*%
%ADD11O,1.200000X1.200000*%
%TD*%
%TA.AperFunction,ComponentPad*%
%ADD12C,1.192000*%
%TD*%
%TA.AperFunction,SMDPad,CuDef*%
%ADD13RoundRect,0.249999X-1.425001X0.450001X-1.425001X-0.450001X1.425001X-0.450001X1.425001X0.450001X0*%
%TD*%
%TA.AperFunction,ComponentPad*%
%ADD14C,1.524000*%
%TD*%
%TA.AperFunction,SMDPad,CuDef*%
%ADD15RoundRect,0.237500X-0.250000X-0.237500X0.250000X-0.237500X0.250000X0.237500X-0.250000X0.237500X0*%
%TD*%
%TA.AperFunction,SMDPad,CuDef*%
%ADD16RoundRect,0.150000X-0.587500X-0.150000X0.587500X-0.150000X0.587500X0.150000X-0.587500X0.150000X0*%
%TD*%
%TA.AperFunction,SMDPad,CuDef*%
%ADD17RoundRect,0.250000X-0.625000X0.400000X-0.625000X-0.400000X0.625000X-0.400000X0.625000X0.400000X0*%
%TD*%
%TA.AperFunction,ViaPad*%
%ADD18C,0.800000*%
%TD*%
%TA.AperFunction,Conductor*%
%ADD19C,0.254000*%
%TD*%
%TA.AperFunction,Conductor*%
%ADD20C,0.250000*%
%TD*%
G04 APERTURE END LIST*
D10*
%TO.P,D1,1,K*%
%TO.N,Net-(D1-K)*%
X66986724Y-32327276D03*
D11*
%TO.P,D1,2,A*%
%TO.N,Net-(D1-A)*%
X68256724Y-31057276D03*
%TO.P,D1,3*%
%TO.N,N/C*%
X66986724Y-29787276D03*
%TD*%
D12*
%TO.P,D2,1,K*%
%TO.N,Net-(D2-K)*%
X66985640Y-39676580D03*
%TO.P,D2,2,A*%
%TO.N,Net-(D2-A)*%
X67985640Y-38676580D03*
%TO.P,D2,3*%
%TO.N,N/C*%
X66985640Y-37676580D03*
%TD*%
D13*
%TO.P,R1,1*%
%TO.N,+12V*%
X73844724Y-35117276D03*
%TO.P,R1,2*%
%TO.N,Net-(D2-A)*%
X73844724Y-41217276D03*
%TD*%
D14*
%TO.P,Conn1,1*%
%TO.N,+12V*%
X70358000Y-22352000D03*
%TO.P,Conn1,2*%
%TO.N,Red_LED*%
X67818000Y-22352000D03*
%TO.P,Conn1,3*%
%TO.N,Green_LED*%
X65278000Y-22352000D03*
%TO.P,Conn1,4*%
%TO.N,GND*%
X62738000Y-22352000D03*
X62738000Y-22352000D03*
%TD*%
D15*
%TO.P,R4,1*%
%TO.N,Red_LED*%
X56745500Y-34290000D03*
%TO.P,R4,2*%
%TO.N,GND*%
X58570500Y-34290000D03*
%TD*%
D16*
%TO.P,Q1,1,G*%
%TO.N,Green_LED*%
X56984420Y-38542000D03*
%TO.P,Q1,2,S*%
%TO.N,GND*%
X56984420Y-36642000D03*
%TO.P,Q1,3,D*%
%TO.N,Net-(D2-K)*%
X58859420Y-37592000D03*
%TD*%
D17*
%TO.P,R2,1*%
%TO.N,+12V*%
X73336724Y-28999276D03*
%TO.P,R2,2*%
%TO.N,Net-(D1-A)*%
X73336724Y-32099276D03*
%TD*%
D15*
%TO.P,R3,1*%
%TO.N,Green_LED*%
X56745500Y-40640000D03*
%TO.P,R3,2*%
%TO.N,GND*%
X58570500Y-40640000D03*
%TD*%
D16*
%TO.P,Q2,1,G*%
%TO.N,Red_LED*%
X56983724Y-32007276D03*
%TO.P,Q2,2,S*%
%TO.N,GND*%
X56983724Y-30107276D03*
%TO.P,Q2,3,D*%
%TO.N,Net-(D1-K)*%
X58858724Y-31057276D03*
%TD*%
D18*
%TO.N,GND*%
X59690000Y-26924000D03*
X64192724Y-25977276D03*
%TD*%
D19*
%TO.N,+12V*%
X75622724Y-29025276D02*
X73336724Y-26739276D01*
X73844724Y-35117276D02*
X75622724Y-33339276D01*
X70358000Y-23760552D02*
X73336724Y-26739276D01*
X70358000Y-22352000D02*
X70358000Y-23760552D01*
X75622724Y-33339276D02*
X75622724Y-29025276D01*
X73336724Y-28999276D02*
X73336724Y-26739276D01*
%TO.N,Red_LED*%
X55560724Y-30584276D02*
X55560724Y-30480000D01*
X65786000Y-24384000D02*
X67818000Y-22352000D01*
X61132590Y-28009276D02*
X64757866Y-24384000D01*
X56983724Y-32007276D02*
X55560724Y-30584276D01*
X55560724Y-33105224D02*
X55560724Y-33101224D01*
X55556724Y-33101224D02*
X55556724Y-29279276D01*
X56826724Y-28009276D02*
X61132590Y-28009276D01*
X55556724Y-29279276D02*
X56826724Y-28009276D01*
X56745500Y-34290000D02*
X55560724Y-33105224D01*
X64757866Y-24384000D02*
X65786000Y-24384000D01*
D20*
%TO.N,Green_LED*%
X55106724Y-36664304D02*
X55106724Y-36576000D01*
X56388000Y-40640000D02*
X55106724Y-39358724D01*
X56745500Y-40640000D02*
X56388000Y-40640000D01*
D19*
X55106724Y-39358724D02*
X55106724Y-36576000D01*
X58285948Y-25908000D02*
X55103896Y-29090052D01*
X61722000Y-25908000D02*
X58285948Y-25908000D01*
X56984420Y-38542000D02*
X55106724Y-36664304D01*
X55106724Y-36576000D02*
X55106724Y-29092880D01*
X65278000Y-22352000D02*
X61722000Y-25908000D01*
%TO.N,Net-(D2-K)*%
X58859420Y-37592000D02*
X60944000Y-39676580D01*
X60944000Y-39676580D02*
X66985640Y-39676580D01*
%TO.N,Net-(D2-A)*%
X70526336Y-41217276D02*
X67985640Y-38676580D01*
X73844724Y-41217276D02*
X70526336Y-41217276D01*
%TO.N,Net-(D1-K)*%
X65716724Y-31057276D02*
X66986724Y-32327276D01*
X58858724Y-31057276D02*
X65716724Y-31057276D01*
%TO.N,Net-(D1-A)*%
X69298724Y-32099276D02*
X68256724Y-31057276D01*
X73336724Y-32099276D02*
X69298724Y-32099276D01*
%TD*%
%TA.AperFunction,Conductor*%
%TO.N,GND*%
G36*
X61486623Y-26555185D02*
G01*
X61532378Y-26607989D01*
X61542322Y-26677147D01*
X61513297Y-26740703D01*
X61507265Y-26747181D01*
X60908990Y-27345457D01*
X60847667Y-27378942D01*
X60821309Y-27381776D01*
X57998953Y-27381776D01*
X57931914Y-27362091D01*
X57886159Y-27309287D01*
X57876215Y-27240129D01*
X57905240Y-27176573D01*
X57911272Y-27170095D01*
X58509548Y-26571819D01*
X58570871Y-26538334D01*
X58597229Y-26535500D01*
X61419584Y-26535500D01*
X61486623Y-26555185D01*
G37*
%TD.AperFunction*%
%TA.AperFunction,Conductor*%
G36*
X79921745Y-15779768D02*
G01*
X80132298Y-15788041D01*
X80136758Y-15788381D01*
X80390887Y-15817015D01*
X80615811Y-15843638D01*
X80620028Y-15844285D01*
X80868262Y-15891255D01*
X81093711Y-15936101D01*
X81097564Y-15937000D01*
X81340345Y-16002053D01*
X81563011Y-16064852D01*
X81566625Y-16065993D01*
X81723699Y-16120956D01*
X81803252Y-16148793D01*
X82021076Y-16229152D01*
X82024387Y-16230485D01*
X82253853Y-16330601D01*
X82465197Y-16428032D01*
X82468160Y-16429497D01*
X82689391Y-16546421D01*
X82892740Y-16660302D01*
X82895384Y-16661872D01*
X83107210Y-16794971D01*
X83107429Y-16795118D01*
X83301211Y-16924600D01*
X83303583Y-16926266D01*
X83504825Y-17074790D01*
X83689287Y-17220207D01*
X83879922Y-17384262D01*
X84052445Y-17543741D01*
X84230258Y-17721554D01*
X84389737Y-17894077D01*
X84553792Y-18084712D01*
X84699209Y-18269174D01*
X84847732Y-18470415D01*
X84849398Y-18472787D01*
X84979035Y-18666800D01*
X85112108Y-18878585D01*
X85113706Y-18881276D01*
X85227586Y-19084624D01*
X85344488Y-19305812D01*
X85345978Y-19308826D01*
X85443394Y-19520136D01*
X85543513Y-19749611D01*
X85544855Y-19752946D01*
X85625206Y-19970747D01*
X85708000Y-20207358D01*
X85709152Y-20211007D01*
X85771949Y-20433664D01*
X85836990Y-20676399D01*
X85837911Y-20680351D01*
X85882756Y-20905800D01*
X85929710Y-21153956D01*
X85930361Y-21158196D01*
X85957001Y-21383268D01*
X85985616Y-21637229D01*
X85985959Y-21641738D01*
X85994238Y-21852421D01*
X86004224Y-22119276D01*
X86004224Y-47519276D01*
X85994325Y-47783824D01*
X85985949Y-47996923D01*
X85985606Y-48001431D01*
X85957170Y-48253819D01*
X85930341Y-48480489D01*
X85929690Y-48484729D01*
X85882931Y-48731860D01*
X85837882Y-48958330D01*
X85836961Y-48962282D01*
X85772122Y-49204267D01*
X85709118Y-49427663D01*
X85707967Y-49431311D01*
X85625373Y-49667354D01*
X85544807Y-49885736D01*
X85543465Y-49889070D01*
X85443553Y-50118074D01*
X85345923Y-50329848D01*
X85344433Y-50332862D01*
X85227751Y-50553640D01*
X85113633Y-50757412D01*
X85112035Y-50760103D01*
X84979208Y-50971499D01*
X84849294Y-51165927D01*
X84847628Y-51168299D01*
X84699379Y-51369170D01*
X84553661Y-51554012D01*
X84389917Y-51744286D01*
X84230111Y-51917164D01*
X84052597Y-52094677D01*
X83879759Y-52254447D01*
X83689444Y-52418227D01*
X83504621Y-52563930D01*
X83303730Y-52712194D01*
X83301358Y-52713860D01*
X83106966Y-52843750D01*
X82895538Y-52976597D01*
X82892847Y-52978195D01*
X82689088Y-53092306D01*
X82468334Y-53208978D01*
X82465320Y-53210468D01*
X82253506Y-53308117D01*
X82024521Y-53408020D01*
X82021187Y-53409362D01*
X81802826Y-53489921D01*
X81566745Y-53572528D01*
X81563097Y-53573679D01*
X81339757Y-53636669D01*
X81097727Y-53701520D01*
X81093775Y-53702441D01*
X80867283Y-53747494D01*
X80620172Y-53794249D01*
X80615932Y-53794900D01*
X80389286Y-53821726D01*
X80136868Y-53850166D01*
X80132358Y-53850509D01*
X79917794Y-53858939D01*
X79712472Y-53866622D01*
X79654912Y-53868776D01*
X54254724Y-53868776D01*
X53987626Y-53858782D01*
X53777195Y-53850515D01*
X53772686Y-53850173D01*
X53518663Y-53821552D01*
X53293623Y-53794917D01*
X53289387Y-53794266D01*
X53041239Y-53747315D01*
X52815779Y-53702469D01*
X52811846Y-53701552D01*
X52569066Y-53636500D01*
X52346462Y-53573719D01*
X52342814Y-53572568D01*
X52106166Y-53489762D01*
X51888379Y-53409416D01*
X51885045Y-53408074D01*
X51655596Y-53307968D01*
X51444247Y-53210535D01*
X51441233Y-53209045D01*
X51441106Y-53208978D01*
X51306402Y-53137785D01*
X51220089Y-53092167D01*
X51016700Y-52978263D01*
X51014008Y-52976665D01*
X50802247Y-52843607D01*
X50608215Y-52713959D01*
X50605859Y-52712304D01*
X50461056Y-52605435D01*
X50404610Y-52563776D01*
X50220142Y-52418353D01*
X50029518Y-52254309D01*
X49856985Y-52094821D01*
X49679178Y-51917014D01*
X49519690Y-51744481D01*
X49355646Y-51553857D01*
X49210223Y-51369389D01*
X49174437Y-51320901D01*
X49061683Y-51168123D01*
X49060039Y-51165783D01*
X48930392Y-50971752D01*
X48797333Y-50759990D01*
X48795735Y-50757298D01*
X48689215Y-50567093D01*
X48681836Y-50553919D01*
X48564936Y-50332731D01*
X48563463Y-50329750D01*
X48466031Y-50118403D01*
X48465887Y-50118074D01*
X48365924Y-49888953D01*
X48364582Y-49885619D01*
X48348313Y-49841520D01*
X48284247Y-49667862D01*
X48201431Y-49431185D01*
X48200279Y-49427536D01*
X48137512Y-49204982D01*
X48072437Y-48962116D01*
X48071537Y-48958258D01*
X48026698Y-48732832D01*
X47979724Y-48484564D01*
X47979083Y-48480391D01*
X47952444Y-48255311D01*
X47949683Y-48230804D01*
X47923822Y-48001279D01*
X47923485Y-47996836D01*
X47915229Y-47786706D01*
X47908935Y-47618463D01*
X50277314Y-47618463D01*
X50306954Y-48013987D01*
X50306955Y-48014000D01*
X50375832Y-48404615D01*
X50483254Y-48786413D01*
X50483258Y-48786427D01*
X50628159Y-49155629D01*
X50628164Y-49155641D01*
X50809110Y-49508590D01*
X50809115Y-49508599D01*
X51024310Y-49841785D01*
X51271610Y-50151890D01*
X51271619Y-50151901D01*
X51548303Y-50435570D01*
X51548557Y-50435830D01*
X51852400Y-50690784D01*
X52180118Y-50914218D01*
X52528454Y-51103912D01*
X52893947Y-51257980D01*
X52893956Y-51257982D01*
X52893962Y-51257985D01*
X53272959Y-51374890D01*
X53272972Y-51374893D01*
X53660437Y-51453221D01*
X53661738Y-51453484D01*
X54000024Y-51487334D01*
X54056404Y-51492976D01*
X54056405Y-51492976D01*
X54353827Y-51492976D01*
X54551854Y-51483092D01*
X54650869Y-51478151D01*
X55043077Y-51419035D01*
X55427450Y-51321162D01*
X55800169Y-51185504D01*
X56157527Y-51013409D01*
X56157953Y-51013149D01*
X56495970Y-50806591D01*
X56495969Y-50806591D01*
X56495975Y-50806588D01*
X56812148Y-50567096D01*
X57102905Y-50297313D01*
X57365355Y-49999921D01*
X57596890Y-49677876D01*
X57795209Y-49334377D01*
X57958341Y-48972839D01*
X58084665Y-48596854D01*
X58172925Y-48210161D01*
X58222245Y-47816601D01*
X58227186Y-47618449D01*
X58227192Y-47618203D01*
X75676289Y-47618203D01*
X75705929Y-48013727D01*
X75705930Y-48013740D01*
X75774807Y-48404355D01*
X75882229Y-48786153D01*
X75882233Y-48786167D01*
X76027134Y-49155369D01*
X76027139Y-49155381D01*
X76208085Y-49508330D01*
X76208096Y-49508349D01*
X76208264Y-49508609D01*
X76423285Y-49841525D01*
X76670585Y-50151630D01*
X76670594Y-50151641D01*
X76947522Y-50435560D01*
X76947532Y-50435570D01*
X77251375Y-50690524D01*
X77579093Y-50913958D01*
X77927429Y-51103652D01*
X78292922Y-51257720D01*
X78292931Y-51257722D01*
X78292937Y-51257725D01*
X78671934Y-51374630D01*
X78671947Y-51374633D01*
X79060698Y-51453221D01*
X79060713Y-51453224D01*
X79398999Y-51487074D01*
X79455379Y-51492716D01*
X79455380Y-51492716D01*
X79752802Y-51492716D01*
X80044634Y-51478151D01*
X80049844Y-51477891D01*
X80442052Y-51418775D01*
X80826425Y-51320902D01*
X81199144Y-51185244D01*
X81556502Y-51013149D01*
X81894950Y-50806328D01*
X82211123Y-50566836D01*
X82501880Y-50297053D01*
X82764330Y-49999661D01*
X82995865Y-49677616D01*
X83194184Y-49334117D01*
X83357316Y-48972579D01*
X83483640Y-48596594D01*
X83571900Y-48209901D01*
X83621220Y-47816341D01*
X83624229Y-47695662D01*
X83631108Y-47419842D01*
X83631108Y-47419826D01*
X83616280Y-47221957D01*
X83601468Y-47024296D01*
X83532592Y-46633684D01*
X83425166Y-46251870D01*
X83280258Y-45882650D01*
X83099308Y-45529693D01*
X82884113Y-45196507D01*
X82636813Y-44886402D01*
X82636810Y-44886399D01*
X82636803Y-44886390D01*
X82359875Y-44602471D01*
X82359872Y-44602468D01*
X82359871Y-44602467D01*
X82359866Y-44602462D01*
X82056023Y-44347508D01*
X81886545Y-44231960D01*
X81728304Y-44124073D01*
X81546641Y-44025145D01*
X81379969Y-43934380D01*
X81379961Y-43934376D01*
X81379958Y-43934375D01*
X81014476Y-43780312D01*
X81014460Y-43780306D01*
X80635463Y-43663401D01*
X80635450Y-43663398D01*
X80246699Y-43584810D01*
X80246678Y-43584807D01*
X79852019Y-43545316D01*
X79852018Y-43545316D01*
X79554598Y-43545316D01*
X79554596Y-43545316D01*
X79257554Y-43560140D01*
X78865346Y-43619257D01*
X78480971Y-43717130D01*
X78108248Y-43852790D01*
X77750890Y-44024885D01*
X77412452Y-44231700D01*
X77412441Y-44231708D01*
X77096274Y-44471196D01*
X77096271Y-44471198D01*
X76805512Y-44740984D01*
X76543064Y-45038375D01*
X76311538Y-45360409D01*
X76311525Y-45360429D01*
X76113215Y-45703912D01*
X75950081Y-46065453D01*
X75823758Y-46441435D01*
X75735498Y-46828127D01*
X75686177Y-47221697D01*
X75676289Y-47618189D01*
X75676289Y-47618203D01*
X58227192Y-47618203D01*
X58232133Y-47420102D01*
X58232133Y-47420086D01*
X58232114Y-47419826D01*
X58202493Y-47024556D01*
X58133617Y-46633944D01*
X58026191Y-46252130D01*
X57881283Y-45882910D01*
X57700333Y-45529953D01*
X57485138Y-45196767D01*
X57237838Y-44886662D01*
X57237835Y-44886659D01*
X57237828Y-44886650D01*
X56960900Y-44602731D01*
X56960897Y-44602728D01*
X56960896Y-44602727D01*
X56960891Y-44602722D01*
X56657048Y-44347768D01*
X56584337Y-44298194D01*
X56329329Y-44124333D01*
X56213218Y-44061102D01*
X55980994Y-43934640D01*
X55980986Y-43934636D01*
X55980983Y-43934635D01*
X55615501Y-43780572D01*
X55615485Y-43780566D01*
X55236488Y-43663661D01*
X55236475Y-43663658D01*
X54847724Y-43585070D01*
X54847703Y-43585067D01*
X54453044Y-43545576D01*
X54453043Y-43545576D01*
X54155623Y-43545576D01*
X54155621Y-43545576D01*
X53858579Y-43560400D01*
X53466371Y-43619517D01*
X53081996Y-43717390D01*
X52709273Y-43853050D01*
X52351915Y-44025145D01*
X52013477Y-44231960D01*
X52013466Y-44231968D01*
X51697299Y-44471456D01*
X51697296Y-44471458D01*
X51406537Y-44741244D01*
X51144089Y-45038635D01*
X50912563Y-45360669D01*
X50912550Y-45360689D01*
X50714240Y-45704172D01*
X50551106Y-46065713D01*
X50424783Y-46441695D01*
X50336523Y-46828387D01*
X50287202Y-47221957D01*
X50277314Y-47618449D01*
X50277314Y-47618463D01*
X47908935Y-47618463D01*
X47905224Y-47519276D01*
X47905224Y-47518776D01*
X47905224Y-29070185D01*
X54471721Y-29070185D01*
X54478831Y-29145401D01*
X54478949Y-29146645D01*
X54479224Y-29152483D01*
X54479224Y-36581336D01*
X54477496Y-36596985D01*
X54477778Y-36597012D01*
X54477043Y-36604779D01*
X54479224Y-36674163D01*
X54479224Y-39294632D01*
X54479030Y-39298737D01*
X54479224Y-39304895D01*
X54479224Y-39398212D01*
X54482759Y-39426190D01*
X54483218Y-39432015D01*
X54484014Y-39457349D01*
X54484015Y-39457356D01*
X54486038Y-39464319D01*
X54489981Y-39483357D01*
X54494108Y-39516018D01*
X54494108Y-39516020D01*
X54519139Y-39579238D01*
X54521031Y-39584765D01*
X54528105Y-39609111D01*
X54528107Y-39609117D01*
X54531798Y-39615358D01*
X54540353Y-39632823D01*
X54550945Y-39659574D01*
X54552471Y-39663427D01*
X54579404Y-39700497D01*
X54592446Y-39718448D01*
X54595654Y-39723333D01*
X54599061Y-39729093D01*
X54608554Y-39745144D01*
X54608557Y-39745147D01*
X54613673Y-39750263D01*
X54626313Y-39765061D01*
X54645660Y-39791690D01*
X54645661Y-39791691D01*
X54698058Y-39835037D01*
X54702369Y-39838959D01*
X55477887Y-40614478D01*
X55722599Y-40859190D01*
X55756084Y-40920513D01*
X55758276Y-40934269D01*
X55767826Y-41027751D01*
X55767826Y-41027753D01*
X55822092Y-41191516D01*
X55912660Y-41338350D01*
X56034650Y-41460340D01*
X56181484Y-41550908D01*
X56345247Y-41605174D01*
X56446323Y-41615500D01*
X57044676Y-41615499D01*
X57044684Y-41615498D01*
X57044687Y-41615498D01*
X57100030Y-41609844D01*
X57145753Y-41605174D01*
X57309516Y-41550908D01*
X57456350Y-41460340D01*
X57578340Y-41338350D01*
X57668908Y-41191516D01*
X57723174Y-41027753D01*
X57733500Y-40926677D01*
X57733499Y-40353324D01*
X57727206Y-40291723D01*
X57723174Y-40252247D01*
X57712815Y-40220987D01*
X57668908Y-40088484D01*
X57578340Y-39941650D01*
X57456350Y-39819660D01*
X57335545Y-39745147D01*
X57309518Y-39729093D01*
X57309513Y-39729091D01*
X57308069Y-39728612D01*
X57145753Y-39674826D01*
X57145751Y-39674825D01*
X57044678Y-39664500D01*
X56446330Y-39664500D01*
X56446312Y-39664501D01*
X56369540Y-39672344D01*
X56300847Y-39659574D01*
X56269258Y-39636667D01*
X56181284Y-39548693D01*
X56147799Y-39487370D01*
X56152783Y-39417678D01*
X56194655Y-39361745D01*
X56260119Y-39337328D01*
X56291256Y-39339032D01*
X56294342Y-39339595D01*
X56294351Y-39339598D01*
X56320690Y-39341670D01*
X56331224Y-39342500D01*
X56331226Y-39342500D01*
X57637616Y-39342500D01*
X57656051Y-39341049D01*
X57674489Y-39339598D01*
X57674491Y-39339597D01*
X57674493Y-39339597D01*
X57716111Y-39327505D01*
X57832318Y-39293744D01*
X57973785Y-39210081D01*
X58090001Y-39093865D01*
X58173664Y-38952398D01*
X58219518Y-38794569D01*
X58222420Y-38757694D01*
X58222420Y-38516500D01*
X58242105Y-38449461D01*
X58294909Y-38403706D01*
X58346420Y-38392500D01*
X58721139Y-38392500D01*
X58788178Y-38412185D01*
X58808820Y-38428819D01*
X60441624Y-40061623D01*
X60451471Y-40073913D01*
X60451689Y-40073734D01*
X60456657Y-40079740D01*
X60507257Y-40127257D01*
X60528201Y-40148200D01*
X60528207Y-40148206D01*
X60533697Y-40152463D01*
X60538148Y-40156264D01*
X60572235Y-40188275D01*
X60572237Y-40188276D01*
X60589867Y-40197967D01*
X60606135Y-40208652D01*
X60622038Y-40220988D01*
X60622040Y-40220989D01*
X60622042Y-40220990D01*
X60643380Y-40230223D01*
X60664943Y-40239554D01*
X60670190Y-40242125D01*
X60688602Y-40252247D01*
X60711166Y-40264652D01*
X60730667Y-40269659D01*
X60749065Y-40275958D01*
X60767541Y-40283953D01*
X60813740Y-40291270D01*
X60819414Y-40292445D01*
X60864728Y-40304080D01*
X60884864Y-40304080D01*
X60904263Y-40305607D01*
X60924133Y-40308754D01*
X60970671Y-40304354D01*
X60976508Y-40304080D01*
X66023730Y-40304080D01*
X66090769Y-40323765D01*
X66122684Y-40353353D01*
X66171846Y-40418453D01*
X66322019Y-40555354D01*
X66322021Y-40555356D01*
X66494790Y-40662330D01*
X66494796Y-40662333D01*
X66534938Y-40677884D01*
X66684283Y-40735740D01*
X66884034Y-40773080D01*
X66884036Y-40773080D01*
X67087244Y-40773080D01*
X67087246Y-40773080D01*
X67286997Y-40735740D01*
X67476486Y-40662332D01*
X67649260Y-40555355D01*
X67799435Y-40418452D01*
X67921897Y-40256286D01*
X68012477Y-40074379D01*
X68061838Y-39900889D01*
X68099116Y-39841798D01*
X68162426Y-39812240D01*
X68231665Y-39821602D01*
X68268785Y-39847144D01*
X70023960Y-41602319D01*
X70033807Y-41614609D01*
X70034025Y-41614430D01*
X70038993Y-41620436D01*
X70089593Y-41667953D01*
X70110537Y-41688896D01*
X70110543Y-41688902D01*
X70116033Y-41693159D01*
X70120484Y-41696960D01*
X70154571Y-41728971D01*
X70154573Y-41728972D01*
X70172203Y-41738663D01*
X70188471Y-41749348D01*
X70204374Y-41761684D01*
X70247281Y-41780251D01*
X70252517Y-41782815D01*
X70277425Y-41796509D01*
X70293494Y-41805344D01*
X70293496Y-41805345D01*
X70293502Y-41805348D01*
X70312576Y-41810245D01*
X70312996Y-41810353D01*
X70331400Y-41816653D01*
X70349878Y-41824650D01*
X70393374Y-41831538D01*
X70396060Y-41831964D01*
X70401765Y-41833145D01*
X70447064Y-41844776D01*
X70467194Y-41844776D01*
X70486593Y-41846303D01*
X70506469Y-41849451D01*
X70549115Y-41845419D01*
X70553015Y-41845051D01*
X70558853Y-41844776D01*
X71598369Y-41844776D01*
X71665408Y-41864461D01*
X71711163Y-41917265D01*
X71716074Y-41929768D01*
X71734910Y-41986611D01*
X71827012Y-42135932D01*
X71951068Y-42259988D01*
X72100389Y-42352090D01*
X72266926Y-42407275D01*
X72369714Y-42417776D01*
X72369719Y-42417776D01*
X75319729Y-42417776D01*
X75319734Y-42417776D01*
X75422522Y-42407275D01*
X75589059Y-42352090D01*
X75738380Y-42259988D01*
X75862436Y-42135932D01*
X75954538Y-41986611D01*
X76009723Y-41820074D01*
X76020224Y-41717286D01*
X76020224Y-40717266D01*
X76009723Y-40614478D01*
X75954538Y-40447941D01*
X75862436Y-40298620D01*
X75738380Y-40174564D01*
X75645614Y-40117345D01*
X75589061Y-40082463D01*
X75589056Y-40082461D01*
X75580851Y-40079742D01*
X75422522Y-40027277D01*
X75422520Y-40027276D01*
X75319741Y-40016776D01*
X75319734Y-40016776D01*
X72369714Y-40016776D01*
X72369706Y-40016776D01*
X72266927Y-40027276D01*
X72266926Y-40027277D01*
X72184393Y-40054625D01*
X72100391Y-40082461D01*
X72100386Y-40082463D01*
X71951066Y-40174565D01*
X71827013Y-40298618D01*
X71734910Y-40447941D01*
X71716075Y-40504781D01*
X71676302Y-40562225D01*
X71611786Y-40589048D01*
X71598369Y-40589776D01*
X70837617Y-40589776D01*
X70770578Y-40570091D01*
X70749936Y-40553457D01*
X69109869Y-38913390D01*
X69076384Y-38852067D01*
X69074079Y-38814267D01*
X69075605Y-38797805D01*
X69086838Y-38676580D01*
X69068088Y-38474235D01*
X69012477Y-38278781D01*
X68962902Y-38179223D01*
X68921900Y-38096879D01*
X68921895Y-38096871D01*
X68799433Y-37934705D01*
X68649260Y-37797805D01*
X68649258Y-37797803D01*
X68476489Y-37690829D01*
X68476483Y-37690826D01*
X68327141Y-37632972D01*
X68286997Y-37617420D01*
X68169776Y-37595507D01*
X68107496Y-37563840D01*
X68072223Y-37503527D01*
X68069091Y-37485060D01*
X68068088Y-37474239D01*
X68068088Y-37474235D01*
X68012477Y-37278781D01*
X67964087Y-37181602D01*
X67921900Y-37096879D01*
X67921895Y-37096871D01*
X67799433Y-36934705D01*
X67649260Y-36797805D01*
X67649258Y-36797803D01*
X67476489Y-36690829D01*
X67476483Y-36690826D01*
X67327141Y-36632972D01*
X67286997Y-36617420D01*
X67087246Y-36580080D01*
X66884034Y-36580080D01*
X66684283Y-36617420D01*
X66684280Y-36617420D01*
X66684280Y-36617421D01*
X66494796Y-36690826D01*
X66494790Y-36690829D01*
X66322021Y-36797803D01*
X66322019Y-36797805D01*
X66171846Y-36934705D01*
X66049384Y-37096871D01*
X66049379Y-37096879D01*
X65958802Y-37278782D01*
X65903191Y-37474239D01*
X65884442Y-37676579D01*
X65884442Y-37676580D01*
X65903191Y-37878920D01*
X65958802Y-38074377D01*
X66049379Y-38256280D01*
X66049384Y-38256288D01*
X66171846Y-38418454D01*
X66233040Y-38474239D01*
X66322020Y-38555355D01*
X66347534Y-38571153D01*
X66394169Y-38623177D01*
X66405274Y-38692159D01*
X66377323Y-38756194D01*
X66347537Y-38782004D01*
X66322023Y-38797801D01*
X66322019Y-38797805D01*
X66171846Y-38934706D01*
X66122684Y-38999807D01*
X66066575Y-39041443D01*
X66023730Y-39049080D01*
X61255281Y-39049080D01*
X61188242Y-39029395D01*
X61167600Y-39012761D01*
X60124961Y-37970122D01*
X60091476Y-37908799D01*
X60093465Y-37850814D01*
X60093380Y-37850799D01*
X60093485Y-37850222D01*
X60093567Y-37847842D01*
X60094518Y-37844569D01*
X60097420Y-37807694D01*
X60097420Y-37376306D01*
X60094518Y-37339431D01*
X60076897Y-37278781D01*
X60048665Y-37181606D01*
X60048664Y-37181603D01*
X60048664Y-37181602D01*
X59965001Y-37040135D01*
X59964999Y-37040133D01*
X59964996Y-37040129D01*
X59848790Y-36923923D01*
X59848782Y-36923917D01*
X59707316Y-36840255D01*
X59707313Y-36840254D01*
X59549493Y-36794402D01*
X59549487Y-36794401D01*
X59512616Y-36791500D01*
X59512614Y-36791500D01*
X58206226Y-36791500D01*
X58206224Y-36791500D01*
X58169352Y-36794401D01*
X58169346Y-36794402D01*
X58011526Y-36840254D01*
X58011523Y-36840255D01*
X57870057Y-36923917D01*
X57870049Y-36923923D01*
X57753843Y-37040129D01*
X57753837Y-37040137D01*
X57670175Y-37181603D01*
X57670174Y-37181606D01*
X57624322Y-37339426D01*
X57624321Y-37339432D01*
X57621420Y-37376304D01*
X57621420Y-37617500D01*
X57601735Y-37684539D01*
X57548931Y-37730294D01*
X57497420Y-37741500D01*
X57122701Y-37741500D01*
X57055662Y-37721815D01*
X57035020Y-37705181D01*
X55770543Y-36440703D01*
X55737058Y-36379380D01*
X55734224Y-36353022D01*
X55734224Y-35109276D01*
X55753909Y-35042237D01*
X55806713Y-34996482D01*
X55875871Y-34986538D01*
X55939427Y-35015563D01*
X55945905Y-35021595D01*
X56034650Y-35110340D01*
X56181484Y-35200908D01*
X56345247Y-35255174D01*
X56446323Y-35265500D01*
X57044676Y-35265499D01*
X57044684Y-35265498D01*
X57044687Y-35265498D01*
X57100030Y-35259844D01*
X57145753Y-35255174D01*
X57309516Y-35200908D01*
X57456350Y-35110340D01*
X57578340Y-34988350D01*
X57668908Y-34841516D01*
X57723174Y-34677753D01*
X57733500Y-34576677D01*
X57733499Y-34003324D01*
X57723174Y-33902247D01*
X57668908Y-33738484D01*
X57578340Y-33591650D01*
X57456350Y-33469660D01*
X57309516Y-33379092D01*
X57145753Y-33324826D01*
X57145751Y-33324825D01*
X57044684Y-33314500D01*
X57044677Y-33314500D01*
X56708781Y-33314500D01*
X56641742Y-33294815D01*
X56621100Y-33278181D01*
X56362376Y-33019457D01*
X56328891Y-32958134D01*
X56333875Y-32888442D01*
X56375747Y-32832509D01*
X56441211Y-32808092D01*
X56450057Y-32807776D01*
X57636920Y-32807776D01*
X57655355Y-32806325D01*
X57673793Y-32804874D01*
X57673795Y-32804873D01*
X57673797Y-32804873D01*
X57715415Y-32792781D01*
X57831622Y-32759020D01*
X57973089Y-32675357D01*
X58089305Y-32559141D01*
X58172968Y-32417674D01*
X58218822Y-32259845D01*
X58221724Y-32222970D01*
X58221724Y-31981776D01*
X58241409Y-31914737D01*
X58294213Y-31868982D01*
X58345724Y-31857776D01*
X59511920Y-31857776D01*
X59530355Y-31856325D01*
X59548793Y-31854874D01*
X59548795Y-31854873D01*
X59548797Y-31854873D01*
X59590415Y-31842781D01*
X59706622Y-31809020D01*
X59848089Y-31725357D01*
X59848094Y-31725352D01*
X59852352Y-31721095D01*
X59913675Y-31687610D01*
X59940033Y-31684776D01*
X65405443Y-31684776D01*
X65472482Y-31704461D01*
X65493124Y-31721095D01*
X65849904Y-32077875D01*
X65883389Y-32139198D01*
X65886223Y-32165556D01*
X65886223Y-32579695D01*
X65894217Y-32663412D01*
X65901196Y-32736494D01*
X65960408Y-32938151D01*
X66009743Y-33033848D01*
X66056715Y-33124962D01*
X66186629Y-33290159D01*
X66186633Y-33290163D01*
X66345470Y-33427797D01*
X66527474Y-33532877D01*
X66527476Y-33532877D01*
X66527480Y-33532880D01*
X66726091Y-33601620D01*
X66934122Y-33631530D01*
X67144054Y-33621530D01*
X67348300Y-33571980D01*
X67471468Y-33515731D01*
X67539467Y-33484677D01*
X67539470Y-33484675D01*
X67539477Y-33484672D01*
X67710676Y-33362762D01*
X67779903Y-33290159D01*
X67855709Y-33210655D01*
X67855710Y-33210654D01*
X67969337Y-33033848D01*
X68047449Y-32838733D01*
X68087224Y-32632361D01*
X68087224Y-32281775D01*
X68106909Y-32214737D01*
X68159713Y-32168982D01*
X68211224Y-32157776D01*
X68358700Y-32157776D01*
X68388055Y-32152288D01*
X68457570Y-32159317D01*
X68498524Y-32186495D01*
X68796348Y-32484319D01*
X68806195Y-32496609D01*
X68806413Y-32496430D01*
X68811381Y-32502436D01*
X68861981Y-32549953D01*
X68882929Y-32570900D01*
X68888430Y-32575167D01*
X68892869Y-32578958D01*
X68926957Y-32610969D01*
X68944608Y-32620672D01*
X68960858Y-32631347D01*
X68976762Y-32643684D01*
X68976765Y-32643686D01*
X69019666Y-32662250D01*
X69024914Y-32664820D01*
X69065890Y-32687348D01*
X69084964Y-32692245D01*
X69085384Y-32692353D01*
X69103788Y-32698653D01*
X69122266Y-32706650D01*
X69165762Y-32713538D01*
X69168448Y-32713964D01*
X69174153Y-32715145D01*
X69219452Y-32726776D01*
X69239582Y-32726776D01*
X69258981Y-32728303D01*
X69278857Y-32731451D01*
X69321503Y-32727419D01*
X69325403Y-32727051D01*
X69331241Y-32726776D01*
X71906938Y-32726776D01*
X71973977Y-32746461D01*
X72019732Y-32799265D01*
X72024642Y-32811768D01*
X72026906Y-32818600D01*
X72026909Y-32818607D01*
X72026910Y-32818610D01*
X72119012Y-32967932D01*
X72243068Y-33091988D01*
X72392390Y-33184090D01*
X72558927Y-33239275D01*
X72661715Y-33249776D01*
X74011732Y-33249775D01*
X74114521Y-33239275D01*
X74281058Y-33184090D01*
X74430380Y-33091988D01*
X74554436Y-32967932D01*
X74646538Y-32818610D01*
X74701723Y-32652073D01*
X74712224Y-32549285D01*
X74712223Y-31649268D01*
X74701723Y-31546479D01*
X74646538Y-31379942D01*
X74554436Y-31230620D01*
X74430380Y-31106564D01*
X74281058Y-31014462D01*
X74114521Y-30959277D01*
X74114519Y-30959276D01*
X74011734Y-30948776D01*
X72661722Y-30948776D01*
X72661705Y-30948777D01*
X72558927Y-30959276D01*
X72558924Y-30959277D01*
X72392392Y-31014461D01*
X72392387Y-31014463D01*
X72243066Y-31106565D01*
X72119013Y-31230618D01*
X72026911Y-31379939D01*
X72026906Y-31379951D01*
X72024642Y-31386784D01*
X71984868Y-31444228D01*
X71920351Y-31471048D01*
X71906938Y-31471776D01*
X69610005Y-31471776D01*
X69542966Y-31452091D01*
X69522324Y-31435457D01*
X69384629Y-31297762D01*
X69351144Y-31236439D01*
X69348839Y-31198645D01*
X69361939Y-31057276D01*
X69343121Y-30854193D01*
X69287306Y-30658026D01*
X69285358Y-30654114D01*
X69231316Y-30545583D01*
X69196397Y-30475455D01*
X69073488Y-30312697D01*
X69073486Y-30312694D01*
X68922765Y-30175295D01*
X68922763Y-30175293D01*
X68749366Y-30067931D01*
X68749359Y-30067927D01*
X68654270Y-30031090D01*
X68559180Y-29994252D01*
X68358700Y-29956776D01*
X68212254Y-29956776D01*
X68145215Y-29937091D01*
X68099460Y-29884287D01*
X68088783Y-29821335D01*
X68091939Y-29787276D01*
X68091939Y-29787275D01*
X68073121Y-29584193D01*
X68073120Y-29584192D01*
X68017306Y-29388026D01*
X67926397Y-29205455D01*
X67842646Y-29094551D01*
X67803486Y-29042694D01*
X67652765Y-28905295D01*
X67652763Y-28905293D01*
X67479366Y-28797931D01*
X67479359Y-28797927D01*
X67311196Y-28732781D01*
X67289180Y-28724252D01*
X67088700Y-28686776D01*
X66884748Y-28686776D01*
X66684268Y-28724252D01*
X66684265Y-28724252D01*
X66684265Y-28724253D01*
X66494088Y-28797927D01*
X66494081Y-28797931D01*
X66320684Y-28905293D01*
X66320682Y-28905295D01*
X66169961Y-29042694D01*
X66047051Y-29205454D01*
X65956146Y-29388015D01*
X65956141Y-29388028D01*
X65900326Y-29584193D01*
X65881509Y-29787275D01*
X65881509Y-29787276D01*
X65900326Y-29990358D01*
X65956141Y-30186523D01*
X65956146Y-30186536D01*
X65996657Y-30267892D01*
X66008918Y-30336678D01*
X65982045Y-30401173D01*
X65924569Y-30440900D01*
X65866264Y-30445638D01*
X65858244Y-30444368D01*
X65846999Y-30442587D01*
X65841288Y-30441404D01*
X65796003Y-30429776D01*
X65795996Y-30429776D01*
X65775866Y-30429776D01*
X65756467Y-30428249D01*
X65736592Y-30425101D01*
X65736591Y-30425101D01*
X65690045Y-30429501D01*
X65684207Y-30429776D01*
X59940033Y-30429776D01*
X59872994Y-30410091D01*
X59852352Y-30393457D01*
X59848094Y-30389199D01*
X59848086Y-30389193D01*
X59706620Y-30305531D01*
X59706617Y-30305530D01*
X59548797Y-30259678D01*
X59548791Y-30259677D01*
X59511920Y-30256776D01*
X59511918Y-30256776D01*
X58205530Y-30256776D01*
X58205528Y-30256776D01*
X58168656Y-30259677D01*
X58168650Y-30259678D01*
X58010830Y-30305530D01*
X58010827Y-30305531D01*
X57869361Y-30389193D01*
X57869353Y-30389199D01*
X57753147Y-30505405D01*
X57753141Y-30505413D01*
X57669479Y-30646879D01*
X57669478Y-30646882D01*
X57623626Y-30804702D01*
X57623625Y-30804708D01*
X57620724Y-30841580D01*
X57620724Y-31082776D01*
X57601039Y-31149815D01*
X57548235Y-31195570D01*
X57496724Y-31206776D01*
X57122005Y-31206776D01*
X57054966Y-31187091D01*
X57034324Y-31170457D01*
X56220543Y-30356676D01*
X56187058Y-30295353D01*
X56184224Y-30268995D01*
X56184224Y-29590556D01*
X56203909Y-29523517D01*
X56220543Y-29502875D01*
X57050324Y-28673095D01*
X57111647Y-28639610D01*
X57138005Y-28636776D01*
X61049623Y-28636776D01*
X61065271Y-28638503D01*
X61065298Y-28638222D01*
X61073065Y-28638956D01*
X61073066Y-28638955D01*
X61073067Y-28638956D01*
X61142450Y-28636776D01*
X61172066Y-28636776D01*
X61178968Y-28635903D01*
X61184780Y-28635445D01*
X61231533Y-28633977D01*
X61250862Y-28628360D01*
X61269918Y-28624413D01*
X61289883Y-28621892D01*
X61333360Y-28604677D01*
X61338866Y-28602792D01*
X61383781Y-28589744D01*
X61401105Y-28579497D01*
X61418573Y-28570939D01*
X61437293Y-28563529D01*
X61475132Y-28536035D01*
X61479981Y-28532850D01*
X61520246Y-28509039D01*
X61534487Y-28494796D01*
X61549268Y-28482173D01*
X61565557Y-28470339D01*
X61565559Y-28470335D01*
X61565561Y-28470335D01*
X61585295Y-28446479D01*
X61595366Y-28434304D01*
X61599279Y-28430004D01*
X64981465Y-25047819D01*
X65042789Y-25014334D01*
X65069147Y-25011500D01*
X65703033Y-25011500D01*
X65718681Y-25013227D01*
X65718708Y-25012946D01*
X65726475Y-25013680D01*
X65726476Y-25013679D01*
X65726477Y-25013680D01*
X65795860Y-25011500D01*
X65825476Y-25011500D01*
X65832378Y-25010627D01*
X65838190Y-25010169D01*
X65884943Y-25008701D01*
X65904272Y-25003084D01*
X65923328Y-24999137D01*
X65943293Y-24996616D01*
X65986770Y-24979401D01*
X65992276Y-24977516D01*
X66037191Y-24964468D01*
X66054515Y-24954221D01*
X66071983Y-24945663D01*
X66090703Y-24938253D01*
X66128542Y-24910759D01*
X66133391Y-24907574D01*
X66173656Y-24883763D01*
X66187897Y-24869520D01*
X66202678Y-24856897D01*
X66218967Y-24845063D01*
X66218969Y-24845059D01*
X66218971Y-24845059D01*
X66230845Y-24830703D01*
X66248776Y-24809028D01*
X66252689Y-24804728D01*
X67436435Y-23620982D01*
X67497756Y-23587499D01*
X67556207Y-23588890D01*
X67571635Y-23593023D01*
X67597932Y-23600070D01*
X67755123Y-23613822D01*
X67817998Y-23619323D01*
X67818000Y-23619323D01*
X67818002Y-23619323D01*
X67873016Y-23614509D01*
X68038068Y-23600070D01*
X68251450Y-23542894D01*
X68451662Y-23449534D01*
X68632620Y-23322826D01*
X68788826Y-23166620D01*
X68915534Y-22985662D01*
X68975617Y-22856811D01*
X69021790Y-22804371D01*
X69088983Y-22785219D01*
X69155865Y-22805435D01*
X69200382Y-22856811D01*
X69260464Y-22985658D01*
X69260468Y-22985666D01*
X69387170Y-23166615D01*
X69387174Y-23166620D01*
X69543380Y-23322826D01*
X69677624Y-23416824D01*
X69721248Y-23471399D01*
X69730500Y-23518398D01*
X69730500Y-23677584D01*
X69728772Y-23693233D01*
X69729054Y-23693260D01*
X69728319Y-23701027D01*
X69730500Y-23770411D01*
X69730500Y-23800029D01*
X69731371Y-23806932D01*
X69731829Y-23812751D01*
X69733298Y-23859494D01*
X69738916Y-23878827D01*
X69742862Y-23897881D01*
X69745383Y-23917839D01*
X69745386Y-23917851D01*
X69762595Y-23961317D01*
X69764487Y-23966845D01*
X69777530Y-24011739D01*
X69777530Y-24011740D01*
X69787777Y-24029067D01*
X69796335Y-24046537D01*
X69803745Y-24065253D01*
X69831229Y-24103081D01*
X69834437Y-24107965D01*
X69858234Y-24148204D01*
X69858240Y-24148212D01*
X69872469Y-24162440D01*
X69885109Y-24177239D01*
X69896934Y-24193516D01*
X69896936Y-24193517D01*
X69896937Y-24193519D01*
X69932957Y-24223317D01*
X69937268Y-24227239D01*
X72672906Y-26962877D01*
X72706390Y-27024198D01*
X72709224Y-27050556D01*
X72709224Y-27731945D01*
X72689539Y-27798984D01*
X72636735Y-27844739D01*
X72597827Y-27855303D01*
X72558926Y-27859277D01*
X72558924Y-27859277D01*
X72392392Y-27914461D01*
X72392387Y-27914463D01*
X72243066Y-28006565D01*
X72119013Y-28130618D01*
X72026911Y-28279939D01*
X72026909Y-28279942D01*
X72026910Y-28279942D01*
X71971725Y-28446479D01*
X71971725Y-28446480D01*
X71971724Y-28446480D01*
X71961224Y-28549259D01*
X71961224Y-29449277D01*
X71961225Y-29449295D01*
X71971724Y-29552072D01*
X71971725Y-29552075D01*
X71984477Y-29590556D01*
X72026910Y-29718610D01*
X72119012Y-29867932D01*
X72243068Y-29991988D01*
X72392390Y-30084090D01*
X72558927Y-30139275D01*
X72661715Y-30149776D01*
X74011732Y-30149775D01*
X74114521Y-30139275D01*
X74281058Y-30084090D01*
X74430380Y-29991988D01*
X74554436Y-29867932D01*
X74646538Y-29718610D01*
X74701723Y-29552073D01*
X74712224Y-29449285D01*
X74712223Y-29301554D01*
X74731907Y-29234517D01*
X74784711Y-29188762D01*
X74853869Y-29178818D01*
X74917425Y-29207843D01*
X74923902Y-29213874D01*
X74958905Y-29248876D01*
X74992390Y-29310196D01*
X74995224Y-29336556D01*
X74995224Y-33027995D01*
X74975539Y-33095034D01*
X74958905Y-33115676D01*
X74194124Y-33880457D01*
X74132801Y-33913942D01*
X74106443Y-33916776D01*
X72369706Y-33916776D01*
X72266927Y-33927276D01*
X72266926Y-33927277D01*
X72184393Y-33954625D01*
X72100391Y-33982461D01*
X72100386Y-33982463D01*
X71951066Y-34074565D01*
X71827013Y-34198618D01*
X71734911Y-34347938D01*
X71734909Y-34347941D01*
X71734910Y-34347941D01*
X71679725Y-34514478D01*
X71679725Y-34514479D01*
X71679724Y-34514479D01*
X71669224Y-34617258D01*
X71669224Y-35617293D01*
X71679724Y-35720072D01*
X71679725Y-35720074D01*
X71734910Y-35886611D01*
X71827012Y-36035932D01*
X71951068Y-36159988D01*
X72100389Y-36252090D01*
X72266926Y-36307275D01*
X72369714Y-36317776D01*
X72369719Y-36317776D01*
X75319729Y-36317776D01*
X75319734Y-36317776D01*
X75422522Y-36307275D01*
X75589059Y-36252090D01*
X75738380Y-36159988D01*
X75862436Y-36035932D01*
X75954538Y-35886611D01*
X76009723Y-35720074D01*
X76020224Y-35617286D01*
X76020224Y-34617266D01*
X76009723Y-34514478D01*
X75954538Y-34347941D01*
X75862436Y-34198620D01*
X75844297Y-34180481D01*
X75810813Y-34119159D01*
X75815797Y-34049467D01*
X75844295Y-34005122D01*
X76007771Y-33841646D01*
X76020049Y-33831813D01*
X76019868Y-33831594D01*
X76025876Y-33826622D01*
X76025886Y-33826616D01*
X76073401Y-33776017D01*
X76094347Y-33755072D01*
X76098616Y-33749566D01*
X76102400Y-33745135D01*
X76134417Y-33711043D01*
X76144113Y-33693404D01*
X76154797Y-33677137D01*
X76167132Y-33661238D01*
X76185707Y-33618310D01*
X76188258Y-33613103D01*
X76210796Y-33572110D01*
X76215802Y-33552610D01*
X76222100Y-33534212D01*
X76230098Y-33515734D01*
X76237412Y-33469552D01*
X76238594Y-33463841D01*
X76250224Y-33418548D01*
X76250224Y-33398417D01*
X76251751Y-33379017D01*
X76254899Y-33359143D01*
X76250499Y-33312597D01*
X76250224Y-33306759D01*
X76250224Y-29108240D01*
X76251952Y-29092590D01*
X76251670Y-29092564D01*
X76252404Y-29084801D01*
X76250224Y-29015430D01*
X76250224Y-28985804D01*
X76250224Y-28985800D01*
X76249351Y-28978890D01*
X76248892Y-28973061D01*
X76247424Y-28926333D01*
X76241806Y-28906996D01*
X76237862Y-28887950D01*
X76235340Y-28867983D01*
X76218126Y-28824507D01*
X76216237Y-28818986D01*
X76203192Y-28774084D01*
X76192949Y-28756765D01*
X76184386Y-28739287D01*
X76176977Y-28720573D01*
X76176977Y-28720572D01*
X76149495Y-28682748D01*
X76146291Y-28677872D01*
X76122487Y-28637620D01*
X76122485Y-28637618D01*
X76122483Y-28637615D01*
X76108255Y-28623388D01*
X76095620Y-28608596D01*
X76083787Y-28592309D01*
X76083784Y-28592307D01*
X76083784Y-28592306D01*
X76083783Y-28592305D01*
X76047759Y-28562504D01*
X76043437Y-28558570D01*
X73822254Y-26337387D01*
X73809618Y-26322593D01*
X73797786Y-26306308D01*
X73797782Y-26306304D01*
X73761766Y-26276509D01*
X73757443Y-26272575D01*
X72423120Y-24938252D01*
X71062476Y-23577609D01*
X71028992Y-23516287D01*
X71033976Y-23446595D01*
X71075848Y-23390662D01*
X71078959Y-23388407D01*
X71172620Y-23322826D01*
X71328826Y-23166620D01*
X71455534Y-22985662D01*
X71548894Y-22785450D01*
X71606070Y-22572068D01*
X71625323Y-22352000D01*
X71613640Y-22218463D01*
X75677314Y-22218463D01*
X75706954Y-22613987D01*
X75706955Y-22614000D01*
X75775832Y-23004615D01*
X75883254Y-23386413D01*
X75883258Y-23386427D01*
X76028159Y-23755629D01*
X76028164Y-23755641D01*
X76209110Y-24108590D01*
X76209121Y-24108609D01*
X76263960Y-24193516D01*
X76424310Y-24441785D01*
X76671610Y-24751890D01*
X76671619Y-24751901D01*
X76948303Y-25035570D01*
X76948557Y-25035830D01*
X77252400Y-25290784D01*
X77580118Y-25514218D01*
X77928454Y-25703912D01*
X78293947Y-25857980D01*
X78293956Y-25857982D01*
X78293962Y-25857985D01*
X78672959Y-25974890D01*
X78672972Y-25974893D01*
X79060437Y-26053221D01*
X79061738Y-26053484D01*
X79400024Y-26087334D01*
X79456404Y-26092976D01*
X79456405Y-26092976D01*
X79753827Y-26092976D01*
X79951854Y-26083092D01*
X80050869Y-26078151D01*
X80443077Y-26019035D01*
X80827450Y-25921162D01*
X81200169Y-25785504D01*
X81557527Y-25613409D01*
X81557953Y-25613149D01*
X81869979Y-25422474D01*
X81895975Y-25406588D01*
X82212148Y-25167096D01*
X82502905Y-24897313D01*
X82765355Y-24599921D01*
X82996890Y-24277876D01*
X83195209Y-23934377D01*
X83358341Y-23572839D01*
X83484665Y-23196854D01*
X83572925Y-22810161D01*
X83622245Y-22416601D01*
X83627186Y-22218449D01*
X83632133Y-22020102D01*
X83632133Y-22020086D01*
X83621759Y-21881657D01*
X83602493Y-21624556D01*
X83533617Y-21233944D01*
X83426191Y-20852130D01*
X83368988Y-20706380D01*
X83281288Y-20482922D01*
X83281283Y-20482910D01*
X83100337Y-20129961D01*
X83100333Y-20129953D01*
X82885138Y-19796767D01*
X82637838Y-19486662D01*
X82637835Y-19486659D01*
X82637828Y-19486650D01*
X82360900Y-19202731D01*
X82360897Y-19202728D01*
X82360896Y-19202727D01*
X82360891Y-19202722D01*
X82057048Y-18947768D01*
X81955575Y-18878585D01*
X81729329Y-18724333D01*
X81613218Y-18661102D01*
X81380994Y-18534640D01*
X81380986Y-18534636D01*
X81380983Y-18534635D01*
X81015501Y-18380572D01*
X81015485Y-18380566D01*
X80636488Y-18263661D01*
X80636475Y-18263658D01*
X80247724Y-18185070D01*
X80247703Y-18185067D01*
X79853044Y-18145576D01*
X79853043Y-18145576D01*
X79555623Y-18145576D01*
X79555621Y-18145576D01*
X79258579Y-18160400D01*
X78866371Y-18219517D01*
X78481996Y-18317390D01*
X78109273Y-18453050D01*
X77751915Y-18625145D01*
X77413477Y-18831960D01*
X77413466Y-18831968D01*
X77097299Y-19071456D01*
X77097296Y-19071458D01*
X76806537Y-19341244D01*
X76544089Y-19638635D01*
X76312563Y-19960669D01*
X76312550Y-19960689D01*
X76114240Y-20304172D01*
X75951106Y-20665713D01*
X75824783Y-21041695D01*
X75736523Y-21428387D01*
X75687202Y-21821957D01*
X75677314Y-22218449D01*
X75677314Y-22218463D01*
X71613640Y-22218463D01*
X71606070Y-22131932D01*
X71548894Y-21918550D01*
X71455534Y-21718339D01*
X71328826Y-21537380D01*
X71172620Y-21381174D01*
X71172616Y-21381171D01*
X71172615Y-21381170D01*
X70991666Y-21254468D01*
X70991662Y-21254466D01*
X70947635Y-21233936D01*
X70791450Y-21161106D01*
X70791447Y-21161105D01*
X70791445Y-21161104D01*
X70578070Y-21103930D01*
X70578062Y-21103929D01*
X70358002Y-21084677D01*
X70357998Y-21084677D01*
X70137937Y-21103929D01*
X70137929Y-21103930D01*
X69924554Y-21161104D01*
X69924548Y-21161107D01*
X69724340Y-21254465D01*
X69724338Y-21254466D01*
X69543377Y-21381175D01*
X69387175Y-21537377D01*
X69260466Y-21718338D01*
X69260465Y-21718340D01*
X69200382Y-21847189D01*
X69154209Y-21899628D01*
X69087016Y-21918780D01*
X69020135Y-21898564D01*
X68975618Y-21847189D01*
X68915534Y-21718340D01*
X68915533Y-21718338D01*
X68788827Y-21537381D01*
X68788823Y-21537377D01*
X68632620Y-21381174D01*
X68632616Y-21381171D01*
X68632615Y-21381170D01*
X68451666Y-21254468D01*
X68451662Y-21254466D01*
X68407635Y-21233936D01*
X68251450Y-21161106D01*
X68251447Y-21161105D01*
X68251445Y-21161104D01*
X68038070Y-21103930D01*
X68038062Y-21103929D01*
X67818002Y-21084677D01*
X67817998Y-21084677D01*
X67597937Y-21103929D01*
X67597929Y-21103930D01*
X67384554Y-21161104D01*
X67384548Y-21161107D01*
X67184340Y-21254465D01*
X67184338Y-21254466D01*
X67003377Y-21381175D01*
X66847175Y-21537377D01*
X66720466Y-21718338D01*
X66720465Y-21718340D01*
X66660382Y-21847189D01*
X66614209Y-21899628D01*
X66547016Y-21918780D01*
X66480135Y-21898564D01*
X66435618Y-21847189D01*
X66375534Y-21718340D01*
X66375533Y-21718338D01*
X66248827Y-21537381D01*
X66248823Y-21537377D01*
X66092620Y-21381174D01*
X66092616Y-21381171D01*
X66092615Y-21381170D01*
X65911666Y-21254468D01*
X65911662Y-21254466D01*
X65867635Y-21233936D01*
X65711450Y-21161106D01*
X65711447Y-21161105D01*
X65711445Y-21161104D01*
X65498070Y-21103930D01*
X65498062Y-21103929D01*
X65278002Y-21084677D01*
X65277998Y-21084677D01*
X65057937Y-21103929D01*
X65057929Y-21103930D01*
X64844554Y-21161104D01*
X64844548Y-21161107D01*
X64644340Y-21254465D01*
X64644338Y-21254466D01*
X64463377Y-21381175D01*
X64307175Y-21537377D01*
X64180466Y-21718338D01*
X64180465Y-21718340D01*
X64087107Y-21918548D01*
X64087104Y-21918554D01*
X64029930Y-22131929D01*
X64029929Y-22131937D01*
X64022359Y-22218466D01*
X64010677Y-22352000D01*
X64029929Y-22572062D01*
X64029930Y-22572066D01*
X64029931Y-22572073D01*
X64041109Y-22613791D01*
X64039446Y-22683640D01*
X64009015Y-22733564D01*
X61498400Y-25244181D01*
X61437077Y-25277666D01*
X61410719Y-25280500D01*
X58368915Y-25280500D01*
X58353267Y-25278772D01*
X58353241Y-25279054D01*
X58345473Y-25278319D01*
X58276102Y-25280500D01*
X58246469Y-25280500D01*
X58239555Y-25281373D01*
X58233738Y-25281830D01*
X58187006Y-25283299D01*
X58187002Y-25283300D01*
X58167670Y-25288916D01*
X58148630Y-25292859D01*
X58128660Y-25295382D01*
X58128656Y-25295383D01*
X58085185Y-25312594D01*
X58079658Y-25314486D01*
X58034760Y-25327530D01*
X58034753Y-25327533D01*
X58017428Y-25337779D01*
X57999958Y-25346337D01*
X57981246Y-25353745D01*
X57943411Y-25381233D01*
X57938528Y-25384440D01*
X57898294Y-25408234D01*
X57884054Y-25422474D01*
X57869268Y-25435102D01*
X57852981Y-25446936D01*
X57852980Y-25446936D01*
X57823175Y-25482963D01*
X57819243Y-25487284D01*
X54632277Y-28674251D01*
X54601971Y-28713319D01*
X54598185Y-28717752D01*
X54595035Y-28721107D01*
X54590455Y-28727413D01*
X54590419Y-28727387D01*
X54586875Y-28732781D01*
X54559491Y-28768084D01*
X54559486Y-28768092D01*
X54524708Y-28848458D01*
X54522143Y-28853694D01*
X54520054Y-28857494D01*
X54518650Y-28860049D01*
X54516430Y-28865655D01*
X54513258Y-28874915D01*
X54496523Y-28913589D01*
X54496521Y-28913594D01*
X54496522Y-28913594D01*
X54485086Y-28985800D01*
X54483487Y-28995893D01*
X54482303Y-29001610D01*
X54479225Y-29013599D01*
X54479107Y-29014534D01*
X54477697Y-29032452D01*
X54471721Y-29070181D01*
X54471721Y-29070183D01*
X54471721Y-29070185D01*
X47905224Y-29070185D01*
X47905224Y-22218203D01*
X50276294Y-22218203D01*
X50305934Y-22613727D01*
X50305935Y-22613740D01*
X50374812Y-23004355D01*
X50482234Y-23386153D01*
X50482238Y-23386167D01*
X50627139Y-23755369D01*
X50627144Y-23755381D01*
X50808090Y-24108330D01*
X50808101Y-24108349D01*
X50833845Y-24148208D01*
X51023290Y-24441525D01*
X51270590Y-24751630D01*
X51270599Y-24751641D01*
X51525470Y-25012946D01*
X51547537Y-25035570D01*
X51851380Y-25290524D01*
X52179098Y-25513958D01*
X52527434Y-25703652D01*
X52892927Y-25857720D01*
X52892936Y-25857722D01*
X52892942Y-25857725D01*
X53271939Y-25974630D01*
X53271952Y-25974633D01*
X53660703Y-26053221D01*
X53660718Y-26053224D01*
X53999003Y-26087074D01*
X54055384Y-26092716D01*
X54055385Y-26092716D01*
X54352807Y-26092716D01*
X54644639Y-26078151D01*
X54649849Y-26077891D01*
X55042057Y-26018775D01*
X55426430Y-25920902D01*
X55799149Y-25785244D01*
X56156507Y-25613149D01*
X56494955Y-25406328D01*
X56811128Y-25166836D01*
X57101885Y-24897053D01*
X57364335Y-24599661D01*
X57595870Y-24277616D01*
X57794189Y-23934117D01*
X57957321Y-23572579D01*
X58083645Y-23196594D01*
X58171905Y-22809901D01*
X58221225Y-22416341D01*
X58224234Y-22295662D01*
X58231113Y-22019842D01*
X58231113Y-22019826D01*
X58223524Y-21918554D01*
X58201473Y-21624296D01*
X58132597Y-21233684D01*
X58025171Y-20851870D01*
X57968070Y-20706380D01*
X57880268Y-20482662D01*
X57880263Y-20482650D01*
X57699317Y-20129701D01*
X57699313Y-20129693D01*
X57484118Y-19796507D01*
X57236818Y-19486402D01*
X57236815Y-19486399D01*
X57236808Y-19486390D01*
X56959880Y-19202471D01*
X56959877Y-19202468D01*
X56959876Y-19202467D01*
X56959871Y-19202462D01*
X56656028Y-18947508D01*
X56486550Y-18831960D01*
X56328309Y-18724073D01*
X56146646Y-18625145D01*
X55979974Y-18534380D01*
X55979966Y-18534376D01*
X55979963Y-18534375D01*
X55614481Y-18380312D01*
X55614465Y-18380306D01*
X55235468Y-18263401D01*
X55235455Y-18263398D01*
X54846704Y-18184810D01*
X54846683Y-18184807D01*
X54452024Y-18145316D01*
X54452023Y-18145316D01*
X54154603Y-18145316D01*
X54154601Y-18145316D01*
X53857559Y-18160140D01*
X53465351Y-18219257D01*
X53080976Y-18317130D01*
X52708253Y-18452790D01*
X52350895Y-18624885D01*
X52012457Y-18831700D01*
X52012446Y-18831708D01*
X51696279Y-19071196D01*
X51696276Y-19071198D01*
X51405517Y-19340984D01*
X51143069Y-19638375D01*
X50911543Y-19960409D01*
X50911530Y-19960429D01*
X50713220Y-20303912D01*
X50550086Y-20665453D01*
X50423763Y-21041435D01*
X50335503Y-21428127D01*
X50286182Y-21821697D01*
X50276294Y-22218189D01*
X50276294Y-22218203D01*
X47905224Y-22218203D01*
X47905224Y-22119276D01*
X47915314Y-21849621D01*
X47915410Y-21847189D01*
X47923475Y-21641821D01*
X47923812Y-21637383D01*
X47952618Y-21381720D01*
X47979065Y-21158278D01*
X47979710Y-21154076D01*
X48026850Y-20904939D01*
X48071512Y-20680412D01*
X48072414Y-20676543D01*
X48137651Y-20433075D01*
X48200263Y-20211074D01*
X48201389Y-20207506D01*
X48284391Y-19970301D01*
X48364553Y-19753015D01*
X48365858Y-19749770D01*
X48466215Y-19519751D01*
X48563419Y-19308901D01*
X48564852Y-19306002D01*
X48682012Y-19084324D01*
X48795676Y-18881363D01*
X48797247Y-18878720D01*
X48797332Y-18878585D01*
X48930564Y-18666547D01*
X49059976Y-18472869D01*
X49061577Y-18470591D01*
X49210386Y-18268964D01*
X49240377Y-18230919D01*
X49355519Y-18084862D01*
X49519853Y-17893902D01*
X49679022Y-17721713D01*
X49857146Y-17543589D01*
X50029321Y-17384431D01*
X50220304Y-17220077D01*
X50404386Y-17074958D01*
X50606053Y-16926121D01*
X50608332Y-16924521D01*
X50801973Y-16795133D01*
X51014222Y-16661768D01*
X51016825Y-16660223D01*
X51219752Y-16546578D01*
X51441445Y-16429411D01*
X51444374Y-16427963D01*
X51655223Y-16330761D01*
X51885197Y-16230424D01*
X51888479Y-16229104D01*
X52105756Y-16148946D01*
X52342961Y-16065944D01*
X52346546Y-16064813D01*
X52568443Y-16002230D01*
X52811991Y-15936972D01*
X52815861Y-15936070D01*
X53040310Y-15891423D01*
X53289547Y-15844265D01*
X53293729Y-15843623D01*
X53517176Y-15817176D01*
X53772797Y-15788374D01*
X53777256Y-15788035D01*
X53983507Y-15779931D01*
X54187834Y-15772286D01*
X54254947Y-15769776D01*
X54255224Y-15769776D01*
X79654224Y-15769776D01*
X79654724Y-15769776D01*
X79921745Y-15779768D01*
G37*
%TD.AperFunction*%
%TD*%
M02*
