%TF.GenerationSoftware,KiCad,Pcbnew,7.0.7*%
%TF.CreationDate,2023-10-31T17:39:05-05:00*%
%TF.ProjectId,Laser_Diode_Breakout,4c617365-725f-4446-996f-64655f427265,rev?*%
%TF.SameCoordinates,Original*%
%TF.FileFunction,Legend,Top*%
%TF.FilePolarity,Positive*%
%FSLAX46Y46*%
G04 Gerber Fmt 4.6, Leading zero omitted, Abs format (unit mm)*
G04 Created by KiCad (PCBNEW 7.0.7) date 2023-10-31 17:39:05*
%MOMM*%
%LPD*%
G01*
G04 APERTURE LIST*
%ADD10C,0.150000*%
%ADD11C,0.177800*%
%ADD12C,0.203200*%
%ADD13C,0.254000*%
%ADD14C,0.120000*%
%ADD15C,0.100000*%
%ADD16C,0.200000*%
G04 APERTURE END LIST*
D10*
X59169541Y-46519095D02*
X59407636Y-47519095D01*
X59407636Y-47519095D02*
X59598112Y-46804809D01*
X59598112Y-46804809D02*
X59788588Y-47519095D01*
X59788588Y-47519095D02*
X60026684Y-46519095D01*
X60836207Y-47519095D02*
X60836207Y-46995285D01*
X60836207Y-46995285D02*
X60788588Y-46900047D01*
X60788588Y-46900047D02*
X60693350Y-46852428D01*
X60693350Y-46852428D02*
X60502874Y-46852428D01*
X60502874Y-46852428D02*
X60407636Y-46900047D01*
X60836207Y-47471476D02*
X60740969Y-47519095D01*
X60740969Y-47519095D02*
X60502874Y-47519095D01*
X60502874Y-47519095D02*
X60407636Y-47471476D01*
X60407636Y-47471476D02*
X60360017Y-47376237D01*
X60360017Y-47376237D02*
X60360017Y-47280999D01*
X60360017Y-47280999D02*
X60407636Y-47185761D01*
X60407636Y-47185761D02*
X60502874Y-47138142D01*
X60502874Y-47138142D02*
X60740969Y-47138142D01*
X60740969Y-47138142D02*
X60836207Y-47090523D01*
X61312398Y-47519095D02*
X61312398Y-46852428D01*
X61312398Y-47042904D02*
X61360017Y-46947666D01*
X61360017Y-46947666D02*
X61407636Y-46900047D01*
X61407636Y-46900047D02*
X61502874Y-46852428D01*
X61502874Y-46852428D02*
X61598112Y-46852428D01*
X61931446Y-46852428D02*
X61931446Y-47519095D01*
X61931446Y-46947666D02*
X61979065Y-46900047D01*
X61979065Y-46900047D02*
X62074303Y-46852428D01*
X62074303Y-46852428D02*
X62217160Y-46852428D01*
X62217160Y-46852428D02*
X62312398Y-46900047D01*
X62312398Y-46900047D02*
X62360017Y-46995285D01*
X62360017Y-46995285D02*
X62360017Y-47519095D01*
X62836208Y-47519095D02*
X62836208Y-46852428D01*
X62836208Y-46519095D02*
X62788589Y-46566714D01*
X62788589Y-46566714D02*
X62836208Y-46614333D01*
X62836208Y-46614333D02*
X62883827Y-46566714D01*
X62883827Y-46566714D02*
X62836208Y-46519095D01*
X62836208Y-46519095D02*
X62836208Y-46614333D01*
X63312398Y-46852428D02*
X63312398Y-47519095D01*
X63312398Y-46947666D02*
X63360017Y-46900047D01*
X63360017Y-46900047D02*
X63455255Y-46852428D01*
X63455255Y-46852428D02*
X63598112Y-46852428D01*
X63598112Y-46852428D02*
X63693350Y-46900047D01*
X63693350Y-46900047D02*
X63740969Y-46995285D01*
X63740969Y-46995285D02*
X63740969Y-47519095D01*
X64645731Y-46852428D02*
X64645731Y-47661952D01*
X64645731Y-47661952D02*
X64598112Y-47757190D01*
X64598112Y-47757190D02*
X64550493Y-47804809D01*
X64550493Y-47804809D02*
X64455255Y-47852428D01*
X64455255Y-47852428D02*
X64312398Y-47852428D01*
X64312398Y-47852428D02*
X64217160Y-47804809D01*
X64645731Y-47471476D02*
X64550493Y-47519095D01*
X64550493Y-47519095D02*
X64360017Y-47519095D01*
X64360017Y-47519095D02*
X64264779Y-47471476D01*
X64264779Y-47471476D02*
X64217160Y-47423856D01*
X64217160Y-47423856D02*
X64169541Y-47328618D01*
X64169541Y-47328618D02*
X64169541Y-47042904D01*
X64169541Y-47042904D02*
X64217160Y-46947666D01*
X64217160Y-46947666D02*
X64264779Y-46900047D01*
X64264779Y-46900047D02*
X64360017Y-46852428D01*
X64360017Y-46852428D02*
X64550493Y-46852428D01*
X64550493Y-46852428D02*
X64645731Y-46900047D01*
X65121922Y-47423856D02*
X65169541Y-47471476D01*
X65169541Y-47471476D02*
X65121922Y-47519095D01*
X65121922Y-47519095D02*
X65074303Y-47471476D01*
X65074303Y-47471476D02*
X65121922Y-47423856D01*
X65121922Y-47423856D02*
X65121922Y-47519095D01*
X65121922Y-47138142D02*
X65074303Y-46566714D01*
X65074303Y-46566714D02*
X65121922Y-46519095D01*
X65121922Y-46519095D02*
X65169541Y-46566714D01*
X65169541Y-46566714D02*
X65121922Y-47138142D01*
X65121922Y-47138142D02*
X65121922Y-46519095D01*
X66217160Y-46519095D02*
X66788588Y-46519095D01*
X66502874Y-47519095D02*
X66502874Y-46519095D01*
X67121922Y-47519095D02*
X67121922Y-46519095D01*
X67550493Y-47519095D02*
X67550493Y-46995285D01*
X67550493Y-46995285D02*
X67502874Y-46900047D01*
X67502874Y-46900047D02*
X67407636Y-46852428D01*
X67407636Y-46852428D02*
X67264779Y-46852428D01*
X67264779Y-46852428D02*
X67169541Y-46900047D01*
X67169541Y-46900047D02*
X67121922Y-46947666D01*
X68026684Y-47519095D02*
X68026684Y-46852428D01*
X68026684Y-46519095D02*
X67979065Y-46566714D01*
X67979065Y-46566714D02*
X68026684Y-46614333D01*
X68026684Y-46614333D02*
X68074303Y-46566714D01*
X68074303Y-46566714D02*
X68026684Y-46519095D01*
X68026684Y-46519095D02*
X68026684Y-46614333D01*
X68455255Y-47471476D02*
X68550493Y-47519095D01*
X68550493Y-47519095D02*
X68740969Y-47519095D01*
X68740969Y-47519095D02*
X68836207Y-47471476D01*
X68836207Y-47471476D02*
X68883826Y-47376237D01*
X68883826Y-47376237D02*
X68883826Y-47328618D01*
X68883826Y-47328618D02*
X68836207Y-47233380D01*
X68836207Y-47233380D02*
X68740969Y-47185761D01*
X68740969Y-47185761D02*
X68598112Y-47185761D01*
X68598112Y-47185761D02*
X68502874Y-47138142D01*
X68502874Y-47138142D02*
X68455255Y-47042904D01*
X68455255Y-47042904D02*
X68455255Y-46995285D01*
X68455255Y-46995285D02*
X68502874Y-46900047D01*
X68502874Y-46900047D02*
X68598112Y-46852428D01*
X68598112Y-46852428D02*
X68740969Y-46852428D01*
X68740969Y-46852428D02*
X68836207Y-46900047D01*
X70074303Y-47519095D02*
X70074303Y-46519095D01*
X70074303Y-46900047D02*
X70169541Y-46852428D01*
X70169541Y-46852428D02*
X70360017Y-46852428D01*
X70360017Y-46852428D02*
X70455255Y-46900047D01*
X70455255Y-46900047D02*
X70502874Y-46947666D01*
X70502874Y-46947666D02*
X70550493Y-47042904D01*
X70550493Y-47042904D02*
X70550493Y-47328618D01*
X70550493Y-47328618D02*
X70502874Y-47423856D01*
X70502874Y-47423856D02*
X70455255Y-47471476D01*
X70455255Y-47471476D02*
X70360017Y-47519095D01*
X70360017Y-47519095D02*
X70169541Y-47519095D01*
X70169541Y-47519095D02*
X70074303Y-47471476D01*
X71121922Y-47519095D02*
X71026684Y-47471476D01*
X71026684Y-47471476D02*
X70979065Y-47423856D01*
X70979065Y-47423856D02*
X70931446Y-47328618D01*
X70931446Y-47328618D02*
X70931446Y-47042904D01*
X70931446Y-47042904D02*
X70979065Y-46947666D01*
X70979065Y-46947666D02*
X71026684Y-46900047D01*
X71026684Y-46900047D02*
X71121922Y-46852428D01*
X71121922Y-46852428D02*
X71264779Y-46852428D01*
X71264779Y-46852428D02*
X71360017Y-46900047D01*
X71360017Y-46900047D02*
X71407636Y-46947666D01*
X71407636Y-46947666D02*
X71455255Y-47042904D01*
X71455255Y-47042904D02*
X71455255Y-47328618D01*
X71455255Y-47328618D02*
X71407636Y-47423856D01*
X71407636Y-47423856D02*
X71360017Y-47471476D01*
X71360017Y-47471476D02*
X71264779Y-47519095D01*
X71264779Y-47519095D02*
X71121922Y-47519095D01*
X72312398Y-47519095D02*
X72312398Y-46995285D01*
X72312398Y-46995285D02*
X72264779Y-46900047D01*
X72264779Y-46900047D02*
X72169541Y-46852428D01*
X72169541Y-46852428D02*
X71979065Y-46852428D01*
X71979065Y-46852428D02*
X71883827Y-46900047D01*
X72312398Y-47471476D02*
X72217160Y-47519095D01*
X72217160Y-47519095D02*
X71979065Y-47519095D01*
X71979065Y-47519095D02*
X71883827Y-47471476D01*
X71883827Y-47471476D02*
X71836208Y-47376237D01*
X71836208Y-47376237D02*
X71836208Y-47280999D01*
X71836208Y-47280999D02*
X71883827Y-47185761D01*
X71883827Y-47185761D02*
X71979065Y-47138142D01*
X71979065Y-47138142D02*
X72217160Y-47138142D01*
X72217160Y-47138142D02*
X72312398Y-47090523D01*
X72788589Y-47519095D02*
X72788589Y-46852428D01*
X72788589Y-47042904D02*
X72836208Y-46947666D01*
X72836208Y-46947666D02*
X72883827Y-46900047D01*
X72883827Y-46900047D02*
X72979065Y-46852428D01*
X72979065Y-46852428D02*
X73074303Y-46852428D01*
X73836208Y-47519095D02*
X73836208Y-46519095D01*
X73836208Y-47471476D02*
X73740970Y-47519095D01*
X73740970Y-47519095D02*
X73550494Y-47519095D01*
X73550494Y-47519095D02*
X73455256Y-47471476D01*
X73455256Y-47471476D02*
X73407637Y-47423856D01*
X73407637Y-47423856D02*
X73360018Y-47328618D01*
X73360018Y-47328618D02*
X73360018Y-47042904D01*
X73360018Y-47042904D02*
X73407637Y-46947666D01*
X73407637Y-46947666D02*
X73455256Y-46900047D01*
X73455256Y-46900047D02*
X73550494Y-46852428D01*
X73550494Y-46852428D02*
X73740970Y-46852428D01*
X73740970Y-46852428D02*
X73836208Y-46900047D01*
X59693350Y-49081476D02*
X59598112Y-49129095D01*
X59598112Y-49129095D02*
X59407636Y-49129095D01*
X59407636Y-49129095D02*
X59312398Y-49081476D01*
X59312398Y-49081476D02*
X59264779Y-49033856D01*
X59264779Y-49033856D02*
X59217160Y-48938618D01*
X59217160Y-48938618D02*
X59217160Y-48652904D01*
X59217160Y-48652904D02*
X59264779Y-48557666D01*
X59264779Y-48557666D02*
X59312398Y-48510047D01*
X59312398Y-48510047D02*
X59407636Y-48462428D01*
X59407636Y-48462428D02*
X59598112Y-48462428D01*
X59598112Y-48462428D02*
X59693350Y-48510047D01*
X60264779Y-49129095D02*
X60169541Y-49081476D01*
X60169541Y-49081476D02*
X60121922Y-49033856D01*
X60121922Y-49033856D02*
X60074303Y-48938618D01*
X60074303Y-48938618D02*
X60074303Y-48652904D01*
X60074303Y-48652904D02*
X60121922Y-48557666D01*
X60121922Y-48557666D02*
X60169541Y-48510047D01*
X60169541Y-48510047D02*
X60264779Y-48462428D01*
X60264779Y-48462428D02*
X60407636Y-48462428D01*
X60407636Y-48462428D02*
X60502874Y-48510047D01*
X60502874Y-48510047D02*
X60550493Y-48557666D01*
X60550493Y-48557666D02*
X60598112Y-48652904D01*
X60598112Y-48652904D02*
X60598112Y-48938618D01*
X60598112Y-48938618D02*
X60550493Y-49033856D01*
X60550493Y-49033856D02*
X60502874Y-49081476D01*
X60502874Y-49081476D02*
X60407636Y-49129095D01*
X60407636Y-49129095D02*
X60264779Y-49129095D01*
X61026684Y-48462428D02*
X61026684Y-49129095D01*
X61026684Y-48557666D02*
X61074303Y-48510047D01*
X61074303Y-48510047D02*
X61169541Y-48462428D01*
X61169541Y-48462428D02*
X61312398Y-48462428D01*
X61312398Y-48462428D02*
X61407636Y-48510047D01*
X61407636Y-48510047D02*
X61455255Y-48605285D01*
X61455255Y-48605285D02*
X61455255Y-49129095D01*
X61788589Y-48462428D02*
X62169541Y-48462428D01*
X61931446Y-48129095D02*
X61931446Y-48986237D01*
X61931446Y-48986237D02*
X61979065Y-49081476D01*
X61979065Y-49081476D02*
X62074303Y-49129095D01*
X62074303Y-49129095D02*
X62169541Y-49129095D01*
X62931446Y-49129095D02*
X62931446Y-48605285D01*
X62931446Y-48605285D02*
X62883827Y-48510047D01*
X62883827Y-48510047D02*
X62788589Y-48462428D01*
X62788589Y-48462428D02*
X62598113Y-48462428D01*
X62598113Y-48462428D02*
X62502875Y-48510047D01*
X62931446Y-49081476D02*
X62836208Y-49129095D01*
X62836208Y-49129095D02*
X62598113Y-49129095D01*
X62598113Y-49129095D02*
X62502875Y-49081476D01*
X62502875Y-49081476D02*
X62455256Y-48986237D01*
X62455256Y-48986237D02*
X62455256Y-48890999D01*
X62455256Y-48890999D02*
X62502875Y-48795761D01*
X62502875Y-48795761D02*
X62598113Y-48748142D01*
X62598113Y-48748142D02*
X62836208Y-48748142D01*
X62836208Y-48748142D02*
X62931446Y-48700523D01*
X63407637Y-49129095D02*
X63407637Y-48462428D01*
X63407637Y-48129095D02*
X63360018Y-48176714D01*
X63360018Y-48176714D02*
X63407637Y-48224333D01*
X63407637Y-48224333D02*
X63455256Y-48176714D01*
X63455256Y-48176714D02*
X63407637Y-48129095D01*
X63407637Y-48129095D02*
X63407637Y-48224333D01*
X63883827Y-48462428D02*
X63883827Y-49129095D01*
X63883827Y-48557666D02*
X63931446Y-48510047D01*
X63931446Y-48510047D02*
X64026684Y-48462428D01*
X64026684Y-48462428D02*
X64169541Y-48462428D01*
X64169541Y-48462428D02*
X64264779Y-48510047D01*
X64264779Y-48510047D02*
X64312398Y-48605285D01*
X64312398Y-48605285D02*
X64312398Y-49129095D01*
X64740970Y-49081476D02*
X64836208Y-49129095D01*
X64836208Y-49129095D02*
X65026684Y-49129095D01*
X65026684Y-49129095D02*
X65121922Y-49081476D01*
X65121922Y-49081476D02*
X65169541Y-48986237D01*
X65169541Y-48986237D02*
X65169541Y-48938618D01*
X65169541Y-48938618D02*
X65121922Y-48843380D01*
X65121922Y-48843380D02*
X65026684Y-48795761D01*
X65026684Y-48795761D02*
X64883827Y-48795761D01*
X64883827Y-48795761D02*
X64788589Y-48748142D01*
X64788589Y-48748142D02*
X64740970Y-48652904D01*
X64740970Y-48652904D02*
X64740970Y-48605285D01*
X64740970Y-48605285D02*
X64788589Y-48510047D01*
X64788589Y-48510047D02*
X64883827Y-48462428D01*
X64883827Y-48462428D02*
X65026684Y-48462428D01*
X65026684Y-48462428D02*
X65121922Y-48510047D01*
X66502875Y-49129095D02*
X66407637Y-49081476D01*
X66407637Y-49081476D02*
X66360018Y-48986237D01*
X66360018Y-48986237D02*
X66360018Y-48129095D01*
X67312399Y-49129095D02*
X67312399Y-48605285D01*
X67312399Y-48605285D02*
X67264780Y-48510047D01*
X67264780Y-48510047D02*
X67169542Y-48462428D01*
X67169542Y-48462428D02*
X66979066Y-48462428D01*
X66979066Y-48462428D02*
X66883828Y-48510047D01*
X67312399Y-49081476D02*
X67217161Y-49129095D01*
X67217161Y-49129095D02*
X66979066Y-49129095D01*
X66979066Y-49129095D02*
X66883828Y-49081476D01*
X66883828Y-49081476D02*
X66836209Y-48986237D01*
X66836209Y-48986237D02*
X66836209Y-48890999D01*
X66836209Y-48890999D02*
X66883828Y-48795761D01*
X66883828Y-48795761D02*
X66979066Y-48748142D01*
X66979066Y-48748142D02*
X67217161Y-48748142D01*
X67217161Y-48748142D02*
X67312399Y-48700523D01*
X67740971Y-49081476D02*
X67836209Y-49129095D01*
X67836209Y-49129095D02*
X68026685Y-49129095D01*
X68026685Y-49129095D02*
X68121923Y-49081476D01*
X68121923Y-49081476D02*
X68169542Y-48986237D01*
X68169542Y-48986237D02*
X68169542Y-48938618D01*
X68169542Y-48938618D02*
X68121923Y-48843380D01*
X68121923Y-48843380D02*
X68026685Y-48795761D01*
X68026685Y-48795761D02*
X67883828Y-48795761D01*
X67883828Y-48795761D02*
X67788590Y-48748142D01*
X67788590Y-48748142D02*
X67740971Y-48652904D01*
X67740971Y-48652904D02*
X67740971Y-48605285D01*
X67740971Y-48605285D02*
X67788590Y-48510047D01*
X67788590Y-48510047D02*
X67883828Y-48462428D01*
X67883828Y-48462428D02*
X68026685Y-48462428D01*
X68026685Y-48462428D02*
X68121923Y-48510047D01*
X68979066Y-49081476D02*
X68883828Y-49129095D01*
X68883828Y-49129095D02*
X68693352Y-49129095D01*
X68693352Y-49129095D02*
X68598114Y-49081476D01*
X68598114Y-49081476D02*
X68550495Y-48986237D01*
X68550495Y-48986237D02*
X68550495Y-48605285D01*
X68550495Y-48605285D02*
X68598114Y-48510047D01*
X68598114Y-48510047D02*
X68693352Y-48462428D01*
X68693352Y-48462428D02*
X68883828Y-48462428D01*
X68883828Y-48462428D02*
X68979066Y-48510047D01*
X68979066Y-48510047D02*
X69026685Y-48605285D01*
X69026685Y-48605285D02*
X69026685Y-48700523D01*
X69026685Y-48700523D02*
X68550495Y-48795761D01*
X69455257Y-49129095D02*
X69455257Y-48462428D01*
X69455257Y-48652904D02*
X69502876Y-48557666D01*
X69502876Y-48557666D02*
X69550495Y-48510047D01*
X69550495Y-48510047D02*
X69645733Y-48462428D01*
X69645733Y-48462428D02*
X69740971Y-48462428D01*
X70026686Y-49081476D02*
X70121924Y-49129095D01*
X70121924Y-49129095D02*
X70312400Y-49129095D01*
X70312400Y-49129095D02*
X70407638Y-49081476D01*
X70407638Y-49081476D02*
X70455257Y-48986237D01*
X70455257Y-48986237D02*
X70455257Y-48938618D01*
X70455257Y-48938618D02*
X70407638Y-48843380D01*
X70407638Y-48843380D02*
X70312400Y-48795761D01*
X70312400Y-48795761D02*
X70169543Y-48795761D01*
X70169543Y-48795761D02*
X70074305Y-48748142D01*
X70074305Y-48748142D02*
X70026686Y-48652904D01*
X70026686Y-48652904D02*
X70026686Y-48605285D01*
X70026686Y-48605285D02*
X70074305Y-48510047D01*
X70074305Y-48510047D02*
X70169543Y-48462428D01*
X70169543Y-48462428D02*
X70312400Y-48462428D01*
X70312400Y-48462428D02*
X70407638Y-48510047D01*
X71502877Y-48462428D02*
X71883829Y-48462428D01*
X71645734Y-48129095D02*
X71645734Y-48986237D01*
X71645734Y-48986237D02*
X71693353Y-49081476D01*
X71693353Y-49081476D02*
X71788591Y-49129095D01*
X71788591Y-49129095D02*
X71883829Y-49129095D01*
X72217163Y-49129095D02*
X72217163Y-48129095D01*
X72645734Y-49129095D02*
X72645734Y-48605285D01*
X72645734Y-48605285D02*
X72598115Y-48510047D01*
X72598115Y-48510047D02*
X72502877Y-48462428D01*
X72502877Y-48462428D02*
X72360020Y-48462428D01*
X72360020Y-48462428D02*
X72264782Y-48510047D01*
X72264782Y-48510047D02*
X72217163Y-48557666D01*
X73550496Y-49129095D02*
X73550496Y-48605285D01*
X73550496Y-48605285D02*
X73502877Y-48510047D01*
X73502877Y-48510047D02*
X73407639Y-48462428D01*
X73407639Y-48462428D02*
X73217163Y-48462428D01*
X73217163Y-48462428D02*
X73121925Y-48510047D01*
X73550496Y-49081476D02*
X73455258Y-49129095D01*
X73455258Y-49129095D02*
X73217163Y-49129095D01*
X73217163Y-49129095D02*
X73121925Y-49081476D01*
X73121925Y-49081476D02*
X73074306Y-48986237D01*
X73074306Y-48986237D02*
X73074306Y-48890999D01*
X73074306Y-48890999D02*
X73121925Y-48795761D01*
X73121925Y-48795761D02*
X73217163Y-48748142D01*
X73217163Y-48748142D02*
X73455258Y-48748142D01*
X73455258Y-48748142D02*
X73550496Y-48700523D01*
X73883830Y-48462428D02*
X74264782Y-48462428D01*
X74026687Y-48129095D02*
X74026687Y-48986237D01*
X74026687Y-48986237D02*
X74074306Y-49081476D01*
X74074306Y-49081476D02*
X74169544Y-49129095D01*
X74169544Y-49129095D02*
X74264782Y-49129095D01*
X59169541Y-50072428D02*
X59360017Y-50739095D01*
X59360017Y-50739095D02*
X59550493Y-50262904D01*
X59550493Y-50262904D02*
X59740969Y-50739095D01*
X59740969Y-50739095D02*
X59931445Y-50072428D01*
X60312398Y-50739095D02*
X60312398Y-50072428D01*
X60312398Y-49739095D02*
X60264779Y-49786714D01*
X60264779Y-49786714D02*
X60312398Y-49834333D01*
X60312398Y-49834333D02*
X60360017Y-49786714D01*
X60360017Y-49786714D02*
X60312398Y-49739095D01*
X60312398Y-49739095D02*
X60312398Y-49834333D01*
X60931445Y-50739095D02*
X60836207Y-50691476D01*
X60836207Y-50691476D02*
X60788588Y-50596237D01*
X60788588Y-50596237D02*
X60788588Y-49739095D01*
X61455255Y-50739095D02*
X61360017Y-50691476D01*
X61360017Y-50691476D02*
X61312398Y-50596237D01*
X61312398Y-50596237D02*
X61312398Y-49739095D01*
X62598113Y-50739095D02*
X62598113Y-49739095D01*
X63026684Y-50739095D02*
X63026684Y-50215285D01*
X63026684Y-50215285D02*
X62979065Y-50120047D01*
X62979065Y-50120047D02*
X62883827Y-50072428D01*
X62883827Y-50072428D02*
X62740970Y-50072428D01*
X62740970Y-50072428D02*
X62645732Y-50120047D01*
X62645732Y-50120047D02*
X62598113Y-50167666D01*
X63931446Y-50072428D02*
X63931446Y-50739095D01*
X63502875Y-50072428D02*
X63502875Y-50596237D01*
X63502875Y-50596237D02*
X63550494Y-50691476D01*
X63550494Y-50691476D02*
X63645732Y-50739095D01*
X63645732Y-50739095D02*
X63788589Y-50739095D01*
X63788589Y-50739095D02*
X63883827Y-50691476D01*
X63883827Y-50691476D02*
X63931446Y-50643856D01*
X64407637Y-50739095D02*
X64407637Y-50072428D01*
X64407637Y-50262904D02*
X64455256Y-50167666D01*
X64455256Y-50167666D02*
X64502875Y-50120047D01*
X64502875Y-50120047D02*
X64598113Y-50072428D01*
X64598113Y-50072428D02*
X64693351Y-50072428D01*
X64883828Y-50072428D02*
X65264780Y-50072428D01*
X65026685Y-49739095D02*
X65026685Y-50596237D01*
X65026685Y-50596237D02*
X65074304Y-50691476D01*
X65074304Y-50691476D02*
X65169542Y-50739095D01*
X65169542Y-50739095D02*
X65264780Y-50739095D01*
X66264781Y-50072428D02*
X66502876Y-50739095D01*
X66740971Y-50072428D02*
X66502876Y-50739095D01*
X66502876Y-50739095D02*
X66407638Y-50977190D01*
X66407638Y-50977190D02*
X66360019Y-51024809D01*
X66360019Y-51024809D02*
X66264781Y-51072428D01*
X67264781Y-50739095D02*
X67169543Y-50691476D01*
X67169543Y-50691476D02*
X67121924Y-50643856D01*
X67121924Y-50643856D02*
X67074305Y-50548618D01*
X67074305Y-50548618D02*
X67074305Y-50262904D01*
X67074305Y-50262904D02*
X67121924Y-50167666D01*
X67121924Y-50167666D02*
X67169543Y-50120047D01*
X67169543Y-50120047D02*
X67264781Y-50072428D01*
X67264781Y-50072428D02*
X67407638Y-50072428D01*
X67407638Y-50072428D02*
X67502876Y-50120047D01*
X67502876Y-50120047D02*
X67550495Y-50167666D01*
X67550495Y-50167666D02*
X67598114Y-50262904D01*
X67598114Y-50262904D02*
X67598114Y-50548618D01*
X67598114Y-50548618D02*
X67550495Y-50643856D01*
X67550495Y-50643856D02*
X67502876Y-50691476D01*
X67502876Y-50691476D02*
X67407638Y-50739095D01*
X67407638Y-50739095D02*
X67264781Y-50739095D01*
X68455257Y-50072428D02*
X68455257Y-50739095D01*
X68026686Y-50072428D02*
X68026686Y-50596237D01*
X68026686Y-50596237D02*
X68074305Y-50691476D01*
X68074305Y-50691476D02*
X68169543Y-50739095D01*
X68169543Y-50739095D02*
X68312400Y-50739095D01*
X68312400Y-50739095D02*
X68407638Y-50691476D01*
X68407638Y-50691476D02*
X68455257Y-50643856D01*
X68931448Y-50739095D02*
X68931448Y-50072428D01*
X68931448Y-50262904D02*
X68979067Y-50167666D01*
X68979067Y-50167666D02*
X69026686Y-50120047D01*
X69026686Y-50120047D02*
X69121924Y-50072428D01*
X69121924Y-50072428D02*
X69217162Y-50072428D01*
X70693353Y-50691476D02*
X70598115Y-50739095D01*
X70598115Y-50739095D02*
X70407639Y-50739095D01*
X70407639Y-50739095D02*
X70312401Y-50691476D01*
X70312401Y-50691476D02*
X70264782Y-50596237D01*
X70264782Y-50596237D02*
X70264782Y-50215285D01*
X70264782Y-50215285D02*
X70312401Y-50120047D01*
X70312401Y-50120047D02*
X70407639Y-50072428D01*
X70407639Y-50072428D02*
X70598115Y-50072428D01*
X70598115Y-50072428D02*
X70693353Y-50120047D01*
X70693353Y-50120047D02*
X70740972Y-50215285D01*
X70740972Y-50215285D02*
X70740972Y-50310523D01*
X70740972Y-50310523D02*
X70264782Y-50405761D01*
X71074306Y-50072428D02*
X71312401Y-50739095D01*
X71550496Y-50072428D02*
X71312401Y-50739095D01*
X71312401Y-50739095D02*
X71217163Y-50977190D01*
X71217163Y-50977190D02*
X71169544Y-51024809D01*
X71169544Y-51024809D02*
X71074306Y-51072428D01*
X72312401Y-50691476D02*
X72217163Y-50739095D01*
X72217163Y-50739095D02*
X72026687Y-50739095D01*
X72026687Y-50739095D02*
X71931449Y-50691476D01*
X71931449Y-50691476D02*
X71883830Y-50596237D01*
X71883830Y-50596237D02*
X71883830Y-50215285D01*
X71883830Y-50215285D02*
X71931449Y-50120047D01*
X71931449Y-50120047D02*
X72026687Y-50072428D01*
X72026687Y-50072428D02*
X72217163Y-50072428D01*
X72217163Y-50072428D02*
X72312401Y-50120047D01*
X72312401Y-50120047D02*
X72360020Y-50215285D01*
X72360020Y-50215285D02*
X72360020Y-50310523D01*
X72360020Y-50310523D02*
X71883830Y-50405761D01*
X72740973Y-50691476D02*
X72836211Y-50739095D01*
X72836211Y-50739095D02*
X73026687Y-50739095D01*
X73026687Y-50739095D02*
X73121925Y-50691476D01*
X73121925Y-50691476D02*
X73169544Y-50596237D01*
X73169544Y-50596237D02*
X73169544Y-50548618D01*
X73169544Y-50548618D02*
X73121925Y-50453380D01*
X73121925Y-50453380D02*
X73026687Y-50405761D01*
X73026687Y-50405761D02*
X72883830Y-50405761D01*
X72883830Y-50405761D02*
X72788592Y-50358142D01*
X72788592Y-50358142D02*
X72740973Y-50262904D01*
X72740973Y-50262904D02*
X72740973Y-50215285D01*
X72740973Y-50215285D02*
X72788592Y-50120047D01*
X72788592Y-50120047D02*
X72883830Y-50072428D01*
X72883830Y-50072428D02*
X73026687Y-50072428D01*
X73026687Y-50072428D02*
X73121925Y-50120047D01*
X73598116Y-50643856D02*
X73645735Y-50691476D01*
X73645735Y-50691476D02*
X73598116Y-50739095D01*
X73598116Y-50739095D02*
X73550497Y-50691476D01*
X73550497Y-50691476D02*
X73598116Y-50643856D01*
X73598116Y-50643856D02*
X73598116Y-50739095D01*
D11*
X55594121Y-27971448D02*
X56457721Y-27971448D01*
X56457721Y-27971448D02*
X56457721Y-28177067D01*
X56457721Y-28177067D02*
X56416597Y-28300438D01*
X56416597Y-28300438D02*
X56334349Y-28382686D01*
X56334349Y-28382686D02*
X56252102Y-28423809D01*
X56252102Y-28423809D02*
X56087606Y-28464933D01*
X56087606Y-28464933D02*
X55964235Y-28464933D01*
X55964235Y-28464933D02*
X55799740Y-28423809D01*
X55799740Y-28423809D02*
X55717492Y-28382686D01*
X55717492Y-28382686D02*
X55635245Y-28300438D01*
X55635245Y-28300438D02*
X55594121Y-28177067D01*
X55594121Y-28177067D02*
X55594121Y-27971448D01*
X55594121Y-28835048D02*
X56169854Y-28835048D01*
X56457721Y-28835048D02*
X56416597Y-28793924D01*
X56416597Y-28793924D02*
X56375473Y-28835048D01*
X56375473Y-28835048D02*
X56416597Y-28876171D01*
X56416597Y-28876171D02*
X56457721Y-28835048D01*
X56457721Y-28835048D02*
X56375473Y-28835048D01*
X55594121Y-29369657D02*
X55635245Y-29287409D01*
X55635245Y-29287409D02*
X55676368Y-29246286D01*
X55676368Y-29246286D02*
X55758616Y-29205162D01*
X55758616Y-29205162D02*
X56005359Y-29205162D01*
X56005359Y-29205162D02*
X56087606Y-29246286D01*
X56087606Y-29246286D02*
X56128730Y-29287409D01*
X56128730Y-29287409D02*
X56169854Y-29369657D01*
X56169854Y-29369657D02*
X56169854Y-29493028D01*
X56169854Y-29493028D02*
X56128730Y-29575276D01*
X56128730Y-29575276D02*
X56087606Y-29616400D01*
X56087606Y-29616400D02*
X56005359Y-29657524D01*
X56005359Y-29657524D02*
X55758616Y-29657524D01*
X55758616Y-29657524D02*
X55676368Y-29616400D01*
X55676368Y-29616400D02*
X55635245Y-29575276D01*
X55635245Y-29575276D02*
X55594121Y-29493028D01*
X55594121Y-29493028D02*
X55594121Y-29369657D01*
X55594121Y-30397752D02*
X56457721Y-30397752D01*
X55635245Y-30397752D02*
X55594121Y-30315504D01*
X55594121Y-30315504D02*
X55594121Y-30151009D01*
X55594121Y-30151009D02*
X55635245Y-30068761D01*
X55635245Y-30068761D02*
X55676368Y-30027638D01*
X55676368Y-30027638D02*
X55758616Y-29986514D01*
X55758616Y-29986514D02*
X56005359Y-29986514D01*
X56005359Y-29986514D02*
X56087606Y-30027638D01*
X56087606Y-30027638D02*
X56128730Y-30068761D01*
X56128730Y-30068761D02*
X56169854Y-30151009D01*
X56169854Y-30151009D02*
X56169854Y-30315504D01*
X56169854Y-30315504D02*
X56128730Y-30397752D01*
X55635245Y-31137980D02*
X55594121Y-31055732D01*
X55594121Y-31055732D02*
X55594121Y-30891237D01*
X55594121Y-30891237D02*
X55635245Y-30808990D01*
X55635245Y-30808990D02*
X55717492Y-30767866D01*
X55717492Y-30767866D02*
X56046483Y-30767866D01*
X56046483Y-30767866D02*
X56128730Y-30808990D01*
X56128730Y-30808990D02*
X56169854Y-30891237D01*
X56169854Y-30891237D02*
X56169854Y-31055732D01*
X56169854Y-31055732D02*
X56128730Y-31137980D01*
X56128730Y-31137980D02*
X56046483Y-31179104D01*
X56046483Y-31179104D02*
X55964235Y-31179104D01*
X55964235Y-31179104D02*
X55881987Y-30767866D01*
X56046483Y-32495066D02*
X56005359Y-32618438D01*
X56005359Y-32618438D02*
X55964235Y-32659561D01*
X55964235Y-32659561D02*
X55881987Y-32700685D01*
X55881987Y-32700685D02*
X55758616Y-32700685D01*
X55758616Y-32700685D02*
X55676368Y-32659561D01*
X55676368Y-32659561D02*
X55635245Y-32618438D01*
X55635245Y-32618438D02*
X55594121Y-32536190D01*
X55594121Y-32536190D02*
X55594121Y-32207200D01*
X55594121Y-32207200D02*
X56457721Y-32207200D01*
X56457721Y-32207200D02*
X56457721Y-32495066D01*
X56457721Y-32495066D02*
X56416597Y-32577314D01*
X56416597Y-32577314D02*
X56375473Y-32618438D01*
X56375473Y-32618438D02*
X56293225Y-32659561D01*
X56293225Y-32659561D02*
X56210978Y-32659561D01*
X56210978Y-32659561D02*
X56128730Y-32618438D01*
X56128730Y-32618438D02*
X56087606Y-32577314D01*
X56087606Y-32577314D02*
X56046483Y-32495066D01*
X56046483Y-32495066D02*
X56046483Y-32207200D01*
X55594121Y-33070800D02*
X56169854Y-33070800D01*
X56005359Y-33070800D02*
X56087606Y-33111923D01*
X56087606Y-33111923D02*
X56128730Y-33153047D01*
X56128730Y-33153047D02*
X56169854Y-33235295D01*
X56169854Y-33235295D02*
X56169854Y-33317542D01*
X55635245Y-33934400D02*
X55594121Y-33852152D01*
X55594121Y-33852152D02*
X55594121Y-33687657D01*
X55594121Y-33687657D02*
X55635245Y-33605410D01*
X55635245Y-33605410D02*
X55717492Y-33564286D01*
X55717492Y-33564286D02*
X56046483Y-33564286D01*
X56046483Y-33564286D02*
X56128730Y-33605410D01*
X56128730Y-33605410D02*
X56169854Y-33687657D01*
X56169854Y-33687657D02*
X56169854Y-33852152D01*
X56169854Y-33852152D02*
X56128730Y-33934400D01*
X56128730Y-33934400D02*
X56046483Y-33975524D01*
X56046483Y-33975524D02*
X55964235Y-33975524D01*
X55964235Y-33975524D02*
X55881987Y-33564286D01*
X55594121Y-34715753D02*
X56046483Y-34715753D01*
X56046483Y-34715753D02*
X56128730Y-34674629D01*
X56128730Y-34674629D02*
X56169854Y-34592381D01*
X56169854Y-34592381D02*
X56169854Y-34427886D01*
X56169854Y-34427886D02*
X56128730Y-34345639D01*
X55635245Y-34715753D02*
X55594121Y-34633505D01*
X55594121Y-34633505D02*
X55594121Y-34427886D01*
X55594121Y-34427886D02*
X55635245Y-34345639D01*
X55635245Y-34345639D02*
X55717492Y-34304515D01*
X55717492Y-34304515D02*
X55799740Y-34304515D01*
X55799740Y-34304515D02*
X55881987Y-34345639D01*
X55881987Y-34345639D02*
X55923111Y-34427886D01*
X55923111Y-34427886D02*
X55923111Y-34633505D01*
X55923111Y-34633505D02*
X55964235Y-34715753D01*
X55594121Y-35126991D02*
X56457721Y-35126991D01*
X55923111Y-35209238D02*
X55594121Y-35455981D01*
X56169854Y-35455981D02*
X55840864Y-35126991D01*
X55594121Y-35949467D02*
X55635245Y-35867219D01*
X55635245Y-35867219D02*
X55676368Y-35826096D01*
X55676368Y-35826096D02*
X55758616Y-35784972D01*
X55758616Y-35784972D02*
X56005359Y-35784972D01*
X56005359Y-35784972D02*
X56087606Y-35826096D01*
X56087606Y-35826096D02*
X56128730Y-35867219D01*
X56128730Y-35867219D02*
X56169854Y-35949467D01*
X56169854Y-35949467D02*
X56169854Y-36072838D01*
X56169854Y-36072838D02*
X56128730Y-36155086D01*
X56128730Y-36155086D02*
X56087606Y-36196210D01*
X56087606Y-36196210D02*
X56005359Y-36237334D01*
X56005359Y-36237334D02*
X55758616Y-36237334D01*
X55758616Y-36237334D02*
X55676368Y-36196210D01*
X55676368Y-36196210D02*
X55635245Y-36155086D01*
X55635245Y-36155086D02*
X55594121Y-36072838D01*
X55594121Y-36072838D02*
X55594121Y-35949467D01*
X56169854Y-36977562D02*
X55594121Y-36977562D01*
X56169854Y-36607448D02*
X55717492Y-36607448D01*
X55717492Y-36607448D02*
X55635245Y-36648571D01*
X55635245Y-36648571D02*
X55594121Y-36730819D01*
X55594121Y-36730819D02*
X55594121Y-36854190D01*
X55594121Y-36854190D02*
X55635245Y-36936438D01*
X55635245Y-36936438D02*
X55676368Y-36977562D01*
X56169854Y-37265428D02*
X56169854Y-37594419D01*
X56457721Y-37388800D02*
X55717492Y-37388800D01*
X55717492Y-37388800D02*
X55635245Y-37429923D01*
X55635245Y-37429923D02*
X55594121Y-37512171D01*
X55594121Y-37512171D02*
X55594121Y-37594419D01*
X55635245Y-37923409D02*
X55594121Y-37923409D01*
X55594121Y-37923409D02*
X55511873Y-37882286D01*
X55511873Y-37882286D02*
X55470749Y-37841162D01*
X55594121Y-39444990D02*
X56005359Y-39157124D01*
X55594121Y-38951505D02*
X56457721Y-38951505D01*
X56457721Y-38951505D02*
X56457721Y-39280495D01*
X56457721Y-39280495D02*
X56416597Y-39362743D01*
X56416597Y-39362743D02*
X56375473Y-39403866D01*
X56375473Y-39403866D02*
X56293225Y-39444990D01*
X56293225Y-39444990D02*
X56169854Y-39444990D01*
X56169854Y-39444990D02*
X56087606Y-39403866D01*
X56087606Y-39403866D02*
X56046483Y-39362743D01*
X56046483Y-39362743D02*
X56005359Y-39280495D01*
X56005359Y-39280495D02*
X56005359Y-38951505D01*
X55635245Y-40144095D02*
X55594121Y-40061847D01*
X55594121Y-40061847D02*
X55594121Y-39897352D01*
X55594121Y-39897352D02*
X55635245Y-39815105D01*
X55635245Y-39815105D02*
X55717492Y-39773981D01*
X55717492Y-39773981D02*
X56046483Y-39773981D01*
X56046483Y-39773981D02*
X56128730Y-39815105D01*
X56128730Y-39815105D02*
X56169854Y-39897352D01*
X56169854Y-39897352D02*
X56169854Y-40061847D01*
X56169854Y-40061847D02*
X56128730Y-40144095D01*
X56128730Y-40144095D02*
X56046483Y-40185219D01*
X56046483Y-40185219D02*
X55964235Y-40185219D01*
X55964235Y-40185219D02*
X55881987Y-39773981D01*
X56169854Y-40473086D02*
X55594121Y-40678705D01*
X55594121Y-40678705D02*
X56169854Y-40884324D01*
X55594121Y-41665676D02*
X55594121Y-41172191D01*
X55594121Y-41418934D02*
X56457721Y-41418934D01*
X56457721Y-41418934D02*
X56334349Y-41336686D01*
X56334349Y-41336686D02*
X56252102Y-41254438D01*
X56252102Y-41254438D02*
X56210978Y-41172191D01*
X54203725Y-26922790D02*
X55067325Y-26922790D01*
X55067325Y-26922790D02*
X54450468Y-27210656D01*
X54450468Y-27210656D02*
X55067325Y-27498523D01*
X55067325Y-27498523D02*
X54203725Y-27498523D01*
X54203725Y-28279875D02*
X54656087Y-28279875D01*
X54656087Y-28279875D02*
X54738334Y-28238751D01*
X54738334Y-28238751D02*
X54779458Y-28156503D01*
X54779458Y-28156503D02*
X54779458Y-27992008D01*
X54779458Y-27992008D02*
X54738334Y-27909761D01*
X54244849Y-28279875D02*
X54203725Y-28197627D01*
X54203725Y-28197627D02*
X54203725Y-27992008D01*
X54203725Y-27992008D02*
X54244849Y-27909761D01*
X54244849Y-27909761D02*
X54327096Y-27868637D01*
X54327096Y-27868637D02*
X54409344Y-27868637D01*
X54409344Y-27868637D02*
X54491591Y-27909761D01*
X54491591Y-27909761D02*
X54532715Y-27992008D01*
X54532715Y-27992008D02*
X54532715Y-28197627D01*
X54532715Y-28197627D02*
X54573839Y-28279875D01*
X54203725Y-28691113D02*
X54779458Y-28691113D01*
X54614963Y-28691113D02*
X54697210Y-28732236D01*
X54697210Y-28732236D02*
X54738334Y-28773360D01*
X54738334Y-28773360D02*
X54779458Y-28855608D01*
X54779458Y-28855608D02*
X54779458Y-28937855D01*
X54244849Y-29184599D02*
X54203725Y-29266846D01*
X54203725Y-29266846D02*
X54203725Y-29431342D01*
X54203725Y-29431342D02*
X54244849Y-29513589D01*
X54244849Y-29513589D02*
X54327096Y-29554713D01*
X54327096Y-29554713D02*
X54368220Y-29554713D01*
X54368220Y-29554713D02*
X54450468Y-29513589D01*
X54450468Y-29513589D02*
X54491591Y-29431342D01*
X54491591Y-29431342D02*
X54491591Y-29307970D01*
X54491591Y-29307970D02*
X54532715Y-29225723D01*
X54532715Y-29225723D02*
X54614963Y-29184599D01*
X54614963Y-29184599D02*
X54656087Y-29184599D01*
X54656087Y-29184599D02*
X54738334Y-29225723D01*
X54738334Y-29225723D02*
X54779458Y-29307970D01*
X54779458Y-29307970D02*
X54779458Y-29431342D01*
X54779458Y-29431342D02*
X54738334Y-29513589D01*
X54203725Y-31076294D02*
X54614963Y-30788428D01*
X54203725Y-30582809D02*
X55067325Y-30582809D01*
X55067325Y-30582809D02*
X55067325Y-30911799D01*
X55067325Y-30911799D02*
X55026201Y-30994047D01*
X55026201Y-30994047D02*
X54985077Y-31035170D01*
X54985077Y-31035170D02*
X54902829Y-31076294D01*
X54902829Y-31076294D02*
X54779458Y-31076294D01*
X54779458Y-31076294D02*
X54697210Y-31035170D01*
X54697210Y-31035170D02*
X54656087Y-30994047D01*
X54656087Y-30994047D02*
X54614963Y-30911799D01*
X54614963Y-30911799D02*
X54614963Y-30582809D01*
X54203725Y-31569780D02*
X54244849Y-31487532D01*
X54244849Y-31487532D02*
X54285972Y-31446409D01*
X54285972Y-31446409D02*
X54368220Y-31405285D01*
X54368220Y-31405285D02*
X54614963Y-31405285D01*
X54614963Y-31405285D02*
X54697210Y-31446409D01*
X54697210Y-31446409D02*
X54738334Y-31487532D01*
X54738334Y-31487532D02*
X54779458Y-31569780D01*
X54779458Y-31569780D02*
X54779458Y-31693151D01*
X54779458Y-31693151D02*
X54738334Y-31775399D01*
X54738334Y-31775399D02*
X54697210Y-31816523D01*
X54697210Y-31816523D02*
X54614963Y-31857647D01*
X54614963Y-31857647D02*
X54368220Y-31857647D01*
X54368220Y-31857647D02*
X54285972Y-31816523D01*
X54285972Y-31816523D02*
X54244849Y-31775399D01*
X54244849Y-31775399D02*
X54203725Y-31693151D01*
X54203725Y-31693151D02*
X54203725Y-31569780D01*
X54779458Y-32145513D02*
X54203725Y-32351132D01*
X54203725Y-32351132D02*
X54779458Y-32556751D01*
X54244849Y-33214732D02*
X54203725Y-33132484D01*
X54203725Y-33132484D02*
X54203725Y-32967989D01*
X54203725Y-32967989D02*
X54244849Y-32885742D01*
X54244849Y-32885742D02*
X54327096Y-32844618D01*
X54327096Y-32844618D02*
X54656087Y-32844618D01*
X54656087Y-32844618D02*
X54738334Y-32885742D01*
X54738334Y-32885742D02*
X54779458Y-32967989D01*
X54779458Y-32967989D02*
X54779458Y-33132484D01*
X54779458Y-33132484D02*
X54738334Y-33214732D01*
X54738334Y-33214732D02*
X54656087Y-33255856D01*
X54656087Y-33255856D02*
X54573839Y-33255856D01*
X54573839Y-33255856D02*
X54491591Y-32844618D01*
X54203725Y-33625971D02*
X54779458Y-33625971D01*
X54614963Y-33625971D02*
X54697210Y-33667094D01*
X54697210Y-33667094D02*
X54738334Y-33708218D01*
X54738334Y-33708218D02*
X54779458Y-33790466D01*
X54779458Y-33790466D02*
X54779458Y-33872713D01*
X54203725Y-34818562D02*
X55067325Y-34818562D01*
X55067325Y-34818562D02*
X55067325Y-35024181D01*
X55067325Y-35024181D02*
X55026201Y-35147552D01*
X55026201Y-35147552D02*
X54943953Y-35229800D01*
X54943953Y-35229800D02*
X54861706Y-35270923D01*
X54861706Y-35270923D02*
X54697210Y-35312047D01*
X54697210Y-35312047D02*
X54573839Y-35312047D01*
X54573839Y-35312047D02*
X54409344Y-35270923D01*
X54409344Y-35270923D02*
X54327096Y-35229800D01*
X54327096Y-35229800D02*
X54244849Y-35147552D01*
X54244849Y-35147552D02*
X54203725Y-35024181D01*
X54203725Y-35024181D02*
X54203725Y-34818562D01*
X54244849Y-36011152D02*
X54203725Y-35928904D01*
X54203725Y-35928904D02*
X54203725Y-35764409D01*
X54203725Y-35764409D02*
X54244849Y-35682162D01*
X54244849Y-35682162D02*
X54327096Y-35641038D01*
X54327096Y-35641038D02*
X54656087Y-35641038D01*
X54656087Y-35641038D02*
X54738334Y-35682162D01*
X54738334Y-35682162D02*
X54779458Y-35764409D01*
X54779458Y-35764409D02*
X54779458Y-35928904D01*
X54779458Y-35928904D02*
X54738334Y-36011152D01*
X54738334Y-36011152D02*
X54656087Y-36052276D01*
X54656087Y-36052276D02*
X54573839Y-36052276D01*
X54573839Y-36052276D02*
X54491591Y-35641038D01*
X54244849Y-36381267D02*
X54203725Y-36463514D01*
X54203725Y-36463514D02*
X54203725Y-36628010D01*
X54203725Y-36628010D02*
X54244849Y-36710257D01*
X54244849Y-36710257D02*
X54327096Y-36751381D01*
X54327096Y-36751381D02*
X54368220Y-36751381D01*
X54368220Y-36751381D02*
X54450468Y-36710257D01*
X54450468Y-36710257D02*
X54491591Y-36628010D01*
X54491591Y-36628010D02*
X54491591Y-36504638D01*
X54491591Y-36504638D02*
X54532715Y-36422391D01*
X54532715Y-36422391D02*
X54614963Y-36381267D01*
X54614963Y-36381267D02*
X54656087Y-36381267D01*
X54656087Y-36381267D02*
X54738334Y-36422391D01*
X54738334Y-36422391D02*
X54779458Y-36504638D01*
X54779458Y-36504638D02*
X54779458Y-36628010D01*
X54779458Y-36628010D02*
X54738334Y-36710257D01*
X54203725Y-37121496D02*
X54779458Y-37121496D01*
X55067325Y-37121496D02*
X55026201Y-37080372D01*
X55026201Y-37080372D02*
X54985077Y-37121496D01*
X54985077Y-37121496D02*
X55026201Y-37162619D01*
X55026201Y-37162619D02*
X55067325Y-37121496D01*
X55067325Y-37121496D02*
X54985077Y-37121496D01*
X54779458Y-37902848D02*
X54080353Y-37902848D01*
X54080353Y-37902848D02*
X53998106Y-37861724D01*
X53998106Y-37861724D02*
X53956982Y-37820600D01*
X53956982Y-37820600D02*
X53915858Y-37738353D01*
X53915858Y-37738353D02*
X53915858Y-37614981D01*
X53915858Y-37614981D02*
X53956982Y-37532734D01*
X54244849Y-37902848D02*
X54203725Y-37820600D01*
X54203725Y-37820600D02*
X54203725Y-37656105D01*
X54203725Y-37656105D02*
X54244849Y-37573857D01*
X54244849Y-37573857D02*
X54285972Y-37532734D01*
X54285972Y-37532734D02*
X54368220Y-37491610D01*
X54368220Y-37491610D02*
X54614963Y-37491610D01*
X54614963Y-37491610D02*
X54697210Y-37532734D01*
X54697210Y-37532734D02*
X54738334Y-37573857D01*
X54738334Y-37573857D02*
X54779458Y-37656105D01*
X54779458Y-37656105D02*
X54779458Y-37820600D01*
X54779458Y-37820600D02*
X54738334Y-37902848D01*
X54779458Y-38314086D02*
X54203725Y-38314086D01*
X54697210Y-38314086D02*
X54738334Y-38355209D01*
X54738334Y-38355209D02*
X54779458Y-38437457D01*
X54779458Y-38437457D02*
X54779458Y-38560828D01*
X54779458Y-38560828D02*
X54738334Y-38643076D01*
X54738334Y-38643076D02*
X54656087Y-38684200D01*
X54656087Y-38684200D02*
X54203725Y-38684200D01*
X55067325Y-39630047D02*
X55067325Y-40123533D01*
X54203725Y-39876790D02*
X55067325Y-39876790D01*
X54244849Y-40740390D02*
X54203725Y-40658142D01*
X54203725Y-40658142D02*
X54203725Y-40493647D01*
X54203725Y-40493647D02*
X54244849Y-40411400D01*
X54244849Y-40411400D02*
X54327096Y-40370276D01*
X54327096Y-40370276D02*
X54656087Y-40370276D01*
X54656087Y-40370276D02*
X54738334Y-40411400D01*
X54738334Y-40411400D02*
X54779458Y-40493647D01*
X54779458Y-40493647D02*
X54779458Y-40658142D01*
X54779458Y-40658142D02*
X54738334Y-40740390D01*
X54738334Y-40740390D02*
X54656087Y-40781514D01*
X54656087Y-40781514D02*
X54573839Y-40781514D01*
X54573839Y-40781514D02*
X54491591Y-40370276D01*
X54203725Y-41521743D02*
X54656087Y-41521743D01*
X54656087Y-41521743D02*
X54738334Y-41480619D01*
X54738334Y-41480619D02*
X54779458Y-41398371D01*
X54779458Y-41398371D02*
X54779458Y-41233876D01*
X54779458Y-41233876D02*
X54738334Y-41151629D01*
X54244849Y-41521743D02*
X54203725Y-41439495D01*
X54203725Y-41439495D02*
X54203725Y-41233876D01*
X54203725Y-41233876D02*
X54244849Y-41151629D01*
X54244849Y-41151629D02*
X54327096Y-41110505D01*
X54327096Y-41110505D02*
X54409344Y-41110505D01*
X54409344Y-41110505D02*
X54491591Y-41151629D01*
X54491591Y-41151629D02*
X54532715Y-41233876D01*
X54532715Y-41233876D02*
X54532715Y-41439495D01*
X54532715Y-41439495D02*
X54573839Y-41521743D01*
X54203725Y-41932981D02*
X54779458Y-41932981D01*
X54697210Y-41932981D02*
X54738334Y-41974104D01*
X54738334Y-41974104D02*
X54779458Y-42056352D01*
X54779458Y-42056352D02*
X54779458Y-42179723D01*
X54779458Y-42179723D02*
X54738334Y-42261971D01*
X54738334Y-42261971D02*
X54656087Y-42303095D01*
X54656087Y-42303095D02*
X54203725Y-42303095D01*
X54656087Y-42303095D02*
X54738334Y-42344219D01*
X54738334Y-42344219D02*
X54779458Y-42426466D01*
X54779458Y-42426466D02*
X54779458Y-42549838D01*
X54779458Y-42549838D02*
X54738334Y-42632085D01*
X54738334Y-42632085D02*
X54656087Y-42673209D01*
X54656087Y-42673209D02*
X54203725Y-42673209D01*
X52813329Y-28567744D02*
X53676929Y-28567744D01*
X53676929Y-28567744D02*
X53060072Y-28855610D01*
X53060072Y-28855610D02*
X53676929Y-29143477D01*
X53676929Y-29143477D02*
X52813329Y-29143477D01*
X52813329Y-29554715D02*
X53389062Y-29554715D01*
X53676929Y-29554715D02*
X53635805Y-29513591D01*
X53635805Y-29513591D02*
X53594681Y-29554715D01*
X53594681Y-29554715D02*
X53635805Y-29595838D01*
X53635805Y-29595838D02*
X53676929Y-29554715D01*
X53676929Y-29554715D02*
X53594681Y-29554715D01*
X52854453Y-29924829D02*
X52813329Y-30007076D01*
X52813329Y-30007076D02*
X52813329Y-30171572D01*
X52813329Y-30171572D02*
X52854453Y-30253819D01*
X52854453Y-30253819D02*
X52936700Y-30294943D01*
X52936700Y-30294943D02*
X52977824Y-30294943D01*
X52977824Y-30294943D02*
X53060072Y-30253819D01*
X53060072Y-30253819D02*
X53101195Y-30171572D01*
X53101195Y-30171572D02*
X53101195Y-30048200D01*
X53101195Y-30048200D02*
X53142319Y-29965953D01*
X53142319Y-29965953D02*
X53224567Y-29924829D01*
X53224567Y-29924829D02*
X53265691Y-29924829D01*
X53265691Y-29924829D02*
X53347938Y-29965953D01*
X53347938Y-29965953D02*
X53389062Y-30048200D01*
X53389062Y-30048200D02*
X53389062Y-30171572D01*
X53389062Y-30171572D02*
X53347938Y-30253819D01*
X52854453Y-30623934D02*
X52813329Y-30706181D01*
X52813329Y-30706181D02*
X52813329Y-30870677D01*
X52813329Y-30870677D02*
X52854453Y-30952924D01*
X52854453Y-30952924D02*
X52936700Y-30994048D01*
X52936700Y-30994048D02*
X52977824Y-30994048D01*
X52977824Y-30994048D02*
X53060072Y-30952924D01*
X53060072Y-30952924D02*
X53101195Y-30870677D01*
X53101195Y-30870677D02*
X53101195Y-30747305D01*
X53101195Y-30747305D02*
X53142319Y-30665058D01*
X53142319Y-30665058D02*
X53224567Y-30623934D01*
X53224567Y-30623934D02*
X53265691Y-30623934D01*
X53265691Y-30623934D02*
X53347938Y-30665058D01*
X53347938Y-30665058D02*
X53389062Y-30747305D01*
X53389062Y-30747305D02*
X53389062Y-30870677D01*
X53389062Y-30870677D02*
X53347938Y-30952924D01*
X52813329Y-31487534D02*
X52854453Y-31405286D01*
X52854453Y-31405286D02*
X52895576Y-31364163D01*
X52895576Y-31364163D02*
X52977824Y-31323039D01*
X52977824Y-31323039D02*
X53224567Y-31323039D01*
X53224567Y-31323039D02*
X53306814Y-31364163D01*
X53306814Y-31364163D02*
X53347938Y-31405286D01*
X53347938Y-31405286D02*
X53389062Y-31487534D01*
X53389062Y-31487534D02*
X53389062Y-31610905D01*
X53389062Y-31610905D02*
X53347938Y-31693153D01*
X53347938Y-31693153D02*
X53306814Y-31734277D01*
X53306814Y-31734277D02*
X53224567Y-31775401D01*
X53224567Y-31775401D02*
X52977824Y-31775401D01*
X52977824Y-31775401D02*
X52895576Y-31734277D01*
X52895576Y-31734277D02*
X52854453Y-31693153D01*
X52854453Y-31693153D02*
X52813329Y-31610905D01*
X52813329Y-31610905D02*
X52813329Y-31487534D01*
X53389062Y-32515629D02*
X52813329Y-32515629D01*
X53389062Y-32145515D02*
X52936700Y-32145515D01*
X52936700Y-32145515D02*
X52854453Y-32186638D01*
X52854453Y-32186638D02*
X52813329Y-32268886D01*
X52813329Y-32268886D02*
X52813329Y-32392257D01*
X52813329Y-32392257D02*
X52854453Y-32474505D01*
X52854453Y-32474505D02*
X52895576Y-32515629D01*
X52813329Y-32926867D02*
X53389062Y-32926867D01*
X53224567Y-32926867D02*
X53306814Y-32967990D01*
X53306814Y-32967990D02*
X53347938Y-33009114D01*
X53347938Y-33009114D02*
X53389062Y-33091362D01*
X53389062Y-33091362D02*
X53389062Y-33173609D01*
X52813329Y-33461477D02*
X53389062Y-33461477D01*
X53676929Y-33461477D02*
X53635805Y-33420353D01*
X53635805Y-33420353D02*
X53594681Y-33461477D01*
X53594681Y-33461477D02*
X53635805Y-33502600D01*
X53635805Y-33502600D02*
X53676929Y-33461477D01*
X53676929Y-33461477D02*
X53594681Y-33461477D01*
X52854453Y-34489572D02*
X52813329Y-34612943D01*
X52813329Y-34612943D02*
X52813329Y-34818562D01*
X52813329Y-34818562D02*
X52854453Y-34900810D01*
X52854453Y-34900810D02*
X52895576Y-34941934D01*
X52895576Y-34941934D02*
X52977824Y-34983057D01*
X52977824Y-34983057D02*
X53060072Y-34983057D01*
X53060072Y-34983057D02*
X53142319Y-34941934D01*
X53142319Y-34941934D02*
X53183443Y-34900810D01*
X53183443Y-34900810D02*
X53224567Y-34818562D01*
X53224567Y-34818562D02*
X53265691Y-34654067D01*
X53265691Y-34654067D02*
X53306814Y-34571819D01*
X53306814Y-34571819D02*
X53347938Y-34530696D01*
X53347938Y-34530696D02*
X53430186Y-34489572D01*
X53430186Y-34489572D02*
X53512433Y-34489572D01*
X53512433Y-34489572D02*
X53594681Y-34530696D01*
X53594681Y-34530696D02*
X53635805Y-34571819D01*
X53635805Y-34571819D02*
X53676929Y-34654067D01*
X53676929Y-34654067D02*
X53676929Y-34859686D01*
X53676929Y-34859686D02*
X53635805Y-34983057D01*
X52813329Y-36052276D02*
X52813329Y-36011153D01*
X52813329Y-36011153D02*
X52854453Y-35928905D01*
X52854453Y-35928905D02*
X52977824Y-35805533D01*
X52977824Y-35805533D02*
X53224567Y-35599914D01*
X53224567Y-35599914D02*
X53347938Y-35517667D01*
X53347938Y-35517667D02*
X53471310Y-35476543D01*
X53471310Y-35476543D02*
X53553557Y-35476543D01*
X53553557Y-35476543D02*
X53635805Y-35517667D01*
X53635805Y-35517667D02*
X53676929Y-35599914D01*
X53676929Y-35599914D02*
X53676929Y-35641038D01*
X53676929Y-35641038D02*
X53635805Y-35723286D01*
X53635805Y-35723286D02*
X53553557Y-35764410D01*
X53553557Y-35764410D02*
X53512433Y-35764410D01*
X53512433Y-35764410D02*
X53430186Y-35723286D01*
X53430186Y-35723286D02*
X53389062Y-35682162D01*
X53389062Y-35682162D02*
X53224567Y-35435419D01*
X53224567Y-35435419D02*
X53183443Y-35394295D01*
X53183443Y-35394295D02*
X53101195Y-35353172D01*
X53101195Y-35353172D02*
X52977824Y-35353172D01*
X52977824Y-35353172D02*
X52895576Y-35394295D01*
X52895576Y-35394295D02*
X52854453Y-35435419D01*
X52854453Y-35435419D02*
X52813329Y-35517667D01*
X52813329Y-35517667D02*
X52813329Y-35641038D01*
X52813329Y-35641038D02*
X52854453Y-35723286D01*
X52854453Y-35723286D02*
X52895576Y-35764410D01*
X52895576Y-35764410D02*
X53060072Y-35887781D01*
X53060072Y-35887781D02*
X53183443Y-35928905D01*
X53183443Y-35928905D02*
X53265691Y-35928905D01*
X53676929Y-36299019D02*
X53676929Y-36792505D01*
X52813329Y-36545762D02*
X53676929Y-36545762D01*
X52854453Y-37121495D02*
X52813329Y-37121495D01*
X52813329Y-37121495D02*
X52731081Y-37080372D01*
X52731081Y-37080372D02*
X52689957Y-37039248D01*
X53594681Y-38108467D02*
X53635805Y-38149591D01*
X53635805Y-38149591D02*
X53676929Y-38231838D01*
X53676929Y-38231838D02*
X53676929Y-38437457D01*
X53676929Y-38437457D02*
X53635805Y-38519705D01*
X53635805Y-38519705D02*
X53594681Y-38560829D01*
X53594681Y-38560829D02*
X53512433Y-38601952D01*
X53512433Y-38601952D02*
X53430186Y-38601952D01*
X53430186Y-38601952D02*
X53306814Y-38560829D01*
X53306814Y-38560829D02*
X52813329Y-38067343D01*
X52813329Y-38067343D02*
X52813329Y-38601952D01*
X53676929Y-39136562D02*
X53676929Y-39218809D01*
X53676929Y-39218809D02*
X53635805Y-39301057D01*
X53635805Y-39301057D02*
X53594681Y-39342181D01*
X53594681Y-39342181D02*
X53512433Y-39383305D01*
X53512433Y-39383305D02*
X53347938Y-39424428D01*
X53347938Y-39424428D02*
X53142319Y-39424428D01*
X53142319Y-39424428D02*
X52977824Y-39383305D01*
X52977824Y-39383305D02*
X52895576Y-39342181D01*
X52895576Y-39342181D02*
X52854453Y-39301057D01*
X52854453Y-39301057D02*
X52813329Y-39218809D01*
X52813329Y-39218809D02*
X52813329Y-39136562D01*
X52813329Y-39136562D02*
X52854453Y-39054314D01*
X52854453Y-39054314D02*
X52895576Y-39013190D01*
X52895576Y-39013190D02*
X52977824Y-38972067D01*
X52977824Y-38972067D02*
X53142319Y-38930943D01*
X53142319Y-38930943D02*
X53347938Y-38930943D01*
X53347938Y-38930943D02*
X53512433Y-38972067D01*
X53512433Y-38972067D02*
X53594681Y-39013190D01*
X53594681Y-39013190D02*
X53635805Y-39054314D01*
X53635805Y-39054314D02*
X53676929Y-39136562D01*
X53594681Y-39753419D02*
X53635805Y-39794543D01*
X53635805Y-39794543D02*
X53676929Y-39876790D01*
X53676929Y-39876790D02*
X53676929Y-40082409D01*
X53676929Y-40082409D02*
X53635805Y-40164657D01*
X53635805Y-40164657D02*
X53594681Y-40205781D01*
X53594681Y-40205781D02*
X53512433Y-40246904D01*
X53512433Y-40246904D02*
X53430186Y-40246904D01*
X53430186Y-40246904D02*
X53306814Y-40205781D01*
X53306814Y-40205781D02*
X52813329Y-39712295D01*
X52813329Y-39712295D02*
X52813329Y-40246904D01*
X53676929Y-40534771D02*
X53676929Y-41069380D01*
X53676929Y-41069380D02*
X53347938Y-40781514D01*
X53347938Y-40781514D02*
X53347938Y-40904885D01*
X53347938Y-40904885D02*
X53306814Y-40987133D01*
X53306814Y-40987133D02*
X53265691Y-41028257D01*
X53265691Y-41028257D02*
X53183443Y-41069380D01*
X53183443Y-41069380D02*
X52977824Y-41069380D01*
X52977824Y-41069380D02*
X52895576Y-41028257D01*
X52895576Y-41028257D02*
X52854453Y-40987133D01*
X52854453Y-40987133D02*
X52813329Y-40904885D01*
X52813329Y-40904885D02*
X52813329Y-40658142D01*
X52813329Y-40658142D02*
X52854453Y-40575895D01*
X52854453Y-40575895D02*
X52895576Y-40534771D01*
X51505180Y-31364161D02*
X51464057Y-31323037D01*
X51464057Y-31323037D02*
X51422933Y-31199666D01*
X51422933Y-31199666D02*
X51422933Y-31117418D01*
X51422933Y-31117418D02*
X51464057Y-30994047D01*
X51464057Y-30994047D02*
X51546304Y-30911799D01*
X51546304Y-30911799D02*
X51628552Y-30870676D01*
X51628552Y-30870676D02*
X51793047Y-30829552D01*
X51793047Y-30829552D02*
X51916418Y-30829552D01*
X51916418Y-30829552D02*
X52080914Y-30870676D01*
X52080914Y-30870676D02*
X52163161Y-30911799D01*
X52163161Y-30911799D02*
X52245409Y-30994047D01*
X52245409Y-30994047D02*
X52286533Y-31117418D01*
X52286533Y-31117418D02*
X52286533Y-31199666D01*
X52286533Y-31199666D02*
X52245409Y-31323037D01*
X52245409Y-31323037D02*
X52204285Y-31364161D01*
X51422933Y-32104390D02*
X51875295Y-32104390D01*
X51875295Y-32104390D02*
X51957542Y-32063266D01*
X51957542Y-32063266D02*
X51998666Y-31981018D01*
X51998666Y-31981018D02*
X51998666Y-31816523D01*
X51998666Y-31816523D02*
X51957542Y-31734276D01*
X51464057Y-32104390D02*
X51422933Y-32022142D01*
X51422933Y-32022142D02*
X51422933Y-31816523D01*
X51422933Y-31816523D02*
X51464057Y-31734276D01*
X51464057Y-31734276D02*
X51546304Y-31693152D01*
X51546304Y-31693152D02*
X51628552Y-31693152D01*
X51628552Y-31693152D02*
X51710799Y-31734276D01*
X51710799Y-31734276D02*
X51751923Y-31816523D01*
X51751923Y-31816523D02*
X51751923Y-32022142D01*
X51751923Y-32022142D02*
X51793047Y-32104390D01*
X51422933Y-32638999D02*
X51464057Y-32556751D01*
X51464057Y-32556751D02*
X51546304Y-32515628D01*
X51546304Y-32515628D02*
X52286533Y-32515628D01*
X51464057Y-33296980D02*
X51422933Y-33214732D01*
X51422933Y-33214732D02*
X51422933Y-33050237D01*
X51422933Y-33050237D02*
X51464057Y-32967990D01*
X51464057Y-32967990D02*
X51546304Y-32926866D01*
X51546304Y-32926866D02*
X51875295Y-32926866D01*
X51875295Y-32926866D02*
X51957542Y-32967990D01*
X51957542Y-32967990D02*
X51998666Y-33050237D01*
X51998666Y-33050237D02*
X51998666Y-33214732D01*
X51998666Y-33214732D02*
X51957542Y-33296980D01*
X51957542Y-33296980D02*
X51875295Y-33338104D01*
X51875295Y-33338104D02*
X51793047Y-33338104D01*
X51793047Y-33338104D02*
X51710799Y-32926866D01*
X51422933Y-33708219D02*
X52286533Y-33708219D01*
X51957542Y-33708219D02*
X51998666Y-33790466D01*
X51998666Y-33790466D02*
X51998666Y-33954961D01*
X51998666Y-33954961D02*
X51957542Y-34037209D01*
X51957542Y-34037209D02*
X51916418Y-34078333D01*
X51916418Y-34078333D02*
X51834171Y-34119457D01*
X51834171Y-34119457D02*
X51587428Y-34119457D01*
X51587428Y-34119457D02*
X51505180Y-34078333D01*
X51505180Y-34078333D02*
X51464057Y-34037209D01*
X51464057Y-34037209D02*
X51422933Y-33954961D01*
X51422933Y-33954961D02*
X51422933Y-33790466D01*
X51422933Y-33790466D02*
X51464057Y-33708219D01*
X51875295Y-35147552D02*
X51875295Y-35435418D01*
X51422933Y-35558790D02*
X51422933Y-35147552D01*
X51422933Y-35147552D02*
X52286533Y-35147552D01*
X52286533Y-35147552D02*
X52286533Y-35558790D01*
X51422933Y-35928904D02*
X52286533Y-35928904D01*
X51422933Y-36299018D02*
X51875295Y-36299018D01*
X51875295Y-36299018D02*
X51957542Y-36257894D01*
X51957542Y-36257894D02*
X51998666Y-36175646D01*
X51998666Y-36175646D02*
X51998666Y-36052275D01*
X51998666Y-36052275D02*
X51957542Y-35970027D01*
X51957542Y-35970027D02*
X51916418Y-35928904D01*
X51422933Y-36833627D02*
X51464057Y-36751379D01*
X51464057Y-36751379D02*
X51546304Y-36710256D01*
X51546304Y-36710256D02*
X52286533Y-36710256D01*
X51464057Y-37491608D02*
X51422933Y-37409360D01*
X51422933Y-37409360D02*
X51422933Y-37244865D01*
X51422933Y-37244865D02*
X51464057Y-37162618D01*
X51464057Y-37162618D02*
X51546304Y-37121494D01*
X51546304Y-37121494D02*
X51875295Y-37121494D01*
X51875295Y-37121494D02*
X51957542Y-37162618D01*
X51957542Y-37162618D02*
X51998666Y-37244865D01*
X51998666Y-37244865D02*
X51998666Y-37409360D01*
X51998666Y-37409360D02*
X51957542Y-37491608D01*
X51957542Y-37491608D02*
X51875295Y-37532732D01*
X51875295Y-37532732D02*
X51793047Y-37532732D01*
X51793047Y-37532732D02*
X51710799Y-37121494D01*
X51422933Y-37902847D02*
X51998666Y-37902847D01*
X51834171Y-37902847D02*
X51916418Y-37943970D01*
X51916418Y-37943970D02*
X51957542Y-37985094D01*
X51957542Y-37985094D02*
X51998666Y-38067342D01*
X51998666Y-38067342D02*
X51998666Y-38149589D01*
X51464057Y-38396333D02*
X51422933Y-38478580D01*
X51422933Y-38478580D02*
X51422933Y-38643076D01*
X51422933Y-38643076D02*
X51464057Y-38725323D01*
X51464057Y-38725323D02*
X51546304Y-38766447D01*
X51546304Y-38766447D02*
X51587428Y-38766447D01*
X51587428Y-38766447D02*
X51669676Y-38725323D01*
X51669676Y-38725323D02*
X51710799Y-38643076D01*
X51710799Y-38643076D02*
X51710799Y-38519704D01*
X51710799Y-38519704D02*
X51751923Y-38437457D01*
X51751923Y-38437457D02*
X51834171Y-38396333D01*
X51834171Y-38396333D02*
X51875295Y-38396333D01*
X51875295Y-38396333D02*
X51957542Y-38437457D01*
X51957542Y-38437457D02*
X51998666Y-38519704D01*
X51998666Y-38519704D02*
X51998666Y-38643076D01*
X51998666Y-38643076D02*
X51957542Y-38725323D01*
D12*
X76601908Y-28239357D02*
X76601908Y-29001357D01*
X76601908Y-29001357D02*
X75458908Y-28511500D01*
X76112051Y-29600071D02*
X76166479Y-29491214D01*
X76166479Y-29491214D02*
X76220908Y-29436785D01*
X76220908Y-29436785D02*
X76329765Y-29382357D01*
X76329765Y-29382357D02*
X76384194Y-29382357D01*
X76384194Y-29382357D02*
X76493051Y-29436785D01*
X76493051Y-29436785D02*
X76547479Y-29491214D01*
X76547479Y-29491214D02*
X76601908Y-29600071D01*
X76601908Y-29600071D02*
X76601908Y-29817785D01*
X76601908Y-29817785D02*
X76547479Y-29926643D01*
X76547479Y-29926643D02*
X76493051Y-29981071D01*
X76493051Y-29981071D02*
X76384194Y-30035500D01*
X76384194Y-30035500D02*
X76329765Y-30035500D01*
X76329765Y-30035500D02*
X76220908Y-29981071D01*
X76220908Y-29981071D02*
X76166479Y-29926643D01*
X76166479Y-29926643D02*
X76112051Y-29817785D01*
X76112051Y-29817785D02*
X76112051Y-29600071D01*
X76112051Y-29600071D02*
X76057622Y-29491214D01*
X76057622Y-29491214D02*
X76003194Y-29436785D01*
X76003194Y-29436785D02*
X75894337Y-29382357D01*
X75894337Y-29382357D02*
X75676622Y-29382357D01*
X75676622Y-29382357D02*
X75567765Y-29436785D01*
X75567765Y-29436785D02*
X75513337Y-29491214D01*
X75513337Y-29491214D02*
X75458908Y-29600071D01*
X75458908Y-29600071D02*
X75458908Y-29817785D01*
X75458908Y-29817785D02*
X75513337Y-29926643D01*
X75513337Y-29926643D02*
X75567765Y-29981071D01*
X75567765Y-29981071D02*
X75676622Y-30035500D01*
X75676622Y-30035500D02*
X75894337Y-30035500D01*
X75894337Y-30035500D02*
X76003194Y-29981071D01*
X76003194Y-29981071D02*
X76057622Y-29926643D01*
X76057622Y-29926643D02*
X76112051Y-29817785D01*
X76493051Y-30470928D02*
X76547479Y-30525356D01*
X76547479Y-30525356D02*
X76601908Y-30634214D01*
X76601908Y-30634214D02*
X76601908Y-30906356D01*
X76601908Y-30906356D02*
X76547479Y-31015214D01*
X76547479Y-31015214D02*
X76493051Y-31069642D01*
X76493051Y-31069642D02*
X76384194Y-31124071D01*
X76384194Y-31124071D02*
X76275337Y-31124071D01*
X76275337Y-31124071D02*
X76112051Y-31069642D01*
X76112051Y-31069642D02*
X75458908Y-30416499D01*
X75458908Y-30416499D02*
X75458908Y-31124071D01*
X76220908Y-31613927D02*
X75458908Y-31613927D01*
X76112051Y-31613927D02*
X76166479Y-31668356D01*
X76166479Y-31668356D02*
X76220908Y-31777213D01*
X76220908Y-31777213D02*
X76220908Y-31940499D01*
X76220908Y-31940499D02*
X76166479Y-32049356D01*
X76166479Y-32049356D02*
X76057622Y-32103785D01*
X76057622Y-32103785D02*
X75458908Y-32103785D01*
X75458908Y-32648070D02*
X76220908Y-32648070D01*
X76112051Y-32648070D02*
X76166479Y-32702499D01*
X76166479Y-32702499D02*
X76220908Y-32811356D01*
X76220908Y-32811356D02*
X76220908Y-32974642D01*
X76220908Y-32974642D02*
X76166479Y-33083499D01*
X76166479Y-33083499D02*
X76057622Y-33137928D01*
X76057622Y-33137928D02*
X75458908Y-33137928D01*
X76057622Y-33137928D02*
X76166479Y-33192356D01*
X76166479Y-33192356D02*
X76220908Y-33301213D01*
X76220908Y-33301213D02*
X76220908Y-33464499D01*
X76220908Y-33464499D02*
X76166479Y-33573356D01*
X76166479Y-33573356D02*
X76057622Y-33627785D01*
X76057622Y-33627785D02*
X75458908Y-33627785D01*
X73618678Y-30334857D02*
X74162964Y-29953857D01*
X73618678Y-29681714D02*
X74761678Y-29681714D01*
X74761678Y-29681714D02*
X74761678Y-30117143D01*
X74761678Y-30117143D02*
X74707249Y-30226000D01*
X74707249Y-30226000D02*
X74652821Y-30280429D01*
X74652821Y-30280429D02*
X74543964Y-30334857D01*
X74543964Y-30334857D02*
X74380678Y-30334857D01*
X74380678Y-30334857D02*
X74271821Y-30280429D01*
X74271821Y-30280429D02*
X74217392Y-30226000D01*
X74217392Y-30226000D02*
X74162964Y-30117143D01*
X74162964Y-30117143D02*
X74162964Y-29681714D01*
X73673107Y-31260143D02*
X73618678Y-31151286D01*
X73618678Y-31151286D02*
X73618678Y-30933572D01*
X73618678Y-30933572D02*
X73673107Y-30824714D01*
X73673107Y-30824714D02*
X73781964Y-30770286D01*
X73781964Y-30770286D02*
X74217392Y-30770286D01*
X74217392Y-30770286D02*
X74326249Y-30824714D01*
X74326249Y-30824714D02*
X74380678Y-30933572D01*
X74380678Y-30933572D02*
X74380678Y-31151286D01*
X74380678Y-31151286D02*
X74326249Y-31260143D01*
X74326249Y-31260143D02*
X74217392Y-31314572D01*
X74217392Y-31314572D02*
X74108535Y-31314572D01*
X74108535Y-31314572D02*
X73999678Y-30770286D01*
X73618678Y-32294286D02*
X74761678Y-32294286D01*
X73673107Y-32294286D02*
X73618678Y-32185428D01*
X73618678Y-32185428D02*
X73618678Y-31967714D01*
X73618678Y-31967714D02*
X73673107Y-31858857D01*
X73673107Y-31858857D02*
X73727535Y-31804428D01*
X73727535Y-31804428D02*
X73836392Y-31750000D01*
X73836392Y-31750000D02*
X74162964Y-31750000D01*
X74162964Y-31750000D02*
X74271821Y-31804428D01*
X74271821Y-31804428D02*
X74326249Y-31858857D01*
X74326249Y-31858857D02*
X74380678Y-31967714D01*
X74380678Y-31967714D02*
X74380678Y-32185428D01*
X74380678Y-32185428D02*
X74326249Y-32294286D01*
X71778448Y-28892499D02*
X72921448Y-28892499D01*
X72921448Y-28892499D02*
X72921448Y-29164642D01*
X72921448Y-29164642D02*
X72867019Y-29327928D01*
X72867019Y-29327928D02*
X72758162Y-29436785D01*
X72758162Y-29436785D02*
X72649305Y-29491214D01*
X72649305Y-29491214D02*
X72431591Y-29545642D01*
X72431591Y-29545642D02*
X72268305Y-29545642D01*
X72268305Y-29545642D02*
X72050591Y-29491214D01*
X72050591Y-29491214D02*
X71941734Y-29436785D01*
X71941734Y-29436785D02*
X71832877Y-29327928D01*
X71832877Y-29327928D02*
X71778448Y-29164642D01*
X71778448Y-29164642D02*
X71778448Y-28892499D01*
X71778448Y-30035499D02*
X72540448Y-30035499D01*
X72921448Y-30035499D02*
X72867019Y-29981071D01*
X72867019Y-29981071D02*
X72812591Y-30035499D01*
X72812591Y-30035499D02*
X72867019Y-30089928D01*
X72867019Y-30089928D02*
X72921448Y-30035499D01*
X72921448Y-30035499D02*
X72812591Y-30035499D01*
X71778448Y-30743071D02*
X71832877Y-30634214D01*
X71832877Y-30634214D02*
X71887305Y-30579785D01*
X71887305Y-30579785D02*
X71996162Y-30525357D01*
X71996162Y-30525357D02*
X72322734Y-30525357D01*
X72322734Y-30525357D02*
X72431591Y-30579785D01*
X72431591Y-30579785D02*
X72486019Y-30634214D01*
X72486019Y-30634214D02*
X72540448Y-30743071D01*
X72540448Y-30743071D02*
X72540448Y-30906357D01*
X72540448Y-30906357D02*
X72486019Y-31015214D01*
X72486019Y-31015214D02*
X72431591Y-31069643D01*
X72431591Y-31069643D02*
X72322734Y-31124071D01*
X72322734Y-31124071D02*
X71996162Y-31124071D01*
X71996162Y-31124071D02*
X71887305Y-31069643D01*
X71887305Y-31069643D02*
X71832877Y-31015214D01*
X71832877Y-31015214D02*
X71778448Y-30906357D01*
X71778448Y-30906357D02*
X71778448Y-30743071D01*
X71778448Y-32103786D02*
X72921448Y-32103786D01*
X71832877Y-32103786D02*
X71778448Y-31994928D01*
X71778448Y-31994928D02*
X71778448Y-31777214D01*
X71778448Y-31777214D02*
X71832877Y-31668357D01*
X71832877Y-31668357D02*
X71887305Y-31613928D01*
X71887305Y-31613928D02*
X71996162Y-31559500D01*
X71996162Y-31559500D02*
X72322734Y-31559500D01*
X72322734Y-31559500D02*
X72431591Y-31613928D01*
X72431591Y-31613928D02*
X72486019Y-31668357D01*
X72486019Y-31668357D02*
X72540448Y-31777214D01*
X72540448Y-31777214D02*
X72540448Y-31994928D01*
X72540448Y-31994928D02*
X72486019Y-32103786D01*
X71832877Y-33083500D02*
X71778448Y-32974643D01*
X71778448Y-32974643D02*
X71778448Y-32756929D01*
X71778448Y-32756929D02*
X71832877Y-32648071D01*
X71832877Y-32648071D02*
X71941734Y-32593643D01*
X71941734Y-32593643D02*
X72377162Y-32593643D01*
X72377162Y-32593643D02*
X72486019Y-32648071D01*
X72486019Y-32648071D02*
X72540448Y-32756929D01*
X72540448Y-32756929D02*
X72540448Y-32974643D01*
X72540448Y-32974643D02*
X72486019Y-33083500D01*
X72486019Y-33083500D02*
X72377162Y-33137929D01*
X72377162Y-33137929D02*
X72268305Y-33137929D01*
X72268305Y-33137929D02*
X72159448Y-32593643D01*
X76347908Y-37020500D02*
X76347908Y-36476214D01*
X76347908Y-36476214D02*
X75803622Y-36421786D01*
X75803622Y-36421786D02*
X75858051Y-36476214D01*
X75858051Y-36476214D02*
X75912479Y-36585072D01*
X75912479Y-36585072D02*
X75912479Y-36857214D01*
X75912479Y-36857214D02*
X75858051Y-36966072D01*
X75858051Y-36966072D02*
X75803622Y-37020500D01*
X75803622Y-37020500D02*
X75694765Y-37074929D01*
X75694765Y-37074929D02*
X75422622Y-37074929D01*
X75422622Y-37074929D02*
X75313765Y-37020500D01*
X75313765Y-37020500D02*
X75259337Y-36966072D01*
X75259337Y-36966072D02*
X75204908Y-36857214D01*
X75204908Y-36857214D02*
X75204908Y-36585072D01*
X75204908Y-36585072D02*
X75259337Y-36476214D01*
X75259337Y-36476214D02*
X75313765Y-36421786D01*
X76239051Y-37510357D02*
X76293479Y-37564785D01*
X76293479Y-37564785D02*
X76347908Y-37673643D01*
X76347908Y-37673643D02*
X76347908Y-37945785D01*
X76347908Y-37945785D02*
X76293479Y-38054643D01*
X76293479Y-38054643D02*
X76239051Y-38109071D01*
X76239051Y-38109071D02*
X76130194Y-38163500D01*
X76130194Y-38163500D02*
X76021337Y-38163500D01*
X76021337Y-38163500D02*
X75858051Y-38109071D01*
X75858051Y-38109071D02*
X75204908Y-37455928D01*
X75204908Y-37455928D02*
X75204908Y-38163500D01*
X76347908Y-38871071D02*
X76347908Y-38979928D01*
X76347908Y-38979928D02*
X76293479Y-39088785D01*
X76293479Y-39088785D02*
X76239051Y-39143214D01*
X76239051Y-39143214D02*
X76130194Y-39197642D01*
X76130194Y-39197642D02*
X75912479Y-39252071D01*
X75912479Y-39252071D02*
X75640337Y-39252071D01*
X75640337Y-39252071D02*
X75422622Y-39197642D01*
X75422622Y-39197642D02*
X75313765Y-39143214D01*
X75313765Y-39143214D02*
X75259337Y-39088785D01*
X75259337Y-39088785D02*
X75204908Y-38979928D01*
X75204908Y-38979928D02*
X75204908Y-38871071D01*
X75204908Y-38871071D02*
X75259337Y-38762214D01*
X75259337Y-38762214D02*
X75313765Y-38707785D01*
X75313765Y-38707785D02*
X75422622Y-38653356D01*
X75422622Y-38653356D02*
X75640337Y-38598928D01*
X75640337Y-38598928D02*
X75912479Y-38598928D01*
X75912479Y-38598928D02*
X76130194Y-38653356D01*
X76130194Y-38653356D02*
X76239051Y-38707785D01*
X76239051Y-38707785D02*
X76293479Y-38762214D01*
X76293479Y-38762214D02*
X76347908Y-38871071D01*
X75966908Y-39741927D02*
X75204908Y-39741927D01*
X75858051Y-39741927D02*
X75912479Y-39796356D01*
X75912479Y-39796356D02*
X75966908Y-39905213D01*
X75966908Y-39905213D02*
X75966908Y-40068499D01*
X75966908Y-40068499D02*
X75912479Y-40177356D01*
X75912479Y-40177356D02*
X75803622Y-40231785D01*
X75803622Y-40231785D02*
X75204908Y-40231785D01*
X75204908Y-40776070D02*
X75966908Y-40776070D01*
X75858051Y-40776070D02*
X75912479Y-40830499D01*
X75912479Y-40830499D02*
X75966908Y-40939356D01*
X75966908Y-40939356D02*
X75966908Y-41102642D01*
X75966908Y-41102642D02*
X75912479Y-41211499D01*
X75912479Y-41211499D02*
X75803622Y-41265928D01*
X75803622Y-41265928D02*
X75204908Y-41265928D01*
X75803622Y-41265928D02*
X75912479Y-41320356D01*
X75912479Y-41320356D02*
X75966908Y-41429213D01*
X75966908Y-41429213D02*
X75966908Y-41592499D01*
X75966908Y-41592499D02*
X75912479Y-41701356D01*
X75912479Y-41701356D02*
X75803622Y-41755785D01*
X75803622Y-41755785D02*
X75204908Y-41755785D01*
X74453249Y-37564786D02*
X74507678Y-37455929D01*
X74507678Y-37455929D02*
X74507678Y-37292643D01*
X74507678Y-37292643D02*
X74453249Y-37129357D01*
X74453249Y-37129357D02*
X74344392Y-37020500D01*
X74344392Y-37020500D02*
X74235535Y-36966071D01*
X74235535Y-36966071D02*
X74017821Y-36911643D01*
X74017821Y-36911643D02*
X73854535Y-36911643D01*
X73854535Y-36911643D02*
X73636821Y-36966071D01*
X73636821Y-36966071D02*
X73527964Y-37020500D01*
X73527964Y-37020500D02*
X73419107Y-37129357D01*
X73419107Y-37129357D02*
X73364678Y-37292643D01*
X73364678Y-37292643D02*
X73364678Y-37401500D01*
X73364678Y-37401500D02*
X73419107Y-37564786D01*
X73419107Y-37564786D02*
X73473535Y-37619214D01*
X73473535Y-37619214D02*
X73854535Y-37619214D01*
X73854535Y-37619214D02*
X73854535Y-37401500D01*
X73364678Y-38109071D02*
X74126678Y-38109071D01*
X73908964Y-38109071D02*
X74017821Y-38163500D01*
X74017821Y-38163500D02*
X74072249Y-38217929D01*
X74072249Y-38217929D02*
X74126678Y-38326786D01*
X74126678Y-38326786D02*
X74126678Y-38435643D01*
X73419107Y-39252071D02*
X73364678Y-39143214D01*
X73364678Y-39143214D02*
X73364678Y-38925500D01*
X73364678Y-38925500D02*
X73419107Y-38816642D01*
X73419107Y-38816642D02*
X73527964Y-38762214D01*
X73527964Y-38762214D02*
X73963392Y-38762214D01*
X73963392Y-38762214D02*
X74072249Y-38816642D01*
X74072249Y-38816642D02*
X74126678Y-38925500D01*
X74126678Y-38925500D02*
X74126678Y-39143214D01*
X74126678Y-39143214D02*
X74072249Y-39252071D01*
X74072249Y-39252071D02*
X73963392Y-39306500D01*
X73963392Y-39306500D02*
X73854535Y-39306500D01*
X73854535Y-39306500D02*
X73745678Y-38762214D01*
X73419107Y-40231785D02*
X73364678Y-40122928D01*
X73364678Y-40122928D02*
X73364678Y-39905214D01*
X73364678Y-39905214D02*
X73419107Y-39796356D01*
X73419107Y-39796356D02*
X73527964Y-39741928D01*
X73527964Y-39741928D02*
X73963392Y-39741928D01*
X73963392Y-39741928D02*
X74072249Y-39796356D01*
X74072249Y-39796356D02*
X74126678Y-39905214D01*
X74126678Y-39905214D02*
X74126678Y-40122928D01*
X74126678Y-40122928D02*
X74072249Y-40231785D01*
X74072249Y-40231785D02*
X73963392Y-40286214D01*
X73963392Y-40286214D02*
X73854535Y-40286214D01*
X73854535Y-40286214D02*
X73745678Y-39741928D01*
X74126678Y-40776070D02*
X73364678Y-40776070D01*
X74017821Y-40776070D02*
X74072249Y-40830499D01*
X74072249Y-40830499D02*
X74126678Y-40939356D01*
X74126678Y-40939356D02*
X74126678Y-41102642D01*
X74126678Y-41102642D02*
X74072249Y-41211499D01*
X74072249Y-41211499D02*
X73963392Y-41265928D01*
X73963392Y-41265928D02*
X73364678Y-41265928D01*
X71524448Y-37020499D02*
X72667448Y-37020499D01*
X72667448Y-37020499D02*
X72667448Y-37292642D01*
X72667448Y-37292642D02*
X72613019Y-37455928D01*
X72613019Y-37455928D02*
X72504162Y-37564785D01*
X72504162Y-37564785D02*
X72395305Y-37619214D01*
X72395305Y-37619214D02*
X72177591Y-37673642D01*
X72177591Y-37673642D02*
X72014305Y-37673642D01*
X72014305Y-37673642D02*
X71796591Y-37619214D01*
X71796591Y-37619214D02*
X71687734Y-37564785D01*
X71687734Y-37564785D02*
X71578877Y-37455928D01*
X71578877Y-37455928D02*
X71524448Y-37292642D01*
X71524448Y-37292642D02*
X71524448Y-37020499D01*
X71524448Y-38163499D02*
X72286448Y-38163499D01*
X72667448Y-38163499D02*
X72613019Y-38109071D01*
X72613019Y-38109071D02*
X72558591Y-38163499D01*
X72558591Y-38163499D02*
X72613019Y-38217928D01*
X72613019Y-38217928D02*
X72667448Y-38163499D01*
X72667448Y-38163499D02*
X72558591Y-38163499D01*
X71524448Y-38871071D02*
X71578877Y-38762214D01*
X71578877Y-38762214D02*
X71633305Y-38707785D01*
X71633305Y-38707785D02*
X71742162Y-38653357D01*
X71742162Y-38653357D02*
X72068734Y-38653357D01*
X72068734Y-38653357D02*
X72177591Y-38707785D01*
X72177591Y-38707785D02*
X72232019Y-38762214D01*
X72232019Y-38762214D02*
X72286448Y-38871071D01*
X72286448Y-38871071D02*
X72286448Y-39034357D01*
X72286448Y-39034357D02*
X72232019Y-39143214D01*
X72232019Y-39143214D02*
X72177591Y-39197643D01*
X72177591Y-39197643D02*
X72068734Y-39252071D01*
X72068734Y-39252071D02*
X71742162Y-39252071D01*
X71742162Y-39252071D02*
X71633305Y-39197643D01*
X71633305Y-39197643D02*
X71578877Y-39143214D01*
X71578877Y-39143214D02*
X71524448Y-39034357D01*
X71524448Y-39034357D02*
X71524448Y-38871071D01*
X71524448Y-40231786D02*
X72667448Y-40231786D01*
X71578877Y-40231786D02*
X71524448Y-40122928D01*
X71524448Y-40122928D02*
X71524448Y-39905214D01*
X71524448Y-39905214D02*
X71578877Y-39796357D01*
X71578877Y-39796357D02*
X71633305Y-39741928D01*
X71633305Y-39741928D02*
X71742162Y-39687500D01*
X71742162Y-39687500D02*
X72068734Y-39687500D01*
X72068734Y-39687500D02*
X72177591Y-39741928D01*
X72177591Y-39741928D02*
X72232019Y-39796357D01*
X72232019Y-39796357D02*
X72286448Y-39905214D01*
X72286448Y-39905214D02*
X72286448Y-40122928D01*
X72286448Y-40122928D02*
X72232019Y-40231786D01*
X71578877Y-41211500D02*
X71524448Y-41102643D01*
X71524448Y-41102643D02*
X71524448Y-40884929D01*
X71524448Y-40884929D02*
X71578877Y-40776071D01*
X71578877Y-40776071D02*
X71687734Y-40721643D01*
X71687734Y-40721643D02*
X72123162Y-40721643D01*
X72123162Y-40721643D02*
X72232019Y-40776071D01*
X72232019Y-40776071D02*
X72286448Y-40884929D01*
X72286448Y-40884929D02*
X72286448Y-41102643D01*
X72286448Y-41102643D02*
X72232019Y-41211500D01*
X72232019Y-41211500D02*
X72123162Y-41265929D01*
X72123162Y-41265929D02*
X72014305Y-41265929D01*
X72014305Y-41265929D02*
X71905448Y-40721643D01*
D13*
X62550318Y-31671381D02*
X61280318Y-31671381D01*
X61280318Y-31671381D02*
X61280318Y-31369000D01*
X61280318Y-31369000D02*
X61340794Y-31187571D01*
X61340794Y-31187571D02*
X61461746Y-31066619D01*
X61461746Y-31066619D02*
X61582699Y-31006142D01*
X61582699Y-31006142D02*
X61824603Y-30945666D01*
X61824603Y-30945666D02*
X62006032Y-30945666D01*
X62006032Y-30945666D02*
X62247937Y-31006142D01*
X62247937Y-31006142D02*
X62368889Y-31066619D01*
X62368889Y-31066619D02*
X62489842Y-31187571D01*
X62489842Y-31187571D02*
X62550318Y-31369000D01*
X62550318Y-31369000D02*
X62550318Y-31671381D01*
X62550318Y-29736142D02*
X62550318Y-30461857D01*
X62550318Y-30099000D02*
X61280318Y-30099000D01*
X61280318Y-30099000D02*
X61461746Y-30219952D01*
X61461746Y-30219952D02*
X61582699Y-30340904D01*
X61582699Y-30340904D02*
X61643175Y-30461857D01*
X62550318Y-39290685D02*
X61280318Y-39290685D01*
X61280318Y-39290685D02*
X61280318Y-38988304D01*
X61280318Y-38988304D02*
X61340794Y-38806875D01*
X61340794Y-38806875D02*
X61461746Y-38685923D01*
X61461746Y-38685923D02*
X61582699Y-38625446D01*
X61582699Y-38625446D02*
X61824603Y-38564970D01*
X61824603Y-38564970D02*
X62006032Y-38564970D01*
X62006032Y-38564970D02*
X62247937Y-38625446D01*
X62247937Y-38625446D02*
X62368889Y-38685923D01*
X62368889Y-38685923D02*
X62489842Y-38806875D01*
X62489842Y-38806875D02*
X62550318Y-38988304D01*
X62550318Y-38988304D02*
X62550318Y-39290685D01*
X61401270Y-38081161D02*
X61340794Y-38020685D01*
X61340794Y-38020685D02*
X61280318Y-37899732D01*
X61280318Y-37899732D02*
X61280318Y-37597351D01*
X61280318Y-37597351D02*
X61340794Y-37476399D01*
X61340794Y-37476399D02*
X61401270Y-37415923D01*
X61401270Y-37415923D02*
X61522222Y-37355446D01*
X61522222Y-37355446D02*
X61643175Y-37355446D01*
X61643175Y-37355446D02*
X61824603Y-37415923D01*
X61824603Y-37415923D02*
X62550318Y-38141637D01*
X62550318Y-38141637D02*
X62550318Y-37355446D01*
D14*
%TO.C,D1*%
X64492225Y-34541724D02*
X65404393Y-33629557D01*
X63502276Y-33551775D02*
X64492225Y-34541724D01*
X64414443Y-32639607D02*
X63502276Y-33551775D01*
X65404180Y-33629426D02*
G75*
G03*
X64414443Y-32639607I1582544J2572150D01*
G01*
D10*
%TO.C,V2*%
X58273007Y-47519276D02*
G75*
G03*
X58273007Y-47519276I-4018283J0D01*
G01*
%TO.C,V1*%
X83673007Y-22119276D02*
G75*
G03*
X83673007Y-22119276I-4018283J0D01*
G01*
D15*
%TO.C,D2*%
X66985640Y-42076580D02*
X66985640Y-42076580D01*
X66985640Y-41976580D02*
X66985640Y-41976580D01*
D16*
X66985640Y-41476580D02*
X66985640Y-41476580D01*
X66985640Y-35876580D02*
X66985640Y-35876580D01*
D15*
X66985640Y-41976580D02*
G75*
G03*
X66985640Y-42076580I0J-50000D01*
G01*
X66985640Y-42076580D02*
G75*
G03*
X66985640Y-41976580I0J50000D01*
G01*
D16*
X66985640Y-35876580D02*
G75*
G03*
X66985640Y-41476580I0J-2800000D01*
G01*
X66985640Y-41476580D02*
G75*
G03*
X66985640Y-35876580I0J2800000D01*
G01*
D10*
%TO.C,V3*%
X58271987Y-22119016D02*
G75*
G03*
X58271987Y-22119016I-4018283J0D01*
G01*
%TO.C,V4*%
X83671982Y-47519016D02*
G75*
G03*
X83671982Y-47519016I-4018283J0D01*
G01*
%TD*%
M02*
