%TF.GenerationSoftware,KiCad,Pcbnew,7.0.7*%
%TF.CreationDate,2023-10-31T17:39:05-05:00*%
%TF.ProjectId,Laser_Diode_Breakout,4c617365-725f-4446-996f-64655f427265,rev?*%
%TF.SameCoordinates,Original*%
%TF.FileFunction,Copper,L1,Top*%
%TF.FilePolarity,Positive*%
%FSLAX46Y46*%
G04 Gerber Fmt 4.6, Leading zero omitted, Abs format (unit mm)*
G04 Created by KiCad (PCBNEW 7.0.7) date 2023-10-31 17:39:05*
%MOMM*%
%LPD*%
G01*
G04 APERTURE LIST*
%TA.AperFunction,ComponentPad*%
%ADD10O,1.200000X1.600000*%
%TD*%
%TA.AperFunction,ComponentPad*%
%ADD11O,1.200000X1.200000*%
%TD*%
%TA.AperFunction,ComponentPad*%
%ADD12C,1.192000*%
%TD*%
%TA.AperFunction,ComponentPad*%
%ADD13C,1.524000*%
%TD*%
%TA.AperFunction,ViaPad*%
%ADD14C,0.800000*%
%TD*%
G04 APERTURE END LIST*
D10*
%TO.P,D1,1,K*%
%TO.N,Net-(D1-K)*%
X66986724Y-32327276D03*
D11*
%TO.P,D1,2,A*%
%TO.N,Net-(D1-A)*%
X68256724Y-31057276D03*
%TO.P,D1,3*%
%TO.N,N/C*%
X66986724Y-29787276D03*
%TD*%
D12*
%TO.P,D2,1,K*%
%TO.N,Net-(D2-K)*%
X66985640Y-39676580D03*
%TO.P,D2,2,A*%
%TO.N,Net-(D2-A)*%
X67985640Y-38676580D03*
%TO.P,D2,3*%
%TO.N,N/C*%
X66985640Y-37676580D03*
%TD*%
D13*
%TO.P,Conn1,1*%
%TO.N,+12V*%
X70358000Y-22352000D03*
%TO.P,Conn1,2*%
%TO.N,Red_LED*%
X67818000Y-22352000D03*
%TO.P,Conn1,3*%
%TO.N,Green_LED*%
X65278000Y-22352000D03*
%TO.P,Conn1,4*%
%TO.N,GND*%
X62738000Y-22352000D03*
X62738000Y-22352000D03*
%TD*%
D14*
%TO.N,GND*%
X59690000Y-26924000D03*
X64192724Y-25977276D03*
%TD*%
%TA.AperFunction,Conductor*%
%TO.N,GND*%
G36*
X79921745Y-15779768D02*
G01*
X80132298Y-15788041D01*
X80136758Y-15788381D01*
X80390887Y-15817015D01*
X80615811Y-15843638D01*
X80620028Y-15844285D01*
X80868262Y-15891255D01*
X81093711Y-15936101D01*
X81097564Y-15937000D01*
X81340345Y-16002053D01*
X81563011Y-16064852D01*
X81566625Y-16065993D01*
X81723699Y-16120956D01*
X81803252Y-16148793D01*
X82021076Y-16229152D01*
X82024387Y-16230485D01*
X82253853Y-16330601D01*
X82465197Y-16428032D01*
X82468160Y-16429497D01*
X82689391Y-16546421D01*
X82892740Y-16660302D01*
X82895384Y-16661872D01*
X83107210Y-16794971D01*
X83107429Y-16795118D01*
X83301211Y-16924600D01*
X83303583Y-16926266D01*
X83504825Y-17074790D01*
X83689287Y-17220207D01*
X83879922Y-17384262D01*
X84052445Y-17543741D01*
X84230258Y-17721554D01*
X84389737Y-17894077D01*
X84553792Y-18084712D01*
X84699209Y-18269174D01*
X84847732Y-18470415D01*
X84849398Y-18472787D01*
X84979035Y-18666800D01*
X85112108Y-18878585D01*
X85113706Y-18881276D01*
X85227586Y-19084624D01*
X85344488Y-19305812D01*
X85345978Y-19308826D01*
X85443394Y-19520136D01*
X85543513Y-19749611D01*
X85544855Y-19752946D01*
X85625206Y-19970747D01*
X85708000Y-20207358D01*
X85709152Y-20211007D01*
X85771949Y-20433664D01*
X85836990Y-20676399D01*
X85837911Y-20680351D01*
X85882756Y-20905800D01*
X85929710Y-21153956D01*
X85930361Y-21158196D01*
X85957001Y-21383268D01*
X85985616Y-21637229D01*
X85985959Y-21641738D01*
X85994238Y-21852421D01*
X86004224Y-22119276D01*
X86004224Y-47519276D01*
X85994325Y-47783824D01*
X85985949Y-47996923D01*
X85985606Y-48001431D01*
X85957170Y-48253819D01*
X85930341Y-48480489D01*
X85929690Y-48484729D01*
X85882931Y-48731860D01*
X85837882Y-48958330D01*
X85836961Y-48962282D01*
X85772122Y-49204267D01*
X85709118Y-49427663D01*
X85707967Y-49431311D01*
X85625373Y-49667354D01*
X85544807Y-49885736D01*
X85543465Y-49889070D01*
X85443553Y-50118074D01*
X85345923Y-50329848D01*
X85344433Y-50332862D01*
X85227751Y-50553640D01*
X85113633Y-50757412D01*
X85112035Y-50760103D01*
X84979208Y-50971499D01*
X84849294Y-51165927D01*
X84847628Y-51168299D01*
X84699379Y-51369170D01*
X84553661Y-51554012D01*
X84389917Y-51744286D01*
X84230111Y-51917164D01*
X84052597Y-52094677D01*
X83879759Y-52254447D01*
X83689444Y-52418227D01*
X83504621Y-52563930D01*
X83303730Y-52712194D01*
X83301358Y-52713860D01*
X83106966Y-52843750D01*
X82895538Y-52976597D01*
X82892847Y-52978195D01*
X82689088Y-53092306D01*
X82468334Y-53208978D01*
X82465320Y-53210468D01*
X82253506Y-53308117D01*
X82024521Y-53408020D01*
X82021187Y-53409362D01*
X81802826Y-53489921D01*
X81566745Y-53572528D01*
X81563097Y-53573679D01*
X81339757Y-53636669D01*
X81097727Y-53701520D01*
X81093775Y-53702441D01*
X80867283Y-53747494D01*
X80620172Y-53794249D01*
X80615932Y-53794900D01*
X80389286Y-53821726D01*
X80136868Y-53850166D01*
X80132358Y-53850509D01*
X79917794Y-53858939D01*
X79712472Y-53866622D01*
X79654912Y-53868776D01*
X54254724Y-53868776D01*
X53987626Y-53858782D01*
X53777195Y-53850515D01*
X53772686Y-53850173D01*
X53518663Y-53821552D01*
X53293623Y-53794917D01*
X53289387Y-53794266D01*
X53041239Y-53747315D01*
X52815779Y-53702469D01*
X52811846Y-53701552D01*
X52569066Y-53636500D01*
X52346462Y-53573719D01*
X52342814Y-53572568D01*
X52106166Y-53489762D01*
X51888379Y-53409416D01*
X51885045Y-53408074D01*
X51655596Y-53307968D01*
X51444247Y-53210535D01*
X51441233Y-53209045D01*
X51441106Y-53208978D01*
X51306402Y-53137785D01*
X51220089Y-53092167D01*
X51016700Y-52978263D01*
X51014008Y-52976665D01*
X50802247Y-52843607D01*
X50608215Y-52713959D01*
X50605859Y-52712304D01*
X50461056Y-52605435D01*
X50404610Y-52563776D01*
X50220142Y-52418353D01*
X50029518Y-52254309D01*
X49856985Y-52094821D01*
X49679178Y-51917014D01*
X49519690Y-51744481D01*
X49355646Y-51553857D01*
X49210223Y-51369389D01*
X49174437Y-51320901D01*
X49061683Y-51168123D01*
X49060039Y-51165783D01*
X48930392Y-50971752D01*
X48797333Y-50759990D01*
X48795735Y-50757298D01*
X48689215Y-50567093D01*
X48681836Y-50553919D01*
X48564936Y-50332731D01*
X48563463Y-50329750D01*
X48466031Y-50118403D01*
X48465887Y-50118074D01*
X48365924Y-49888953D01*
X48364582Y-49885619D01*
X48348313Y-49841520D01*
X48284247Y-49667862D01*
X48201431Y-49431185D01*
X48200279Y-49427536D01*
X48137512Y-49204982D01*
X48072437Y-48962116D01*
X48071537Y-48958258D01*
X48026698Y-48732832D01*
X47979724Y-48484564D01*
X47979083Y-48480391D01*
X47952444Y-48255311D01*
X47949683Y-48230804D01*
X47923822Y-48001279D01*
X47923485Y-47996836D01*
X47915229Y-47786706D01*
X47908935Y-47618463D01*
X50277314Y-47618463D01*
X50306954Y-48013987D01*
X50306955Y-48014000D01*
X50375832Y-48404615D01*
X50483254Y-48786413D01*
X50483258Y-48786427D01*
X50628159Y-49155629D01*
X50628164Y-49155641D01*
X50809110Y-49508590D01*
X50809115Y-49508599D01*
X51024310Y-49841785D01*
X51271610Y-50151890D01*
X51271619Y-50151901D01*
X51548303Y-50435570D01*
X51548557Y-50435830D01*
X51852400Y-50690784D01*
X52180118Y-50914218D01*
X52528454Y-51103912D01*
X52893947Y-51257980D01*
X52893956Y-51257982D01*
X52893962Y-51257985D01*
X53272959Y-51374890D01*
X53272972Y-51374893D01*
X53660437Y-51453221D01*
X53661738Y-51453484D01*
X54000024Y-51487334D01*
X54056404Y-51492976D01*
X54056405Y-51492976D01*
X54353827Y-51492976D01*
X54551854Y-51483092D01*
X54650869Y-51478151D01*
X55043077Y-51419035D01*
X55427450Y-51321162D01*
X55800169Y-51185504D01*
X56157527Y-51013409D01*
X56157953Y-51013149D01*
X56495970Y-50806591D01*
X56495969Y-50806591D01*
X56495975Y-50806588D01*
X56812148Y-50567096D01*
X57102905Y-50297313D01*
X57365355Y-49999921D01*
X57596890Y-49677876D01*
X57795209Y-49334377D01*
X57958341Y-48972839D01*
X58084665Y-48596854D01*
X58172925Y-48210161D01*
X58222245Y-47816601D01*
X58227186Y-47618449D01*
X58227192Y-47618203D01*
X75676289Y-47618203D01*
X75705929Y-48013727D01*
X75705930Y-48013740D01*
X75774807Y-48404355D01*
X75882229Y-48786153D01*
X75882233Y-48786167D01*
X76027134Y-49155369D01*
X76027139Y-49155381D01*
X76208085Y-49508330D01*
X76208096Y-49508349D01*
X76208264Y-49508609D01*
X76423285Y-49841525D01*
X76670585Y-50151630D01*
X76670594Y-50151641D01*
X76947522Y-50435560D01*
X76947532Y-50435570D01*
X77251375Y-50690524D01*
X77579093Y-50913958D01*
X77927429Y-51103652D01*
X78292922Y-51257720D01*
X78292931Y-51257722D01*
X78292937Y-51257725D01*
X78671934Y-51374630D01*
X78671947Y-51374633D01*
X79060698Y-51453221D01*
X79060713Y-51453224D01*
X79398999Y-51487074D01*
X79455379Y-51492716D01*
X79455380Y-51492716D01*
X79752802Y-51492716D01*
X80044634Y-51478151D01*
X80049844Y-51477891D01*
X80442052Y-51418775D01*
X80826425Y-51320902D01*
X81199144Y-51185244D01*
X81556502Y-51013149D01*
X81894950Y-50806328D01*
X82211123Y-50566836D01*
X82501880Y-50297053D01*
X82764330Y-49999661D01*
X82995865Y-49677616D01*
X83194184Y-49334117D01*
X83357316Y-48972579D01*
X83483640Y-48596594D01*
X83571900Y-48209901D01*
X83621220Y-47816341D01*
X83624229Y-47695662D01*
X83631108Y-47419842D01*
X83631108Y-47419826D01*
X83616280Y-47221957D01*
X83601468Y-47024296D01*
X83532592Y-46633684D01*
X83425166Y-46251870D01*
X83280258Y-45882650D01*
X83099308Y-45529693D01*
X82884113Y-45196507D01*
X82636813Y-44886402D01*
X82636810Y-44886399D01*
X82636803Y-44886390D01*
X82359875Y-44602471D01*
X82359872Y-44602468D01*
X82359871Y-44602467D01*
X82359866Y-44602462D01*
X82056023Y-44347508D01*
X81886545Y-44231960D01*
X81728304Y-44124073D01*
X81546641Y-44025145D01*
X81379969Y-43934380D01*
X81379961Y-43934376D01*
X81379958Y-43934375D01*
X81014476Y-43780312D01*
X81014460Y-43780306D01*
X80635463Y-43663401D01*
X80635450Y-43663398D01*
X80246699Y-43584810D01*
X80246678Y-43584807D01*
X79852019Y-43545316D01*
X79852018Y-43545316D01*
X79554598Y-43545316D01*
X79554596Y-43545316D01*
X79257554Y-43560140D01*
X78865346Y-43619257D01*
X78480971Y-43717130D01*
X78108248Y-43852790D01*
X77750890Y-44024885D01*
X77412452Y-44231700D01*
X77412441Y-44231708D01*
X77096274Y-44471196D01*
X77096271Y-44471198D01*
X76805512Y-44740984D01*
X76543064Y-45038375D01*
X76311538Y-45360409D01*
X76311525Y-45360429D01*
X76113215Y-45703912D01*
X75950081Y-46065453D01*
X75823758Y-46441435D01*
X75735498Y-46828127D01*
X75686177Y-47221697D01*
X75676289Y-47618189D01*
X75676289Y-47618203D01*
X58227192Y-47618203D01*
X58232133Y-47420102D01*
X58232133Y-47420086D01*
X58232114Y-47419826D01*
X58202493Y-47024556D01*
X58133617Y-46633944D01*
X58026191Y-46252130D01*
X57881283Y-45882910D01*
X57700333Y-45529953D01*
X57485138Y-45196767D01*
X57237838Y-44886662D01*
X57237835Y-44886659D01*
X57237828Y-44886650D01*
X56960900Y-44602731D01*
X56960897Y-44602728D01*
X56960896Y-44602727D01*
X56960891Y-44602722D01*
X56657048Y-44347768D01*
X56584337Y-44298194D01*
X56329329Y-44124333D01*
X56213218Y-44061102D01*
X55980994Y-43934640D01*
X55980986Y-43934636D01*
X55980983Y-43934635D01*
X55615501Y-43780572D01*
X55615485Y-43780566D01*
X55236488Y-43663661D01*
X55236475Y-43663658D01*
X54847724Y-43585070D01*
X54847703Y-43585067D01*
X54453044Y-43545576D01*
X54453043Y-43545576D01*
X54155623Y-43545576D01*
X54155621Y-43545576D01*
X53858579Y-43560400D01*
X53466371Y-43619517D01*
X53081996Y-43717390D01*
X52709273Y-43853050D01*
X52351915Y-44025145D01*
X52013477Y-44231960D01*
X52013466Y-44231968D01*
X51697299Y-44471456D01*
X51697296Y-44471458D01*
X51406537Y-44741244D01*
X51144089Y-45038635D01*
X50912563Y-45360669D01*
X50912550Y-45360689D01*
X50714240Y-45704172D01*
X50551106Y-46065713D01*
X50424783Y-46441695D01*
X50336523Y-46828387D01*
X50287202Y-47221957D01*
X50277314Y-47618449D01*
X50277314Y-47618463D01*
X47908935Y-47618463D01*
X47905224Y-47519276D01*
X47905224Y-47518776D01*
X47905224Y-39676580D01*
X65884442Y-39676580D01*
X65903191Y-39878920D01*
X65958802Y-40074377D01*
X66049379Y-40256280D01*
X66049384Y-40256288D01*
X66171846Y-40418454D01*
X66322019Y-40555354D01*
X66322021Y-40555356D01*
X66494790Y-40662330D01*
X66494796Y-40662333D01*
X66534938Y-40677884D01*
X66684283Y-40735740D01*
X66884034Y-40773080D01*
X66884036Y-40773080D01*
X67087244Y-40773080D01*
X67087246Y-40773080D01*
X67286997Y-40735740D01*
X67476486Y-40662332D01*
X67649260Y-40555355D01*
X67799435Y-40418452D01*
X67921897Y-40256286D01*
X68012477Y-40074379D01*
X68068088Y-39878925D01*
X68069091Y-39868099D01*
X68094876Y-39803163D01*
X68151676Y-39762474D01*
X68169764Y-39757654D01*
X68286997Y-39735740D01*
X68476486Y-39662332D01*
X68649260Y-39555355D01*
X68799435Y-39418452D01*
X68921897Y-39256286D01*
X69012477Y-39074379D01*
X69068088Y-38878925D01*
X69086838Y-38676580D01*
X69068088Y-38474235D01*
X69012477Y-38278781D01*
X68967741Y-38188941D01*
X68921900Y-38096879D01*
X68921895Y-38096871D01*
X68799433Y-37934705D01*
X68649260Y-37797805D01*
X68649258Y-37797803D01*
X68476489Y-37690829D01*
X68476483Y-37690826D01*
X68327141Y-37632972D01*
X68286997Y-37617420D01*
X68169776Y-37595507D01*
X68107496Y-37563840D01*
X68072223Y-37503527D01*
X68069091Y-37485060D01*
X68068088Y-37474239D01*
X68068088Y-37474235D01*
X68012477Y-37278781D01*
X67967741Y-37188941D01*
X67921900Y-37096879D01*
X67921895Y-37096871D01*
X67799433Y-36934705D01*
X67649260Y-36797805D01*
X67649258Y-36797803D01*
X67476489Y-36690829D01*
X67476483Y-36690826D01*
X67327141Y-36632972D01*
X67286997Y-36617420D01*
X67087246Y-36580080D01*
X66884034Y-36580080D01*
X66684283Y-36617420D01*
X66684280Y-36617420D01*
X66684280Y-36617421D01*
X66494796Y-36690826D01*
X66494790Y-36690829D01*
X66322021Y-36797803D01*
X66322019Y-36797805D01*
X66171846Y-36934705D01*
X66049384Y-37096871D01*
X66049379Y-37096879D01*
X65958802Y-37278782D01*
X65903191Y-37474239D01*
X65884442Y-37676579D01*
X65884442Y-37676580D01*
X65903191Y-37878920D01*
X65958802Y-38074377D01*
X66049379Y-38256280D01*
X66049384Y-38256288D01*
X66171846Y-38418454D01*
X66233040Y-38474239D01*
X66322020Y-38555355D01*
X66347534Y-38571153D01*
X66394169Y-38623177D01*
X66405274Y-38692159D01*
X66377323Y-38756194D01*
X66347537Y-38782004D01*
X66322023Y-38797801D01*
X66322019Y-38797805D01*
X66171846Y-38934705D01*
X66049384Y-39096871D01*
X66049379Y-39096879D01*
X65958802Y-39278782D01*
X65903191Y-39474239D01*
X65884442Y-39676579D01*
X65884442Y-39676580D01*
X47905224Y-39676580D01*
X47905224Y-29787276D01*
X65881509Y-29787276D01*
X65900326Y-29990358D01*
X65956141Y-30186523D01*
X65956146Y-30186536D01*
X66047051Y-30369097D01*
X66169961Y-30531857D01*
X66320682Y-30669256D01*
X66320684Y-30669258D01*
X66419865Y-30730668D01*
X66494087Y-30776624D01*
X66661367Y-30841428D01*
X66716768Y-30884001D01*
X66740359Y-30949768D01*
X66724648Y-31017848D01*
X66674624Y-31066627D01*
X66645809Y-31077559D01*
X66625151Y-31082570D01*
X66625141Y-31082574D01*
X66433980Y-31169874D01*
X66433975Y-31169877D01*
X66262770Y-31291791D01*
X66262764Y-31291796D01*
X66117738Y-31443896D01*
X66004112Y-31620701D01*
X65925998Y-31815820D01*
X65902208Y-31939256D01*
X65886224Y-32022191D01*
X65886224Y-32579701D01*
X65901196Y-32736494D01*
X65960408Y-32938151D01*
X66009743Y-33033848D01*
X66056715Y-33124962D01*
X66186629Y-33290159D01*
X66186633Y-33290163D01*
X66345470Y-33427797D01*
X66527474Y-33532877D01*
X66527476Y-33532877D01*
X66527480Y-33532880D01*
X66726091Y-33601620D01*
X66934122Y-33631530D01*
X67144054Y-33621530D01*
X67348300Y-33571980D01*
X67433923Y-33532877D01*
X67539467Y-33484677D01*
X67539470Y-33484675D01*
X67539477Y-33484672D01*
X67710676Y-33362762D01*
X67779903Y-33290159D01*
X67855709Y-33210655D01*
X67910781Y-33124962D01*
X67969337Y-33033848D01*
X68047449Y-32838733D01*
X68087224Y-32632361D01*
X68087224Y-32281775D01*
X68106909Y-32214737D01*
X68159713Y-32168982D01*
X68211224Y-32157776D01*
X68358698Y-32157776D01*
X68358700Y-32157776D01*
X68559180Y-32120300D01*
X68749361Y-32046624D01*
X68922765Y-31939257D01*
X69073488Y-31801855D01*
X69196397Y-31639097D01*
X69287306Y-31456526D01*
X69343121Y-31260359D01*
X69361939Y-31057276D01*
X69343121Y-30854193D01*
X69287306Y-30658026D01*
X69196397Y-30475455D01*
X69073488Y-30312697D01*
X69073486Y-30312694D01*
X68922765Y-30175295D01*
X68922763Y-30175293D01*
X68749366Y-30067931D01*
X68749359Y-30067927D01*
X68654270Y-30031090D01*
X68559180Y-29994252D01*
X68358700Y-29956776D01*
X68212254Y-29956776D01*
X68145215Y-29937091D01*
X68099460Y-29884287D01*
X68088783Y-29821335D01*
X68091939Y-29787276D01*
X68091939Y-29787275D01*
X68073121Y-29584193D01*
X68073120Y-29584192D01*
X68017306Y-29388026D01*
X67926397Y-29205455D01*
X67803488Y-29042697D01*
X67803486Y-29042694D01*
X67652765Y-28905295D01*
X67652763Y-28905293D01*
X67479366Y-28797931D01*
X67479359Y-28797927D01*
X67384270Y-28761090D01*
X67289180Y-28724252D01*
X67088700Y-28686776D01*
X66884748Y-28686776D01*
X66684268Y-28724252D01*
X66684265Y-28724252D01*
X66684265Y-28724253D01*
X66494088Y-28797927D01*
X66494081Y-28797931D01*
X66320684Y-28905293D01*
X66320682Y-28905295D01*
X66169961Y-29042694D01*
X66047051Y-29205454D01*
X65956146Y-29388015D01*
X65956141Y-29388028D01*
X65900326Y-29584193D01*
X65881509Y-29787275D01*
X65881509Y-29787276D01*
X47905224Y-29787276D01*
X47905224Y-22218203D01*
X50276294Y-22218203D01*
X50305934Y-22613727D01*
X50305935Y-22613740D01*
X50374812Y-23004355D01*
X50482234Y-23386153D01*
X50482238Y-23386167D01*
X50627139Y-23755369D01*
X50627144Y-23755381D01*
X50808090Y-24108330D01*
X50808101Y-24108349D01*
X50808269Y-24108609D01*
X51023290Y-24441525D01*
X51270590Y-24751630D01*
X51270599Y-24751641D01*
X51547527Y-25035560D01*
X51547537Y-25035570D01*
X51851380Y-25290524D01*
X52179098Y-25513958D01*
X52527434Y-25703652D01*
X52892927Y-25857720D01*
X52892936Y-25857722D01*
X52892942Y-25857725D01*
X53271939Y-25974630D01*
X53271952Y-25974633D01*
X53660703Y-26053221D01*
X53660718Y-26053224D01*
X53999003Y-26087074D01*
X54055384Y-26092716D01*
X54055385Y-26092716D01*
X54352807Y-26092716D01*
X54644639Y-26078151D01*
X54649849Y-26077891D01*
X55042057Y-26018775D01*
X55426430Y-25920902D01*
X55799149Y-25785244D01*
X56156507Y-25613149D01*
X56494955Y-25406328D01*
X56811128Y-25166836D01*
X57101885Y-24897053D01*
X57364335Y-24599661D01*
X57595870Y-24277616D01*
X57794189Y-23934117D01*
X57957321Y-23572579D01*
X58083645Y-23196594D01*
X58171905Y-22809901D01*
X58221225Y-22416341D01*
X58222829Y-22352002D01*
X64010677Y-22352002D01*
X64029929Y-22572062D01*
X64029930Y-22572070D01*
X64087104Y-22785445D01*
X64087105Y-22785447D01*
X64087106Y-22785450D01*
X64120382Y-22856811D01*
X64180466Y-22985662D01*
X64180468Y-22985666D01*
X64307170Y-23166615D01*
X64307175Y-23166621D01*
X64463378Y-23322824D01*
X64463384Y-23322829D01*
X64644333Y-23449531D01*
X64644335Y-23449532D01*
X64644338Y-23449534D01*
X64844550Y-23542894D01*
X65057932Y-23600070D01*
X65215123Y-23613822D01*
X65277998Y-23619323D01*
X65278000Y-23619323D01*
X65278002Y-23619323D01*
X65333016Y-23614509D01*
X65498068Y-23600070D01*
X65711450Y-23542894D01*
X65911662Y-23449534D01*
X66092620Y-23322826D01*
X66248826Y-23166620D01*
X66375534Y-22985662D01*
X66435617Y-22856811D01*
X66481790Y-22804371D01*
X66548983Y-22785219D01*
X66615865Y-22805435D01*
X66660382Y-22856811D01*
X66720464Y-22985658D01*
X66720468Y-22985666D01*
X66847170Y-23166615D01*
X66847175Y-23166621D01*
X67003378Y-23322824D01*
X67003384Y-23322829D01*
X67184333Y-23449531D01*
X67184335Y-23449532D01*
X67184338Y-23449534D01*
X67384550Y-23542894D01*
X67597932Y-23600070D01*
X67755123Y-23613822D01*
X67817998Y-23619323D01*
X67818000Y-23619323D01*
X67818002Y-23619323D01*
X67873016Y-23614509D01*
X68038068Y-23600070D01*
X68251450Y-23542894D01*
X68451662Y-23449534D01*
X68632620Y-23322826D01*
X68788826Y-23166620D01*
X68915534Y-22985662D01*
X68975617Y-22856811D01*
X69021790Y-22804371D01*
X69088983Y-22785219D01*
X69155865Y-22805435D01*
X69200382Y-22856811D01*
X69260464Y-22985658D01*
X69260468Y-22985666D01*
X69387170Y-23166615D01*
X69387175Y-23166621D01*
X69543378Y-23322824D01*
X69543384Y-23322829D01*
X69724333Y-23449531D01*
X69724335Y-23449532D01*
X69724338Y-23449534D01*
X69924550Y-23542894D01*
X70137932Y-23600070D01*
X70295123Y-23613822D01*
X70357998Y-23619323D01*
X70358000Y-23619323D01*
X70358002Y-23619323D01*
X70413016Y-23614509D01*
X70578068Y-23600070D01*
X70791450Y-23542894D01*
X70991662Y-23449534D01*
X71172620Y-23322826D01*
X71328826Y-23166620D01*
X71455534Y-22985662D01*
X71548894Y-22785450D01*
X71606070Y-22572068D01*
X71625323Y-22352000D01*
X71613640Y-22218463D01*
X75677314Y-22218463D01*
X75706954Y-22613987D01*
X75706955Y-22614000D01*
X75775832Y-23004615D01*
X75883254Y-23386413D01*
X75883258Y-23386427D01*
X76028159Y-23755629D01*
X76028164Y-23755641D01*
X76209110Y-24108590D01*
X76209115Y-24108599D01*
X76424310Y-24441785D01*
X76671610Y-24751890D01*
X76671619Y-24751901D01*
X76948303Y-25035570D01*
X76948557Y-25035830D01*
X77252400Y-25290784D01*
X77580118Y-25514218D01*
X77928454Y-25703912D01*
X78293947Y-25857980D01*
X78293956Y-25857982D01*
X78293962Y-25857985D01*
X78672959Y-25974890D01*
X78672972Y-25974893D01*
X79060437Y-26053221D01*
X79061738Y-26053484D01*
X79400024Y-26087334D01*
X79456404Y-26092976D01*
X79456405Y-26092976D01*
X79753827Y-26092976D01*
X79951854Y-26083092D01*
X80050869Y-26078151D01*
X80443077Y-26019035D01*
X80827450Y-25921162D01*
X81200169Y-25785504D01*
X81557527Y-25613409D01*
X81557953Y-25613149D01*
X81895970Y-25406591D01*
X81895969Y-25406591D01*
X81895975Y-25406588D01*
X82212148Y-25167096D01*
X82502905Y-24897313D01*
X82765355Y-24599921D01*
X82996890Y-24277876D01*
X83195209Y-23934377D01*
X83358341Y-23572839D01*
X83484665Y-23196854D01*
X83572925Y-22810161D01*
X83622245Y-22416601D01*
X83627186Y-22218449D01*
X83632133Y-22020102D01*
X83632133Y-22020086D01*
X83621759Y-21881657D01*
X83602493Y-21624556D01*
X83533617Y-21233944D01*
X83426191Y-20852130D01*
X83368988Y-20706380D01*
X83281288Y-20482922D01*
X83281283Y-20482910D01*
X83100337Y-20129961D01*
X83100333Y-20129953D01*
X82885138Y-19796767D01*
X82637838Y-19486662D01*
X82637835Y-19486659D01*
X82637828Y-19486650D01*
X82360900Y-19202731D01*
X82360897Y-19202728D01*
X82360896Y-19202727D01*
X82360891Y-19202722D01*
X82057048Y-18947768D01*
X81955575Y-18878585D01*
X81729329Y-18724333D01*
X81613218Y-18661102D01*
X81380994Y-18534640D01*
X81380986Y-18534636D01*
X81380983Y-18534635D01*
X81015501Y-18380572D01*
X81015485Y-18380566D01*
X80636488Y-18263661D01*
X80636475Y-18263658D01*
X80247724Y-18185070D01*
X80247703Y-18185067D01*
X79853044Y-18145576D01*
X79853043Y-18145576D01*
X79555623Y-18145576D01*
X79555621Y-18145576D01*
X79258579Y-18160400D01*
X78866371Y-18219517D01*
X78481996Y-18317390D01*
X78109273Y-18453050D01*
X77751915Y-18625145D01*
X77413477Y-18831960D01*
X77413466Y-18831968D01*
X77097299Y-19071456D01*
X77097296Y-19071458D01*
X76806537Y-19341244D01*
X76544089Y-19638635D01*
X76312563Y-19960669D01*
X76312550Y-19960689D01*
X76114240Y-20304172D01*
X75951106Y-20665713D01*
X75824783Y-21041695D01*
X75736523Y-21428387D01*
X75687202Y-21821957D01*
X75677314Y-22218449D01*
X75677314Y-22218463D01*
X71613640Y-22218463D01*
X71606070Y-22131932D01*
X71548894Y-21918550D01*
X71455534Y-21718339D01*
X71328826Y-21537380D01*
X71172620Y-21381174D01*
X71172616Y-21381171D01*
X71172615Y-21381170D01*
X70991666Y-21254468D01*
X70991662Y-21254466D01*
X70947635Y-21233936D01*
X70791450Y-21161106D01*
X70791447Y-21161105D01*
X70791445Y-21161104D01*
X70578070Y-21103930D01*
X70578062Y-21103929D01*
X70358002Y-21084677D01*
X70357998Y-21084677D01*
X70137937Y-21103929D01*
X70137929Y-21103930D01*
X69924554Y-21161104D01*
X69924548Y-21161107D01*
X69724340Y-21254465D01*
X69724338Y-21254466D01*
X69543377Y-21381175D01*
X69387175Y-21537377D01*
X69260466Y-21718338D01*
X69260465Y-21718340D01*
X69200382Y-21847189D01*
X69154209Y-21899628D01*
X69087016Y-21918780D01*
X69020135Y-21898564D01*
X68975618Y-21847189D01*
X68915534Y-21718340D01*
X68915533Y-21718338D01*
X68788827Y-21537381D01*
X68788823Y-21537377D01*
X68632620Y-21381174D01*
X68632616Y-21381171D01*
X68632615Y-21381170D01*
X68451666Y-21254468D01*
X68451662Y-21254466D01*
X68407635Y-21233936D01*
X68251450Y-21161106D01*
X68251447Y-21161105D01*
X68251445Y-21161104D01*
X68038070Y-21103930D01*
X68038062Y-21103929D01*
X67818002Y-21084677D01*
X67817998Y-21084677D01*
X67597937Y-21103929D01*
X67597929Y-21103930D01*
X67384554Y-21161104D01*
X67384548Y-21161107D01*
X67184340Y-21254465D01*
X67184338Y-21254466D01*
X67003377Y-21381175D01*
X66847175Y-21537377D01*
X66720466Y-21718338D01*
X66720465Y-21718340D01*
X66660382Y-21847189D01*
X66614209Y-21899628D01*
X66547016Y-21918780D01*
X66480135Y-21898564D01*
X66435618Y-21847189D01*
X66375534Y-21718340D01*
X66375533Y-21718338D01*
X66248827Y-21537381D01*
X66248823Y-21537377D01*
X66092620Y-21381174D01*
X66092616Y-21381171D01*
X66092615Y-21381170D01*
X65911666Y-21254468D01*
X65911662Y-21254466D01*
X65867635Y-21233936D01*
X65711450Y-21161106D01*
X65711447Y-21161105D01*
X65711445Y-21161104D01*
X65498070Y-21103930D01*
X65498062Y-21103929D01*
X65278002Y-21084677D01*
X65277998Y-21084677D01*
X65057937Y-21103929D01*
X65057929Y-21103930D01*
X64844554Y-21161104D01*
X64844548Y-21161107D01*
X64644340Y-21254465D01*
X64644338Y-21254466D01*
X64463377Y-21381175D01*
X64307175Y-21537377D01*
X64180466Y-21718338D01*
X64180465Y-21718340D01*
X64087107Y-21918548D01*
X64087104Y-21918554D01*
X64029930Y-22131929D01*
X64029929Y-22131937D01*
X64010677Y-22351997D01*
X64010677Y-22352002D01*
X58222829Y-22352002D01*
X58224234Y-22295662D01*
X58231113Y-22019842D01*
X58231113Y-22019826D01*
X58223524Y-21918554D01*
X58201473Y-21624296D01*
X58132597Y-21233684D01*
X58025171Y-20851870D01*
X57968070Y-20706380D01*
X57880268Y-20482662D01*
X57880263Y-20482650D01*
X57699317Y-20129701D01*
X57699313Y-20129693D01*
X57484118Y-19796507D01*
X57236818Y-19486402D01*
X57236815Y-19486399D01*
X57236808Y-19486390D01*
X56959880Y-19202471D01*
X56959877Y-19202468D01*
X56959876Y-19202467D01*
X56959871Y-19202462D01*
X56656028Y-18947508D01*
X56486550Y-18831960D01*
X56328309Y-18724073D01*
X56146646Y-18625145D01*
X55979974Y-18534380D01*
X55979966Y-18534376D01*
X55979963Y-18534375D01*
X55614481Y-18380312D01*
X55614465Y-18380306D01*
X55235468Y-18263401D01*
X55235455Y-18263398D01*
X54846704Y-18184810D01*
X54846683Y-18184807D01*
X54452024Y-18145316D01*
X54452023Y-18145316D01*
X54154603Y-18145316D01*
X54154601Y-18145316D01*
X53857559Y-18160140D01*
X53465351Y-18219257D01*
X53080976Y-18317130D01*
X52708253Y-18452790D01*
X52350895Y-18624885D01*
X52012457Y-18831700D01*
X52012446Y-18831708D01*
X51696279Y-19071196D01*
X51696276Y-19071198D01*
X51405517Y-19340984D01*
X51143069Y-19638375D01*
X50911543Y-19960409D01*
X50911530Y-19960429D01*
X50713220Y-20303912D01*
X50550086Y-20665453D01*
X50423763Y-21041435D01*
X50335503Y-21428127D01*
X50286182Y-21821697D01*
X50276294Y-22218189D01*
X50276294Y-22218203D01*
X47905224Y-22218203D01*
X47905224Y-22119276D01*
X47915314Y-21849621D01*
X47915410Y-21847189D01*
X47923475Y-21641821D01*
X47923812Y-21637383D01*
X47952618Y-21381720D01*
X47979065Y-21158278D01*
X47979710Y-21154076D01*
X48026850Y-20904939D01*
X48071512Y-20680412D01*
X48072414Y-20676543D01*
X48137651Y-20433075D01*
X48200263Y-20211074D01*
X48201389Y-20207506D01*
X48284391Y-19970301D01*
X48364553Y-19753015D01*
X48365858Y-19749770D01*
X48466215Y-19519751D01*
X48563419Y-19308901D01*
X48564852Y-19306002D01*
X48682012Y-19084324D01*
X48795676Y-18881363D01*
X48797247Y-18878720D01*
X48797332Y-18878585D01*
X48930564Y-18666547D01*
X49059976Y-18472869D01*
X49061577Y-18470591D01*
X49210386Y-18268964D01*
X49240377Y-18230919D01*
X49355519Y-18084862D01*
X49519853Y-17893902D01*
X49679022Y-17721713D01*
X49857146Y-17543589D01*
X50029321Y-17384431D01*
X50220304Y-17220077D01*
X50404386Y-17074958D01*
X50606053Y-16926121D01*
X50608332Y-16924521D01*
X50801973Y-16795133D01*
X51014222Y-16661768D01*
X51016825Y-16660223D01*
X51219752Y-16546578D01*
X51441445Y-16429411D01*
X51444374Y-16427963D01*
X51655223Y-16330761D01*
X51885197Y-16230424D01*
X51888479Y-16229104D01*
X52105756Y-16148946D01*
X52342961Y-16065944D01*
X52346546Y-16064813D01*
X52568443Y-16002230D01*
X52811991Y-15936972D01*
X52815861Y-15936070D01*
X53040310Y-15891423D01*
X53289547Y-15844265D01*
X53293729Y-15843623D01*
X53517176Y-15817176D01*
X53772797Y-15788374D01*
X53777256Y-15788035D01*
X53983507Y-15779931D01*
X54187834Y-15772286D01*
X54254947Y-15769776D01*
X54255224Y-15769776D01*
X79654224Y-15769776D01*
X79654724Y-15769776D01*
X79921745Y-15779768D01*
G37*
%TD.AperFunction*%
%TD*%
M02*
