<svg version="1.1" xmlns="http://www.w3.org/2000/svg" xmlns:xlink="http://www.w3.org/1999/xlink" stroke-linecap="round" stroke-linejoin="round" stroke-width="0" fill-rule="evenodd" width="53.2376mm" height="35.61mm" viewBox="119507.4 -111785 53237.6 35610" id="CZTkKyAoZ5tucYAW0VbP"><defs><rect x="-609" y="-609" width="1218" height="1218" id="CZTkKyAoZ5tucYAW0VbP_pad-10"/><circle cx="0" cy="0" r="609" id="CZTkKyAoZ5tucYAW0VbP_pad-11"/></defs><g transform="translate(0,-187960) scale(1,-1)" fill="currentColor" stroke="currentColor"><use xlink:href="#CZTkKyAoZ5tucYAW0VbP_pad-10" x="129438.4" y="-78638.4"/><use xlink:href="#CZTkKyAoZ5tucYAW0VbP_pad-11" x="131978.4" y="-78638.4"/><use xlink:href="#CZTkKyAoZ5tucYAW0VbP_pad-11" x="134518.4" y="-78638.4"/><use xlink:href="#CZTkKyAoZ5tucYAW0VbP_pad-11" x="137058.4" y="-78638.4"/><use xlink:href="#CZTkKyAoZ5tucYAW0VbP_pad-11" x="139598.4" y="-78638.4"/><use xlink:href="#CZTkKyAoZ5tucYAW0VbP_pad-11" x="142138.4" y="-78638.4"/><use xlink:href="#CZTkKyAoZ5tucYAW0VbP_pad-11" x="144678.4" y="-78638.4"/><use xlink:href="#CZTkKyAoZ5tucYAW0VbP_pad-11" x="147218.4" y="-78638.4"/><use xlink:href="#CZTkKyAoZ5tucYAW0VbP_pad-11" x="149758.4" y="-78638.4"/><use xlink:href="#CZTkKyAoZ5tucYAW0VbP_pad-11" x="152298.4" y="-78638.4"/><use xlink:href="#CZTkKyAoZ5tucYAW0VbP_pad-11" x="154838.4" y="-78638.4"/><use xlink:href="#CZTkKyAoZ5tucYAW0VbP_pad-11" x="157378.4" y="-78638.4"/><use xlink:href="#CZTkKyAoZ5tucYAW0VbP_pad-11" x="157378.4" y="-88798.4"/><use xlink:href="#CZTkKyAoZ5tucYAW0VbP_pad-11" x="154838.4" y="-88798.4"/><use xlink:href="#CZTkKyAoZ5tucYAW0VbP_pad-11" x="152298.4" y="-88798.4"/><use xlink:href="#CZTkKyAoZ5tucYAW0VbP_pad-11" x="149758.4" y="-88798.4"/><use xlink:href="#CZTkKyAoZ5tucYAW0VbP_pad-11" x="147218.4" y="-88798.4"/><use xlink:href="#CZTkKyAoZ5tucYAW0VbP_pad-11" x="144678.4" y="-88798.4"/><use xlink:href="#CZTkKyAoZ5tucYAW0VbP_pad-11" x="142138.4" y="-88798.4"/><use xlink:href="#CZTkKyAoZ5tucYAW0VbP_pad-11" x="139598.4" y="-88798.4"/><use xlink:href="#CZTkKyAoZ5tucYAW0VbP_pad-11" x="137058.4" y="-88798.4"/><use xlink:href="#CZTkKyAoZ5tucYAW0VbP_pad-11" x="134518.4" y="-88798.4"/><use xlink:href="#CZTkKyAoZ5tucYAW0VbP_pad-11" x="131978.4" y="-88798.4"/><use xlink:href="#CZTkKyAoZ5tucYAW0VbP_pad-11" x="129438.4" y="-88798.4"/><path d="M 119532.4 -76200 172720 -76200 172720 -111760 119532.4 -111760 119532.4 -76200" fill="none" stroke-width="50"/></g></svg>