%TF.GenerationSoftware,KiCad,Pcbnew,8.0.5*%
%TF.CreationDate,2024-11-15T15:17:32-06:00*%
%TF.ProjectId,RamanSpectrometer_Board,52616d61-6e53-4706-9563-74726f6d6574,rev?*%
%TF.SameCoordinates,Original*%
%TF.FileFunction,Legend,Top*%
%TF.FilePolarity,Positive*%
%FSLAX46Y46*%
G04 Gerber Fmt 4.6, Leading zero omitted, Abs format (unit mm)*
G04 Created by KiCad (PCBNEW 8.0.5) date 2024-11-15 15:17:32*
%MOMM*%
%LPD*%
G01*
G04 APERTURE LIST*
%ADD10C,0.127000*%
%ADD11C,0.100000*%
%ADD12C,0.150000*%
%ADD13C,0.120000*%
%ADD14C,0.200000*%
G04 APERTURE END LIST*
D10*
X217489409Y-72290141D02*
X217235409Y-71927284D01*
X217053980Y-72290141D02*
X217053980Y-71528141D01*
X217053980Y-71528141D02*
X217344266Y-71528141D01*
X217344266Y-71528141D02*
X217416837Y-71564427D01*
X217416837Y-71564427D02*
X217453123Y-71600713D01*
X217453123Y-71600713D02*
X217489409Y-71673284D01*
X217489409Y-71673284D02*
X217489409Y-71782141D01*
X217489409Y-71782141D02*
X217453123Y-71854713D01*
X217453123Y-71854713D02*
X217416837Y-71890998D01*
X217416837Y-71890998D02*
X217344266Y-71927284D01*
X217344266Y-71927284D02*
X217053980Y-71927284D01*
X218106266Y-72253856D02*
X218033694Y-72290141D01*
X218033694Y-72290141D02*
X217888552Y-72290141D01*
X217888552Y-72290141D02*
X217815980Y-72253856D01*
X217815980Y-72253856D02*
X217779694Y-72181284D01*
X217779694Y-72181284D02*
X217779694Y-71890998D01*
X217779694Y-71890998D02*
X217815980Y-71818427D01*
X217815980Y-71818427D02*
X217888552Y-71782141D01*
X217888552Y-71782141D02*
X218033694Y-71782141D01*
X218033694Y-71782141D02*
X218106266Y-71818427D01*
X218106266Y-71818427D02*
X218142552Y-71890998D01*
X218142552Y-71890998D02*
X218142552Y-71963570D01*
X218142552Y-71963570D02*
X217779694Y-72036141D01*
X218396552Y-71782141D02*
X218577980Y-72290141D01*
X218577980Y-72290141D02*
X218759409Y-71782141D01*
X219339980Y-72253856D02*
X219267408Y-72290141D01*
X219267408Y-72290141D02*
X219122266Y-72290141D01*
X219122266Y-72290141D02*
X219049694Y-72253856D01*
X219049694Y-72253856D02*
X219013408Y-72181284D01*
X219013408Y-72181284D02*
X219013408Y-71890998D01*
X219013408Y-71890998D02*
X219049694Y-71818427D01*
X219049694Y-71818427D02*
X219122266Y-71782141D01*
X219122266Y-71782141D02*
X219267408Y-71782141D01*
X219267408Y-71782141D02*
X219339980Y-71818427D01*
X219339980Y-71818427D02*
X219376266Y-71890998D01*
X219376266Y-71890998D02*
X219376266Y-71963570D01*
X219376266Y-71963570D02*
X219013408Y-72036141D01*
X219702837Y-72290141D02*
X219702837Y-71782141D01*
X219702837Y-71927284D02*
X219739123Y-71854713D01*
X219739123Y-71854713D02*
X219775409Y-71818427D01*
X219775409Y-71818427D02*
X219847980Y-71782141D01*
X219847980Y-71782141D02*
X219920551Y-71782141D01*
X220138265Y-72253856D02*
X220210837Y-72290141D01*
X220210837Y-72290141D02*
X220355980Y-72290141D01*
X220355980Y-72290141D02*
X220428551Y-72253856D01*
X220428551Y-72253856D02*
X220464837Y-72181284D01*
X220464837Y-72181284D02*
X220464837Y-72144998D01*
X220464837Y-72144998D02*
X220428551Y-72072427D01*
X220428551Y-72072427D02*
X220355980Y-72036141D01*
X220355980Y-72036141D02*
X220247123Y-72036141D01*
X220247123Y-72036141D02*
X220174551Y-71999856D01*
X220174551Y-71999856D02*
X220138265Y-71927284D01*
X220138265Y-71927284D02*
X220138265Y-71890998D01*
X220138265Y-71890998D02*
X220174551Y-71818427D01*
X220174551Y-71818427D02*
X220247123Y-71782141D01*
X220247123Y-71782141D02*
X220355980Y-71782141D01*
X220355980Y-71782141D02*
X220428551Y-71818427D01*
X221081694Y-72253856D02*
X221009122Y-72290141D01*
X221009122Y-72290141D02*
X220863980Y-72290141D01*
X220863980Y-72290141D02*
X220791408Y-72253856D01*
X220791408Y-72253856D02*
X220755122Y-72181284D01*
X220755122Y-72181284D02*
X220755122Y-71890998D01*
X220755122Y-71890998D02*
X220791408Y-71818427D01*
X220791408Y-71818427D02*
X220863980Y-71782141D01*
X220863980Y-71782141D02*
X221009122Y-71782141D01*
X221009122Y-71782141D02*
X221081694Y-71818427D01*
X221081694Y-71818427D02*
X221117980Y-71890998D01*
X221117980Y-71890998D02*
X221117980Y-71963570D01*
X221117980Y-71963570D02*
X220755122Y-72036141D01*
X205369980Y-71890998D02*
X205115980Y-71890998D01*
X205115980Y-72290141D02*
X205115980Y-71528141D01*
X205115980Y-71528141D02*
X205478837Y-71528141D01*
X205877980Y-72290141D02*
X205805409Y-72253856D01*
X205805409Y-72253856D02*
X205769123Y-72217570D01*
X205769123Y-72217570D02*
X205732837Y-72144998D01*
X205732837Y-72144998D02*
X205732837Y-71927284D01*
X205732837Y-71927284D02*
X205769123Y-71854713D01*
X205769123Y-71854713D02*
X205805409Y-71818427D01*
X205805409Y-71818427D02*
X205877980Y-71782141D01*
X205877980Y-71782141D02*
X205986837Y-71782141D01*
X205986837Y-71782141D02*
X206059409Y-71818427D01*
X206059409Y-71818427D02*
X206095695Y-71854713D01*
X206095695Y-71854713D02*
X206131980Y-71927284D01*
X206131980Y-71927284D02*
X206131980Y-72144998D01*
X206131980Y-72144998D02*
X206095695Y-72217570D01*
X206095695Y-72217570D02*
X206059409Y-72253856D01*
X206059409Y-72253856D02*
X205986837Y-72290141D01*
X205986837Y-72290141D02*
X205877980Y-72290141D01*
X206458552Y-72290141D02*
X206458552Y-71782141D01*
X206458552Y-71927284D02*
X206494838Y-71854713D01*
X206494838Y-71854713D02*
X206531124Y-71818427D01*
X206531124Y-71818427D02*
X206603695Y-71782141D01*
X206603695Y-71782141D02*
X206676266Y-71782141D01*
X206857695Y-71782141D02*
X207002838Y-72290141D01*
X207002838Y-72290141D02*
X207147980Y-71927284D01*
X207147980Y-71927284D02*
X207293123Y-72290141D01*
X207293123Y-72290141D02*
X207438266Y-71782141D01*
X208055124Y-72290141D02*
X208055124Y-71890998D01*
X208055124Y-71890998D02*
X208018838Y-71818427D01*
X208018838Y-71818427D02*
X207946266Y-71782141D01*
X207946266Y-71782141D02*
X207801124Y-71782141D01*
X207801124Y-71782141D02*
X207728552Y-71818427D01*
X208055124Y-72253856D02*
X207982552Y-72290141D01*
X207982552Y-72290141D02*
X207801124Y-72290141D01*
X207801124Y-72290141D02*
X207728552Y-72253856D01*
X207728552Y-72253856D02*
X207692266Y-72181284D01*
X207692266Y-72181284D02*
X207692266Y-72108713D01*
X207692266Y-72108713D02*
X207728552Y-72036141D01*
X207728552Y-72036141D02*
X207801124Y-71999856D01*
X207801124Y-71999856D02*
X207982552Y-71999856D01*
X207982552Y-71999856D02*
X208055124Y-71963570D01*
X208417981Y-72290141D02*
X208417981Y-71782141D01*
X208417981Y-71927284D02*
X208454267Y-71854713D01*
X208454267Y-71854713D02*
X208490553Y-71818427D01*
X208490553Y-71818427D02*
X208563124Y-71782141D01*
X208563124Y-71782141D02*
X208635695Y-71782141D01*
X209216267Y-72290141D02*
X209216267Y-71528141D01*
X209216267Y-72253856D02*
X209143695Y-72290141D01*
X209143695Y-72290141D02*
X208998552Y-72290141D01*
X208998552Y-72290141D02*
X208925981Y-72253856D01*
X208925981Y-72253856D02*
X208889695Y-72217570D01*
X208889695Y-72217570D02*
X208853409Y-72144998D01*
X208853409Y-72144998D02*
X208853409Y-71927284D01*
X208853409Y-71927284D02*
X208889695Y-71854713D01*
X208889695Y-71854713D02*
X208925981Y-71818427D01*
X208925981Y-71818427D02*
X208998552Y-71782141D01*
X208998552Y-71782141D02*
X209143695Y-71782141D01*
X209143695Y-71782141D02*
X209216267Y-71818427D01*
D11*
X204612419Y-150889639D02*
X204612419Y-150699163D01*
X204612419Y-150699163D02*
X204660038Y-150603925D01*
X204660038Y-150603925D02*
X204755276Y-150508687D01*
X204755276Y-150508687D02*
X204945752Y-150461068D01*
X204945752Y-150461068D02*
X205279085Y-150461068D01*
X205279085Y-150461068D02*
X205469561Y-150508687D01*
X205469561Y-150508687D02*
X205564800Y-150603925D01*
X205564800Y-150603925D02*
X205612419Y-150699163D01*
X205612419Y-150699163D02*
X205612419Y-150889639D01*
X205612419Y-150889639D02*
X205564800Y-150984877D01*
X205564800Y-150984877D02*
X205469561Y-151080115D01*
X205469561Y-151080115D02*
X205279085Y-151127734D01*
X205279085Y-151127734D02*
X204945752Y-151127734D01*
X204945752Y-151127734D02*
X204755276Y-151080115D01*
X204755276Y-151080115D02*
X204660038Y-150984877D01*
X204660038Y-150984877D02*
X204612419Y-150889639D01*
X205612419Y-150032496D02*
X204612419Y-150032496D01*
X205612419Y-149461068D02*
X205040990Y-149889639D01*
X204612419Y-149461068D02*
X205183847Y-150032496D01*
X205612419Y-149032496D02*
X204612419Y-149032496D01*
X205612419Y-147270592D02*
X205612419Y-147842020D01*
X205612419Y-147556306D02*
X204612419Y-147556306D01*
X204612419Y-147556306D02*
X204755276Y-147651544D01*
X204755276Y-147651544D02*
X204850514Y-147746782D01*
X204850514Y-147746782D02*
X204898133Y-147842020D01*
X204707657Y-146889639D02*
X204660038Y-146842020D01*
X204660038Y-146842020D02*
X204612419Y-146746782D01*
X204612419Y-146746782D02*
X204612419Y-146508687D01*
X204612419Y-146508687D02*
X204660038Y-146413449D01*
X204660038Y-146413449D02*
X204707657Y-146365830D01*
X204707657Y-146365830D02*
X204802895Y-146318211D01*
X204802895Y-146318211D02*
X204898133Y-146318211D01*
X204898133Y-146318211D02*
X205040990Y-146365830D01*
X205040990Y-146365830D02*
X205612419Y-146937258D01*
X205612419Y-146937258D02*
X205612419Y-146318211D01*
X204612419Y-146032496D02*
X205612419Y-145699163D01*
X205612419Y-145699163D02*
X204612419Y-145365830D01*
X205231466Y-145032496D02*
X205231466Y-144270592D01*
X204612419Y-143318211D02*
X204612419Y-143794401D01*
X204612419Y-143794401D02*
X205088609Y-143842020D01*
X205088609Y-143842020D02*
X205040990Y-143794401D01*
X205040990Y-143794401D02*
X204993371Y-143699163D01*
X204993371Y-143699163D02*
X204993371Y-143461068D01*
X204993371Y-143461068D02*
X205040990Y-143365830D01*
X205040990Y-143365830D02*
X205088609Y-143318211D01*
X205088609Y-143318211D02*
X205183847Y-143270592D01*
X205183847Y-143270592D02*
X205421942Y-143270592D01*
X205421942Y-143270592D02*
X205517180Y-143318211D01*
X205517180Y-143318211D02*
X205564800Y-143365830D01*
X205564800Y-143365830D02*
X205612419Y-143461068D01*
X205612419Y-143461068D02*
X205612419Y-143699163D01*
X205612419Y-143699163D02*
X205564800Y-143794401D01*
X205564800Y-143794401D02*
X205517180Y-143842020D01*
X204612419Y-142984877D02*
X205612419Y-142651544D01*
X205612419Y-142651544D02*
X204612419Y-142318211D01*
X192309180Y-90818687D02*
X192356800Y-90866306D01*
X192356800Y-90866306D02*
X192404419Y-91009163D01*
X192404419Y-91009163D02*
X192404419Y-91104401D01*
X192404419Y-91104401D02*
X192356800Y-91247258D01*
X192356800Y-91247258D02*
X192261561Y-91342496D01*
X192261561Y-91342496D02*
X192166323Y-91390115D01*
X192166323Y-91390115D02*
X191975847Y-91437734D01*
X191975847Y-91437734D02*
X191832990Y-91437734D01*
X191832990Y-91437734D02*
X191642514Y-91390115D01*
X191642514Y-91390115D02*
X191547276Y-91342496D01*
X191547276Y-91342496D02*
X191452038Y-91247258D01*
X191452038Y-91247258D02*
X191404419Y-91104401D01*
X191404419Y-91104401D02*
X191404419Y-91009163D01*
X191404419Y-91009163D02*
X191452038Y-90866306D01*
X191452038Y-90866306D02*
X191499657Y-90818687D01*
X192309180Y-89818687D02*
X192356800Y-89866306D01*
X192356800Y-89866306D02*
X192404419Y-90009163D01*
X192404419Y-90009163D02*
X192404419Y-90104401D01*
X192404419Y-90104401D02*
X192356800Y-90247258D01*
X192356800Y-90247258D02*
X192261561Y-90342496D01*
X192261561Y-90342496D02*
X192166323Y-90390115D01*
X192166323Y-90390115D02*
X191975847Y-90437734D01*
X191975847Y-90437734D02*
X191832990Y-90437734D01*
X191832990Y-90437734D02*
X191642514Y-90390115D01*
X191642514Y-90390115D02*
X191547276Y-90342496D01*
X191547276Y-90342496D02*
X191452038Y-90247258D01*
X191452038Y-90247258D02*
X191404419Y-90104401D01*
X191404419Y-90104401D02*
X191404419Y-90009163D01*
X191404419Y-90009163D02*
X191452038Y-89866306D01*
X191452038Y-89866306D02*
X191499657Y-89818687D01*
X192404419Y-89390115D02*
X191404419Y-89390115D01*
X191404419Y-89390115D02*
X191404419Y-89152020D01*
X191404419Y-89152020D02*
X191452038Y-89009163D01*
X191452038Y-89009163D02*
X191547276Y-88913925D01*
X191547276Y-88913925D02*
X191642514Y-88866306D01*
X191642514Y-88866306D02*
X191832990Y-88818687D01*
X191832990Y-88818687D02*
X191975847Y-88818687D01*
X191975847Y-88818687D02*
X192166323Y-88866306D01*
X192166323Y-88866306D02*
X192261561Y-88913925D01*
X192261561Y-88913925D02*
X192356800Y-89009163D01*
X192356800Y-89009163D02*
X192404419Y-89152020D01*
X192404419Y-89152020D02*
X192404419Y-89390115D01*
D10*
X248533183Y-94610924D02*
X248056992Y-94944257D01*
X248533183Y-95182352D02*
X247533183Y-95182352D01*
X247533183Y-95182352D02*
X247533183Y-94801400D01*
X247533183Y-94801400D02*
X247580802Y-94706162D01*
X247580802Y-94706162D02*
X247628421Y-94658543D01*
X247628421Y-94658543D02*
X247723659Y-94610924D01*
X247723659Y-94610924D02*
X247866516Y-94610924D01*
X247866516Y-94610924D02*
X247961754Y-94658543D01*
X247961754Y-94658543D02*
X248009373Y-94706162D01*
X248009373Y-94706162D02*
X248056992Y-94801400D01*
X248056992Y-94801400D02*
X248056992Y-95182352D01*
X248533183Y-93753781D02*
X248009373Y-93753781D01*
X248009373Y-93753781D02*
X247914135Y-93801400D01*
X247914135Y-93801400D02*
X247866516Y-93896638D01*
X247866516Y-93896638D02*
X247866516Y-94087114D01*
X247866516Y-94087114D02*
X247914135Y-94182352D01*
X248485564Y-93753781D02*
X248533183Y-93849019D01*
X248533183Y-93849019D02*
X248533183Y-94087114D01*
X248533183Y-94087114D02*
X248485564Y-94182352D01*
X248485564Y-94182352D02*
X248390325Y-94229971D01*
X248390325Y-94229971D02*
X248295087Y-94229971D01*
X248295087Y-94229971D02*
X248199849Y-94182352D01*
X248199849Y-94182352D02*
X248152230Y-94087114D01*
X248152230Y-94087114D02*
X248152230Y-93849019D01*
X248152230Y-93849019D02*
X248104611Y-93753781D01*
X248533183Y-93277590D02*
X247866516Y-93277590D01*
X247961754Y-93277590D02*
X247914135Y-93229971D01*
X247914135Y-93229971D02*
X247866516Y-93134733D01*
X247866516Y-93134733D02*
X247866516Y-92991876D01*
X247866516Y-92991876D02*
X247914135Y-92896638D01*
X247914135Y-92896638D02*
X248009373Y-92849019D01*
X248009373Y-92849019D02*
X248533183Y-92849019D01*
X248009373Y-92849019D02*
X247914135Y-92801400D01*
X247914135Y-92801400D02*
X247866516Y-92706162D01*
X247866516Y-92706162D02*
X247866516Y-92563305D01*
X247866516Y-92563305D02*
X247914135Y-92468066D01*
X247914135Y-92468066D02*
X248009373Y-92420447D01*
X248009373Y-92420447D02*
X248533183Y-92420447D01*
X248533183Y-91515686D02*
X248009373Y-91515686D01*
X248009373Y-91515686D02*
X247914135Y-91563305D01*
X247914135Y-91563305D02*
X247866516Y-91658543D01*
X247866516Y-91658543D02*
X247866516Y-91849019D01*
X247866516Y-91849019D02*
X247914135Y-91944257D01*
X248485564Y-91515686D02*
X248533183Y-91610924D01*
X248533183Y-91610924D02*
X248533183Y-91849019D01*
X248533183Y-91849019D02*
X248485564Y-91944257D01*
X248485564Y-91944257D02*
X248390325Y-91991876D01*
X248390325Y-91991876D02*
X248295087Y-91991876D01*
X248295087Y-91991876D02*
X248199849Y-91944257D01*
X248199849Y-91944257D02*
X248152230Y-91849019D01*
X248152230Y-91849019D02*
X248152230Y-91610924D01*
X248152230Y-91610924D02*
X248104611Y-91515686D01*
X247866516Y-91039495D02*
X248533183Y-91039495D01*
X247961754Y-91039495D02*
X247914135Y-90991876D01*
X247914135Y-90991876D02*
X247866516Y-90896638D01*
X247866516Y-90896638D02*
X247866516Y-90753781D01*
X247866516Y-90753781D02*
X247914135Y-90658543D01*
X247914135Y-90658543D02*
X248009373Y-90610924D01*
X248009373Y-90610924D02*
X248533183Y-90610924D01*
X248485564Y-89420447D02*
X248533183Y-89277590D01*
X248533183Y-89277590D02*
X248533183Y-89039495D01*
X248533183Y-89039495D02*
X248485564Y-88944257D01*
X248485564Y-88944257D02*
X248437944Y-88896638D01*
X248437944Y-88896638D02*
X248342706Y-88849019D01*
X248342706Y-88849019D02*
X248247468Y-88849019D01*
X248247468Y-88849019D02*
X248152230Y-88896638D01*
X248152230Y-88896638D02*
X248104611Y-88944257D01*
X248104611Y-88944257D02*
X248056992Y-89039495D01*
X248056992Y-89039495D02*
X248009373Y-89229971D01*
X248009373Y-89229971D02*
X247961754Y-89325209D01*
X247961754Y-89325209D02*
X247914135Y-89372828D01*
X247914135Y-89372828D02*
X247818897Y-89420447D01*
X247818897Y-89420447D02*
X247723659Y-89420447D01*
X247723659Y-89420447D02*
X247628421Y-89372828D01*
X247628421Y-89372828D02*
X247580802Y-89325209D01*
X247580802Y-89325209D02*
X247533183Y-89229971D01*
X247533183Y-89229971D02*
X247533183Y-88991876D01*
X247533183Y-88991876D02*
X247580802Y-88849019D01*
X247866516Y-88420447D02*
X248866516Y-88420447D01*
X247914135Y-88420447D02*
X247866516Y-88325209D01*
X247866516Y-88325209D02*
X247866516Y-88134733D01*
X247866516Y-88134733D02*
X247914135Y-88039495D01*
X247914135Y-88039495D02*
X247961754Y-87991876D01*
X247961754Y-87991876D02*
X248056992Y-87944257D01*
X248056992Y-87944257D02*
X248342706Y-87944257D01*
X248342706Y-87944257D02*
X248437944Y-87991876D01*
X248437944Y-87991876D02*
X248485564Y-88039495D01*
X248485564Y-88039495D02*
X248533183Y-88134733D01*
X248533183Y-88134733D02*
X248533183Y-88325209D01*
X248533183Y-88325209D02*
X248485564Y-88420447D01*
X248485564Y-87134733D02*
X248533183Y-87229971D01*
X248533183Y-87229971D02*
X248533183Y-87420447D01*
X248533183Y-87420447D02*
X248485564Y-87515685D01*
X248485564Y-87515685D02*
X248390325Y-87563304D01*
X248390325Y-87563304D02*
X248009373Y-87563304D01*
X248009373Y-87563304D02*
X247914135Y-87515685D01*
X247914135Y-87515685D02*
X247866516Y-87420447D01*
X247866516Y-87420447D02*
X247866516Y-87229971D01*
X247866516Y-87229971D02*
X247914135Y-87134733D01*
X247914135Y-87134733D02*
X248009373Y-87087114D01*
X248009373Y-87087114D02*
X248104611Y-87087114D01*
X248104611Y-87087114D02*
X248199849Y-87563304D01*
X248485564Y-86229971D02*
X248533183Y-86325209D01*
X248533183Y-86325209D02*
X248533183Y-86515685D01*
X248533183Y-86515685D02*
X248485564Y-86610923D01*
X248485564Y-86610923D02*
X248437944Y-86658542D01*
X248437944Y-86658542D02*
X248342706Y-86706161D01*
X248342706Y-86706161D02*
X248056992Y-86706161D01*
X248056992Y-86706161D02*
X247961754Y-86658542D01*
X247961754Y-86658542D02*
X247914135Y-86610923D01*
X247914135Y-86610923D02*
X247866516Y-86515685D01*
X247866516Y-86515685D02*
X247866516Y-86325209D01*
X247866516Y-86325209D02*
X247914135Y-86229971D01*
X247866516Y-85944256D02*
X247866516Y-85563304D01*
X247533183Y-85801399D02*
X248390325Y-85801399D01*
X248390325Y-85801399D02*
X248485564Y-85753780D01*
X248485564Y-85753780D02*
X248533183Y-85658542D01*
X248533183Y-85658542D02*
X248533183Y-85563304D01*
X248533183Y-85229970D02*
X247866516Y-85229970D01*
X248056992Y-85229970D02*
X247961754Y-85182351D01*
X247961754Y-85182351D02*
X247914135Y-85134732D01*
X247914135Y-85134732D02*
X247866516Y-85039494D01*
X247866516Y-85039494D02*
X247866516Y-84944256D01*
X248533183Y-84468065D02*
X248485564Y-84563303D01*
X248485564Y-84563303D02*
X248437944Y-84610922D01*
X248437944Y-84610922D02*
X248342706Y-84658541D01*
X248342706Y-84658541D02*
X248056992Y-84658541D01*
X248056992Y-84658541D02*
X247961754Y-84610922D01*
X247961754Y-84610922D02*
X247914135Y-84563303D01*
X247914135Y-84563303D02*
X247866516Y-84468065D01*
X247866516Y-84468065D02*
X247866516Y-84325208D01*
X247866516Y-84325208D02*
X247914135Y-84229970D01*
X247914135Y-84229970D02*
X247961754Y-84182351D01*
X247961754Y-84182351D02*
X248056992Y-84134732D01*
X248056992Y-84134732D02*
X248342706Y-84134732D01*
X248342706Y-84134732D02*
X248437944Y-84182351D01*
X248437944Y-84182351D02*
X248485564Y-84229970D01*
X248485564Y-84229970D02*
X248533183Y-84325208D01*
X248533183Y-84325208D02*
X248533183Y-84468065D01*
X248533183Y-83706160D02*
X247866516Y-83706160D01*
X247961754Y-83706160D02*
X247914135Y-83658541D01*
X247914135Y-83658541D02*
X247866516Y-83563303D01*
X247866516Y-83563303D02*
X247866516Y-83420446D01*
X247866516Y-83420446D02*
X247914135Y-83325208D01*
X247914135Y-83325208D02*
X248009373Y-83277589D01*
X248009373Y-83277589D02*
X248533183Y-83277589D01*
X248009373Y-83277589D02*
X247914135Y-83229970D01*
X247914135Y-83229970D02*
X247866516Y-83134732D01*
X247866516Y-83134732D02*
X247866516Y-82991875D01*
X247866516Y-82991875D02*
X247914135Y-82896636D01*
X247914135Y-82896636D02*
X248009373Y-82849017D01*
X248009373Y-82849017D02*
X248533183Y-82849017D01*
X248485564Y-81991875D02*
X248533183Y-82087113D01*
X248533183Y-82087113D02*
X248533183Y-82277589D01*
X248533183Y-82277589D02*
X248485564Y-82372827D01*
X248485564Y-82372827D02*
X248390325Y-82420446D01*
X248390325Y-82420446D02*
X248009373Y-82420446D01*
X248009373Y-82420446D02*
X247914135Y-82372827D01*
X247914135Y-82372827D02*
X247866516Y-82277589D01*
X247866516Y-82277589D02*
X247866516Y-82087113D01*
X247866516Y-82087113D02*
X247914135Y-81991875D01*
X247914135Y-81991875D02*
X248009373Y-81944256D01*
X248009373Y-81944256D02*
X248104611Y-81944256D01*
X248104611Y-81944256D02*
X248199849Y-82420446D01*
X247866516Y-81658541D02*
X247866516Y-81277589D01*
X247533183Y-81515684D02*
X248390325Y-81515684D01*
X248390325Y-81515684D02*
X248485564Y-81468065D01*
X248485564Y-81468065D02*
X248533183Y-81372827D01*
X248533183Y-81372827D02*
X248533183Y-81277589D01*
X248485564Y-80563303D02*
X248533183Y-80658541D01*
X248533183Y-80658541D02*
X248533183Y-80849017D01*
X248533183Y-80849017D02*
X248485564Y-80944255D01*
X248485564Y-80944255D02*
X248390325Y-80991874D01*
X248390325Y-80991874D02*
X248009373Y-80991874D01*
X248009373Y-80991874D02*
X247914135Y-80944255D01*
X247914135Y-80944255D02*
X247866516Y-80849017D01*
X247866516Y-80849017D02*
X247866516Y-80658541D01*
X247866516Y-80658541D02*
X247914135Y-80563303D01*
X247914135Y-80563303D02*
X248009373Y-80515684D01*
X248009373Y-80515684D02*
X248104611Y-80515684D01*
X248104611Y-80515684D02*
X248199849Y-80991874D01*
X248533183Y-80087112D02*
X247866516Y-80087112D01*
X248056992Y-80087112D02*
X247961754Y-80039493D01*
X247961754Y-80039493D02*
X247914135Y-79991874D01*
X247914135Y-79991874D02*
X247866516Y-79896636D01*
X247866516Y-79896636D02*
X247866516Y-79801398D01*
X248485564Y-79420445D02*
X248533183Y-79420445D01*
X248533183Y-79420445D02*
X248628421Y-79468064D01*
X248628421Y-79468064D02*
X248676040Y-79515683D01*
X248533183Y-77658541D02*
X248056992Y-77991874D01*
X248533183Y-78229969D02*
X247533183Y-78229969D01*
X247533183Y-78229969D02*
X247533183Y-77849017D01*
X247533183Y-77849017D02*
X247580802Y-77753779D01*
X247580802Y-77753779D02*
X247628421Y-77706160D01*
X247628421Y-77706160D02*
X247723659Y-77658541D01*
X247723659Y-77658541D02*
X247866516Y-77658541D01*
X247866516Y-77658541D02*
X247961754Y-77706160D01*
X247961754Y-77706160D02*
X248009373Y-77753779D01*
X248009373Y-77753779D02*
X248056992Y-77849017D01*
X248056992Y-77849017D02*
X248056992Y-78229969D01*
X248485564Y-76849017D02*
X248533183Y-76944255D01*
X248533183Y-76944255D02*
X248533183Y-77134731D01*
X248533183Y-77134731D02*
X248485564Y-77229969D01*
X248485564Y-77229969D02*
X248390325Y-77277588D01*
X248390325Y-77277588D02*
X248009373Y-77277588D01*
X248009373Y-77277588D02*
X247914135Y-77229969D01*
X247914135Y-77229969D02*
X247866516Y-77134731D01*
X247866516Y-77134731D02*
X247866516Y-76944255D01*
X247866516Y-76944255D02*
X247914135Y-76849017D01*
X247914135Y-76849017D02*
X248009373Y-76801398D01*
X248009373Y-76801398D02*
X248104611Y-76801398D01*
X248104611Y-76801398D02*
X248199849Y-77277588D01*
X247866516Y-76468064D02*
X248533183Y-76229969D01*
X248533183Y-76229969D02*
X247866516Y-75991874D01*
X248533183Y-74325207D02*
X248533183Y-74896635D01*
X248533183Y-74610921D02*
X247533183Y-74610921D01*
X247533183Y-74610921D02*
X247676040Y-74706159D01*
X247676040Y-74706159D02*
X247771278Y-74801397D01*
X247771278Y-74801397D02*
X247818897Y-74896635D01*
X250143127Y-95182352D02*
X249143127Y-95182352D01*
X249143127Y-95182352D02*
X249857412Y-94849019D01*
X249857412Y-94849019D02*
X249143127Y-94515686D01*
X249143127Y-94515686D02*
X250143127Y-94515686D01*
X250143127Y-93610924D02*
X249619317Y-93610924D01*
X249619317Y-93610924D02*
X249524079Y-93658543D01*
X249524079Y-93658543D02*
X249476460Y-93753781D01*
X249476460Y-93753781D02*
X249476460Y-93944257D01*
X249476460Y-93944257D02*
X249524079Y-94039495D01*
X250095508Y-93610924D02*
X250143127Y-93706162D01*
X250143127Y-93706162D02*
X250143127Y-93944257D01*
X250143127Y-93944257D02*
X250095508Y-94039495D01*
X250095508Y-94039495D02*
X250000269Y-94087114D01*
X250000269Y-94087114D02*
X249905031Y-94087114D01*
X249905031Y-94087114D02*
X249809793Y-94039495D01*
X249809793Y-94039495D02*
X249762174Y-93944257D01*
X249762174Y-93944257D02*
X249762174Y-93706162D01*
X249762174Y-93706162D02*
X249714555Y-93610924D01*
X250143127Y-93134733D02*
X249476460Y-93134733D01*
X249666936Y-93134733D02*
X249571698Y-93087114D01*
X249571698Y-93087114D02*
X249524079Y-93039495D01*
X249524079Y-93039495D02*
X249476460Y-92944257D01*
X249476460Y-92944257D02*
X249476460Y-92849019D01*
X250095508Y-92563304D02*
X250143127Y-92468066D01*
X250143127Y-92468066D02*
X250143127Y-92277590D01*
X250143127Y-92277590D02*
X250095508Y-92182352D01*
X250095508Y-92182352D02*
X250000269Y-92134733D01*
X250000269Y-92134733D02*
X249952650Y-92134733D01*
X249952650Y-92134733D02*
X249857412Y-92182352D01*
X249857412Y-92182352D02*
X249809793Y-92277590D01*
X249809793Y-92277590D02*
X249809793Y-92420447D01*
X249809793Y-92420447D02*
X249762174Y-92515685D01*
X249762174Y-92515685D02*
X249666936Y-92563304D01*
X249666936Y-92563304D02*
X249619317Y-92563304D01*
X249619317Y-92563304D02*
X249524079Y-92515685D01*
X249524079Y-92515685D02*
X249476460Y-92420447D01*
X249476460Y-92420447D02*
X249476460Y-92277590D01*
X249476460Y-92277590D02*
X249524079Y-92182352D01*
X250143127Y-90372828D02*
X249666936Y-90706161D01*
X250143127Y-90944256D02*
X249143127Y-90944256D01*
X249143127Y-90944256D02*
X249143127Y-90563304D01*
X249143127Y-90563304D02*
X249190746Y-90468066D01*
X249190746Y-90468066D02*
X249238365Y-90420447D01*
X249238365Y-90420447D02*
X249333603Y-90372828D01*
X249333603Y-90372828D02*
X249476460Y-90372828D01*
X249476460Y-90372828D02*
X249571698Y-90420447D01*
X249571698Y-90420447D02*
X249619317Y-90468066D01*
X249619317Y-90468066D02*
X249666936Y-90563304D01*
X249666936Y-90563304D02*
X249666936Y-90944256D01*
X250143127Y-89801399D02*
X250095508Y-89896637D01*
X250095508Y-89896637D02*
X250047888Y-89944256D01*
X250047888Y-89944256D02*
X249952650Y-89991875D01*
X249952650Y-89991875D02*
X249666936Y-89991875D01*
X249666936Y-89991875D02*
X249571698Y-89944256D01*
X249571698Y-89944256D02*
X249524079Y-89896637D01*
X249524079Y-89896637D02*
X249476460Y-89801399D01*
X249476460Y-89801399D02*
X249476460Y-89658542D01*
X249476460Y-89658542D02*
X249524079Y-89563304D01*
X249524079Y-89563304D02*
X249571698Y-89515685D01*
X249571698Y-89515685D02*
X249666936Y-89468066D01*
X249666936Y-89468066D02*
X249952650Y-89468066D01*
X249952650Y-89468066D02*
X250047888Y-89515685D01*
X250047888Y-89515685D02*
X250095508Y-89563304D01*
X250095508Y-89563304D02*
X250143127Y-89658542D01*
X250143127Y-89658542D02*
X250143127Y-89801399D01*
X249476460Y-89134732D02*
X250143127Y-88896637D01*
X250143127Y-88896637D02*
X249476460Y-88658542D01*
X250095508Y-87896637D02*
X250143127Y-87991875D01*
X250143127Y-87991875D02*
X250143127Y-88182351D01*
X250143127Y-88182351D02*
X250095508Y-88277589D01*
X250095508Y-88277589D02*
X250000269Y-88325208D01*
X250000269Y-88325208D02*
X249619317Y-88325208D01*
X249619317Y-88325208D02*
X249524079Y-88277589D01*
X249524079Y-88277589D02*
X249476460Y-88182351D01*
X249476460Y-88182351D02*
X249476460Y-87991875D01*
X249476460Y-87991875D02*
X249524079Y-87896637D01*
X249524079Y-87896637D02*
X249619317Y-87849018D01*
X249619317Y-87849018D02*
X249714555Y-87849018D01*
X249714555Y-87849018D02*
X249809793Y-88325208D01*
X250143127Y-87420446D02*
X249476460Y-87420446D01*
X249666936Y-87420446D02*
X249571698Y-87372827D01*
X249571698Y-87372827D02*
X249524079Y-87325208D01*
X249524079Y-87325208D02*
X249476460Y-87229970D01*
X249476460Y-87229970D02*
X249476460Y-87134732D01*
X250095508Y-86753779D02*
X250143127Y-86753779D01*
X250143127Y-86753779D02*
X250238365Y-86801398D01*
X250238365Y-86801398D02*
X250285984Y-86849017D01*
X249238365Y-85610922D02*
X249190746Y-85563303D01*
X249190746Y-85563303D02*
X249143127Y-85468065D01*
X249143127Y-85468065D02*
X249143127Y-85229970D01*
X249143127Y-85229970D02*
X249190746Y-85134732D01*
X249190746Y-85134732D02*
X249238365Y-85087113D01*
X249238365Y-85087113D02*
X249333603Y-85039494D01*
X249333603Y-85039494D02*
X249428841Y-85039494D01*
X249428841Y-85039494D02*
X249571698Y-85087113D01*
X249571698Y-85087113D02*
X250143127Y-85658541D01*
X250143127Y-85658541D02*
X250143127Y-85039494D01*
X249143127Y-84420446D02*
X249143127Y-84325208D01*
X249143127Y-84325208D02*
X249190746Y-84229970D01*
X249190746Y-84229970D02*
X249238365Y-84182351D01*
X249238365Y-84182351D02*
X249333603Y-84134732D01*
X249333603Y-84134732D02*
X249524079Y-84087113D01*
X249524079Y-84087113D02*
X249762174Y-84087113D01*
X249762174Y-84087113D02*
X249952650Y-84134732D01*
X249952650Y-84134732D02*
X250047888Y-84182351D01*
X250047888Y-84182351D02*
X250095508Y-84229970D01*
X250095508Y-84229970D02*
X250143127Y-84325208D01*
X250143127Y-84325208D02*
X250143127Y-84420446D01*
X250143127Y-84420446D02*
X250095508Y-84515684D01*
X250095508Y-84515684D02*
X250047888Y-84563303D01*
X250047888Y-84563303D02*
X249952650Y-84610922D01*
X249952650Y-84610922D02*
X249762174Y-84658541D01*
X249762174Y-84658541D02*
X249524079Y-84658541D01*
X249524079Y-84658541D02*
X249333603Y-84610922D01*
X249333603Y-84610922D02*
X249238365Y-84563303D01*
X249238365Y-84563303D02*
X249190746Y-84515684D01*
X249190746Y-84515684D02*
X249143127Y-84420446D01*
X249238365Y-83706160D02*
X249190746Y-83658541D01*
X249190746Y-83658541D02*
X249143127Y-83563303D01*
X249143127Y-83563303D02*
X249143127Y-83325208D01*
X249143127Y-83325208D02*
X249190746Y-83229970D01*
X249190746Y-83229970D02*
X249238365Y-83182351D01*
X249238365Y-83182351D02*
X249333603Y-83134732D01*
X249333603Y-83134732D02*
X249428841Y-83134732D01*
X249428841Y-83134732D02*
X249571698Y-83182351D01*
X249571698Y-83182351D02*
X250143127Y-83753779D01*
X250143127Y-83753779D02*
X250143127Y-83134732D01*
X249143127Y-82229970D02*
X249143127Y-82706160D01*
X249143127Y-82706160D02*
X249619317Y-82753779D01*
X249619317Y-82753779D02*
X249571698Y-82706160D01*
X249571698Y-82706160D02*
X249524079Y-82610922D01*
X249524079Y-82610922D02*
X249524079Y-82372827D01*
X249524079Y-82372827D02*
X249571698Y-82277589D01*
X249571698Y-82277589D02*
X249619317Y-82229970D01*
X249619317Y-82229970D02*
X249714555Y-82182351D01*
X249714555Y-82182351D02*
X249952650Y-82182351D01*
X249952650Y-82182351D02*
X250047888Y-82229970D01*
X250047888Y-82229970D02*
X250095508Y-82277589D01*
X250095508Y-82277589D02*
X250143127Y-82372827D01*
X250143127Y-82372827D02*
X250143127Y-82610922D01*
X250143127Y-82610922D02*
X250095508Y-82706160D01*
X250095508Y-82706160D02*
X250047888Y-82753779D01*
X251753071Y-95182352D02*
X250753071Y-95182352D01*
X250753071Y-95182352D02*
X251467356Y-94849019D01*
X251467356Y-94849019D02*
X250753071Y-94515686D01*
X250753071Y-94515686D02*
X251753071Y-94515686D01*
X251753071Y-94039495D02*
X251086404Y-94039495D01*
X250753071Y-94039495D02*
X250800690Y-94087114D01*
X250800690Y-94087114D02*
X250848309Y-94039495D01*
X250848309Y-94039495D02*
X250800690Y-93991876D01*
X250800690Y-93991876D02*
X250753071Y-94039495D01*
X250753071Y-94039495D02*
X250848309Y-94039495D01*
X251705452Y-93610924D02*
X251753071Y-93515686D01*
X251753071Y-93515686D02*
X251753071Y-93325210D01*
X251753071Y-93325210D02*
X251705452Y-93229972D01*
X251705452Y-93229972D02*
X251610213Y-93182353D01*
X251610213Y-93182353D02*
X251562594Y-93182353D01*
X251562594Y-93182353D02*
X251467356Y-93229972D01*
X251467356Y-93229972D02*
X251419737Y-93325210D01*
X251419737Y-93325210D02*
X251419737Y-93468067D01*
X251419737Y-93468067D02*
X251372118Y-93563305D01*
X251372118Y-93563305D02*
X251276880Y-93610924D01*
X251276880Y-93610924D02*
X251229261Y-93610924D01*
X251229261Y-93610924D02*
X251134023Y-93563305D01*
X251134023Y-93563305D02*
X251086404Y-93468067D01*
X251086404Y-93468067D02*
X251086404Y-93325210D01*
X251086404Y-93325210D02*
X251134023Y-93229972D01*
X251705452Y-92801400D02*
X251753071Y-92706162D01*
X251753071Y-92706162D02*
X251753071Y-92515686D01*
X251753071Y-92515686D02*
X251705452Y-92420448D01*
X251705452Y-92420448D02*
X251610213Y-92372829D01*
X251610213Y-92372829D02*
X251562594Y-92372829D01*
X251562594Y-92372829D02*
X251467356Y-92420448D01*
X251467356Y-92420448D02*
X251419737Y-92515686D01*
X251419737Y-92515686D02*
X251419737Y-92658543D01*
X251419737Y-92658543D02*
X251372118Y-92753781D01*
X251372118Y-92753781D02*
X251276880Y-92801400D01*
X251276880Y-92801400D02*
X251229261Y-92801400D01*
X251229261Y-92801400D02*
X251134023Y-92753781D01*
X251134023Y-92753781D02*
X251086404Y-92658543D01*
X251086404Y-92658543D02*
X251086404Y-92515686D01*
X251086404Y-92515686D02*
X251134023Y-92420448D01*
X251753071Y-91801400D02*
X251705452Y-91896638D01*
X251705452Y-91896638D02*
X251657832Y-91944257D01*
X251657832Y-91944257D02*
X251562594Y-91991876D01*
X251562594Y-91991876D02*
X251276880Y-91991876D01*
X251276880Y-91991876D02*
X251181642Y-91944257D01*
X251181642Y-91944257D02*
X251134023Y-91896638D01*
X251134023Y-91896638D02*
X251086404Y-91801400D01*
X251086404Y-91801400D02*
X251086404Y-91658543D01*
X251086404Y-91658543D02*
X251134023Y-91563305D01*
X251134023Y-91563305D02*
X251181642Y-91515686D01*
X251181642Y-91515686D02*
X251276880Y-91468067D01*
X251276880Y-91468067D02*
X251562594Y-91468067D01*
X251562594Y-91468067D02*
X251657832Y-91515686D01*
X251657832Y-91515686D02*
X251705452Y-91563305D01*
X251705452Y-91563305D02*
X251753071Y-91658543D01*
X251753071Y-91658543D02*
X251753071Y-91801400D01*
X251086404Y-90610924D02*
X251753071Y-90610924D01*
X251086404Y-91039495D02*
X251610213Y-91039495D01*
X251610213Y-91039495D02*
X251705452Y-90991876D01*
X251705452Y-90991876D02*
X251753071Y-90896638D01*
X251753071Y-90896638D02*
X251753071Y-90753781D01*
X251753071Y-90753781D02*
X251705452Y-90658543D01*
X251705452Y-90658543D02*
X251657832Y-90610924D01*
X251753071Y-90134733D02*
X251086404Y-90134733D01*
X251276880Y-90134733D02*
X251181642Y-90087114D01*
X251181642Y-90087114D02*
X251134023Y-90039495D01*
X251134023Y-90039495D02*
X251086404Y-89944257D01*
X251086404Y-89944257D02*
X251086404Y-89849019D01*
X251753071Y-89515685D02*
X251086404Y-89515685D01*
X250753071Y-89515685D02*
X250800690Y-89563304D01*
X250800690Y-89563304D02*
X250848309Y-89515685D01*
X250848309Y-89515685D02*
X250800690Y-89468066D01*
X250800690Y-89468066D02*
X250753071Y-89515685D01*
X250753071Y-89515685D02*
X250848309Y-89515685D01*
X251705452Y-88325209D02*
X251753071Y-88182352D01*
X251753071Y-88182352D02*
X251753071Y-87944257D01*
X251753071Y-87944257D02*
X251705452Y-87849019D01*
X251705452Y-87849019D02*
X251657832Y-87801400D01*
X251657832Y-87801400D02*
X251562594Y-87753781D01*
X251562594Y-87753781D02*
X251467356Y-87753781D01*
X251467356Y-87753781D02*
X251372118Y-87801400D01*
X251372118Y-87801400D02*
X251324499Y-87849019D01*
X251324499Y-87849019D02*
X251276880Y-87944257D01*
X251276880Y-87944257D02*
X251229261Y-88134733D01*
X251229261Y-88134733D02*
X251181642Y-88229971D01*
X251181642Y-88229971D02*
X251134023Y-88277590D01*
X251134023Y-88277590D02*
X251038785Y-88325209D01*
X251038785Y-88325209D02*
X250943547Y-88325209D01*
X250943547Y-88325209D02*
X250848309Y-88277590D01*
X250848309Y-88277590D02*
X250800690Y-88229971D01*
X250800690Y-88229971D02*
X250753071Y-88134733D01*
X250753071Y-88134733D02*
X250753071Y-87896638D01*
X250753071Y-87896638D02*
X250800690Y-87753781D01*
X251753071Y-86515685D02*
X251753071Y-86563305D01*
X251753071Y-86563305D02*
X251705452Y-86658543D01*
X251705452Y-86658543D02*
X251562594Y-86801400D01*
X251562594Y-86801400D02*
X251276880Y-87039495D01*
X251276880Y-87039495D02*
X251134023Y-87134733D01*
X251134023Y-87134733D02*
X250991166Y-87182352D01*
X250991166Y-87182352D02*
X250895928Y-87182352D01*
X250895928Y-87182352D02*
X250800690Y-87134733D01*
X250800690Y-87134733D02*
X250753071Y-87039495D01*
X250753071Y-87039495D02*
X250753071Y-86991876D01*
X250753071Y-86991876D02*
X250800690Y-86896638D01*
X250800690Y-86896638D02*
X250895928Y-86849019D01*
X250895928Y-86849019D02*
X250943547Y-86849019D01*
X250943547Y-86849019D02*
X251038785Y-86896638D01*
X251038785Y-86896638D02*
X251086404Y-86944257D01*
X251086404Y-86944257D02*
X251276880Y-87229971D01*
X251276880Y-87229971D02*
X251324499Y-87277590D01*
X251324499Y-87277590D02*
X251419737Y-87325209D01*
X251419737Y-87325209D02*
X251562594Y-87325209D01*
X251562594Y-87325209D02*
X251657832Y-87277590D01*
X251657832Y-87277590D02*
X251705452Y-87229971D01*
X251705452Y-87229971D02*
X251753071Y-87134733D01*
X251753071Y-87134733D02*
X251753071Y-86991876D01*
X251753071Y-86991876D02*
X251705452Y-86896638D01*
X251705452Y-86896638D02*
X251657832Y-86849019D01*
X251657832Y-86849019D02*
X251467356Y-86706162D01*
X251467356Y-86706162D02*
X251324499Y-86658543D01*
X251324499Y-86658543D02*
X251229261Y-86658543D01*
X250753071Y-86229971D02*
X250753071Y-85658543D01*
X251753071Y-85944257D02*
X250753071Y-85944257D01*
X252363015Y-95277590D02*
X252363015Y-94610924D01*
X252363015Y-94610924D02*
X253363015Y-95277590D01*
X253363015Y-95277590D02*
X253363015Y-94610924D01*
X253315396Y-93849019D02*
X253363015Y-93944257D01*
X253363015Y-93944257D02*
X253363015Y-94134733D01*
X253363015Y-94134733D02*
X253315396Y-94229971D01*
X253315396Y-94229971D02*
X253220157Y-94277590D01*
X253220157Y-94277590D02*
X252839205Y-94277590D01*
X252839205Y-94277590D02*
X252743967Y-94229971D01*
X252743967Y-94229971D02*
X252696348Y-94134733D01*
X252696348Y-94134733D02*
X252696348Y-93944257D01*
X252696348Y-93944257D02*
X252743967Y-93849019D01*
X252743967Y-93849019D02*
X252839205Y-93801400D01*
X252839205Y-93801400D02*
X252934443Y-93801400D01*
X252934443Y-93801400D02*
X253029681Y-94277590D01*
X252696348Y-93372828D02*
X253363015Y-93372828D01*
X252791586Y-93372828D02*
X252743967Y-93325209D01*
X252743967Y-93325209D02*
X252696348Y-93229971D01*
X252696348Y-93229971D02*
X252696348Y-93087114D01*
X252696348Y-93087114D02*
X252743967Y-92991876D01*
X252743967Y-92991876D02*
X252839205Y-92944257D01*
X252839205Y-92944257D02*
X253363015Y-92944257D01*
X252363015Y-91849018D02*
X252363015Y-91277590D01*
X253363015Y-91563304D02*
X252363015Y-91563304D01*
X253363015Y-90944256D02*
X252363015Y-90944256D01*
X253363015Y-90515685D02*
X252839205Y-90515685D01*
X252839205Y-90515685D02*
X252743967Y-90563304D01*
X252743967Y-90563304D02*
X252696348Y-90658542D01*
X252696348Y-90658542D02*
X252696348Y-90801399D01*
X252696348Y-90801399D02*
X252743967Y-90896637D01*
X252743967Y-90896637D02*
X252791586Y-90944256D01*
X252696348Y-89610923D02*
X253363015Y-89610923D01*
X252696348Y-90039494D02*
X253220157Y-90039494D01*
X253220157Y-90039494D02*
X253315396Y-89991875D01*
X253315396Y-89991875D02*
X253363015Y-89896637D01*
X253363015Y-89896637D02*
X253363015Y-89753780D01*
X253363015Y-89753780D02*
X253315396Y-89658542D01*
X253315396Y-89658542D02*
X253267776Y-89610923D01*
X253363015Y-89134732D02*
X252696348Y-89134732D01*
X252886824Y-89134732D02*
X252791586Y-89087113D01*
X252791586Y-89087113D02*
X252743967Y-89039494D01*
X252743967Y-89039494D02*
X252696348Y-88944256D01*
X252696348Y-88944256D02*
X252696348Y-88849018D01*
X253363015Y-88515684D02*
X252696348Y-88515684D01*
X252791586Y-88515684D02*
X252743967Y-88468065D01*
X252743967Y-88468065D02*
X252696348Y-88372827D01*
X252696348Y-88372827D02*
X252696348Y-88229970D01*
X252696348Y-88229970D02*
X252743967Y-88134732D01*
X252743967Y-88134732D02*
X252839205Y-88087113D01*
X252839205Y-88087113D02*
X253363015Y-88087113D01*
X252839205Y-88087113D02*
X252743967Y-88039494D01*
X252743967Y-88039494D02*
X252696348Y-87944256D01*
X252696348Y-87944256D02*
X252696348Y-87801399D01*
X252696348Y-87801399D02*
X252743967Y-87706160D01*
X252743967Y-87706160D02*
X252839205Y-87658541D01*
X252839205Y-87658541D02*
X253363015Y-87658541D01*
X253363015Y-86753780D02*
X252839205Y-86753780D01*
X252839205Y-86753780D02*
X252743967Y-86801399D01*
X252743967Y-86801399D02*
X252696348Y-86896637D01*
X252696348Y-86896637D02*
X252696348Y-87087113D01*
X252696348Y-87087113D02*
X252743967Y-87182351D01*
X253315396Y-86753780D02*
X253363015Y-86849018D01*
X253363015Y-86849018D02*
X253363015Y-87087113D01*
X253363015Y-87087113D02*
X253315396Y-87182351D01*
X253315396Y-87182351D02*
X253220157Y-87229970D01*
X253220157Y-87229970D02*
X253124919Y-87229970D01*
X253124919Y-87229970D02*
X253029681Y-87182351D01*
X253029681Y-87182351D02*
X252982062Y-87087113D01*
X252982062Y-87087113D02*
X252982062Y-86849018D01*
X252982062Y-86849018D02*
X252934443Y-86753780D01*
X252696348Y-86277589D02*
X253363015Y-86277589D01*
X252791586Y-86277589D02*
X252743967Y-86229970D01*
X252743967Y-86229970D02*
X252696348Y-86134732D01*
X252696348Y-86134732D02*
X252696348Y-85991875D01*
X252696348Y-85991875D02*
X252743967Y-85896637D01*
X252743967Y-85896637D02*
X252839205Y-85849018D01*
X252839205Y-85849018D02*
X253363015Y-85849018D01*
X253363015Y-83801398D02*
X253363015Y-83849018D01*
X253363015Y-83849018D02*
X253315396Y-83944256D01*
X253315396Y-83944256D02*
X253172538Y-84087113D01*
X253172538Y-84087113D02*
X252886824Y-84325208D01*
X252886824Y-84325208D02*
X252743967Y-84420446D01*
X252743967Y-84420446D02*
X252601110Y-84468065D01*
X252601110Y-84468065D02*
X252505872Y-84468065D01*
X252505872Y-84468065D02*
X252410634Y-84420446D01*
X252410634Y-84420446D02*
X252363015Y-84325208D01*
X252363015Y-84325208D02*
X252363015Y-84277589D01*
X252363015Y-84277589D02*
X252410634Y-84182351D01*
X252410634Y-84182351D02*
X252505872Y-84134732D01*
X252505872Y-84134732D02*
X252553491Y-84134732D01*
X252553491Y-84134732D02*
X252648729Y-84182351D01*
X252648729Y-84182351D02*
X252696348Y-84229970D01*
X252696348Y-84229970D02*
X252886824Y-84515684D01*
X252886824Y-84515684D02*
X252934443Y-84563303D01*
X252934443Y-84563303D02*
X253029681Y-84610922D01*
X253029681Y-84610922D02*
X253172538Y-84610922D01*
X253172538Y-84610922D02*
X253267776Y-84563303D01*
X253267776Y-84563303D02*
X253315396Y-84515684D01*
X253315396Y-84515684D02*
X253363015Y-84420446D01*
X253363015Y-84420446D02*
X253363015Y-84277589D01*
X253363015Y-84277589D02*
X253315396Y-84182351D01*
X253315396Y-84182351D02*
X253267776Y-84134732D01*
X253267776Y-84134732D02*
X253077300Y-83991875D01*
X253077300Y-83991875D02*
X252934443Y-83944256D01*
X252934443Y-83944256D02*
X252839205Y-83944256D01*
X253363015Y-82610922D02*
X252363015Y-82610922D01*
X252363015Y-82610922D02*
X253363015Y-82039494D01*
X253363015Y-82039494D02*
X252363015Y-82039494D01*
X253363015Y-81420446D02*
X253315396Y-81515684D01*
X253315396Y-81515684D02*
X253267776Y-81563303D01*
X253267776Y-81563303D02*
X253172538Y-81610922D01*
X253172538Y-81610922D02*
X252886824Y-81610922D01*
X252886824Y-81610922D02*
X252791586Y-81563303D01*
X252791586Y-81563303D02*
X252743967Y-81515684D01*
X252743967Y-81515684D02*
X252696348Y-81420446D01*
X252696348Y-81420446D02*
X252696348Y-81277589D01*
X252696348Y-81277589D02*
X252743967Y-81182351D01*
X252743967Y-81182351D02*
X252791586Y-81134732D01*
X252791586Y-81134732D02*
X252886824Y-81087113D01*
X252886824Y-81087113D02*
X253172538Y-81087113D01*
X253172538Y-81087113D02*
X253267776Y-81134732D01*
X253267776Y-81134732D02*
X253315396Y-81182351D01*
X253315396Y-81182351D02*
X253363015Y-81277589D01*
X253363015Y-81277589D02*
X253363015Y-81420446D01*
X253363015Y-80229970D02*
X252839205Y-80229970D01*
X252839205Y-80229970D02*
X252743967Y-80277589D01*
X252743967Y-80277589D02*
X252696348Y-80372827D01*
X252696348Y-80372827D02*
X252696348Y-80563303D01*
X252696348Y-80563303D02*
X252743967Y-80658541D01*
X253315396Y-80229970D02*
X253363015Y-80325208D01*
X253363015Y-80325208D02*
X253363015Y-80563303D01*
X253363015Y-80563303D02*
X253315396Y-80658541D01*
X253315396Y-80658541D02*
X253220157Y-80706160D01*
X253220157Y-80706160D02*
X253124919Y-80706160D01*
X253124919Y-80706160D02*
X253029681Y-80658541D01*
X253029681Y-80658541D02*
X252982062Y-80563303D01*
X252982062Y-80563303D02*
X252982062Y-80325208D01*
X252982062Y-80325208D02*
X252934443Y-80229970D01*
X253363015Y-79753779D02*
X252363015Y-79753779D01*
X253363015Y-79325208D02*
X252839205Y-79325208D01*
X252839205Y-79325208D02*
X252743967Y-79372827D01*
X252743967Y-79372827D02*
X252696348Y-79468065D01*
X252696348Y-79468065D02*
X252696348Y-79610922D01*
X252696348Y-79610922D02*
X252743967Y-79706160D01*
X252743967Y-79706160D02*
X252791586Y-79753779D01*
X253315396Y-78134731D02*
X253363015Y-77991874D01*
X253363015Y-77991874D02*
X253363015Y-77753779D01*
X253363015Y-77753779D02*
X253315396Y-77658541D01*
X253315396Y-77658541D02*
X253267776Y-77610922D01*
X253267776Y-77610922D02*
X253172538Y-77563303D01*
X253172538Y-77563303D02*
X253077300Y-77563303D01*
X253077300Y-77563303D02*
X252982062Y-77610922D01*
X252982062Y-77610922D02*
X252934443Y-77658541D01*
X252934443Y-77658541D02*
X252886824Y-77753779D01*
X252886824Y-77753779D02*
X252839205Y-77944255D01*
X252839205Y-77944255D02*
X252791586Y-78039493D01*
X252791586Y-78039493D02*
X252743967Y-78087112D01*
X252743967Y-78087112D02*
X252648729Y-78134731D01*
X252648729Y-78134731D02*
X252553491Y-78134731D01*
X252553491Y-78134731D02*
X252458253Y-78087112D01*
X252458253Y-78087112D02*
X252410634Y-78039493D01*
X252410634Y-78039493D02*
X252363015Y-77944255D01*
X252363015Y-77944255D02*
X252363015Y-77706160D01*
X252363015Y-77706160D02*
X252410634Y-77563303D01*
D11*
X196852265Y-111854704D02*
X197328455Y-111854704D01*
X196757027Y-112140419D02*
X197090360Y-111140419D01*
X197090360Y-111140419D02*
X197423693Y-112140419D01*
X197757027Y-111473752D02*
X197757027Y-112140419D01*
X197757027Y-111568990D02*
X197804646Y-111521371D01*
X197804646Y-111521371D02*
X197899884Y-111473752D01*
X197899884Y-111473752D02*
X198042741Y-111473752D01*
X198042741Y-111473752D02*
X198137979Y-111521371D01*
X198137979Y-111521371D02*
X198185598Y-111616609D01*
X198185598Y-111616609D02*
X198185598Y-112140419D01*
X199090360Y-112140419D02*
X199090360Y-111140419D01*
X199090360Y-112092800D02*
X198995122Y-112140419D01*
X198995122Y-112140419D02*
X198804646Y-112140419D01*
X198804646Y-112140419D02*
X198709408Y-112092800D01*
X198709408Y-112092800D02*
X198661789Y-112045180D01*
X198661789Y-112045180D02*
X198614170Y-111949942D01*
X198614170Y-111949942D02*
X198614170Y-111664228D01*
X198614170Y-111664228D02*
X198661789Y-111568990D01*
X198661789Y-111568990D02*
X198709408Y-111521371D01*
X198709408Y-111521371D02*
X198804646Y-111473752D01*
X198804646Y-111473752D02*
X198995122Y-111473752D01*
X198995122Y-111473752D02*
X199090360Y-111521371D01*
X199947503Y-112092800D02*
X199852265Y-112140419D01*
X199852265Y-112140419D02*
X199661789Y-112140419D01*
X199661789Y-112140419D02*
X199566551Y-112092800D01*
X199566551Y-112092800D02*
X199518932Y-111997561D01*
X199518932Y-111997561D02*
X199518932Y-111616609D01*
X199518932Y-111616609D02*
X199566551Y-111521371D01*
X199566551Y-111521371D02*
X199661789Y-111473752D01*
X199661789Y-111473752D02*
X199852265Y-111473752D01*
X199852265Y-111473752D02*
X199947503Y-111521371D01*
X199947503Y-111521371D02*
X199995122Y-111616609D01*
X199995122Y-111616609D02*
X199995122Y-111711847D01*
X199995122Y-111711847D02*
X199518932Y-111807085D01*
X200423694Y-112140419D02*
X200423694Y-111473752D01*
X200423694Y-111664228D02*
X200471313Y-111568990D01*
X200471313Y-111568990D02*
X200518932Y-111521371D01*
X200518932Y-111521371D02*
X200614170Y-111473752D01*
X200614170Y-111473752D02*
X200709408Y-111473752D01*
X200995123Y-112092800D02*
X201090361Y-112140419D01*
X201090361Y-112140419D02*
X201280837Y-112140419D01*
X201280837Y-112140419D02*
X201376075Y-112092800D01*
X201376075Y-112092800D02*
X201423694Y-111997561D01*
X201423694Y-111997561D02*
X201423694Y-111949942D01*
X201423694Y-111949942D02*
X201376075Y-111854704D01*
X201376075Y-111854704D02*
X201280837Y-111807085D01*
X201280837Y-111807085D02*
X201137980Y-111807085D01*
X201137980Y-111807085D02*
X201042742Y-111759466D01*
X201042742Y-111759466D02*
X200995123Y-111664228D01*
X200995123Y-111664228D02*
X200995123Y-111616609D01*
X200995123Y-111616609D02*
X201042742Y-111521371D01*
X201042742Y-111521371D02*
X201137980Y-111473752D01*
X201137980Y-111473752D02*
X201280837Y-111473752D01*
X201280837Y-111473752D02*
X201376075Y-111521371D01*
X201995123Y-112140419D02*
X201899885Y-112092800D01*
X201899885Y-112092800D02*
X201852266Y-112045180D01*
X201852266Y-112045180D02*
X201804647Y-111949942D01*
X201804647Y-111949942D02*
X201804647Y-111664228D01*
X201804647Y-111664228D02*
X201852266Y-111568990D01*
X201852266Y-111568990D02*
X201899885Y-111521371D01*
X201899885Y-111521371D02*
X201995123Y-111473752D01*
X201995123Y-111473752D02*
X202137980Y-111473752D01*
X202137980Y-111473752D02*
X202233218Y-111521371D01*
X202233218Y-111521371D02*
X202280837Y-111568990D01*
X202280837Y-111568990D02*
X202328456Y-111664228D01*
X202328456Y-111664228D02*
X202328456Y-111949942D01*
X202328456Y-111949942D02*
X202280837Y-112045180D01*
X202280837Y-112045180D02*
X202233218Y-112092800D01*
X202233218Y-112092800D02*
X202137980Y-112140419D01*
X202137980Y-112140419D02*
X201995123Y-112140419D01*
X202757028Y-111473752D02*
X202757028Y-112140419D01*
X202757028Y-111568990D02*
X202804647Y-111521371D01*
X202804647Y-111521371D02*
X202899885Y-111473752D01*
X202899885Y-111473752D02*
X203042742Y-111473752D01*
X203042742Y-111473752D02*
X203137980Y-111521371D01*
X203137980Y-111521371D02*
X203185599Y-111616609D01*
X203185599Y-111616609D02*
X203185599Y-112140419D01*
X203661790Y-112140419D02*
X203661790Y-111140419D01*
X203661790Y-111140419D02*
X204042742Y-111140419D01*
X204042742Y-111140419D02*
X204137980Y-111188038D01*
X204137980Y-111188038D02*
X204185599Y-111235657D01*
X204185599Y-111235657D02*
X204233218Y-111330895D01*
X204233218Y-111330895D02*
X204233218Y-111473752D01*
X204233218Y-111473752D02*
X204185599Y-111568990D01*
X204185599Y-111568990D02*
X204137980Y-111616609D01*
X204137980Y-111616609D02*
X204042742Y-111664228D01*
X204042742Y-111664228D02*
X203661790Y-111664228D01*
X204661790Y-112140419D02*
X204661790Y-111140419D01*
X204661790Y-111140419D02*
X205042742Y-111140419D01*
X205042742Y-111140419D02*
X205137980Y-111188038D01*
X205137980Y-111188038D02*
X205185599Y-111235657D01*
X205185599Y-111235657D02*
X205233218Y-111330895D01*
X205233218Y-111330895D02*
X205233218Y-111473752D01*
X205233218Y-111473752D02*
X205185599Y-111568990D01*
X205185599Y-111568990D02*
X205137980Y-111616609D01*
X205137980Y-111616609D02*
X205042742Y-111664228D01*
X205042742Y-111664228D02*
X204661790Y-111664228D01*
X191880609Y-105712582D02*
X191880609Y-106045915D01*
X192404419Y-106045915D02*
X191404419Y-106045915D01*
X191404419Y-106045915D02*
X191404419Y-105569725D01*
X192404419Y-104760201D02*
X191880609Y-104760201D01*
X191880609Y-104760201D02*
X191785371Y-104807820D01*
X191785371Y-104807820D02*
X191737752Y-104903058D01*
X191737752Y-104903058D02*
X191737752Y-105093534D01*
X191737752Y-105093534D02*
X191785371Y-105188772D01*
X192356800Y-104760201D02*
X192404419Y-104855439D01*
X192404419Y-104855439D02*
X192404419Y-105093534D01*
X192404419Y-105093534D02*
X192356800Y-105188772D01*
X192356800Y-105188772D02*
X192261561Y-105236391D01*
X192261561Y-105236391D02*
X192166323Y-105236391D01*
X192166323Y-105236391D02*
X192071085Y-105188772D01*
X192071085Y-105188772D02*
X192023466Y-105093534D01*
X192023466Y-105093534D02*
X192023466Y-104855439D01*
X192023466Y-104855439D02*
X191975847Y-104760201D01*
X191737752Y-104284010D02*
X192404419Y-104284010D01*
X191832990Y-104284010D02*
X191785371Y-104236391D01*
X191785371Y-104236391D02*
X191737752Y-104141153D01*
X191737752Y-104141153D02*
X191737752Y-103998296D01*
X191737752Y-103998296D02*
X191785371Y-103903058D01*
X191785371Y-103903058D02*
X191880609Y-103855439D01*
X191880609Y-103855439D02*
X192404419Y-103855439D01*
X248350693Y-124650038D02*
X248255455Y-124602419D01*
X248255455Y-124602419D02*
X248112598Y-124602419D01*
X248112598Y-124602419D02*
X247969741Y-124650038D01*
X247969741Y-124650038D02*
X247874503Y-124745276D01*
X247874503Y-124745276D02*
X247826884Y-124840514D01*
X247826884Y-124840514D02*
X247779265Y-125030990D01*
X247779265Y-125030990D02*
X247779265Y-125173847D01*
X247779265Y-125173847D02*
X247826884Y-125364323D01*
X247826884Y-125364323D02*
X247874503Y-125459561D01*
X247874503Y-125459561D02*
X247969741Y-125554800D01*
X247969741Y-125554800D02*
X248112598Y-125602419D01*
X248112598Y-125602419D02*
X248207836Y-125602419D01*
X248207836Y-125602419D02*
X248350693Y-125554800D01*
X248350693Y-125554800D02*
X248398312Y-125507180D01*
X248398312Y-125507180D02*
X248398312Y-125173847D01*
X248398312Y-125173847D02*
X248207836Y-125173847D01*
X249255455Y-125602419D02*
X249255455Y-125078609D01*
X249255455Y-125078609D02*
X249207836Y-124983371D01*
X249207836Y-124983371D02*
X249112598Y-124935752D01*
X249112598Y-124935752D02*
X248922122Y-124935752D01*
X248922122Y-124935752D02*
X248826884Y-124983371D01*
X249255455Y-125554800D02*
X249160217Y-125602419D01*
X249160217Y-125602419D02*
X248922122Y-125602419D01*
X248922122Y-125602419D02*
X248826884Y-125554800D01*
X248826884Y-125554800D02*
X248779265Y-125459561D01*
X248779265Y-125459561D02*
X248779265Y-125364323D01*
X248779265Y-125364323D02*
X248826884Y-125269085D01*
X248826884Y-125269085D02*
X248922122Y-125221466D01*
X248922122Y-125221466D02*
X249160217Y-125221466D01*
X249160217Y-125221466D02*
X249255455Y-125173847D01*
X249731646Y-124935752D02*
X249731646Y-125602419D01*
X249731646Y-125030990D02*
X249779265Y-124983371D01*
X249779265Y-124983371D02*
X249874503Y-124935752D01*
X249874503Y-124935752D02*
X250017360Y-124935752D01*
X250017360Y-124935752D02*
X250112598Y-124983371D01*
X250112598Y-124983371D02*
X250160217Y-125078609D01*
X250160217Y-125078609D02*
X250160217Y-125602419D01*
X250493551Y-124935752D02*
X250874503Y-124935752D01*
X250636408Y-124602419D02*
X250636408Y-125459561D01*
X250636408Y-125459561D02*
X250684027Y-125554800D01*
X250684027Y-125554800D02*
X250779265Y-125602419D01*
X250779265Y-125602419D02*
X250874503Y-125602419D01*
X251207837Y-125602419D02*
X251207837Y-124935752D01*
X251207837Y-125126228D02*
X251255456Y-125030990D01*
X251255456Y-125030990D02*
X251303075Y-124983371D01*
X251303075Y-124983371D02*
X251398313Y-124935752D01*
X251398313Y-124935752D02*
X251493551Y-124935752D01*
X251731647Y-124935752D02*
X251969742Y-125602419D01*
X252207837Y-124935752D02*
X251969742Y-125602419D01*
X251969742Y-125602419D02*
X251874504Y-125840514D01*
X251874504Y-125840514D02*
X251826885Y-125888133D01*
X251826885Y-125888133D02*
X251731647Y-125935752D01*
X247684027Y-99710419D02*
X248255455Y-99710419D01*
X247969741Y-100710419D02*
X247969741Y-99710419D01*
X248779265Y-99710419D02*
X248969741Y-99710419D01*
X248969741Y-99710419D02*
X249064979Y-99758038D01*
X249064979Y-99758038D02*
X249160217Y-99853276D01*
X249160217Y-99853276D02*
X249207836Y-100043752D01*
X249207836Y-100043752D02*
X249207836Y-100377085D01*
X249207836Y-100377085D02*
X249160217Y-100567561D01*
X249160217Y-100567561D02*
X249064979Y-100662800D01*
X249064979Y-100662800D02*
X248969741Y-100710419D01*
X248969741Y-100710419D02*
X248779265Y-100710419D01*
X248779265Y-100710419D02*
X248684027Y-100662800D01*
X248684027Y-100662800D02*
X248588789Y-100567561D01*
X248588789Y-100567561D02*
X248541170Y-100377085D01*
X248541170Y-100377085D02*
X248541170Y-100043752D01*
X248541170Y-100043752D02*
X248588789Y-99853276D01*
X248588789Y-99853276D02*
X248684027Y-99758038D01*
X248684027Y-99758038D02*
X248779265Y-99710419D01*
X249969741Y-100186609D02*
X249636408Y-100186609D01*
X249636408Y-100710419D02*
X249636408Y-99710419D01*
X249636408Y-99710419D02*
X250112598Y-99710419D01*
X192404419Y-76296225D02*
X192404419Y-76772415D01*
X192404419Y-76772415D02*
X191404419Y-76772415D01*
X192404419Y-75534320D02*
X191880609Y-75534320D01*
X191880609Y-75534320D02*
X191785371Y-75581939D01*
X191785371Y-75581939D02*
X191737752Y-75677177D01*
X191737752Y-75677177D02*
X191737752Y-75867653D01*
X191737752Y-75867653D02*
X191785371Y-75962891D01*
X192356800Y-75534320D02*
X192404419Y-75629558D01*
X192404419Y-75629558D02*
X192404419Y-75867653D01*
X192404419Y-75867653D02*
X192356800Y-75962891D01*
X192356800Y-75962891D02*
X192261561Y-76010510D01*
X192261561Y-76010510D02*
X192166323Y-76010510D01*
X192166323Y-76010510D02*
X192071085Y-75962891D01*
X192071085Y-75962891D02*
X192023466Y-75867653D01*
X192023466Y-75867653D02*
X192023466Y-75629558D01*
X192023466Y-75629558D02*
X191975847Y-75534320D01*
X192356800Y-75105748D02*
X192404419Y-75010510D01*
X192404419Y-75010510D02*
X192404419Y-74820034D01*
X192404419Y-74820034D02*
X192356800Y-74724796D01*
X192356800Y-74724796D02*
X192261561Y-74677177D01*
X192261561Y-74677177D02*
X192213942Y-74677177D01*
X192213942Y-74677177D02*
X192118704Y-74724796D01*
X192118704Y-74724796D02*
X192071085Y-74820034D01*
X192071085Y-74820034D02*
X192071085Y-74962891D01*
X192071085Y-74962891D02*
X192023466Y-75058129D01*
X192023466Y-75058129D02*
X191928228Y-75105748D01*
X191928228Y-75105748D02*
X191880609Y-75105748D01*
X191880609Y-75105748D02*
X191785371Y-75058129D01*
X191785371Y-75058129D02*
X191737752Y-74962891D01*
X191737752Y-74962891D02*
X191737752Y-74820034D01*
X191737752Y-74820034D02*
X191785371Y-74724796D01*
X192356800Y-73867653D02*
X192404419Y-73962891D01*
X192404419Y-73962891D02*
X192404419Y-74153367D01*
X192404419Y-74153367D02*
X192356800Y-74248605D01*
X192356800Y-74248605D02*
X192261561Y-74296224D01*
X192261561Y-74296224D02*
X191880609Y-74296224D01*
X191880609Y-74296224D02*
X191785371Y-74248605D01*
X191785371Y-74248605D02*
X191737752Y-74153367D01*
X191737752Y-74153367D02*
X191737752Y-73962891D01*
X191737752Y-73962891D02*
X191785371Y-73867653D01*
X191785371Y-73867653D02*
X191880609Y-73820034D01*
X191880609Y-73820034D02*
X191975847Y-73820034D01*
X191975847Y-73820034D02*
X192071085Y-74296224D01*
X192404419Y-73391462D02*
X191737752Y-73391462D01*
X191928228Y-73391462D02*
X191832990Y-73343843D01*
X191832990Y-73343843D02*
X191785371Y-73296224D01*
X191785371Y-73296224D02*
X191737752Y-73200986D01*
X191737752Y-73200986D02*
X191737752Y-73105748D01*
D12*
X217614667Y-65787200D02*
X217757524Y-65834819D01*
X217757524Y-65834819D02*
X217995619Y-65834819D01*
X217995619Y-65834819D02*
X218090857Y-65787200D01*
X218090857Y-65787200D02*
X218138476Y-65739580D01*
X218138476Y-65739580D02*
X218186095Y-65644342D01*
X218186095Y-65644342D02*
X218186095Y-65549104D01*
X218186095Y-65549104D02*
X218138476Y-65453866D01*
X218138476Y-65453866D02*
X218090857Y-65406247D01*
X218090857Y-65406247D02*
X217995619Y-65358628D01*
X217995619Y-65358628D02*
X217805143Y-65311009D01*
X217805143Y-65311009D02*
X217709905Y-65263390D01*
X217709905Y-65263390D02*
X217662286Y-65215771D01*
X217662286Y-65215771D02*
X217614667Y-65120533D01*
X217614667Y-65120533D02*
X217614667Y-65025295D01*
X217614667Y-65025295D02*
X217662286Y-64930057D01*
X217662286Y-64930057D02*
X217709905Y-64882438D01*
X217709905Y-64882438D02*
X217805143Y-64834819D01*
X217805143Y-64834819D02*
X218043238Y-64834819D01*
X218043238Y-64834819D02*
X218186095Y-64882438D01*
X218519429Y-64834819D02*
X218757524Y-65834819D01*
X218757524Y-65834819D02*
X218948000Y-65120533D01*
X218948000Y-65120533D02*
X219138476Y-65834819D01*
X219138476Y-65834819D02*
X219376572Y-64834819D01*
X219709905Y-64930057D02*
X219757524Y-64882438D01*
X219757524Y-64882438D02*
X219852762Y-64834819D01*
X219852762Y-64834819D02*
X220090857Y-64834819D01*
X220090857Y-64834819D02*
X220186095Y-64882438D01*
X220186095Y-64882438D02*
X220233714Y-64930057D01*
X220233714Y-64930057D02*
X220281333Y-65025295D01*
X220281333Y-65025295D02*
X220281333Y-65120533D01*
X220281333Y-65120533D02*
X220233714Y-65263390D01*
X220233714Y-65263390D02*
X219662286Y-65834819D01*
X219662286Y-65834819D02*
X220281333Y-65834819D01*
X205930667Y-65787200D02*
X206073524Y-65834819D01*
X206073524Y-65834819D02*
X206311619Y-65834819D01*
X206311619Y-65834819D02*
X206406857Y-65787200D01*
X206406857Y-65787200D02*
X206454476Y-65739580D01*
X206454476Y-65739580D02*
X206502095Y-65644342D01*
X206502095Y-65644342D02*
X206502095Y-65549104D01*
X206502095Y-65549104D02*
X206454476Y-65453866D01*
X206454476Y-65453866D02*
X206406857Y-65406247D01*
X206406857Y-65406247D02*
X206311619Y-65358628D01*
X206311619Y-65358628D02*
X206121143Y-65311009D01*
X206121143Y-65311009D02*
X206025905Y-65263390D01*
X206025905Y-65263390D02*
X205978286Y-65215771D01*
X205978286Y-65215771D02*
X205930667Y-65120533D01*
X205930667Y-65120533D02*
X205930667Y-65025295D01*
X205930667Y-65025295D02*
X205978286Y-64930057D01*
X205978286Y-64930057D02*
X206025905Y-64882438D01*
X206025905Y-64882438D02*
X206121143Y-64834819D01*
X206121143Y-64834819D02*
X206359238Y-64834819D01*
X206359238Y-64834819D02*
X206502095Y-64882438D01*
X206835429Y-64834819D02*
X207073524Y-65834819D01*
X207073524Y-65834819D02*
X207264000Y-65120533D01*
X207264000Y-65120533D02*
X207454476Y-65834819D01*
X207454476Y-65834819D02*
X207692572Y-64834819D01*
X208597333Y-65834819D02*
X208025905Y-65834819D01*
X208311619Y-65834819D02*
X208311619Y-64834819D01*
X208311619Y-64834819D02*
X208216381Y-64977676D01*
X208216381Y-64977676D02*
X208121143Y-65072914D01*
X208121143Y-65072914D02*
X208025905Y-65120533D01*
X226987733Y-87430780D02*
X226940114Y-87478400D01*
X226940114Y-87478400D02*
X226797257Y-87526019D01*
X226797257Y-87526019D02*
X226702019Y-87526019D01*
X226702019Y-87526019D02*
X226559162Y-87478400D01*
X226559162Y-87478400D02*
X226463924Y-87383161D01*
X226463924Y-87383161D02*
X226416305Y-87287923D01*
X226416305Y-87287923D02*
X226368686Y-87097447D01*
X226368686Y-87097447D02*
X226368686Y-86954590D01*
X226368686Y-86954590D02*
X226416305Y-86764114D01*
X226416305Y-86764114D02*
X226463924Y-86668876D01*
X226463924Y-86668876D02*
X226559162Y-86573638D01*
X226559162Y-86573638D02*
X226702019Y-86526019D01*
X226702019Y-86526019D02*
X226797257Y-86526019D01*
X226797257Y-86526019D02*
X226940114Y-86573638D01*
X226940114Y-86573638D02*
X226987733Y-86621257D01*
X227940114Y-87526019D02*
X227368686Y-87526019D01*
X227654400Y-87526019D02*
X227654400Y-86526019D01*
X227654400Y-86526019D02*
X227559162Y-86668876D01*
X227559162Y-86668876D02*
X227463924Y-86764114D01*
X227463924Y-86764114D02*
X227368686Y-86811733D01*
X200708419Y-79285766D02*
X200232228Y-79619099D01*
X200708419Y-79857194D02*
X199708419Y-79857194D01*
X199708419Y-79857194D02*
X199708419Y-79476242D01*
X199708419Y-79476242D02*
X199756038Y-79381004D01*
X199756038Y-79381004D02*
X199803657Y-79333385D01*
X199803657Y-79333385D02*
X199898895Y-79285766D01*
X199898895Y-79285766D02*
X200041752Y-79285766D01*
X200041752Y-79285766D02*
X200136990Y-79333385D01*
X200136990Y-79333385D02*
X200184609Y-79381004D01*
X200184609Y-79381004D02*
X200232228Y-79476242D01*
X200232228Y-79476242D02*
X200232228Y-79857194D01*
X200041752Y-78428623D02*
X200708419Y-78428623D01*
X199660800Y-78666718D02*
X200375085Y-78904813D01*
X200375085Y-78904813D02*
X200375085Y-78285766D01*
X201052873Y-133897019D02*
X200576683Y-133897019D01*
X200576683Y-133897019D02*
X200529064Y-134373209D01*
X200529064Y-134373209D02*
X200576683Y-134325590D01*
X200576683Y-134325590D02*
X200671921Y-134277971D01*
X200671921Y-134277971D02*
X200910016Y-134277971D01*
X200910016Y-134277971D02*
X201005254Y-134325590D01*
X201005254Y-134325590D02*
X201052873Y-134373209D01*
X201052873Y-134373209D02*
X201100492Y-134468447D01*
X201100492Y-134468447D02*
X201100492Y-134706542D01*
X201100492Y-134706542D02*
X201052873Y-134801780D01*
X201052873Y-134801780D02*
X201005254Y-134849400D01*
X201005254Y-134849400D02*
X200910016Y-134897019D01*
X200910016Y-134897019D02*
X200671921Y-134897019D01*
X200671921Y-134897019D02*
X200576683Y-134849400D01*
X200576683Y-134849400D02*
X200529064Y-134801780D01*
X201386207Y-133897019D02*
X201719540Y-134897019D01*
X201719540Y-134897019D02*
X202052873Y-133897019D01*
X194818545Y-133989019D02*
X194628069Y-133989019D01*
X194628069Y-133989019D02*
X194532831Y-134036638D01*
X194532831Y-134036638D02*
X194485212Y-134084257D01*
X194485212Y-134084257D02*
X194389974Y-134227114D01*
X194389974Y-134227114D02*
X194342355Y-134417590D01*
X194342355Y-134417590D02*
X194342355Y-134798542D01*
X194342355Y-134798542D02*
X194389974Y-134893780D01*
X194389974Y-134893780D02*
X194437593Y-134941400D01*
X194437593Y-134941400D02*
X194532831Y-134989019D01*
X194532831Y-134989019D02*
X194723307Y-134989019D01*
X194723307Y-134989019D02*
X194818545Y-134941400D01*
X194818545Y-134941400D02*
X194866164Y-134893780D01*
X194866164Y-134893780D02*
X194913783Y-134798542D01*
X194913783Y-134798542D02*
X194913783Y-134560447D01*
X194913783Y-134560447D02*
X194866164Y-134465209D01*
X194866164Y-134465209D02*
X194818545Y-134417590D01*
X194818545Y-134417590D02*
X194723307Y-134369971D01*
X194723307Y-134369971D02*
X194532831Y-134369971D01*
X194532831Y-134369971D02*
X194437593Y-134417590D01*
X194437593Y-134417590D02*
X194389974Y-134465209D01*
X194389974Y-134465209D02*
X194342355Y-134560447D01*
X195485212Y-134417590D02*
X195389974Y-134369971D01*
X195389974Y-134369971D02*
X195342355Y-134322352D01*
X195342355Y-134322352D02*
X195294736Y-134227114D01*
X195294736Y-134227114D02*
X195294736Y-134179495D01*
X195294736Y-134179495D02*
X195342355Y-134084257D01*
X195342355Y-134084257D02*
X195389974Y-134036638D01*
X195389974Y-134036638D02*
X195485212Y-133989019D01*
X195485212Y-133989019D02*
X195675688Y-133989019D01*
X195675688Y-133989019D02*
X195770926Y-134036638D01*
X195770926Y-134036638D02*
X195818545Y-134084257D01*
X195818545Y-134084257D02*
X195866164Y-134179495D01*
X195866164Y-134179495D02*
X195866164Y-134227114D01*
X195866164Y-134227114D02*
X195818545Y-134322352D01*
X195818545Y-134322352D02*
X195770926Y-134369971D01*
X195770926Y-134369971D02*
X195675688Y-134417590D01*
X195675688Y-134417590D02*
X195485212Y-134417590D01*
X195485212Y-134417590D02*
X195389974Y-134465209D01*
X195389974Y-134465209D02*
X195342355Y-134512828D01*
X195342355Y-134512828D02*
X195294736Y-134608066D01*
X195294736Y-134608066D02*
X195294736Y-134798542D01*
X195294736Y-134798542D02*
X195342355Y-134893780D01*
X195342355Y-134893780D02*
X195389974Y-134941400D01*
X195389974Y-134941400D02*
X195485212Y-134989019D01*
X195485212Y-134989019D02*
X195675688Y-134989019D01*
X195675688Y-134989019D02*
X195770926Y-134941400D01*
X195770926Y-134941400D02*
X195818545Y-134893780D01*
X195818545Y-134893780D02*
X195866164Y-134798542D01*
X195866164Y-134798542D02*
X195866164Y-134608066D01*
X195866164Y-134608066D02*
X195818545Y-134512828D01*
X195818545Y-134512828D02*
X195770926Y-134465209D01*
X195770926Y-134465209D02*
X195675688Y-134417590D01*
X196485212Y-133989019D02*
X196580450Y-133989019D01*
X196580450Y-133989019D02*
X196675688Y-134036638D01*
X196675688Y-134036638D02*
X196723307Y-134084257D01*
X196723307Y-134084257D02*
X196770926Y-134179495D01*
X196770926Y-134179495D02*
X196818545Y-134369971D01*
X196818545Y-134369971D02*
X196818545Y-134608066D01*
X196818545Y-134608066D02*
X196770926Y-134798542D01*
X196770926Y-134798542D02*
X196723307Y-134893780D01*
X196723307Y-134893780D02*
X196675688Y-134941400D01*
X196675688Y-134941400D02*
X196580450Y-134989019D01*
X196580450Y-134989019D02*
X196485212Y-134989019D01*
X196485212Y-134989019D02*
X196389974Y-134941400D01*
X196389974Y-134941400D02*
X196342355Y-134893780D01*
X196342355Y-134893780D02*
X196294736Y-134798542D01*
X196294736Y-134798542D02*
X196247117Y-134608066D01*
X196247117Y-134608066D02*
X196247117Y-134369971D01*
X196247117Y-134369971D02*
X196294736Y-134179495D01*
X196294736Y-134179495D02*
X196342355Y-134084257D01*
X196342355Y-134084257D02*
X196389974Y-134036638D01*
X196389974Y-134036638D02*
X196485212Y-133989019D01*
X209239011Y-97832057D02*
X209143773Y-97784438D01*
X209143773Y-97784438D02*
X209048535Y-97689200D01*
X209048535Y-97689200D02*
X208905678Y-97546342D01*
X208905678Y-97546342D02*
X208810440Y-97498723D01*
X208810440Y-97498723D02*
X208715202Y-97498723D01*
X208762821Y-97736819D02*
X208667583Y-97689200D01*
X208667583Y-97689200D02*
X208572345Y-97593961D01*
X208572345Y-97593961D02*
X208524726Y-97403485D01*
X208524726Y-97403485D02*
X208524726Y-97070152D01*
X208524726Y-97070152D02*
X208572345Y-96879676D01*
X208572345Y-96879676D02*
X208667583Y-96784438D01*
X208667583Y-96784438D02*
X208762821Y-96736819D01*
X208762821Y-96736819D02*
X208953297Y-96736819D01*
X208953297Y-96736819D02*
X209048535Y-96784438D01*
X209048535Y-96784438D02*
X209143773Y-96879676D01*
X209143773Y-96879676D02*
X209191392Y-97070152D01*
X209191392Y-97070152D02*
X209191392Y-97403485D01*
X209191392Y-97403485D02*
X209143773Y-97593961D01*
X209143773Y-97593961D02*
X209048535Y-97689200D01*
X209048535Y-97689200D02*
X208953297Y-97736819D01*
X208953297Y-97736819D02*
X208762821Y-97736819D01*
X210143773Y-97736819D02*
X209572345Y-97736819D01*
X209858059Y-97736819D02*
X209858059Y-96736819D01*
X209858059Y-96736819D02*
X209762821Y-96879676D01*
X209762821Y-96879676D02*
X209667583Y-96974914D01*
X209667583Y-96974914D02*
X209572345Y-97022533D01*
X200737302Y-130729819D02*
X200165874Y-130729819D01*
X200451588Y-130729819D02*
X200451588Y-129729819D01*
X200451588Y-129729819D02*
X200356350Y-129872676D01*
X200356350Y-129872676D02*
X200261112Y-129967914D01*
X200261112Y-129967914D02*
X200165874Y-130015533D01*
X201118255Y-129825057D02*
X201165874Y-129777438D01*
X201165874Y-129777438D02*
X201261112Y-129729819D01*
X201261112Y-129729819D02*
X201499207Y-129729819D01*
X201499207Y-129729819D02*
X201594445Y-129777438D01*
X201594445Y-129777438D02*
X201642064Y-129825057D01*
X201642064Y-129825057D02*
X201689683Y-129920295D01*
X201689683Y-129920295D02*
X201689683Y-130015533D01*
X201689683Y-130015533D02*
X201642064Y-130158390D01*
X201642064Y-130158390D02*
X201070636Y-130729819D01*
X201070636Y-130729819D02*
X201689683Y-130729819D01*
X201975398Y-129729819D02*
X202308731Y-130729819D01*
X202308731Y-130729819D02*
X202642064Y-129729819D01*
X214396583Y-131187380D02*
X214348964Y-131235000D01*
X214348964Y-131235000D02*
X214206107Y-131282619D01*
X214206107Y-131282619D02*
X214110869Y-131282619D01*
X214110869Y-131282619D02*
X213968012Y-131235000D01*
X213968012Y-131235000D02*
X213872774Y-131139761D01*
X213872774Y-131139761D02*
X213825155Y-131044523D01*
X213825155Y-131044523D02*
X213777536Y-130854047D01*
X213777536Y-130854047D02*
X213777536Y-130711190D01*
X213777536Y-130711190D02*
X213825155Y-130520714D01*
X213825155Y-130520714D02*
X213872774Y-130425476D01*
X213872774Y-130425476D02*
X213968012Y-130330238D01*
X213968012Y-130330238D02*
X214110869Y-130282619D01*
X214110869Y-130282619D02*
X214206107Y-130282619D01*
X214206107Y-130282619D02*
X214348964Y-130330238D01*
X214348964Y-130330238D02*
X214396583Y-130377857D01*
X214777536Y-130377857D02*
X214825155Y-130330238D01*
X214825155Y-130330238D02*
X214920393Y-130282619D01*
X214920393Y-130282619D02*
X215158488Y-130282619D01*
X215158488Y-130282619D02*
X215253726Y-130330238D01*
X215253726Y-130330238D02*
X215301345Y-130377857D01*
X215301345Y-130377857D02*
X215348964Y-130473095D01*
X215348964Y-130473095D02*
X215348964Y-130568333D01*
X215348964Y-130568333D02*
X215301345Y-130711190D01*
X215301345Y-130711190D02*
X214729917Y-131282619D01*
X214729917Y-131282619D02*
X215348964Y-131282619D01*
X205552569Y-94908666D02*
X205076378Y-95241999D01*
X205552569Y-95480094D02*
X204552569Y-95480094D01*
X204552569Y-95480094D02*
X204552569Y-95099142D01*
X204552569Y-95099142D02*
X204600188Y-95003904D01*
X204600188Y-95003904D02*
X204647807Y-94956285D01*
X204647807Y-94956285D02*
X204743045Y-94908666D01*
X204743045Y-94908666D02*
X204885902Y-94908666D01*
X204885902Y-94908666D02*
X204981140Y-94956285D01*
X204981140Y-94956285D02*
X205028759Y-95003904D01*
X205028759Y-95003904D02*
X205076378Y-95099142D01*
X205076378Y-95099142D02*
X205076378Y-95480094D01*
X204552569Y-94003904D02*
X204552569Y-94480094D01*
X204552569Y-94480094D02*
X205028759Y-94527713D01*
X205028759Y-94527713D02*
X204981140Y-94480094D01*
X204981140Y-94480094D02*
X204933521Y-94384856D01*
X204933521Y-94384856D02*
X204933521Y-94146761D01*
X204933521Y-94146761D02*
X204981140Y-94051523D01*
X204981140Y-94051523D02*
X205028759Y-94003904D01*
X205028759Y-94003904D02*
X205123997Y-93956285D01*
X205123997Y-93956285D02*
X205362092Y-93956285D01*
X205362092Y-93956285D02*
X205457330Y-94003904D01*
X205457330Y-94003904D02*
X205504950Y-94051523D01*
X205504950Y-94051523D02*
X205552569Y-94146761D01*
X205552569Y-94146761D02*
X205552569Y-94384856D01*
X205552569Y-94384856D02*
X205504950Y-94480094D01*
X205504950Y-94480094D02*
X205457330Y-94527713D01*
X209239011Y-91736057D02*
X209143773Y-91688438D01*
X209143773Y-91688438D02*
X209048535Y-91593200D01*
X209048535Y-91593200D02*
X208905678Y-91450342D01*
X208905678Y-91450342D02*
X208810440Y-91402723D01*
X208810440Y-91402723D02*
X208715202Y-91402723D01*
X208762821Y-91640819D02*
X208667583Y-91593200D01*
X208667583Y-91593200D02*
X208572345Y-91497961D01*
X208572345Y-91497961D02*
X208524726Y-91307485D01*
X208524726Y-91307485D02*
X208524726Y-90974152D01*
X208524726Y-90974152D02*
X208572345Y-90783676D01*
X208572345Y-90783676D02*
X208667583Y-90688438D01*
X208667583Y-90688438D02*
X208762821Y-90640819D01*
X208762821Y-90640819D02*
X208953297Y-90640819D01*
X208953297Y-90640819D02*
X209048535Y-90688438D01*
X209048535Y-90688438D02*
X209143773Y-90783676D01*
X209143773Y-90783676D02*
X209191392Y-90974152D01*
X209191392Y-90974152D02*
X209191392Y-91307485D01*
X209191392Y-91307485D02*
X209143773Y-91497961D01*
X209143773Y-91497961D02*
X209048535Y-91593200D01*
X209048535Y-91593200D02*
X208953297Y-91640819D01*
X208953297Y-91640819D02*
X208762821Y-91640819D01*
X209572345Y-90736057D02*
X209619964Y-90688438D01*
X209619964Y-90688438D02*
X209715202Y-90640819D01*
X209715202Y-90640819D02*
X209953297Y-90640819D01*
X209953297Y-90640819D02*
X210048535Y-90688438D01*
X210048535Y-90688438D02*
X210096154Y-90736057D01*
X210096154Y-90736057D02*
X210143773Y-90831295D01*
X210143773Y-90831295D02*
X210143773Y-90926533D01*
X210143773Y-90926533D02*
X210096154Y-91069390D01*
X210096154Y-91069390D02*
X209524726Y-91640819D01*
X209524726Y-91640819D02*
X210143773Y-91640819D01*
X209316583Y-131187380D02*
X209268964Y-131235000D01*
X209268964Y-131235000D02*
X209126107Y-131282619D01*
X209126107Y-131282619D02*
X209030869Y-131282619D01*
X209030869Y-131282619D02*
X208888012Y-131235000D01*
X208888012Y-131235000D02*
X208792774Y-131139761D01*
X208792774Y-131139761D02*
X208745155Y-131044523D01*
X208745155Y-131044523D02*
X208697536Y-130854047D01*
X208697536Y-130854047D02*
X208697536Y-130711190D01*
X208697536Y-130711190D02*
X208745155Y-130520714D01*
X208745155Y-130520714D02*
X208792774Y-130425476D01*
X208792774Y-130425476D02*
X208888012Y-130330238D01*
X208888012Y-130330238D02*
X209030869Y-130282619D01*
X209030869Y-130282619D02*
X209126107Y-130282619D01*
X209126107Y-130282619D02*
X209268964Y-130330238D01*
X209268964Y-130330238D02*
X209316583Y-130377857D01*
X209649917Y-130282619D02*
X210268964Y-130282619D01*
X210268964Y-130282619D02*
X209935631Y-130663571D01*
X209935631Y-130663571D02*
X210078488Y-130663571D01*
X210078488Y-130663571D02*
X210173726Y-130711190D01*
X210173726Y-130711190D02*
X210221345Y-130758809D01*
X210221345Y-130758809D02*
X210268964Y-130854047D01*
X210268964Y-130854047D02*
X210268964Y-131092142D01*
X210268964Y-131092142D02*
X210221345Y-131187380D01*
X210221345Y-131187380D02*
X210173726Y-131235000D01*
X210173726Y-131235000D02*
X210078488Y-131282619D01*
X210078488Y-131282619D02*
X209792774Y-131282619D01*
X209792774Y-131282619D02*
X209697536Y-131235000D01*
X209697536Y-131235000D02*
X209649917Y-131187380D01*
X234491666Y-65548319D02*
X234491666Y-66262604D01*
X234491666Y-66262604D02*
X234444047Y-66405461D01*
X234444047Y-66405461D02*
X234348809Y-66500700D01*
X234348809Y-66500700D02*
X234205952Y-66548319D01*
X234205952Y-66548319D02*
X234110714Y-66548319D01*
X235491666Y-66548319D02*
X234920238Y-66548319D01*
X235205952Y-66548319D02*
X235205952Y-65548319D01*
X235205952Y-65548319D02*
X235110714Y-65691176D01*
X235110714Y-65691176D02*
X235015476Y-65786414D01*
X235015476Y-65786414D02*
X234920238Y-65834033D01*
X199767160Y-138215019D02*
X200386207Y-138215019D01*
X200386207Y-138215019D02*
X200052874Y-138595971D01*
X200052874Y-138595971D02*
X200195731Y-138595971D01*
X200195731Y-138595971D02*
X200290969Y-138643590D01*
X200290969Y-138643590D02*
X200338588Y-138691209D01*
X200338588Y-138691209D02*
X200386207Y-138786447D01*
X200386207Y-138786447D02*
X200386207Y-139024542D01*
X200386207Y-139024542D02*
X200338588Y-139119780D01*
X200338588Y-139119780D02*
X200290969Y-139167400D01*
X200290969Y-139167400D02*
X200195731Y-139215019D01*
X200195731Y-139215019D02*
X199910017Y-139215019D01*
X199910017Y-139215019D02*
X199814779Y-139167400D01*
X199814779Y-139167400D02*
X199767160Y-139119780D01*
X200814779Y-139119780D02*
X200862398Y-139167400D01*
X200862398Y-139167400D02*
X200814779Y-139215019D01*
X200814779Y-139215019D02*
X200767160Y-139167400D01*
X200767160Y-139167400D02*
X200814779Y-139119780D01*
X200814779Y-139119780D02*
X200814779Y-139215019D01*
X201195731Y-138215019D02*
X201814778Y-138215019D01*
X201814778Y-138215019D02*
X201481445Y-138595971D01*
X201481445Y-138595971D02*
X201624302Y-138595971D01*
X201624302Y-138595971D02*
X201719540Y-138643590D01*
X201719540Y-138643590D02*
X201767159Y-138691209D01*
X201767159Y-138691209D02*
X201814778Y-138786447D01*
X201814778Y-138786447D02*
X201814778Y-139024542D01*
X201814778Y-139024542D02*
X201767159Y-139119780D01*
X201767159Y-139119780D02*
X201719540Y-139167400D01*
X201719540Y-139167400D02*
X201624302Y-139215019D01*
X201624302Y-139215019D02*
X201338588Y-139215019D01*
X201338588Y-139215019D02*
X201243350Y-139167400D01*
X201243350Y-139167400D02*
X201195731Y-139119780D01*
X202100493Y-138215019D02*
X202433826Y-139215019D01*
X202433826Y-139215019D02*
X202767159Y-138215019D01*
X204159011Y-109516057D02*
X204063773Y-109468438D01*
X204063773Y-109468438D02*
X203968535Y-109373200D01*
X203968535Y-109373200D02*
X203825678Y-109230342D01*
X203825678Y-109230342D02*
X203730440Y-109182723D01*
X203730440Y-109182723D02*
X203635202Y-109182723D01*
X203682821Y-109420819D02*
X203587583Y-109373200D01*
X203587583Y-109373200D02*
X203492345Y-109277961D01*
X203492345Y-109277961D02*
X203444726Y-109087485D01*
X203444726Y-109087485D02*
X203444726Y-108754152D01*
X203444726Y-108754152D02*
X203492345Y-108563676D01*
X203492345Y-108563676D02*
X203587583Y-108468438D01*
X203587583Y-108468438D02*
X203682821Y-108420819D01*
X203682821Y-108420819D02*
X203873297Y-108420819D01*
X203873297Y-108420819D02*
X203968535Y-108468438D01*
X203968535Y-108468438D02*
X204063773Y-108563676D01*
X204063773Y-108563676D02*
X204111392Y-108754152D01*
X204111392Y-108754152D02*
X204111392Y-109087485D01*
X204111392Y-109087485D02*
X204063773Y-109277961D01*
X204063773Y-109277961D02*
X203968535Y-109373200D01*
X203968535Y-109373200D02*
X203873297Y-109420819D01*
X203873297Y-109420819D02*
X203682821Y-109420819D01*
X205016154Y-108420819D02*
X204539964Y-108420819D01*
X204539964Y-108420819D02*
X204492345Y-108897009D01*
X204492345Y-108897009D02*
X204539964Y-108849390D01*
X204539964Y-108849390D02*
X204635202Y-108801771D01*
X204635202Y-108801771D02*
X204873297Y-108801771D01*
X204873297Y-108801771D02*
X204968535Y-108849390D01*
X204968535Y-108849390D02*
X205016154Y-108897009D01*
X205016154Y-108897009D02*
X205063773Y-108992247D01*
X205063773Y-108992247D02*
X205063773Y-109230342D01*
X205063773Y-109230342D02*
X205016154Y-109325580D01*
X205016154Y-109325580D02*
X204968535Y-109373200D01*
X204968535Y-109373200D02*
X204873297Y-109420819D01*
X204873297Y-109420819D02*
X204635202Y-109420819D01*
X204635202Y-109420819D02*
X204539964Y-109373200D01*
X204539964Y-109373200D02*
X204492345Y-109325580D01*
X194445236Y-138307019D02*
X195064283Y-138307019D01*
X195064283Y-138307019D02*
X194730950Y-138687971D01*
X194730950Y-138687971D02*
X194873807Y-138687971D01*
X194873807Y-138687971D02*
X194969045Y-138735590D01*
X194969045Y-138735590D02*
X195016664Y-138783209D01*
X195016664Y-138783209D02*
X195064283Y-138878447D01*
X195064283Y-138878447D02*
X195064283Y-139116542D01*
X195064283Y-139116542D02*
X195016664Y-139211780D01*
X195016664Y-139211780D02*
X194969045Y-139259400D01*
X194969045Y-139259400D02*
X194873807Y-139307019D01*
X194873807Y-139307019D02*
X194588093Y-139307019D01*
X194588093Y-139307019D02*
X194492855Y-139259400D01*
X194492855Y-139259400D02*
X194445236Y-139211780D01*
X195397617Y-138307019D02*
X196016664Y-138307019D01*
X196016664Y-138307019D02*
X195683331Y-138687971D01*
X195683331Y-138687971D02*
X195826188Y-138687971D01*
X195826188Y-138687971D02*
X195921426Y-138735590D01*
X195921426Y-138735590D02*
X195969045Y-138783209D01*
X195969045Y-138783209D02*
X196016664Y-138878447D01*
X196016664Y-138878447D02*
X196016664Y-139116542D01*
X196016664Y-139116542D02*
X195969045Y-139211780D01*
X195969045Y-139211780D02*
X195921426Y-139259400D01*
X195921426Y-139259400D02*
X195826188Y-139307019D01*
X195826188Y-139307019D02*
X195540474Y-139307019D01*
X195540474Y-139307019D02*
X195445236Y-139259400D01*
X195445236Y-139259400D02*
X195397617Y-139211780D01*
X196635712Y-138307019D02*
X196730950Y-138307019D01*
X196730950Y-138307019D02*
X196826188Y-138354638D01*
X196826188Y-138354638D02*
X196873807Y-138402257D01*
X196873807Y-138402257D02*
X196921426Y-138497495D01*
X196921426Y-138497495D02*
X196969045Y-138687971D01*
X196969045Y-138687971D02*
X196969045Y-138926066D01*
X196969045Y-138926066D02*
X196921426Y-139116542D01*
X196921426Y-139116542D02*
X196873807Y-139211780D01*
X196873807Y-139211780D02*
X196826188Y-139259400D01*
X196826188Y-139259400D02*
X196730950Y-139307019D01*
X196730950Y-139307019D02*
X196635712Y-139307019D01*
X196635712Y-139307019D02*
X196540474Y-139259400D01*
X196540474Y-139259400D02*
X196492855Y-139211780D01*
X196492855Y-139211780D02*
X196445236Y-139116542D01*
X196445236Y-139116542D02*
X196397617Y-138926066D01*
X196397617Y-138926066D02*
X196397617Y-138687971D01*
X196397617Y-138687971D02*
X196445236Y-138497495D01*
X196445236Y-138497495D02*
X196492855Y-138402257D01*
X196492855Y-138402257D02*
X196540474Y-138354638D01*
X196540474Y-138354638D02*
X196635712Y-138307019D01*
X205552569Y-88812666D02*
X205076378Y-89145999D01*
X205552569Y-89384094D02*
X204552569Y-89384094D01*
X204552569Y-89384094D02*
X204552569Y-89003142D01*
X204552569Y-89003142D02*
X204600188Y-88907904D01*
X204600188Y-88907904D02*
X204647807Y-88860285D01*
X204647807Y-88860285D02*
X204743045Y-88812666D01*
X204743045Y-88812666D02*
X204885902Y-88812666D01*
X204885902Y-88812666D02*
X204981140Y-88860285D01*
X204981140Y-88860285D02*
X205028759Y-88907904D01*
X205028759Y-88907904D02*
X205076378Y-89003142D01*
X205076378Y-89003142D02*
X205076378Y-89384094D01*
X204552569Y-87955523D02*
X204552569Y-88145999D01*
X204552569Y-88145999D02*
X204600188Y-88241237D01*
X204600188Y-88241237D02*
X204647807Y-88288856D01*
X204647807Y-88288856D02*
X204790664Y-88384094D01*
X204790664Y-88384094D02*
X204981140Y-88431713D01*
X204981140Y-88431713D02*
X205362092Y-88431713D01*
X205362092Y-88431713D02*
X205457330Y-88384094D01*
X205457330Y-88384094D02*
X205504950Y-88336475D01*
X205504950Y-88336475D02*
X205552569Y-88241237D01*
X205552569Y-88241237D02*
X205552569Y-88050761D01*
X205552569Y-88050761D02*
X205504950Y-87955523D01*
X205504950Y-87955523D02*
X205457330Y-87907904D01*
X205457330Y-87907904D02*
X205362092Y-87860285D01*
X205362092Y-87860285D02*
X205123997Y-87860285D01*
X205123997Y-87860285D02*
X205028759Y-87907904D01*
X205028759Y-87907904D02*
X204981140Y-87955523D01*
X204981140Y-87955523D02*
X204933521Y-88050761D01*
X204933521Y-88050761D02*
X204933521Y-88241237D01*
X204933521Y-88241237D02*
X204981140Y-88336475D01*
X204981140Y-88336475D02*
X205028759Y-88384094D01*
X205028759Y-88384094D02*
X205123997Y-88431713D01*
X194175688Y-129826257D02*
X194223307Y-129778638D01*
X194223307Y-129778638D02*
X194318545Y-129731019D01*
X194318545Y-129731019D02*
X194556640Y-129731019D01*
X194556640Y-129731019D02*
X194651878Y-129778638D01*
X194651878Y-129778638D02*
X194699497Y-129826257D01*
X194699497Y-129826257D02*
X194747116Y-129921495D01*
X194747116Y-129921495D02*
X194747116Y-130016733D01*
X194747116Y-130016733D02*
X194699497Y-130159590D01*
X194699497Y-130159590D02*
X194128069Y-130731019D01*
X194128069Y-130731019D02*
X194747116Y-130731019D01*
X195175688Y-130635780D02*
X195223307Y-130683400D01*
X195223307Y-130683400D02*
X195175688Y-130731019D01*
X195175688Y-130731019D02*
X195128069Y-130683400D01*
X195128069Y-130683400D02*
X195175688Y-130635780D01*
X195175688Y-130635780D02*
X195175688Y-130731019D01*
X195604259Y-129826257D02*
X195651878Y-129778638D01*
X195651878Y-129778638D02*
X195747116Y-129731019D01*
X195747116Y-129731019D02*
X195985211Y-129731019D01*
X195985211Y-129731019D02*
X196080449Y-129778638D01*
X196080449Y-129778638D02*
X196128068Y-129826257D01*
X196128068Y-129826257D02*
X196175687Y-129921495D01*
X196175687Y-129921495D02*
X196175687Y-130016733D01*
X196175687Y-130016733D02*
X196128068Y-130159590D01*
X196128068Y-130159590D02*
X195556640Y-130731019D01*
X195556640Y-130731019D02*
X196175687Y-130731019D01*
X196604259Y-130731019D02*
X196604259Y-129731019D01*
X196699497Y-130350066D02*
X196985211Y-130731019D01*
X196985211Y-130064352D02*
X196604259Y-130445304D01*
X205020011Y-80519457D02*
X204924773Y-80471838D01*
X204924773Y-80471838D02*
X204829535Y-80376600D01*
X204829535Y-80376600D02*
X204686678Y-80233742D01*
X204686678Y-80233742D02*
X204591440Y-80186123D01*
X204591440Y-80186123D02*
X204496202Y-80186123D01*
X204543821Y-80424219D02*
X204448583Y-80376600D01*
X204448583Y-80376600D02*
X204353345Y-80281361D01*
X204353345Y-80281361D02*
X204305726Y-80090885D01*
X204305726Y-80090885D02*
X204305726Y-79757552D01*
X204305726Y-79757552D02*
X204353345Y-79567076D01*
X204353345Y-79567076D02*
X204448583Y-79471838D01*
X204448583Y-79471838D02*
X204543821Y-79424219D01*
X204543821Y-79424219D02*
X204734297Y-79424219D01*
X204734297Y-79424219D02*
X204829535Y-79471838D01*
X204829535Y-79471838D02*
X204924773Y-79567076D01*
X204924773Y-79567076D02*
X204972392Y-79757552D01*
X204972392Y-79757552D02*
X204972392Y-80090885D01*
X204972392Y-80090885D02*
X204924773Y-80281361D01*
X204924773Y-80281361D02*
X204829535Y-80376600D01*
X204829535Y-80376600D02*
X204734297Y-80424219D01*
X204734297Y-80424219D02*
X204543821Y-80424219D01*
X205305726Y-79424219D02*
X205924773Y-79424219D01*
X205924773Y-79424219D02*
X205591440Y-79805171D01*
X205591440Y-79805171D02*
X205734297Y-79805171D01*
X205734297Y-79805171D02*
X205829535Y-79852790D01*
X205829535Y-79852790D02*
X205877154Y-79900409D01*
X205877154Y-79900409D02*
X205924773Y-79995647D01*
X205924773Y-79995647D02*
X205924773Y-80233742D01*
X205924773Y-80233742D02*
X205877154Y-80328980D01*
X205877154Y-80328980D02*
X205829535Y-80376600D01*
X205829535Y-80376600D02*
X205734297Y-80424219D01*
X205734297Y-80424219D02*
X205448583Y-80424219D01*
X205448583Y-80424219D02*
X205353345Y-80376600D01*
X205353345Y-80376600D02*
X205305726Y-80328980D01*
D13*
%TO.C,SW2*%
X216578000Y-66210000D02*
X216578000Y-66610000D01*
X216578000Y-66210000D02*
X221318000Y-66210000D01*
X216578000Y-69610000D02*
X216578000Y-67550000D01*
X216578000Y-70950000D02*
X216578000Y-70550000D01*
X216578000Y-70950000D02*
X221318000Y-70950000D01*
X221318000Y-66210000D02*
X221318000Y-66610000D01*
X221318000Y-69610000D02*
X221318000Y-67550000D01*
X221318000Y-70950000D02*
X221318000Y-70550000D01*
%TO.C,SW1*%
X204894000Y-66210000D02*
X204894000Y-66610000D01*
X204894000Y-66210000D02*
X209634000Y-66210000D01*
X204894000Y-69610000D02*
X204894000Y-67550000D01*
X204894000Y-70950000D02*
X204894000Y-70550000D01*
X204894000Y-70950000D02*
X209634000Y-70950000D01*
X209634000Y-66210000D02*
X209634000Y-66610000D01*
X209634000Y-69610000D02*
X209634000Y-67550000D01*
X209634000Y-70950000D02*
X209634000Y-70550000D01*
%TO.C,C1*%
X229788767Y-87632000D02*
X229496233Y-87632000D01*
X229788767Y-86612000D02*
X229496233Y-86612000D01*
%TO.C,R4*%
X202198500Y-78866276D02*
X202198500Y-79375724D01*
X201153500Y-78866276D02*
X201153500Y-79375724D01*
%TO.C,D2*%
X199583350Y-135231200D02*
X199583350Y-136701200D01*
X199583350Y-136701200D02*
X202043350Y-136701200D01*
X202043350Y-135231200D02*
X199583350Y-135231200D01*
D12*
%TO.C,Conn2*%
X254127000Y-141478000D02*
X254127000Y-126238000D01*
X252603000Y-141478000D02*
X254127000Y-141478000D01*
X254127000Y-126238000D02*
X252603000Y-126238000D01*
X247523000Y-141478000D02*
X247523000Y-126238000D01*
X252603000Y-126238000D02*
X252603000Y-141478000D01*
X247523000Y-141478000D02*
X252603000Y-141478000D01*
X247523000Y-126238000D02*
X252603000Y-126238000D01*
D13*
%TO.C,R2*%
X195835174Y-136486700D02*
X195325726Y-136486700D01*
X195835174Y-135441700D02*
X195325726Y-135441700D01*
D12*
%TO.C,H1*%
X198709283Y-67564000D02*
G75*
G02*
X190672717Y-67564000I-4018283J0D01*
G01*
X190672717Y-67564000D02*
G75*
G02*
X198709283Y-67564000I4018283J0D01*
G01*
D13*
%TO.C,Q1*%
X209334250Y-96302000D02*
X209984250Y-96302000D01*
X209334250Y-96302000D02*
X208684250Y-96302000D01*
X209334250Y-93182000D02*
X209984250Y-93182000D01*
X209334250Y-93182000D02*
X208684250Y-93182000D01*
X210736750Y-96582000D02*
X210256750Y-96582000D01*
X210496750Y-96252000D01*
X210736750Y-96582000D01*
G36*
X210736750Y-96582000D02*
G01*
X210256750Y-96582000D01*
X210496750Y-96252000D01*
X210736750Y-96582000D01*
G37*
%TO.C,D1*%
X199583350Y-130964000D02*
X199583350Y-132434000D01*
X199583350Y-132434000D02*
X202043350Y-132434000D01*
X202043350Y-130964000D02*
X199583350Y-130964000D01*
%TO.C,C2*%
X214416983Y-131747800D02*
X214709517Y-131747800D01*
X214416983Y-132767800D02*
X214709517Y-132767800D01*
D12*
%TO.C,Conn5*%
X199065750Y-102603300D02*
X199065750Y-110096300D01*
X197795750Y-102603300D02*
X199065750Y-102603300D01*
X197795750Y-102603300D02*
X192715750Y-102603300D01*
X197795750Y-102603300D02*
X197795750Y-110096300D01*
X199065750Y-110096300D02*
X197795750Y-110096300D01*
X197795750Y-110096300D02*
X192715750Y-110096300D01*
X192715750Y-110096300D02*
X192715750Y-102603300D01*
D13*
%TO.C,R5*%
X204190250Y-94487276D02*
X204190250Y-94996724D01*
X203145250Y-94487276D02*
X203145250Y-94996724D01*
%TO.C,Q2*%
X209334250Y-90206000D02*
X209984250Y-90206000D01*
X209334250Y-90206000D02*
X208684250Y-90206000D01*
X209334250Y-87086000D02*
X209984250Y-87086000D01*
X209334250Y-87086000D02*
X208684250Y-87086000D01*
X210736750Y-90486000D02*
X210256750Y-90486000D01*
X210496750Y-90156000D01*
X210736750Y-90486000D01*
G36*
X210736750Y-90486000D02*
G01*
X210256750Y-90486000D01*
X210496750Y-90156000D01*
X210736750Y-90486000D01*
G37*
D12*
%TO.C,H4*%
X255859283Y-67564000D02*
G75*
G02*
X247822717Y-67564000I-4018283J0D01*
G01*
X247822717Y-67564000D02*
G75*
G02*
X255859283Y-67564000I4018283J0D01*
G01*
D13*
%TO.C,C3*%
X209336983Y-131747800D02*
X209629517Y-131747800D01*
X209336983Y-132767800D02*
X209629517Y-132767800D01*
D12*
%TO.C,H3*%
X255859283Y-150114000D02*
G75*
G02*
X247822717Y-150114000I-4018283J0D01*
G01*
X247822717Y-150114000D02*
G75*
G02*
X255859283Y-150114000I4018283J0D01*
G01*
%TO.C,H2*%
X198709283Y-150114000D02*
G75*
G02*
X190672717Y-150114000I-4018283J0D01*
G01*
X190672717Y-150114000D02*
G75*
G02*
X198709283Y-150114000I4018283J0D01*
G01*
%TO.C,Conn4*%
X199324350Y-99314000D02*
X199324350Y-84074000D01*
X197800350Y-99314000D02*
X199324350Y-99314000D01*
X199324350Y-84074000D02*
X197800350Y-84074000D01*
X192720350Y-99314000D02*
X192720350Y-84074000D01*
X197800350Y-84074000D02*
X197800350Y-99314000D01*
X192720350Y-99314000D02*
X197800350Y-99314000D01*
X192720350Y-84074000D02*
X197800350Y-84074000D01*
D13*
%TO.C,J1*%
X243075000Y-63422000D02*
X226825000Y-63422000D01*
X226825000Y-63422000D02*
X226825000Y-84972000D01*
X243075000Y-84972000D02*
X226825000Y-84972000D01*
X243075000Y-63422000D02*
X243075000Y-84972000D01*
D12*
%TO.C,U2*%
X213700750Y-138480800D02*
X216240750Y-141020800D01*
X216240750Y-141020800D02*
X216240750Y-146100800D01*
X216240750Y-146100800D02*
X213700750Y-148640800D01*
X213700750Y-148640800D02*
X208620750Y-148640800D01*
X208620750Y-148640800D02*
X206080750Y-146100800D01*
X206080750Y-146100800D02*
X206080750Y-141020800D01*
X206080750Y-141020800D02*
X208620750Y-138480800D01*
X208620750Y-138480800D02*
X213700750Y-138480800D01*
X206080750Y-151180800D02*
X216240750Y-151180800D01*
X206080750Y-134670800D02*
X216240750Y-134670800D01*
X216240750Y-134670800D02*
X216240750Y-151180800D01*
X206080750Y-151180800D02*
X206080750Y-134670800D01*
D13*
%TO.C,D3*%
X199583350Y-139549200D02*
X199583350Y-141019200D01*
X199583350Y-141019200D02*
X202043350Y-141019200D01*
X202043350Y-139549200D02*
X199583350Y-139549200D01*
D12*
%TO.C,Conn6*%
X199070350Y-73329800D02*
X199070350Y-80822800D01*
X197800350Y-73329800D02*
X199070350Y-73329800D01*
X197800350Y-73329800D02*
X192720350Y-73329800D01*
X197800350Y-73329800D02*
X197800350Y-80822800D01*
X199070350Y-80822800D02*
X197800350Y-80822800D01*
X197800350Y-80822800D02*
X192720350Y-80822800D01*
X192720350Y-80822800D02*
X192720350Y-73329800D01*
D13*
%TO.C,Q5*%
X204254250Y-107975800D02*
X204904250Y-107975800D01*
X204254250Y-107975800D02*
X203604250Y-107975800D01*
X204254250Y-104855800D02*
X204904250Y-104855800D01*
X204254250Y-104855800D02*
X203604250Y-104855800D01*
X205656750Y-108255800D02*
X205176750Y-108255800D01*
X205416750Y-107925800D01*
X205656750Y-108255800D01*
G36*
X205656750Y-108255800D02*
G01*
X205176750Y-108255800D01*
X205416750Y-107925800D01*
X205656750Y-108255800D01*
G37*
D12*
%TO.C,Conn1*%
X180438150Y-112522000D02*
X180438150Y-128270000D01*
X180463550Y-112522000D02*
X188210550Y-112522000D01*
X180463550Y-120370600D02*
X189353550Y-120370600D01*
X188185150Y-128270000D02*
X189353550Y-128270000D01*
X188210550Y-128270000D02*
X180463550Y-128270000D01*
X189353550Y-112522000D02*
X188134350Y-112522000D01*
X190496550Y-113665000D02*
X190496550Y-114833400D01*
X190496550Y-118110000D02*
X190496550Y-114833400D01*
X190496550Y-118110000D02*
X190496550Y-119253000D01*
X190496550Y-122682000D02*
X190496550Y-121539000D01*
X190496550Y-122682000D02*
X190496550Y-125984000D01*
X190496550Y-125958600D02*
X190496550Y-127127000D01*
X192757150Y-112522000D02*
X191664950Y-112522000D01*
X192782550Y-112522000D02*
X205076150Y-112522000D01*
X192782550Y-120396000D02*
X191639550Y-120396000D01*
X192782550Y-120396000D02*
X205076150Y-120396000D01*
X192782550Y-128270000D02*
X205076150Y-128270000D01*
X192807950Y-128270000D02*
X191614150Y-128270000D01*
X205076150Y-112522000D02*
X205076150Y-128270000D01*
X189378950Y-128270000D02*
G75*
G02*
X190496550Y-127152400I1117598J2D01*
G01*
X190496550Y-113665000D02*
G75*
G02*
X189353550Y-112522000I0J1143000D01*
G01*
X190496550Y-127152400D02*
G75*
G02*
X191614150Y-128270000I2J-1117598D01*
G01*
X191639550Y-112522000D02*
G75*
G02*
X190496550Y-113665000I-1143000J0D01*
G01*
X191639550Y-120396000D02*
G75*
G02*
X189353550Y-120396000I-1143000J0D01*
G01*
X189353550Y-120396000D02*
G75*
G02*
X191639550Y-120396000I1143000J0D01*
G01*
D13*
%TO.C,R3*%
X195882174Y-140804700D02*
X195372726Y-140804700D01*
X195882174Y-139759700D02*
X195372726Y-139759700D01*
%TO.C,R6*%
X204190250Y-88391276D02*
X204190250Y-88900724D01*
X203145250Y-88391276D02*
X203145250Y-88900724D01*
%TO.C,R1*%
X195835174Y-132228700D02*
X195325726Y-132228700D01*
X195835174Y-131183700D02*
X195325726Y-131183700D01*
%TO.C,Q3*%
X205153500Y-78776000D02*
X205803500Y-78776000D01*
X205153500Y-78776000D02*
X204503500Y-78776000D01*
X205153500Y-75656000D02*
X205803500Y-75656000D01*
X205153500Y-75656000D02*
X204503500Y-75656000D01*
X206556000Y-79056000D02*
X206076000Y-79056000D01*
X206316000Y-78726000D01*
X206556000Y-79056000D01*
G36*
X206556000Y-79056000D02*
G01*
X206076000Y-79056000D01*
X206316000Y-78726000D01*
X206556000Y-79056000D01*
G37*
D10*
%TO.C,U1*%
X230793000Y-150368000D02*
X230793000Y-151068000D01*
X243713000Y-150368000D02*
X238853000Y-150368000D01*
X238853000Y-150368000D02*
X238853000Y-151068000D01*
X225933000Y-150368000D02*
X225933000Y-89408000D01*
X225933000Y-89408000D02*
X243713000Y-89408000D01*
X243713000Y-89408000D02*
X243713000Y-150368000D01*
X238853000Y-151068000D02*
X230793000Y-151068000D01*
X225933000Y-150368000D02*
X230793000Y-150368000D01*
D14*
X244423000Y-144018000D02*
G75*
G02*
X244223000Y-144018000I-100000J0D01*
G01*
X244223000Y-144018000D02*
G75*
G02*
X244423000Y-144018000I100000J0D01*
G01*
D12*
%TO.C,Conn7*%
X247497600Y-101346000D02*
X252577600Y-101346000D01*
X247497600Y-119126000D02*
X247497600Y-101346000D01*
X247497600Y-119126000D02*
X252577600Y-119126000D01*
X252577600Y-101346000D02*
X252577600Y-119126000D01*
X252577600Y-119126000D02*
X254101600Y-119126000D01*
X254101600Y-101346000D02*
X252577600Y-101346000D01*
X254101600Y-119126000D02*
X254101600Y-101346000D01*
%TD*%
M02*
