%TF.GenerationSoftware,KiCad,Pcbnew,8.0.4*%
%TF.CreationDate,2024-11-14T20:48:33-06:00*%
%TF.ProjectId,RamanSpectrometer_Board,52616d61-6e53-4706-9563-74726f6d6574,rev?*%
%TF.SameCoordinates,Original*%
%TF.FileFunction,Legend,Top*%
%TF.FilePolarity,Positive*%
%FSLAX46Y46*%
G04 Gerber Fmt 4.6, Leading zero omitted, Abs format (unit mm)*
G04 Created by KiCad (PCBNEW 8.0.4) date 2024-11-14 20:48:33*
%MOMM*%
%LPD*%
G01*
G04 APERTURE LIST*
%ADD10C,0.100000*%
%ADD11C,0.150000*%
%ADD12C,0.120000*%
%ADD13C,0.127000*%
%ADD14C,0.200000*%
G04 APERTURE END LIST*
D10*
X204612419Y-150889639D02*
X204612419Y-150699163D01*
X204612419Y-150699163D02*
X204660038Y-150603925D01*
X204660038Y-150603925D02*
X204755276Y-150508687D01*
X204755276Y-150508687D02*
X204945752Y-150461068D01*
X204945752Y-150461068D02*
X205279085Y-150461068D01*
X205279085Y-150461068D02*
X205469561Y-150508687D01*
X205469561Y-150508687D02*
X205564800Y-150603925D01*
X205564800Y-150603925D02*
X205612419Y-150699163D01*
X205612419Y-150699163D02*
X205612419Y-150889639D01*
X205612419Y-150889639D02*
X205564800Y-150984877D01*
X205564800Y-150984877D02*
X205469561Y-151080115D01*
X205469561Y-151080115D02*
X205279085Y-151127734D01*
X205279085Y-151127734D02*
X204945752Y-151127734D01*
X204945752Y-151127734D02*
X204755276Y-151080115D01*
X204755276Y-151080115D02*
X204660038Y-150984877D01*
X204660038Y-150984877D02*
X204612419Y-150889639D01*
X205612419Y-150032496D02*
X204612419Y-150032496D01*
X205612419Y-149461068D02*
X205040990Y-149889639D01*
X204612419Y-149461068D02*
X205183847Y-150032496D01*
X205612419Y-149032496D02*
X204612419Y-149032496D01*
X205612419Y-147270592D02*
X205612419Y-147842020D01*
X205612419Y-147556306D02*
X204612419Y-147556306D01*
X204612419Y-147556306D02*
X204755276Y-147651544D01*
X204755276Y-147651544D02*
X204850514Y-147746782D01*
X204850514Y-147746782D02*
X204898133Y-147842020D01*
X204707657Y-146889639D02*
X204660038Y-146842020D01*
X204660038Y-146842020D02*
X204612419Y-146746782D01*
X204612419Y-146746782D02*
X204612419Y-146508687D01*
X204612419Y-146508687D02*
X204660038Y-146413449D01*
X204660038Y-146413449D02*
X204707657Y-146365830D01*
X204707657Y-146365830D02*
X204802895Y-146318211D01*
X204802895Y-146318211D02*
X204898133Y-146318211D01*
X204898133Y-146318211D02*
X205040990Y-146365830D01*
X205040990Y-146365830D02*
X205612419Y-146937258D01*
X205612419Y-146937258D02*
X205612419Y-146318211D01*
X204612419Y-146032496D02*
X205612419Y-145699163D01*
X205612419Y-145699163D02*
X204612419Y-145365830D01*
X205231466Y-145032496D02*
X205231466Y-144270592D01*
X204612419Y-143318211D02*
X204612419Y-143794401D01*
X204612419Y-143794401D02*
X205088609Y-143842020D01*
X205088609Y-143842020D02*
X205040990Y-143794401D01*
X205040990Y-143794401D02*
X204993371Y-143699163D01*
X204993371Y-143699163D02*
X204993371Y-143461068D01*
X204993371Y-143461068D02*
X205040990Y-143365830D01*
X205040990Y-143365830D02*
X205088609Y-143318211D01*
X205088609Y-143318211D02*
X205183847Y-143270592D01*
X205183847Y-143270592D02*
X205421942Y-143270592D01*
X205421942Y-143270592D02*
X205517180Y-143318211D01*
X205517180Y-143318211D02*
X205564800Y-143365830D01*
X205564800Y-143365830D02*
X205612419Y-143461068D01*
X205612419Y-143461068D02*
X205612419Y-143699163D01*
X205612419Y-143699163D02*
X205564800Y-143794401D01*
X205564800Y-143794401D02*
X205517180Y-143842020D01*
X204612419Y-142984877D02*
X205612419Y-142651544D01*
X205612419Y-142651544D02*
X204612419Y-142318211D01*
X192309180Y-90818687D02*
X192356800Y-90866306D01*
X192356800Y-90866306D02*
X192404419Y-91009163D01*
X192404419Y-91009163D02*
X192404419Y-91104401D01*
X192404419Y-91104401D02*
X192356800Y-91247258D01*
X192356800Y-91247258D02*
X192261561Y-91342496D01*
X192261561Y-91342496D02*
X192166323Y-91390115D01*
X192166323Y-91390115D02*
X191975847Y-91437734D01*
X191975847Y-91437734D02*
X191832990Y-91437734D01*
X191832990Y-91437734D02*
X191642514Y-91390115D01*
X191642514Y-91390115D02*
X191547276Y-91342496D01*
X191547276Y-91342496D02*
X191452038Y-91247258D01*
X191452038Y-91247258D02*
X191404419Y-91104401D01*
X191404419Y-91104401D02*
X191404419Y-91009163D01*
X191404419Y-91009163D02*
X191452038Y-90866306D01*
X191452038Y-90866306D02*
X191499657Y-90818687D01*
X192309180Y-89818687D02*
X192356800Y-89866306D01*
X192356800Y-89866306D02*
X192404419Y-90009163D01*
X192404419Y-90009163D02*
X192404419Y-90104401D01*
X192404419Y-90104401D02*
X192356800Y-90247258D01*
X192356800Y-90247258D02*
X192261561Y-90342496D01*
X192261561Y-90342496D02*
X192166323Y-90390115D01*
X192166323Y-90390115D02*
X191975847Y-90437734D01*
X191975847Y-90437734D02*
X191832990Y-90437734D01*
X191832990Y-90437734D02*
X191642514Y-90390115D01*
X191642514Y-90390115D02*
X191547276Y-90342496D01*
X191547276Y-90342496D02*
X191452038Y-90247258D01*
X191452038Y-90247258D02*
X191404419Y-90104401D01*
X191404419Y-90104401D02*
X191404419Y-90009163D01*
X191404419Y-90009163D02*
X191452038Y-89866306D01*
X191452038Y-89866306D02*
X191499657Y-89818687D01*
X192404419Y-89390115D02*
X191404419Y-89390115D01*
X191404419Y-89390115D02*
X191404419Y-89152020D01*
X191404419Y-89152020D02*
X191452038Y-89009163D01*
X191452038Y-89009163D02*
X191547276Y-88913925D01*
X191547276Y-88913925D02*
X191642514Y-88866306D01*
X191642514Y-88866306D02*
X191832990Y-88818687D01*
X191832990Y-88818687D02*
X191975847Y-88818687D01*
X191975847Y-88818687D02*
X192166323Y-88866306D01*
X192166323Y-88866306D02*
X192261561Y-88913925D01*
X192261561Y-88913925D02*
X192356800Y-89009163D01*
X192356800Y-89009163D02*
X192404419Y-89152020D01*
X192404419Y-89152020D02*
X192404419Y-89390115D01*
X248534587Y-94628687D02*
X248058396Y-94962020D01*
X248534587Y-95200115D02*
X247534587Y-95200115D01*
X247534587Y-95200115D02*
X247534587Y-94819163D01*
X247534587Y-94819163D02*
X247582206Y-94723925D01*
X247582206Y-94723925D02*
X247629825Y-94676306D01*
X247629825Y-94676306D02*
X247725063Y-94628687D01*
X247725063Y-94628687D02*
X247867920Y-94628687D01*
X247867920Y-94628687D02*
X247963158Y-94676306D01*
X247963158Y-94676306D02*
X248010777Y-94723925D01*
X248010777Y-94723925D02*
X248058396Y-94819163D01*
X248058396Y-94819163D02*
X248058396Y-95200115D01*
X248534587Y-93771544D02*
X248010777Y-93771544D01*
X248010777Y-93771544D02*
X247915539Y-93819163D01*
X247915539Y-93819163D02*
X247867920Y-93914401D01*
X247867920Y-93914401D02*
X247867920Y-94104877D01*
X247867920Y-94104877D02*
X247915539Y-94200115D01*
X248486968Y-93771544D02*
X248534587Y-93866782D01*
X248534587Y-93866782D02*
X248534587Y-94104877D01*
X248534587Y-94104877D02*
X248486968Y-94200115D01*
X248486968Y-94200115D02*
X248391729Y-94247734D01*
X248391729Y-94247734D02*
X248296491Y-94247734D01*
X248296491Y-94247734D02*
X248201253Y-94200115D01*
X248201253Y-94200115D02*
X248153634Y-94104877D01*
X248153634Y-94104877D02*
X248153634Y-93866782D01*
X248153634Y-93866782D02*
X248106015Y-93771544D01*
X248534587Y-93295353D02*
X247867920Y-93295353D01*
X247963158Y-93295353D02*
X247915539Y-93247734D01*
X247915539Y-93247734D02*
X247867920Y-93152496D01*
X247867920Y-93152496D02*
X247867920Y-93009639D01*
X247867920Y-93009639D02*
X247915539Y-92914401D01*
X247915539Y-92914401D02*
X248010777Y-92866782D01*
X248010777Y-92866782D02*
X248534587Y-92866782D01*
X248010777Y-92866782D02*
X247915539Y-92819163D01*
X247915539Y-92819163D02*
X247867920Y-92723925D01*
X247867920Y-92723925D02*
X247867920Y-92581068D01*
X247867920Y-92581068D02*
X247915539Y-92485829D01*
X247915539Y-92485829D02*
X248010777Y-92438210D01*
X248010777Y-92438210D02*
X248534587Y-92438210D01*
X248534587Y-91533449D02*
X248010777Y-91533449D01*
X248010777Y-91533449D02*
X247915539Y-91581068D01*
X247915539Y-91581068D02*
X247867920Y-91676306D01*
X247867920Y-91676306D02*
X247867920Y-91866782D01*
X247867920Y-91866782D02*
X247915539Y-91962020D01*
X248486968Y-91533449D02*
X248534587Y-91628687D01*
X248534587Y-91628687D02*
X248534587Y-91866782D01*
X248534587Y-91866782D02*
X248486968Y-91962020D01*
X248486968Y-91962020D02*
X248391729Y-92009639D01*
X248391729Y-92009639D02*
X248296491Y-92009639D01*
X248296491Y-92009639D02*
X248201253Y-91962020D01*
X248201253Y-91962020D02*
X248153634Y-91866782D01*
X248153634Y-91866782D02*
X248153634Y-91628687D01*
X248153634Y-91628687D02*
X248106015Y-91533449D01*
X247867920Y-91057258D02*
X248534587Y-91057258D01*
X247963158Y-91057258D02*
X247915539Y-91009639D01*
X247915539Y-91009639D02*
X247867920Y-90914401D01*
X247867920Y-90914401D02*
X247867920Y-90771544D01*
X247867920Y-90771544D02*
X247915539Y-90676306D01*
X247915539Y-90676306D02*
X248010777Y-90628687D01*
X248010777Y-90628687D02*
X248534587Y-90628687D01*
X248486968Y-89438210D02*
X248534587Y-89295353D01*
X248534587Y-89295353D02*
X248534587Y-89057258D01*
X248534587Y-89057258D02*
X248486968Y-88962020D01*
X248486968Y-88962020D02*
X248439348Y-88914401D01*
X248439348Y-88914401D02*
X248344110Y-88866782D01*
X248344110Y-88866782D02*
X248248872Y-88866782D01*
X248248872Y-88866782D02*
X248153634Y-88914401D01*
X248153634Y-88914401D02*
X248106015Y-88962020D01*
X248106015Y-88962020D02*
X248058396Y-89057258D01*
X248058396Y-89057258D02*
X248010777Y-89247734D01*
X248010777Y-89247734D02*
X247963158Y-89342972D01*
X247963158Y-89342972D02*
X247915539Y-89390591D01*
X247915539Y-89390591D02*
X247820301Y-89438210D01*
X247820301Y-89438210D02*
X247725063Y-89438210D01*
X247725063Y-89438210D02*
X247629825Y-89390591D01*
X247629825Y-89390591D02*
X247582206Y-89342972D01*
X247582206Y-89342972D02*
X247534587Y-89247734D01*
X247534587Y-89247734D02*
X247534587Y-89009639D01*
X247534587Y-89009639D02*
X247582206Y-88866782D01*
X247867920Y-88438210D02*
X248867920Y-88438210D01*
X247915539Y-88438210D02*
X247867920Y-88342972D01*
X247867920Y-88342972D02*
X247867920Y-88152496D01*
X247867920Y-88152496D02*
X247915539Y-88057258D01*
X247915539Y-88057258D02*
X247963158Y-88009639D01*
X247963158Y-88009639D02*
X248058396Y-87962020D01*
X248058396Y-87962020D02*
X248344110Y-87962020D01*
X248344110Y-87962020D02*
X248439348Y-88009639D01*
X248439348Y-88009639D02*
X248486968Y-88057258D01*
X248486968Y-88057258D02*
X248534587Y-88152496D01*
X248534587Y-88152496D02*
X248534587Y-88342972D01*
X248534587Y-88342972D02*
X248486968Y-88438210D01*
X248486968Y-87152496D02*
X248534587Y-87247734D01*
X248534587Y-87247734D02*
X248534587Y-87438210D01*
X248534587Y-87438210D02*
X248486968Y-87533448D01*
X248486968Y-87533448D02*
X248391729Y-87581067D01*
X248391729Y-87581067D02*
X248010777Y-87581067D01*
X248010777Y-87581067D02*
X247915539Y-87533448D01*
X247915539Y-87533448D02*
X247867920Y-87438210D01*
X247867920Y-87438210D02*
X247867920Y-87247734D01*
X247867920Y-87247734D02*
X247915539Y-87152496D01*
X247915539Y-87152496D02*
X248010777Y-87104877D01*
X248010777Y-87104877D02*
X248106015Y-87104877D01*
X248106015Y-87104877D02*
X248201253Y-87581067D01*
X248486968Y-86247734D02*
X248534587Y-86342972D01*
X248534587Y-86342972D02*
X248534587Y-86533448D01*
X248534587Y-86533448D02*
X248486968Y-86628686D01*
X248486968Y-86628686D02*
X248439348Y-86676305D01*
X248439348Y-86676305D02*
X248344110Y-86723924D01*
X248344110Y-86723924D02*
X248058396Y-86723924D01*
X248058396Y-86723924D02*
X247963158Y-86676305D01*
X247963158Y-86676305D02*
X247915539Y-86628686D01*
X247915539Y-86628686D02*
X247867920Y-86533448D01*
X247867920Y-86533448D02*
X247867920Y-86342972D01*
X247867920Y-86342972D02*
X247915539Y-86247734D01*
X247867920Y-85962019D02*
X247867920Y-85581067D01*
X247534587Y-85819162D02*
X248391729Y-85819162D01*
X248391729Y-85819162D02*
X248486968Y-85771543D01*
X248486968Y-85771543D02*
X248534587Y-85676305D01*
X248534587Y-85676305D02*
X248534587Y-85581067D01*
X248534587Y-85247733D02*
X247867920Y-85247733D01*
X248058396Y-85247733D02*
X247963158Y-85200114D01*
X247963158Y-85200114D02*
X247915539Y-85152495D01*
X247915539Y-85152495D02*
X247867920Y-85057257D01*
X247867920Y-85057257D02*
X247867920Y-84962019D01*
X248534587Y-84485828D02*
X248486968Y-84581066D01*
X248486968Y-84581066D02*
X248439348Y-84628685D01*
X248439348Y-84628685D02*
X248344110Y-84676304D01*
X248344110Y-84676304D02*
X248058396Y-84676304D01*
X248058396Y-84676304D02*
X247963158Y-84628685D01*
X247963158Y-84628685D02*
X247915539Y-84581066D01*
X247915539Y-84581066D02*
X247867920Y-84485828D01*
X247867920Y-84485828D02*
X247867920Y-84342971D01*
X247867920Y-84342971D02*
X247915539Y-84247733D01*
X247915539Y-84247733D02*
X247963158Y-84200114D01*
X247963158Y-84200114D02*
X248058396Y-84152495D01*
X248058396Y-84152495D02*
X248344110Y-84152495D01*
X248344110Y-84152495D02*
X248439348Y-84200114D01*
X248439348Y-84200114D02*
X248486968Y-84247733D01*
X248486968Y-84247733D02*
X248534587Y-84342971D01*
X248534587Y-84342971D02*
X248534587Y-84485828D01*
X248534587Y-83723923D02*
X247867920Y-83723923D01*
X247963158Y-83723923D02*
X247915539Y-83676304D01*
X247915539Y-83676304D02*
X247867920Y-83581066D01*
X247867920Y-83581066D02*
X247867920Y-83438209D01*
X247867920Y-83438209D02*
X247915539Y-83342971D01*
X247915539Y-83342971D02*
X248010777Y-83295352D01*
X248010777Y-83295352D02*
X248534587Y-83295352D01*
X248010777Y-83295352D02*
X247915539Y-83247733D01*
X247915539Y-83247733D02*
X247867920Y-83152495D01*
X247867920Y-83152495D02*
X247867920Y-83009638D01*
X247867920Y-83009638D02*
X247915539Y-82914399D01*
X247915539Y-82914399D02*
X248010777Y-82866780D01*
X248010777Y-82866780D02*
X248534587Y-82866780D01*
X248486968Y-82009638D02*
X248534587Y-82104876D01*
X248534587Y-82104876D02*
X248534587Y-82295352D01*
X248534587Y-82295352D02*
X248486968Y-82390590D01*
X248486968Y-82390590D02*
X248391729Y-82438209D01*
X248391729Y-82438209D02*
X248010777Y-82438209D01*
X248010777Y-82438209D02*
X247915539Y-82390590D01*
X247915539Y-82390590D02*
X247867920Y-82295352D01*
X247867920Y-82295352D02*
X247867920Y-82104876D01*
X247867920Y-82104876D02*
X247915539Y-82009638D01*
X247915539Y-82009638D02*
X248010777Y-81962019D01*
X248010777Y-81962019D02*
X248106015Y-81962019D01*
X248106015Y-81962019D02*
X248201253Y-82438209D01*
X247867920Y-81676304D02*
X247867920Y-81295352D01*
X247534587Y-81533447D02*
X248391729Y-81533447D01*
X248391729Y-81533447D02*
X248486968Y-81485828D01*
X248486968Y-81485828D02*
X248534587Y-81390590D01*
X248534587Y-81390590D02*
X248534587Y-81295352D01*
X248486968Y-80581066D02*
X248534587Y-80676304D01*
X248534587Y-80676304D02*
X248534587Y-80866780D01*
X248534587Y-80866780D02*
X248486968Y-80962018D01*
X248486968Y-80962018D02*
X248391729Y-81009637D01*
X248391729Y-81009637D02*
X248010777Y-81009637D01*
X248010777Y-81009637D02*
X247915539Y-80962018D01*
X247915539Y-80962018D02*
X247867920Y-80866780D01*
X247867920Y-80866780D02*
X247867920Y-80676304D01*
X247867920Y-80676304D02*
X247915539Y-80581066D01*
X247915539Y-80581066D02*
X248010777Y-80533447D01*
X248010777Y-80533447D02*
X248106015Y-80533447D01*
X248106015Y-80533447D02*
X248201253Y-81009637D01*
X248534587Y-80104875D02*
X247867920Y-80104875D01*
X248058396Y-80104875D02*
X247963158Y-80057256D01*
X247963158Y-80057256D02*
X247915539Y-80009637D01*
X247915539Y-80009637D02*
X247867920Y-79914399D01*
X247867920Y-79914399D02*
X247867920Y-79819161D01*
X248486968Y-79438208D02*
X248534587Y-79438208D01*
X248534587Y-79438208D02*
X248629825Y-79485827D01*
X248629825Y-79485827D02*
X248677444Y-79533446D01*
X248534587Y-77676304D02*
X248058396Y-78009637D01*
X248534587Y-78247732D02*
X247534587Y-78247732D01*
X247534587Y-78247732D02*
X247534587Y-77866780D01*
X247534587Y-77866780D02*
X247582206Y-77771542D01*
X247582206Y-77771542D02*
X247629825Y-77723923D01*
X247629825Y-77723923D02*
X247725063Y-77676304D01*
X247725063Y-77676304D02*
X247867920Y-77676304D01*
X247867920Y-77676304D02*
X247963158Y-77723923D01*
X247963158Y-77723923D02*
X248010777Y-77771542D01*
X248010777Y-77771542D02*
X248058396Y-77866780D01*
X248058396Y-77866780D02*
X248058396Y-78247732D01*
X248486968Y-76866780D02*
X248534587Y-76962018D01*
X248534587Y-76962018D02*
X248534587Y-77152494D01*
X248534587Y-77152494D02*
X248486968Y-77247732D01*
X248486968Y-77247732D02*
X248391729Y-77295351D01*
X248391729Y-77295351D02*
X248010777Y-77295351D01*
X248010777Y-77295351D02*
X247915539Y-77247732D01*
X247915539Y-77247732D02*
X247867920Y-77152494D01*
X247867920Y-77152494D02*
X247867920Y-76962018D01*
X247867920Y-76962018D02*
X247915539Y-76866780D01*
X247915539Y-76866780D02*
X248010777Y-76819161D01*
X248010777Y-76819161D02*
X248106015Y-76819161D01*
X248106015Y-76819161D02*
X248201253Y-77295351D01*
X247867920Y-76485827D02*
X248534587Y-76247732D01*
X248534587Y-76247732D02*
X247867920Y-76009637D01*
X248534587Y-74342970D02*
X248534587Y-74914398D01*
X248534587Y-74628684D02*
X247534587Y-74628684D01*
X247534587Y-74628684D02*
X247677444Y-74723922D01*
X247677444Y-74723922D02*
X247772682Y-74819160D01*
X247772682Y-74819160D02*
X247820301Y-74914398D01*
X250144531Y-95200115D02*
X249144531Y-95200115D01*
X249144531Y-95200115D02*
X249858816Y-94866782D01*
X249858816Y-94866782D02*
X249144531Y-94533449D01*
X249144531Y-94533449D02*
X250144531Y-94533449D01*
X250144531Y-93628687D02*
X249620721Y-93628687D01*
X249620721Y-93628687D02*
X249525483Y-93676306D01*
X249525483Y-93676306D02*
X249477864Y-93771544D01*
X249477864Y-93771544D02*
X249477864Y-93962020D01*
X249477864Y-93962020D02*
X249525483Y-94057258D01*
X250096912Y-93628687D02*
X250144531Y-93723925D01*
X250144531Y-93723925D02*
X250144531Y-93962020D01*
X250144531Y-93962020D02*
X250096912Y-94057258D01*
X250096912Y-94057258D02*
X250001673Y-94104877D01*
X250001673Y-94104877D02*
X249906435Y-94104877D01*
X249906435Y-94104877D02*
X249811197Y-94057258D01*
X249811197Y-94057258D02*
X249763578Y-93962020D01*
X249763578Y-93962020D02*
X249763578Y-93723925D01*
X249763578Y-93723925D02*
X249715959Y-93628687D01*
X250144531Y-93152496D02*
X249477864Y-93152496D01*
X249668340Y-93152496D02*
X249573102Y-93104877D01*
X249573102Y-93104877D02*
X249525483Y-93057258D01*
X249525483Y-93057258D02*
X249477864Y-92962020D01*
X249477864Y-92962020D02*
X249477864Y-92866782D01*
X250096912Y-92581067D02*
X250144531Y-92485829D01*
X250144531Y-92485829D02*
X250144531Y-92295353D01*
X250144531Y-92295353D02*
X250096912Y-92200115D01*
X250096912Y-92200115D02*
X250001673Y-92152496D01*
X250001673Y-92152496D02*
X249954054Y-92152496D01*
X249954054Y-92152496D02*
X249858816Y-92200115D01*
X249858816Y-92200115D02*
X249811197Y-92295353D01*
X249811197Y-92295353D02*
X249811197Y-92438210D01*
X249811197Y-92438210D02*
X249763578Y-92533448D01*
X249763578Y-92533448D02*
X249668340Y-92581067D01*
X249668340Y-92581067D02*
X249620721Y-92581067D01*
X249620721Y-92581067D02*
X249525483Y-92533448D01*
X249525483Y-92533448D02*
X249477864Y-92438210D01*
X249477864Y-92438210D02*
X249477864Y-92295353D01*
X249477864Y-92295353D02*
X249525483Y-92200115D01*
X250144531Y-90390591D02*
X249668340Y-90723924D01*
X250144531Y-90962019D02*
X249144531Y-90962019D01*
X249144531Y-90962019D02*
X249144531Y-90581067D01*
X249144531Y-90581067D02*
X249192150Y-90485829D01*
X249192150Y-90485829D02*
X249239769Y-90438210D01*
X249239769Y-90438210D02*
X249335007Y-90390591D01*
X249335007Y-90390591D02*
X249477864Y-90390591D01*
X249477864Y-90390591D02*
X249573102Y-90438210D01*
X249573102Y-90438210D02*
X249620721Y-90485829D01*
X249620721Y-90485829D02*
X249668340Y-90581067D01*
X249668340Y-90581067D02*
X249668340Y-90962019D01*
X250144531Y-89819162D02*
X250096912Y-89914400D01*
X250096912Y-89914400D02*
X250049292Y-89962019D01*
X250049292Y-89962019D02*
X249954054Y-90009638D01*
X249954054Y-90009638D02*
X249668340Y-90009638D01*
X249668340Y-90009638D02*
X249573102Y-89962019D01*
X249573102Y-89962019D02*
X249525483Y-89914400D01*
X249525483Y-89914400D02*
X249477864Y-89819162D01*
X249477864Y-89819162D02*
X249477864Y-89676305D01*
X249477864Y-89676305D02*
X249525483Y-89581067D01*
X249525483Y-89581067D02*
X249573102Y-89533448D01*
X249573102Y-89533448D02*
X249668340Y-89485829D01*
X249668340Y-89485829D02*
X249954054Y-89485829D01*
X249954054Y-89485829D02*
X250049292Y-89533448D01*
X250049292Y-89533448D02*
X250096912Y-89581067D01*
X250096912Y-89581067D02*
X250144531Y-89676305D01*
X250144531Y-89676305D02*
X250144531Y-89819162D01*
X249477864Y-89152495D02*
X250144531Y-88914400D01*
X250144531Y-88914400D02*
X249477864Y-88676305D01*
X250096912Y-87914400D02*
X250144531Y-88009638D01*
X250144531Y-88009638D02*
X250144531Y-88200114D01*
X250144531Y-88200114D02*
X250096912Y-88295352D01*
X250096912Y-88295352D02*
X250001673Y-88342971D01*
X250001673Y-88342971D02*
X249620721Y-88342971D01*
X249620721Y-88342971D02*
X249525483Y-88295352D01*
X249525483Y-88295352D02*
X249477864Y-88200114D01*
X249477864Y-88200114D02*
X249477864Y-88009638D01*
X249477864Y-88009638D02*
X249525483Y-87914400D01*
X249525483Y-87914400D02*
X249620721Y-87866781D01*
X249620721Y-87866781D02*
X249715959Y-87866781D01*
X249715959Y-87866781D02*
X249811197Y-88342971D01*
X250144531Y-87438209D02*
X249477864Y-87438209D01*
X249668340Y-87438209D02*
X249573102Y-87390590D01*
X249573102Y-87390590D02*
X249525483Y-87342971D01*
X249525483Y-87342971D02*
X249477864Y-87247733D01*
X249477864Y-87247733D02*
X249477864Y-87152495D01*
X250096912Y-86771542D02*
X250144531Y-86771542D01*
X250144531Y-86771542D02*
X250239769Y-86819161D01*
X250239769Y-86819161D02*
X250287388Y-86866780D01*
X249239769Y-85628685D02*
X249192150Y-85581066D01*
X249192150Y-85581066D02*
X249144531Y-85485828D01*
X249144531Y-85485828D02*
X249144531Y-85247733D01*
X249144531Y-85247733D02*
X249192150Y-85152495D01*
X249192150Y-85152495D02*
X249239769Y-85104876D01*
X249239769Y-85104876D02*
X249335007Y-85057257D01*
X249335007Y-85057257D02*
X249430245Y-85057257D01*
X249430245Y-85057257D02*
X249573102Y-85104876D01*
X249573102Y-85104876D02*
X250144531Y-85676304D01*
X250144531Y-85676304D02*
X250144531Y-85057257D01*
X249144531Y-84438209D02*
X249144531Y-84342971D01*
X249144531Y-84342971D02*
X249192150Y-84247733D01*
X249192150Y-84247733D02*
X249239769Y-84200114D01*
X249239769Y-84200114D02*
X249335007Y-84152495D01*
X249335007Y-84152495D02*
X249525483Y-84104876D01*
X249525483Y-84104876D02*
X249763578Y-84104876D01*
X249763578Y-84104876D02*
X249954054Y-84152495D01*
X249954054Y-84152495D02*
X250049292Y-84200114D01*
X250049292Y-84200114D02*
X250096912Y-84247733D01*
X250096912Y-84247733D02*
X250144531Y-84342971D01*
X250144531Y-84342971D02*
X250144531Y-84438209D01*
X250144531Y-84438209D02*
X250096912Y-84533447D01*
X250096912Y-84533447D02*
X250049292Y-84581066D01*
X250049292Y-84581066D02*
X249954054Y-84628685D01*
X249954054Y-84628685D02*
X249763578Y-84676304D01*
X249763578Y-84676304D02*
X249525483Y-84676304D01*
X249525483Y-84676304D02*
X249335007Y-84628685D01*
X249335007Y-84628685D02*
X249239769Y-84581066D01*
X249239769Y-84581066D02*
X249192150Y-84533447D01*
X249192150Y-84533447D02*
X249144531Y-84438209D01*
X249239769Y-83723923D02*
X249192150Y-83676304D01*
X249192150Y-83676304D02*
X249144531Y-83581066D01*
X249144531Y-83581066D02*
X249144531Y-83342971D01*
X249144531Y-83342971D02*
X249192150Y-83247733D01*
X249192150Y-83247733D02*
X249239769Y-83200114D01*
X249239769Y-83200114D02*
X249335007Y-83152495D01*
X249335007Y-83152495D02*
X249430245Y-83152495D01*
X249430245Y-83152495D02*
X249573102Y-83200114D01*
X249573102Y-83200114D02*
X250144531Y-83771542D01*
X250144531Y-83771542D02*
X250144531Y-83152495D01*
X249144531Y-82247733D02*
X249144531Y-82723923D01*
X249144531Y-82723923D02*
X249620721Y-82771542D01*
X249620721Y-82771542D02*
X249573102Y-82723923D01*
X249573102Y-82723923D02*
X249525483Y-82628685D01*
X249525483Y-82628685D02*
X249525483Y-82390590D01*
X249525483Y-82390590D02*
X249573102Y-82295352D01*
X249573102Y-82295352D02*
X249620721Y-82247733D01*
X249620721Y-82247733D02*
X249715959Y-82200114D01*
X249715959Y-82200114D02*
X249954054Y-82200114D01*
X249954054Y-82200114D02*
X250049292Y-82247733D01*
X250049292Y-82247733D02*
X250096912Y-82295352D01*
X250096912Y-82295352D02*
X250144531Y-82390590D01*
X250144531Y-82390590D02*
X250144531Y-82628685D01*
X250144531Y-82628685D02*
X250096912Y-82723923D01*
X250096912Y-82723923D02*
X250049292Y-82771542D01*
X251754475Y-95200115D02*
X250754475Y-95200115D01*
X250754475Y-95200115D02*
X251468760Y-94866782D01*
X251468760Y-94866782D02*
X250754475Y-94533449D01*
X250754475Y-94533449D02*
X251754475Y-94533449D01*
X251754475Y-94057258D02*
X251087808Y-94057258D01*
X250754475Y-94057258D02*
X250802094Y-94104877D01*
X250802094Y-94104877D02*
X250849713Y-94057258D01*
X250849713Y-94057258D02*
X250802094Y-94009639D01*
X250802094Y-94009639D02*
X250754475Y-94057258D01*
X250754475Y-94057258D02*
X250849713Y-94057258D01*
X251706856Y-93628687D02*
X251754475Y-93533449D01*
X251754475Y-93533449D02*
X251754475Y-93342973D01*
X251754475Y-93342973D02*
X251706856Y-93247735D01*
X251706856Y-93247735D02*
X251611617Y-93200116D01*
X251611617Y-93200116D02*
X251563998Y-93200116D01*
X251563998Y-93200116D02*
X251468760Y-93247735D01*
X251468760Y-93247735D02*
X251421141Y-93342973D01*
X251421141Y-93342973D02*
X251421141Y-93485830D01*
X251421141Y-93485830D02*
X251373522Y-93581068D01*
X251373522Y-93581068D02*
X251278284Y-93628687D01*
X251278284Y-93628687D02*
X251230665Y-93628687D01*
X251230665Y-93628687D02*
X251135427Y-93581068D01*
X251135427Y-93581068D02*
X251087808Y-93485830D01*
X251087808Y-93485830D02*
X251087808Y-93342973D01*
X251087808Y-93342973D02*
X251135427Y-93247735D01*
X251706856Y-92819163D02*
X251754475Y-92723925D01*
X251754475Y-92723925D02*
X251754475Y-92533449D01*
X251754475Y-92533449D02*
X251706856Y-92438211D01*
X251706856Y-92438211D02*
X251611617Y-92390592D01*
X251611617Y-92390592D02*
X251563998Y-92390592D01*
X251563998Y-92390592D02*
X251468760Y-92438211D01*
X251468760Y-92438211D02*
X251421141Y-92533449D01*
X251421141Y-92533449D02*
X251421141Y-92676306D01*
X251421141Y-92676306D02*
X251373522Y-92771544D01*
X251373522Y-92771544D02*
X251278284Y-92819163D01*
X251278284Y-92819163D02*
X251230665Y-92819163D01*
X251230665Y-92819163D02*
X251135427Y-92771544D01*
X251135427Y-92771544D02*
X251087808Y-92676306D01*
X251087808Y-92676306D02*
X251087808Y-92533449D01*
X251087808Y-92533449D02*
X251135427Y-92438211D01*
X251754475Y-91819163D02*
X251706856Y-91914401D01*
X251706856Y-91914401D02*
X251659236Y-91962020D01*
X251659236Y-91962020D02*
X251563998Y-92009639D01*
X251563998Y-92009639D02*
X251278284Y-92009639D01*
X251278284Y-92009639D02*
X251183046Y-91962020D01*
X251183046Y-91962020D02*
X251135427Y-91914401D01*
X251135427Y-91914401D02*
X251087808Y-91819163D01*
X251087808Y-91819163D02*
X251087808Y-91676306D01*
X251087808Y-91676306D02*
X251135427Y-91581068D01*
X251135427Y-91581068D02*
X251183046Y-91533449D01*
X251183046Y-91533449D02*
X251278284Y-91485830D01*
X251278284Y-91485830D02*
X251563998Y-91485830D01*
X251563998Y-91485830D02*
X251659236Y-91533449D01*
X251659236Y-91533449D02*
X251706856Y-91581068D01*
X251706856Y-91581068D02*
X251754475Y-91676306D01*
X251754475Y-91676306D02*
X251754475Y-91819163D01*
X251087808Y-90628687D02*
X251754475Y-90628687D01*
X251087808Y-91057258D02*
X251611617Y-91057258D01*
X251611617Y-91057258D02*
X251706856Y-91009639D01*
X251706856Y-91009639D02*
X251754475Y-90914401D01*
X251754475Y-90914401D02*
X251754475Y-90771544D01*
X251754475Y-90771544D02*
X251706856Y-90676306D01*
X251706856Y-90676306D02*
X251659236Y-90628687D01*
X251754475Y-90152496D02*
X251087808Y-90152496D01*
X251278284Y-90152496D02*
X251183046Y-90104877D01*
X251183046Y-90104877D02*
X251135427Y-90057258D01*
X251135427Y-90057258D02*
X251087808Y-89962020D01*
X251087808Y-89962020D02*
X251087808Y-89866782D01*
X251754475Y-89533448D02*
X251087808Y-89533448D01*
X250754475Y-89533448D02*
X250802094Y-89581067D01*
X250802094Y-89581067D02*
X250849713Y-89533448D01*
X250849713Y-89533448D02*
X250802094Y-89485829D01*
X250802094Y-89485829D02*
X250754475Y-89533448D01*
X250754475Y-89533448D02*
X250849713Y-89533448D01*
X251706856Y-88342972D02*
X251754475Y-88200115D01*
X251754475Y-88200115D02*
X251754475Y-87962020D01*
X251754475Y-87962020D02*
X251706856Y-87866782D01*
X251706856Y-87866782D02*
X251659236Y-87819163D01*
X251659236Y-87819163D02*
X251563998Y-87771544D01*
X251563998Y-87771544D02*
X251468760Y-87771544D01*
X251468760Y-87771544D02*
X251373522Y-87819163D01*
X251373522Y-87819163D02*
X251325903Y-87866782D01*
X251325903Y-87866782D02*
X251278284Y-87962020D01*
X251278284Y-87962020D02*
X251230665Y-88152496D01*
X251230665Y-88152496D02*
X251183046Y-88247734D01*
X251183046Y-88247734D02*
X251135427Y-88295353D01*
X251135427Y-88295353D02*
X251040189Y-88342972D01*
X251040189Y-88342972D02*
X250944951Y-88342972D01*
X250944951Y-88342972D02*
X250849713Y-88295353D01*
X250849713Y-88295353D02*
X250802094Y-88247734D01*
X250802094Y-88247734D02*
X250754475Y-88152496D01*
X250754475Y-88152496D02*
X250754475Y-87914401D01*
X250754475Y-87914401D02*
X250802094Y-87771544D01*
X251754475Y-86533448D02*
X251754475Y-86581068D01*
X251754475Y-86581068D02*
X251706856Y-86676306D01*
X251706856Y-86676306D02*
X251563998Y-86819163D01*
X251563998Y-86819163D02*
X251278284Y-87057258D01*
X251278284Y-87057258D02*
X251135427Y-87152496D01*
X251135427Y-87152496D02*
X250992570Y-87200115D01*
X250992570Y-87200115D02*
X250897332Y-87200115D01*
X250897332Y-87200115D02*
X250802094Y-87152496D01*
X250802094Y-87152496D02*
X250754475Y-87057258D01*
X250754475Y-87057258D02*
X250754475Y-87009639D01*
X250754475Y-87009639D02*
X250802094Y-86914401D01*
X250802094Y-86914401D02*
X250897332Y-86866782D01*
X250897332Y-86866782D02*
X250944951Y-86866782D01*
X250944951Y-86866782D02*
X251040189Y-86914401D01*
X251040189Y-86914401D02*
X251087808Y-86962020D01*
X251087808Y-86962020D02*
X251278284Y-87247734D01*
X251278284Y-87247734D02*
X251325903Y-87295353D01*
X251325903Y-87295353D02*
X251421141Y-87342972D01*
X251421141Y-87342972D02*
X251563998Y-87342972D01*
X251563998Y-87342972D02*
X251659236Y-87295353D01*
X251659236Y-87295353D02*
X251706856Y-87247734D01*
X251706856Y-87247734D02*
X251754475Y-87152496D01*
X251754475Y-87152496D02*
X251754475Y-87009639D01*
X251754475Y-87009639D02*
X251706856Y-86914401D01*
X251706856Y-86914401D02*
X251659236Y-86866782D01*
X251659236Y-86866782D02*
X251468760Y-86723925D01*
X251468760Y-86723925D02*
X251325903Y-86676306D01*
X251325903Y-86676306D02*
X251230665Y-86676306D01*
X250754475Y-86247734D02*
X250754475Y-85676306D01*
X251754475Y-85962020D02*
X250754475Y-85962020D01*
X252364419Y-95295353D02*
X252364419Y-94628687D01*
X252364419Y-94628687D02*
X253364419Y-95295353D01*
X253364419Y-95295353D02*
X253364419Y-94628687D01*
X253316800Y-93866782D02*
X253364419Y-93962020D01*
X253364419Y-93962020D02*
X253364419Y-94152496D01*
X253364419Y-94152496D02*
X253316800Y-94247734D01*
X253316800Y-94247734D02*
X253221561Y-94295353D01*
X253221561Y-94295353D02*
X252840609Y-94295353D01*
X252840609Y-94295353D02*
X252745371Y-94247734D01*
X252745371Y-94247734D02*
X252697752Y-94152496D01*
X252697752Y-94152496D02*
X252697752Y-93962020D01*
X252697752Y-93962020D02*
X252745371Y-93866782D01*
X252745371Y-93866782D02*
X252840609Y-93819163D01*
X252840609Y-93819163D02*
X252935847Y-93819163D01*
X252935847Y-93819163D02*
X253031085Y-94295353D01*
X252697752Y-93390591D02*
X253364419Y-93390591D01*
X252792990Y-93390591D02*
X252745371Y-93342972D01*
X252745371Y-93342972D02*
X252697752Y-93247734D01*
X252697752Y-93247734D02*
X252697752Y-93104877D01*
X252697752Y-93104877D02*
X252745371Y-93009639D01*
X252745371Y-93009639D02*
X252840609Y-92962020D01*
X252840609Y-92962020D02*
X253364419Y-92962020D01*
X252364419Y-91866781D02*
X252364419Y-91295353D01*
X253364419Y-91581067D02*
X252364419Y-91581067D01*
X253364419Y-90962019D02*
X252364419Y-90962019D01*
X253364419Y-90533448D02*
X252840609Y-90533448D01*
X252840609Y-90533448D02*
X252745371Y-90581067D01*
X252745371Y-90581067D02*
X252697752Y-90676305D01*
X252697752Y-90676305D02*
X252697752Y-90819162D01*
X252697752Y-90819162D02*
X252745371Y-90914400D01*
X252745371Y-90914400D02*
X252792990Y-90962019D01*
X252697752Y-89628686D02*
X253364419Y-89628686D01*
X252697752Y-90057257D02*
X253221561Y-90057257D01*
X253221561Y-90057257D02*
X253316800Y-90009638D01*
X253316800Y-90009638D02*
X253364419Y-89914400D01*
X253364419Y-89914400D02*
X253364419Y-89771543D01*
X253364419Y-89771543D02*
X253316800Y-89676305D01*
X253316800Y-89676305D02*
X253269180Y-89628686D01*
X253364419Y-89152495D02*
X252697752Y-89152495D01*
X252888228Y-89152495D02*
X252792990Y-89104876D01*
X252792990Y-89104876D02*
X252745371Y-89057257D01*
X252745371Y-89057257D02*
X252697752Y-88962019D01*
X252697752Y-88962019D02*
X252697752Y-88866781D01*
X253364419Y-88533447D02*
X252697752Y-88533447D01*
X252792990Y-88533447D02*
X252745371Y-88485828D01*
X252745371Y-88485828D02*
X252697752Y-88390590D01*
X252697752Y-88390590D02*
X252697752Y-88247733D01*
X252697752Y-88247733D02*
X252745371Y-88152495D01*
X252745371Y-88152495D02*
X252840609Y-88104876D01*
X252840609Y-88104876D02*
X253364419Y-88104876D01*
X252840609Y-88104876D02*
X252745371Y-88057257D01*
X252745371Y-88057257D02*
X252697752Y-87962019D01*
X252697752Y-87962019D02*
X252697752Y-87819162D01*
X252697752Y-87819162D02*
X252745371Y-87723923D01*
X252745371Y-87723923D02*
X252840609Y-87676304D01*
X252840609Y-87676304D02*
X253364419Y-87676304D01*
X253364419Y-86771543D02*
X252840609Y-86771543D01*
X252840609Y-86771543D02*
X252745371Y-86819162D01*
X252745371Y-86819162D02*
X252697752Y-86914400D01*
X252697752Y-86914400D02*
X252697752Y-87104876D01*
X252697752Y-87104876D02*
X252745371Y-87200114D01*
X253316800Y-86771543D02*
X253364419Y-86866781D01*
X253364419Y-86866781D02*
X253364419Y-87104876D01*
X253364419Y-87104876D02*
X253316800Y-87200114D01*
X253316800Y-87200114D02*
X253221561Y-87247733D01*
X253221561Y-87247733D02*
X253126323Y-87247733D01*
X253126323Y-87247733D02*
X253031085Y-87200114D01*
X253031085Y-87200114D02*
X252983466Y-87104876D01*
X252983466Y-87104876D02*
X252983466Y-86866781D01*
X252983466Y-86866781D02*
X252935847Y-86771543D01*
X252697752Y-86295352D02*
X253364419Y-86295352D01*
X252792990Y-86295352D02*
X252745371Y-86247733D01*
X252745371Y-86247733D02*
X252697752Y-86152495D01*
X252697752Y-86152495D02*
X252697752Y-86009638D01*
X252697752Y-86009638D02*
X252745371Y-85914400D01*
X252745371Y-85914400D02*
X252840609Y-85866781D01*
X252840609Y-85866781D02*
X253364419Y-85866781D01*
X253364419Y-83819161D02*
X253364419Y-83866781D01*
X253364419Y-83866781D02*
X253316800Y-83962019D01*
X253316800Y-83962019D02*
X253173942Y-84104876D01*
X253173942Y-84104876D02*
X252888228Y-84342971D01*
X252888228Y-84342971D02*
X252745371Y-84438209D01*
X252745371Y-84438209D02*
X252602514Y-84485828D01*
X252602514Y-84485828D02*
X252507276Y-84485828D01*
X252507276Y-84485828D02*
X252412038Y-84438209D01*
X252412038Y-84438209D02*
X252364419Y-84342971D01*
X252364419Y-84342971D02*
X252364419Y-84295352D01*
X252364419Y-84295352D02*
X252412038Y-84200114D01*
X252412038Y-84200114D02*
X252507276Y-84152495D01*
X252507276Y-84152495D02*
X252554895Y-84152495D01*
X252554895Y-84152495D02*
X252650133Y-84200114D01*
X252650133Y-84200114D02*
X252697752Y-84247733D01*
X252697752Y-84247733D02*
X252888228Y-84533447D01*
X252888228Y-84533447D02*
X252935847Y-84581066D01*
X252935847Y-84581066D02*
X253031085Y-84628685D01*
X253031085Y-84628685D02*
X253173942Y-84628685D01*
X253173942Y-84628685D02*
X253269180Y-84581066D01*
X253269180Y-84581066D02*
X253316800Y-84533447D01*
X253316800Y-84533447D02*
X253364419Y-84438209D01*
X253364419Y-84438209D02*
X253364419Y-84295352D01*
X253364419Y-84295352D02*
X253316800Y-84200114D01*
X253316800Y-84200114D02*
X253269180Y-84152495D01*
X253269180Y-84152495D02*
X253078704Y-84009638D01*
X253078704Y-84009638D02*
X252935847Y-83962019D01*
X252935847Y-83962019D02*
X252840609Y-83962019D01*
X253364419Y-82628685D02*
X252364419Y-82628685D01*
X252364419Y-82628685D02*
X253364419Y-82057257D01*
X253364419Y-82057257D02*
X252364419Y-82057257D01*
X253364419Y-81438209D02*
X253316800Y-81533447D01*
X253316800Y-81533447D02*
X253269180Y-81581066D01*
X253269180Y-81581066D02*
X253173942Y-81628685D01*
X253173942Y-81628685D02*
X252888228Y-81628685D01*
X252888228Y-81628685D02*
X252792990Y-81581066D01*
X252792990Y-81581066D02*
X252745371Y-81533447D01*
X252745371Y-81533447D02*
X252697752Y-81438209D01*
X252697752Y-81438209D02*
X252697752Y-81295352D01*
X252697752Y-81295352D02*
X252745371Y-81200114D01*
X252745371Y-81200114D02*
X252792990Y-81152495D01*
X252792990Y-81152495D02*
X252888228Y-81104876D01*
X252888228Y-81104876D02*
X253173942Y-81104876D01*
X253173942Y-81104876D02*
X253269180Y-81152495D01*
X253269180Y-81152495D02*
X253316800Y-81200114D01*
X253316800Y-81200114D02*
X253364419Y-81295352D01*
X253364419Y-81295352D02*
X253364419Y-81438209D01*
X253364419Y-80247733D02*
X252840609Y-80247733D01*
X252840609Y-80247733D02*
X252745371Y-80295352D01*
X252745371Y-80295352D02*
X252697752Y-80390590D01*
X252697752Y-80390590D02*
X252697752Y-80581066D01*
X252697752Y-80581066D02*
X252745371Y-80676304D01*
X253316800Y-80247733D02*
X253364419Y-80342971D01*
X253364419Y-80342971D02*
X253364419Y-80581066D01*
X253364419Y-80581066D02*
X253316800Y-80676304D01*
X253316800Y-80676304D02*
X253221561Y-80723923D01*
X253221561Y-80723923D02*
X253126323Y-80723923D01*
X253126323Y-80723923D02*
X253031085Y-80676304D01*
X253031085Y-80676304D02*
X252983466Y-80581066D01*
X252983466Y-80581066D02*
X252983466Y-80342971D01*
X252983466Y-80342971D02*
X252935847Y-80247733D01*
X253364419Y-79771542D02*
X252364419Y-79771542D01*
X253364419Y-79342971D02*
X252840609Y-79342971D01*
X252840609Y-79342971D02*
X252745371Y-79390590D01*
X252745371Y-79390590D02*
X252697752Y-79485828D01*
X252697752Y-79485828D02*
X252697752Y-79628685D01*
X252697752Y-79628685D02*
X252745371Y-79723923D01*
X252745371Y-79723923D02*
X252792990Y-79771542D01*
X253316800Y-78152494D02*
X253364419Y-78009637D01*
X253364419Y-78009637D02*
X253364419Y-77771542D01*
X253364419Y-77771542D02*
X253316800Y-77676304D01*
X253316800Y-77676304D02*
X253269180Y-77628685D01*
X253269180Y-77628685D02*
X253173942Y-77581066D01*
X253173942Y-77581066D02*
X253078704Y-77581066D01*
X253078704Y-77581066D02*
X252983466Y-77628685D01*
X252983466Y-77628685D02*
X252935847Y-77676304D01*
X252935847Y-77676304D02*
X252888228Y-77771542D01*
X252888228Y-77771542D02*
X252840609Y-77962018D01*
X252840609Y-77962018D02*
X252792990Y-78057256D01*
X252792990Y-78057256D02*
X252745371Y-78104875D01*
X252745371Y-78104875D02*
X252650133Y-78152494D01*
X252650133Y-78152494D02*
X252554895Y-78152494D01*
X252554895Y-78152494D02*
X252459657Y-78104875D01*
X252459657Y-78104875D02*
X252412038Y-78057256D01*
X252412038Y-78057256D02*
X252364419Y-77962018D01*
X252364419Y-77962018D02*
X252364419Y-77723923D01*
X252364419Y-77723923D02*
X252412038Y-77581066D01*
X196852265Y-111854704D02*
X197328455Y-111854704D01*
X196757027Y-112140419D02*
X197090360Y-111140419D01*
X197090360Y-111140419D02*
X197423693Y-112140419D01*
X197757027Y-111473752D02*
X197757027Y-112140419D01*
X197757027Y-111568990D02*
X197804646Y-111521371D01*
X197804646Y-111521371D02*
X197899884Y-111473752D01*
X197899884Y-111473752D02*
X198042741Y-111473752D01*
X198042741Y-111473752D02*
X198137979Y-111521371D01*
X198137979Y-111521371D02*
X198185598Y-111616609D01*
X198185598Y-111616609D02*
X198185598Y-112140419D01*
X199090360Y-112140419D02*
X199090360Y-111140419D01*
X199090360Y-112092800D02*
X198995122Y-112140419D01*
X198995122Y-112140419D02*
X198804646Y-112140419D01*
X198804646Y-112140419D02*
X198709408Y-112092800D01*
X198709408Y-112092800D02*
X198661789Y-112045180D01*
X198661789Y-112045180D02*
X198614170Y-111949942D01*
X198614170Y-111949942D02*
X198614170Y-111664228D01*
X198614170Y-111664228D02*
X198661789Y-111568990D01*
X198661789Y-111568990D02*
X198709408Y-111521371D01*
X198709408Y-111521371D02*
X198804646Y-111473752D01*
X198804646Y-111473752D02*
X198995122Y-111473752D01*
X198995122Y-111473752D02*
X199090360Y-111521371D01*
X199947503Y-112092800D02*
X199852265Y-112140419D01*
X199852265Y-112140419D02*
X199661789Y-112140419D01*
X199661789Y-112140419D02*
X199566551Y-112092800D01*
X199566551Y-112092800D02*
X199518932Y-111997561D01*
X199518932Y-111997561D02*
X199518932Y-111616609D01*
X199518932Y-111616609D02*
X199566551Y-111521371D01*
X199566551Y-111521371D02*
X199661789Y-111473752D01*
X199661789Y-111473752D02*
X199852265Y-111473752D01*
X199852265Y-111473752D02*
X199947503Y-111521371D01*
X199947503Y-111521371D02*
X199995122Y-111616609D01*
X199995122Y-111616609D02*
X199995122Y-111711847D01*
X199995122Y-111711847D02*
X199518932Y-111807085D01*
X200423694Y-112140419D02*
X200423694Y-111473752D01*
X200423694Y-111664228D02*
X200471313Y-111568990D01*
X200471313Y-111568990D02*
X200518932Y-111521371D01*
X200518932Y-111521371D02*
X200614170Y-111473752D01*
X200614170Y-111473752D02*
X200709408Y-111473752D01*
X200995123Y-112092800D02*
X201090361Y-112140419D01*
X201090361Y-112140419D02*
X201280837Y-112140419D01*
X201280837Y-112140419D02*
X201376075Y-112092800D01*
X201376075Y-112092800D02*
X201423694Y-111997561D01*
X201423694Y-111997561D02*
X201423694Y-111949942D01*
X201423694Y-111949942D02*
X201376075Y-111854704D01*
X201376075Y-111854704D02*
X201280837Y-111807085D01*
X201280837Y-111807085D02*
X201137980Y-111807085D01*
X201137980Y-111807085D02*
X201042742Y-111759466D01*
X201042742Y-111759466D02*
X200995123Y-111664228D01*
X200995123Y-111664228D02*
X200995123Y-111616609D01*
X200995123Y-111616609D02*
X201042742Y-111521371D01*
X201042742Y-111521371D02*
X201137980Y-111473752D01*
X201137980Y-111473752D02*
X201280837Y-111473752D01*
X201280837Y-111473752D02*
X201376075Y-111521371D01*
X201995123Y-112140419D02*
X201899885Y-112092800D01*
X201899885Y-112092800D02*
X201852266Y-112045180D01*
X201852266Y-112045180D02*
X201804647Y-111949942D01*
X201804647Y-111949942D02*
X201804647Y-111664228D01*
X201804647Y-111664228D02*
X201852266Y-111568990D01*
X201852266Y-111568990D02*
X201899885Y-111521371D01*
X201899885Y-111521371D02*
X201995123Y-111473752D01*
X201995123Y-111473752D02*
X202137980Y-111473752D01*
X202137980Y-111473752D02*
X202233218Y-111521371D01*
X202233218Y-111521371D02*
X202280837Y-111568990D01*
X202280837Y-111568990D02*
X202328456Y-111664228D01*
X202328456Y-111664228D02*
X202328456Y-111949942D01*
X202328456Y-111949942D02*
X202280837Y-112045180D01*
X202280837Y-112045180D02*
X202233218Y-112092800D01*
X202233218Y-112092800D02*
X202137980Y-112140419D01*
X202137980Y-112140419D02*
X201995123Y-112140419D01*
X202757028Y-111473752D02*
X202757028Y-112140419D01*
X202757028Y-111568990D02*
X202804647Y-111521371D01*
X202804647Y-111521371D02*
X202899885Y-111473752D01*
X202899885Y-111473752D02*
X203042742Y-111473752D01*
X203042742Y-111473752D02*
X203137980Y-111521371D01*
X203137980Y-111521371D02*
X203185599Y-111616609D01*
X203185599Y-111616609D02*
X203185599Y-112140419D01*
X203661790Y-112140419D02*
X203661790Y-111140419D01*
X203661790Y-111140419D02*
X204042742Y-111140419D01*
X204042742Y-111140419D02*
X204137980Y-111188038D01*
X204137980Y-111188038D02*
X204185599Y-111235657D01*
X204185599Y-111235657D02*
X204233218Y-111330895D01*
X204233218Y-111330895D02*
X204233218Y-111473752D01*
X204233218Y-111473752D02*
X204185599Y-111568990D01*
X204185599Y-111568990D02*
X204137980Y-111616609D01*
X204137980Y-111616609D02*
X204042742Y-111664228D01*
X204042742Y-111664228D02*
X203661790Y-111664228D01*
X204661790Y-112140419D02*
X204661790Y-111140419D01*
X204661790Y-111140419D02*
X205042742Y-111140419D01*
X205042742Y-111140419D02*
X205137980Y-111188038D01*
X205137980Y-111188038D02*
X205185599Y-111235657D01*
X205185599Y-111235657D02*
X205233218Y-111330895D01*
X205233218Y-111330895D02*
X205233218Y-111473752D01*
X205233218Y-111473752D02*
X205185599Y-111568990D01*
X205185599Y-111568990D02*
X205137980Y-111616609D01*
X205137980Y-111616609D02*
X205042742Y-111664228D01*
X205042742Y-111664228D02*
X204661790Y-111664228D01*
X191880609Y-105712582D02*
X191880609Y-106045915D01*
X192404419Y-106045915D02*
X191404419Y-106045915D01*
X191404419Y-106045915D02*
X191404419Y-105569725D01*
X192404419Y-104760201D02*
X191880609Y-104760201D01*
X191880609Y-104760201D02*
X191785371Y-104807820D01*
X191785371Y-104807820D02*
X191737752Y-104903058D01*
X191737752Y-104903058D02*
X191737752Y-105093534D01*
X191737752Y-105093534D02*
X191785371Y-105188772D01*
X192356800Y-104760201D02*
X192404419Y-104855439D01*
X192404419Y-104855439D02*
X192404419Y-105093534D01*
X192404419Y-105093534D02*
X192356800Y-105188772D01*
X192356800Y-105188772D02*
X192261561Y-105236391D01*
X192261561Y-105236391D02*
X192166323Y-105236391D01*
X192166323Y-105236391D02*
X192071085Y-105188772D01*
X192071085Y-105188772D02*
X192023466Y-105093534D01*
X192023466Y-105093534D02*
X192023466Y-104855439D01*
X192023466Y-104855439D02*
X191975847Y-104760201D01*
X191737752Y-104284010D02*
X192404419Y-104284010D01*
X191832990Y-104284010D02*
X191785371Y-104236391D01*
X191785371Y-104236391D02*
X191737752Y-104141153D01*
X191737752Y-104141153D02*
X191737752Y-103998296D01*
X191737752Y-103998296D02*
X191785371Y-103903058D01*
X191785371Y-103903058D02*
X191880609Y-103855439D01*
X191880609Y-103855439D02*
X192404419Y-103855439D01*
X248350693Y-124650038D02*
X248255455Y-124602419D01*
X248255455Y-124602419D02*
X248112598Y-124602419D01*
X248112598Y-124602419D02*
X247969741Y-124650038D01*
X247969741Y-124650038D02*
X247874503Y-124745276D01*
X247874503Y-124745276D02*
X247826884Y-124840514D01*
X247826884Y-124840514D02*
X247779265Y-125030990D01*
X247779265Y-125030990D02*
X247779265Y-125173847D01*
X247779265Y-125173847D02*
X247826884Y-125364323D01*
X247826884Y-125364323D02*
X247874503Y-125459561D01*
X247874503Y-125459561D02*
X247969741Y-125554800D01*
X247969741Y-125554800D02*
X248112598Y-125602419D01*
X248112598Y-125602419D02*
X248207836Y-125602419D01*
X248207836Y-125602419D02*
X248350693Y-125554800D01*
X248350693Y-125554800D02*
X248398312Y-125507180D01*
X248398312Y-125507180D02*
X248398312Y-125173847D01*
X248398312Y-125173847D02*
X248207836Y-125173847D01*
X249255455Y-125602419D02*
X249255455Y-125078609D01*
X249255455Y-125078609D02*
X249207836Y-124983371D01*
X249207836Y-124983371D02*
X249112598Y-124935752D01*
X249112598Y-124935752D02*
X248922122Y-124935752D01*
X248922122Y-124935752D02*
X248826884Y-124983371D01*
X249255455Y-125554800D02*
X249160217Y-125602419D01*
X249160217Y-125602419D02*
X248922122Y-125602419D01*
X248922122Y-125602419D02*
X248826884Y-125554800D01*
X248826884Y-125554800D02*
X248779265Y-125459561D01*
X248779265Y-125459561D02*
X248779265Y-125364323D01*
X248779265Y-125364323D02*
X248826884Y-125269085D01*
X248826884Y-125269085D02*
X248922122Y-125221466D01*
X248922122Y-125221466D02*
X249160217Y-125221466D01*
X249160217Y-125221466D02*
X249255455Y-125173847D01*
X249731646Y-124935752D02*
X249731646Y-125602419D01*
X249731646Y-125030990D02*
X249779265Y-124983371D01*
X249779265Y-124983371D02*
X249874503Y-124935752D01*
X249874503Y-124935752D02*
X250017360Y-124935752D01*
X250017360Y-124935752D02*
X250112598Y-124983371D01*
X250112598Y-124983371D02*
X250160217Y-125078609D01*
X250160217Y-125078609D02*
X250160217Y-125602419D01*
X250493551Y-124935752D02*
X250874503Y-124935752D01*
X250636408Y-124602419D02*
X250636408Y-125459561D01*
X250636408Y-125459561D02*
X250684027Y-125554800D01*
X250684027Y-125554800D02*
X250779265Y-125602419D01*
X250779265Y-125602419D02*
X250874503Y-125602419D01*
X251207837Y-125602419D02*
X251207837Y-124935752D01*
X251207837Y-125126228D02*
X251255456Y-125030990D01*
X251255456Y-125030990D02*
X251303075Y-124983371D01*
X251303075Y-124983371D02*
X251398313Y-124935752D01*
X251398313Y-124935752D02*
X251493551Y-124935752D01*
X251731647Y-124935752D02*
X251969742Y-125602419D01*
X252207837Y-124935752D02*
X251969742Y-125602419D01*
X251969742Y-125602419D02*
X251874504Y-125840514D01*
X251874504Y-125840514D02*
X251826885Y-125888133D01*
X251826885Y-125888133D02*
X251731647Y-125935752D01*
X247684027Y-99710419D02*
X248255455Y-99710419D01*
X247969741Y-100710419D02*
X247969741Y-99710419D01*
X248779265Y-99710419D02*
X248969741Y-99710419D01*
X248969741Y-99710419D02*
X249064979Y-99758038D01*
X249064979Y-99758038D02*
X249160217Y-99853276D01*
X249160217Y-99853276D02*
X249207836Y-100043752D01*
X249207836Y-100043752D02*
X249207836Y-100377085D01*
X249207836Y-100377085D02*
X249160217Y-100567561D01*
X249160217Y-100567561D02*
X249064979Y-100662800D01*
X249064979Y-100662800D02*
X248969741Y-100710419D01*
X248969741Y-100710419D02*
X248779265Y-100710419D01*
X248779265Y-100710419D02*
X248684027Y-100662800D01*
X248684027Y-100662800D02*
X248588789Y-100567561D01*
X248588789Y-100567561D02*
X248541170Y-100377085D01*
X248541170Y-100377085D02*
X248541170Y-100043752D01*
X248541170Y-100043752D02*
X248588789Y-99853276D01*
X248588789Y-99853276D02*
X248684027Y-99758038D01*
X248684027Y-99758038D02*
X248779265Y-99710419D01*
X249969741Y-100186609D02*
X249636408Y-100186609D01*
X249636408Y-100710419D02*
X249636408Y-99710419D01*
X249636408Y-99710419D02*
X250112598Y-99710419D01*
X192404419Y-76296225D02*
X192404419Y-76772415D01*
X192404419Y-76772415D02*
X191404419Y-76772415D01*
X192404419Y-75534320D02*
X191880609Y-75534320D01*
X191880609Y-75534320D02*
X191785371Y-75581939D01*
X191785371Y-75581939D02*
X191737752Y-75677177D01*
X191737752Y-75677177D02*
X191737752Y-75867653D01*
X191737752Y-75867653D02*
X191785371Y-75962891D01*
X192356800Y-75534320D02*
X192404419Y-75629558D01*
X192404419Y-75629558D02*
X192404419Y-75867653D01*
X192404419Y-75867653D02*
X192356800Y-75962891D01*
X192356800Y-75962891D02*
X192261561Y-76010510D01*
X192261561Y-76010510D02*
X192166323Y-76010510D01*
X192166323Y-76010510D02*
X192071085Y-75962891D01*
X192071085Y-75962891D02*
X192023466Y-75867653D01*
X192023466Y-75867653D02*
X192023466Y-75629558D01*
X192023466Y-75629558D02*
X191975847Y-75534320D01*
X192356800Y-75105748D02*
X192404419Y-75010510D01*
X192404419Y-75010510D02*
X192404419Y-74820034D01*
X192404419Y-74820034D02*
X192356800Y-74724796D01*
X192356800Y-74724796D02*
X192261561Y-74677177D01*
X192261561Y-74677177D02*
X192213942Y-74677177D01*
X192213942Y-74677177D02*
X192118704Y-74724796D01*
X192118704Y-74724796D02*
X192071085Y-74820034D01*
X192071085Y-74820034D02*
X192071085Y-74962891D01*
X192071085Y-74962891D02*
X192023466Y-75058129D01*
X192023466Y-75058129D02*
X191928228Y-75105748D01*
X191928228Y-75105748D02*
X191880609Y-75105748D01*
X191880609Y-75105748D02*
X191785371Y-75058129D01*
X191785371Y-75058129D02*
X191737752Y-74962891D01*
X191737752Y-74962891D02*
X191737752Y-74820034D01*
X191737752Y-74820034D02*
X191785371Y-74724796D01*
X192356800Y-73867653D02*
X192404419Y-73962891D01*
X192404419Y-73962891D02*
X192404419Y-74153367D01*
X192404419Y-74153367D02*
X192356800Y-74248605D01*
X192356800Y-74248605D02*
X192261561Y-74296224D01*
X192261561Y-74296224D02*
X191880609Y-74296224D01*
X191880609Y-74296224D02*
X191785371Y-74248605D01*
X191785371Y-74248605D02*
X191737752Y-74153367D01*
X191737752Y-74153367D02*
X191737752Y-73962891D01*
X191737752Y-73962891D02*
X191785371Y-73867653D01*
X191785371Y-73867653D02*
X191880609Y-73820034D01*
X191880609Y-73820034D02*
X191975847Y-73820034D01*
X191975847Y-73820034D02*
X192071085Y-74296224D01*
X192404419Y-73391462D02*
X191737752Y-73391462D01*
X191928228Y-73391462D02*
X191832990Y-73343843D01*
X191832990Y-73343843D02*
X191785371Y-73296224D01*
X191785371Y-73296224D02*
X191737752Y-73200986D01*
X191737752Y-73200986D02*
X191737752Y-73105748D01*
D11*
X226987733Y-87430780D02*
X226940114Y-87478400D01*
X226940114Y-87478400D02*
X226797257Y-87526019D01*
X226797257Y-87526019D02*
X226702019Y-87526019D01*
X226702019Y-87526019D02*
X226559162Y-87478400D01*
X226559162Y-87478400D02*
X226463924Y-87383161D01*
X226463924Y-87383161D02*
X226416305Y-87287923D01*
X226416305Y-87287923D02*
X226368686Y-87097447D01*
X226368686Y-87097447D02*
X226368686Y-86954590D01*
X226368686Y-86954590D02*
X226416305Y-86764114D01*
X226416305Y-86764114D02*
X226463924Y-86668876D01*
X226463924Y-86668876D02*
X226559162Y-86573638D01*
X226559162Y-86573638D02*
X226702019Y-86526019D01*
X226702019Y-86526019D02*
X226797257Y-86526019D01*
X226797257Y-86526019D02*
X226940114Y-86573638D01*
X226940114Y-86573638D02*
X226987733Y-86621257D01*
X227940114Y-87526019D02*
X227368686Y-87526019D01*
X227654400Y-87526019D02*
X227654400Y-86526019D01*
X227654400Y-86526019D02*
X227559162Y-86668876D01*
X227559162Y-86668876D02*
X227463924Y-86764114D01*
X227463924Y-86764114D02*
X227368686Y-86811733D01*
X202700169Y-79055266D02*
X202223978Y-79388599D01*
X202700169Y-79626694D02*
X201700169Y-79626694D01*
X201700169Y-79626694D02*
X201700169Y-79245742D01*
X201700169Y-79245742D02*
X201747788Y-79150504D01*
X201747788Y-79150504D02*
X201795407Y-79102885D01*
X201795407Y-79102885D02*
X201890645Y-79055266D01*
X201890645Y-79055266D02*
X202033502Y-79055266D01*
X202033502Y-79055266D02*
X202128740Y-79102885D01*
X202128740Y-79102885D02*
X202176359Y-79150504D01*
X202176359Y-79150504D02*
X202223978Y-79245742D01*
X202223978Y-79245742D02*
X202223978Y-79626694D01*
X202033502Y-78198123D02*
X202700169Y-78198123D01*
X201652550Y-78436218D02*
X202366835Y-78674313D01*
X202366835Y-78674313D02*
X202366835Y-78055266D01*
X201052873Y-133897019D02*
X200576683Y-133897019D01*
X200576683Y-133897019D02*
X200529064Y-134373209D01*
X200529064Y-134373209D02*
X200576683Y-134325590D01*
X200576683Y-134325590D02*
X200671921Y-134277971D01*
X200671921Y-134277971D02*
X200910016Y-134277971D01*
X200910016Y-134277971D02*
X201005254Y-134325590D01*
X201005254Y-134325590D02*
X201052873Y-134373209D01*
X201052873Y-134373209D02*
X201100492Y-134468447D01*
X201100492Y-134468447D02*
X201100492Y-134706542D01*
X201100492Y-134706542D02*
X201052873Y-134801780D01*
X201052873Y-134801780D02*
X201005254Y-134849400D01*
X201005254Y-134849400D02*
X200910016Y-134897019D01*
X200910016Y-134897019D02*
X200671921Y-134897019D01*
X200671921Y-134897019D02*
X200576683Y-134849400D01*
X200576683Y-134849400D02*
X200529064Y-134801780D01*
X201386207Y-133897019D02*
X201719540Y-134897019D01*
X201719540Y-134897019D02*
X202052873Y-133897019D01*
X194818545Y-133989019D02*
X194628069Y-133989019D01*
X194628069Y-133989019D02*
X194532831Y-134036638D01*
X194532831Y-134036638D02*
X194485212Y-134084257D01*
X194485212Y-134084257D02*
X194389974Y-134227114D01*
X194389974Y-134227114D02*
X194342355Y-134417590D01*
X194342355Y-134417590D02*
X194342355Y-134798542D01*
X194342355Y-134798542D02*
X194389974Y-134893780D01*
X194389974Y-134893780D02*
X194437593Y-134941400D01*
X194437593Y-134941400D02*
X194532831Y-134989019D01*
X194532831Y-134989019D02*
X194723307Y-134989019D01*
X194723307Y-134989019D02*
X194818545Y-134941400D01*
X194818545Y-134941400D02*
X194866164Y-134893780D01*
X194866164Y-134893780D02*
X194913783Y-134798542D01*
X194913783Y-134798542D02*
X194913783Y-134560447D01*
X194913783Y-134560447D02*
X194866164Y-134465209D01*
X194866164Y-134465209D02*
X194818545Y-134417590D01*
X194818545Y-134417590D02*
X194723307Y-134369971D01*
X194723307Y-134369971D02*
X194532831Y-134369971D01*
X194532831Y-134369971D02*
X194437593Y-134417590D01*
X194437593Y-134417590D02*
X194389974Y-134465209D01*
X194389974Y-134465209D02*
X194342355Y-134560447D01*
X195485212Y-134417590D02*
X195389974Y-134369971D01*
X195389974Y-134369971D02*
X195342355Y-134322352D01*
X195342355Y-134322352D02*
X195294736Y-134227114D01*
X195294736Y-134227114D02*
X195294736Y-134179495D01*
X195294736Y-134179495D02*
X195342355Y-134084257D01*
X195342355Y-134084257D02*
X195389974Y-134036638D01*
X195389974Y-134036638D02*
X195485212Y-133989019D01*
X195485212Y-133989019D02*
X195675688Y-133989019D01*
X195675688Y-133989019D02*
X195770926Y-134036638D01*
X195770926Y-134036638D02*
X195818545Y-134084257D01*
X195818545Y-134084257D02*
X195866164Y-134179495D01*
X195866164Y-134179495D02*
X195866164Y-134227114D01*
X195866164Y-134227114D02*
X195818545Y-134322352D01*
X195818545Y-134322352D02*
X195770926Y-134369971D01*
X195770926Y-134369971D02*
X195675688Y-134417590D01*
X195675688Y-134417590D02*
X195485212Y-134417590D01*
X195485212Y-134417590D02*
X195389974Y-134465209D01*
X195389974Y-134465209D02*
X195342355Y-134512828D01*
X195342355Y-134512828D02*
X195294736Y-134608066D01*
X195294736Y-134608066D02*
X195294736Y-134798542D01*
X195294736Y-134798542D02*
X195342355Y-134893780D01*
X195342355Y-134893780D02*
X195389974Y-134941400D01*
X195389974Y-134941400D02*
X195485212Y-134989019D01*
X195485212Y-134989019D02*
X195675688Y-134989019D01*
X195675688Y-134989019D02*
X195770926Y-134941400D01*
X195770926Y-134941400D02*
X195818545Y-134893780D01*
X195818545Y-134893780D02*
X195866164Y-134798542D01*
X195866164Y-134798542D02*
X195866164Y-134608066D01*
X195866164Y-134608066D02*
X195818545Y-134512828D01*
X195818545Y-134512828D02*
X195770926Y-134465209D01*
X195770926Y-134465209D02*
X195675688Y-134417590D01*
X196485212Y-133989019D02*
X196580450Y-133989019D01*
X196580450Y-133989019D02*
X196675688Y-134036638D01*
X196675688Y-134036638D02*
X196723307Y-134084257D01*
X196723307Y-134084257D02*
X196770926Y-134179495D01*
X196770926Y-134179495D02*
X196818545Y-134369971D01*
X196818545Y-134369971D02*
X196818545Y-134608066D01*
X196818545Y-134608066D02*
X196770926Y-134798542D01*
X196770926Y-134798542D02*
X196723307Y-134893780D01*
X196723307Y-134893780D02*
X196675688Y-134941400D01*
X196675688Y-134941400D02*
X196580450Y-134989019D01*
X196580450Y-134989019D02*
X196485212Y-134989019D01*
X196485212Y-134989019D02*
X196389974Y-134941400D01*
X196389974Y-134941400D02*
X196342355Y-134893780D01*
X196342355Y-134893780D02*
X196294736Y-134798542D01*
X196294736Y-134798542D02*
X196247117Y-134608066D01*
X196247117Y-134608066D02*
X196247117Y-134369971D01*
X196247117Y-134369971D02*
X196294736Y-134179495D01*
X196294736Y-134179495D02*
X196342355Y-134084257D01*
X196342355Y-134084257D02*
X196389974Y-134036638D01*
X196389974Y-134036638D02*
X196485212Y-133989019D01*
X209239011Y-97832057D02*
X209143773Y-97784438D01*
X209143773Y-97784438D02*
X209048535Y-97689200D01*
X209048535Y-97689200D02*
X208905678Y-97546342D01*
X208905678Y-97546342D02*
X208810440Y-97498723D01*
X208810440Y-97498723D02*
X208715202Y-97498723D01*
X208762821Y-97736819D02*
X208667583Y-97689200D01*
X208667583Y-97689200D02*
X208572345Y-97593961D01*
X208572345Y-97593961D02*
X208524726Y-97403485D01*
X208524726Y-97403485D02*
X208524726Y-97070152D01*
X208524726Y-97070152D02*
X208572345Y-96879676D01*
X208572345Y-96879676D02*
X208667583Y-96784438D01*
X208667583Y-96784438D02*
X208762821Y-96736819D01*
X208762821Y-96736819D02*
X208953297Y-96736819D01*
X208953297Y-96736819D02*
X209048535Y-96784438D01*
X209048535Y-96784438D02*
X209143773Y-96879676D01*
X209143773Y-96879676D02*
X209191392Y-97070152D01*
X209191392Y-97070152D02*
X209191392Y-97403485D01*
X209191392Y-97403485D02*
X209143773Y-97593961D01*
X209143773Y-97593961D02*
X209048535Y-97689200D01*
X209048535Y-97689200D02*
X208953297Y-97736819D01*
X208953297Y-97736819D02*
X208762821Y-97736819D01*
X210143773Y-97736819D02*
X209572345Y-97736819D01*
X209858059Y-97736819D02*
X209858059Y-96736819D01*
X209858059Y-96736819D02*
X209762821Y-96879676D01*
X209762821Y-96879676D02*
X209667583Y-96974914D01*
X209667583Y-96974914D02*
X209572345Y-97022533D01*
X200737302Y-130729819D02*
X200165874Y-130729819D01*
X200451588Y-130729819D02*
X200451588Y-129729819D01*
X200451588Y-129729819D02*
X200356350Y-129872676D01*
X200356350Y-129872676D02*
X200261112Y-129967914D01*
X200261112Y-129967914D02*
X200165874Y-130015533D01*
X201118255Y-129825057D02*
X201165874Y-129777438D01*
X201165874Y-129777438D02*
X201261112Y-129729819D01*
X201261112Y-129729819D02*
X201499207Y-129729819D01*
X201499207Y-129729819D02*
X201594445Y-129777438D01*
X201594445Y-129777438D02*
X201642064Y-129825057D01*
X201642064Y-129825057D02*
X201689683Y-129920295D01*
X201689683Y-129920295D02*
X201689683Y-130015533D01*
X201689683Y-130015533D02*
X201642064Y-130158390D01*
X201642064Y-130158390D02*
X201070636Y-130729819D01*
X201070636Y-130729819D02*
X201689683Y-130729819D01*
X201975398Y-129729819D02*
X202308731Y-130729819D01*
X202308731Y-130729819D02*
X202642064Y-129729819D01*
X214396583Y-131187380D02*
X214348964Y-131235000D01*
X214348964Y-131235000D02*
X214206107Y-131282619D01*
X214206107Y-131282619D02*
X214110869Y-131282619D01*
X214110869Y-131282619D02*
X213968012Y-131235000D01*
X213968012Y-131235000D02*
X213872774Y-131139761D01*
X213872774Y-131139761D02*
X213825155Y-131044523D01*
X213825155Y-131044523D02*
X213777536Y-130854047D01*
X213777536Y-130854047D02*
X213777536Y-130711190D01*
X213777536Y-130711190D02*
X213825155Y-130520714D01*
X213825155Y-130520714D02*
X213872774Y-130425476D01*
X213872774Y-130425476D02*
X213968012Y-130330238D01*
X213968012Y-130330238D02*
X214110869Y-130282619D01*
X214110869Y-130282619D02*
X214206107Y-130282619D01*
X214206107Y-130282619D02*
X214348964Y-130330238D01*
X214348964Y-130330238D02*
X214396583Y-130377857D01*
X214777536Y-130377857D02*
X214825155Y-130330238D01*
X214825155Y-130330238D02*
X214920393Y-130282619D01*
X214920393Y-130282619D02*
X215158488Y-130282619D01*
X215158488Y-130282619D02*
X215253726Y-130330238D01*
X215253726Y-130330238D02*
X215301345Y-130377857D01*
X215301345Y-130377857D02*
X215348964Y-130473095D01*
X215348964Y-130473095D02*
X215348964Y-130568333D01*
X215348964Y-130568333D02*
X215301345Y-130711190D01*
X215301345Y-130711190D02*
X214729917Y-131282619D01*
X214729917Y-131282619D02*
X215348964Y-131282619D01*
X205552569Y-94908666D02*
X205076378Y-95241999D01*
X205552569Y-95480094D02*
X204552569Y-95480094D01*
X204552569Y-95480094D02*
X204552569Y-95099142D01*
X204552569Y-95099142D02*
X204600188Y-95003904D01*
X204600188Y-95003904D02*
X204647807Y-94956285D01*
X204647807Y-94956285D02*
X204743045Y-94908666D01*
X204743045Y-94908666D02*
X204885902Y-94908666D01*
X204885902Y-94908666D02*
X204981140Y-94956285D01*
X204981140Y-94956285D02*
X205028759Y-95003904D01*
X205028759Y-95003904D02*
X205076378Y-95099142D01*
X205076378Y-95099142D02*
X205076378Y-95480094D01*
X204552569Y-94003904D02*
X204552569Y-94480094D01*
X204552569Y-94480094D02*
X205028759Y-94527713D01*
X205028759Y-94527713D02*
X204981140Y-94480094D01*
X204981140Y-94480094D02*
X204933521Y-94384856D01*
X204933521Y-94384856D02*
X204933521Y-94146761D01*
X204933521Y-94146761D02*
X204981140Y-94051523D01*
X204981140Y-94051523D02*
X205028759Y-94003904D01*
X205028759Y-94003904D02*
X205123997Y-93956285D01*
X205123997Y-93956285D02*
X205362092Y-93956285D01*
X205362092Y-93956285D02*
X205457330Y-94003904D01*
X205457330Y-94003904D02*
X205504950Y-94051523D01*
X205504950Y-94051523D02*
X205552569Y-94146761D01*
X205552569Y-94146761D02*
X205552569Y-94384856D01*
X205552569Y-94384856D02*
X205504950Y-94480094D01*
X205504950Y-94480094D02*
X205457330Y-94527713D01*
X209239011Y-91736057D02*
X209143773Y-91688438D01*
X209143773Y-91688438D02*
X209048535Y-91593200D01*
X209048535Y-91593200D02*
X208905678Y-91450342D01*
X208905678Y-91450342D02*
X208810440Y-91402723D01*
X208810440Y-91402723D02*
X208715202Y-91402723D01*
X208762821Y-91640819D02*
X208667583Y-91593200D01*
X208667583Y-91593200D02*
X208572345Y-91497961D01*
X208572345Y-91497961D02*
X208524726Y-91307485D01*
X208524726Y-91307485D02*
X208524726Y-90974152D01*
X208524726Y-90974152D02*
X208572345Y-90783676D01*
X208572345Y-90783676D02*
X208667583Y-90688438D01*
X208667583Y-90688438D02*
X208762821Y-90640819D01*
X208762821Y-90640819D02*
X208953297Y-90640819D01*
X208953297Y-90640819D02*
X209048535Y-90688438D01*
X209048535Y-90688438D02*
X209143773Y-90783676D01*
X209143773Y-90783676D02*
X209191392Y-90974152D01*
X209191392Y-90974152D02*
X209191392Y-91307485D01*
X209191392Y-91307485D02*
X209143773Y-91497961D01*
X209143773Y-91497961D02*
X209048535Y-91593200D01*
X209048535Y-91593200D02*
X208953297Y-91640819D01*
X208953297Y-91640819D02*
X208762821Y-91640819D01*
X209572345Y-90736057D02*
X209619964Y-90688438D01*
X209619964Y-90688438D02*
X209715202Y-90640819D01*
X209715202Y-90640819D02*
X209953297Y-90640819D01*
X209953297Y-90640819D02*
X210048535Y-90688438D01*
X210048535Y-90688438D02*
X210096154Y-90736057D01*
X210096154Y-90736057D02*
X210143773Y-90831295D01*
X210143773Y-90831295D02*
X210143773Y-90926533D01*
X210143773Y-90926533D02*
X210096154Y-91069390D01*
X210096154Y-91069390D02*
X209524726Y-91640819D01*
X209524726Y-91640819D02*
X210143773Y-91640819D01*
X209316583Y-131187380D02*
X209268964Y-131235000D01*
X209268964Y-131235000D02*
X209126107Y-131282619D01*
X209126107Y-131282619D02*
X209030869Y-131282619D01*
X209030869Y-131282619D02*
X208888012Y-131235000D01*
X208888012Y-131235000D02*
X208792774Y-131139761D01*
X208792774Y-131139761D02*
X208745155Y-131044523D01*
X208745155Y-131044523D02*
X208697536Y-130854047D01*
X208697536Y-130854047D02*
X208697536Y-130711190D01*
X208697536Y-130711190D02*
X208745155Y-130520714D01*
X208745155Y-130520714D02*
X208792774Y-130425476D01*
X208792774Y-130425476D02*
X208888012Y-130330238D01*
X208888012Y-130330238D02*
X209030869Y-130282619D01*
X209030869Y-130282619D02*
X209126107Y-130282619D01*
X209126107Y-130282619D02*
X209268964Y-130330238D01*
X209268964Y-130330238D02*
X209316583Y-130377857D01*
X209649917Y-130282619D02*
X210268964Y-130282619D01*
X210268964Y-130282619D02*
X209935631Y-130663571D01*
X209935631Y-130663571D02*
X210078488Y-130663571D01*
X210078488Y-130663571D02*
X210173726Y-130711190D01*
X210173726Y-130711190D02*
X210221345Y-130758809D01*
X210221345Y-130758809D02*
X210268964Y-130854047D01*
X210268964Y-130854047D02*
X210268964Y-131092142D01*
X210268964Y-131092142D02*
X210221345Y-131187380D01*
X210221345Y-131187380D02*
X210173726Y-131235000D01*
X210173726Y-131235000D02*
X210078488Y-131282619D01*
X210078488Y-131282619D02*
X209792774Y-131282619D01*
X209792774Y-131282619D02*
X209697536Y-131235000D01*
X209697536Y-131235000D02*
X209649917Y-131187380D01*
X234491666Y-65548319D02*
X234491666Y-66262604D01*
X234491666Y-66262604D02*
X234444047Y-66405461D01*
X234444047Y-66405461D02*
X234348809Y-66500700D01*
X234348809Y-66500700D02*
X234205952Y-66548319D01*
X234205952Y-66548319D02*
X234110714Y-66548319D01*
X235491666Y-66548319D02*
X234920238Y-66548319D01*
X235205952Y-66548319D02*
X235205952Y-65548319D01*
X235205952Y-65548319D02*
X235110714Y-65691176D01*
X235110714Y-65691176D02*
X235015476Y-65786414D01*
X235015476Y-65786414D02*
X234920238Y-65834033D01*
X199767160Y-138215019D02*
X200386207Y-138215019D01*
X200386207Y-138215019D02*
X200052874Y-138595971D01*
X200052874Y-138595971D02*
X200195731Y-138595971D01*
X200195731Y-138595971D02*
X200290969Y-138643590D01*
X200290969Y-138643590D02*
X200338588Y-138691209D01*
X200338588Y-138691209D02*
X200386207Y-138786447D01*
X200386207Y-138786447D02*
X200386207Y-139024542D01*
X200386207Y-139024542D02*
X200338588Y-139119780D01*
X200338588Y-139119780D02*
X200290969Y-139167400D01*
X200290969Y-139167400D02*
X200195731Y-139215019D01*
X200195731Y-139215019D02*
X199910017Y-139215019D01*
X199910017Y-139215019D02*
X199814779Y-139167400D01*
X199814779Y-139167400D02*
X199767160Y-139119780D01*
X200814779Y-139119780D02*
X200862398Y-139167400D01*
X200862398Y-139167400D02*
X200814779Y-139215019D01*
X200814779Y-139215019D02*
X200767160Y-139167400D01*
X200767160Y-139167400D02*
X200814779Y-139119780D01*
X200814779Y-139119780D02*
X200814779Y-139215019D01*
X201195731Y-138215019D02*
X201814778Y-138215019D01*
X201814778Y-138215019D02*
X201481445Y-138595971D01*
X201481445Y-138595971D02*
X201624302Y-138595971D01*
X201624302Y-138595971D02*
X201719540Y-138643590D01*
X201719540Y-138643590D02*
X201767159Y-138691209D01*
X201767159Y-138691209D02*
X201814778Y-138786447D01*
X201814778Y-138786447D02*
X201814778Y-139024542D01*
X201814778Y-139024542D02*
X201767159Y-139119780D01*
X201767159Y-139119780D02*
X201719540Y-139167400D01*
X201719540Y-139167400D02*
X201624302Y-139215019D01*
X201624302Y-139215019D02*
X201338588Y-139215019D01*
X201338588Y-139215019D02*
X201243350Y-139167400D01*
X201243350Y-139167400D02*
X201195731Y-139119780D01*
X202100493Y-138215019D02*
X202433826Y-139215019D01*
X202433826Y-139215019D02*
X202767159Y-138215019D01*
X209200761Y-80306057D02*
X209105523Y-80258438D01*
X209105523Y-80258438D02*
X209010285Y-80163200D01*
X209010285Y-80163200D02*
X208867428Y-80020342D01*
X208867428Y-80020342D02*
X208772190Y-79972723D01*
X208772190Y-79972723D02*
X208676952Y-79972723D01*
X208724571Y-80210819D02*
X208629333Y-80163200D01*
X208629333Y-80163200D02*
X208534095Y-80067961D01*
X208534095Y-80067961D02*
X208486476Y-79877485D01*
X208486476Y-79877485D02*
X208486476Y-79544152D01*
X208486476Y-79544152D02*
X208534095Y-79353676D01*
X208534095Y-79353676D02*
X208629333Y-79258438D01*
X208629333Y-79258438D02*
X208724571Y-79210819D01*
X208724571Y-79210819D02*
X208915047Y-79210819D01*
X208915047Y-79210819D02*
X209010285Y-79258438D01*
X209010285Y-79258438D02*
X209105523Y-79353676D01*
X209105523Y-79353676D02*
X209153142Y-79544152D01*
X209153142Y-79544152D02*
X209153142Y-79877485D01*
X209153142Y-79877485D02*
X209105523Y-80067961D01*
X209105523Y-80067961D02*
X209010285Y-80163200D01*
X209010285Y-80163200D02*
X208915047Y-80210819D01*
X208915047Y-80210819D02*
X208724571Y-80210819D01*
X209486476Y-79210819D02*
X210105523Y-79210819D01*
X210105523Y-79210819D02*
X209772190Y-79591771D01*
X209772190Y-79591771D02*
X209915047Y-79591771D01*
X209915047Y-79591771D02*
X210010285Y-79639390D01*
X210010285Y-79639390D02*
X210057904Y-79687009D01*
X210057904Y-79687009D02*
X210105523Y-79782247D01*
X210105523Y-79782247D02*
X210105523Y-80020342D01*
X210105523Y-80020342D02*
X210057904Y-80115580D01*
X210057904Y-80115580D02*
X210010285Y-80163200D01*
X210010285Y-80163200D02*
X209915047Y-80210819D01*
X209915047Y-80210819D02*
X209629333Y-80210819D01*
X209629333Y-80210819D02*
X209534095Y-80163200D01*
X209534095Y-80163200D02*
X209486476Y-80115580D01*
X204159011Y-109516057D02*
X204063773Y-109468438D01*
X204063773Y-109468438D02*
X203968535Y-109373200D01*
X203968535Y-109373200D02*
X203825678Y-109230342D01*
X203825678Y-109230342D02*
X203730440Y-109182723D01*
X203730440Y-109182723D02*
X203635202Y-109182723D01*
X203682821Y-109420819D02*
X203587583Y-109373200D01*
X203587583Y-109373200D02*
X203492345Y-109277961D01*
X203492345Y-109277961D02*
X203444726Y-109087485D01*
X203444726Y-109087485D02*
X203444726Y-108754152D01*
X203444726Y-108754152D02*
X203492345Y-108563676D01*
X203492345Y-108563676D02*
X203587583Y-108468438D01*
X203587583Y-108468438D02*
X203682821Y-108420819D01*
X203682821Y-108420819D02*
X203873297Y-108420819D01*
X203873297Y-108420819D02*
X203968535Y-108468438D01*
X203968535Y-108468438D02*
X204063773Y-108563676D01*
X204063773Y-108563676D02*
X204111392Y-108754152D01*
X204111392Y-108754152D02*
X204111392Y-109087485D01*
X204111392Y-109087485D02*
X204063773Y-109277961D01*
X204063773Y-109277961D02*
X203968535Y-109373200D01*
X203968535Y-109373200D02*
X203873297Y-109420819D01*
X203873297Y-109420819D02*
X203682821Y-109420819D01*
X205016154Y-108420819D02*
X204539964Y-108420819D01*
X204539964Y-108420819D02*
X204492345Y-108897009D01*
X204492345Y-108897009D02*
X204539964Y-108849390D01*
X204539964Y-108849390D02*
X204635202Y-108801771D01*
X204635202Y-108801771D02*
X204873297Y-108801771D01*
X204873297Y-108801771D02*
X204968535Y-108849390D01*
X204968535Y-108849390D02*
X205016154Y-108897009D01*
X205016154Y-108897009D02*
X205063773Y-108992247D01*
X205063773Y-108992247D02*
X205063773Y-109230342D01*
X205063773Y-109230342D02*
X205016154Y-109325580D01*
X205016154Y-109325580D02*
X204968535Y-109373200D01*
X204968535Y-109373200D02*
X204873297Y-109420819D01*
X204873297Y-109420819D02*
X204635202Y-109420819D01*
X204635202Y-109420819D02*
X204539964Y-109373200D01*
X204539964Y-109373200D02*
X204492345Y-109325580D01*
X194445236Y-138307019D02*
X195064283Y-138307019D01*
X195064283Y-138307019D02*
X194730950Y-138687971D01*
X194730950Y-138687971D02*
X194873807Y-138687971D01*
X194873807Y-138687971D02*
X194969045Y-138735590D01*
X194969045Y-138735590D02*
X195016664Y-138783209D01*
X195016664Y-138783209D02*
X195064283Y-138878447D01*
X195064283Y-138878447D02*
X195064283Y-139116542D01*
X195064283Y-139116542D02*
X195016664Y-139211780D01*
X195016664Y-139211780D02*
X194969045Y-139259400D01*
X194969045Y-139259400D02*
X194873807Y-139307019D01*
X194873807Y-139307019D02*
X194588093Y-139307019D01*
X194588093Y-139307019D02*
X194492855Y-139259400D01*
X194492855Y-139259400D02*
X194445236Y-139211780D01*
X195397617Y-138307019D02*
X196016664Y-138307019D01*
X196016664Y-138307019D02*
X195683331Y-138687971D01*
X195683331Y-138687971D02*
X195826188Y-138687971D01*
X195826188Y-138687971D02*
X195921426Y-138735590D01*
X195921426Y-138735590D02*
X195969045Y-138783209D01*
X195969045Y-138783209D02*
X196016664Y-138878447D01*
X196016664Y-138878447D02*
X196016664Y-139116542D01*
X196016664Y-139116542D02*
X195969045Y-139211780D01*
X195969045Y-139211780D02*
X195921426Y-139259400D01*
X195921426Y-139259400D02*
X195826188Y-139307019D01*
X195826188Y-139307019D02*
X195540474Y-139307019D01*
X195540474Y-139307019D02*
X195445236Y-139259400D01*
X195445236Y-139259400D02*
X195397617Y-139211780D01*
X196635712Y-138307019D02*
X196730950Y-138307019D01*
X196730950Y-138307019D02*
X196826188Y-138354638D01*
X196826188Y-138354638D02*
X196873807Y-138402257D01*
X196873807Y-138402257D02*
X196921426Y-138497495D01*
X196921426Y-138497495D02*
X196969045Y-138687971D01*
X196969045Y-138687971D02*
X196969045Y-138926066D01*
X196969045Y-138926066D02*
X196921426Y-139116542D01*
X196921426Y-139116542D02*
X196873807Y-139211780D01*
X196873807Y-139211780D02*
X196826188Y-139259400D01*
X196826188Y-139259400D02*
X196730950Y-139307019D01*
X196730950Y-139307019D02*
X196635712Y-139307019D01*
X196635712Y-139307019D02*
X196540474Y-139259400D01*
X196540474Y-139259400D02*
X196492855Y-139211780D01*
X196492855Y-139211780D02*
X196445236Y-139116542D01*
X196445236Y-139116542D02*
X196397617Y-138926066D01*
X196397617Y-138926066D02*
X196397617Y-138687971D01*
X196397617Y-138687971D02*
X196445236Y-138497495D01*
X196445236Y-138497495D02*
X196492855Y-138402257D01*
X196492855Y-138402257D02*
X196540474Y-138354638D01*
X196540474Y-138354638D02*
X196635712Y-138307019D01*
X205552569Y-88812666D02*
X205076378Y-89145999D01*
X205552569Y-89384094D02*
X204552569Y-89384094D01*
X204552569Y-89384094D02*
X204552569Y-89003142D01*
X204552569Y-89003142D02*
X204600188Y-88907904D01*
X204600188Y-88907904D02*
X204647807Y-88860285D01*
X204647807Y-88860285D02*
X204743045Y-88812666D01*
X204743045Y-88812666D02*
X204885902Y-88812666D01*
X204885902Y-88812666D02*
X204981140Y-88860285D01*
X204981140Y-88860285D02*
X205028759Y-88907904D01*
X205028759Y-88907904D02*
X205076378Y-89003142D01*
X205076378Y-89003142D02*
X205076378Y-89384094D01*
X204552569Y-87955523D02*
X204552569Y-88145999D01*
X204552569Y-88145999D02*
X204600188Y-88241237D01*
X204600188Y-88241237D02*
X204647807Y-88288856D01*
X204647807Y-88288856D02*
X204790664Y-88384094D01*
X204790664Y-88384094D02*
X204981140Y-88431713D01*
X204981140Y-88431713D02*
X205362092Y-88431713D01*
X205362092Y-88431713D02*
X205457330Y-88384094D01*
X205457330Y-88384094D02*
X205504950Y-88336475D01*
X205504950Y-88336475D02*
X205552569Y-88241237D01*
X205552569Y-88241237D02*
X205552569Y-88050761D01*
X205552569Y-88050761D02*
X205504950Y-87955523D01*
X205504950Y-87955523D02*
X205457330Y-87907904D01*
X205457330Y-87907904D02*
X205362092Y-87860285D01*
X205362092Y-87860285D02*
X205123997Y-87860285D01*
X205123997Y-87860285D02*
X205028759Y-87907904D01*
X205028759Y-87907904D02*
X204981140Y-87955523D01*
X204981140Y-87955523D02*
X204933521Y-88050761D01*
X204933521Y-88050761D02*
X204933521Y-88241237D01*
X204933521Y-88241237D02*
X204981140Y-88336475D01*
X204981140Y-88336475D02*
X205028759Y-88384094D01*
X205028759Y-88384094D02*
X205123997Y-88431713D01*
X194175688Y-129826257D02*
X194223307Y-129778638D01*
X194223307Y-129778638D02*
X194318545Y-129731019D01*
X194318545Y-129731019D02*
X194556640Y-129731019D01*
X194556640Y-129731019D02*
X194651878Y-129778638D01*
X194651878Y-129778638D02*
X194699497Y-129826257D01*
X194699497Y-129826257D02*
X194747116Y-129921495D01*
X194747116Y-129921495D02*
X194747116Y-130016733D01*
X194747116Y-130016733D02*
X194699497Y-130159590D01*
X194699497Y-130159590D02*
X194128069Y-130731019D01*
X194128069Y-130731019D02*
X194747116Y-130731019D01*
X195175688Y-130635780D02*
X195223307Y-130683400D01*
X195223307Y-130683400D02*
X195175688Y-130731019D01*
X195175688Y-130731019D02*
X195128069Y-130683400D01*
X195128069Y-130683400D02*
X195175688Y-130635780D01*
X195175688Y-130635780D02*
X195175688Y-130731019D01*
X195604259Y-129826257D02*
X195651878Y-129778638D01*
X195651878Y-129778638D02*
X195747116Y-129731019D01*
X195747116Y-129731019D02*
X195985211Y-129731019D01*
X195985211Y-129731019D02*
X196080449Y-129778638D01*
X196080449Y-129778638D02*
X196128068Y-129826257D01*
X196128068Y-129826257D02*
X196175687Y-129921495D01*
X196175687Y-129921495D02*
X196175687Y-130016733D01*
X196175687Y-130016733D02*
X196128068Y-130159590D01*
X196128068Y-130159590D02*
X195556640Y-130731019D01*
X195556640Y-130731019D02*
X196175687Y-130731019D01*
X196604259Y-130731019D02*
X196604259Y-129731019D01*
X196699497Y-130350066D02*
X196985211Y-130731019D01*
X196985211Y-130064352D02*
X196604259Y-130445304D01*
D12*
%TO.C,C1*%
X229788767Y-86612000D02*
X229496233Y-86612000D01*
X229788767Y-87632000D02*
X229496233Y-87632000D01*
%TO.C,R4*%
X203145250Y-78635776D02*
X203145250Y-79145224D01*
X204190250Y-78635776D02*
X204190250Y-79145224D01*
%TO.C,D2*%
X199583350Y-135231200D02*
X199583350Y-136701200D01*
X199583350Y-136701200D02*
X202043350Y-136701200D01*
X202043350Y-135231200D02*
X199583350Y-135231200D01*
D11*
%TO.C,Conn2*%
X247523000Y-126238000D02*
X252603000Y-126238000D01*
X247523000Y-141478000D02*
X247523000Y-126238000D01*
X247523000Y-141478000D02*
X252603000Y-141478000D01*
X252603000Y-126238000D02*
X252603000Y-141478000D01*
X252603000Y-141478000D02*
X254127000Y-141478000D01*
X254127000Y-126238000D02*
X252603000Y-126238000D01*
X254127000Y-141478000D02*
X254127000Y-126238000D01*
D12*
%TO.C,R2*%
X195835174Y-135441700D02*
X195325726Y-135441700D01*
X195835174Y-136486700D02*
X195325726Y-136486700D01*
D11*
%TO.C,H1*%
X198709283Y-67564000D02*
G75*
G02*
X190672717Y-67564000I-4018283J0D01*
G01*
X190672717Y-67564000D02*
G75*
G02*
X198709283Y-67564000I4018283J0D01*
G01*
D12*
%TO.C,Q1*%
X209334250Y-93182000D02*
X208684250Y-93182000D01*
X209334250Y-93182000D02*
X209984250Y-93182000D01*
X209334250Y-96302000D02*
X208684250Y-96302000D01*
X209334250Y-96302000D02*
X209984250Y-96302000D01*
X210736750Y-96582000D02*
X210256750Y-96582000D01*
X210496750Y-96252000D01*
X210736750Y-96582000D01*
G36*
X210736750Y-96582000D02*
G01*
X210256750Y-96582000D01*
X210496750Y-96252000D01*
X210736750Y-96582000D01*
G37*
D11*
%TO.C,Conn7*%
X247497600Y-101346000D02*
X252577600Y-101346000D01*
X247497600Y-119126000D02*
X247497600Y-101346000D01*
X247497600Y-119126000D02*
X252577600Y-119126000D01*
X252577600Y-101346000D02*
X252577600Y-119126000D01*
X252577600Y-119126000D02*
X254101600Y-119126000D01*
X254101600Y-101346000D02*
X252577600Y-101346000D01*
X254101600Y-119126000D02*
X254101600Y-101346000D01*
D12*
%TO.C,D1*%
X199583350Y-130964000D02*
X199583350Y-132434000D01*
X199583350Y-132434000D02*
X202043350Y-132434000D01*
X202043350Y-130964000D02*
X199583350Y-130964000D01*
%TO.C,C2*%
X214416983Y-131747800D02*
X214709517Y-131747800D01*
X214416983Y-132767800D02*
X214709517Y-132767800D01*
D11*
%TO.C,Conn5*%
X192715750Y-110096300D02*
X192715750Y-102603300D01*
X197795750Y-102603300D02*
X192715750Y-102603300D01*
X197795750Y-102603300D02*
X197795750Y-110096300D01*
X197795750Y-102603300D02*
X199065750Y-102603300D01*
X197795750Y-110096300D02*
X192715750Y-110096300D01*
X199065750Y-102603300D02*
X199065750Y-110096300D01*
X199065750Y-110096300D02*
X197795750Y-110096300D01*
D12*
%TO.C,R5*%
X203145250Y-94487276D02*
X203145250Y-94996724D01*
X204190250Y-94487276D02*
X204190250Y-94996724D01*
%TO.C,Q2*%
X209334250Y-87086000D02*
X208684250Y-87086000D01*
X209334250Y-87086000D02*
X209984250Y-87086000D01*
X209334250Y-90206000D02*
X208684250Y-90206000D01*
X209334250Y-90206000D02*
X209984250Y-90206000D01*
X210736750Y-90486000D02*
X210256750Y-90486000D01*
X210496750Y-90156000D01*
X210736750Y-90486000D01*
G36*
X210736750Y-90486000D02*
G01*
X210256750Y-90486000D01*
X210496750Y-90156000D01*
X210736750Y-90486000D01*
G37*
D11*
%TO.C,H4*%
X255859283Y-67564000D02*
G75*
G02*
X247822717Y-67564000I-4018283J0D01*
G01*
X247822717Y-67564000D02*
G75*
G02*
X255859283Y-67564000I4018283J0D01*
G01*
D12*
%TO.C,C3*%
X209336983Y-131747800D02*
X209629517Y-131747800D01*
X209336983Y-132767800D02*
X209629517Y-132767800D01*
D11*
%TO.C,H3*%
X255859283Y-150114000D02*
G75*
G02*
X247822717Y-150114000I-4018283J0D01*
G01*
X247822717Y-150114000D02*
G75*
G02*
X255859283Y-150114000I4018283J0D01*
G01*
%TO.C,H2*%
X198709283Y-150114000D02*
G75*
G02*
X190672717Y-150114000I-4018283J0D01*
G01*
X190672717Y-150114000D02*
G75*
G02*
X198709283Y-150114000I4018283J0D01*
G01*
%TO.C,Conn4*%
X192720350Y-84074000D02*
X197800350Y-84074000D01*
X192720350Y-99314000D02*
X192720350Y-84074000D01*
X192720350Y-99314000D02*
X197800350Y-99314000D01*
X197800350Y-84074000D02*
X197800350Y-99314000D01*
X197800350Y-99314000D02*
X199324350Y-99314000D01*
X199324350Y-84074000D02*
X197800350Y-84074000D01*
X199324350Y-99314000D02*
X199324350Y-84074000D01*
D12*
%TO.C,J1*%
X226825000Y-63422000D02*
X226825000Y-84972000D01*
X243075000Y-63422000D02*
X226825000Y-63422000D01*
X243075000Y-63422000D02*
X243075000Y-84972000D01*
X243075000Y-84972000D02*
X226825000Y-84972000D01*
D11*
%TO.C,U2*%
X206080750Y-134670800D02*
X216240750Y-134670800D01*
X206080750Y-141020800D02*
X208620750Y-138480800D01*
X206080750Y-146100800D02*
X206080750Y-141020800D01*
X206080750Y-151180800D02*
X206080750Y-134670800D01*
X206080750Y-151180800D02*
X216240750Y-151180800D01*
X208620750Y-138480800D02*
X213700750Y-138480800D01*
X208620750Y-148640800D02*
X206080750Y-146100800D01*
X213700750Y-138480800D02*
X216240750Y-141020800D01*
X213700750Y-148640800D02*
X208620750Y-148640800D01*
X216240750Y-134670800D02*
X216240750Y-151180800D01*
X216240750Y-141020800D02*
X216240750Y-146100800D01*
X216240750Y-146100800D02*
X213700750Y-148640800D01*
D12*
%TO.C,D3*%
X199583350Y-139549200D02*
X199583350Y-141019200D01*
X199583350Y-141019200D02*
X202043350Y-141019200D01*
X202043350Y-139549200D02*
X199583350Y-139549200D01*
D13*
%TO.C,U1*%
X225933000Y-89408000D02*
X243713000Y-89408000D01*
X225933000Y-150368000D02*
X225933000Y-89408000D01*
X225933000Y-150368000D02*
X230793000Y-150368000D01*
X230793000Y-150368000D02*
X230793000Y-151068000D01*
X238853000Y-150368000D02*
X238853000Y-151068000D01*
X238853000Y-151068000D02*
X230793000Y-151068000D01*
X243713000Y-89408000D02*
X243713000Y-150368000D01*
X243713000Y-150368000D02*
X238853000Y-150368000D01*
D14*
X244423000Y-144018000D02*
G75*
G02*
X244223000Y-144018000I-100000J0D01*
G01*
X244223000Y-144018000D02*
G75*
G02*
X244423000Y-144018000I100000J0D01*
G01*
D12*
%TO.C,Q3*%
X209334250Y-75442600D02*
X208684250Y-75442600D01*
X209334250Y-75442600D02*
X209984250Y-75442600D01*
X209334250Y-78562600D02*
X208684250Y-78562600D01*
X209334250Y-78562600D02*
X209984250Y-78562600D01*
X210736750Y-78842600D02*
X210256750Y-78842600D01*
X210496750Y-78512600D01*
X210736750Y-78842600D01*
G36*
X210736750Y-78842600D02*
G01*
X210256750Y-78842600D01*
X210496750Y-78512600D01*
X210736750Y-78842600D01*
G37*
D11*
%TO.C,Conn6*%
X192720350Y-80822800D02*
X192720350Y-73329800D01*
X197800350Y-73329800D02*
X192720350Y-73329800D01*
X197800350Y-73329800D02*
X197800350Y-80822800D01*
X197800350Y-73329800D02*
X199070350Y-73329800D01*
X197800350Y-80822800D02*
X192720350Y-80822800D01*
X199070350Y-73329800D02*
X199070350Y-80822800D01*
X199070350Y-80822800D02*
X197800350Y-80822800D01*
D12*
%TO.C,Q5*%
X204254250Y-104855800D02*
X203604250Y-104855800D01*
X204254250Y-104855800D02*
X204904250Y-104855800D01*
X204254250Y-107975800D02*
X203604250Y-107975800D01*
X204254250Y-107975800D02*
X204904250Y-107975800D01*
X205656750Y-108255800D02*
X205176750Y-108255800D01*
X205416750Y-107925800D01*
X205656750Y-108255800D01*
G36*
X205656750Y-108255800D02*
G01*
X205176750Y-108255800D01*
X205416750Y-107925800D01*
X205656750Y-108255800D01*
G37*
D11*
%TO.C,Conn1*%
X180438150Y-112522000D02*
X180438150Y-128270000D01*
X180463550Y-112522000D02*
X188210550Y-112522000D01*
X180463550Y-120370600D02*
X189353550Y-120370600D01*
X188185150Y-128270000D02*
X189353550Y-128270000D01*
X188210550Y-128270000D02*
X180463550Y-128270000D01*
X189353550Y-112522000D02*
X188134350Y-112522000D01*
X190496550Y-113665000D02*
X190496550Y-114833400D01*
X190496550Y-118110000D02*
X190496550Y-114833400D01*
X190496550Y-118110000D02*
X190496550Y-119253000D01*
X190496550Y-122682000D02*
X190496550Y-121539000D01*
X190496550Y-122682000D02*
X190496550Y-125984000D01*
X190496550Y-125958600D02*
X190496550Y-127127000D01*
X192757150Y-112522000D02*
X191664950Y-112522000D01*
X192782550Y-112522000D02*
X205076150Y-112522000D01*
X192782550Y-120396000D02*
X191639550Y-120396000D01*
X192782550Y-120396000D02*
X205076150Y-120396000D01*
X192782550Y-128270000D02*
X205076150Y-128270000D01*
X192807950Y-128270000D02*
X191614150Y-128270000D01*
X205076150Y-112522000D02*
X205076150Y-128270000D01*
X189378950Y-128270000D02*
G75*
G02*
X190496550Y-127152400I1117598J2D01*
G01*
X190496550Y-113665000D02*
G75*
G02*
X189353550Y-112522000I0J1143000D01*
G01*
X190496550Y-127152400D02*
G75*
G02*
X191614150Y-128270000I2J-1117598D01*
G01*
X191639550Y-112522000D02*
G75*
G02*
X190496550Y-113665000I-1143000J0D01*
G01*
X191639550Y-120396000D02*
G75*
G02*
X189353550Y-120396000I-1143000J0D01*
G01*
X189353550Y-120396000D02*
G75*
G02*
X191639550Y-120396000I1143000J0D01*
G01*
D12*
%TO.C,R3*%
X195882174Y-139759700D02*
X195372726Y-139759700D01*
X195882174Y-140804700D02*
X195372726Y-140804700D01*
%TO.C,R6*%
X203145250Y-88391276D02*
X203145250Y-88900724D01*
X204190250Y-88391276D02*
X204190250Y-88900724D01*
%TO.C,R1*%
X195835174Y-131183700D02*
X195325726Y-131183700D01*
X195835174Y-132228700D02*
X195325726Y-132228700D01*
%TD*%
M02*
