M48
; DRILL file {KiCad 8.0.4} date 2024-11-14T20:37:02-0600
; FORMAT={-:-/ absolute / inch / decimal}
; #@! TF.CreationDate,2024-11-14T20:37:02-06:00
; #@! TF.GenerationSoftware,Kicad,Pcbnew,8.0.4
; #@! TF.FileFunction,Plated,1,2,PTH
FMAT,2
INCH
; #@! TA.AperFunction,Plated,PTH,ViaDrill
T1C0.0118
; #@! TA.AperFunction,Plated,PTH,ComponentDrill
T2C0.0276
; #@! TA.AperFunction,Plated,PTH,ComponentDrill
T3C0.0315
; #@! TA.AperFunction,Plated,PTH,ComponentDrill
T4C0.0350
; #@! TA.AperFunction,Plated,PTH,ComponentDrill
T5C0.0354
; #@! TA.AperFunction,Plated,PTH,ComponentDrill
T6C0.0402
; #@! TA.AperFunction,Plated,PTH,ComponentDrill
T7C0.0630
; #@! TA.AperFunction,Plated,PTH,ComponentDrill
T8C0.0787
; #@! TA.AperFunction,Plated,PTH,ComponentDrill
T9C0.1280
%
G90
G05
T1
X7.57Y-5.1714
X7.62Y-3.56
X7.875Y-2.6
X7.875Y-2.8
X7.9Y-3.5
X7.9Y-5.75
X7.9Y-5.975
X8.0Y-2.6
X8.0Y-2.8
X8.0Y-3.3
X8.0Y-3.6
X8.0Y-4.0
X8.03Y-5.32
X8.2Y-2.6
X8.2Y-2.8
X8.2Y-3.3
X8.2Y-3.6
X8.2Y-4.0
X8.2Y-4.4
X8.3515Y-3.4914
X8.3515Y-3.7314
X8.4Y-2.6
X8.4Y-2.8
X8.4Y-3.3
X8.4Y-3.88
X8.4Y-4.0
X8.4Y-4.4
X8.4Y-4.6
X8.4Y-4.8
X8.4Y-5.0
X8.6Y-2.6
X8.6Y-2.8
X8.6Y-3.3
X8.6Y-3.6
X8.65Y-4.0
X8.65Y-4.4
X8.65Y-4.6
X8.65Y-4.8
X8.65Y-5.0
X8.65Y-5.25
X8.65Y-5.5
X8.65Y-5.75
X8.65Y-5.975
X8.8Y-2.6
X8.8Y-2.8
X8.8444Y-3.92
X8.8444Y-5.005
X8.985Y-5.1
X9.015Y-5.02
X9.025Y-2.6
X9.045Y-4.91
X9.1Y-3.575
X9.1Y-3.675
X9.1Y-3.775
X9.1Y-3.875
X9.1Y-3.975
X9.1Y-4.075
X9.1Y-4.175
X9.1Y-4.275
X9.1Y-4.375
X9.1Y-4.475
X9.1Y-4.575
X9.1Y-4.675
X9.1Y-4.775
X9.1Y-4.875
X9.1Y-4.975
X9.1Y-5.075
X9.1Y-5.475
X9.1Y-5.675
X9.1Y-5.775
X9.1Y-5.875
X9.2Y-3.575
X9.2Y-3.675
X9.2Y-3.775
X9.2Y-3.875
X9.2Y-3.975
X9.2Y-4.075
X9.2Y-4.175
X9.2Y-4.275
X9.2Y-4.375
X9.2Y-4.475
X9.2Y-4.575
X9.2Y-4.675
X9.2Y-4.775
X9.2Y-4.875
X9.2Y-4.975
X9.2Y-5.075
X9.225Y-2.6
X9.225Y-2.8
X9.225Y-3.0
X9.275Y-3.575
X9.275Y-3.675
X9.275Y-3.775
X9.275Y-3.875
X9.275Y-3.975
X9.275Y-4.075
X9.275Y-4.175
X9.275Y-4.275
X9.275Y-4.375
X9.275Y-4.475
X9.275Y-4.575
X9.275Y-4.675
X9.275Y-4.775
X9.275Y-4.875
X9.275Y-4.975
X9.275Y-5.075
X9.275Y-5.475
X9.275Y-5.575
X9.275Y-5.675
X9.275Y-5.775
X9.275Y-5.875
X9.375Y-3.575
X9.375Y-3.675
X9.375Y-3.775
X9.375Y-3.875
X9.375Y-3.975
X9.375Y-4.075
X9.375Y-4.175
X9.375Y-4.275
X9.375Y-4.375
X9.375Y-4.475
X9.375Y-4.575
X9.375Y-4.675
X9.375Y-4.775
X9.375Y-4.875
X9.375Y-4.975
X9.375Y-5.17
X9.375Y-5.475
X9.375Y-5.575
X9.375Y-5.675
X9.375Y-5.775
X9.375Y-5.875
X9.425Y-2.6
X9.45Y-5.275
X9.725Y-2.875
X9.725Y-3.0
X9.725Y-3.2
X9.725Y-3.4
X9.725Y-3.6
X9.725Y-3.8
X9.725Y-4.24
X9.725Y-4.42
X9.725Y-4.52
X9.725Y-4.8
X9.725Y-5.12
X9.725Y-5.22
X9.725Y-5.42
X9.725Y-5.7
X9.925Y-2.875
X9.925Y-3.0
X9.925Y-3.2
X9.925Y-3.4
X9.925Y-3.6
X9.925Y-3.8
X9.925Y-4.8
X9.925Y-5.7
T2
X9.0415Y-5.2806
X9.0415Y-5.3594
X9.1202Y-5.2806
X9.1202Y-5.3594
X9.1989Y-5.2806
X9.1989Y-5.3594
T3
X8.945Y-3.57
X8.945Y-3.67
X8.945Y-3.77
X8.945Y-3.87
X8.945Y-3.97
X8.945Y-4.07
X8.945Y-4.17
X8.945Y-4.27
X8.945Y-4.37
X8.945Y-4.47
X8.945Y-4.57
X8.945Y-4.67
X8.945Y-4.77
X8.945Y-4.87
X8.945Y-4.97
X8.945Y-5.07
X8.945Y-5.17
X8.945Y-5.27
X8.945Y-5.37
X8.945Y-5.47
X8.945Y-5.57
X8.945Y-5.67
X8.945Y-5.77
X8.945Y-5.87
X9.545Y-3.57
X9.545Y-3.67
X9.545Y-3.77
X9.545Y-3.87
X9.545Y-3.97
X9.545Y-4.07
X9.545Y-4.17
X9.545Y-4.27
X9.545Y-4.37
X9.545Y-4.47
X9.545Y-4.57
X9.545Y-4.67
X9.545Y-4.77
X9.545Y-4.87
X9.545Y-4.97
X9.545Y-5.07
X9.545Y-5.17
X9.545Y-5.27
X9.545Y-5.37
X9.545Y-5.47
X9.545Y-5.57
X9.545Y-5.67
X9.545Y-5.77
X9.545Y-5.87
T4
X8.2134Y-5.352
X8.3134Y-5.352
X8.4134Y-5.352
T5
X7.6872Y-4.1395
X7.6872Y-4.2395
X7.6874Y-2.987
X7.6874Y-3.087
X7.6874Y-3.41
X7.6874Y-3.51
X7.6874Y-3.61
X7.6874Y-3.71
X7.6874Y-3.81
X9.075Y-3.28
X9.125Y-3.18
X9.175Y-3.28
X9.225Y-3.18
X9.275Y-3.28
X9.325Y-3.18
X9.375Y-3.28
X9.425Y-3.18
X9.844Y-4.09
X9.844Y-4.19
X9.844Y-4.29
X9.844Y-4.39
X9.844Y-4.49
X9.844Y-4.59
X9.845Y-5.07
X9.845Y-5.17
X9.845Y-5.27
X9.845Y-5.37
X9.845Y-5.47
T6
X9.001Y-2.8005
X9.101Y-2.73
X9.399Y-2.8005
X9.499Y-2.73
T7
X8.94Y-3.0501
X9.56Y-3.0501
T9
X9.025Y-2.93
X9.475Y-2.93
T8
G00X8.2149Y-4.5437
M15
G01X8.2149Y-4.6263
M16
G05
G00X8.2149Y-4.8537
M15
G01X8.2149Y-4.9363
M16
G05
M30
