%TF.GenerationSoftware,KiCad,Pcbnew,8.0.4*%
%TF.CreationDate,2024-11-14T20:48:33-06:00*%
%TF.ProjectId,RamanSpectrometer_Board,52616d61-6e53-4706-9563-74726f6d6574,rev?*%
%TF.SameCoordinates,Original*%
%TF.FileFunction,Soldermask,Bot*%
%TF.FilePolarity,Negative*%
%FSLAX46Y46*%
G04 Gerber Fmt 4.6, Leading zero omitted, Abs format (unit mm)*
G04 Created by KiCad (PCBNEW 8.0.4) date 2024-11-14 20:48:33*
%MOMM*%
%LPD*%
G01*
G04 APERTURE LIST*
%ADD10C,1.524000*%
%ADD11C,2.946400*%
%ADD12C,1.100000*%
%ADD13C,1.400000*%
%ADD14C,4.000000*%
%ADD15C,2.000000*%
%ADD16C,1.308000*%
%ADD17C,1.208000*%
%ADD18O,3.000000X5.100000*%
G04 APERTURE END LIST*
D10*
%TO.C,Conn2*%
X250063000Y-128778000D03*
X250063000Y-131318000D03*
X250063000Y-133858000D03*
X250063000Y-136398000D03*
X250063000Y-138938000D03*
%TD*%
D11*
%TO.C,H1*%
X194691000Y-67564000D03*
%TD*%
D10*
%TO.C,Conn7*%
X250037600Y-103886000D03*
X250037600Y-106426000D03*
X250037600Y-108966000D03*
X250037600Y-111506000D03*
X250037600Y-114046000D03*
X250037600Y-116586000D03*
%TD*%
%TO.C,Conn5*%
X195255750Y-105143300D03*
X195255750Y-107683300D03*
%TD*%
D11*
%TO.C,H4*%
X251841000Y-67564000D03*
%TD*%
%TO.C,H3*%
X251841000Y-150114000D03*
%TD*%
%TO.C,H2*%
X194691000Y-150114000D03*
%TD*%
D10*
%TO.C,Conn4*%
X195260350Y-86614000D03*
X195260350Y-89154000D03*
X195260350Y-91694000D03*
X195260350Y-94234000D03*
X195260350Y-96774000D03*
%TD*%
D12*
%TO.C,J1*%
X239395000Y-80772000D03*
X238125000Y-83312000D03*
X236855000Y-80772000D03*
X235585000Y-83312000D03*
X234315000Y-80772000D03*
X233045000Y-83312000D03*
X231775000Y-80772000D03*
X230505000Y-83312000D03*
D13*
X241275000Y-69342000D03*
X238735000Y-71132000D03*
X231165000Y-69342000D03*
X228625000Y-71132000D03*
D14*
X240665000Y-74422000D03*
X229235000Y-74422000D03*
D15*
X242825000Y-77472000D03*
X227075000Y-77472000D03*
%TD*%
D10*
%TO.C,U2*%
X208620750Y-135940800D03*
X211160750Y-135940800D03*
X213700750Y-135940800D03*
%TD*%
D16*
%TO.C,U1*%
X242443000Y-146558000D03*
X242443000Y-144018000D03*
X242443000Y-141478000D03*
X242443000Y-138938000D03*
X242443000Y-113538000D03*
X227203000Y-144018000D03*
X242443000Y-136398000D03*
X242443000Y-133858000D03*
X242443000Y-131318000D03*
X242443000Y-128778000D03*
X242443000Y-126238000D03*
X242443000Y-123698000D03*
X242443000Y-121158000D03*
X242443000Y-118618000D03*
X242443000Y-116078000D03*
X227203000Y-116078000D03*
X227203000Y-118618000D03*
X227203000Y-121158000D03*
X227203000Y-123698000D03*
X227203000Y-126238000D03*
X227203000Y-128778000D03*
X227203000Y-131318000D03*
X227203000Y-133858000D03*
X227203000Y-136398000D03*
X227203000Y-138938000D03*
X227203000Y-141478000D03*
X242443000Y-110998000D03*
X242443000Y-108458000D03*
X242443000Y-105918000D03*
X242443000Y-103378000D03*
X242443000Y-100838000D03*
X242443000Y-98298000D03*
X242443000Y-95758000D03*
X242443000Y-93218000D03*
X242443000Y-90678000D03*
X227203000Y-90678000D03*
X227203000Y-93218000D03*
X227203000Y-95758000D03*
X227203000Y-98298000D03*
X227203000Y-100838000D03*
X227203000Y-103378000D03*
X227203000Y-105918000D03*
X227203000Y-108458000D03*
X227203000Y-110998000D03*
X242443000Y-149098000D03*
X227203000Y-113538000D03*
X227203000Y-146558000D03*
D17*
X231653000Y-134128000D03*
X231653000Y-136128000D03*
X229653000Y-136128000D03*
X229653000Y-134128000D03*
X233653000Y-134128000D03*
X233653000Y-136128000D03*
D16*
X227203000Y-149098000D03*
%TD*%
D10*
%TO.C,Conn6*%
X195260350Y-75869800D03*
X195260350Y-78409800D03*
%TD*%
D18*
%TO.C,Conn1*%
X208657550Y-116459000D03*
X208657550Y-124333000D03*
%TD*%
M02*
