M48
; DRILL file {KiCad 8.0.5} date 2024-11-15T15:17:00-0600
; FORMAT={-:-/ absolute / metric / decimal}
; #@! TF.CreationDate,2024-11-15T15:17:00-06:00
; #@! TF.GenerationSoftware,Kicad,Pcbnew,8.0.5
; #@! TF.FileFunction,Plated,1,2,PTH
FMAT,2
METRIC
; #@! TA.AperFunction,Plated,PTH,ViaDrill
T1C0.300
; #@! TA.AperFunction,Plated,PTH,ComponentDrill
T2C0.700
; #@! TA.AperFunction,Plated,PTH,ComponentDrill
T3C0.800
; #@! TA.AperFunction,Plated,PTH,ComponentDrill
T4C0.889
; #@! TA.AperFunction,Plated,PTH,ComponentDrill
T5C0.900
; #@! TA.AperFunction,Plated,PTH,ComponentDrill
T6C1.020
; #@! TA.AperFunction,Plated,PTH,ComponentDrill
T7C1.600
; #@! TA.AperFunction,Plated,PTH,ComponentDrill
T8C2.000
; #@! TA.AperFunction,Plated,PTH,ComponentDrill
T9C3.250
%
G90
G05
T1
X192.278Y-131.353
X193.548Y-90.424
X200.025Y-66.04
X200.025Y-71.12
X200.66Y-88.9
X200.66Y-146.05
X200.66Y-151.765
X203.2Y-83.82
X203.2Y-91.44
X203.2Y-101.6
X203.962Y-135.128
X208.28Y-83.82
X208.28Y-91.44
X208.28Y-101.6
X208.28Y-111.76
X212.129Y-88.681
X212.129Y-94.777
X213.36Y-66.04
X213.36Y-74.676
X213.36Y-83.82
X213.36Y-98.552
X213.36Y-101.6
X213.36Y-111.76
X213.36Y-116.84
X213.36Y-121.92
X213.36Y-127.0
X218.44Y-83.82
X218.44Y-91.44
X218.694Y-68.072
X219.71Y-101.6
X219.71Y-111.76
X219.71Y-116.84
X219.71Y-121.92
X219.71Y-127.0
X219.71Y-133.35
X219.71Y-139.7
X219.71Y-146.05
X219.71Y-151.765
X221.869Y-99.568
X222.504Y-74.676
X222.631Y-125.222
X224.917Y-66.04
X229.235Y-66.04
X230.94Y-115.008
X231.14Y-92.456
X231.14Y-95.885
X231.14Y-98.425
X231.14Y-100.965
X231.14Y-107.696
X231.14Y-112.776
X231.14Y-118.11
X231.14Y-123.952
X231.14Y-139.065
X231.14Y-144.78
X231.14Y-149.225
X231.394Y-119.888
X231.648Y-128.905
X233.426Y-121.285
X233.426Y-123.825
X233.426Y-126.365
X233.426Y-128.905
X233.68Y-92.456
X233.68Y-95.885
X233.68Y-98.425
X233.68Y-100.965
X233.68Y-107.696
X233.68Y-113.665
X233.68Y-116.205
X233.68Y-118.745
X234.315Y-66.04
X234.315Y-71.12
X234.315Y-76.2
X234.95Y-140.97
X234.95Y-144.78
X234.95Y-149.225
X235.585Y-92.456
X235.585Y-95.885
X235.585Y-98.425
X235.585Y-100.965
X235.585Y-107.696
X235.585Y-113.665
X235.585Y-116.205
X235.585Y-118.745
X235.585Y-121.285
X235.585Y-123.825
X235.585Y-126.365
X235.585Y-128.905
X238.125Y-92.456
X238.125Y-95.885
X238.125Y-98.425
X238.125Y-100.965
X238.125Y-107.696
X238.125Y-113.665
X238.125Y-116.205
X238.125Y-118.745
X238.125Y-121.285
X238.125Y-123.825
X238.125Y-126.365
X238.125Y-131.318
X238.76Y-137.16
X238.76Y-140.97
X238.76Y-144.78
X238.76Y-149.225
X239.395Y-66.04
X240.03Y-133.985
X247.015Y-73.025
X247.015Y-76.2
X247.015Y-81.28
X247.015Y-86.36
X247.015Y-91.44
X247.015Y-96.52
X247.015Y-107.696
X247.015Y-112.268
X247.015Y-114.808
X247.015Y-118.364
X247.015Y-121.92
X247.015Y-130.048
X247.015Y-132.588
X247.015Y-137.668
X247.015Y-144.78
X252.095Y-73.025
X252.095Y-76.2
X252.095Y-81.28
X252.095Y-86.36
X252.095Y-91.44
X252.095Y-96.52
X252.095Y-121.92
X252.095Y-144.78
T2
X229.653Y-134.128
X229.653Y-136.128
X231.653Y-134.128
X231.653Y-136.128
X233.653Y-134.128
X233.653Y-136.128
T3
X227.203Y-90.678
X227.203Y-93.218
X227.203Y-95.758
X227.203Y-98.298
X227.203Y-100.838
X227.203Y-103.378
X227.203Y-105.918
X227.203Y-108.458
X227.203Y-110.998
X227.203Y-113.538
X227.203Y-116.078
X227.203Y-118.618
X227.203Y-121.158
X227.203Y-123.698
X227.203Y-126.238
X227.203Y-128.778
X227.203Y-131.318
X227.203Y-133.858
X227.203Y-136.398
X227.203Y-138.938
X227.203Y-141.478
X227.203Y-144.018
X227.203Y-146.558
X227.203Y-149.098
X242.443Y-90.678
X242.443Y-93.218
X242.443Y-95.758
X242.443Y-98.298
X242.443Y-100.838
X242.443Y-103.378
X242.443Y-105.918
X242.443Y-108.458
X242.443Y-110.998
X242.443Y-113.538
X242.443Y-116.078
X242.443Y-118.618
X242.443Y-121.158
X242.443Y-123.698
X242.443Y-126.238
X242.443Y-128.778
X242.443Y-131.318
X242.443Y-133.858
X242.443Y-136.398
X242.443Y-138.938
X242.443Y-141.478
X242.443Y-144.018
X242.443Y-146.558
X242.443Y-149.098
T4
X208.621Y-135.941
X211.161Y-135.941
X213.701Y-135.941
T5
X195.256Y-105.143
X195.256Y-107.683
X195.26Y-75.87
X195.26Y-78.41
X195.26Y-86.614
X195.26Y-89.154
X195.26Y-91.694
X195.26Y-94.234
X195.26Y-96.774
X230.505Y-83.312
X231.775Y-80.772
X233.045Y-83.312
X234.315Y-80.772
X235.585Y-83.312
X236.855Y-80.772
X238.125Y-83.312
X239.395Y-80.772
X250.038Y-103.886
X250.038Y-106.426
X250.038Y-108.966
X250.038Y-111.506
X250.038Y-114.046
X250.038Y-116.586
X250.063Y-128.778
X250.063Y-131.318
X250.063Y-133.858
X250.063Y-136.398
X250.063Y-138.938
T6
X228.625Y-71.132
X231.165Y-69.342
X238.735Y-71.132
X241.275Y-69.342
T7
X227.075Y-77.472
X242.825Y-77.472
T9
X229.235Y-74.422
X240.665Y-74.422
T8
X208.658Y-115.409G85X208.658Y-117.509
G05
X208.658Y-123.283G85X208.658Y-125.383
G05
M30
