%TF.GenerationSoftware,KiCad,Pcbnew,8.0.4*%
%TF.CreationDate,2024-11-14T20:48:33-06:00*%
%TF.ProjectId,RamanSpectrometer_Board,52616d61-6e53-4706-9563-74726f6d6574,rev?*%
%TF.SameCoordinates,Original*%
%TF.FileFunction,Copper,L2,Bot*%
%TF.FilePolarity,Positive*%
%FSLAX46Y46*%
G04 Gerber Fmt 4.6, Leading zero omitted, Abs format (unit mm)*
G04 Created by KiCad (PCBNEW 8.0.4) date 2024-11-14 20:48:33*
%MOMM*%
%LPD*%
G01*
G04 APERTURE LIST*
%TA.AperFunction,ComponentPad*%
%ADD10C,1.524000*%
%TD*%
%TA.AperFunction,ComponentPad*%
%ADD11C,1.100000*%
%TD*%
%TA.AperFunction,ComponentPad*%
%ADD12C,1.400000*%
%TD*%
%TA.AperFunction,ComponentPad*%
%ADD13C,4.000000*%
%TD*%
%TA.AperFunction,ComponentPad*%
%ADD14C,2.000000*%
%TD*%
%TA.AperFunction,ComponentPad*%
%ADD15C,1.308000*%
%TD*%
%TA.AperFunction,ComponentPad*%
%ADD16C,1.208000*%
%TD*%
%TA.AperFunction,ComponentPad*%
%ADD17O,3.000000X5.100000*%
%TD*%
%TA.AperFunction,ViaPad*%
%ADD18C,0.600000*%
%TD*%
%TA.AperFunction,Conductor*%
%ADD19C,0.254000*%
%TD*%
G04 APERTURE END LIST*
D10*
%TO.P,Conn2,1*%
%TO.N,IN_B*%
X250063000Y-128778000D03*
%TO.P,Conn2,2*%
%TO.N,PWM*%
X250063000Y-131318000D03*
%TO.P,Conn2,3*%
%TO.N,CS*%
X250063000Y-133858000D03*
%TO.P,Conn2,4*%
%TO.N,IN_A*%
X250063000Y-136398000D03*
%TO.P,Conn2,5*%
%TO.N,SEL*%
X250063000Y-138938000D03*
%TD*%
%TO.P,Conn7,1*%
%TO.N,+3.3V*%
X250037600Y-103886000D03*
%TO.P,Conn7,2*%
%TO.N,GND*%
X250037600Y-106426000D03*
%TO.P,Conn7,3*%
%TO.N,SCL*%
X250037600Y-108966000D03*
%TO.P,Conn7,4*%
%TO.N,SDA*%
X250037600Y-111506000D03*
%TO.P,Conn7,5*%
%TO.N,GPIO*%
X250037600Y-114046000D03*
%TO.P,Conn7,6*%
%TO.N,+3.3V*%
X250037600Y-116586000D03*
%TD*%
%TO.P,Conn5,1*%
%TO.N,Net-(Q5-D)*%
X195255750Y-105143300D03*
%TO.P,Conn5,2*%
%TO.N,+5V*%
X195255750Y-107683300D03*
%TD*%
%TO.P,Conn4,1*%
%TO.N,+5V*%
X195260350Y-86614000D03*
%TO.P,Conn4,2*%
%TO.N,CCD_Vout*%
X195260350Y-89154000D03*
%TO.P,Conn4,3*%
%TO.N,CCD_ROG_5V*%
X195260350Y-91694000D03*
%TO.P,Conn4,4*%
%TO.N,CCD_CLK_5V*%
X195260350Y-94234000D03*
%TO.P,Conn4,5*%
%TO.N,GND*%
X195260350Y-96774000D03*
%TD*%
D11*
%TO.P,J1,1*%
%TO.N,T+*%
X239395000Y-80772000D03*
%TO.P,J1,2*%
%TO.N,Net-(C1-Pad1)*%
X238125000Y-83312000D03*
%TO.P,J1,3*%
%TO.N,T-*%
X236855000Y-80772000D03*
%TO.P,J1,4*%
%TO.N,R+*%
X235585000Y-83312000D03*
%TO.P,J1,5*%
%TO.N,Net-(C1-Pad1)*%
X234315000Y-80772000D03*
%TO.P,J1,6*%
%TO.N,R-*%
X233045000Y-83312000D03*
%TO.P,J1,7*%
%TO.N,unconnected-(J1-Pad7)*%
X231775000Y-80772000D03*
%TO.P,J1,8*%
%TO.N,GND*%
X230505000Y-83312000D03*
D12*
%TO.P,J1,9*%
X241275000Y-69342000D03*
%TO.P,J1,10*%
%TO.N,LED*%
X238735000Y-71132000D03*
%TO.P,J1,11*%
%TO.N,unconnected-(J1-Pad11)*%
X231165000Y-69342000D03*
%TO.P,J1,12*%
%TO.N,unconnected-(J1-Pad12)*%
X228625000Y-71132000D03*
D13*
%TO.P,J1,13*%
%TO.N,N/C*%
X240665000Y-74422000D03*
%TO.P,J1,14*%
X229235000Y-74422000D03*
D14*
%TO.P,J1,SH*%
%TO.N,GND*%
X242825000Y-77472000D03*
X227075000Y-77472000D03*
%TD*%
D10*
%TO.P,U2,1,Vi*%
%TO.N,+12V*%
X208620750Y-135940800D03*
%TO.P,U2,2,GND*%
%TO.N,GND*%
X211160750Y-135940800D03*
%TO.P,U2,3,Vo*%
%TO.N,+5V*%
X213700750Y-135940800D03*
%TD*%
D15*
%TO.P,U1,0,RX1*%
%TO.N,Red_LED*%
X242443000Y-146558000D03*
%TO.P,U1,1,TX1*%
%TO.N,Green_LED*%
X242443000Y-144018000D03*
%TO.P,U1,2,OUT2*%
%TO.N,Diode Control*%
X242443000Y-141478000D03*
%TO.P,U1,3,LRCLK2*%
%TO.N,SEL*%
X242443000Y-138938000D03*
%TO.P,U1,3.3V_1,3.3V*%
%TO.N,+3.3V*%
X242443000Y-113538000D03*
%TO.P,U1,3.3V_2,3.3V*%
X227203000Y-144018000D03*
%TO.P,U1,4,BCLK2*%
%TO.N,IN_A*%
X242443000Y-136398000D03*
%TO.P,U1,5,IN2*%
%TO.N,unconnected-(U1-IN2-Pad5)*%
X242443000Y-133858000D03*
%TO.P,U1,6,OUT1D*%
%TO.N,PWM*%
X242443000Y-131318000D03*
%TO.P,U1,7,RX2*%
%TO.N,IN_B*%
X242443000Y-128778000D03*
%TO.P,U1,8,TX2*%
%TO.N,unconnected-(U1-TX2-Pad8)*%
X242443000Y-126238000D03*
%TO.P,U1,9,OUT1C*%
%TO.N,FAN_OUT*%
X242443000Y-123698000D03*
%TO.P,U1,10,CS1*%
%TO.N,unconnected-(U1-CS1-Pad10)*%
X242443000Y-121158000D03*
%TO.P,U1,11,MOSI*%
%TO.N,unconnected-(U1-MOSI-Pad11)*%
X242443000Y-118618000D03*
%TO.P,U1,12,MISO*%
%TO.N,unconnected-(U1-MISO-Pad12)*%
X242443000Y-116078000D03*
%TO.P,U1,13,SCK*%
%TO.N,unconnected-(U1-SCK-Pad13)*%
X227203000Y-116078000D03*
%TO.P,U1,14,A0*%
%TO.N,unconnected-(U1-A0-Pad14)*%
X227203000Y-118618000D03*
%TO.P,U1,15,A1*%
%TO.N,unconnected-(U1-A1-Pad15)*%
X227203000Y-121158000D03*
%TO.P,U1,16,A2*%
%TO.N,unconnected-(U1-A2-Pad16)*%
X227203000Y-123698000D03*
%TO.P,U1,17,A3*%
%TO.N,GPIO*%
X227203000Y-126238000D03*
%TO.P,U1,18,A4*%
%TO.N,SDA*%
X227203000Y-128778000D03*
%TO.P,U1,19,A5*%
%TO.N,SCL*%
X227203000Y-131318000D03*
%TO.P,U1,20,A6*%
%TO.N,CS*%
X227203000Y-133858000D03*
%TO.P,U1,21,A7*%
%TO.N,unconnected-(U1-A7-Pad21)*%
X227203000Y-136398000D03*
%TO.P,U1,22,A8*%
%TO.N,unconnected-(U1-A8-Pad22)*%
X227203000Y-138938000D03*
%TO.P,U1,23,A9*%
%TO.N,Green_Laser_3.3V*%
X227203000Y-141478000D03*
%TO.P,U1,24,A10*%
%TO.N,CCD_ROG_3.3V*%
X242443000Y-110998000D03*
%TO.P,U1,25,A11*%
%TO.N,CLD_CLK_3.3V*%
X242443000Y-108458000D03*
%TO.P,U1,26,A12*%
%TO.N,CCD_Vout*%
X242443000Y-105918000D03*
%TO.P,U1,27,A13*%
%TO.N,unconnected-(U1-A13-Pad27)*%
X242443000Y-103378000D03*
%TO.P,U1,28,RX7*%
%TO.N,unconnected-(U1-RX7-Pad28)*%
X242443000Y-100838000D03*
%TO.P,U1,29,TX7*%
%TO.N,unconnected-(U1-TX7-Pad29)*%
X242443000Y-98298000D03*
%TO.P,U1,30,CRX3*%
%TO.N,unconnected-(U1-CRX3-Pad30)*%
X242443000Y-95758000D03*
%TO.P,U1,31,CTX3*%
%TO.N,unconnected-(U1-CTX3-Pad31)*%
X242443000Y-93218000D03*
%TO.P,U1,32,OUT1B*%
%TO.N,unconnected-(U1-OUT1B-Pad32)*%
X242443000Y-90678000D03*
%TO.P,U1,33,MCLK2*%
%TO.N,unconnected-(U1-MCLK2-Pad33)*%
X227203000Y-90678000D03*
%TO.P,U1,34,RX8*%
%TO.N,unconnected-(U1-RX8-Pad34)*%
X227203000Y-93218000D03*
%TO.P,U1,35,TX8*%
%TO.N,unconnected-(U1-TX8-Pad35)*%
X227203000Y-95758000D03*
%TO.P,U1,36,CS2*%
%TO.N,unconnected-(U1-CS2-Pad36)*%
X227203000Y-98298000D03*
%TO.P,U1,37,CS3*%
%TO.N,unconnected-(U1-CS3-Pad37)*%
X227203000Y-100838000D03*
%TO.P,U1,38,A14*%
%TO.N,unconnected-(U1-A14-Pad38)*%
X227203000Y-103378000D03*
%TO.P,U1,39,A15*%
%TO.N,unconnected-(U1-A15-Pad39)*%
X227203000Y-105918000D03*
%TO.P,U1,40,A16*%
%TO.N,unconnected-(U1-A16-Pad40)*%
X227203000Y-108458000D03*
%TO.P,U1,41,A17*%
%TO.N,unconnected-(U1-A17-Pad41)*%
X227203000Y-110998000D03*
%TO.P,U1,GND1,GND*%
%TO.N,GND*%
X242443000Y-149098000D03*
%TO.P,U1,GND2,GND*%
X227203000Y-113538000D03*
%TO.P,U1,GND3,GND*%
X227203000Y-146558000D03*
D16*
%TO.P,U1,GND5,GND*%
X231653000Y-134128000D03*
%TO.P,U1,LED,LED*%
%TO.N,LED*%
X231653000Y-136128000D03*
%TO.P,U1,R+,R+*%
%TO.N,R+*%
X229653000Y-136128000D03*
%TO.P,U1,R-,R-*%
%TO.N,R-*%
X229653000Y-134128000D03*
%TO.P,U1,T+,T+*%
%TO.N,T+*%
X233653000Y-134128000D03*
%TO.P,U1,T-,T-*%
%TO.N,T-*%
X233653000Y-136128000D03*
D15*
%TO.P,U1,VIN,VIN*%
%TO.N,+5V*%
X227203000Y-149098000D03*
%TD*%
D10*
%TO.P,Conn6,1*%
%TO.N,Net-(Q3-D)*%
X195260350Y-75869800D03*
%TO.P,Conn6,2*%
%TO.N,+5V*%
X195260350Y-78409800D03*
%TD*%
D17*
%TO.P,Conn1,1,GND*%
%TO.N,GND*%
X208657550Y-116459000D03*
%TO.P,Conn1,4,PV+*%
%TO.N,+12V*%
X208657550Y-124333000D03*
%TD*%
D18*
%TO.N,GND*%
X231140000Y-108585000D03*
X208280000Y-83820000D03*
X235585000Y-106045000D03*
X252095000Y-96520000D03*
X238125000Y-149225000D03*
X213360000Y-121920000D03*
X235585000Y-90805000D03*
X234315000Y-66040000D03*
X233680000Y-123825000D03*
X219710000Y-121920000D03*
X213360000Y-98552000D03*
X218440000Y-71120000D03*
X231140000Y-111125000D03*
X234315000Y-71120000D03*
X238125000Y-121285000D03*
X235585000Y-144145000D03*
X238125000Y-131318000D03*
X235585000Y-118745000D03*
X238125000Y-95885000D03*
X233680000Y-100965000D03*
X208280000Y-111760000D03*
X203200000Y-66040000D03*
X231140000Y-113665000D03*
X239395000Y-66040000D03*
X235585000Y-141605000D03*
X233680000Y-113665000D03*
X252095000Y-121920000D03*
X252095000Y-81280000D03*
X200025000Y-71120000D03*
X235585000Y-121285000D03*
X219710000Y-127000000D03*
X231140000Y-116205000D03*
X247015000Y-130048000D03*
X238125000Y-144145000D03*
X235585000Y-113665000D03*
X208280000Y-71120000D03*
X233680000Y-111125000D03*
X203200000Y-101600000D03*
X233680000Y-98425000D03*
X234315000Y-76200000D03*
X235585000Y-116205000D03*
X238125000Y-126365000D03*
X231140000Y-106045000D03*
X238125000Y-139065000D03*
X238125000Y-123825000D03*
X200025000Y-66040000D03*
X238125000Y-118745000D03*
X203200000Y-91440000D03*
X233680000Y-90805000D03*
X233680000Y-128905000D03*
X235585000Y-95885000D03*
X223520000Y-71120000D03*
X208280000Y-66040000D03*
X247015000Y-114808000D03*
X231140000Y-128905000D03*
X247015000Y-132588000D03*
X200660000Y-146050000D03*
X238125000Y-103505000D03*
X231140000Y-139065000D03*
X235585000Y-149225000D03*
X238125000Y-90805000D03*
X235585000Y-103505000D03*
X231140000Y-146685000D03*
X218440000Y-91440000D03*
X233680000Y-126365000D03*
X238125000Y-108585000D03*
X219710000Y-111760000D03*
X238125000Y-141605000D03*
X219710000Y-151765000D03*
X213360000Y-66040000D03*
X208280000Y-91440000D03*
X235585000Y-128905000D03*
X252095000Y-86360000D03*
X238125000Y-98425000D03*
X238125000Y-113665000D03*
X231140000Y-144145000D03*
X231140000Y-100965000D03*
X231140000Y-126365000D03*
X219710000Y-146050000D03*
X231140000Y-93345000D03*
X247015000Y-112268000D03*
X235585000Y-146685000D03*
X235585000Y-98425000D03*
X219710000Y-139700000D03*
X231140000Y-118745000D03*
X231140000Y-103505000D03*
X247015000Y-76200000D03*
X233680000Y-106045000D03*
X231140000Y-90805000D03*
X231140000Y-149225000D03*
X233680000Y-116205000D03*
X240030000Y-133985000D03*
X200660000Y-88900000D03*
X233680000Y-95885000D03*
X235585000Y-108585000D03*
X252095000Y-144780000D03*
X247015000Y-96520000D03*
X238125000Y-146685000D03*
X200660000Y-151765000D03*
X252095000Y-76200000D03*
X247015000Y-73025000D03*
X231140000Y-98425000D03*
X235585000Y-100965000D03*
X223520000Y-66040000D03*
X247015000Y-81280000D03*
X233680000Y-121285000D03*
X213360000Y-83820000D03*
X247015000Y-144780000D03*
X231140000Y-95885000D03*
X238125000Y-116205000D03*
X231140000Y-121285000D03*
X235585000Y-123825000D03*
X231140000Y-123825000D03*
X233680000Y-93345000D03*
X238125000Y-111125000D03*
X233680000Y-118745000D03*
X213360000Y-71120000D03*
X247015000Y-121920000D03*
X252095000Y-73025000D03*
X213360000Y-127000000D03*
X247015000Y-107696000D03*
X235585000Y-139065000D03*
X233680000Y-108585000D03*
X238125000Y-93345000D03*
X238125000Y-106045000D03*
X213360000Y-116840000D03*
X229235000Y-66040000D03*
X219710000Y-133350000D03*
X203200000Y-71120000D03*
X193548000Y-90424000D03*
X238125000Y-100965000D03*
X218440000Y-83820000D03*
X247015000Y-137668000D03*
X218440000Y-66040000D03*
X213360000Y-101600000D03*
X213360000Y-111760000D03*
X219710000Y-116840000D03*
X247015000Y-86360000D03*
X219710000Y-101600000D03*
X233680000Y-103505000D03*
X208280000Y-101600000D03*
X247015000Y-91440000D03*
X203200000Y-83820000D03*
X235585000Y-111125000D03*
X235585000Y-93345000D03*
X235585000Y-126365000D03*
X252095000Y-91440000D03*
%TO.N,+5V*%
X192278000Y-131353000D03*
X203962000Y-135128000D03*
%TO.N,CLD_CLK_3.3V*%
X212129050Y-94777000D03*
%TO.N,+3.3V*%
X224648700Y-99568000D03*
%TO.N,CCD_ROG_3.3V*%
X212129050Y-88681000D03*
%TO.N,FAN_OUT*%
X224648700Y-127127000D03*
%TO.N,GPIO*%
X229743000Y-124714000D03*
%TO.N,SCL*%
X228219000Y-129540000D03*
%TO.N,SDA*%
X228981000Y-127508000D03*
%TD*%
D19*
%TO.N,Net-(C1-Pad1)*%
X234315000Y-80772000D02*
X236855000Y-83312000D01*
X236855000Y-83312000D02*
X238125000Y-83312000D01*
%TO.N,+5V*%
X213700750Y-146263750D02*
X216535000Y-149098000D01*
X213700750Y-135940800D02*
X213700750Y-146263750D01*
X216535000Y-149098000D02*
X227203000Y-149098000D01*
X203962000Y-135128000D02*
X204470000Y-134620000D01*
X192278000Y-131353000D02*
X192278000Y-132329950D01*
X212195650Y-134620000D02*
X213551450Y-135975800D01*
X192278000Y-132329950D02*
X194568050Y-134620000D01*
X204470000Y-134620000D02*
X212195650Y-134620000D01*
X194568050Y-134620000D02*
X204470000Y-134620000D01*
%TO.N,CLD_CLK_3.3V*%
X242849344Y-94777000D02*
X243424000Y-95351656D01*
X212129050Y-94777000D02*
X242849344Y-94777000D01*
X243424000Y-107477000D02*
X242443000Y-108458000D01*
X243424000Y-95351656D02*
X243424000Y-107477000D01*
%TO.N,CS*%
X248678700Y-135128000D02*
X249913700Y-133893000D01*
X228288700Y-135128000D02*
X248678700Y-135128000D01*
X227053700Y-133893000D02*
X228288700Y-135128000D01*
%TO.N,CCD_Vout*%
X240228372Y-97063000D02*
X202985050Y-97063000D01*
X240228372Y-97063000D02*
X241312700Y-98147328D01*
X241312700Y-98147328D02*
X241312700Y-104972000D01*
X195111050Y-89189000D02*
X202985050Y-97063000D01*
X241312700Y-104972000D02*
X242293700Y-105953000D01*
%TO.N,+3.3V*%
X240858700Y-112138000D02*
X242293700Y-113573000D01*
X244729000Y-111137700D02*
X244729000Y-105156000D01*
X242293700Y-113573000D02*
X244729000Y-111137700D01*
X240226700Y-99568000D02*
X240858700Y-100200000D01*
X244729000Y-105156000D02*
X245999000Y-103886000D01*
X224648700Y-99568000D02*
X240226700Y-99568000D01*
X240858700Y-100200000D02*
X240858700Y-112138000D01*
X245999000Y-103886000D02*
X250037600Y-103886000D01*
%TO.N,CCD_ROG_3.3V*%
X241970000Y-88681000D02*
X212129050Y-88681000D01*
X244221000Y-90932000D02*
X241970000Y-88681000D01*
X244221000Y-109220000D02*
X244221000Y-90932000D01*
X242443000Y-110998000D02*
X244221000Y-109220000D01*
%TO.N,FAN_OUT*%
X227203000Y-130302000D02*
X235839000Y-130302000D01*
X224648700Y-127127000D02*
X224648700Y-127747700D01*
X224648700Y-127747700D02*
X227203000Y-130302000D01*
X235839000Y-130302000D02*
X242443000Y-123698000D01*
%TO.N,GPIO*%
X229743000Y-118110000D02*
X230759000Y-117094000D01*
X230759000Y-117094000D02*
X246253000Y-117094000D01*
X249266000Y-114081000D02*
X249888300Y-114081000D01*
X229743000Y-124714000D02*
X229743000Y-118110000D01*
X246253000Y-117094000D02*
X249266000Y-114081000D01*
%TO.N,SCL*%
X248758000Y-109001000D02*
X249888300Y-109001000D01*
X230251000Y-114554000D02*
X243205000Y-114554000D01*
X228219000Y-116586000D02*
X230251000Y-114554000D01*
X228219000Y-129540000D02*
X228219000Y-116586000D01*
X243205000Y-114554000D02*
X248758000Y-109001000D01*
%TO.N,SDA*%
X249012000Y-111541000D02*
X249888300Y-111541000D01*
X230813000Y-115008000D02*
X245545000Y-115008000D01*
X228981000Y-116840000D02*
X230813000Y-115008000D01*
X245545000Y-115008000D02*
X249012000Y-111541000D01*
X228981000Y-127508000D02*
X228981000Y-116840000D01*
%TD*%
%TA.AperFunction,Conductor*%
%TO.N,GND*%
G36*
X241222092Y-125908839D02*
G01*
X241278025Y-125950711D01*
X241302442Y-126016175D01*
X241302229Y-126036462D01*
X241283554Y-126237999D01*
X241283554Y-126238000D01*
X241303295Y-126451047D01*
X241303296Y-126451050D01*
X241361846Y-126656835D01*
X241361849Y-126656840D01*
X241457219Y-126848370D01*
X241586159Y-127019114D01*
X241744278Y-127163258D01*
X241744283Y-127163261D01*
X241744286Y-127163263D01*
X241926186Y-127275891D01*
X241926187Y-127275891D01*
X241926190Y-127275893D01*
X242125703Y-127353185D01*
X242301845Y-127386111D01*
X242364125Y-127417779D01*
X242399398Y-127478092D01*
X242396464Y-127547900D01*
X242356255Y-127605040D01*
X242301845Y-127629888D01*
X242125703Y-127662815D01*
X242054501Y-127690399D01*
X241926192Y-127740106D01*
X241926186Y-127740108D01*
X241744286Y-127852736D01*
X241744283Y-127852738D01*
X241744279Y-127852740D01*
X241744278Y-127852742D01*
X241587778Y-127995410D01*
X241586158Y-127996887D01*
X241457219Y-128167629D01*
X241361849Y-128359158D01*
X241361846Y-128359164D01*
X241303296Y-128564949D01*
X241303295Y-128564952D01*
X241283554Y-128777999D01*
X241283554Y-128778000D01*
X241303295Y-128991047D01*
X241303296Y-128991050D01*
X241361846Y-129196835D01*
X241361849Y-129196841D01*
X241369124Y-129211451D01*
X241457219Y-129388370D01*
X241586159Y-129559114D01*
X241744278Y-129703258D01*
X241744283Y-129703261D01*
X241744286Y-129703263D01*
X241926186Y-129815891D01*
X241926187Y-129815891D01*
X241926190Y-129815893D01*
X242125703Y-129893185D01*
X242301845Y-129926111D01*
X242364125Y-129957779D01*
X242399398Y-130018092D01*
X242396464Y-130087900D01*
X242356255Y-130145040D01*
X242301845Y-130169888D01*
X242125703Y-130202815D01*
X242080141Y-130220466D01*
X241926192Y-130280106D01*
X241926186Y-130280108D01*
X241744286Y-130392736D01*
X241744283Y-130392738D01*
X241744279Y-130392740D01*
X241744278Y-130392742D01*
X241597066Y-130526943D01*
X241586158Y-130536887D01*
X241457219Y-130707629D01*
X241361849Y-130899158D01*
X241361846Y-130899164D01*
X241303296Y-131104949D01*
X241303295Y-131104952D01*
X241283554Y-131317999D01*
X241283554Y-131318000D01*
X241303295Y-131531047D01*
X241303296Y-131531050D01*
X241361846Y-131736835D01*
X241361849Y-131736841D01*
X241420816Y-131855262D01*
X241457219Y-131928370D01*
X241586159Y-132099114D01*
X241744278Y-132243258D01*
X241744283Y-132243261D01*
X241744286Y-132243263D01*
X241926186Y-132355891D01*
X241926187Y-132355891D01*
X241926190Y-132355893D01*
X242125703Y-132433185D01*
X242301845Y-132466111D01*
X242364125Y-132497779D01*
X242399398Y-132558092D01*
X242396464Y-132627900D01*
X242356255Y-132685040D01*
X242301845Y-132709888D01*
X242125703Y-132742815D01*
X242080141Y-132760466D01*
X241926192Y-132820106D01*
X241926186Y-132820108D01*
X241744286Y-132932736D01*
X241744283Y-132932738D01*
X241744279Y-132932740D01*
X241744278Y-132932742D01*
X241603462Y-133061112D01*
X241586158Y-133076887D01*
X241457219Y-133247629D01*
X241361849Y-133439158D01*
X241361846Y-133439164D01*
X241303296Y-133644949D01*
X241303295Y-133644952D01*
X241283554Y-133857999D01*
X241283554Y-133858000D01*
X241303295Y-134071047D01*
X241303296Y-134071050D01*
X241361846Y-134276835D01*
X241361849Y-134276841D01*
X241383951Y-134321228D01*
X241396212Y-134390014D01*
X241369339Y-134454509D01*
X241311863Y-134494236D01*
X241272951Y-134500500D01*
X234859554Y-134500500D01*
X234792515Y-134480815D01*
X234746760Y-134428011D01*
X234736816Y-134358853D01*
X234740284Y-134342577D01*
X234743345Y-134331821D01*
X234762232Y-134128000D01*
X234760854Y-134113134D01*
X234757605Y-134078065D01*
X234743345Y-133924179D01*
X234687328Y-133727299D01*
X234596088Y-133544065D01*
X234472732Y-133380715D01*
X234472730Y-133380712D01*
X234321462Y-133242814D01*
X234321460Y-133242812D01*
X234147430Y-133135057D01*
X234147424Y-133135054D01*
X233996993Y-133076777D01*
X233956556Y-133061112D01*
X233755347Y-133023500D01*
X233550653Y-133023500D01*
X233349444Y-133061112D01*
X233349441Y-133061112D01*
X233349441Y-133061113D01*
X233158575Y-133135054D01*
X233158569Y-133135057D01*
X232984539Y-133242812D01*
X232984537Y-133242814D01*
X232833269Y-133380712D01*
X232709912Y-133544064D01*
X232618673Y-133727295D01*
X232618672Y-133727299D01*
X232581485Y-133858000D01*
X232562654Y-133924183D01*
X232543768Y-134127999D01*
X232543768Y-134128000D01*
X232562654Y-134331816D01*
X232562654Y-134331818D01*
X232562655Y-134331821D01*
X232565712Y-134342568D01*
X232565125Y-134412434D01*
X232526858Y-134470892D01*
X232463061Y-134499382D01*
X232446446Y-134500500D01*
X230859554Y-134500500D01*
X230792515Y-134480815D01*
X230746760Y-134428011D01*
X230736816Y-134358853D01*
X230740284Y-134342577D01*
X230743345Y-134331821D01*
X230762232Y-134128000D01*
X230760854Y-134113134D01*
X230757605Y-134078065D01*
X230743345Y-133924179D01*
X230687328Y-133727299D01*
X230596088Y-133544065D01*
X230472732Y-133380715D01*
X230472730Y-133380712D01*
X230321462Y-133242814D01*
X230321460Y-133242812D01*
X230147430Y-133135057D01*
X230147424Y-133135054D01*
X229996993Y-133076777D01*
X229956556Y-133061112D01*
X229755347Y-133023500D01*
X229550653Y-133023500D01*
X229349444Y-133061112D01*
X229349441Y-133061112D01*
X229349441Y-133061113D01*
X229158575Y-133135054D01*
X229158569Y-133135057D01*
X228984539Y-133242812D01*
X228984537Y-133242814D01*
X228833269Y-133380712D01*
X228709912Y-133544064D01*
X228618672Y-133727297D01*
X228618670Y-133727301D01*
X228597788Y-133800695D01*
X228560509Y-133859788D01*
X228497199Y-133889345D01*
X228427959Y-133879983D01*
X228374773Y-133834673D01*
X228355051Y-133778201D01*
X228350334Y-133727299D01*
X228342704Y-133644952D01*
X228313999Y-133544064D01*
X228284153Y-133439164D01*
X228284150Y-133439158D01*
X228255049Y-133380715D01*
X228188781Y-133247630D01*
X228059841Y-133076886D01*
X227901722Y-132932742D01*
X227901716Y-132932738D01*
X227901713Y-132932736D01*
X227719813Y-132820108D01*
X227719807Y-132820106D01*
X227520297Y-132742815D01*
X227344153Y-132709888D01*
X227281874Y-132678221D01*
X227246601Y-132617908D01*
X227249535Y-132548100D01*
X227289744Y-132490960D01*
X227344152Y-132466112D01*
X227520297Y-132433185D01*
X227719810Y-132355893D01*
X227901722Y-132243258D01*
X228059841Y-132099114D01*
X228188781Y-131928370D01*
X228284151Y-131736840D01*
X228284151Y-131736837D01*
X228284153Y-131736835D01*
X228340706Y-131538070D01*
X228342704Y-131531048D01*
X228362446Y-131318000D01*
X228342704Y-131104952D01*
X228337720Y-131087435D01*
X228338306Y-131017568D01*
X228376573Y-130959109D01*
X228440370Y-130930618D01*
X228456986Y-130929500D01*
X235900804Y-130929500D01*
X235900805Y-130929499D01*
X236022035Y-130905386D01*
X236102784Y-130871937D01*
X236136233Y-130858083D01*
X236239008Y-130789411D01*
X236326411Y-130702008D01*
X241091079Y-125937338D01*
X241152400Y-125903855D01*
X241222092Y-125908839D01*
G37*
%TD.AperFunction*%
%TA.AperFunction,Conductor*%
G36*
X241491308Y-117741185D02*
G01*
X241537063Y-117793989D01*
X241547007Y-117863147D01*
X241523223Y-117920227D01*
X241457219Y-118007629D01*
X241361849Y-118199158D01*
X241361846Y-118199164D01*
X241303296Y-118404949D01*
X241303295Y-118404952D01*
X241283554Y-118617999D01*
X241283554Y-118618000D01*
X241303295Y-118831047D01*
X241303296Y-118831050D01*
X241361846Y-119036835D01*
X241361849Y-119036840D01*
X241457219Y-119228370D01*
X241586159Y-119399114D01*
X241744278Y-119543258D01*
X241744283Y-119543261D01*
X241744286Y-119543263D01*
X241926186Y-119655891D01*
X241926187Y-119655891D01*
X241926190Y-119655893D01*
X242125703Y-119733185D01*
X242301845Y-119766111D01*
X242364125Y-119797779D01*
X242399398Y-119858092D01*
X242396464Y-119927900D01*
X242356255Y-119985040D01*
X242301845Y-120009888D01*
X242125703Y-120042815D01*
X242054501Y-120070399D01*
X241926192Y-120120106D01*
X241926186Y-120120108D01*
X241744286Y-120232736D01*
X241744283Y-120232738D01*
X241744279Y-120232740D01*
X241744278Y-120232742D01*
X241586159Y-120376886D01*
X241586158Y-120376887D01*
X241457219Y-120547629D01*
X241361849Y-120739158D01*
X241361846Y-120739164D01*
X241303296Y-120944949D01*
X241303295Y-120944952D01*
X241283554Y-121157999D01*
X241283554Y-121158000D01*
X241303295Y-121371047D01*
X241303296Y-121371050D01*
X241361846Y-121576835D01*
X241361849Y-121576841D01*
X241381386Y-121616076D01*
X241457219Y-121768370D01*
X241586159Y-121939114D01*
X241744278Y-122083258D01*
X241744283Y-122083261D01*
X241744286Y-122083263D01*
X241926186Y-122195891D01*
X241926187Y-122195891D01*
X241926190Y-122195893D01*
X242125703Y-122273185D01*
X242301845Y-122306111D01*
X242364125Y-122337779D01*
X242399398Y-122398092D01*
X242396464Y-122467900D01*
X242356255Y-122525040D01*
X242301845Y-122549888D01*
X242125703Y-122582815D01*
X242054501Y-122610399D01*
X241926192Y-122660106D01*
X241926186Y-122660108D01*
X241744286Y-122772736D01*
X241744283Y-122772738D01*
X241744279Y-122772740D01*
X241744278Y-122772742D01*
X241613585Y-122891884D01*
X241586158Y-122916887D01*
X241457219Y-123087629D01*
X241361849Y-123279158D01*
X241361846Y-123279164D01*
X241303296Y-123484949D01*
X241303295Y-123484952D01*
X241283554Y-123697999D01*
X241283554Y-123698000D01*
X241301252Y-123888995D01*
X241287837Y-123957565D01*
X241265462Y-123988117D01*
X235615400Y-129638181D01*
X235554077Y-129671666D01*
X235527719Y-129674500D01*
X229148166Y-129674500D01*
X229081127Y-129654815D01*
X229035372Y-129602011D01*
X229026599Y-129546963D01*
X229024565Y-129546963D01*
X229024565Y-129539996D01*
X229004369Y-129360750D01*
X229004368Y-129360745D01*
X228952127Y-129211450D01*
X228944789Y-129190478D01*
X228865505Y-129064299D01*
X228846500Y-128998328D01*
X228846500Y-128437166D01*
X228866185Y-128370127D01*
X228918989Y-128324372D01*
X228974036Y-128315600D01*
X228974036Y-128313565D01*
X228981003Y-128313565D01*
X229160249Y-128293369D01*
X229160252Y-128293368D01*
X229160255Y-128293368D01*
X229330522Y-128233789D01*
X229483262Y-128137816D01*
X229610816Y-128010262D01*
X229706789Y-127857522D01*
X229766368Y-127687255D01*
X229769122Y-127662815D01*
X229786565Y-127508003D01*
X229786565Y-127507996D01*
X229766369Y-127328750D01*
X229766368Y-127328745D01*
X229758496Y-127306249D01*
X229706789Y-127158478D01*
X229627505Y-127032299D01*
X229608500Y-126966328D01*
X229608500Y-125643166D01*
X229628185Y-125576127D01*
X229680989Y-125530372D01*
X229736036Y-125521600D01*
X229736036Y-125519565D01*
X229743003Y-125519565D01*
X229922249Y-125499369D01*
X229922252Y-125499368D01*
X229922255Y-125499368D01*
X230092522Y-125439789D01*
X230245262Y-125343816D01*
X230372816Y-125216262D01*
X230468789Y-125063522D01*
X230528368Y-124893255D01*
X230540498Y-124785600D01*
X230548565Y-124714003D01*
X230548565Y-124713996D01*
X230528369Y-124534750D01*
X230528368Y-124534745D01*
X230468788Y-124364476D01*
X230389506Y-124238300D01*
X230370500Y-124172328D01*
X230370500Y-118421281D01*
X230390185Y-118354242D01*
X230406819Y-118333600D01*
X230982600Y-117757819D01*
X231043923Y-117724334D01*
X231070281Y-117721500D01*
X241424269Y-117721500D01*
X241491308Y-117741185D01*
G37*
%TD.AperFunction*%
%TA.AperFunction,Conductor*%
G36*
X241271417Y-115655185D02*
G01*
X241317172Y-115707989D01*
X241327116Y-115777147D01*
X241323645Y-115793434D01*
X241303295Y-115864956D01*
X241283554Y-116077999D01*
X241283554Y-116078000D01*
X241303296Y-116291048D01*
X241308280Y-116308565D01*
X241307694Y-116378432D01*
X241269427Y-116436891D01*
X241205630Y-116465382D01*
X241189014Y-116466500D01*
X230697192Y-116466500D01*
X230575972Y-116490612D01*
X230575964Y-116490614D01*
X230540482Y-116505311D01*
X230471012Y-116512778D01*
X230408533Y-116481502D01*
X230372882Y-116421413D01*
X230375377Y-116351588D01*
X230405348Y-116303070D01*
X231036600Y-115671819D01*
X231097923Y-115638334D01*
X231124281Y-115635500D01*
X241204378Y-115635500D01*
X241271417Y-115655185D01*
G37*
%TD.AperFunction*%
%TA.AperFunction,Conductor*%
G36*
X249136620Y-112406312D02*
G01*
X249180967Y-112434813D01*
X249222978Y-112476824D01*
X249222984Y-112476829D01*
X249403933Y-112603531D01*
X249403935Y-112603532D01*
X249403938Y-112603534D01*
X249523348Y-112659215D01*
X249532789Y-112663618D01*
X249585228Y-112709790D01*
X249604380Y-112776984D01*
X249584164Y-112843865D01*
X249532789Y-112888382D01*
X249403940Y-112948465D01*
X249403938Y-112948466D01*
X249222977Y-113075175D01*
X249066775Y-113231377D01*
X248940066Y-113412338D01*
X248940065Y-113412340D01*
X248855662Y-113593342D01*
X248830961Y-113628618D01*
X246029400Y-116430181D01*
X245968077Y-116463666D01*
X245941719Y-116466500D01*
X243696986Y-116466500D01*
X243629947Y-116446815D01*
X243584192Y-116394011D01*
X243574248Y-116324853D01*
X243577720Y-116308565D01*
X243579284Y-116303068D01*
X243582704Y-116291048D01*
X243602446Y-116078000D01*
X243582704Y-115864952D01*
X243562355Y-115793432D01*
X243562943Y-115723566D01*
X243601210Y-115665108D01*
X243665007Y-115636618D01*
X243681622Y-115635500D01*
X245606804Y-115635500D01*
X245606805Y-115635499D01*
X245728035Y-115611386D01*
X245808784Y-115577937D01*
X245842233Y-115564083D01*
X245945008Y-115495411D01*
X246032411Y-115408008D01*
X249005605Y-112434812D01*
X249066928Y-112401328D01*
X249136620Y-112406312D01*
G37*
%TD.AperFunction*%
%TA.AperFunction,Conductor*%
G36*
X249010525Y-109738406D02*
G01*
X249062391Y-109777233D01*
X249063295Y-109776475D01*
X249066767Y-109780613D01*
X249066773Y-109780619D01*
X249066774Y-109780620D01*
X249222980Y-109936826D01*
X249222983Y-109936828D01*
X249222984Y-109936829D01*
X249403933Y-110063531D01*
X249403935Y-110063532D01*
X249403938Y-110063534D01*
X249475329Y-110096824D01*
X249532789Y-110123618D01*
X249585228Y-110169790D01*
X249604380Y-110236984D01*
X249584164Y-110303865D01*
X249532789Y-110348382D01*
X249403940Y-110408465D01*
X249403938Y-110408466D01*
X249222977Y-110535175D01*
X249066775Y-110691377D01*
X248940062Y-110872343D01*
X248939986Y-110872476D01*
X248939937Y-110872522D01*
X248936961Y-110876773D01*
X248936106Y-110876174D01*
X248889412Y-110920684D01*
X248856802Y-110932077D01*
X248828967Y-110937614D01*
X248828962Y-110937615D01*
X248714773Y-110984913D01*
X248714760Y-110984920D01*
X248611992Y-111053588D01*
X248611988Y-111053591D01*
X245321400Y-114344181D01*
X245260077Y-114377666D01*
X245233719Y-114380500D01*
X244565281Y-114380500D01*
X244498242Y-114360815D01*
X244452487Y-114308011D01*
X244442543Y-114238853D01*
X244471568Y-114175297D01*
X244477600Y-114168819D01*
X245571249Y-113075170D01*
X248879512Y-109766905D01*
X248940833Y-109733422D01*
X249010525Y-109738406D01*
G37*
%TD.AperFunction*%
%TA.AperFunction,Conductor*%
G36*
X239984130Y-97710185D02*
G01*
X240004772Y-97726819D01*
X240648881Y-98370928D01*
X240682366Y-98432251D01*
X240685200Y-98458609D01*
X240685200Y-98893137D01*
X240665515Y-98960176D01*
X240612711Y-99005931D01*
X240543553Y-99015875D01*
X240513747Y-99007698D01*
X240489040Y-98997464D01*
X240489038Y-98997463D01*
X240409735Y-98964614D01*
X240409727Y-98964612D01*
X240288507Y-98940500D01*
X240288503Y-98940500D01*
X228373049Y-98940500D01*
X228306010Y-98920815D01*
X228260255Y-98868011D01*
X228250311Y-98798853D01*
X228262049Y-98761228D01*
X228272578Y-98740080D01*
X228284151Y-98716840D01*
X228284151Y-98716837D01*
X228284153Y-98716835D01*
X228342703Y-98511050D01*
X228342704Y-98511047D01*
X228362446Y-98298000D01*
X228362446Y-98297999D01*
X228342704Y-98084952D01*
X228342703Y-98084949D01*
X228284153Y-97879164D01*
X228284152Y-97879162D01*
X228279476Y-97869771D01*
X228267216Y-97800985D01*
X228294089Y-97736491D01*
X228351566Y-97696763D01*
X228390477Y-97690500D01*
X239917091Y-97690500D01*
X239984130Y-97710185D01*
G37*
%TD.AperFunction*%
%TA.AperFunction,Conductor*%
G36*
X241247328Y-95424185D02*
G01*
X241293083Y-95476989D01*
X241303760Y-95539941D01*
X241283554Y-95757999D01*
X241283554Y-95758000D01*
X241303295Y-95971047D01*
X241303296Y-95971050D01*
X241361846Y-96176835D01*
X241361849Y-96176840D01*
X241457219Y-96368370D01*
X241586159Y-96539114D01*
X241744278Y-96683258D01*
X241744283Y-96683261D01*
X241744286Y-96683263D01*
X241926186Y-96795891D01*
X241926187Y-96795891D01*
X241926190Y-96795893D01*
X242125703Y-96873185D01*
X242301845Y-96906111D01*
X242364125Y-96937779D01*
X242399398Y-96998092D01*
X242396464Y-97067900D01*
X242356255Y-97125040D01*
X242301845Y-97149888D01*
X242125703Y-97182815D01*
X241999533Y-97231693D01*
X241926192Y-97260106D01*
X241926186Y-97260108D01*
X241744286Y-97372736D01*
X241744283Y-97372738D01*
X241744279Y-97372740D01*
X241744278Y-97372742D01*
X241665033Y-97444982D01*
X241602230Y-97475598D01*
X241532843Y-97467400D01*
X241493816Y-97441025D01*
X240628383Y-96575591D01*
X240628378Y-96575587D01*
X240573792Y-96539115D01*
X240573790Y-96539113D01*
X240525613Y-96506921D01*
X240525598Y-96506913D01*
X240492157Y-96493062D01*
X240411407Y-96459614D01*
X240411399Y-96459612D01*
X240290179Y-96435500D01*
X240290175Y-96435500D01*
X228355621Y-96435500D01*
X228288582Y-96415815D01*
X228242827Y-96363011D01*
X228232883Y-96293853D01*
X228244621Y-96256228D01*
X228258608Y-96228136D01*
X228284151Y-96176840D01*
X228284151Y-96176837D01*
X228284153Y-96176835D01*
X228342703Y-95971050D01*
X228342704Y-95971047D01*
X228362446Y-95758000D01*
X228362446Y-95757999D01*
X228342240Y-95539941D01*
X228355655Y-95471371D01*
X228404012Y-95420940D01*
X228465711Y-95404500D01*
X241180289Y-95404500D01*
X241247328Y-95424185D01*
G37*
%TD.AperFunction*%
%TA.AperFunction,Conductor*%
G36*
X241725758Y-89328185D02*
G01*
X241746400Y-89344819D01*
X241886825Y-89485244D01*
X241920310Y-89546567D01*
X241915326Y-89616259D01*
X241873454Y-89672192D01*
X241864422Y-89678352D01*
X241744282Y-89752739D01*
X241744280Y-89752740D01*
X241744278Y-89752742D01*
X241586159Y-89896886D01*
X241586158Y-89896887D01*
X241457219Y-90067629D01*
X241361849Y-90259158D01*
X241361846Y-90259164D01*
X241303296Y-90464949D01*
X241303295Y-90464952D01*
X241283554Y-90677999D01*
X241283554Y-90678000D01*
X241303295Y-90891047D01*
X241303296Y-90891050D01*
X241361846Y-91096835D01*
X241361849Y-91096841D01*
X241409192Y-91191919D01*
X241457219Y-91288370D01*
X241586159Y-91459114D01*
X241744278Y-91603258D01*
X241744283Y-91603261D01*
X241744286Y-91603263D01*
X241926186Y-91715891D01*
X241926187Y-91715891D01*
X241926190Y-91715893D01*
X242125703Y-91793185D01*
X242301845Y-91826111D01*
X242364125Y-91857779D01*
X242399398Y-91918092D01*
X242396464Y-91987900D01*
X242356255Y-92045040D01*
X242301845Y-92069888D01*
X242125703Y-92102815D01*
X241999533Y-92151693D01*
X241926192Y-92180106D01*
X241926186Y-92180108D01*
X241744286Y-92292736D01*
X241744283Y-92292738D01*
X241744279Y-92292740D01*
X241744278Y-92292742D01*
X241586159Y-92436886D01*
X241586158Y-92436887D01*
X241457219Y-92607629D01*
X241361849Y-92799158D01*
X241361846Y-92799164D01*
X241303296Y-93004949D01*
X241303295Y-93004952D01*
X241283554Y-93217999D01*
X241283554Y-93218000D01*
X241303295Y-93431047D01*
X241303296Y-93431050D01*
X241361846Y-93636835D01*
X241361849Y-93636841D01*
X241457219Y-93828370D01*
X241549654Y-93950773D01*
X241574346Y-94016134D01*
X241559781Y-94084469D01*
X241510584Y-94134081D01*
X241450700Y-94149500D01*
X228195300Y-94149500D01*
X228128261Y-94129815D01*
X228082506Y-94077011D01*
X228072562Y-94007853D01*
X228096346Y-93950773D01*
X228130546Y-93905485D01*
X228188781Y-93828370D01*
X228284151Y-93636840D01*
X228284151Y-93636837D01*
X228284153Y-93636835D01*
X228342703Y-93431050D01*
X228342704Y-93431047D01*
X228362446Y-93218000D01*
X228362446Y-93217999D01*
X228342704Y-93004952D01*
X228342703Y-93004949D01*
X228284153Y-92799164D01*
X228284150Y-92799158D01*
X228280352Y-92791531D01*
X228188781Y-92607630D01*
X228059841Y-92436886D01*
X227901722Y-92292742D01*
X227901716Y-92292738D01*
X227901713Y-92292736D01*
X227719813Y-92180108D01*
X227719807Y-92180106D01*
X227520297Y-92102815D01*
X227344153Y-92069888D01*
X227281874Y-92038221D01*
X227246601Y-91977908D01*
X227249535Y-91908100D01*
X227289744Y-91850960D01*
X227344152Y-91826112D01*
X227520297Y-91793185D01*
X227719810Y-91715893D01*
X227901722Y-91603258D01*
X228059841Y-91459114D01*
X228188781Y-91288370D01*
X228284151Y-91096840D01*
X228284151Y-91096837D01*
X228284153Y-91096835D01*
X228342703Y-90891050D01*
X228342704Y-90891047D01*
X228352992Y-90780029D01*
X228362446Y-90678000D01*
X228342704Y-90464952D01*
X228331332Y-90424984D01*
X228284153Y-90259164D01*
X228284150Y-90259158D01*
X228280352Y-90251531D01*
X228188781Y-90067630D01*
X228059841Y-89896886D01*
X227901722Y-89752742D01*
X227901716Y-89752738D01*
X227901713Y-89752736D01*
X227719813Y-89640108D01*
X227719807Y-89640106D01*
X227520297Y-89562815D01*
X227475217Y-89554388D01*
X227412938Y-89522721D01*
X227377665Y-89462408D01*
X227380599Y-89392600D01*
X227420808Y-89335460D01*
X227485526Y-89309129D01*
X227498004Y-89308500D01*
X241658719Y-89308500D01*
X241725758Y-89328185D01*
G37*
%TD.AperFunction*%
%TA.AperFunction,Conductor*%
G36*
X249887814Y-63893185D02*
G01*
X249933569Y-63945989D01*
X249943513Y-64015147D01*
X249914488Y-64078703D01*
X249879229Y-64106858D01*
X249795649Y-64151532D01*
X249795639Y-64151538D01*
X249471023Y-64368439D01*
X249471009Y-64368449D01*
X249169202Y-64616136D01*
X248893136Y-64892202D01*
X248645449Y-65194009D01*
X248645439Y-65194023D01*
X248428538Y-65518639D01*
X248428527Y-65518657D01*
X248244489Y-65862967D01*
X248244487Y-65862972D01*
X248095075Y-66223680D01*
X247981735Y-66597314D01*
X247981732Y-66597325D01*
X247905568Y-66980234D01*
X247876028Y-67280165D01*
X247868248Y-67359165D01*
X247867300Y-67368788D01*
X247867300Y-67759211D01*
X247905568Y-68147765D01*
X247981732Y-68530674D01*
X247981735Y-68530685D01*
X248095075Y-68904319D01*
X248244487Y-69265027D01*
X248244489Y-69265032D01*
X248428527Y-69609342D01*
X248428538Y-69609360D01*
X248645439Y-69933976D01*
X248645449Y-69933990D01*
X248893136Y-70235797D01*
X249169202Y-70511863D01*
X249169207Y-70511867D01*
X249169208Y-70511868D01*
X249471015Y-70759555D01*
X249795646Y-70976466D01*
X249795655Y-70976471D01*
X249795657Y-70976472D01*
X250139967Y-71160510D01*
X250139969Y-71160510D01*
X250139975Y-71160514D01*
X250359812Y-71251574D01*
X250500680Y-71309924D01*
X250500684Y-71309925D01*
X250500686Y-71309926D01*
X250874305Y-71423262D01*
X250874311Y-71423263D01*
X250874314Y-71423264D01*
X250874325Y-71423267D01*
X251257234Y-71499431D01*
X251645785Y-71537700D01*
X251645788Y-71537700D01*
X252036212Y-71537700D01*
X252036215Y-71537700D01*
X252424766Y-71499431D01*
X252499307Y-71484603D01*
X252807674Y-71423267D01*
X252807685Y-71423264D01*
X252807685Y-71423263D01*
X252807695Y-71423262D01*
X253181314Y-71309926D01*
X253542025Y-71160514D01*
X253886354Y-70976466D01*
X254210985Y-70759555D01*
X254512792Y-70511868D01*
X254788868Y-70235792D01*
X255036555Y-69933985D01*
X255253466Y-69609354D01*
X255298142Y-69525770D01*
X255347104Y-69475927D01*
X255415242Y-69460466D01*
X255480921Y-69484297D01*
X255523290Y-69539855D01*
X255531500Y-69584224D01*
X255531500Y-148093775D01*
X255511815Y-148160814D01*
X255459011Y-148206569D01*
X255389853Y-148216513D01*
X255326297Y-148187488D01*
X255298142Y-148152229D01*
X255290613Y-148138143D01*
X255253466Y-148068646D01*
X255036555Y-147744015D01*
X254788868Y-147442208D01*
X254788867Y-147442207D01*
X254788863Y-147442202D01*
X254512797Y-147166136D01*
X254210990Y-146918449D01*
X254210989Y-146918448D01*
X254210985Y-146918445D01*
X253886354Y-146701534D01*
X253886349Y-146701531D01*
X253886342Y-146701527D01*
X253542032Y-146517489D01*
X253542027Y-146517487D01*
X253181319Y-146368075D01*
X252807685Y-146254735D01*
X252807674Y-146254732D01*
X252424765Y-146178568D01*
X252132126Y-146149746D01*
X252036215Y-146140300D01*
X251645785Y-146140300D01*
X251557165Y-146149028D01*
X251257234Y-146178568D01*
X250874325Y-146254732D01*
X250874314Y-146254735D01*
X250500680Y-146368075D01*
X250139972Y-146517487D01*
X250139967Y-146517489D01*
X249795657Y-146701527D01*
X249795639Y-146701538D01*
X249471023Y-146918439D01*
X249471009Y-146918449D01*
X249169202Y-147166136D01*
X248893136Y-147442202D01*
X248645449Y-147744009D01*
X248645439Y-147744023D01*
X248428538Y-148068639D01*
X248428527Y-148068657D01*
X248244489Y-148412967D01*
X248244487Y-148412972D01*
X248095075Y-148773680D01*
X247981735Y-149147314D01*
X247981732Y-149147325D01*
X247905568Y-149530234D01*
X247888024Y-149708370D01*
X247867300Y-149918785D01*
X247867300Y-150309215D01*
X247878937Y-150427374D01*
X247905568Y-150697765D01*
X247981732Y-151080674D01*
X247981735Y-151080685D01*
X248095075Y-151454319D01*
X248244487Y-151815027D01*
X248244489Y-151815032D01*
X248428527Y-152159342D01*
X248428538Y-152159360D01*
X248645439Y-152483976D01*
X248645449Y-152483990D01*
X248893136Y-152785797D01*
X249169202Y-153061863D01*
X249169207Y-153061867D01*
X249169208Y-153061868D01*
X249471015Y-153309555D01*
X249795646Y-153526466D01*
X249879229Y-153571142D01*
X249929073Y-153620105D01*
X249944533Y-153688242D01*
X249920701Y-153753922D01*
X249865143Y-153796291D01*
X249820775Y-153804500D01*
X196711225Y-153804500D01*
X196644186Y-153784815D01*
X196598431Y-153732011D01*
X196588487Y-153662853D01*
X196617512Y-153599297D01*
X196652771Y-153571142D01*
X196736354Y-153526466D01*
X197060985Y-153309555D01*
X197362792Y-153061868D01*
X197638868Y-152785792D01*
X197886555Y-152483985D01*
X198103466Y-152159354D01*
X198287514Y-151815025D01*
X198436926Y-151454314D01*
X198550262Y-151080695D01*
X198550264Y-151080685D01*
X198550267Y-151080674D01*
X198611603Y-150772307D01*
X198626431Y-150697766D01*
X198664700Y-150309215D01*
X198664700Y-149918785D01*
X198626431Y-149530234D01*
X198582833Y-149311050D01*
X198550267Y-149147325D01*
X198550264Y-149147314D01*
X198550263Y-149147311D01*
X198550262Y-149147305D01*
X198436926Y-148773686D01*
X198287514Y-148412975D01*
X198236153Y-148316886D01*
X198103472Y-148068657D01*
X198103471Y-148068655D01*
X198103466Y-148068646D01*
X197886555Y-147744015D01*
X197638868Y-147442208D01*
X197638867Y-147442207D01*
X197638863Y-147442202D01*
X197362797Y-147166136D01*
X197060990Y-146918449D01*
X197060989Y-146918448D01*
X197060985Y-146918445D01*
X196736354Y-146701534D01*
X196736349Y-146701531D01*
X196736342Y-146701527D01*
X196392032Y-146517489D01*
X196392027Y-146517487D01*
X196031319Y-146368075D01*
X195657685Y-146254735D01*
X195657674Y-146254732D01*
X195274765Y-146178568D01*
X194982126Y-146149746D01*
X194886215Y-146140300D01*
X194495785Y-146140300D01*
X194407165Y-146149028D01*
X194107234Y-146178568D01*
X193724325Y-146254732D01*
X193724314Y-146254735D01*
X193350680Y-146368075D01*
X192989972Y-146517487D01*
X192989967Y-146517489D01*
X192645657Y-146701527D01*
X192645639Y-146701538D01*
X192321023Y-146918439D01*
X192321009Y-146918449D01*
X192019202Y-147166136D01*
X191743136Y-147442202D01*
X191495449Y-147744009D01*
X191495439Y-147744023D01*
X191278538Y-148068639D01*
X191278532Y-148068649D01*
X191233858Y-148152229D01*
X191184895Y-148202073D01*
X191116758Y-148217533D01*
X191051078Y-148193701D01*
X191008709Y-148138143D01*
X191000500Y-148093775D01*
X191000500Y-131352996D01*
X191472435Y-131352996D01*
X191472435Y-131353003D01*
X191492630Y-131532249D01*
X191492631Y-131532254D01*
X191552211Y-131702524D01*
X191631493Y-131828698D01*
X191650500Y-131894671D01*
X191650500Y-132391757D01*
X191674612Y-132512977D01*
X191674614Y-132512985D01*
X191696603Y-132566071D01*
X191721915Y-132627179D01*
X191721920Y-132627189D01*
X191790588Y-132729957D01*
X191790591Y-132729961D01*
X194080639Y-135020008D01*
X194158723Y-135098092D01*
X194168044Y-135107413D01*
X194168046Y-135107414D01*
X194270806Y-135176076D01*
X194270810Y-135176078D01*
X194270817Y-135176083D01*
X194316217Y-135194888D01*
X194385016Y-135223386D01*
X194506242Y-135247499D01*
X194506246Y-135247500D01*
X194506247Y-135247500D01*
X203067740Y-135247500D01*
X203134779Y-135267185D01*
X203180534Y-135319989D01*
X203184782Y-135330546D01*
X203236210Y-135477521D01*
X203302726Y-135583380D01*
X203332184Y-135630262D01*
X203459738Y-135757816D01*
X203470121Y-135764340D01*
X203571417Y-135827989D01*
X203612478Y-135853789D01*
X203736388Y-135897147D01*
X203782745Y-135913368D01*
X203782750Y-135913369D01*
X203961996Y-135933565D01*
X203962000Y-135933565D01*
X203962004Y-135933565D01*
X204141249Y-135913369D01*
X204141252Y-135913368D01*
X204141255Y-135913368D01*
X204311522Y-135853789D01*
X204464262Y-135757816D01*
X204591816Y-135630262D01*
X204687789Y-135477522D01*
X204739218Y-135330545D01*
X204779940Y-135273770D01*
X204844892Y-135248022D01*
X204856260Y-135247500D01*
X207356385Y-135247500D01*
X207423424Y-135267185D01*
X207469179Y-135319989D01*
X207479123Y-135389147D01*
X207468767Y-135423904D01*
X207429858Y-135507343D01*
X207429854Y-135507354D01*
X207372680Y-135720729D01*
X207372679Y-135720737D01*
X207353427Y-135940797D01*
X207353427Y-135940802D01*
X207372679Y-136160862D01*
X207372680Y-136160870D01*
X207429854Y-136374245D01*
X207429855Y-136374247D01*
X207429856Y-136374250D01*
X207501878Y-136528702D01*
X207523216Y-136574462D01*
X207523218Y-136574466D01*
X207649920Y-136755415D01*
X207649925Y-136755421D01*
X207806128Y-136911624D01*
X207806134Y-136911629D01*
X207987083Y-137038331D01*
X207987085Y-137038332D01*
X207987088Y-137038334D01*
X208187300Y-137131694D01*
X208400682Y-137188870D01*
X208557873Y-137202622D01*
X208620748Y-137208123D01*
X208620750Y-137208123D01*
X208620752Y-137208123D01*
X208675767Y-137203309D01*
X208840818Y-137188870D01*
X209054200Y-137131694D01*
X209254412Y-137038334D01*
X209435370Y-136911626D01*
X209591576Y-136755420D01*
X209718284Y-136574462D01*
X209811644Y-136374250D01*
X209868820Y-136160868D01*
X209888073Y-135940800D01*
X209868820Y-135720732D01*
X209811644Y-135507350D01*
X209797735Y-135477522D01*
X209772733Y-135423904D01*
X209762241Y-135354827D01*
X209790761Y-135291043D01*
X209849238Y-135252804D01*
X209885115Y-135247500D01*
X211884369Y-135247500D01*
X211951408Y-135267185D01*
X211972050Y-135283819D01*
X212408276Y-135720045D01*
X212441761Y-135781368D01*
X212444123Y-135818532D01*
X212433427Y-135940797D01*
X212433427Y-135940802D01*
X212452679Y-136160862D01*
X212452680Y-136160870D01*
X212509854Y-136374245D01*
X212509855Y-136374247D01*
X212509856Y-136374250D01*
X212581878Y-136528702D01*
X212603216Y-136574462D01*
X212603218Y-136574466D01*
X212729645Y-136755022D01*
X212729924Y-136755420D01*
X212886130Y-136911626D01*
X213020374Y-137005624D01*
X213063998Y-137060199D01*
X213073250Y-137107198D01*
X213073250Y-146325557D01*
X213097362Y-146446777D01*
X213097364Y-146446785D01*
X213126650Y-146517487D01*
X213144666Y-146560982D01*
X213201933Y-146646688D01*
X213213340Y-146663759D01*
X213213344Y-146663764D01*
X216047589Y-149498008D01*
X216134992Y-149585411D01*
X216134993Y-149585412D01*
X216237760Y-149654079D01*
X216237773Y-149654086D01*
X216281106Y-149672035D01*
X216281107Y-149672035D01*
X216351966Y-149701386D01*
X216473192Y-149725499D01*
X216473196Y-149725500D01*
X216473197Y-149725500D01*
X226168410Y-149725500D01*
X226235449Y-149745185D01*
X226267364Y-149774773D01*
X226346159Y-149879114D01*
X226504278Y-150023258D01*
X226504283Y-150023261D01*
X226504286Y-150023263D01*
X226686186Y-150135891D01*
X226686187Y-150135891D01*
X226686190Y-150135893D01*
X226885703Y-150213185D01*
X227096020Y-150252500D01*
X227096022Y-150252500D01*
X227309978Y-150252500D01*
X227309980Y-150252500D01*
X227520297Y-150213185D01*
X227719810Y-150135893D01*
X227901722Y-150023258D01*
X228059841Y-149879114D01*
X228188781Y-149708370D01*
X228284151Y-149516840D01*
X228284151Y-149516837D01*
X228284153Y-149516835D01*
X228342703Y-149311050D01*
X228342704Y-149311047D01*
X228362446Y-149098000D01*
X228362446Y-149097999D01*
X228342704Y-148884952D01*
X228342703Y-148884949D01*
X228284153Y-148679164D01*
X228284150Y-148679158D01*
X228264590Y-148639876D01*
X228188781Y-148487630D01*
X228059841Y-148316886D01*
X227901722Y-148172742D01*
X227901716Y-148172738D01*
X227901713Y-148172736D01*
X227719813Y-148060108D01*
X227719807Y-148060106D01*
X227520297Y-147982815D01*
X227309980Y-147943500D01*
X227096020Y-147943500D01*
X226885703Y-147982815D01*
X226759533Y-148031693D01*
X226686192Y-148060106D01*
X226686186Y-148060108D01*
X226504286Y-148172736D01*
X226504283Y-148172738D01*
X226504279Y-148172740D01*
X226504278Y-148172742D01*
X226346159Y-148316886D01*
X226346158Y-148316887D01*
X226267364Y-148421227D01*
X226211255Y-148462863D01*
X226168410Y-148470500D01*
X216846281Y-148470500D01*
X216779242Y-148450815D01*
X216758600Y-148434181D01*
X214364569Y-146040150D01*
X214331084Y-145978827D01*
X214328250Y-145952469D01*
X214328250Y-137107198D01*
X214347935Y-137040159D01*
X214381124Y-137005625D01*
X214515370Y-136911626D01*
X214671576Y-136755420D01*
X214798284Y-136574462D01*
X214891644Y-136374250D01*
X214948820Y-136160868D01*
X214968073Y-135940800D01*
X214948820Y-135720732D01*
X214891644Y-135507350D01*
X214798284Y-135307139D01*
X214706513Y-135176076D01*
X214671577Y-135126181D01*
X214594290Y-135048894D01*
X214515370Y-134969974D01*
X214515366Y-134969971D01*
X214515365Y-134969970D01*
X214334416Y-134843268D01*
X214334412Y-134843266D01*
X214134200Y-134749906D01*
X214134197Y-134749905D01*
X214134195Y-134749904D01*
X213920820Y-134692730D01*
X213920812Y-134692729D01*
X213700752Y-134673477D01*
X213700748Y-134673477D01*
X213480687Y-134692729D01*
X213480676Y-134692731D01*
X213293606Y-134742856D01*
X213223756Y-134741193D01*
X213173832Y-134710762D01*
X212595660Y-134132590D01*
X212514062Y-134078069D01*
X212514059Y-134078065D01*
X212492883Y-134063917D01*
X212492878Y-134063914D01*
X212459435Y-134050062D01*
X212378685Y-134016614D01*
X212378677Y-134016612D01*
X212257457Y-133992500D01*
X212257453Y-133992500D01*
X204531803Y-133992500D01*
X194879331Y-133992500D01*
X194812292Y-133972815D01*
X194791650Y-133956181D01*
X192941819Y-132106350D01*
X192908334Y-132045027D01*
X192905500Y-132018669D01*
X192905500Y-131894671D01*
X192924507Y-131828698D01*
X193003788Y-131702524D01*
X193063368Y-131532254D01*
X193063369Y-131532249D01*
X193083565Y-131353003D01*
X193083565Y-131352996D01*
X193063369Y-131173750D01*
X193063368Y-131173745D01*
X193039295Y-131104949D01*
X193003789Y-131003478D01*
X192907816Y-130850738D01*
X192780262Y-130723184D01*
X192755508Y-130707630D01*
X192627523Y-130627211D01*
X192457254Y-130567631D01*
X192457249Y-130567630D01*
X192278004Y-130547435D01*
X192277996Y-130547435D01*
X192098750Y-130567630D01*
X192098745Y-130567631D01*
X191928476Y-130627211D01*
X191775737Y-130723184D01*
X191648184Y-130850737D01*
X191552211Y-131003476D01*
X191492631Y-131173745D01*
X191492630Y-131173750D01*
X191472435Y-131352996D01*
X191000500Y-131352996D01*
X191000500Y-123151872D01*
X206657050Y-123151872D01*
X206657050Y-125514127D01*
X206683673Y-125716339D01*
X206691280Y-125774116D01*
X206756139Y-126016175D01*
X206759152Y-126027418D01*
X206759155Y-126027428D01*
X206859503Y-126269690D01*
X206859508Y-126269700D01*
X206990625Y-126496803D01*
X207150268Y-126704851D01*
X207150276Y-126704860D01*
X207335690Y-126890274D01*
X207335698Y-126890281D01*
X207543746Y-127049924D01*
X207770849Y-127181041D01*
X207770859Y-127181046D01*
X208013121Y-127281394D01*
X208013131Y-127281398D01*
X208266434Y-127349270D01*
X208526430Y-127383500D01*
X208526437Y-127383500D01*
X208788663Y-127383500D01*
X208788670Y-127383500D01*
X209048666Y-127349270D01*
X209301969Y-127281398D01*
X209544247Y-127181043D01*
X209771353Y-127049924D01*
X209979401Y-126890282D01*
X209979405Y-126890277D01*
X209979410Y-126890274D01*
X210164824Y-126704860D01*
X210164827Y-126704855D01*
X210164832Y-126704851D01*
X210324474Y-126496803D01*
X210455593Y-126269697D01*
X210555948Y-126027419D01*
X210623820Y-125774116D01*
X210658050Y-125514120D01*
X210658050Y-123151880D01*
X210623820Y-122891884D01*
X210555948Y-122638581D01*
X210508918Y-122525040D01*
X210455596Y-122396309D01*
X210455591Y-122396299D01*
X210324474Y-122169196D01*
X210164831Y-121961148D01*
X210164824Y-121961140D01*
X209979410Y-121775726D01*
X209979401Y-121775718D01*
X209771353Y-121616075D01*
X209544250Y-121484958D01*
X209544240Y-121484953D01*
X209301978Y-121384605D01*
X209301971Y-121384603D01*
X209301969Y-121384602D01*
X209048666Y-121316730D01*
X208990889Y-121309123D01*
X208788677Y-121282500D01*
X208788670Y-121282500D01*
X208526430Y-121282500D01*
X208526422Y-121282500D01*
X208295322Y-121312926D01*
X208266434Y-121316730D01*
X208063708Y-121371050D01*
X208013131Y-121384602D01*
X208013121Y-121384605D01*
X207770859Y-121484953D01*
X207770849Y-121484958D01*
X207543746Y-121616075D01*
X207335698Y-121775718D01*
X207150268Y-121961148D01*
X206990625Y-122169196D01*
X206859508Y-122396299D01*
X206859503Y-122396309D01*
X206759155Y-122638571D01*
X206759152Y-122638581D01*
X206723206Y-122772736D01*
X206691280Y-122891885D01*
X206657050Y-123151872D01*
X191000500Y-123151872D01*
X191000500Y-105143297D01*
X193988427Y-105143297D01*
X193988427Y-105143302D01*
X194007679Y-105363362D01*
X194007680Y-105363370D01*
X194064854Y-105576745D01*
X194064855Y-105576747D01*
X194064856Y-105576750D01*
X194158216Y-105776962D01*
X194158218Y-105776966D01*
X194284920Y-105957915D01*
X194284925Y-105957921D01*
X194441128Y-106114124D01*
X194441134Y-106114129D01*
X194622083Y-106240831D01*
X194622085Y-106240832D01*
X194622088Y-106240834D01*
X194741498Y-106296515D01*
X194750939Y-106300918D01*
X194803378Y-106347090D01*
X194822530Y-106414284D01*
X194802314Y-106481165D01*
X194750939Y-106525682D01*
X194622090Y-106585765D01*
X194622088Y-106585766D01*
X194441127Y-106712475D01*
X194284925Y-106868677D01*
X194158216Y-107049638D01*
X194158215Y-107049640D01*
X194064857Y-107249848D01*
X194064854Y-107249854D01*
X194007680Y-107463229D01*
X194007679Y-107463237D01*
X193988427Y-107683297D01*
X193988427Y-107683302D01*
X194007679Y-107903362D01*
X194007680Y-107903370D01*
X194064854Y-108116745D01*
X194064855Y-108116747D01*
X194064856Y-108116750D01*
X194158216Y-108316962D01*
X194158218Y-108316966D01*
X194284920Y-108497915D01*
X194284925Y-108497921D01*
X194441128Y-108654124D01*
X194441134Y-108654129D01*
X194622083Y-108780831D01*
X194622085Y-108780832D01*
X194622088Y-108780834D01*
X194822300Y-108874194D01*
X195035682Y-108931370D01*
X195192873Y-108945122D01*
X195255748Y-108950623D01*
X195255750Y-108950623D01*
X195255752Y-108950623D01*
X195310767Y-108945809D01*
X195475818Y-108931370D01*
X195689200Y-108874194D01*
X195889412Y-108780834D01*
X196070370Y-108654126D01*
X196226576Y-108497920D01*
X196353284Y-108316962D01*
X196446644Y-108116750D01*
X196503820Y-107903368D01*
X196523073Y-107683300D01*
X196503820Y-107463232D01*
X196446644Y-107249850D01*
X196353284Y-107049639D01*
X196226576Y-106868680D01*
X196070370Y-106712474D01*
X196070366Y-106712471D01*
X196070365Y-106712470D01*
X195889416Y-106585768D01*
X195889408Y-106585764D01*
X195760561Y-106525682D01*
X195708121Y-106479510D01*
X195688969Y-106412317D01*
X195709185Y-106345435D01*
X195760561Y-106300918D01*
X195766552Y-106298124D01*
X195889412Y-106240834D01*
X196070370Y-106114126D01*
X196226576Y-105957920D01*
X196353284Y-105776962D01*
X196446644Y-105576750D01*
X196503820Y-105363368D01*
X196523073Y-105143300D01*
X196522265Y-105134070D01*
X196509901Y-104992738D01*
X196503820Y-104923232D01*
X196446644Y-104709850D01*
X196353284Y-104509639D01*
X196226576Y-104328680D01*
X196070370Y-104172474D01*
X196070366Y-104172471D01*
X196070365Y-104172470D01*
X195889416Y-104045768D01*
X195889412Y-104045766D01*
X195766325Y-103988370D01*
X195689200Y-103952406D01*
X195689197Y-103952405D01*
X195689195Y-103952404D01*
X195475820Y-103895230D01*
X195475812Y-103895229D01*
X195255752Y-103875977D01*
X195255748Y-103875977D01*
X195035687Y-103895229D01*
X195035679Y-103895230D01*
X194822304Y-103952404D01*
X194822298Y-103952407D01*
X194622090Y-104045765D01*
X194622088Y-104045766D01*
X194441127Y-104172475D01*
X194284925Y-104328677D01*
X194158216Y-104509638D01*
X194158215Y-104509640D01*
X194064857Y-104709848D01*
X194064854Y-104709854D01*
X194007680Y-104923229D01*
X194007679Y-104923237D01*
X193988427Y-105143297D01*
X191000500Y-105143297D01*
X191000500Y-86613997D01*
X193993027Y-86613997D01*
X193993027Y-86614002D01*
X194012279Y-86834062D01*
X194012280Y-86834070D01*
X194069454Y-87047445D01*
X194069455Y-87047447D01*
X194069456Y-87047450D01*
X194162816Y-87247662D01*
X194162818Y-87247666D01*
X194289520Y-87428615D01*
X194289525Y-87428621D01*
X194445728Y-87584824D01*
X194445734Y-87584829D01*
X194626683Y-87711531D01*
X194626685Y-87711532D01*
X194626688Y-87711534D01*
X194746098Y-87767215D01*
X194755539Y-87771618D01*
X194807978Y-87817790D01*
X194827130Y-87884984D01*
X194806914Y-87951865D01*
X194755539Y-87996382D01*
X194626690Y-88056465D01*
X194626688Y-88056466D01*
X194445727Y-88183175D01*
X194289525Y-88339377D01*
X194162816Y-88520338D01*
X194162815Y-88520340D01*
X194069457Y-88720548D01*
X194069454Y-88720554D01*
X194012280Y-88933929D01*
X194012279Y-88933937D01*
X193993027Y-89153997D01*
X193993027Y-89154002D01*
X194012279Y-89374062D01*
X194012280Y-89374070D01*
X194069454Y-89587445D01*
X194069455Y-89587447D01*
X194069456Y-89587450D01*
X194094011Y-89640108D01*
X194162816Y-89787662D01*
X194162818Y-89787666D01*
X194289520Y-89968615D01*
X194289525Y-89968621D01*
X194445728Y-90124824D01*
X194445734Y-90124829D01*
X194626683Y-90251531D01*
X194626685Y-90251532D01*
X194626688Y-90251534D01*
X194746098Y-90307215D01*
X194755539Y-90311618D01*
X194807978Y-90357790D01*
X194827130Y-90424984D01*
X194806914Y-90491865D01*
X194755539Y-90536382D01*
X194626690Y-90596465D01*
X194626688Y-90596466D01*
X194445727Y-90723175D01*
X194289525Y-90879377D01*
X194162816Y-91060338D01*
X194162815Y-91060340D01*
X194069457Y-91260548D01*
X194069454Y-91260554D01*
X194012280Y-91473929D01*
X194012279Y-91473937D01*
X193993027Y-91693997D01*
X193993027Y-91694002D01*
X194012279Y-91914062D01*
X194012280Y-91914070D01*
X194069454Y-92127445D01*
X194069455Y-92127447D01*
X194069456Y-92127450D01*
X194094011Y-92180108D01*
X194162816Y-92327662D01*
X194162818Y-92327666D01*
X194289520Y-92508615D01*
X194289525Y-92508621D01*
X194445728Y-92664824D01*
X194445734Y-92664829D01*
X194626683Y-92791531D01*
X194626685Y-92791532D01*
X194626688Y-92791534D01*
X194746098Y-92847215D01*
X194755539Y-92851618D01*
X194807978Y-92897790D01*
X194827130Y-92964984D01*
X194806914Y-93031865D01*
X194755539Y-93076382D01*
X194626690Y-93136465D01*
X194626688Y-93136466D01*
X194445727Y-93263175D01*
X194289525Y-93419377D01*
X194162816Y-93600338D01*
X194162815Y-93600340D01*
X194069457Y-93800548D01*
X194069454Y-93800554D01*
X194012280Y-94013929D01*
X194012279Y-94013937D01*
X193993027Y-94233997D01*
X193993027Y-94234002D01*
X194012279Y-94454062D01*
X194012280Y-94454070D01*
X194069454Y-94667445D01*
X194069455Y-94667447D01*
X194069456Y-94667450D01*
X194120538Y-94776996D01*
X194162816Y-94867662D01*
X194162818Y-94867666D01*
X194289520Y-95048615D01*
X194289525Y-95048621D01*
X194445728Y-95204824D01*
X194445734Y-95204829D01*
X194626683Y-95331531D01*
X194626685Y-95331532D01*
X194626688Y-95331534D01*
X194826900Y-95424894D01*
X195040282Y-95482070D01*
X195197473Y-95495822D01*
X195260348Y-95501323D01*
X195260350Y-95501323D01*
X195260352Y-95501323D01*
X195315367Y-95496509D01*
X195480418Y-95482070D01*
X195693800Y-95424894D01*
X195894012Y-95331534D01*
X196074970Y-95204826D01*
X196231176Y-95048620D01*
X196357884Y-94867662D01*
X196451244Y-94667450D01*
X196508420Y-94454068D01*
X196527673Y-94234000D01*
X196526528Y-94220917D01*
X196514154Y-94079472D01*
X196508420Y-94013932D01*
X196451244Y-93800550D01*
X196357884Y-93600339D01*
X196294530Y-93509859D01*
X196231177Y-93419381D01*
X196231173Y-93419377D01*
X196074970Y-93263174D01*
X196074966Y-93263171D01*
X196074965Y-93263170D01*
X195894016Y-93136468D01*
X195894008Y-93136464D01*
X195765161Y-93076382D01*
X195712721Y-93030210D01*
X195693569Y-92963017D01*
X195713785Y-92896135D01*
X195765161Y-92851618D01*
X195771152Y-92848824D01*
X195894012Y-92791534D01*
X196074970Y-92664826D01*
X196231176Y-92508620D01*
X196357884Y-92327662D01*
X196451244Y-92127450D01*
X196508420Y-91914068D01*
X196520664Y-91774116D01*
X196546116Y-91709047D01*
X196602707Y-91668068D01*
X196672469Y-91664190D01*
X196731873Y-91697242D01*
X202497639Y-97463008D01*
X202551517Y-97516886D01*
X202585044Y-97550413D01*
X202585046Y-97550414D01*
X202687806Y-97619076D01*
X202687808Y-97619077D01*
X202687817Y-97619083D01*
X202712822Y-97629440D01*
X202735121Y-97638677D01*
X202777304Y-97656149D01*
X202802016Y-97666386D01*
X202923242Y-97690499D01*
X202923246Y-97690500D01*
X202923247Y-97690500D01*
X203046854Y-97690500D01*
X226015523Y-97690500D01*
X226082562Y-97710185D01*
X226128317Y-97762989D01*
X226138261Y-97832147D01*
X226126524Y-97869771D01*
X226121847Y-97879162D01*
X226121846Y-97879164D01*
X226063296Y-98084949D01*
X226063295Y-98084952D01*
X226043554Y-98297999D01*
X226043554Y-98298000D01*
X226063295Y-98511047D01*
X226063296Y-98511050D01*
X226121846Y-98716835D01*
X226121849Y-98716841D01*
X226143951Y-98761228D01*
X226156212Y-98830014D01*
X226129339Y-98894509D01*
X226071863Y-98934236D01*
X226032951Y-98940500D01*
X225190372Y-98940500D01*
X225124400Y-98921494D01*
X224998223Y-98842211D01*
X224827954Y-98782631D01*
X224827949Y-98782630D01*
X224648704Y-98762435D01*
X224648696Y-98762435D01*
X224469450Y-98782630D01*
X224469445Y-98782631D01*
X224299176Y-98842211D01*
X224146437Y-98938184D01*
X224018884Y-99065737D01*
X223922911Y-99218476D01*
X223863331Y-99388745D01*
X223863330Y-99388750D01*
X223843135Y-99567996D01*
X223843135Y-99568003D01*
X223863330Y-99747249D01*
X223863331Y-99747254D01*
X223922911Y-99917523D01*
X224018884Y-100070262D01*
X224146438Y-100197816D01*
X224215946Y-100241491D01*
X224258117Y-100267989D01*
X224299178Y-100293789D01*
X224423088Y-100337147D01*
X224469445Y-100353368D01*
X224469450Y-100353369D01*
X224648696Y-100373565D01*
X224648700Y-100373565D01*
X224648704Y-100373565D01*
X224827949Y-100353369D01*
X224827952Y-100353368D01*
X224827955Y-100353368D01*
X224998222Y-100293789D01*
X225124400Y-100214505D01*
X225190372Y-100195500D01*
X226032951Y-100195500D01*
X226099990Y-100215185D01*
X226145745Y-100267989D01*
X226155689Y-100337147D01*
X226143951Y-100374772D01*
X226121849Y-100419158D01*
X226121846Y-100419164D01*
X226063296Y-100624949D01*
X226063295Y-100624952D01*
X226043554Y-100837999D01*
X226043554Y-100838000D01*
X226063295Y-101051047D01*
X226063296Y-101051050D01*
X226121846Y-101256835D01*
X226121849Y-101256840D01*
X226217219Y-101448370D01*
X226346159Y-101619114D01*
X226504278Y-101763258D01*
X226504283Y-101763261D01*
X226504286Y-101763263D01*
X226686186Y-101875891D01*
X226686187Y-101875891D01*
X226686190Y-101875893D01*
X226885703Y-101953185D01*
X227061845Y-101986111D01*
X227124125Y-102017779D01*
X227159398Y-102078092D01*
X227156464Y-102147900D01*
X227116255Y-102205040D01*
X227061845Y-102229888D01*
X226885703Y-102262815D01*
X226759533Y-102311693D01*
X226686192Y-102340106D01*
X226686186Y-102340108D01*
X226504286Y-102452736D01*
X226504283Y-102452738D01*
X226504279Y-102452740D01*
X226504278Y-102452742D01*
X226346159Y-102596886D01*
X226346158Y-102596887D01*
X226217219Y-102767629D01*
X226121849Y-102959158D01*
X226121846Y-102959164D01*
X226063296Y-103164949D01*
X226063295Y-103164952D01*
X226043554Y-103377999D01*
X226063295Y-103591047D01*
X226063296Y-103591050D01*
X226121846Y-103796835D01*
X226121849Y-103796841D01*
X226199310Y-103952404D01*
X226217219Y-103988370D01*
X226346159Y-104159114D01*
X226504278Y-104303258D01*
X226504283Y-104303261D01*
X226504286Y-104303263D01*
X226686186Y-104415891D01*
X226686187Y-104415891D01*
X226686190Y-104415893D01*
X226885703Y-104493185D01*
X227061845Y-104526111D01*
X227124125Y-104557779D01*
X227159398Y-104618092D01*
X227156464Y-104687900D01*
X227116255Y-104745040D01*
X227061845Y-104769888D01*
X226885703Y-104802815D01*
X226817397Y-104829277D01*
X226686192Y-104880106D01*
X226686186Y-104880108D01*
X226504286Y-104992736D01*
X226504283Y-104992738D01*
X226504279Y-104992740D01*
X226504278Y-104992742D01*
X226349249Y-105134069D01*
X226346158Y-105136887D01*
X226217219Y-105307629D01*
X226121849Y-105499158D01*
X226121846Y-105499164D01*
X226063296Y-105704949D01*
X226063295Y-105704952D01*
X226043554Y-105917999D01*
X226043554Y-105918000D01*
X226063295Y-106131047D01*
X226063296Y-106131050D01*
X226121846Y-106336835D01*
X226121849Y-106336841D01*
X226158588Y-106410623D01*
X226217219Y-106528370D01*
X226346159Y-106699114D01*
X226504278Y-106843258D01*
X226504283Y-106843261D01*
X226504286Y-106843263D01*
X226686186Y-106955891D01*
X226686187Y-106955891D01*
X226686190Y-106955893D01*
X226885703Y-107033185D01*
X227061845Y-107066111D01*
X227124125Y-107097779D01*
X227159398Y-107158092D01*
X227156464Y-107227900D01*
X227116255Y-107285040D01*
X227061845Y-107309888D01*
X226885703Y-107342815D01*
X226759533Y-107391693D01*
X226686192Y-107420106D01*
X226686186Y-107420108D01*
X226504286Y-107532736D01*
X226504283Y-107532738D01*
X226504279Y-107532740D01*
X226504278Y-107532742D01*
X226453737Y-107578816D01*
X226346158Y-107676887D01*
X226217219Y-107847629D01*
X226121849Y-108039158D01*
X226121846Y-108039164D01*
X226063296Y-108244949D01*
X226063295Y-108244952D01*
X226043554Y-108457999D01*
X226043554Y-108458000D01*
X226063295Y-108671047D01*
X226063296Y-108671050D01*
X226121846Y-108876835D01*
X226121849Y-108876841D01*
X226166245Y-108966000D01*
X226217219Y-109068370D01*
X226346159Y-109239114D01*
X226504278Y-109383258D01*
X226504283Y-109383261D01*
X226504286Y-109383263D01*
X226686186Y-109495891D01*
X226686187Y-109495891D01*
X226686190Y-109495893D01*
X226885703Y-109573185D01*
X227061845Y-109606111D01*
X227124125Y-109637779D01*
X227159398Y-109698092D01*
X227156464Y-109767900D01*
X227116255Y-109825040D01*
X227061845Y-109849888D01*
X226885703Y-109882815D01*
X226759533Y-109931693D01*
X226686192Y-109960106D01*
X226686186Y-109960108D01*
X226504286Y-110072736D01*
X226504283Y-110072738D01*
X226504279Y-110072740D01*
X226504278Y-110072742D01*
X226397821Y-110169790D01*
X226346158Y-110216887D01*
X226217219Y-110387629D01*
X226121849Y-110579158D01*
X226121846Y-110579164D01*
X226063296Y-110784949D01*
X226063295Y-110784952D01*
X226043554Y-110997999D01*
X226043554Y-110998000D01*
X226063295Y-111211047D01*
X226063296Y-111211050D01*
X226121846Y-111416835D01*
X226121849Y-111416841D01*
X226166245Y-111506000D01*
X226217219Y-111608370D01*
X226346159Y-111779114D01*
X226504278Y-111923258D01*
X226504283Y-111923261D01*
X226504286Y-111923263D01*
X226686186Y-112035891D01*
X226686187Y-112035891D01*
X226686190Y-112035893D01*
X226885703Y-112113185D01*
X227096020Y-112152500D01*
X227096022Y-112152500D01*
X227309978Y-112152500D01*
X227309980Y-112152500D01*
X227520297Y-112113185D01*
X227719810Y-112035893D01*
X227901722Y-111923258D01*
X228059841Y-111779114D01*
X228188781Y-111608370D01*
X228284151Y-111416840D01*
X228284151Y-111416837D01*
X228284153Y-111416835D01*
X228342703Y-111211050D01*
X228342704Y-111211047D01*
X228362446Y-110998000D01*
X228362446Y-110997999D01*
X228342704Y-110784952D01*
X228342703Y-110784949D01*
X228284153Y-110579164D01*
X228284150Y-110579158D01*
X228214160Y-110438599D01*
X228188781Y-110387630D01*
X228059841Y-110216886D01*
X227901722Y-110072742D01*
X227901716Y-110072738D01*
X227901713Y-110072736D01*
X227719813Y-109960108D01*
X227719807Y-109960106D01*
X227520297Y-109882815D01*
X227344153Y-109849888D01*
X227281874Y-109818221D01*
X227246601Y-109757908D01*
X227249535Y-109688100D01*
X227289744Y-109630960D01*
X227344152Y-109606112D01*
X227520297Y-109573185D01*
X227719810Y-109495893D01*
X227901722Y-109383258D01*
X228059841Y-109239114D01*
X228188781Y-109068370D01*
X228284151Y-108876840D01*
X228284151Y-108876837D01*
X228284153Y-108876835D01*
X228342703Y-108671050D01*
X228342704Y-108671047D01*
X228362446Y-108458000D01*
X228362446Y-108457999D01*
X228342704Y-108244952D01*
X228342703Y-108244949D01*
X228284153Y-108039164D01*
X228284150Y-108039158D01*
X228199156Y-107868466D01*
X228188781Y-107847630D01*
X228059841Y-107676886D01*
X227901722Y-107532742D01*
X227901716Y-107532738D01*
X227901713Y-107532736D01*
X227719813Y-107420108D01*
X227719807Y-107420106D01*
X227520297Y-107342815D01*
X227344153Y-107309888D01*
X227281874Y-107278221D01*
X227246601Y-107217908D01*
X227249535Y-107148100D01*
X227289744Y-107090960D01*
X227344152Y-107066112D01*
X227520297Y-107033185D01*
X227719810Y-106955893D01*
X227901722Y-106843258D01*
X228059841Y-106699114D01*
X228188781Y-106528370D01*
X228284151Y-106336840D01*
X228284151Y-106336837D01*
X228284153Y-106336835D01*
X228342703Y-106131050D01*
X228342704Y-106131047D01*
X228362446Y-105918000D01*
X228362446Y-105917999D01*
X228342704Y-105704952D01*
X228342703Y-105704949D01*
X228284153Y-105499164D01*
X228284150Y-105499158D01*
X228234896Y-105400242D01*
X228188781Y-105307630D01*
X228059841Y-105136886D01*
X227901722Y-104992742D01*
X227901716Y-104992738D01*
X227901713Y-104992736D01*
X227719813Y-104880108D01*
X227719807Y-104880106D01*
X227520297Y-104802815D01*
X227344153Y-104769888D01*
X227281874Y-104738221D01*
X227246601Y-104677908D01*
X227249535Y-104608100D01*
X227289744Y-104550960D01*
X227344152Y-104526112D01*
X227520297Y-104493185D01*
X227719810Y-104415893D01*
X227901722Y-104303258D01*
X228059841Y-104159114D01*
X228188781Y-103988370D01*
X228284151Y-103796840D01*
X228284151Y-103796837D01*
X228284153Y-103796835D01*
X228342703Y-103591050D01*
X228342704Y-103591047D01*
X228362446Y-103377999D01*
X228342704Y-103164952D01*
X228342703Y-103164949D01*
X228284153Y-102959164D01*
X228284150Y-102959158D01*
X228199156Y-102788466D01*
X228188781Y-102767630D01*
X228059841Y-102596886D01*
X227901722Y-102452742D01*
X227901716Y-102452738D01*
X227901713Y-102452736D01*
X227719813Y-102340108D01*
X227719807Y-102340106D01*
X227520297Y-102262815D01*
X227344153Y-102229888D01*
X227281874Y-102198221D01*
X227246601Y-102137908D01*
X227249535Y-102068100D01*
X227289744Y-102010960D01*
X227344152Y-101986112D01*
X227520297Y-101953185D01*
X227719810Y-101875893D01*
X227901722Y-101763258D01*
X228059841Y-101619114D01*
X228188781Y-101448370D01*
X228284151Y-101256840D01*
X228284151Y-101256837D01*
X228284153Y-101256835D01*
X228342703Y-101051050D01*
X228342704Y-101051047D01*
X228362446Y-100838000D01*
X228362446Y-100837999D01*
X228342704Y-100624952D01*
X228342703Y-100624949D01*
X228284153Y-100419164D01*
X228284150Y-100419158D01*
X228262049Y-100374772D01*
X228249788Y-100305986D01*
X228276661Y-100241491D01*
X228334137Y-100201764D01*
X228373049Y-100195500D01*
X239915419Y-100195500D01*
X239982458Y-100215185D01*
X240003100Y-100231819D01*
X240194881Y-100423600D01*
X240228366Y-100484923D01*
X240231200Y-100511281D01*
X240231200Y-112199807D01*
X240255312Y-112321027D01*
X240255314Y-112321035D01*
X240288762Y-112401785D01*
X240302615Y-112435229D01*
X240302620Y-112435239D01*
X240371288Y-112538007D01*
X240371291Y-112538011D01*
X241249832Y-113416551D01*
X241283317Y-113477874D01*
X241285622Y-113515669D01*
X241283554Y-113537994D01*
X241283554Y-113538000D01*
X241303296Y-113751048D01*
X241308280Y-113768565D01*
X241307694Y-113838432D01*
X241269427Y-113896891D01*
X241205630Y-113925382D01*
X241189014Y-113926500D01*
X230189192Y-113926500D01*
X230067972Y-113950612D01*
X230067964Y-113950614D01*
X229987215Y-113984062D01*
X229953767Y-113997917D01*
X229939258Y-114007610D01*
X229881807Y-114045998D01*
X229881806Y-114046000D01*
X229851791Y-114066055D01*
X229850986Y-114066593D01*
X228397460Y-115520119D01*
X228336137Y-115553604D01*
X228266445Y-115548620D01*
X228210512Y-115506748D01*
X228198778Y-115487707D01*
X228188781Y-115467630D01*
X228159142Y-115428382D01*
X228059841Y-115296886D01*
X227901722Y-115152742D01*
X227901716Y-115152738D01*
X227901713Y-115152736D01*
X227719813Y-115040108D01*
X227719807Y-115040106D01*
X227520297Y-114962815D01*
X227309980Y-114923500D01*
X227096020Y-114923500D01*
X226885703Y-114962815D01*
X226759533Y-115011693D01*
X226686192Y-115040106D01*
X226686186Y-115040108D01*
X226504286Y-115152736D01*
X226504283Y-115152738D01*
X226504279Y-115152740D01*
X226504278Y-115152742D01*
X226397821Y-115249790D01*
X226346158Y-115296887D01*
X226217219Y-115467629D01*
X226121849Y-115659158D01*
X226121846Y-115659164D01*
X226063296Y-115864949D01*
X226063295Y-115864952D01*
X226043554Y-116077999D01*
X226043554Y-116078000D01*
X226063295Y-116291047D01*
X226063296Y-116291050D01*
X226121846Y-116496835D01*
X226121849Y-116496841D01*
X226166245Y-116586000D01*
X226217219Y-116688370D01*
X226346159Y-116859114D01*
X226504278Y-117003258D01*
X226504283Y-117003261D01*
X226504286Y-117003263D01*
X226686186Y-117115891D01*
X226686187Y-117115891D01*
X226686190Y-117115893D01*
X226885703Y-117193185D01*
X227061845Y-117226111D01*
X227124125Y-117257779D01*
X227159398Y-117318092D01*
X227156464Y-117387900D01*
X227116255Y-117445040D01*
X227061845Y-117469888D01*
X226885703Y-117502815D01*
X226814501Y-117530399D01*
X226686192Y-117580106D01*
X226686186Y-117580108D01*
X226504286Y-117692736D01*
X226504283Y-117692738D01*
X226504279Y-117692740D01*
X226504278Y-117692742D01*
X226401396Y-117786531D01*
X226346158Y-117836887D01*
X226217219Y-118007629D01*
X226121849Y-118199158D01*
X226121846Y-118199164D01*
X226063296Y-118404949D01*
X226063295Y-118404952D01*
X226043554Y-118617999D01*
X226043554Y-118618000D01*
X226063295Y-118831047D01*
X226063296Y-118831050D01*
X226121846Y-119036835D01*
X226121849Y-119036840D01*
X226217219Y-119228370D01*
X226346159Y-119399114D01*
X226504278Y-119543258D01*
X226504283Y-119543261D01*
X226504286Y-119543263D01*
X226686186Y-119655891D01*
X226686187Y-119655891D01*
X226686190Y-119655893D01*
X226885703Y-119733185D01*
X227061845Y-119766111D01*
X227124125Y-119797779D01*
X227159398Y-119858092D01*
X227156464Y-119927900D01*
X227116255Y-119985040D01*
X227061845Y-120009888D01*
X226885703Y-120042815D01*
X226814501Y-120070399D01*
X226686192Y-120120106D01*
X226686186Y-120120108D01*
X226504286Y-120232736D01*
X226504283Y-120232738D01*
X226504279Y-120232740D01*
X226504278Y-120232742D01*
X226346159Y-120376886D01*
X226346158Y-120376887D01*
X226217219Y-120547629D01*
X226121849Y-120739158D01*
X226121846Y-120739164D01*
X226063296Y-120944949D01*
X226063295Y-120944952D01*
X226043554Y-121157999D01*
X226043554Y-121158000D01*
X226063295Y-121371047D01*
X226063296Y-121371050D01*
X226121846Y-121576835D01*
X226121849Y-121576841D01*
X226141386Y-121616076D01*
X226217219Y-121768370D01*
X226346159Y-121939114D01*
X226504278Y-122083258D01*
X226504283Y-122083261D01*
X226504286Y-122083263D01*
X226686186Y-122195891D01*
X226686187Y-122195891D01*
X226686190Y-122195893D01*
X226885703Y-122273185D01*
X227061845Y-122306111D01*
X227124125Y-122337779D01*
X227159398Y-122398092D01*
X227156464Y-122467900D01*
X227116255Y-122525040D01*
X227061845Y-122549888D01*
X226885703Y-122582815D01*
X226814501Y-122610399D01*
X226686192Y-122660106D01*
X226686186Y-122660108D01*
X226504286Y-122772736D01*
X226504283Y-122772738D01*
X226504279Y-122772740D01*
X226504278Y-122772742D01*
X226373585Y-122891884D01*
X226346158Y-122916887D01*
X226217219Y-123087629D01*
X226121849Y-123279158D01*
X226121846Y-123279164D01*
X226063296Y-123484949D01*
X226063295Y-123484952D01*
X226043554Y-123697999D01*
X226043554Y-123698000D01*
X226063295Y-123911047D01*
X226063296Y-123911050D01*
X226121846Y-124116835D01*
X226121849Y-124116841D01*
X226217219Y-124308370D01*
X226346159Y-124479114D01*
X226504278Y-124623258D01*
X226504283Y-124623261D01*
X226504286Y-124623263D01*
X226686186Y-124735891D01*
X226686187Y-124735891D01*
X226686190Y-124735893D01*
X226885703Y-124813185D01*
X227061845Y-124846111D01*
X227124125Y-124877779D01*
X227159398Y-124938092D01*
X227156464Y-125007900D01*
X227116255Y-125065040D01*
X227061845Y-125089888D01*
X226885703Y-125122815D01*
X226814501Y-125150399D01*
X226686192Y-125200106D01*
X226686186Y-125200108D01*
X226504286Y-125312736D01*
X226504283Y-125312738D01*
X226504279Y-125312740D01*
X226504278Y-125312742D01*
X226364915Y-125439788D01*
X226346158Y-125456887D01*
X226217219Y-125627629D01*
X226121849Y-125819158D01*
X226121846Y-125819164D01*
X226063296Y-126024949D01*
X226063295Y-126024952D01*
X226043554Y-126237999D01*
X226043554Y-126238000D01*
X226063295Y-126451047D01*
X226063296Y-126451050D01*
X226121846Y-126656835D01*
X226121849Y-126656840D01*
X226217219Y-126848370D01*
X226346159Y-127019114D01*
X226504278Y-127163258D01*
X226504283Y-127163261D01*
X226504286Y-127163263D01*
X226686186Y-127275891D01*
X226686187Y-127275891D01*
X226686190Y-127275893D01*
X226885703Y-127353185D01*
X227061845Y-127386111D01*
X227124125Y-127417779D01*
X227159398Y-127478092D01*
X227156464Y-127547900D01*
X227116255Y-127605040D01*
X227061845Y-127629888D01*
X226885703Y-127662815D01*
X226814501Y-127690399D01*
X226686192Y-127740106D01*
X226686186Y-127740108D01*
X226504286Y-127852736D01*
X226504283Y-127852738D01*
X226504279Y-127852740D01*
X226504278Y-127852742D01*
X226347778Y-127995410D01*
X226346158Y-127996887D01*
X226217217Y-128167631D01*
X226207220Y-128187710D01*
X226159718Y-128238947D01*
X226092055Y-128256369D01*
X226025714Y-128234444D01*
X226008539Y-128220120D01*
X225401094Y-127612675D01*
X225367609Y-127551352D01*
X225372483Y-127483197D01*
X225372189Y-127483095D01*
X225372567Y-127482012D01*
X225372593Y-127481660D01*
X225373139Y-127480377D01*
X225374486Y-127476525D01*
X225374489Y-127476522D01*
X225416129Y-127357519D01*
X225434066Y-127306262D01*
X225434069Y-127306249D01*
X225454265Y-127127003D01*
X225454265Y-127126996D01*
X225434069Y-126947750D01*
X225434068Y-126947745D01*
X225374488Y-126777476D01*
X225328854Y-126704851D01*
X225278516Y-126624738D01*
X225150962Y-126497184D01*
X225150356Y-126496803D01*
X224998223Y-126401211D01*
X224827954Y-126341631D01*
X224827949Y-126341630D01*
X224648704Y-126321435D01*
X224648696Y-126321435D01*
X224469450Y-126341630D01*
X224469445Y-126341631D01*
X224299176Y-126401211D01*
X224146437Y-126497184D01*
X224018884Y-126624737D01*
X223922911Y-126777476D01*
X223863331Y-126947745D01*
X223863330Y-126947750D01*
X223843135Y-127126996D01*
X223843135Y-127127003D01*
X223863330Y-127306249D01*
X223863331Y-127306254D01*
X223922911Y-127476524D01*
X224002193Y-127602698D01*
X224021200Y-127668671D01*
X224021200Y-127809507D01*
X224045312Y-127930727D01*
X224045314Y-127930735D01*
X224072104Y-127995411D01*
X224092617Y-128044933D01*
X224105413Y-128064083D01*
X224142496Y-128119583D01*
X224161290Y-128147710D01*
X224161291Y-128147711D01*
X226361207Y-130347626D01*
X226394692Y-130408949D01*
X226389708Y-130478641D01*
X226357065Y-130526943D01*
X226346161Y-130536883D01*
X226217219Y-130707629D01*
X226121849Y-130899158D01*
X226121846Y-130899164D01*
X226063296Y-131104949D01*
X226063295Y-131104952D01*
X226043554Y-131317999D01*
X226043554Y-131318000D01*
X226063295Y-131531047D01*
X226063296Y-131531050D01*
X226121846Y-131736835D01*
X226121849Y-131736841D01*
X226180816Y-131855262D01*
X226217219Y-131928370D01*
X226346159Y-132099114D01*
X226504278Y-132243258D01*
X226504283Y-132243261D01*
X226504286Y-132243263D01*
X226686186Y-132355891D01*
X226686187Y-132355891D01*
X226686190Y-132355893D01*
X226885703Y-132433185D01*
X227061845Y-132466111D01*
X227124125Y-132497779D01*
X227159398Y-132558092D01*
X227156464Y-132627900D01*
X227116255Y-132685040D01*
X227061845Y-132709888D01*
X226885703Y-132742815D01*
X226840141Y-132760466D01*
X226686192Y-132820106D01*
X226686186Y-132820108D01*
X226504286Y-132932736D01*
X226504283Y-132932738D01*
X226504279Y-132932740D01*
X226504278Y-132932742D01*
X226363462Y-133061112D01*
X226346158Y-133076887D01*
X226217219Y-133247629D01*
X226121849Y-133439158D01*
X226121846Y-133439164D01*
X226063296Y-133644949D01*
X226063295Y-133644952D01*
X226043554Y-133857999D01*
X226043554Y-133858000D01*
X226063295Y-134071047D01*
X226063296Y-134071050D01*
X226121846Y-134276835D01*
X226121849Y-134276841D01*
X226189366Y-134412434D01*
X226217219Y-134468370D01*
X226346159Y-134639114D01*
X226504278Y-134783258D01*
X226504283Y-134783261D01*
X226504286Y-134783263D01*
X226686186Y-134895891D01*
X226686187Y-134895891D01*
X226686190Y-134895893D01*
X226885703Y-134973185D01*
X227061845Y-135006111D01*
X227124125Y-135037779D01*
X227159398Y-135098092D01*
X227156464Y-135167900D01*
X227116255Y-135225040D01*
X227061845Y-135249888D01*
X226885703Y-135282815D01*
X226759533Y-135331693D01*
X226686192Y-135360106D01*
X226686186Y-135360108D01*
X226504286Y-135472736D01*
X226504283Y-135472738D01*
X226504279Y-135472740D01*
X226504278Y-135472742D01*
X226346159Y-135616886D01*
X226346158Y-135616887D01*
X226217219Y-135787629D01*
X226121849Y-135979158D01*
X226121846Y-135979164D01*
X226063296Y-136184949D01*
X226063295Y-136184952D01*
X226043554Y-136397999D01*
X226043554Y-136398000D01*
X226063295Y-136611047D01*
X226063296Y-136611050D01*
X226121846Y-136816835D01*
X226121849Y-136816841D01*
X226169048Y-136911629D01*
X226217219Y-137008370D01*
X226346159Y-137179114D01*
X226504278Y-137323258D01*
X226504283Y-137323261D01*
X226504286Y-137323263D01*
X226686186Y-137435891D01*
X226686187Y-137435891D01*
X226686190Y-137435893D01*
X226885703Y-137513185D01*
X227061845Y-137546111D01*
X227124125Y-137577779D01*
X227159398Y-137638092D01*
X227156464Y-137707900D01*
X227116255Y-137765040D01*
X227061845Y-137789888D01*
X226885703Y-137822815D01*
X226840141Y-137840466D01*
X226686192Y-137900106D01*
X226686186Y-137900108D01*
X226504286Y-138012736D01*
X226504283Y-138012738D01*
X226504279Y-138012740D01*
X226504278Y-138012742D01*
X226346159Y-138156886D01*
X226346158Y-138156887D01*
X226217219Y-138327629D01*
X226121849Y-138519158D01*
X226121846Y-138519164D01*
X226063296Y-138724949D01*
X226063295Y-138724952D01*
X226043554Y-138937999D01*
X226043554Y-138938000D01*
X226063295Y-139151047D01*
X226063296Y-139151050D01*
X226121846Y-139356835D01*
X226121849Y-139356841D01*
X226129124Y-139371451D01*
X226217219Y-139548370D01*
X226346159Y-139719114D01*
X226504278Y-139863258D01*
X226504283Y-139863261D01*
X226504286Y-139863263D01*
X226686186Y-139975891D01*
X226686187Y-139975891D01*
X226686190Y-139975893D01*
X226885703Y-140053185D01*
X227061845Y-140086111D01*
X227124125Y-140117779D01*
X227159398Y-140178092D01*
X227156464Y-140247900D01*
X227116255Y-140305040D01*
X227061845Y-140329888D01*
X226885703Y-140362815D01*
X226759533Y-140411693D01*
X226686192Y-140440106D01*
X226686186Y-140440108D01*
X226504286Y-140552736D01*
X226504283Y-140552738D01*
X226504279Y-140552740D01*
X226504278Y-140552742D01*
X226346159Y-140696886D01*
X226346158Y-140696887D01*
X226217219Y-140867629D01*
X226121849Y-141059158D01*
X226121846Y-141059164D01*
X226063296Y-141264949D01*
X226063295Y-141264952D01*
X226043554Y-141477999D01*
X226043554Y-141478000D01*
X226063295Y-141691047D01*
X226063296Y-141691050D01*
X226121846Y-141896835D01*
X226121849Y-141896840D01*
X226217219Y-142088370D01*
X226346159Y-142259114D01*
X226504278Y-142403258D01*
X226504283Y-142403261D01*
X226504286Y-142403263D01*
X226686186Y-142515891D01*
X226686187Y-142515891D01*
X226686190Y-142515893D01*
X226885703Y-142593185D01*
X227061845Y-142626111D01*
X227124125Y-142657779D01*
X227159398Y-142718092D01*
X227156464Y-142787900D01*
X227116255Y-142845040D01*
X227061845Y-142869888D01*
X226885703Y-142902815D01*
X226759533Y-142951693D01*
X226686192Y-142980106D01*
X226686186Y-142980108D01*
X226504286Y-143092736D01*
X226504283Y-143092738D01*
X226504279Y-143092740D01*
X226504278Y-143092742D01*
X226346159Y-143236886D01*
X226346158Y-143236887D01*
X226217219Y-143407629D01*
X226121849Y-143599158D01*
X226121846Y-143599164D01*
X226063296Y-143804949D01*
X226063295Y-143804952D01*
X226043554Y-144017999D01*
X226043554Y-144018000D01*
X226063295Y-144231047D01*
X226063296Y-144231050D01*
X226121846Y-144436835D01*
X226121849Y-144436840D01*
X226217219Y-144628370D01*
X226346159Y-144799114D01*
X226504278Y-144943258D01*
X226504283Y-144943261D01*
X226504286Y-144943263D01*
X226686186Y-145055891D01*
X226686187Y-145055891D01*
X226686190Y-145055893D01*
X226885703Y-145133185D01*
X227096020Y-145172500D01*
X227096022Y-145172500D01*
X227309978Y-145172500D01*
X227309980Y-145172500D01*
X227520297Y-145133185D01*
X227719810Y-145055893D01*
X227901722Y-144943258D01*
X228059841Y-144799114D01*
X228188781Y-144628370D01*
X228284151Y-144436840D01*
X228284151Y-144436837D01*
X228284153Y-144436835D01*
X228342703Y-144231050D01*
X228342704Y-144231047D01*
X228362446Y-144018000D01*
X228362446Y-144017999D01*
X228342704Y-143804952D01*
X228342703Y-143804949D01*
X228284153Y-143599164D01*
X228284150Y-143599158D01*
X228188781Y-143407630D01*
X228059841Y-143236886D01*
X227901722Y-143092742D01*
X227901716Y-143092738D01*
X227901713Y-143092736D01*
X227719813Y-142980108D01*
X227719807Y-142980106D01*
X227520297Y-142902815D01*
X227344153Y-142869888D01*
X227281874Y-142838221D01*
X227246601Y-142777908D01*
X227249535Y-142708100D01*
X227289744Y-142650960D01*
X227344152Y-142626112D01*
X227520297Y-142593185D01*
X227719810Y-142515893D01*
X227901722Y-142403258D01*
X228059841Y-142259114D01*
X228188781Y-142088370D01*
X228284151Y-141896840D01*
X228284151Y-141896837D01*
X228284153Y-141896835D01*
X228342703Y-141691050D01*
X228342704Y-141691047D01*
X228362446Y-141478000D01*
X228362446Y-141477999D01*
X228342704Y-141264952D01*
X228342703Y-141264949D01*
X228284153Y-141059164D01*
X228284150Y-141059158D01*
X228188781Y-140867630D01*
X228059841Y-140696886D01*
X227901722Y-140552742D01*
X227901716Y-140552738D01*
X227901713Y-140552736D01*
X227719813Y-140440108D01*
X227719807Y-140440106D01*
X227520297Y-140362815D01*
X227344153Y-140329888D01*
X227281874Y-140298221D01*
X227246601Y-140237908D01*
X227249535Y-140168100D01*
X227289744Y-140110960D01*
X227344152Y-140086112D01*
X227520297Y-140053185D01*
X227719810Y-139975893D01*
X227901722Y-139863258D01*
X228059841Y-139719114D01*
X228188781Y-139548370D01*
X228284151Y-139356840D01*
X228284151Y-139356837D01*
X228284153Y-139356835D01*
X228340706Y-139158070D01*
X228342704Y-139151048D01*
X228362446Y-138938000D01*
X228342704Y-138724952D01*
X228334200Y-138695065D01*
X228284153Y-138519164D01*
X228284150Y-138519158D01*
X228276875Y-138504548D01*
X228188781Y-138327630D01*
X228059841Y-138156886D01*
X227901722Y-138012742D01*
X227901716Y-138012738D01*
X227901713Y-138012736D01*
X227719813Y-137900108D01*
X227719807Y-137900106D01*
X227520297Y-137822815D01*
X227344153Y-137789888D01*
X227281874Y-137758221D01*
X227246601Y-137697908D01*
X227249535Y-137628100D01*
X227289744Y-137570960D01*
X227344152Y-137546112D01*
X227520297Y-137513185D01*
X227719810Y-137435893D01*
X227901722Y-137323258D01*
X228059841Y-137179114D01*
X228188781Y-137008370D01*
X228284151Y-136816840D01*
X228284151Y-136816837D01*
X228284153Y-136816835D01*
X228340706Y-136618070D01*
X228342704Y-136611048D01*
X228355051Y-136477796D01*
X228380837Y-136412861D01*
X228437637Y-136372173D01*
X228507418Y-136368653D01*
X228568025Y-136403418D01*
X228597788Y-136455305D01*
X228618669Y-136528696D01*
X228618672Y-136528702D01*
X228709912Y-136711935D01*
X228833269Y-136875287D01*
X228984537Y-137013185D01*
X228984539Y-137013187D01*
X229158569Y-137120942D01*
X229158575Y-137120945D01*
X229186317Y-137131692D01*
X229349444Y-137194888D01*
X229550653Y-137232500D01*
X229550656Y-137232500D01*
X229755344Y-137232500D01*
X229755347Y-137232500D01*
X229956556Y-137194888D01*
X230147427Y-137120944D01*
X230321462Y-137013186D01*
X230472732Y-136875285D01*
X230554046Y-136767608D01*
X230610154Y-136725971D01*
X230679866Y-136721279D01*
X230741048Y-136755022D01*
X230751954Y-136767608D01*
X230833266Y-136875283D01*
X230833268Y-136875286D01*
X230984537Y-137013185D01*
X230984539Y-137013187D01*
X231158569Y-137120942D01*
X231158575Y-137120945D01*
X231186317Y-137131692D01*
X231349444Y-137194888D01*
X231550653Y-137232500D01*
X231550656Y-137232500D01*
X231755344Y-137232500D01*
X231755347Y-137232500D01*
X231956556Y-137194888D01*
X232147427Y-137120944D01*
X232321462Y-137013186D01*
X232472732Y-136875285D01*
X232554046Y-136767608D01*
X232610154Y-136725971D01*
X232679866Y-136721279D01*
X232741048Y-136755022D01*
X232751954Y-136767608D01*
X232833266Y-136875283D01*
X232833268Y-136875286D01*
X232984537Y-137013185D01*
X232984539Y-137013187D01*
X233158569Y-137120942D01*
X233158575Y-137120945D01*
X233186317Y-137131692D01*
X233349444Y-137194888D01*
X233550653Y-137232500D01*
X233550656Y-137232500D01*
X233755344Y-137232500D01*
X233755347Y-137232500D01*
X233956556Y-137194888D01*
X234147427Y-137120944D01*
X234321462Y-137013186D01*
X234472732Y-136875285D01*
X234596088Y-136711935D01*
X234687328Y-136528701D01*
X234743345Y-136331821D01*
X234762232Y-136128000D01*
X234743345Y-135924179D01*
X234740287Y-135913431D01*
X234740875Y-135843566D01*
X234779142Y-135785108D01*
X234842939Y-135756618D01*
X234859554Y-135755500D01*
X241272951Y-135755500D01*
X241339990Y-135775185D01*
X241385745Y-135827989D01*
X241395689Y-135897147D01*
X241383951Y-135934772D01*
X241361849Y-135979158D01*
X241361846Y-135979164D01*
X241303296Y-136184949D01*
X241303295Y-136184952D01*
X241283554Y-136397999D01*
X241283554Y-136398000D01*
X241303295Y-136611047D01*
X241303296Y-136611050D01*
X241361846Y-136816835D01*
X241361849Y-136816841D01*
X241409048Y-136911629D01*
X241457219Y-137008370D01*
X241586159Y-137179114D01*
X241744278Y-137323258D01*
X241744283Y-137323261D01*
X241744286Y-137323263D01*
X241926186Y-137435891D01*
X241926187Y-137435891D01*
X241926190Y-137435893D01*
X242125703Y-137513185D01*
X242301845Y-137546111D01*
X242364125Y-137577779D01*
X242399398Y-137638092D01*
X242396464Y-137707900D01*
X242356255Y-137765040D01*
X242301845Y-137789888D01*
X242125703Y-137822815D01*
X242080141Y-137840466D01*
X241926192Y-137900106D01*
X241926186Y-137900108D01*
X241744286Y-138012736D01*
X241744283Y-138012738D01*
X241744279Y-138012740D01*
X241744278Y-138012742D01*
X241586159Y-138156886D01*
X241586158Y-138156887D01*
X241457219Y-138327629D01*
X241361849Y-138519158D01*
X241361846Y-138519164D01*
X241303296Y-138724949D01*
X241303295Y-138724952D01*
X241283554Y-138937999D01*
X241283554Y-138938000D01*
X241303295Y-139151047D01*
X241303296Y-139151050D01*
X241361846Y-139356835D01*
X241361849Y-139356841D01*
X241369124Y-139371451D01*
X241457219Y-139548370D01*
X241586159Y-139719114D01*
X241744278Y-139863258D01*
X241744283Y-139863261D01*
X241744286Y-139863263D01*
X241926186Y-139975891D01*
X241926187Y-139975891D01*
X241926190Y-139975893D01*
X242125703Y-140053185D01*
X242301845Y-140086111D01*
X242364125Y-140117779D01*
X242399398Y-140178092D01*
X242396464Y-140247900D01*
X242356255Y-140305040D01*
X242301845Y-140329888D01*
X242125703Y-140362815D01*
X241999533Y-140411693D01*
X241926192Y-140440106D01*
X241926186Y-140440108D01*
X241744286Y-140552736D01*
X241744283Y-140552738D01*
X241744279Y-140552740D01*
X241744278Y-140552742D01*
X241586159Y-140696886D01*
X241586158Y-140696887D01*
X241457219Y-140867629D01*
X241361849Y-141059158D01*
X241361846Y-141059164D01*
X241303296Y-141264949D01*
X241303295Y-141264952D01*
X241283554Y-141477999D01*
X241283554Y-141478000D01*
X241303295Y-141691047D01*
X241303296Y-141691050D01*
X241361846Y-141896835D01*
X241361849Y-141896840D01*
X241457219Y-142088370D01*
X241586159Y-142259114D01*
X241744278Y-142403258D01*
X241744283Y-142403261D01*
X241744286Y-142403263D01*
X241926186Y-142515891D01*
X241926187Y-142515891D01*
X241926190Y-142515893D01*
X242125703Y-142593185D01*
X242301845Y-142626111D01*
X242364125Y-142657779D01*
X242399398Y-142718092D01*
X242396464Y-142787900D01*
X242356255Y-142845040D01*
X242301845Y-142869888D01*
X242125703Y-142902815D01*
X241999533Y-142951693D01*
X241926192Y-142980106D01*
X241926186Y-142980108D01*
X241744286Y-143092736D01*
X241744283Y-143092738D01*
X241744279Y-143092740D01*
X241744278Y-143092742D01*
X241586159Y-143236886D01*
X241586158Y-143236887D01*
X241457219Y-143407629D01*
X241361849Y-143599158D01*
X241361846Y-143599164D01*
X241303296Y-143804949D01*
X241303295Y-143804952D01*
X241283554Y-144017999D01*
X241283554Y-144018000D01*
X241303295Y-144231047D01*
X241303296Y-144231050D01*
X241361846Y-144436835D01*
X241361849Y-144436840D01*
X241457219Y-144628370D01*
X241586159Y-144799114D01*
X241744278Y-144943258D01*
X241744283Y-144943261D01*
X241744286Y-144943263D01*
X241926186Y-145055891D01*
X241926187Y-145055891D01*
X241926190Y-145055893D01*
X242125703Y-145133185D01*
X242301845Y-145166111D01*
X242364125Y-145197779D01*
X242399398Y-145258092D01*
X242396464Y-145327900D01*
X242356255Y-145385040D01*
X242301845Y-145409888D01*
X242125703Y-145442815D01*
X241999533Y-145491693D01*
X241926192Y-145520106D01*
X241926186Y-145520108D01*
X241744286Y-145632736D01*
X241744283Y-145632738D01*
X241744279Y-145632740D01*
X241744278Y-145632742D01*
X241586159Y-145776886D01*
X241586158Y-145776887D01*
X241457219Y-145947629D01*
X241361849Y-146139158D01*
X241361846Y-146139164D01*
X241303296Y-146344949D01*
X241303295Y-146344952D01*
X241283554Y-146557999D01*
X241283554Y-146558000D01*
X241303295Y-146771047D01*
X241303296Y-146771050D01*
X241361846Y-146976835D01*
X241361849Y-146976840D01*
X241457219Y-147168370D01*
X241586159Y-147339114D01*
X241744278Y-147483258D01*
X241744283Y-147483261D01*
X241744286Y-147483263D01*
X241926186Y-147595891D01*
X241926187Y-147595891D01*
X241926190Y-147595893D01*
X242125703Y-147673185D01*
X242336020Y-147712500D01*
X242336022Y-147712500D01*
X242549978Y-147712500D01*
X242549980Y-147712500D01*
X242760297Y-147673185D01*
X242959810Y-147595893D01*
X243141722Y-147483258D01*
X243299841Y-147339114D01*
X243428781Y-147168370D01*
X243524151Y-146976840D01*
X243524151Y-146976837D01*
X243524153Y-146976835D01*
X243582703Y-146771050D01*
X243582704Y-146771047D01*
X243602446Y-146558000D01*
X243602446Y-146557999D01*
X243582704Y-146344952D01*
X243582703Y-146344949D01*
X243524153Y-146139164D01*
X243524150Y-146139158D01*
X243474850Y-146040150D01*
X243428781Y-145947630D01*
X243299841Y-145776886D01*
X243141722Y-145632742D01*
X243141716Y-145632738D01*
X243141713Y-145632736D01*
X242959813Y-145520108D01*
X242959807Y-145520106D01*
X242760297Y-145442815D01*
X242584153Y-145409888D01*
X242521874Y-145378221D01*
X242486601Y-145317908D01*
X242489535Y-145248100D01*
X242529744Y-145190960D01*
X242584152Y-145166112D01*
X242760297Y-145133185D01*
X242959810Y-145055893D01*
X243141722Y-144943258D01*
X243299841Y-144799114D01*
X243428781Y-144628370D01*
X243524151Y-144436840D01*
X243524151Y-144436837D01*
X243524153Y-144436835D01*
X243582703Y-144231050D01*
X243582704Y-144231047D01*
X243602446Y-144018000D01*
X243602446Y-144017999D01*
X243582704Y-143804952D01*
X243582703Y-143804949D01*
X243524153Y-143599164D01*
X243524150Y-143599158D01*
X243428781Y-143407630D01*
X243299841Y-143236886D01*
X243141722Y-143092742D01*
X243141716Y-143092738D01*
X243141713Y-143092736D01*
X242959813Y-142980108D01*
X242959807Y-142980106D01*
X242760297Y-142902815D01*
X242584153Y-142869888D01*
X242521874Y-142838221D01*
X242486601Y-142777908D01*
X242489535Y-142708100D01*
X242529744Y-142650960D01*
X242584152Y-142626112D01*
X242760297Y-142593185D01*
X242959810Y-142515893D01*
X243141722Y-142403258D01*
X243299841Y-142259114D01*
X243428781Y-142088370D01*
X243524151Y-141896840D01*
X243524151Y-141896837D01*
X243524153Y-141896835D01*
X243582703Y-141691050D01*
X243582704Y-141691047D01*
X243602446Y-141478000D01*
X243602446Y-141477999D01*
X243582704Y-141264952D01*
X243582703Y-141264949D01*
X243524153Y-141059164D01*
X243524150Y-141059158D01*
X243428781Y-140867630D01*
X243299841Y-140696886D01*
X243141722Y-140552742D01*
X243141716Y-140552738D01*
X243141713Y-140552736D01*
X242959813Y-140440108D01*
X242959807Y-140440106D01*
X242760297Y-140362815D01*
X242584153Y-140329888D01*
X242521874Y-140298221D01*
X242486601Y-140237908D01*
X242489535Y-140168100D01*
X242529744Y-140110960D01*
X242584152Y-140086112D01*
X242760297Y-140053185D01*
X242959810Y-139975893D01*
X243141722Y-139863258D01*
X243299841Y-139719114D01*
X243428781Y-139548370D01*
X243524151Y-139356840D01*
X243524151Y-139356837D01*
X243524153Y-139356835D01*
X243580706Y-139158070D01*
X243582704Y-139151048D01*
X243602446Y-138938000D01*
X243582704Y-138724952D01*
X243574200Y-138695065D01*
X243524153Y-138519164D01*
X243524150Y-138519158D01*
X243516875Y-138504548D01*
X243428781Y-138327630D01*
X243299841Y-138156886D01*
X243141722Y-138012742D01*
X243141716Y-138012738D01*
X243141713Y-138012736D01*
X242959813Y-137900108D01*
X242959807Y-137900106D01*
X242760297Y-137822815D01*
X242584153Y-137789888D01*
X242521874Y-137758221D01*
X242486601Y-137697908D01*
X242489535Y-137628100D01*
X242529744Y-137570960D01*
X242584152Y-137546112D01*
X242760297Y-137513185D01*
X242959810Y-137435893D01*
X243141722Y-137323258D01*
X243299841Y-137179114D01*
X243428781Y-137008370D01*
X243524151Y-136816840D01*
X243524151Y-136816837D01*
X243524153Y-136816835D01*
X243580706Y-136618070D01*
X243582704Y-136611048D01*
X243602446Y-136398000D01*
X243582704Y-136184952D01*
X243566500Y-136128000D01*
X243524153Y-135979164D01*
X243524150Y-135979158D01*
X243502049Y-135934772D01*
X243489788Y-135865986D01*
X243516661Y-135801491D01*
X243574137Y-135761764D01*
X243613049Y-135755500D01*
X248740504Y-135755500D01*
X248740504Y-135755499D01*
X248751368Y-135753338D01*
X248753027Y-135753009D01*
X248822619Y-135759236D01*
X248877796Y-135802099D01*
X248901041Y-135867988D01*
X248889602Y-135927029D01*
X248872107Y-135964548D01*
X248872104Y-135964554D01*
X248814930Y-136177929D01*
X248814929Y-136177937D01*
X248795677Y-136397997D01*
X248795677Y-136398002D01*
X248814929Y-136618062D01*
X248814930Y-136618070D01*
X248872104Y-136831445D01*
X248872105Y-136831447D01*
X248872106Y-136831450D01*
X248909492Y-136911624D01*
X248965466Y-137031662D01*
X248965468Y-137031666D01*
X249092170Y-137212615D01*
X249092175Y-137212621D01*
X249248378Y-137368824D01*
X249248384Y-137368829D01*
X249429333Y-137495531D01*
X249429335Y-137495532D01*
X249429338Y-137495534D01*
X249537801Y-137546111D01*
X249558189Y-137555618D01*
X249610628Y-137601790D01*
X249629780Y-137668984D01*
X249609564Y-137735865D01*
X249558189Y-137780382D01*
X249429340Y-137840465D01*
X249429338Y-137840466D01*
X249248377Y-137967175D01*
X249092175Y-138123377D01*
X248965466Y-138304338D01*
X248965465Y-138304340D01*
X248872107Y-138504548D01*
X248872104Y-138504554D01*
X248814930Y-138717929D01*
X248814929Y-138717937D01*
X248795677Y-138937997D01*
X248795677Y-138938002D01*
X248814929Y-139158062D01*
X248814930Y-139158070D01*
X248872104Y-139371445D01*
X248872105Y-139371447D01*
X248872106Y-139371450D01*
X248954605Y-139548370D01*
X248965466Y-139571662D01*
X248965468Y-139571666D01*
X249092170Y-139752615D01*
X249092175Y-139752621D01*
X249248378Y-139908824D01*
X249248384Y-139908829D01*
X249429333Y-140035531D01*
X249429335Y-140035532D01*
X249429338Y-140035534D01*
X249629550Y-140128894D01*
X249842932Y-140186070D01*
X250000123Y-140199822D01*
X250062998Y-140205323D01*
X250063000Y-140205323D01*
X250063002Y-140205323D01*
X250118017Y-140200509D01*
X250283068Y-140186070D01*
X250496450Y-140128894D01*
X250696662Y-140035534D01*
X250877620Y-139908826D01*
X251033826Y-139752620D01*
X251160534Y-139571662D01*
X251253894Y-139371450D01*
X251311070Y-139158068D01*
X251330323Y-138938000D01*
X251311070Y-138717932D01*
X251253894Y-138504550D01*
X251160534Y-138304339D01*
X251033826Y-138123380D01*
X250877620Y-137967174D01*
X250877616Y-137967171D01*
X250877615Y-137967170D01*
X250696666Y-137840468D01*
X250696658Y-137840464D01*
X250567811Y-137780382D01*
X250515371Y-137734210D01*
X250496219Y-137667017D01*
X250516435Y-137600135D01*
X250567811Y-137555618D01*
X250573802Y-137552824D01*
X250696662Y-137495534D01*
X250877620Y-137368826D01*
X251033826Y-137212620D01*
X251160534Y-137031662D01*
X251253894Y-136831450D01*
X251311070Y-136618068D01*
X251330323Y-136398000D01*
X251328063Y-136372173D01*
X251311684Y-136184952D01*
X251311070Y-136177932D01*
X251253894Y-135964550D01*
X251160534Y-135764339D01*
X251033826Y-135583380D01*
X250877620Y-135427174D01*
X250877616Y-135427171D01*
X250877615Y-135427170D01*
X250696666Y-135300468D01*
X250696658Y-135300464D01*
X250567811Y-135240382D01*
X250515371Y-135194210D01*
X250496219Y-135127017D01*
X250516435Y-135060135D01*
X250567811Y-135015618D01*
X250573802Y-135012824D01*
X250696662Y-134955534D01*
X250877620Y-134828826D01*
X251033826Y-134672620D01*
X251160534Y-134491662D01*
X251253894Y-134291450D01*
X251311070Y-134078068D01*
X251330323Y-133858000D01*
X251311070Y-133637932D01*
X251253894Y-133424550D01*
X251160534Y-133224339D01*
X251033826Y-133043380D01*
X250877620Y-132887174D01*
X250877616Y-132887171D01*
X250877615Y-132887170D01*
X250696666Y-132760468D01*
X250696658Y-132760464D01*
X250567811Y-132700382D01*
X250515371Y-132654210D01*
X250496219Y-132587017D01*
X250516435Y-132520135D01*
X250567811Y-132475618D01*
X250573802Y-132472824D01*
X250696662Y-132415534D01*
X250877620Y-132288826D01*
X251033826Y-132132620D01*
X251160534Y-131951662D01*
X251253894Y-131751450D01*
X251311070Y-131538068D01*
X251330323Y-131318000D01*
X251311070Y-131097932D01*
X251253894Y-130884550D01*
X251160534Y-130684339D01*
X251097180Y-130593859D01*
X251033827Y-130503381D01*
X250969901Y-130439455D01*
X250877620Y-130347174D01*
X250877616Y-130347171D01*
X250877615Y-130347170D01*
X250696666Y-130220468D01*
X250696658Y-130220464D01*
X250567811Y-130160382D01*
X250515371Y-130114210D01*
X250496219Y-130047017D01*
X250516435Y-129980135D01*
X250567811Y-129935618D01*
X250573802Y-129932824D01*
X250696662Y-129875534D01*
X250877620Y-129748826D01*
X251033826Y-129592620D01*
X251160534Y-129411662D01*
X251253894Y-129211450D01*
X251311070Y-128998068D01*
X251330323Y-128778000D01*
X251311070Y-128557932D01*
X251253894Y-128344550D01*
X251160534Y-128144339D01*
X251056254Y-127995411D01*
X251033827Y-127963381D01*
X251001173Y-127930727D01*
X250877620Y-127807174D01*
X250877616Y-127807171D01*
X250877615Y-127807170D01*
X250696666Y-127680468D01*
X250696662Y-127680466D01*
X250658809Y-127662815D01*
X250496450Y-127587106D01*
X250496447Y-127587105D01*
X250496445Y-127587104D01*
X250283070Y-127529930D01*
X250283062Y-127529929D01*
X250063002Y-127510677D01*
X250062998Y-127510677D01*
X249842937Y-127529929D01*
X249842929Y-127529930D01*
X249629554Y-127587104D01*
X249629548Y-127587107D01*
X249429340Y-127680465D01*
X249429338Y-127680466D01*
X249248377Y-127807175D01*
X249092175Y-127963377D01*
X248965466Y-128144338D01*
X248965465Y-128144340D01*
X248872107Y-128344548D01*
X248872104Y-128344554D01*
X248814930Y-128557929D01*
X248814929Y-128557937D01*
X248795677Y-128777997D01*
X248795677Y-128778002D01*
X248814929Y-128998062D01*
X248814930Y-128998070D01*
X248872104Y-129211445D01*
X248872105Y-129211447D01*
X248872106Y-129211450D01*
X248954605Y-129388370D01*
X248965466Y-129411662D01*
X248965468Y-129411666D01*
X249092170Y-129592615D01*
X249092175Y-129592621D01*
X249248378Y-129748824D01*
X249248384Y-129748829D01*
X249429333Y-129875531D01*
X249429335Y-129875532D01*
X249429338Y-129875534D01*
X249537801Y-129926111D01*
X249558189Y-129935618D01*
X249610628Y-129981790D01*
X249629780Y-130048984D01*
X249609564Y-130115865D01*
X249558189Y-130160382D01*
X249429340Y-130220465D01*
X249429338Y-130220466D01*
X249248377Y-130347175D01*
X249092175Y-130503377D01*
X248965466Y-130684338D01*
X248965465Y-130684340D01*
X248872107Y-130884548D01*
X248872104Y-130884554D01*
X248814930Y-131097929D01*
X248814929Y-131097937D01*
X248795677Y-131317997D01*
X248795677Y-131318002D01*
X248814929Y-131538062D01*
X248814930Y-131538070D01*
X248872104Y-131751445D01*
X248872105Y-131751447D01*
X248872106Y-131751450D01*
X248920514Y-131855262D01*
X248965466Y-131951662D01*
X248965468Y-131951666D01*
X249092170Y-132132615D01*
X249092175Y-132132621D01*
X249248378Y-132288824D01*
X249248384Y-132288829D01*
X249429333Y-132415531D01*
X249429335Y-132415532D01*
X249429338Y-132415534D01*
X249537801Y-132466111D01*
X249558189Y-132475618D01*
X249610628Y-132521790D01*
X249629780Y-132588984D01*
X249609564Y-132655865D01*
X249558189Y-132700382D01*
X249429340Y-132760465D01*
X249429338Y-132760466D01*
X249248377Y-132887175D01*
X249092175Y-133043377D01*
X248965466Y-133224338D01*
X248965465Y-133224340D01*
X248872107Y-133424548D01*
X248872104Y-133424554D01*
X248814930Y-133637929D01*
X248814929Y-133637937D01*
X248795677Y-133857997D01*
X248795677Y-133858002D01*
X248812005Y-134044634D01*
X248798238Y-134113134D01*
X248776158Y-134143122D01*
X248455100Y-134464181D01*
X248393777Y-134497666D01*
X248367419Y-134500500D01*
X243613049Y-134500500D01*
X243546010Y-134480815D01*
X243500255Y-134428011D01*
X243490311Y-134358853D01*
X243502049Y-134321228D01*
X243512578Y-134300080D01*
X243524151Y-134276840D01*
X243524151Y-134276837D01*
X243524153Y-134276835D01*
X243580706Y-134078069D01*
X243582704Y-134071048D01*
X243602446Y-133858000D01*
X243595051Y-133778201D01*
X243582704Y-133644952D01*
X243582703Y-133644949D01*
X243524153Y-133439164D01*
X243524150Y-133439158D01*
X243495049Y-133380715D01*
X243428781Y-133247630D01*
X243299841Y-133076886D01*
X243141722Y-132932742D01*
X243141716Y-132932738D01*
X243141713Y-132932736D01*
X242959813Y-132820108D01*
X242959807Y-132820106D01*
X242760297Y-132742815D01*
X242584153Y-132709888D01*
X242521874Y-132678221D01*
X242486601Y-132617908D01*
X242489535Y-132548100D01*
X242529744Y-132490960D01*
X242584152Y-132466112D01*
X242760297Y-132433185D01*
X242959810Y-132355893D01*
X243141722Y-132243258D01*
X243299841Y-132099114D01*
X243428781Y-131928370D01*
X243524151Y-131736840D01*
X243524151Y-131736837D01*
X243524153Y-131736835D01*
X243580706Y-131538070D01*
X243582704Y-131531048D01*
X243602446Y-131318000D01*
X243582704Y-131104952D01*
X243553832Y-131003476D01*
X243524153Y-130899164D01*
X243524150Y-130899158D01*
X243469503Y-130789411D01*
X243428781Y-130707630D01*
X243299841Y-130536886D01*
X243141722Y-130392742D01*
X243141716Y-130392738D01*
X243141713Y-130392736D01*
X242959813Y-130280108D01*
X242959807Y-130280106D01*
X242760297Y-130202815D01*
X242584153Y-130169888D01*
X242521874Y-130138221D01*
X242486601Y-130077908D01*
X242489535Y-130008100D01*
X242529744Y-129950960D01*
X242584152Y-129926112D01*
X242760297Y-129893185D01*
X242959810Y-129815893D01*
X243141722Y-129703258D01*
X243299841Y-129559114D01*
X243428781Y-129388370D01*
X243524151Y-129196840D01*
X243524151Y-129196837D01*
X243524153Y-129196835D01*
X243561862Y-129064300D01*
X243582704Y-128991048D01*
X243602446Y-128778000D01*
X243582704Y-128564952D01*
X243546346Y-128437166D01*
X243524153Y-128359164D01*
X243524150Y-128359158D01*
X243502461Y-128315600D01*
X243428781Y-128167630D01*
X243299841Y-127996886D01*
X243141722Y-127852742D01*
X243141716Y-127852738D01*
X243141713Y-127852736D01*
X242959813Y-127740108D01*
X242959807Y-127740106D01*
X242760297Y-127662815D01*
X242584153Y-127629888D01*
X242521874Y-127598221D01*
X242486601Y-127537908D01*
X242489535Y-127468100D01*
X242529744Y-127410960D01*
X242584152Y-127386112D01*
X242760297Y-127353185D01*
X242959810Y-127275893D01*
X243141722Y-127163258D01*
X243299841Y-127019114D01*
X243428781Y-126848370D01*
X243524151Y-126656840D01*
X243524151Y-126656837D01*
X243524153Y-126656835D01*
X243569577Y-126497184D01*
X243582704Y-126451048D01*
X243602446Y-126238000D01*
X243582704Y-126024952D01*
X243548249Y-125903855D01*
X243524153Y-125819164D01*
X243524150Y-125819158D01*
X243501721Y-125774114D01*
X243428781Y-125627630D01*
X243299841Y-125456886D01*
X243141722Y-125312742D01*
X243141716Y-125312738D01*
X243141713Y-125312736D01*
X242959813Y-125200108D01*
X242959807Y-125200106D01*
X242760297Y-125122815D01*
X242584153Y-125089888D01*
X242521874Y-125058221D01*
X242486601Y-124997908D01*
X242489535Y-124928100D01*
X242529744Y-124870960D01*
X242584152Y-124846112D01*
X242760297Y-124813185D01*
X242959810Y-124735893D01*
X243141722Y-124623258D01*
X243299841Y-124479114D01*
X243428781Y-124308370D01*
X243524151Y-124116840D01*
X243524151Y-124116837D01*
X243524153Y-124116835D01*
X243582703Y-123911050D01*
X243582704Y-123911047D01*
X243584748Y-123888995D01*
X243602446Y-123698000D01*
X243582704Y-123484952D01*
X243574200Y-123455065D01*
X243524153Y-123279164D01*
X243524150Y-123279158D01*
X243460773Y-123151880D01*
X243428781Y-123087630D01*
X243299841Y-122916886D01*
X243141722Y-122772742D01*
X243141716Y-122772738D01*
X243141713Y-122772736D01*
X242959813Y-122660108D01*
X242959807Y-122660106D01*
X242760297Y-122582815D01*
X242584153Y-122549888D01*
X242521874Y-122518221D01*
X242486601Y-122457908D01*
X242489535Y-122388100D01*
X242529744Y-122330960D01*
X242584152Y-122306112D01*
X242760297Y-122273185D01*
X242959810Y-122195893D01*
X243141722Y-122083258D01*
X243299841Y-121939114D01*
X243428781Y-121768370D01*
X243524151Y-121576840D01*
X243524151Y-121576837D01*
X243524153Y-121576835D01*
X243557679Y-121459000D01*
X243582704Y-121371048D01*
X243602446Y-121158000D01*
X243582704Y-120944952D01*
X243574200Y-120915065D01*
X243524153Y-120739164D01*
X243524150Y-120739158D01*
X243428781Y-120547630D01*
X243299841Y-120376886D01*
X243141722Y-120232742D01*
X243141716Y-120232738D01*
X243141713Y-120232736D01*
X242959813Y-120120108D01*
X242959807Y-120120106D01*
X242760297Y-120042815D01*
X242584153Y-120009888D01*
X242521874Y-119978221D01*
X242486601Y-119917908D01*
X242489535Y-119848100D01*
X242529744Y-119790960D01*
X242584152Y-119766112D01*
X242760297Y-119733185D01*
X242959810Y-119655893D01*
X243141722Y-119543258D01*
X243299841Y-119399114D01*
X243428781Y-119228370D01*
X243524151Y-119036840D01*
X243524151Y-119036837D01*
X243524153Y-119036835D01*
X243582703Y-118831050D01*
X243582704Y-118831047D01*
X243602446Y-118618000D01*
X243602446Y-118617999D01*
X243582704Y-118404952D01*
X243582703Y-118404949D01*
X243524153Y-118199164D01*
X243524150Y-118199158D01*
X243428781Y-118007630D01*
X243362776Y-117920226D01*
X243338085Y-117854866D01*
X243352650Y-117786531D01*
X243401847Y-117736919D01*
X243461731Y-117721500D01*
X246314804Y-117721500D01*
X246314805Y-117721499D01*
X246436035Y-117697386D01*
X246516784Y-117663937D01*
X246550233Y-117650083D01*
X246653008Y-117581411D01*
X246740411Y-117494008D01*
X249146239Y-115088178D01*
X249207560Y-115054695D01*
X249277252Y-115059679D01*
X249305041Y-115074286D01*
X249403933Y-115143531D01*
X249403935Y-115143532D01*
X249403938Y-115143534D01*
X249523348Y-115199215D01*
X249532789Y-115203618D01*
X249585228Y-115249790D01*
X249604380Y-115316984D01*
X249584164Y-115383865D01*
X249532789Y-115428382D01*
X249403940Y-115488465D01*
X249403938Y-115488466D01*
X249222977Y-115615175D01*
X249066775Y-115771377D01*
X248940066Y-115952338D01*
X248940065Y-115952340D01*
X248846707Y-116152548D01*
X248846704Y-116152554D01*
X248789530Y-116365929D01*
X248789529Y-116365937D01*
X248770277Y-116585997D01*
X248770277Y-116586002D01*
X248789529Y-116806062D01*
X248789530Y-116806070D01*
X248846704Y-117019445D01*
X248846705Y-117019447D01*
X248846706Y-117019450D01*
X248884229Y-117099919D01*
X248940066Y-117219662D01*
X248940068Y-117219666D01*
X249066770Y-117400615D01*
X249066775Y-117400621D01*
X249222978Y-117556824D01*
X249222984Y-117556829D01*
X249403933Y-117683531D01*
X249403935Y-117683532D01*
X249403938Y-117683534D01*
X249604150Y-117776894D01*
X249817532Y-117834070D01*
X249974723Y-117847822D01*
X250037598Y-117853323D01*
X250037600Y-117853323D01*
X250037602Y-117853323D01*
X250092617Y-117848509D01*
X250257668Y-117834070D01*
X250471050Y-117776894D01*
X250671262Y-117683534D01*
X250852220Y-117556826D01*
X251008426Y-117400620D01*
X251135134Y-117219662D01*
X251228494Y-117019450D01*
X251285670Y-116806068D01*
X251304923Y-116586000D01*
X251285670Y-116365932D01*
X251228494Y-116152550D01*
X251135134Y-115952339D01*
X251008426Y-115771380D01*
X250852220Y-115615174D01*
X250852216Y-115615171D01*
X250852215Y-115615170D01*
X250671266Y-115488468D01*
X250671258Y-115488464D01*
X250542411Y-115428382D01*
X250489971Y-115382210D01*
X250470819Y-115315017D01*
X250491035Y-115248135D01*
X250542411Y-115203618D01*
X250548402Y-115200824D01*
X250671262Y-115143534D01*
X250852220Y-115016826D01*
X251008426Y-114860620D01*
X251135134Y-114679662D01*
X251228494Y-114479450D01*
X251285670Y-114266068D01*
X251304923Y-114046000D01*
X251285670Y-113825932D01*
X251228494Y-113612550D01*
X251135134Y-113412339D01*
X251008426Y-113231380D01*
X250852220Y-113075174D01*
X250852216Y-113075171D01*
X250852215Y-113075170D01*
X250671266Y-112948468D01*
X250671258Y-112948464D01*
X250542411Y-112888382D01*
X250489971Y-112842210D01*
X250470819Y-112775017D01*
X250491035Y-112708135D01*
X250542411Y-112663618D01*
X250548402Y-112660824D01*
X250671262Y-112603534D01*
X250852220Y-112476826D01*
X251008426Y-112320620D01*
X251135134Y-112139662D01*
X251228494Y-111939450D01*
X251285670Y-111726068D01*
X251304923Y-111506000D01*
X251285670Y-111285932D01*
X251228494Y-111072550D01*
X251135134Y-110872339D01*
X251041373Y-110738433D01*
X251008427Y-110691381D01*
X251008423Y-110691377D01*
X250852220Y-110535174D01*
X250852216Y-110535171D01*
X250852215Y-110535170D01*
X250671266Y-110408468D01*
X250671258Y-110408464D01*
X250542411Y-110348382D01*
X250489971Y-110302210D01*
X250470819Y-110235017D01*
X250491035Y-110168135D01*
X250542411Y-110123618D01*
X250552709Y-110118816D01*
X250671262Y-110063534D01*
X250852220Y-109936826D01*
X251008426Y-109780620D01*
X251135134Y-109599662D01*
X251228494Y-109399450D01*
X251285670Y-109186068D01*
X251304923Y-108966000D01*
X251285670Y-108745932D01*
X251228494Y-108532550D01*
X251135134Y-108332339D01*
X251008426Y-108151380D01*
X250852220Y-107995174D01*
X250852216Y-107995171D01*
X250852215Y-107995170D01*
X250671266Y-107868468D01*
X250671262Y-107868466D01*
X250626579Y-107847630D01*
X250471050Y-107775106D01*
X250471047Y-107775105D01*
X250471045Y-107775104D01*
X250257670Y-107717930D01*
X250257662Y-107717929D01*
X250037602Y-107698677D01*
X250037598Y-107698677D01*
X249817537Y-107717929D01*
X249817529Y-107717930D01*
X249604154Y-107775104D01*
X249604148Y-107775107D01*
X249403940Y-107868465D01*
X249403938Y-107868466D01*
X249222977Y-107995175D01*
X249066774Y-108151378D01*
X248948269Y-108320623D01*
X248893692Y-108364248D01*
X248846694Y-108373500D01*
X248696192Y-108373500D01*
X248574972Y-108397612D01*
X248574964Y-108397614D01*
X248494215Y-108431062D01*
X248460767Y-108444917D01*
X248441187Y-108458000D01*
X248357989Y-108513590D01*
X245567075Y-111304504D01*
X245505752Y-111337989D01*
X245436060Y-111333005D01*
X245380127Y-111291133D01*
X245355710Y-111225669D01*
X245355991Y-111204667D01*
X245356500Y-111199499D01*
X245356500Y-105467281D01*
X245376185Y-105400242D01*
X245392819Y-105379600D01*
X246222600Y-104549819D01*
X246283923Y-104516334D01*
X246310281Y-104513500D01*
X248871201Y-104513500D01*
X248938240Y-104533185D01*
X248972776Y-104566377D01*
X249066770Y-104700615D01*
X249066775Y-104700621D01*
X249222978Y-104856824D01*
X249222984Y-104856829D01*
X249403933Y-104983531D01*
X249403935Y-104983532D01*
X249403938Y-104983534D01*
X249604150Y-105076894D01*
X249817532Y-105134070D01*
X249974723Y-105147822D01*
X250037598Y-105153323D01*
X250037600Y-105153323D01*
X250037602Y-105153323D01*
X250092617Y-105148509D01*
X250257668Y-105134070D01*
X250471050Y-105076894D01*
X250671262Y-104983534D01*
X250852220Y-104856826D01*
X251008426Y-104700620D01*
X251135134Y-104519662D01*
X251228494Y-104319450D01*
X251285670Y-104106068D01*
X251301596Y-103924028D01*
X251304923Y-103886002D01*
X251304923Y-103885997D01*
X251285670Y-103665937D01*
X251285670Y-103665932D01*
X251228494Y-103452550D01*
X251135134Y-103252339D01*
X251008426Y-103071380D01*
X250852220Y-102915174D01*
X250852216Y-102915171D01*
X250852215Y-102915170D01*
X250671266Y-102788468D01*
X250671262Y-102788466D01*
X250626579Y-102767630D01*
X250471050Y-102695106D01*
X250471047Y-102695105D01*
X250471045Y-102695104D01*
X250257670Y-102637930D01*
X250257662Y-102637929D01*
X250037602Y-102618677D01*
X250037598Y-102618677D01*
X249817537Y-102637929D01*
X249817529Y-102637930D01*
X249604154Y-102695104D01*
X249604148Y-102695107D01*
X249403940Y-102788465D01*
X249403938Y-102788466D01*
X249222977Y-102915175D01*
X249066774Y-103071378D01*
X248972776Y-103205623D01*
X248918199Y-103249248D01*
X248871201Y-103258500D01*
X245937195Y-103258500D01*
X245815970Y-103282613D01*
X245815960Y-103282616D01*
X245701773Y-103329913D01*
X245701760Y-103329920D01*
X245629807Y-103377998D01*
X245629806Y-103378000D01*
X245599791Y-103398055D01*
X245598986Y-103398593D01*
X245060181Y-103937399D01*
X244998858Y-103970884D01*
X244929166Y-103965900D01*
X244873233Y-103924028D01*
X244848816Y-103858564D01*
X244848500Y-103849718D01*
X244848500Y-90870194D01*
X244830564Y-90780029D01*
X244830564Y-90780024D01*
X244824387Y-90748973D01*
X244824386Y-90748966D01*
X244779407Y-90640379D01*
X244777763Y-90635784D01*
X244708414Y-90531996D01*
X244708413Y-90531994D01*
X244668284Y-90491865D01*
X244621008Y-90444589D01*
X243503925Y-89327506D01*
X242370011Y-88193591D01*
X242370010Y-88193590D01*
X242347783Y-88178739D01*
X242347782Y-88178738D01*
X242267239Y-88124920D01*
X242267226Y-88124913D01*
X242233785Y-88111062D01*
X242153035Y-88077614D01*
X242153027Y-88077612D01*
X242031807Y-88053500D01*
X242031803Y-88053500D01*
X212670722Y-88053500D01*
X212604750Y-88034494D01*
X212478573Y-87955211D01*
X212308304Y-87895631D01*
X212308299Y-87895630D01*
X212129054Y-87875435D01*
X212129046Y-87875435D01*
X211949800Y-87895630D01*
X211949795Y-87895631D01*
X211779526Y-87955211D01*
X211626787Y-88051184D01*
X211499234Y-88178737D01*
X211403261Y-88331476D01*
X211343681Y-88501745D01*
X211343680Y-88501750D01*
X211323485Y-88680996D01*
X211323485Y-88681003D01*
X211343680Y-88860249D01*
X211343681Y-88860254D01*
X211403261Y-89030523D01*
X211480847Y-89154000D01*
X211499234Y-89183262D01*
X211626788Y-89310816D01*
X211717130Y-89367582D01*
X211738467Y-89380989D01*
X211779528Y-89406789D01*
X211903438Y-89450147D01*
X211949795Y-89466368D01*
X211949800Y-89466369D01*
X212129046Y-89486565D01*
X212129050Y-89486565D01*
X212129054Y-89486565D01*
X212308299Y-89466369D01*
X212308302Y-89466368D01*
X212308305Y-89466368D01*
X212478572Y-89406789D01*
X212604750Y-89327505D01*
X212670722Y-89308500D01*
X226907996Y-89308500D01*
X226975035Y-89328185D01*
X227020790Y-89380989D01*
X227030734Y-89450147D01*
X227001709Y-89513703D01*
X226942931Y-89551477D01*
X226930790Y-89554386D01*
X226885703Y-89562815D01*
X226769439Y-89607856D01*
X226686192Y-89640106D01*
X226686186Y-89640108D01*
X226504286Y-89752736D01*
X226504283Y-89752738D01*
X226504279Y-89752740D01*
X226504278Y-89752742D01*
X226346159Y-89896886D01*
X226346158Y-89896887D01*
X226217219Y-90067629D01*
X226121849Y-90259158D01*
X226121846Y-90259164D01*
X226063296Y-90464949D01*
X226063295Y-90464952D01*
X226043554Y-90677999D01*
X226043554Y-90678000D01*
X226063295Y-90891047D01*
X226063296Y-90891050D01*
X226121846Y-91096835D01*
X226121849Y-91096841D01*
X226169192Y-91191919D01*
X226217219Y-91288370D01*
X226346159Y-91459114D01*
X226504278Y-91603258D01*
X226504283Y-91603261D01*
X226504286Y-91603263D01*
X226686186Y-91715891D01*
X226686187Y-91715891D01*
X226686190Y-91715893D01*
X226885703Y-91793185D01*
X227061845Y-91826111D01*
X227124125Y-91857779D01*
X227159398Y-91918092D01*
X227156464Y-91987900D01*
X227116255Y-92045040D01*
X227061845Y-92069888D01*
X226885703Y-92102815D01*
X226759533Y-92151693D01*
X226686192Y-92180106D01*
X226686186Y-92180108D01*
X226504286Y-92292736D01*
X226504283Y-92292738D01*
X226504279Y-92292740D01*
X226504278Y-92292742D01*
X226346159Y-92436886D01*
X226346158Y-92436887D01*
X226217219Y-92607629D01*
X226121849Y-92799158D01*
X226121846Y-92799164D01*
X226063296Y-93004949D01*
X226063295Y-93004952D01*
X226043554Y-93217999D01*
X226043554Y-93218000D01*
X226063295Y-93431047D01*
X226063296Y-93431050D01*
X226121846Y-93636835D01*
X226121849Y-93636841D01*
X226217219Y-93828370D01*
X226309654Y-93950773D01*
X226334346Y-94016134D01*
X226319781Y-94084469D01*
X226270584Y-94134081D01*
X226210700Y-94149500D01*
X212670722Y-94149500D01*
X212604750Y-94130494D01*
X212478573Y-94051211D01*
X212308304Y-93991631D01*
X212308299Y-93991630D01*
X212129054Y-93971435D01*
X212129046Y-93971435D01*
X211949800Y-93991630D01*
X211949795Y-93991631D01*
X211779526Y-94051211D01*
X211626787Y-94147184D01*
X211499234Y-94274737D01*
X211403261Y-94427476D01*
X211343681Y-94597745D01*
X211343680Y-94597750D01*
X211323485Y-94776996D01*
X211323485Y-94777003D01*
X211343680Y-94956249D01*
X211343681Y-94956254D01*
X211403261Y-95126523D01*
X211499234Y-95279262D01*
X211626788Y-95406816D01*
X211653350Y-95423506D01*
X211777194Y-95501323D01*
X211779528Y-95502789D01*
X211900023Y-95544952D01*
X211949795Y-95562368D01*
X211949800Y-95562369D01*
X212129046Y-95582565D01*
X212129050Y-95582565D01*
X212129054Y-95582565D01*
X212308299Y-95562369D01*
X212308302Y-95562368D01*
X212308305Y-95562368D01*
X212478572Y-95502789D01*
X212604750Y-95423505D01*
X212670722Y-95404500D01*
X225940289Y-95404500D01*
X226007328Y-95424185D01*
X226053083Y-95476989D01*
X226063760Y-95539941D01*
X226043554Y-95757999D01*
X226043554Y-95758000D01*
X226063295Y-95971047D01*
X226063296Y-95971050D01*
X226121846Y-96176835D01*
X226121849Y-96176841D01*
X226161379Y-96256228D01*
X226173640Y-96325014D01*
X226146767Y-96389509D01*
X226089291Y-96429236D01*
X226050379Y-96435500D01*
X203296331Y-96435500D01*
X203229292Y-96415815D01*
X203208650Y-96399181D01*
X196490386Y-89680917D01*
X196456901Y-89619594D01*
X196458291Y-89561147D01*
X196508420Y-89374068D01*
X196527673Y-89154000D01*
X196508420Y-88933932D01*
X196451244Y-88720550D01*
X196357884Y-88520339D01*
X196231176Y-88339380D01*
X196074970Y-88183174D01*
X196074966Y-88183171D01*
X196074965Y-88183170D01*
X195894016Y-88056468D01*
X195894008Y-88056464D01*
X195765161Y-87996382D01*
X195712721Y-87950210D01*
X195693569Y-87883017D01*
X195713785Y-87816135D01*
X195765161Y-87771618D01*
X195771152Y-87768824D01*
X195894012Y-87711534D01*
X196074970Y-87584826D01*
X196231176Y-87428620D01*
X196357884Y-87247662D01*
X196451244Y-87047450D01*
X196508420Y-86834068D01*
X196527673Y-86614000D01*
X196508420Y-86393932D01*
X196451244Y-86180550D01*
X196357884Y-85980339D01*
X196231176Y-85799380D01*
X196074970Y-85643174D01*
X196074966Y-85643171D01*
X196074965Y-85643170D01*
X195894016Y-85516468D01*
X195894012Y-85516466D01*
X195894010Y-85516465D01*
X195693800Y-85423106D01*
X195693797Y-85423105D01*
X195693795Y-85423104D01*
X195480420Y-85365930D01*
X195480412Y-85365929D01*
X195260352Y-85346677D01*
X195260348Y-85346677D01*
X195040287Y-85365929D01*
X195040279Y-85365930D01*
X194826904Y-85423104D01*
X194826898Y-85423107D01*
X194626690Y-85516465D01*
X194626688Y-85516466D01*
X194445727Y-85643175D01*
X194289525Y-85799377D01*
X194162816Y-85980338D01*
X194162815Y-85980340D01*
X194069457Y-86180548D01*
X194069454Y-86180554D01*
X194012280Y-86393929D01*
X194012279Y-86393937D01*
X193993027Y-86613997D01*
X191000500Y-86613997D01*
X191000500Y-83312000D01*
X231989417Y-83312000D01*
X232009699Y-83517932D01*
X232009700Y-83517934D01*
X232069768Y-83715954D01*
X232167315Y-83898450D01*
X232181213Y-83915385D01*
X232298589Y-84058410D01*
X232395209Y-84137702D01*
X232458550Y-84189685D01*
X232641046Y-84287232D01*
X232839066Y-84347300D01*
X232839065Y-84347300D01*
X232857529Y-84349118D01*
X233045000Y-84367583D01*
X233250934Y-84347300D01*
X233448954Y-84287232D01*
X233631450Y-84189685D01*
X233791410Y-84058410D01*
X233922685Y-83898450D01*
X234020232Y-83715954D01*
X234080300Y-83517934D01*
X234100583Y-83312000D01*
X234080300Y-83106066D01*
X234020232Y-82908046D01*
X233922685Y-82725550D01*
X233851791Y-82639165D01*
X233791410Y-82565589D01*
X233631452Y-82434317D01*
X233631453Y-82434317D01*
X233631450Y-82434315D01*
X233448954Y-82336768D01*
X233250934Y-82276700D01*
X233250932Y-82276699D01*
X233250934Y-82276699D01*
X233045000Y-82256417D01*
X232839067Y-82276699D01*
X232641043Y-82336769D01*
X232530898Y-82395643D01*
X232458550Y-82434315D01*
X232458548Y-82434316D01*
X232458547Y-82434317D01*
X232298589Y-82565589D01*
X232167317Y-82725547D01*
X232069769Y-82908043D01*
X232009699Y-83106067D01*
X231989417Y-83312000D01*
X191000500Y-83312000D01*
X191000500Y-80772000D01*
X230719417Y-80772000D01*
X230739699Y-80977932D01*
X230739700Y-80977934D01*
X230799768Y-81175954D01*
X230897315Y-81358450D01*
X230897317Y-81358452D01*
X231028589Y-81518410D01*
X231125209Y-81597702D01*
X231188550Y-81649685D01*
X231371046Y-81747232D01*
X231569066Y-81807300D01*
X231569065Y-81807300D01*
X231587529Y-81809118D01*
X231775000Y-81827583D01*
X231980934Y-81807300D01*
X232178954Y-81747232D01*
X232361450Y-81649685D01*
X232521410Y-81518410D01*
X232652685Y-81358450D01*
X232750232Y-81175954D01*
X232810300Y-80977934D01*
X232830583Y-80772000D01*
X233259417Y-80772000D01*
X233279699Y-80977932D01*
X233279700Y-80977934D01*
X233339768Y-81175954D01*
X233437315Y-81358450D01*
X233437317Y-81358452D01*
X233568589Y-81518410D01*
X233665209Y-81597702D01*
X233728550Y-81649685D01*
X233911046Y-81747232D01*
X234109066Y-81807300D01*
X234109065Y-81807300D01*
X234129348Y-81809297D01*
X234315000Y-81827583D01*
X234409721Y-81818253D01*
X234478365Y-81831271D01*
X234509555Y-81853975D01*
X234951979Y-82296398D01*
X234985464Y-82357721D01*
X234980480Y-82427412D01*
X234942963Y-82479932D01*
X234838590Y-82565589D01*
X234707317Y-82725547D01*
X234609769Y-82908043D01*
X234549699Y-83106067D01*
X234529417Y-83312000D01*
X234549699Y-83517932D01*
X234549700Y-83517934D01*
X234609768Y-83715954D01*
X234707315Y-83898450D01*
X234721213Y-83915385D01*
X234838589Y-84058410D01*
X234935209Y-84137702D01*
X234998550Y-84189685D01*
X235181046Y-84287232D01*
X235379066Y-84347300D01*
X235379065Y-84347300D01*
X235397529Y-84349118D01*
X235585000Y-84367583D01*
X235790934Y-84347300D01*
X235988954Y-84287232D01*
X236171450Y-84189685D01*
X236331410Y-84058410D01*
X236447065Y-83917482D01*
X236504808Y-83878149D01*
X236574653Y-83876278D01*
X236590363Y-83881584D01*
X236671965Y-83915385D01*
X236671969Y-83915385D01*
X236671970Y-83915386D01*
X236793193Y-83939500D01*
X236793196Y-83939500D01*
X236793197Y-83939500D01*
X237222356Y-83939500D01*
X237289395Y-83959185D01*
X237318209Y-83984835D01*
X237378590Y-84058410D01*
X237538550Y-84189685D01*
X237721046Y-84287232D01*
X237919066Y-84347300D01*
X237919065Y-84347300D01*
X237937529Y-84349118D01*
X238125000Y-84367583D01*
X238330934Y-84347300D01*
X238528954Y-84287232D01*
X238711450Y-84189685D01*
X238871410Y-84058410D01*
X239002685Y-83898450D01*
X239100232Y-83715954D01*
X239160300Y-83517934D01*
X239180583Y-83312000D01*
X239160300Y-83106066D01*
X239100232Y-82908046D01*
X239002685Y-82725550D01*
X238931791Y-82639165D01*
X238871410Y-82565589D01*
X238711452Y-82434317D01*
X238711453Y-82434317D01*
X238711450Y-82434315D01*
X238528954Y-82336768D01*
X238330934Y-82276700D01*
X238330932Y-82276699D01*
X238330934Y-82276699D01*
X238125000Y-82256417D01*
X237919067Y-82276699D01*
X237721043Y-82336769D01*
X237610898Y-82395643D01*
X237538550Y-82434315D01*
X237538548Y-82434316D01*
X237538547Y-82434317D01*
X237378591Y-82565588D01*
X237318209Y-82639165D01*
X237260464Y-82678499D01*
X237222356Y-82684500D01*
X237166282Y-82684500D01*
X237099243Y-82664815D01*
X237078601Y-82648181D01*
X236408649Y-81978229D01*
X236375164Y-81916906D01*
X236380148Y-81847214D01*
X236422020Y-81791281D01*
X236487484Y-81766864D01*
X236532322Y-81771886D01*
X236649066Y-81807300D01*
X236649065Y-81807300D01*
X236667529Y-81809118D01*
X236855000Y-81827583D01*
X237060934Y-81807300D01*
X237258954Y-81747232D01*
X237441450Y-81649685D01*
X237601410Y-81518410D01*
X237732685Y-81358450D01*
X237830232Y-81175954D01*
X237890300Y-80977934D01*
X237910583Y-80772000D01*
X238339417Y-80772000D01*
X238359699Y-80977932D01*
X238359700Y-80977934D01*
X238419768Y-81175954D01*
X238517315Y-81358450D01*
X238517317Y-81358452D01*
X238648589Y-81518410D01*
X238745209Y-81597702D01*
X238808550Y-81649685D01*
X238991046Y-81747232D01*
X239189066Y-81807300D01*
X239189065Y-81807300D01*
X239207529Y-81809118D01*
X239395000Y-81827583D01*
X239600934Y-81807300D01*
X239798954Y-81747232D01*
X239981450Y-81649685D01*
X240141410Y-81518410D01*
X240272685Y-81358450D01*
X240370232Y-81175954D01*
X240430300Y-80977934D01*
X240450583Y-80772000D01*
X240430300Y-80566066D01*
X240370232Y-80368046D01*
X240272685Y-80185550D01*
X240220702Y-80122209D01*
X240141410Y-80025589D01*
X239981452Y-79894317D01*
X239981453Y-79894317D01*
X239981450Y-79894315D01*
X239798954Y-79796768D01*
X239600934Y-79736700D01*
X239600932Y-79736699D01*
X239600934Y-79736699D01*
X239395000Y-79716417D01*
X239189067Y-79736699D01*
X238991043Y-79796769D01*
X238880898Y-79855643D01*
X238808550Y-79894315D01*
X238808548Y-79894316D01*
X238808547Y-79894317D01*
X238648589Y-80025589D01*
X238517317Y-80185547D01*
X238419769Y-80368043D01*
X238359699Y-80566067D01*
X238339417Y-80772000D01*
X237910583Y-80772000D01*
X237890300Y-80566066D01*
X237830232Y-80368046D01*
X237732685Y-80185550D01*
X237680702Y-80122209D01*
X237601410Y-80025589D01*
X237441452Y-79894317D01*
X237441453Y-79894317D01*
X237441450Y-79894315D01*
X237258954Y-79796768D01*
X237060934Y-79736700D01*
X237060932Y-79736699D01*
X237060934Y-79736699D01*
X236855000Y-79716417D01*
X236649067Y-79736699D01*
X236451043Y-79796769D01*
X236340898Y-79855643D01*
X236268550Y-79894315D01*
X236268548Y-79894316D01*
X236268547Y-79894317D01*
X236108589Y-80025589D01*
X235977317Y-80185547D01*
X235879769Y-80368043D01*
X235819699Y-80566067D01*
X235799417Y-80772000D01*
X235819699Y-80977932D01*
X235855112Y-81094674D01*
X235855735Y-81164541D01*
X235818486Y-81223654D01*
X235755192Y-81253245D01*
X235685948Y-81243918D01*
X235648770Y-81218350D01*
X235396975Y-80966555D01*
X235363490Y-80905232D01*
X235361253Y-80866723D01*
X235370583Y-80772000D01*
X235350300Y-80566066D01*
X235290232Y-80368046D01*
X235192685Y-80185550D01*
X235140702Y-80122209D01*
X235061410Y-80025589D01*
X234901452Y-79894317D01*
X234901453Y-79894317D01*
X234901450Y-79894315D01*
X234718954Y-79796768D01*
X234520934Y-79736700D01*
X234520932Y-79736699D01*
X234520934Y-79736699D01*
X234315000Y-79716417D01*
X234109067Y-79736699D01*
X233911043Y-79796769D01*
X233800898Y-79855643D01*
X233728550Y-79894315D01*
X233728548Y-79894316D01*
X233728547Y-79894317D01*
X233568589Y-80025589D01*
X233437317Y-80185547D01*
X233339769Y-80368043D01*
X233279699Y-80566067D01*
X233259417Y-80772000D01*
X232830583Y-80772000D01*
X232810300Y-80566066D01*
X232750232Y-80368046D01*
X232652685Y-80185550D01*
X232600702Y-80122209D01*
X232521410Y-80025589D01*
X232361452Y-79894317D01*
X232361453Y-79894317D01*
X232361450Y-79894315D01*
X232178954Y-79796768D01*
X231980934Y-79736700D01*
X231980932Y-79736699D01*
X231980934Y-79736699D01*
X231775000Y-79716417D01*
X231569067Y-79736699D01*
X231371043Y-79796769D01*
X231260898Y-79855643D01*
X231188550Y-79894315D01*
X231188548Y-79894316D01*
X231188547Y-79894317D01*
X231028589Y-80025589D01*
X230897317Y-80185547D01*
X230799769Y-80368043D01*
X230739699Y-80566067D01*
X230719417Y-80772000D01*
X191000500Y-80772000D01*
X191000500Y-75869797D01*
X193993027Y-75869797D01*
X193993027Y-75869802D01*
X194012279Y-76089862D01*
X194012280Y-76089870D01*
X194069454Y-76303245D01*
X194069455Y-76303247D01*
X194069456Y-76303250D01*
X194092414Y-76352484D01*
X194162816Y-76503462D01*
X194162818Y-76503466D01*
X194289520Y-76684415D01*
X194289525Y-76684421D01*
X194445728Y-76840624D01*
X194445734Y-76840629D01*
X194626683Y-76967331D01*
X194626685Y-76967332D01*
X194626688Y-76967334D01*
X194746098Y-77023015D01*
X194755539Y-77027418D01*
X194807978Y-77073590D01*
X194827130Y-77140784D01*
X194806914Y-77207665D01*
X194755539Y-77252182D01*
X194626690Y-77312265D01*
X194626688Y-77312266D01*
X194445727Y-77438975D01*
X194289525Y-77595177D01*
X194162816Y-77776138D01*
X194162815Y-77776140D01*
X194069457Y-77976348D01*
X194069454Y-77976354D01*
X194012280Y-78189729D01*
X194012279Y-78189737D01*
X193993027Y-78409797D01*
X193993027Y-78409802D01*
X194012279Y-78629862D01*
X194012280Y-78629870D01*
X194069454Y-78843245D01*
X194069455Y-78843247D01*
X194069456Y-78843250D01*
X194162816Y-79043462D01*
X194162818Y-79043466D01*
X194289520Y-79224415D01*
X194289525Y-79224421D01*
X194445728Y-79380624D01*
X194445734Y-79380629D01*
X194626683Y-79507331D01*
X194626685Y-79507332D01*
X194626688Y-79507334D01*
X194826900Y-79600694D01*
X195040282Y-79657870D01*
X195197473Y-79671622D01*
X195260348Y-79677123D01*
X195260350Y-79677123D01*
X195260352Y-79677123D01*
X195315367Y-79672309D01*
X195480418Y-79657870D01*
X195693800Y-79600694D01*
X195894012Y-79507334D01*
X196074970Y-79380626D01*
X196231176Y-79224420D01*
X196357884Y-79043462D01*
X196451244Y-78843250D01*
X196508420Y-78629868D01*
X196527673Y-78409800D01*
X196508420Y-78189732D01*
X196451244Y-77976350D01*
X196357884Y-77776139D01*
X196231176Y-77595180D01*
X196074970Y-77438974D01*
X196074966Y-77438971D01*
X196074965Y-77438970D01*
X195894016Y-77312268D01*
X195894008Y-77312264D01*
X195765161Y-77252182D01*
X195712721Y-77206010D01*
X195693569Y-77138817D01*
X195713785Y-77071935D01*
X195765161Y-77027418D01*
X195771152Y-77024624D01*
X195894012Y-76967334D01*
X196074970Y-76840626D01*
X196231176Y-76684420D01*
X196357884Y-76503462D01*
X196451244Y-76303250D01*
X196508420Y-76089868D01*
X196527673Y-75869800D01*
X196508420Y-75649732D01*
X196451244Y-75436350D01*
X196357884Y-75236139D01*
X196231176Y-75055180D01*
X196074970Y-74898974D01*
X196074966Y-74898971D01*
X196074965Y-74898970D01*
X195894016Y-74772268D01*
X195894012Y-74772266D01*
X195816271Y-74736015D01*
X195693800Y-74678906D01*
X195693797Y-74678905D01*
X195693795Y-74678904D01*
X195480420Y-74621730D01*
X195480412Y-74621729D01*
X195260352Y-74602477D01*
X195260348Y-74602477D01*
X195040287Y-74621729D01*
X195040279Y-74621730D01*
X194826904Y-74678904D01*
X194826898Y-74678907D01*
X194626690Y-74772265D01*
X194626688Y-74772266D01*
X194445727Y-74898975D01*
X194289525Y-75055177D01*
X194162816Y-75236138D01*
X194162815Y-75236140D01*
X194069457Y-75436348D01*
X194069454Y-75436354D01*
X194012280Y-75649729D01*
X194012279Y-75649737D01*
X193993027Y-75869797D01*
X191000500Y-75869797D01*
X191000500Y-74421994D01*
X226729556Y-74421994D01*
X226729556Y-74422005D01*
X226749310Y-74736004D01*
X226749311Y-74736011D01*
X226808270Y-75045083D01*
X226905497Y-75344316D01*
X226905499Y-75344321D01*
X227039461Y-75629003D01*
X227039464Y-75629009D01*
X227208051Y-75894661D01*
X227208054Y-75894665D01*
X227408606Y-76137090D01*
X227408608Y-76137092D01*
X227637968Y-76352476D01*
X227637978Y-76352484D01*
X227892504Y-76537408D01*
X227892509Y-76537410D01*
X227892516Y-76537416D01*
X228168234Y-76688994D01*
X228168239Y-76688996D01*
X228168241Y-76688997D01*
X228168242Y-76688998D01*
X228460771Y-76804818D01*
X228460774Y-76804819D01*
X228765523Y-76883065D01*
X228765527Y-76883066D01*
X228831010Y-76891338D01*
X229077670Y-76922499D01*
X229077679Y-76922499D01*
X229077682Y-76922500D01*
X229077684Y-76922500D01*
X229392316Y-76922500D01*
X229392318Y-76922500D01*
X229392321Y-76922499D01*
X229392329Y-76922499D01*
X229578593Y-76898968D01*
X229704473Y-76883066D01*
X230009225Y-76804819D01*
X230009228Y-76804818D01*
X230301757Y-76688998D01*
X230301758Y-76688997D01*
X230301756Y-76688997D01*
X230301766Y-76688994D01*
X230577484Y-76537416D01*
X230832030Y-76352478D01*
X231061390Y-76137094D01*
X231261947Y-75894663D01*
X231430537Y-75629007D01*
X231564503Y-75344315D01*
X231661731Y-75045079D01*
X231720688Y-74736015D01*
X231727878Y-74621730D01*
X231740444Y-74422005D01*
X231740444Y-74421994D01*
X231720689Y-74107995D01*
X231720688Y-74107988D01*
X231720688Y-74107985D01*
X231661731Y-73798921D01*
X231564503Y-73499685D01*
X231430537Y-73214993D01*
X231261947Y-72949337D01*
X231261945Y-72949334D01*
X231061393Y-72706909D01*
X231061391Y-72706907D01*
X230832031Y-72491523D01*
X230832021Y-72491515D01*
X230577495Y-72306591D01*
X230577488Y-72306586D01*
X230577484Y-72306584D01*
X230301766Y-72155006D01*
X230301763Y-72155004D01*
X230301758Y-72155002D01*
X230301757Y-72155001D01*
X230009228Y-72039182D01*
X230009226Y-72039181D01*
X230009225Y-72039181D01*
X229921268Y-72016597D01*
X229716319Y-71963975D01*
X229656281Y-71928237D01*
X229625096Y-71865713D01*
X229632664Y-71796255D01*
X229648209Y-71769137D01*
X229650058Y-71766689D01*
X229749229Y-71567528D01*
X229810115Y-71353536D01*
X229830643Y-71132000D01*
X229830643Y-71131999D01*
X237529357Y-71131999D01*
X237529357Y-71132000D01*
X237549884Y-71353535D01*
X237549885Y-71353537D01*
X237610769Y-71567523D01*
X237610775Y-71567538D01*
X237709938Y-71766683D01*
X237709943Y-71766691D01*
X237844020Y-71944238D01*
X238008437Y-72094123D01*
X238008439Y-72094125D01*
X238197595Y-72211245D01*
X238197596Y-72211245D01*
X238197599Y-72211247D01*
X238405060Y-72291618D01*
X238623757Y-72332500D01*
X238623759Y-72332500D01*
X238846242Y-72332500D01*
X238846243Y-72332500D01*
X238917838Y-72319116D01*
X238987351Y-72326146D01*
X239042031Y-72369642D01*
X239064514Y-72435796D01*
X239047662Y-72503603D01*
X239025507Y-72531396D01*
X238838608Y-72706907D01*
X238838606Y-72706909D01*
X238638054Y-72949334D01*
X238638051Y-72949338D01*
X238469464Y-73214990D01*
X238469461Y-73214996D01*
X238335499Y-73499678D01*
X238335497Y-73499683D01*
X238238270Y-73798916D01*
X238179311Y-74107988D01*
X238179310Y-74107995D01*
X238159556Y-74421994D01*
X238159556Y-74422005D01*
X238179310Y-74736004D01*
X238179311Y-74736011D01*
X238238270Y-75045083D01*
X238335497Y-75344316D01*
X238335499Y-75344321D01*
X238469461Y-75629003D01*
X238469464Y-75629009D01*
X238638051Y-75894661D01*
X238638054Y-75894665D01*
X238838606Y-76137090D01*
X238838608Y-76137092D01*
X239067968Y-76352476D01*
X239067978Y-76352484D01*
X239322504Y-76537408D01*
X239322509Y-76537410D01*
X239322516Y-76537416D01*
X239598234Y-76688994D01*
X239598239Y-76688996D01*
X239598241Y-76688997D01*
X239598242Y-76688998D01*
X239890771Y-76804818D01*
X239890774Y-76804819D01*
X240195523Y-76883065D01*
X240195527Y-76883066D01*
X240261010Y-76891338D01*
X240507670Y-76922499D01*
X240507679Y-76922499D01*
X240507682Y-76922500D01*
X240507684Y-76922500D01*
X240822316Y-76922500D01*
X240822318Y-76922500D01*
X240822321Y-76922499D01*
X240822329Y-76922499D01*
X241008593Y-76898968D01*
X241134473Y-76883066D01*
X241439225Y-76804819D01*
X241439228Y-76804818D01*
X241731757Y-76688998D01*
X241731758Y-76688997D01*
X241731756Y-76688997D01*
X241731766Y-76688994D01*
X242007484Y-76537416D01*
X242262030Y-76352478D01*
X242491390Y-76137094D01*
X242691947Y-75894663D01*
X242860537Y-75629007D01*
X242994503Y-75344315D01*
X243091731Y-75045079D01*
X243150688Y-74736015D01*
X243157878Y-74621730D01*
X243170444Y-74422005D01*
X243170444Y-74421994D01*
X243150689Y-74107995D01*
X243150688Y-74107988D01*
X243150688Y-74107985D01*
X243091731Y-73798921D01*
X242994503Y-73499685D01*
X242860537Y-73214993D01*
X242691947Y-72949337D01*
X242691945Y-72949334D01*
X242491393Y-72706909D01*
X242491391Y-72706907D01*
X242262031Y-72491523D01*
X242262021Y-72491515D01*
X242007495Y-72306591D01*
X242007488Y-72306586D01*
X242007484Y-72306584D01*
X241731766Y-72155006D01*
X241731763Y-72155004D01*
X241731758Y-72155002D01*
X241731757Y-72155001D01*
X241439228Y-72039181D01*
X241439225Y-72039180D01*
X241134476Y-71960934D01*
X241134463Y-71960932D01*
X240822329Y-71921500D01*
X240822318Y-71921500D01*
X240507682Y-71921500D01*
X240507670Y-71921500D01*
X240195536Y-71960932D01*
X240195523Y-71960934D01*
X239890779Y-72039179D01*
X239821737Y-72066515D01*
X239752159Y-72072891D01*
X239690179Y-72040638D01*
X239655475Y-71979996D01*
X239659065Y-71910219D01*
X239677134Y-71876497D01*
X239760058Y-71766689D01*
X239859229Y-71567528D01*
X239920115Y-71353536D01*
X239940643Y-71132000D01*
X239920115Y-70910464D01*
X239859229Y-70696472D01*
X239767307Y-70511868D01*
X239760061Y-70497316D01*
X239760056Y-70497308D01*
X239625979Y-70319761D01*
X239461562Y-70169876D01*
X239461560Y-70169874D01*
X239272404Y-70052754D01*
X239272398Y-70052752D01*
X239064940Y-69972382D01*
X238846243Y-69931500D01*
X238623757Y-69931500D01*
X238405060Y-69972382D01*
X238273864Y-70023207D01*
X238197601Y-70052752D01*
X238197595Y-70052754D01*
X238008439Y-70169874D01*
X238008437Y-70169876D01*
X237844020Y-70319761D01*
X237709943Y-70497308D01*
X237709938Y-70497316D01*
X237610775Y-70696461D01*
X237610769Y-70696476D01*
X237549885Y-70910462D01*
X237549884Y-70910464D01*
X237529357Y-71131999D01*
X229830643Y-71131999D01*
X229810115Y-70910464D01*
X229749229Y-70696472D01*
X229657307Y-70511868D01*
X229650061Y-70497316D01*
X229650056Y-70497308D01*
X229515979Y-70319761D01*
X229351562Y-70169876D01*
X229351560Y-70169874D01*
X229162404Y-70052754D01*
X229162398Y-70052752D01*
X228954940Y-69972382D01*
X228736243Y-69931500D01*
X228513757Y-69931500D01*
X228295060Y-69972382D01*
X228163864Y-70023207D01*
X228087601Y-70052752D01*
X228087595Y-70052754D01*
X227898439Y-70169874D01*
X227898437Y-70169876D01*
X227734020Y-70319761D01*
X227599943Y-70497308D01*
X227599938Y-70497316D01*
X227500775Y-70696461D01*
X227500769Y-70696476D01*
X227439885Y-70910462D01*
X227439884Y-70910464D01*
X227419357Y-71131999D01*
X227419357Y-71132000D01*
X227439884Y-71353535D01*
X227439885Y-71353537D01*
X227500769Y-71567523D01*
X227500775Y-71567538D01*
X227599938Y-71766683D01*
X227599943Y-71766691D01*
X227734020Y-71944238D01*
X227898433Y-72094120D01*
X227903010Y-72097576D01*
X227902013Y-72098895D01*
X227943497Y-72145170D01*
X227954605Y-72214151D01*
X227926656Y-72278187D01*
X227895409Y-72303891D01*
X227895639Y-72304253D01*
X227895668Y-72304293D01*
X227895665Y-72304294D01*
X227895797Y-72304502D01*
X227892508Y-72306588D01*
X227637978Y-72491515D01*
X227637968Y-72491523D01*
X227408608Y-72706907D01*
X227408606Y-72706909D01*
X227208054Y-72949334D01*
X227208051Y-72949338D01*
X227039464Y-73214990D01*
X227039461Y-73214996D01*
X226905499Y-73499678D01*
X226905497Y-73499683D01*
X226808270Y-73798916D01*
X226749311Y-74107988D01*
X226749310Y-74107995D01*
X226729556Y-74421994D01*
X191000500Y-74421994D01*
X191000500Y-69584224D01*
X191020185Y-69517185D01*
X191072989Y-69471430D01*
X191142147Y-69461486D01*
X191205703Y-69490511D01*
X191233858Y-69525771D01*
X191278527Y-69609342D01*
X191278538Y-69609360D01*
X191495439Y-69933976D01*
X191495449Y-69933990D01*
X191743136Y-70235797D01*
X192019202Y-70511863D01*
X192019207Y-70511867D01*
X192019208Y-70511868D01*
X192321015Y-70759555D01*
X192645646Y-70976466D01*
X192645655Y-70976471D01*
X192645657Y-70976472D01*
X192989967Y-71160510D01*
X192989969Y-71160510D01*
X192989975Y-71160514D01*
X193209812Y-71251574D01*
X193350680Y-71309924D01*
X193350684Y-71309925D01*
X193350686Y-71309926D01*
X193724305Y-71423262D01*
X193724311Y-71423263D01*
X193724314Y-71423264D01*
X193724325Y-71423267D01*
X194107234Y-71499431D01*
X194495785Y-71537700D01*
X194495788Y-71537700D01*
X194886212Y-71537700D01*
X194886215Y-71537700D01*
X195274766Y-71499431D01*
X195349307Y-71484603D01*
X195657674Y-71423267D01*
X195657685Y-71423264D01*
X195657685Y-71423263D01*
X195657695Y-71423262D01*
X196031314Y-71309926D01*
X196392025Y-71160514D01*
X196736354Y-70976466D01*
X197060985Y-70759555D01*
X197362792Y-70511868D01*
X197638868Y-70235792D01*
X197886555Y-69933985D01*
X198103466Y-69609354D01*
X198246370Y-69341999D01*
X229959357Y-69341999D01*
X229959357Y-69342000D01*
X229979884Y-69563535D01*
X229979885Y-69563537D01*
X230040769Y-69777523D01*
X230040775Y-69777538D01*
X230139938Y-69976683D01*
X230139943Y-69976691D01*
X230274020Y-70154238D01*
X230438437Y-70304123D01*
X230438439Y-70304125D01*
X230627595Y-70421245D01*
X230627596Y-70421245D01*
X230627599Y-70421247D01*
X230835060Y-70501618D01*
X231053757Y-70542500D01*
X231053759Y-70542500D01*
X231276241Y-70542500D01*
X231276243Y-70542500D01*
X231494940Y-70501618D01*
X231702401Y-70421247D01*
X231891562Y-70304124D01*
X232055981Y-70154236D01*
X232190058Y-69976689D01*
X232289229Y-69777528D01*
X232350115Y-69563536D01*
X232370643Y-69342000D01*
X232350115Y-69120464D01*
X232289229Y-68906472D01*
X232288157Y-68904319D01*
X232190061Y-68707316D01*
X232190056Y-68707308D01*
X232055979Y-68529761D01*
X231891562Y-68379876D01*
X231891560Y-68379874D01*
X231702404Y-68262754D01*
X231702398Y-68262752D01*
X231494940Y-68182382D01*
X231276243Y-68141500D01*
X231053757Y-68141500D01*
X230835060Y-68182382D01*
X230703864Y-68233207D01*
X230627601Y-68262752D01*
X230627595Y-68262754D01*
X230438439Y-68379874D01*
X230438437Y-68379876D01*
X230274020Y-68529761D01*
X230139943Y-68707308D01*
X230139938Y-68707316D01*
X230040775Y-68906461D01*
X230040769Y-68906476D01*
X229979885Y-69120462D01*
X229979884Y-69120464D01*
X229959357Y-69341999D01*
X198246370Y-69341999D01*
X198287514Y-69265025D01*
X198428378Y-68924950D01*
X198436924Y-68904319D01*
X198436926Y-68904314D01*
X198550262Y-68530695D01*
X198550264Y-68530685D01*
X198550267Y-68530674D01*
X198626431Y-68147765D01*
X198664700Y-67759211D01*
X198664700Y-67368788D01*
X198663752Y-67359165D01*
X198626431Y-66980234D01*
X198620627Y-66951053D01*
X198550267Y-66597325D01*
X198550264Y-66597314D01*
X198550263Y-66597311D01*
X198550262Y-66597305D01*
X198436926Y-66223686D01*
X198287514Y-65862975D01*
X198103466Y-65518646D01*
X197886555Y-65194015D01*
X197638868Y-64892208D01*
X197638867Y-64892207D01*
X197638863Y-64892202D01*
X197362797Y-64616136D01*
X197060990Y-64368449D01*
X197060989Y-64368448D01*
X197060985Y-64368445D01*
X196736354Y-64151534D01*
X196652770Y-64106857D01*
X196602927Y-64057895D01*
X196587467Y-63989758D01*
X196611299Y-63924078D01*
X196666857Y-63881709D01*
X196711225Y-63873500D01*
X249820775Y-63873500D01*
X249887814Y-63893185D01*
G37*
%TD.AperFunction*%
%TD*%
%TA.AperFunction,NonConductor*%
G36*
X243557549Y-91352900D02*
G01*
X243590776Y-91414363D01*
X243593500Y-91440212D01*
X243593500Y-92455787D01*
X243573815Y-92522826D01*
X243521011Y-92568581D01*
X243451853Y-92578525D01*
X243388297Y-92549500D01*
X243370546Y-92530514D01*
X243314114Y-92455787D01*
X243299841Y-92436886D01*
X243141722Y-92292742D01*
X243141716Y-92292738D01*
X243141713Y-92292736D01*
X242959813Y-92180108D01*
X242959807Y-92180106D01*
X242760297Y-92102815D01*
X242584153Y-92069888D01*
X242521874Y-92038221D01*
X242486601Y-91977908D01*
X242489535Y-91908100D01*
X242529744Y-91850960D01*
X242584152Y-91826112D01*
X242760297Y-91793185D01*
X242959810Y-91715893D01*
X243141722Y-91603258D01*
X243299841Y-91459114D01*
X243370546Y-91365484D01*
X243426655Y-91323849D01*
X243496367Y-91319158D01*
X243557549Y-91352900D01*
G37*
%TD.AperFunction*%
%TA.AperFunction,NonConductor*%
G36*
X243557549Y-93892900D02*
G01*
X243590776Y-93954363D01*
X243593500Y-93980212D01*
X243593500Y-94334374D01*
X243573815Y-94401413D01*
X243521011Y-94447168D01*
X243451853Y-94457112D01*
X243388297Y-94428087D01*
X243381819Y-94422055D01*
X243249356Y-94289592D01*
X243249352Y-94289589D01*
X243226338Y-94274211D01*
X243181534Y-94220602D01*
X243172825Y-94151277D01*
X243202979Y-94088249D01*
X243211679Y-94079483D01*
X243299841Y-93999114D01*
X243370546Y-93905484D01*
X243426655Y-93863849D01*
X243496367Y-93859158D01*
X243557549Y-93892900D01*
G37*
%TD.AperFunction*%
%TA.AperFunction,NonConductor*%
G36*
X241691403Y-106795108D02*
G01*
X241693699Y-106797149D01*
X241744278Y-106843258D01*
X241744283Y-106843261D01*
X241744286Y-106843263D01*
X241926186Y-106955891D01*
X241926187Y-106955891D01*
X241926190Y-106955893D01*
X242125703Y-107033185D01*
X242301845Y-107066111D01*
X242364125Y-107097779D01*
X242399398Y-107158092D01*
X242396464Y-107227900D01*
X242356255Y-107285040D01*
X242301845Y-107309888D01*
X242125703Y-107342815D01*
X241999533Y-107391693D01*
X241926192Y-107420106D01*
X241926186Y-107420108D01*
X241744286Y-107532736D01*
X241744277Y-107532743D01*
X241693737Y-107578816D01*
X241630933Y-107609432D01*
X241561546Y-107601234D01*
X241507606Y-107556824D01*
X241486239Y-107490301D01*
X241486200Y-107487178D01*
X241486200Y-106888821D01*
X241505885Y-106821782D01*
X241558689Y-106776027D01*
X241627847Y-106766083D01*
X241691403Y-106795108D01*
G37*
%TD.AperFunction*%
%TA.AperFunction,NonConductor*%
G36*
X241691403Y-109335108D02*
G01*
X241693699Y-109337149D01*
X241744278Y-109383258D01*
X241744283Y-109383261D01*
X241744286Y-109383263D01*
X241926186Y-109495891D01*
X241926187Y-109495891D01*
X241926190Y-109495893D01*
X242125703Y-109573185D01*
X242301845Y-109606111D01*
X242364125Y-109637779D01*
X242399398Y-109698092D01*
X242396464Y-109767900D01*
X242356255Y-109825040D01*
X242301845Y-109849888D01*
X242125703Y-109882815D01*
X241999533Y-109931693D01*
X241926192Y-109960106D01*
X241926186Y-109960108D01*
X241744286Y-110072736D01*
X241744277Y-110072743D01*
X241693737Y-110118816D01*
X241630933Y-110149432D01*
X241561546Y-110141234D01*
X241507606Y-110096824D01*
X241486239Y-110030301D01*
X241486200Y-110027178D01*
X241486200Y-109428821D01*
X241505885Y-109361782D01*
X241558689Y-109316027D01*
X241627847Y-109306083D01*
X241691403Y-109335108D01*
G37*
%TD.AperFunction*%
%TA.AperFunction,NonConductor*%
G36*
X244020834Y-110410098D02*
G01*
X244076767Y-110451970D01*
X244101184Y-110517434D01*
X244101500Y-110526280D01*
X244101500Y-110826418D01*
X244081815Y-110893457D01*
X244065181Y-110914099D01*
X243806596Y-111172684D01*
X243745273Y-111206169D01*
X243675581Y-111201185D01*
X243619648Y-111159313D01*
X243595231Y-111093849D01*
X243595444Y-111073561D01*
X243595538Y-111072548D01*
X243602446Y-110998000D01*
X243584747Y-110807001D01*
X243598162Y-110738433D01*
X243620534Y-110707884D01*
X243889820Y-110438598D01*
X243951142Y-110405114D01*
X244020834Y-110410098D01*
G37*
%TD.AperFunction*%
%TA.AperFunction,NonConductor*%
G36*
X242013688Y-112069790D02*
G01*
X242125703Y-112113185D01*
X242301845Y-112146111D01*
X242364125Y-112177779D01*
X242399398Y-112238092D01*
X242396464Y-112307900D01*
X242356255Y-112365040D01*
X242301845Y-112389888D01*
X242125703Y-112422815D01*
X242125700Y-112422815D01*
X242125695Y-112422817D01*
X242122004Y-112423867D01*
X242120162Y-112423851D01*
X242120068Y-112423869D01*
X242120064Y-112423850D01*
X242052137Y-112423275D01*
X242000398Y-112392279D01*
X241881218Y-112273099D01*
X241847733Y-112211776D01*
X241852717Y-112142084D01*
X241894589Y-112086151D01*
X241960053Y-112061734D01*
X242013688Y-112069790D01*
G37*
%TD.AperFunction*%
M02*
