%TF.GenerationSoftware,KiCad,Pcbnew,8.0.5*%
%TF.CreationDate,2025-03-17T23:02:10-05:00*%
%TF.ProjectId,Raman_Spectrometer_Board,52616d61-6e5f-4537-9065-6374726f6d65,rev?*%
%TF.SameCoordinates,Original*%
%TF.FileFunction,Legend,Top*%
%TF.FilePolarity,Positive*%
%FSLAX46Y46*%
G04 Gerber Fmt 4.6, Leading zero omitted, Abs format (unit mm)*
G04 Created by KiCad (PCBNEW 8.0.5) date 2025-03-17 23:02:10*
%MOMM*%
%LPD*%
G01*
G04 APERTURE LIST*
%ADD10C,0.300000*%
%ADD11C,0.150000*%
%ADD12C,0.247650*%
%ADD13C,0.120000*%
%ADD14C,0.127000*%
%ADD15C,0.200000*%
G04 APERTURE END LIST*
D10*
X105233919Y-56656653D02*
X105948205Y-56156653D01*
X105233919Y-55799510D02*
X106733919Y-55799510D01*
X106733919Y-55799510D02*
X106733919Y-56370939D01*
X106733919Y-56370939D02*
X106662490Y-56513796D01*
X106662490Y-56513796D02*
X106591062Y-56585225D01*
X106591062Y-56585225D02*
X106448205Y-56656653D01*
X106448205Y-56656653D02*
X106233919Y-56656653D01*
X106233919Y-56656653D02*
X106091062Y-56585225D01*
X106091062Y-56585225D02*
X106019633Y-56513796D01*
X106019633Y-56513796D02*
X105948205Y-56370939D01*
X105948205Y-56370939D02*
X105948205Y-55799510D01*
X105233919Y-57942368D02*
X106019633Y-57942368D01*
X106019633Y-57942368D02*
X106162490Y-57870939D01*
X106162490Y-57870939D02*
X106233919Y-57728082D01*
X106233919Y-57728082D02*
X106233919Y-57442368D01*
X106233919Y-57442368D02*
X106162490Y-57299510D01*
X105305348Y-57942368D02*
X105233919Y-57799510D01*
X105233919Y-57799510D02*
X105233919Y-57442368D01*
X105233919Y-57442368D02*
X105305348Y-57299510D01*
X105305348Y-57299510D02*
X105448205Y-57228082D01*
X105448205Y-57228082D02*
X105591062Y-57228082D01*
X105591062Y-57228082D02*
X105733919Y-57299510D01*
X105733919Y-57299510D02*
X105805348Y-57442368D01*
X105805348Y-57442368D02*
X105805348Y-57799510D01*
X105805348Y-57799510D02*
X105876776Y-57942368D01*
X105233919Y-58656653D02*
X106233919Y-58656653D01*
X106091062Y-58656653D02*
X106162490Y-58728082D01*
X106162490Y-58728082D02*
X106233919Y-58870939D01*
X106233919Y-58870939D02*
X106233919Y-59085225D01*
X106233919Y-59085225D02*
X106162490Y-59228082D01*
X106162490Y-59228082D02*
X106019633Y-59299511D01*
X106019633Y-59299511D02*
X105233919Y-59299511D01*
X106019633Y-59299511D02*
X106162490Y-59370939D01*
X106162490Y-59370939D02*
X106233919Y-59513796D01*
X106233919Y-59513796D02*
X106233919Y-59728082D01*
X106233919Y-59728082D02*
X106162490Y-59870939D01*
X106162490Y-59870939D02*
X106019633Y-59942368D01*
X106019633Y-59942368D02*
X105233919Y-59942368D01*
X105233919Y-61299511D02*
X106019633Y-61299511D01*
X106019633Y-61299511D02*
X106162490Y-61228082D01*
X106162490Y-61228082D02*
X106233919Y-61085225D01*
X106233919Y-61085225D02*
X106233919Y-60799511D01*
X106233919Y-60799511D02*
X106162490Y-60656653D01*
X105305348Y-61299511D02*
X105233919Y-61156653D01*
X105233919Y-61156653D02*
X105233919Y-60799511D01*
X105233919Y-60799511D02*
X105305348Y-60656653D01*
X105305348Y-60656653D02*
X105448205Y-60585225D01*
X105448205Y-60585225D02*
X105591062Y-60585225D01*
X105591062Y-60585225D02*
X105733919Y-60656653D01*
X105733919Y-60656653D02*
X105805348Y-60799511D01*
X105805348Y-60799511D02*
X105805348Y-61156653D01*
X105805348Y-61156653D02*
X105876776Y-61299511D01*
X106233919Y-62013796D02*
X105233919Y-62013796D01*
X106091062Y-62013796D02*
X106162490Y-62085225D01*
X106162490Y-62085225D02*
X106233919Y-62228082D01*
X106233919Y-62228082D02*
X106233919Y-62442368D01*
X106233919Y-62442368D02*
X106162490Y-62585225D01*
X106162490Y-62585225D02*
X106019633Y-62656654D01*
X106019633Y-62656654D02*
X105233919Y-62656654D01*
X105305348Y-64442368D02*
X105233919Y-64656654D01*
X105233919Y-64656654D02*
X105233919Y-65013796D01*
X105233919Y-65013796D02*
X105305348Y-65156654D01*
X105305348Y-65156654D02*
X105376776Y-65228082D01*
X105376776Y-65228082D02*
X105519633Y-65299511D01*
X105519633Y-65299511D02*
X105662490Y-65299511D01*
X105662490Y-65299511D02*
X105805348Y-65228082D01*
X105805348Y-65228082D02*
X105876776Y-65156654D01*
X105876776Y-65156654D02*
X105948205Y-65013796D01*
X105948205Y-65013796D02*
X106019633Y-64728082D01*
X106019633Y-64728082D02*
X106091062Y-64585225D01*
X106091062Y-64585225D02*
X106162490Y-64513796D01*
X106162490Y-64513796D02*
X106305348Y-64442368D01*
X106305348Y-64442368D02*
X106448205Y-64442368D01*
X106448205Y-64442368D02*
X106591062Y-64513796D01*
X106591062Y-64513796D02*
X106662490Y-64585225D01*
X106662490Y-64585225D02*
X106733919Y-64728082D01*
X106733919Y-64728082D02*
X106733919Y-65085225D01*
X106733919Y-65085225D02*
X106662490Y-65299511D01*
X106233919Y-65942367D02*
X104733919Y-65942367D01*
X106162490Y-65942367D02*
X106233919Y-66085225D01*
X106233919Y-66085225D02*
X106233919Y-66370939D01*
X106233919Y-66370939D02*
X106162490Y-66513796D01*
X106162490Y-66513796D02*
X106091062Y-66585225D01*
X106091062Y-66585225D02*
X105948205Y-66656653D01*
X105948205Y-66656653D02*
X105519633Y-66656653D01*
X105519633Y-66656653D02*
X105376776Y-66585225D01*
X105376776Y-66585225D02*
X105305348Y-66513796D01*
X105305348Y-66513796D02*
X105233919Y-66370939D01*
X105233919Y-66370939D02*
X105233919Y-66085225D01*
X105233919Y-66085225D02*
X105305348Y-65942367D01*
X105305348Y-67870939D02*
X105233919Y-67728082D01*
X105233919Y-67728082D02*
X105233919Y-67442368D01*
X105233919Y-67442368D02*
X105305348Y-67299510D01*
X105305348Y-67299510D02*
X105448205Y-67228082D01*
X105448205Y-67228082D02*
X106019633Y-67228082D01*
X106019633Y-67228082D02*
X106162490Y-67299510D01*
X106162490Y-67299510D02*
X106233919Y-67442368D01*
X106233919Y-67442368D02*
X106233919Y-67728082D01*
X106233919Y-67728082D02*
X106162490Y-67870939D01*
X106162490Y-67870939D02*
X106019633Y-67942368D01*
X106019633Y-67942368D02*
X105876776Y-67942368D01*
X105876776Y-67942368D02*
X105733919Y-67228082D01*
X105305348Y-69228082D02*
X105233919Y-69085224D01*
X105233919Y-69085224D02*
X105233919Y-68799510D01*
X105233919Y-68799510D02*
X105305348Y-68656653D01*
X105305348Y-68656653D02*
X105376776Y-68585224D01*
X105376776Y-68585224D02*
X105519633Y-68513796D01*
X105519633Y-68513796D02*
X105948205Y-68513796D01*
X105948205Y-68513796D02*
X106091062Y-68585224D01*
X106091062Y-68585224D02*
X106162490Y-68656653D01*
X106162490Y-68656653D02*
X106233919Y-68799510D01*
X106233919Y-68799510D02*
X106233919Y-69085224D01*
X106233919Y-69085224D02*
X106162490Y-69228082D01*
X106233919Y-69656653D02*
X106233919Y-70228081D01*
X106733919Y-69870938D02*
X105448205Y-69870938D01*
X105448205Y-69870938D02*
X105305348Y-69942367D01*
X105305348Y-69942367D02*
X105233919Y-70085224D01*
X105233919Y-70085224D02*
X105233919Y-70228081D01*
X105233919Y-70728081D02*
X106233919Y-70728081D01*
X105948205Y-70728081D02*
X106091062Y-70799510D01*
X106091062Y-70799510D02*
X106162490Y-70870939D01*
X106162490Y-70870939D02*
X106233919Y-71013796D01*
X106233919Y-71013796D02*
X106233919Y-71156653D01*
X105233919Y-71870938D02*
X105305348Y-71728081D01*
X105305348Y-71728081D02*
X105376776Y-71656652D01*
X105376776Y-71656652D02*
X105519633Y-71585224D01*
X105519633Y-71585224D02*
X105948205Y-71585224D01*
X105948205Y-71585224D02*
X106091062Y-71656652D01*
X106091062Y-71656652D02*
X106162490Y-71728081D01*
X106162490Y-71728081D02*
X106233919Y-71870938D01*
X106233919Y-71870938D02*
X106233919Y-72085224D01*
X106233919Y-72085224D02*
X106162490Y-72228081D01*
X106162490Y-72228081D02*
X106091062Y-72299510D01*
X106091062Y-72299510D02*
X105948205Y-72370938D01*
X105948205Y-72370938D02*
X105519633Y-72370938D01*
X105519633Y-72370938D02*
X105376776Y-72299510D01*
X105376776Y-72299510D02*
X105305348Y-72228081D01*
X105305348Y-72228081D02*
X105233919Y-72085224D01*
X105233919Y-72085224D02*
X105233919Y-71870938D01*
X105233919Y-73013795D02*
X106233919Y-73013795D01*
X106091062Y-73013795D02*
X106162490Y-73085224D01*
X106162490Y-73085224D02*
X106233919Y-73228081D01*
X106233919Y-73228081D02*
X106233919Y-73442367D01*
X106233919Y-73442367D02*
X106162490Y-73585224D01*
X106162490Y-73585224D02*
X106019633Y-73656653D01*
X106019633Y-73656653D02*
X105233919Y-73656653D01*
X106019633Y-73656653D02*
X106162490Y-73728081D01*
X106162490Y-73728081D02*
X106233919Y-73870938D01*
X106233919Y-73870938D02*
X106233919Y-74085224D01*
X106233919Y-74085224D02*
X106162490Y-74228081D01*
X106162490Y-74228081D02*
X106019633Y-74299510D01*
X106019633Y-74299510D02*
X105233919Y-74299510D01*
X105305348Y-75585224D02*
X105233919Y-75442367D01*
X105233919Y-75442367D02*
X105233919Y-75156653D01*
X105233919Y-75156653D02*
X105305348Y-75013795D01*
X105305348Y-75013795D02*
X105448205Y-74942367D01*
X105448205Y-74942367D02*
X106019633Y-74942367D01*
X106019633Y-74942367D02*
X106162490Y-75013795D01*
X106162490Y-75013795D02*
X106233919Y-75156653D01*
X106233919Y-75156653D02*
X106233919Y-75442367D01*
X106233919Y-75442367D02*
X106162490Y-75585224D01*
X106162490Y-75585224D02*
X106019633Y-75656653D01*
X106019633Y-75656653D02*
X105876776Y-75656653D01*
X105876776Y-75656653D02*
X105733919Y-74942367D01*
X106233919Y-76085224D02*
X106233919Y-76656652D01*
X106733919Y-76299509D02*
X105448205Y-76299509D01*
X105448205Y-76299509D02*
X105305348Y-76370938D01*
X105305348Y-76370938D02*
X105233919Y-76513795D01*
X105233919Y-76513795D02*
X105233919Y-76656652D01*
X105305348Y-77728081D02*
X105233919Y-77585224D01*
X105233919Y-77585224D02*
X105233919Y-77299510D01*
X105233919Y-77299510D02*
X105305348Y-77156652D01*
X105305348Y-77156652D02*
X105448205Y-77085224D01*
X105448205Y-77085224D02*
X106019633Y-77085224D01*
X106019633Y-77085224D02*
X106162490Y-77156652D01*
X106162490Y-77156652D02*
X106233919Y-77299510D01*
X106233919Y-77299510D02*
X106233919Y-77585224D01*
X106233919Y-77585224D02*
X106162490Y-77728081D01*
X106162490Y-77728081D02*
X106019633Y-77799510D01*
X106019633Y-77799510D02*
X105876776Y-77799510D01*
X105876776Y-77799510D02*
X105733919Y-77085224D01*
X105233919Y-78442366D02*
X106233919Y-78442366D01*
X105948205Y-78442366D02*
X106091062Y-78513795D01*
X106091062Y-78513795D02*
X106162490Y-78585224D01*
X106162490Y-78585224D02*
X106233919Y-78728081D01*
X106233919Y-78728081D02*
X106233919Y-78870938D01*
X105233919Y-81370937D02*
X105948205Y-80870937D01*
X105233919Y-80513794D02*
X106733919Y-80513794D01*
X106733919Y-80513794D02*
X106733919Y-81085223D01*
X106733919Y-81085223D02*
X106662490Y-81228080D01*
X106662490Y-81228080D02*
X106591062Y-81299509D01*
X106591062Y-81299509D02*
X106448205Y-81370937D01*
X106448205Y-81370937D02*
X106233919Y-81370937D01*
X106233919Y-81370937D02*
X106091062Y-81299509D01*
X106091062Y-81299509D02*
X106019633Y-81228080D01*
X106019633Y-81228080D02*
X105948205Y-81085223D01*
X105948205Y-81085223D02*
X105948205Y-80513794D01*
X105305348Y-82585223D02*
X105233919Y-82442366D01*
X105233919Y-82442366D02*
X105233919Y-82156652D01*
X105233919Y-82156652D02*
X105305348Y-82013794D01*
X105305348Y-82013794D02*
X105448205Y-81942366D01*
X105448205Y-81942366D02*
X106019633Y-81942366D01*
X106019633Y-81942366D02*
X106162490Y-82013794D01*
X106162490Y-82013794D02*
X106233919Y-82156652D01*
X106233919Y-82156652D02*
X106233919Y-82442366D01*
X106233919Y-82442366D02*
X106162490Y-82585223D01*
X106162490Y-82585223D02*
X106019633Y-82656652D01*
X106019633Y-82656652D02*
X105876776Y-82656652D01*
X105876776Y-82656652D02*
X105733919Y-81942366D01*
X106233919Y-83156651D02*
X105233919Y-83513794D01*
X105233919Y-83513794D02*
X106233919Y-83870937D01*
X106591062Y-84370937D02*
X106662490Y-84442365D01*
X106662490Y-84442365D02*
X106733919Y-84585223D01*
X106733919Y-84585223D02*
X106733919Y-84942365D01*
X106733919Y-84942365D02*
X106662490Y-85085223D01*
X106662490Y-85085223D02*
X106591062Y-85156651D01*
X106591062Y-85156651D02*
X106448205Y-85228080D01*
X106448205Y-85228080D02*
X106305348Y-85228080D01*
X106305348Y-85228080D02*
X106091062Y-85156651D01*
X106091062Y-85156651D02*
X105233919Y-84299508D01*
X105233919Y-84299508D02*
X105233919Y-85228080D01*
X102819003Y-55799510D02*
X104319003Y-55799510D01*
X104319003Y-55799510D02*
X103247574Y-56299510D01*
X103247574Y-56299510D02*
X104319003Y-56799510D01*
X104319003Y-56799510D02*
X102819003Y-56799510D01*
X102819003Y-58156654D02*
X103604717Y-58156654D01*
X103604717Y-58156654D02*
X103747574Y-58085225D01*
X103747574Y-58085225D02*
X103819003Y-57942368D01*
X103819003Y-57942368D02*
X103819003Y-57656654D01*
X103819003Y-57656654D02*
X103747574Y-57513796D01*
X102890432Y-58156654D02*
X102819003Y-58013796D01*
X102819003Y-58013796D02*
X102819003Y-57656654D01*
X102819003Y-57656654D02*
X102890432Y-57513796D01*
X102890432Y-57513796D02*
X103033289Y-57442368D01*
X103033289Y-57442368D02*
X103176146Y-57442368D01*
X103176146Y-57442368D02*
X103319003Y-57513796D01*
X103319003Y-57513796D02*
X103390432Y-57656654D01*
X103390432Y-57656654D02*
X103390432Y-58013796D01*
X103390432Y-58013796D02*
X103461860Y-58156654D01*
X102819003Y-58870939D02*
X103819003Y-58870939D01*
X103533289Y-58870939D02*
X103676146Y-58942368D01*
X103676146Y-58942368D02*
X103747574Y-59013797D01*
X103747574Y-59013797D02*
X103819003Y-59156654D01*
X103819003Y-59156654D02*
X103819003Y-59299511D01*
X102890432Y-59728082D02*
X102819003Y-59870939D01*
X102819003Y-59870939D02*
X102819003Y-60156653D01*
X102819003Y-60156653D02*
X102890432Y-60299510D01*
X102890432Y-60299510D02*
X103033289Y-60370939D01*
X103033289Y-60370939D02*
X103104717Y-60370939D01*
X103104717Y-60370939D02*
X103247574Y-60299510D01*
X103247574Y-60299510D02*
X103319003Y-60156653D01*
X103319003Y-60156653D02*
X103319003Y-59942368D01*
X103319003Y-59942368D02*
X103390432Y-59799510D01*
X103390432Y-59799510D02*
X103533289Y-59728082D01*
X103533289Y-59728082D02*
X103604717Y-59728082D01*
X103604717Y-59728082D02*
X103747574Y-59799510D01*
X103747574Y-59799510D02*
X103819003Y-59942368D01*
X103819003Y-59942368D02*
X103819003Y-60156653D01*
X103819003Y-60156653D02*
X103747574Y-60299510D01*
X102819003Y-63013796D02*
X103533289Y-62513796D01*
X102819003Y-62156653D02*
X104319003Y-62156653D01*
X104319003Y-62156653D02*
X104319003Y-62728082D01*
X104319003Y-62728082D02*
X104247574Y-62870939D01*
X104247574Y-62870939D02*
X104176146Y-62942368D01*
X104176146Y-62942368D02*
X104033289Y-63013796D01*
X104033289Y-63013796D02*
X103819003Y-63013796D01*
X103819003Y-63013796D02*
X103676146Y-62942368D01*
X103676146Y-62942368D02*
X103604717Y-62870939D01*
X103604717Y-62870939D02*
X103533289Y-62728082D01*
X103533289Y-62728082D02*
X103533289Y-62156653D01*
X102819003Y-63870939D02*
X102890432Y-63728082D01*
X102890432Y-63728082D02*
X102961860Y-63656653D01*
X102961860Y-63656653D02*
X103104717Y-63585225D01*
X103104717Y-63585225D02*
X103533289Y-63585225D01*
X103533289Y-63585225D02*
X103676146Y-63656653D01*
X103676146Y-63656653D02*
X103747574Y-63728082D01*
X103747574Y-63728082D02*
X103819003Y-63870939D01*
X103819003Y-63870939D02*
X103819003Y-64085225D01*
X103819003Y-64085225D02*
X103747574Y-64228082D01*
X103747574Y-64228082D02*
X103676146Y-64299511D01*
X103676146Y-64299511D02*
X103533289Y-64370939D01*
X103533289Y-64370939D02*
X103104717Y-64370939D01*
X103104717Y-64370939D02*
X102961860Y-64299511D01*
X102961860Y-64299511D02*
X102890432Y-64228082D01*
X102890432Y-64228082D02*
X102819003Y-64085225D01*
X102819003Y-64085225D02*
X102819003Y-63870939D01*
X103819003Y-64870939D02*
X102819003Y-65228082D01*
X102819003Y-65228082D02*
X103819003Y-65585225D01*
X102890432Y-66728082D02*
X102819003Y-66585225D01*
X102819003Y-66585225D02*
X102819003Y-66299511D01*
X102819003Y-66299511D02*
X102890432Y-66156653D01*
X102890432Y-66156653D02*
X103033289Y-66085225D01*
X103033289Y-66085225D02*
X103604717Y-66085225D01*
X103604717Y-66085225D02*
X103747574Y-66156653D01*
X103747574Y-66156653D02*
X103819003Y-66299511D01*
X103819003Y-66299511D02*
X103819003Y-66585225D01*
X103819003Y-66585225D02*
X103747574Y-66728082D01*
X103747574Y-66728082D02*
X103604717Y-66799511D01*
X103604717Y-66799511D02*
X103461860Y-66799511D01*
X103461860Y-66799511D02*
X103319003Y-66085225D01*
X102819003Y-67442367D02*
X103819003Y-67442367D01*
X103533289Y-67442367D02*
X103676146Y-67513796D01*
X103676146Y-67513796D02*
X103747574Y-67585225D01*
X103747574Y-67585225D02*
X103819003Y-67728082D01*
X103819003Y-67728082D02*
X103819003Y-67870939D01*
X102819003Y-69513795D02*
X104319003Y-69513795D01*
X104319003Y-69513795D02*
X104319003Y-69870938D01*
X104319003Y-69870938D02*
X104247574Y-70085224D01*
X104247574Y-70085224D02*
X104104717Y-70228081D01*
X104104717Y-70228081D02*
X103961860Y-70299510D01*
X103961860Y-70299510D02*
X103676146Y-70370938D01*
X103676146Y-70370938D02*
X103461860Y-70370938D01*
X103461860Y-70370938D02*
X103176146Y-70299510D01*
X103176146Y-70299510D02*
X103033289Y-70228081D01*
X103033289Y-70228081D02*
X102890432Y-70085224D01*
X102890432Y-70085224D02*
X102819003Y-69870938D01*
X102819003Y-69870938D02*
X102819003Y-69513795D01*
X102890432Y-71585224D02*
X102819003Y-71442367D01*
X102819003Y-71442367D02*
X102819003Y-71156653D01*
X102819003Y-71156653D02*
X102890432Y-71013795D01*
X102890432Y-71013795D02*
X103033289Y-70942367D01*
X103033289Y-70942367D02*
X103604717Y-70942367D01*
X103604717Y-70942367D02*
X103747574Y-71013795D01*
X103747574Y-71013795D02*
X103819003Y-71156653D01*
X103819003Y-71156653D02*
X103819003Y-71442367D01*
X103819003Y-71442367D02*
X103747574Y-71585224D01*
X103747574Y-71585224D02*
X103604717Y-71656653D01*
X103604717Y-71656653D02*
X103461860Y-71656653D01*
X103461860Y-71656653D02*
X103319003Y-70942367D01*
X102890432Y-72228081D02*
X102819003Y-72370938D01*
X102819003Y-72370938D02*
X102819003Y-72656652D01*
X102819003Y-72656652D02*
X102890432Y-72799509D01*
X102890432Y-72799509D02*
X103033289Y-72870938D01*
X103033289Y-72870938D02*
X103104717Y-72870938D01*
X103104717Y-72870938D02*
X103247574Y-72799509D01*
X103247574Y-72799509D02*
X103319003Y-72656652D01*
X103319003Y-72656652D02*
X103319003Y-72442367D01*
X103319003Y-72442367D02*
X103390432Y-72299509D01*
X103390432Y-72299509D02*
X103533289Y-72228081D01*
X103533289Y-72228081D02*
X103604717Y-72228081D01*
X103604717Y-72228081D02*
X103747574Y-72299509D01*
X103747574Y-72299509D02*
X103819003Y-72442367D01*
X103819003Y-72442367D02*
X103819003Y-72656652D01*
X103819003Y-72656652D02*
X103747574Y-72799509D01*
X102819003Y-73513795D02*
X103819003Y-73513795D01*
X104319003Y-73513795D02*
X104247574Y-73442367D01*
X104247574Y-73442367D02*
X104176146Y-73513795D01*
X104176146Y-73513795D02*
X104247574Y-73585224D01*
X104247574Y-73585224D02*
X104319003Y-73513795D01*
X104319003Y-73513795D02*
X104176146Y-73513795D01*
X103819003Y-74870939D02*
X102604717Y-74870939D01*
X102604717Y-74870939D02*
X102461860Y-74799510D01*
X102461860Y-74799510D02*
X102390432Y-74728081D01*
X102390432Y-74728081D02*
X102319003Y-74585224D01*
X102319003Y-74585224D02*
X102319003Y-74370939D01*
X102319003Y-74370939D02*
X102390432Y-74228081D01*
X102890432Y-74870939D02*
X102819003Y-74728081D01*
X102819003Y-74728081D02*
X102819003Y-74442367D01*
X102819003Y-74442367D02*
X102890432Y-74299510D01*
X102890432Y-74299510D02*
X102961860Y-74228081D01*
X102961860Y-74228081D02*
X103104717Y-74156653D01*
X103104717Y-74156653D02*
X103533289Y-74156653D01*
X103533289Y-74156653D02*
X103676146Y-74228081D01*
X103676146Y-74228081D02*
X103747574Y-74299510D01*
X103747574Y-74299510D02*
X103819003Y-74442367D01*
X103819003Y-74442367D02*
X103819003Y-74728081D01*
X103819003Y-74728081D02*
X103747574Y-74870939D01*
X103819003Y-75585224D02*
X102819003Y-75585224D01*
X103676146Y-75585224D02*
X103747574Y-75656653D01*
X103747574Y-75656653D02*
X103819003Y-75799510D01*
X103819003Y-75799510D02*
X103819003Y-76013796D01*
X103819003Y-76013796D02*
X103747574Y-76156653D01*
X103747574Y-76156653D02*
X103604717Y-76228082D01*
X103604717Y-76228082D02*
X102819003Y-76228082D01*
X104319003Y-77870939D02*
X104319003Y-78728082D01*
X102819003Y-78299510D02*
X104319003Y-78299510D01*
X102890432Y-79799510D02*
X102819003Y-79656653D01*
X102819003Y-79656653D02*
X102819003Y-79370939D01*
X102819003Y-79370939D02*
X102890432Y-79228081D01*
X102890432Y-79228081D02*
X103033289Y-79156653D01*
X103033289Y-79156653D02*
X103604717Y-79156653D01*
X103604717Y-79156653D02*
X103747574Y-79228081D01*
X103747574Y-79228081D02*
X103819003Y-79370939D01*
X103819003Y-79370939D02*
X103819003Y-79656653D01*
X103819003Y-79656653D02*
X103747574Y-79799510D01*
X103747574Y-79799510D02*
X103604717Y-79870939D01*
X103604717Y-79870939D02*
X103461860Y-79870939D01*
X103461860Y-79870939D02*
X103319003Y-79156653D01*
X102819003Y-81156653D02*
X103604717Y-81156653D01*
X103604717Y-81156653D02*
X103747574Y-81085224D01*
X103747574Y-81085224D02*
X103819003Y-80942367D01*
X103819003Y-80942367D02*
X103819003Y-80656653D01*
X103819003Y-80656653D02*
X103747574Y-80513795D01*
X102890432Y-81156653D02*
X102819003Y-81013795D01*
X102819003Y-81013795D02*
X102819003Y-80656653D01*
X102819003Y-80656653D02*
X102890432Y-80513795D01*
X102890432Y-80513795D02*
X103033289Y-80442367D01*
X103033289Y-80442367D02*
X103176146Y-80442367D01*
X103176146Y-80442367D02*
X103319003Y-80513795D01*
X103319003Y-80513795D02*
X103390432Y-80656653D01*
X103390432Y-80656653D02*
X103390432Y-81013795D01*
X103390432Y-81013795D02*
X103461860Y-81156653D01*
X102819003Y-81870938D02*
X103819003Y-81870938D01*
X103676146Y-81870938D02*
X103747574Y-81942367D01*
X103747574Y-81942367D02*
X103819003Y-82085224D01*
X103819003Y-82085224D02*
X103819003Y-82299510D01*
X103819003Y-82299510D02*
X103747574Y-82442367D01*
X103747574Y-82442367D02*
X103604717Y-82513796D01*
X103604717Y-82513796D02*
X102819003Y-82513796D01*
X103604717Y-82513796D02*
X103747574Y-82585224D01*
X103747574Y-82585224D02*
X103819003Y-82728081D01*
X103819003Y-82728081D02*
X103819003Y-82942367D01*
X103819003Y-82942367D02*
X103747574Y-83085224D01*
X103747574Y-83085224D02*
X103604717Y-83156653D01*
X103604717Y-83156653D02*
X102819003Y-83156653D01*
X100404087Y-55799510D02*
X101904087Y-55799510D01*
X101904087Y-55799510D02*
X100832658Y-56299510D01*
X100832658Y-56299510D02*
X101904087Y-56799510D01*
X101904087Y-56799510D02*
X100404087Y-56799510D01*
X100404087Y-57513796D02*
X101404087Y-57513796D01*
X101904087Y-57513796D02*
X101832658Y-57442368D01*
X101832658Y-57442368D02*
X101761230Y-57513796D01*
X101761230Y-57513796D02*
X101832658Y-57585225D01*
X101832658Y-57585225D02*
X101904087Y-57513796D01*
X101904087Y-57513796D02*
X101761230Y-57513796D01*
X100475516Y-58156654D02*
X100404087Y-58299511D01*
X100404087Y-58299511D02*
X100404087Y-58585225D01*
X100404087Y-58585225D02*
X100475516Y-58728082D01*
X100475516Y-58728082D02*
X100618373Y-58799511D01*
X100618373Y-58799511D02*
X100689801Y-58799511D01*
X100689801Y-58799511D02*
X100832658Y-58728082D01*
X100832658Y-58728082D02*
X100904087Y-58585225D01*
X100904087Y-58585225D02*
X100904087Y-58370940D01*
X100904087Y-58370940D02*
X100975516Y-58228082D01*
X100975516Y-58228082D02*
X101118373Y-58156654D01*
X101118373Y-58156654D02*
X101189801Y-58156654D01*
X101189801Y-58156654D02*
X101332658Y-58228082D01*
X101332658Y-58228082D02*
X101404087Y-58370940D01*
X101404087Y-58370940D02*
X101404087Y-58585225D01*
X101404087Y-58585225D02*
X101332658Y-58728082D01*
X100475516Y-59370940D02*
X100404087Y-59513797D01*
X100404087Y-59513797D02*
X100404087Y-59799511D01*
X100404087Y-59799511D02*
X100475516Y-59942368D01*
X100475516Y-59942368D02*
X100618373Y-60013797D01*
X100618373Y-60013797D02*
X100689801Y-60013797D01*
X100689801Y-60013797D02*
X100832658Y-59942368D01*
X100832658Y-59942368D02*
X100904087Y-59799511D01*
X100904087Y-59799511D02*
X100904087Y-59585226D01*
X100904087Y-59585226D02*
X100975516Y-59442368D01*
X100975516Y-59442368D02*
X101118373Y-59370940D01*
X101118373Y-59370940D02*
X101189801Y-59370940D01*
X101189801Y-59370940D02*
X101332658Y-59442368D01*
X101332658Y-59442368D02*
X101404087Y-59585226D01*
X101404087Y-59585226D02*
X101404087Y-59799511D01*
X101404087Y-59799511D02*
X101332658Y-59942368D01*
X100404087Y-60870940D02*
X100475516Y-60728083D01*
X100475516Y-60728083D02*
X100546944Y-60656654D01*
X100546944Y-60656654D02*
X100689801Y-60585226D01*
X100689801Y-60585226D02*
X101118373Y-60585226D01*
X101118373Y-60585226D02*
X101261230Y-60656654D01*
X101261230Y-60656654D02*
X101332658Y-60728083D01*
X101332658Y-60728083D02*
X101404087Y-60870940D01*
X101404087Y-60870940D02*
X101404087Y-61085226D01*
X101404087Y-61085226D02*
X101332658Y-61228083D01*
X101332658Y-61228083D02*
X101261230Y-61299512D01*
X101261230Y-61299512D02*
X101118373Y-61370940D01*
X101118373Y-61370940D02*
X100689801Y-61370940D01*
X100689801Y-61370940D02*
X100546944Y-61299512D01*
X100546944Y-61299512D02*
X100475516Y-61228083D01*
X100475516Y-61228083D02*
X100404087Y-61085226D01*
X100404087Y-61085226D02*
X100404087Y-60870940D01*
X101404087Y-62656655D02*
X100404087Y-62656655D01*
X101404087Y-62013797D02*
X100618373Y-62013797D01*
X100618373Y-62013797D02*
X100475516Y-62085226D01*
X100475516Y-62085226D02*
X100404087Y-62228083D01*
X100404087Y-62228083D02*
X100404087Y-62442369D01*
X100404087Y-62442369D02*
X100475516Y-62585226D01*
X100475516Y-62585226D02*
X100546944Y-62656655D01*
X100404087Y-63370940D02*
X101404087Y-63370940D01*
X101118373Y-63370940D02*
X101261230Y-63442369D01*
X101261230Y-63442369D02*
X101332658Y-63513798D01*
X101332658Y-63513798D02*
X101404087Y-63656655D01*
X101404087Y-63656655D02*
X101404087Y-63799512D01*
X100404087Y-64299511D02*
X101404087Y-64299511D01*
X101904087Y-64299511D02*
X101832658Y-64228083D01*
X101832658Y-64228083D02*
X101761230Y-64299511D01*
X101761230Y-64299511D02*
X101832658Y-64370940D01*
X101832658Y-64370940D02*
X101904087Y-64299511D01*
X101904087Y-64299511D02*
X101761230Y-64299511D01*
X100475516Y-66085226D02*
X100404087Y-66299512D01*
X100404087Y-66299512D02*
X100404087Y-66656654D01*
X100404087Y-66656654D02*
X100475516Y-66799512D01*
X100475516Y-66799512D02*
X100546944Y-66870940D01*
X100546944Y-66870940D02*
X100689801Y-66942369D01*
X100689801Y-66942369D02*
X100832658Y-66942369D01*
X100832658Y-66942369D02*
X100975516Y-66870940D01*
X100975516Y-66870940D02*
X101046944Y-66799512D01*
X101046944Y-66799512D02*
X101118373Y-66656654D01*
X101118373Y-66656654D02*
X101189801Y-66370940D01*
X101189801Y-66370940D02*
X101261230Y-66228083D01*
X101261230Y-66228083D02*
X101332658Y-66156654D01*
X101332658Y-66156654D02*
X101475516Y-66085226D01*
X101475516Y-66085226D02*
X101618373Y-66085226D01*
X101618373Y-66085226D02*
X101761230Y-66156654D01*
X101761230Y-66156654D02*
X101832658Y-66228083D01*
X101832658Y-66228083D02*
X101904087Y-66370940D01*
X101904087Y-66370940D02*
X101904087Y-66728083D01*
X101904087Y-66728083D02*
X101832658Y-66942369D01*
X100404087Y-68799511D02*
X100404087Y-68728083D01*
X100404087Y-68728083D02*
X100475516Y-68585225D01*
X100475516Y-68585225D02*
X100689801Y-68370940D01*
X100689801Y-68370940D02*
X101118373Y-68013797D01*
X101118373Y-68013797D02*
X101332658Y-67870940D01*
X101332658Y-67870940D02*
X101546944Y-67799511D01*
X101546944Y-67799511D02*
X101689801Y-67799511D01*
X101689801Y-67799511D02*
X101832658Y-67870940D01*
X101832658Y-67870940D02*
X101904087Y-68013797D01*
X101904087Y-68013797D02*
X101904087Y-68085225D01*
X101904087Y-68085225D02*
X101832658Y-68228083D01*
X101832658Y-68228083D02*
X101689801Y-68299511D01*
X101689801Y-68299511D02*
X101618373Y-68299511D01*
X101618373Y-68299511D02*
X101475516Y-68228083D01*
X101475516Y-68228083D02*
X101404087Y-68156654D01*
X101404087Y-68156654D02*
X101118373Y-67728083D01*
X101118373Y-67728083D02*
X101046944Y-67656654D01*
X101046944Y-67656654D02*
X100904087Y-67585225D01*
X100904087Y-67585225D02*
X100689801Y-67585225D01*
X100689801Y-67585225D02*
X100546944Y-67656654D01*
X100546944Y-67656654D02*
X100475516Y-67728083D01*
X100475516Y-67728083D02*
X100404087Y-67870940D01*
X100404087Y-67870940D02*
X100404087Y-68085225D01*
X100404087Y-68085225D02*
X100475516Y-68228083D01*
X100475516Y-68228083D02*
X100546944Y-68299511D01*
X100546944Y-68299511D02*
X100832658Y-68513797D01*
X100832658Y-68513797D02*
X101046944Y-68585225D01*
X101046944Y-68585225D02*
X101189801Y-68585225D01*
X101904087Y-69228083D02*
X101904087Y-70085226D01*
X100404087Y-69656654D02*
X101904087Y-69656654D01*
X100475516Y-70656654D02*
X100404087Y-70656654D01*
X100404087Y-70656654D02*
X100261230Y-70585225D01*
X100261230Y-70585225D02*
X100189801Y-70513797D01*
X101761230Y-72370940D02*
X101832658Y-72442368D01*
X101832658Y-72442368D02*
X101904087Y-72585226D01*
X101904087Y-72585226D02*
X101904087Y-72942368D01*
X101904087Y-72942368D02*
X101832658Y-73085226D01*
X101832658Y-73085226D02*
X101761230Y-73156654D01*
X101761230Y-73156654D02*
X101618373Y-73228083D01*
X101618373Y-73228083D02*
X101475516Y-73228083D01*
X101475516Y-73228083D02*
X101261230Y-73156654D01*
X101261230Y-73156654D02*
X100404087Y-72299511D01*
X100404087Y-72299511D02*
X100404087Y-73228083D01*
X101904087Y-74156654D02*
X101904087Y-74299511D01*
X101904087Y-74299511D02*
X101832658Y-74442368D01*
X101832658Y-74442368D02*
X101761230Y-74513797D01*
X101761230Y-74513797D02*
X101618373Y-74585225D01*
X101618373Y-74585225D02*
X101332658Y-74656654D01*
X101332658Y-74656654D02*
X100975516Y-74656654D01*
X100975516Y-74656654D02*
X100689801Y-74585225D01*
X100689801Y-74585225D02*
X100546944Y-74513797D01*
X100546944Y-74513797D02*
X100475516Y-74442368D01*
X100475516Y-74442368D02*
X100404087Y-74299511D01*
X100404087Y-74299511D02*
X100404087Y-74156654D01*
X100404087Y-74156654D02*
X100475516Y-74013797D01*
X100475516Y-74013797D02*
X100546944Y-73942368D01*
X100546944Y-73942368D02*
X100689801Y-73870939D01*
X100689801Y-73870939D02*
X100975516Y-73799511D01*
X100975516Y-73799511D02*
X101332658Y-73799511D01*
X101332658Y-73799511D02*
X101618373Y-73870939D01*
X101618373Y-73870939D02*
X101761230Y-73942368D01*
X101761230Y-73942368D02*
X101832658Y-74013797D01*
X101832658Y-74013797D02*
X101904087Y-74156654D01*
X101761230Y-75228082D02*
X101832658Y-75299510D01*
X101832658Y-75299510D02*
X101904087Y-75442368D01*
X101904087Y-75442368D02*
X101904087Y-75799510D01*
X101904087Y-75799510D02*
X101832658Y-75942368D01*
X101832658Y-75942368D02*
X101761230Y-76013796D01*
X101761230Y-76013796D02*
X101618373Y-76085225D01*
X101618373Y-76085225D02*
X101475516Y-76085225D01*
X101475516Y-76085225D02*
X101261230Y-76013796D01*
X101261230Y-76013796D02*
X100404087Y-75156653D01*
X100404087Y-75156653D02*
X100404087Y-76085225D01*
X101904087Y-77442367D02*
X101904087Y-76728081D01*
X101904087Y-76728081D02*
X101189801Y-76656653D01*
X101189801Y-76656653D02*
X101261230Y-76728081D01*
X101261230Y-76728081D02*
X101332658Y-76870939D01*
X101332658Y-76870939D02*
X101332658Y-77228081D01*
X101332658Y-77228081D02*
X101261230Y-77370939D01*
X101261230Y-77370939D02*
X101189801Y-77442367D01*
X101189801Y-77442367D02*
X101046944Y-77513796D01*
X101046944Y-77513796D02*
X100689801Y-77513796D01*
X100689801Y-77513796D02*
X100546944Y-77442367D01*
X100546944Y-77442367D02*
X100475516Y-77370939D01*
X100475516Y-77370939D02*
X100404087Y-77228081D01*
X100404087Y-77228081D02*
X100404087Y-76870939D01*
X100404087Y-76870939D02*
X100475516Y-76728081D01*
X100475516Y-76728081D02*
X100546944Y-76656653D01*
X99489171Y-56228082D02*
X98417742Y-56228082D01*
X98417742Y-56228082D02*
X98203457Y-56156653D01*
X98203457Y-56156653D02*
X98060600Y-56013796D01*
X98060600Y-56013796D02*
X97989171Y-55799510D01*
X97989171Y-55799510D02*
X97989171Y-55656653D01*
X98060600Y-57513796D02*
X97989171Y-57370939D01*
X97989171Y-57370939D02*
X97989171Y-57085225D01*
X97989171Y-57085225D02*
X98060600Y-56942367D01*
X98060600Y-56942367D02*
X98203457Y-56870939D01*
X98203457Y-56870939D02*
X98774885Y-56870939D01*
X98774885Y-56870939D02*
X98917742Y-56942367D01*
X98917742Y-56942367D02*
X98989171Y-57085225D01*
X98989171Y-57085225D02*
X98989171Y-57370939D01*
X98989171Y-57370939D02*
X98917742Y-57513796D01*
X98917742Y-57513796D02*
X98774885Y-57585225D01*
X98774885Y-57585225D02*
X98632028Y-57585225D01*
X98632028Y-57585225D02*
X98489171Y-56870939D01*
X98060600Y-58156653D02*
X97989171Y-58299510D01*
X97989171Y-58299510D02*
X97989171Y-58585224D01*
X97989171Y-58585224D02*
X98060600Y-58728081D01*
X98060600Y-58728081D02*
X98203457Y-58799510D01*
X98203457Y-58799510D02*
X98274885Y-58799510D01*
X98274885Y-58799510D02*
X98417742Y-58728081D01*
X98417742Y-58728081D02*
X98489171Y-58585224D01*
X98489171Y-58585224D02*
X98489171Y-58370939D01*
X98489171Y-58370939D02*
X98560600Y-58228081D01*
X98560600Y-58228081D02*
X98703457Y-58156653D01*
X98703457Y-58156653D02*
X98774885Y-58156653D01*
X98774885Y-58156653D02*
X98917742Y-58228081D01*
X98917742Y-58228081D02*
X98989171Y-58370939D01*
X98989171Y-58370939D02*
X98989171Y-58585224D01*
X98989171Y-58585224D02*
X98917742Y-58728081D01*
X98060600Y-59370939D02*
X97989171Y-59513796D01*
X97989171Y-59513796D02*
X97989171Y-59799510D01*
X97989171Y-59799510D02*
X98060600Y-59942367D01*
X98060600Y-59942367D02*
X98203457Y-60013796D01*
X98203457Y-60013796D02*
X98274885Y-60013796D01*
X98274885Y-60013796D02*
X98417742Y-59942367D01*
X98417742Y-59942367D02*
X98489171Y-59799510D01*
X98489171Y-59799510D02*
X98489171Y-59585225D01*
X98489171Y-59585225D02*
X98560600Y-59442367D01*
X98560600Y-59442367D02*
X98703457Y-59370939D01*
X98703457Y-59370939D02*
X98774885Y-59370939D01*
X98774885Y-59370939D02*
X98917742Y-59442367D01*
X98917742Y-59442367D02*
X98989171Y-59585225D01*
X98989171Y-59585225D02*
X98989171Y-59799510D01*
X98989171Y-59799510D02*
X98917742Y-59942367D01*
X98060600Y-61228082D02*
X97989171Y-61085225D01*
X97989171Y-61085225D02*
X97989171Y-60799511D01*
X97989171Y-60799511D02*
X98060600Y-60656653D01*
X98060600Y-60656653D02*
X98203457Y-60585225D01*
X98203457Y-60585225D02*
X98774885Y-60585225D01*
X98774885Y-60585225D02*
X98917742Y-60656653D01*
X98917742Y-60656653D02*
X98989171Y-60799511D01*
X98989171Y-60799511D02*
X98989171Y-61085225D01*
X98989171Y-61085225D02*
X98917742Y-61228082D01*
X98917742Y-61228082D02*
X98774885Y-61299511D01*
X98774885Y-61299511D02*
X98632028Y-61299511D01*
X98632028Y-61299511D02*
X98489171Y-60585225D01*
X97989171Y-63085224D02*
X99489171Y-63085224D01*
X99489171Y-63085224D02*
X99489171Y-63442367D01*
X99489171Y-63442367D02*
X99417742Y-63656653D01*
X99417742Y-63656653D02*
X99274885Y-63799510D01*
X99274885Y-63799510D02*
X99132028Y-63870939D01*
X99132028Y-63870939D02*
X98846314Y-63942367D01*
X98846314Y-63942367D02*
X98632028Y-63942367D01*
X98632028Y-63942367D02*
X98346314Y-63870939D01*
X98346314Y-63870939D02*
X98203457Y-63799510D01*
X98203457Y-63799510D02*
X98060600Y-63656653D01*
X98060600Y-63656653D02*
X97989171Y-63442367D01*
X97989171Y-63442367D02*
X97989171Y-63085224D01*
X98060600Y-65156653D02*
X97989171Y-65013796D01*
X97989171Y-65013796D02*
X97989171Y-64728082D01*
X97989171Y-64728082D02*
X98060600Y-64585224D01*
X98060600Y-64585224D02*
X98203457Y-64513796D01*
X98203457Y-64513796D02*
X98774885Y-64513796D01*
X98774885Y-64513796D02*
X98917742Y-64585224D01*
X98917742Y-64585224D02*
X98989171Y-64728082D01*
X98989171Y-64728082D02*
X98989171Y-65013796D01*
X98989171Y-65013796D02*
X98917742Y-65156653D01*
X98917742Y-65156653D02*
X98774885Y-65228082D01*
X98774885Y-65228082D02*
X98632028Y-65228082D01*
X98632028Y-65228082D02*
X98489171Y-64513796D01*
X98989171Y-66513796D02*
X97989171Y-66513796D01*
X98989171Y-65870938D02*
X98203457Y-65870938D01*
X98203457Y-65870938D02*
X98060600Y-65942367D01*
X98060600Y-65942367D02*
X97989171Y-66085224D01*
X97989171Y-66085224D02*
X97989171Y-66299510D01*
X97989171Y-66299510D02*
X98060600Y-66442367D01*
X98060600Y-66442367D02*
X98132028Y-66513796D01*
X98060600Y-67799510D02*
X97989171Y-67656653D01*
X97989171Y-67656653D02*
X97989171Y-67370939D01*
X97989171Y-67370939D02*
X98060600Y-67228081D01*
X98060600Y-67228081D02*
X98203457Y-67156653D01*
X98203457Y-67156653D02*
X98774885Y-67156653D01*
X98774885Y-67156653D02*
X98917742Y-67228081D01*
X98917742Y-67228081D02*
X98989171Y-67370939D01*
X98989171Y-67370939D02*
X98989171Y-67656653D01*
X98989171Y-67656653D02*
X98917742Y-67799510D01*
X98917742Y-67799510D02*
X98774885Y-67870939D01*
X98774885Y-67870939D02*
X98632028Y-67870939D01*
X98632028Y-67870939D02*
X98489171Y-67156653D01*
X97989171Y-68728081D02*
X98060600Y-68585224D01*
X98060600Y-68585224D02*
X98203457Y-68513795D01*
X98203457Y-68513795D02*
X99489171Y-68513795D01*
X98060600Y-69370938D02*
X97989171Y-69370938D01*
X97989171Y-69370938D02*
X97846314Y-69299509D01*
X97846314Y-69299509D02*
X97774885Y-69228081D01*
X97989171Y-71156652D02*
X99489171Y-71156652D01*
X99489171Y-71156652D02*
X97989171Y-72013795D01*
X97989171Y-72013795D02*
X99489171Y-72013795D01*
X97989171Y-72942367D02*
X98060600Y-72799510D01*
X98060600Y-72799510D02*
X98132028Y-72728081D01*
X98132028Y-72728081D02*
X98274885Y-72656653D01*
X98274885Y-72656653D02*
X98703457Y-72656653D01*
X98703457Y-72656653D02*
X98846314Y-72728081D01*
X98846314Y-72728081D02*
X98917742Y-72799510D01*
X98917742Y-72799510D02*
X98989171Y-72942367D01*
X98989171Y-72942367D02*
X98989171Y-73156653D01*
X98989171Y-73156653D02*
X98917742Y-73299510D01*
X98917742Y-73299510D02*
X98846314Y-73370939D01*
X98846314Y-73370939D02*
X98703457Y-73442367D01*
X98703457Y-73442367D02*
X98274885Y-73442367D01*
X98274885Y-73442367D02*
X98132028Y-73370939D01*
X98132028Y-73370939D02*
X98060600Y-73299510D01*
X98060600Y-73299510D02*
X97989171Y-73156653D01*
X97989171Y-73156653D02*
X97989171Y-72942367D01*
X97989171Y-74728082D02*
X98774885Y-74728082D01*
X98774885Y-74728082D02*
X98917742Y-74656653D01*
X98917742Y-74656653D02*
X98989171Y-74513796D01*
X98989171Y-74513796D02*
X98989171Y-74228082D01*
X98989171Y-74228082D02*
X98917742Y-74085224D01*
X98060600Y-74728082D02*
X97989171Y-74585224D01*
X97989171Y-74585224D02*
X97989171Y-74228082D01*
X97989171Y-74228082D02*
X98060600Y-74085224D01*
X98060600Y-74085224D02*
X98203457Y-74013796D01*
X98203457Y-74013796D02*
X98346314Y-74013796D01*
X98346314Y-74013796D02*
X98489171Y-74085224D01*
X98489171Y-74085224D02*
X98560600Y-74228082D01*
X98560600Y-74228082D02*
X98560600Y-74585224D01*
X98560600Y-74585224D02*
X98632028Y-74728082D01*
X97989171Y-75442367D02*
X99489171Y-75442367D01*
X97989171Y-76085225D02*
X98774885Y-76085225D01*
X98774885Y-76085225D02*
X98917742Y-76013796D01*
X98917742Y-76013796D02*
X98989171Y-75870939D01*
X98989171Y-75870939D02*
X98989171Y-75656653D01*
X98989171Y-75656653D02*
X98917742Y-75513796D01*
X98917742Y-75513796D02*
X98846314Y-75442367D01*
X98060600Y-77870939D02*
X97989171Y-78085225D01*
X97989171Y-78085225D02*
X97989171Y-78442367D01*
X97989171Y-78442367D02*
X98060600Y-78585225D01*
X98060600Y-78585225D02*
X98132028Y-78656653D01*
X98132028Y-78656653D02*
X98274885Y-78728082D01*
X98274885Y-78728082D02*
X98417742Y-78728082D01*
X98417742Y-78728082D02*
X98560600Y-78656653D01*
X98560600Y-78656653D02*
X98632028Y-78585225D01*
X98632028Y-78585225D02*
X98703457Y-78442367D01*
X98703457Y-78442367D02*
X98774885Y-78156653D01*
X98774885Y-78156653D02*
X98846314Y-78013796D01*
X98846314Y-78013796D02*
X98917742Y-77942367D01*
X98917742Y-77942367D02*
X99060600Y-77870939D01*
X99060600Y-77870939D02*
X99203457Y-77870939D01*
X99203457Y-77870939D02*
X99346314Y-77942367D01*
X99346314Y-77942367D02*
X99417742Y-78013796D01*
X99417742Y-78013796D02*
X99489171Y-78156653D01*
X99489171Y-78156653D02*
X99489171Y-78513796D01*
X99489171Y-78513796D02*
X99417742Y-78728082D01*
X98132028Y-79370938D02*
X98060600Y-79442367D01*
X98060600Y-79442367D02*
X97989171Y-79370938D01*
X97989171Y-79370938D02*
X98060600Y-79299510D01*
X98060600Y-79299510D02*
X98132028Y-79370938D01*
X98132028Y-79370938D02*
X97989171Y-79370938D01*
D11*
X139954000Y-45910500D02*
X136956800Y-45897800D01*
X81788000Y-48006000D02*
X83566000Y-48006000D01*
X136906000Y-85344000D02*
X146304000Y-85344000D01*
X146304000Y-100584000D01*
X136906000Y-100584000D01*
X136906000Y-85344000D01*
X139700000Y-91694000D02*
X136906000Y-91694000D01*
X139700000Y-77724000D02*
X136906000Y-77724000D01*
X75184000Y-84836000D02*
X84074000Y-84836000D01*
X84074000Y-97536000D01*
X75184000Y-97536000D01*
X75184000Y-84836000D01*
X136906000Y-31051500D02*
X146304000Y-31051500D01*
X146304000Y-41148000D01*
X136906000Y-41148000D01*
X136906000Y-31051500D01*
X104648000Y-32766000D02*
X106680000Y-32766000D01*
X81788000Y-45212000D02*
X83566000Y-45212000D01*
X75184000Y-39050000D02*
X83566000Y-39050000D01*
X83566000Y-54356000D01*
X75184000Y-54356000D01*
X75184000Y-39050000D01*
X139954000Y-36068000D02*
X136906000Y-36068000D01*
X139700000Y-96774000D02*
X136906000Y-96774000D01*
X97536000Y-20320000D02*
X106934000Y-20320000D01*
X106934000Y-26924000D01*
X97536000Y-26924000D01*
X97536000Y-20320000D01*
X139700000Y-72390000D02*
X136906000Y-72390000D01*
X139700000Y-74930000D02*
X136906000Y-74930000D01*
X81788000Y-51054000D02*
X83566000Y-51054000D01*
X139954000Y-55816500D02*
X136880600Y-55829200D01*
X98044000Y-29464000D02*
X106680000Y-29464000D01*
X106680000Y-39624000D01*
X98044000Y-39624000D01*
X98044000Y-29464000D01*
X104648000Y-36068000D02*
X106680000Y-36068000D01*
X139700000Y-94234000D02*
X136906000Y-94234000D01*
X98044000Y-41148000D02*
X106680000Y-41148000D01*
X106680000Y-51308000D01*
X98044000Y-51308000D01*
X98044000Y-41148000D01*
X139700000Y-87884000D02*
X136906000Y-87884000D01*
X75184000Y-28890000D02*
X83566000Y-28890000D01*
X83566000Y-36322000D01*
X75184000Y-36322000D01*
X75184000Y-28890000D01*
X139700000Y-69850000D02*
X136906000Y-69850000D01*
X136906000Y-63500000D02*
X146304000Y-63500000D01*
X146304000Y-81280000D01*
X136906000Y-81280000D01*
X136906000Y-63500000D01*
X136906000Y-51054000D02*
X146304000Y-51054000D01*
X146304000Y-60960000D01*
X136906000Y-60960000D01*
X136906000Y-51054000D01*
X104648000Y-47752000D02*
X106680000Y-47752000D01*
X75184000Y-56322000D02*
X83566000Y-56322000D01*
X83566000Y-63754000D01*
X75184000Y-63754000D01*
X75184000Y-56322000D01*
X81534000Y-60198000D02*
X83566000Y-60198000D01*
X85344000Y-20320000D02*
X94742000Y-20320000D01*
X94742000Y-26924000D01*
X85344000Y-26924000D01*
X85344000Y-20320000D01*
X139700000Y-67564000D02*
X136906000Y-67564000D01*
X81534000Y-32766000D02*
X83566000Y-32766000D01*
X136906000Y-41148000D02*
X146304000Y-41148000D01*
X146304000Y-51054000D01*
X136906000Y-51054000D01*
X136906000Y-41148000D01*
X81788000Y-42418000D02*
X83566000Y-42418000D01*
X104648000Y-44704000D02*
X106680000Y-44704000D01*
X138760200Y-71892173D02*
X138807819Y-71783316D01*
X138807819Y-71783316D02*
X138807819Y-71601887D01*
X138807819Y-71601887D02*
X138760200Y-71529316D01*
X138760200Y-71529316D02*
X138712580Y-71493030D01*
X138712580Y-71493030D02*
X138617342Y-71456744D01*
X138617342Y-71456744D02*
X138522104Y-71456744D01*
X138522104Y-71456744D02*
X138426866Y-71493030D01*
X138426866Y-71493030D02*
X138379247Y-71529316D01*
X138379247Y-71529316D02*
X138331628Y-71601887D01*
X138331628Y-71601887D02*
X138284009Y-71747030D01*
X138284009Y-71747030D02*
X138236390Y-71819601D01*
X138236390Y-71819601D02*
X138188771Y-71855887D01*
X138188771Y-71855887D02*
X138093533Y-71892173D01*
X138093533Y-71892173D02*
X137998295Y-71892173D01*
X137998295Y-71892173D02*
X137903057Y-71855887D01*
X137903057Y-71855887D02*
X137855438Y-71819601D01*
X137855438Y-71819601D02*
X137807819Y-71747030D01*
X137807819Y-71747030D02*
X137807819Y-71565601D01*
X137807819Y-71565601D02*
X137855438Y-71456744D01*
X138712580Y-70694744D02*
X138760200Y-70731030D01*
X138760200Y-70731030D02*
X138807819Y-70839887D01*
X138807819Y-70839887D02*
X138807819Y-70912459D01*
X138807819Y-70912459D02*
X138760200Y-71021316D01*
X138760200Y-71021316D02*
X138664961Y-71093887D01*
X138664961Y-71093887D02*
X138569723Y-71130173D01*
X138569723Y-71130173D02*
X138379247Y-71166459D01*
X138379247Y-71166459D02*
X138236390Y-71166459D01*
X138236390Y-71166459D02*
X138045914Y-71130173D01*
X138045914Y-71130173D02*
X137950676Y-71093887D01*
X137950676Y-71093887D02*
X137855438Y-71021316D01*
X137855438Y-71021316D02*
X137807819Y-70912459D01*
X137807819Y-70912459D02*
X137807819Y-70839887D01*
X137807819Y-70839887D02*
X137855438Y-70731030D01*
X137855438Y-70731030D02*
X137903057Y-70694744D01*
X138807819Y-70005316D02*
X138807819Y-70368173D01*
X138807819Y-70368173D02*
X137807819Y-70368173D01*
X84045419Y-46120207D02*
X83997800Y-46072588D01*
X83997800Y-46072588D02*
X83950180Y-45929731D01*
X83950180Y-45929731D02*
X83950180Y-45834493D01*
X83950180Y-45834493D02*
X83997800Y-45691636D01*
X83997800Y-45691636D02*
X84093038Y-45596398D01*
X84093038Y-45596398D02*
X84188276Y-45548779D01*
X84188276Y-45548779D02*
X84378752Y-45501160D01*
X84378752Y-45501160D02*
X84521609Y-45501160D01*
X84521609Y-45501160D02*
X84712085Y-45548779D01*
X84712085Y-45548779D02*
X84807323Y-45596398D01*
X84807323Y-45596398D02*
X84902561Y-45691636D01*
X84902561Y-45691636D02*
X84950180Y-45834493D01*
X84950180Y-45834493D02*
X84950180Y-45929731D01*
X84950180Y-45929731D02*
X84902561Y-46072588D01*
X84902561Y-46072588D02*
X84854942Y-46120207D01*
X84045419Y-47120207D02*
X83997800Y-47072588D01*
X83997800Y-47072588D02*
X83950180Y-46929731D01*
X83950180Y-46929731D02*
X83950180Y-46834493D01*
X83950180Y-46834493D02*
X83997800Y-46691636D01*
X83997800Y-46691636D02*
X84093038Y-46596398D01*
X84093038Y-46596398D02*
X84188276Y-46548779D01*
X84188276Y-46548779D02*
X84378752Y-46501160D01*
X84378752Y-46501160D02*
X84521609Y-46501160D01*
X84521609Y-46501160D02*
X84712085Y-46548779D01*
X84712085Y-46548779D02*
X84807323Y-46596398D01*
X84807323Y-46596398D02*
X84902561Y-46691636D01*
X84902561Y-46691636D02*
X84950180Y-46834493D01*
X84950180Y-46834493D02*
X84950180Y-46929731D01*
X84950180Y-46929731D02*
X84902561Y-47072588D01*
X84902561Y-47072588D02*
X84854942Y-47120207D01*
X83950180Y-47548779D02*
X84950180Y-47548779D01*
X84950180Y-47548779D02*
X84950180Y-47786874D01*
X84950180Y-47786874D02*
X84902561Y-47929731D01*
X84902561Y-47929731D02*
X84807323Y-48024969D01*
X84807323Y-48024969D02*
X84712085Y-48072588D01*
X84712085Y-48072588D02*
X84521609Y-48120207D01*
X84521609Y-48120207D02*
X84378752Y-48120207D01*
X84378752Y-48120207D02*
X84188276Y-48072588D01*
X84188276Y-48072588D02*
X84093038Y-48024969D01*
X84093038Y-48024969D02*
X83997800Y-47929731D01*
X83997800Y-47929731D02*
X83950180Y-47786874D01*
X83950180Y-47786874D02*
X83950180Y-47548779D01*
D12*
G36*
X88395205Y-114921541D02*
G01*
X85448934Y-114921541D01*
X85448934Y-113950834D01*
X85572759Y-113950834D01*
X85576184Y-113999026D01*
X85597791Y-114042239D01*
X85634290Y-114073894D01*
X85680126Y-114089173D01*
X85728318Y-114085748D01*
X85750989Y-114077072D01*
X85845332Y-114029900D01*
X85854816Y-114023929D01*
X85854816Y-114550066D01*
X85695612Y-114550066D01*
X85671455Y-114552445D01*
X85626819Y-114570934D01*
X85592655Y-114605098D01*
X85574166Y-114649734D01*
X85574166Y-114698048D01*
X85592655Y-114742684D01*
X85626819Y-114776848D01*
X85671455Y-114795337D01*
X85695612Y-114797716D01*
X86261669Y-114797716D01*
X86285826Y-114795337D01*
X86330462Y-114776848D01*
X86364626Y-114742684D01*
X86383115Y-114698048D01*
X86383115Y-114649734D01*
X86383115Y-114649733D01*
X86470424Y-114649733D01*
X86470424Y-114698049D01*
X86488913Y-114742685D01*
X86523076Y-114776848D01*
X86567712Y-114795337D01*
X86567713Y-114795337D01*
X86591870Y-114797716D01*
X87205098Y-114797716D01*
X87229255Y-114795337D01*
X87273891Y-114776848D01*
X87308055Y-114742684D01*
X87326544Y-114698048D01*
X87326544Y-114649734D01*
X87308055Y-114605098D01*
X87273891Y-114570934D01*
X87229255Y-114552445D01*
X87205098Y-114550066D01*
X86890809Y-114550066D01*
X87245484Y-114195392D01*
X87260884Y-114176628D01*
X87262586Y-114172517D01*
X87265502Y-114169156D01*
X87275398Y-114146991D01*
X87322569Y-114005476D01*
X87325292Y-113993498D01*
X87326544Y-113990477D01*
X87326975Y-113986098D01*
X87327951Y-113981807D01*
X87327719Y-113978544D01*
X87328923Y-113966320D01*
X87328923Y-113871977D01*
X87326544Y-113847820D01*
X87324841Y-113843709D01*
X87324526Y-113839271D01*
X87315850Y-113816601D01*
X87268680Y-113722258D01*
X87262135Y-113711860D01*
X87260885Y-113708842D01*
X87258095Y-113705443D01*
X87255749Y-113701715D01*
X87253275Y-113699570D01*
X87252625Y-113698778D01*
X87365274Y-113698778D01*
X87370656Y-113722448D01*
X87700856Y-114713048D01*
X87710752Y-114735213D01*
X87716550Y-114741898D01*
X87720506Y-114749810D01*
X87732235Y-114759982D01*
X87742408Y-114771712D01*
X87750319Y-114775667D01*
X87757005Y-114781466D01*
X87771737Y-114786376D01*
X87785622Y-114793319D01*
X87794446Y-114793946D01*
X87802840Y-114796744D01*
X87818327Y-114795643D01*
X87833814Y-114796744D01*
X87842207Y-114793946D01*
X87851032Y-114793319D01*
X87864916Y-114786376D01*
X87879649Y-114781466D01*
X87886334Y-114775667D01*
X87894246Y-114771712D01*
X87904418Y-114759982D01*
X87916148Y-114749810D01*
X87920103Y-114741898D01*
X87925902Y-114735213D01*
X87935798Y-114713048D01*
X88265998Y-113722448D01*
X88271380Y-113698778D01*
X88267955Y-113650586D01*
X88246348Y-113607372D01*
X88209849Y-113575716D01*
X88164014Y-113560438D01*
X88115822Y-113563863D01*
X88072608Y-113585470D01*
X88040952Y-113621969D01*
X88031056Y-113644134D01*
X87818327Y-114282321D01*
X87605598Y-113644134D01*
X87595702Y-113621969D01*
X87564046Y-113585470D01*
X87520832Y-113563863D01*
X87472640Y-113560438D01*
X87426805Y-113575716D01*
X87390306Y-113607372D01*
X87368699Y-113650586D01*
X87365274Y-113698778D01*
X87252625Y-113698778D01*
X87245486Y-113690078D01*
X87198314Y-113642905D01*
X87188816Y-113635110D01*
X87186674Y-113632640D01*
X87182951Y-113630296D01*
X87179551Y-113627506D01*
X87176529Y-113626254D01*
X87166131Y-113619709D01*
X87071789Y-113572538D01*
X87049118Y-113563863D01*
X87044680Y-113563547D01*
X87040570Y-113561845D01*
X87016413Y-113559466D01*
X86780556Y-113559466D01*
X86756399Y-113561845D01*
X86752288Y-113563547D01*
X86747850Y-113563863D01*
X86725180Y-113572539D01*
X86630837Y-113619709D01*
X86620438Y-113626254D01*
X86617419Y-113627505D01*
X86614019Y-113630294D01*
X86610294Y-113632640D01*
X86608149Y-113635112D01*
X86598655Y-113642905D01*
X86551484Y-113690077D01*
X86536084Y-113708840D01*
X86517595Y-113753476D01*
X86517595Y-113801792D01*
X86536084Y-113846428D01*
X86570247Y-113880591D01*
X86614883Y-113899080D01*
X86663199Y-113899080D01*
X86707835Y-113880591D01*
X86726598Y-113865191D01*
X86759560Y-113832229D01*
X86809787Y-113807116D01*
X86987182Y-113807116D01*
X87037405Y-113832227D01*
X87056159Y-113850981D01*
X87081273Y-113901208D01*
X87081273Y-113946225D01*
X87049699Y-114040946D01*
X86504313Y-114586334D01*
X86488913Y-114605097D01*
X86470424Y-114649733D01*
X86383115Y-114649733D01*
X86364626Y-114605098D01*
X86330462Y-114570934D01*
X86285826Y-114552445D01*
X86261669Y-114550066D01*
X86102466Y-114550066D01*
X86102466Y-113683291D01*
X86102457Y-113683204D01*
X86102466Y-113683162D01*
X86102440Y-113683036D01*
X86100087Y-113659134D01*
X86095395Y-113647807D01*
X86092991Y-113635785D01*
X86086239Y-113625704D01*
X86081598Y-113614498D01*
X86072929Y-113605829D01*
X86066107Y-113595642D01*
X86056011Y-113588911D01*
X86047434Y-113580334D01*
X86036109Y-113575643D01*
X86025908Y-113568842D01*
X86014005Y-113566487D01*
X86002798Y-113561845D01*
X85990538Y-113561845D01*
X85978512Y-113559466D01*
X85966616Y-113561845D01*
X85954484Y-113561845D01*
X85943157Y-113566536D01*
X85931135Y-113568941D01*
X85921054Y-113575692D01*
X85909848Y-113580334D01*
X85901179Y-113589002D01*
X85890992Y-113595825D01*
X85875775Y-113614406D01*
X85875684Y-113614498D01*
X85875666Y-113614539D01*
X85875613Y-113614605D01*
X85788069Y-113745918D01*
X85716607Y-113817381D01*
X85640235Y-113855568D01*
X85619693Y-113868499D01*
X85588038Y-113904998D01*
X85572759Y-113950834D01*
X85448934Y-113950834D01*
X85448934Y-113435641D01*
X88395205Y-113435641D01*
X88395205Y-114921541D01*
G37*
D11*
X138807819Y-91103220D02*
X137807819Y-91103220D01*
X137807819Y-91103220D02*
X137807819Y-90722268D01*
X137807819Y-90722268D02*
X137855438Y-90627030D01*
X137855438Y-90627030D02*
X137903057Y-90579411D01*
X137903057Y-90579411D02*
X137998295Y-90531792D01*
X137998295Y-90531792D02*
X138141152Y-90531792D01*
X138141152Y-90531792D02*
X138236390Y-90579411D01*
X138236390Y-90579411D02*
X138284009Y-90627030D01*
X138284009Y-90627030D02*
X138331628Y-90722268D01*
X138331628Y-90722268D02*
X138331628Y-91103220D01*
X137807819Y-90198458D02*
X138807819Y-89960363D01*
X138807819Y-89960363D02*
X138093533Y-89769887D01*
X138093533Y-89769887D02*
X138807819Y-89579411D01*
X138807819Y-89579411D02*
X137807819Y-89341316D01*
X138807819Y-88960363D02*
X137807819Y-88960363D01*
X137807819Y-88960363D02*
X138522104Y-88627030D01*
X138522104Y-88627030D02*
X137807819Y-88293697D01*
X137807819Y-88293697D02*
X138807819Y-88293697D01*
X138284009Y-86705887D02*
X138331628Y-86563030D01*
X138331628Y-86563030D02*
X138379247Y-86515411D01*
X138379247Y-86515411D02*
X138474485Y-86467792D01*
X138474485Y-86467792D02*
X138617342Y-86467792D01*
X138617342Y-86467792D02*
X138712580Y-86515411D01*
X138712580Y-86515411D02*
X138760200Y-86563030D01*
X138760200Y-86563030D02*
X138807819Y-86658268D01*
X138807819Y-86658268D02*
X138807819Y-87039220D01*
X138807819Y-87039220D02*
X137807819Y-87039220D01*
X137807819Y-87039220D02*
X137807819Y-86705887D01*
X137807819Y-86705887D02*
X137855438Y-86610649D01*
X137855438Y-86610649D02*
X137903057Y-86563030D01*
X137903057Y-86563030D02*
X137998295Y-86515411D01*
X137998295Y-86515411D02*
X138093533Y-86515411D01*
X138093533Y-86515411D02*
X138188771Y-86563030D01*
X138188771Y-86563030D02*
X138236390Y-86610649D01*
X138236390Y-86610649D02*
X138284009Y-86705887D01*
X138284009Y-86705887D02*
X138284009Y-87039220D01*
X129933819Y-76006077D02*
X129933819Y-75434649D01*
X130933819Y-75720363D02*
X129933819Y-75720363D01*
X129933819Y-74910839D02*
X129933819Y-74720363D01*
X129933819Y-74720363D02*
X129981438Y-74625125D01*
X129981438Y-74625125D02*
X130076676Y-74529887D01*
X130076676Y-74529887D02*
X130267152Y-74482268D01*
X130267152Y-74482268D02*
X130600485Y-74482268D01*
X130600485Y-74482268D02*
X130790961Y-74529887D01*
X130790961Y-74529887D02*
X130886200Y-74625125D01*
X130886200Y-74625125D02*
X130933819Y-74720363D01*
X130933819Y-74720363D02*
X130933819Y-74910839D01*
X130933819Y-74910839D02*
X130886200Y-75006077D01*
X130886200Y-75006077D02*
X130790961Y-75101315D01*
X130790961Y-75101315D02*
X130600485Y-75148934D01*
X130600485Y-75148934D02*
X130267152Y-75148934D01*
X130267152Y-75148934D02*
X130076676Y-75101315D01*
X130076676Y-75101315D02*
X129981438Y-75006077D01*
X129981438Y-75006077D02*
X129933819Y-74910839D01*
X130410009Y-73720363D02*
X130410009Y-74053696D01*
X130933819Y-74053696D02*
X129933819Y-74053696D01*
X129933819Y-74053696D02*
X129933819Y-73577506D01*
X130886200Y-72482267D02*
X130933819Y-72339410D01*
X130933819Y-72339410D02*
X130933819Y-72101315D01*
X130933819Y-72101315D02*
X130886200Y-72006077D01*
X130886200Y-72006077D02*
X130838580Y-71958458D01*
X130838580Y-71958458D02*
X130743342Y-71910839D01*
X130743342Y-71910839D02*
X130648104Y-71910839D01*
X130648104Y-71910839D02*
X130552866Y-71958458D01*
X130552866Y-71958458D02*
X130505247Y-72006077D01*
X130505247Y-72006077D02*
X130457628Y-72101315D01*
X130457628Y-72101315D02*
X130410009Y-72291791D01*
X130410009Y-72291791D02*
X130362390Y-72387029D01*
X130362390Y-72387029D02*
X130314771Y-72434648D01*
X130314771Y-72434648D02*
X130219533Y-72482267D01*
X130219533Y-72482267D02*
X130124295Y-72482267D01*
X130124295Y-72482267D02*
X130029057Y-72434648D01*
X130029057Y-72434648D02*
X129981438Y-72387029D01*
X129981438Y-72387029D02*
X129933819Y-72291791D01*
X129933819Y-72291791D02*
X129933819Y-72053696D01*
X129933819Y-72053696D02*
X129981438Y-71910839D01*
X130886200Y-71101315D02*
X130933819Y-71196553D01*
X130933819Y-71196553D02*
X130933819Y-71387029D01*
X130933819Y-71387029D02*
X130886200Y-71482267D01*
X130886200Y-71482267D02*
X130790961Y-71529886D01*
X130790961Y-71529886D02*
X130410009Y-71529886D01*
X130410009Y-71529886D02*
X130314771Y-71482267D01*
X130314771Y-71482267D02*
X130267152Y-71387029D01*
X130267152Y-71387029D02*
X130267152Y-71196553D01*
X130267152Y-71196553D02*
X130314771Y-71101315D01*
X130314771Y-71101315D02*
X130410009Y-71053696D01*
X130410009Y-71053696D02*
X130505247Y-71053696D01*
X130505247Y-71053696D02*
X130600485Y-71529886D01*
X130267152Y-70625124D02*
X130933819Y-70625124D01*
X130362390Y-70625124D02*
X130314771Y-70577505D01*
X130314771Y-70577505D02*
X130267152Y-70482267D01*
X130267152Y-70482267D02*
X130267152Y-70339410D01*
X130267152Y-70339410D02*
X130314771Y-70244172D01*
X130314771Y-70244172D02*
X130410009Y-70196553D01*
X130410009Y-70196553D02*
X130933819Y-70196553D01*
X130886200Y-69767981D02*
X130933819Y-69672743D01*
X130933819Y-69672743D02*
X130933819Y-69482267D01*
X130933819Y-69482267D02*
X130886200Y-69387029D01*
X130886200Y-69387029D02*
X130790961Y-69339410D01*
X130790961Y-69339410D02*
X130743342Y-69339410D01*
X130743342Y-69339410D02*
X130648104Y-69387029D01*
X130648104Y-69387029D02*
X130600485Y-69482267D01*
X130600485Y-69482267D02*
X130600485Y-69625124D01*
X130600485Y-69625124D02*
X130552866Y-69720362D01*
X130552866Y-69720362D02*
X130457628Y-69767981D01*
X130457628Y-69767981D02*
X130410009Y-69767981D01*
X130410009Y-69767981D02*
X130314771Y-69720362D01*
X130314771Y-69720362D02*
X130267152Y-69625124D01*
X130267152Y-69625124D02*
X130267152Y-69482267D01*
X130267152Y-69482267D02*
X130314771Y-69387029D01*
X130933819Y-68767981D02*
X130886200Y-68863219D01*
X130886200Y-68863219D02*
X130838580Y-68910838D01*
X130838580Y-68910838D02*
X130743342Y-68958457D01*
X130743342Y-68958457D02*
X130457628Y-68958457D01*
X130457628Y-68958457D02*
X130362390Y-68910838D01*
X130362390Y-68910838D02*
X130314771Y-68863219D01*
X130314771Y-68863219D02*
X130267152Y-68767981D01*
X130267152Y-68767981D02*
X130267152Y-68625124D01*
X130267152Y-68625124D02*
X130314771Y-68529886D01*
X130314771Y-68529886D02*
X130362390Y-68482267D01*
X130362390Y-68482267D02*
X130457628Y-68434648D01*
X130457628Y-68434648D02*
X130743342Y-68434648D01*
X130743342Y-68434648D02*
X130838580Y-68482267D01*
X130838580Y-68482267D02*
X130886200Y-68529886D01*
X130886200Y-68529886D02*
X130933819Y-68625124D01*
X130933819Y-68625124D02*
X130933819Y-68767981D01*
X130933819Y-68006076D02*
X130267152Y-68006076D01*
X130457628Y-68006076D02*
X130362390Y-67958457D01*
X130362390Y-67958457D02*
X130314771Y-67910838D01*
X130314771Y-67910838D02*
X130267152Y-67815600D01*
X130267152Y-67815600D02*
X130267152Y-67720362D01*
X137807819Y-44716458D02*
X137807819Y-44097411D01*
X137807819Y-44097411D02*
X138188771Y-44430744D01*
X138188771Y-44430744D02*
X138188771Y-44287887D01*
X138188771Y-44287887D02*
X138236390Y-44192649D01*
X138236390Y-44192649D02*
X138284009Y-44145030D01*
X138284009Y-44145030D02*
X138379247Y-44097411D01*
X138379247Y-44097411D02*
X138617342Y-44097411D01*
X138617342Y-44097411D02*
X138712580Y-44145030D01*
X138712580Y-44145030D02*
X138760200Y-44192649D01*
X138760200Y-44192649D02*
X138807819Y-44287887D01*
X138807819Y-44287887D02*
X138807819Y-44573601D01*
X138807819Y-44573601D02*
X138760200Y-44668839D01*
X138760200Y-44668839D02*
X138712580Y-44716458D01*
X137807819Y-43811696D02*
X138807819Y-43478363D01*
X138807819Y-43478363D02*
X137807819Y-43145030D01*
X137807819Y-42906934D02*
X137807819Y-42287887D01*
X137807819Y-42287887D02*
X138188771Y-42621220D01*
X138188771Y-42621220D02*
X138188771Y-42478363D01*
X138188771Y-42478363D02*
X138236390Y-42383125D01*
X138236390Y-42383125D02*
X138284009Y-42335506D01*
X138284009Y-42335506D02*
X138379247Y-42287887D01*
X138379247Y-42287887D02*
X138617342Y-42287887D01*
X138617342Y-42287887D02*
X138712580Y-42335506D01*
X138712580Y-42335506D02*
X138760200Y-42383125D01*
X138760200Y-42383125D02*
X138807819Y-42478363D01*
X138807819Y-42478363D02*
X138807819Y-42764077D01*
X138807819Y-42764077D02*
X138760200Y-42859315D01*
X138760200Y-42859315D02*
X138712580Y-42906934D01*
X138522104Y-95722839D02*
X138522104Y-95246649D01*
X138807819Y-95818077D02*
X137807819Y-95484744D01*
X137807819Y-95484744D02*
X138807819Y-95151411D01*
X83124561Y-30070588D02*
X83172180Y-29975350D01*
X83172180Y-29975350D02*
X83172180Y-29832493D01*
X83172180Y-29832493D02*
X83124561Y-29689636D01*
X83124561Y-29689636D02*
X83029323Y-29594398D01*
X83029323Y-29594398D02*
X82934085Y-29546779D01*
X82934085Y-29546779D02*
X82743609Y-29499160D01*
X82743609Y-29499160D02*
X82600752Y-29499160D01*
X82600752Y-29499160D02*
X82410276Y-29546779D01*
X82410276Y-29546779D02*
X82315038Y-29594398D01*
X82315038Y-29594398D02*
X82219800Y-29689636D01*
X82219800Y-29689636D02*
X82172180Y-29832493D01*
X82172180Y-29832493D02*
X82172180Y-29927731D01*
X82172180Y-29927731D02*
X82219800Y-30070588D01*
X82219800Y-30070588D02*
X82267419Y-30118207D01*
X82267419Y-30118207D02*
X82600752Y-30118207D01*
X82600752Y-30118207D02*
X82600752Y-29927731D01*
X82172180Y-30546779D02*
X83172180Y-30546779D01*
X83172180Y-30546779D02*
X82172180Y-31118207D01*
X82172180Y-31118207D02*
X83172180Y-31118207D01*
X82172180Y-31594398D02*
X83172180Y-31594398D01*
X83172180Y-31594398D02*
X83172180Y-31832493D01*
X83172180Y-31832493D02*
X83124561Y-31975350D01*
X83124561Y-31975350D02*
X83029323Y-32070588D01*
X83029323Y-32070588D02*
X82934085Y-32118207D01*
X82934085Y-32118207D02*
X82743609Y-32165826D01*
X82743609Y-32165826D02*
X82600752Y-32165826D01*
X82600752Y-32165826D02*
X82410276Y-32118207D01*
X82410276Y-32118207D02*
X82315038Y-32070588D01*
X82315038Y-32070588D02*
X82219800Y-31975350D01*
X82219800Y-31975350D02*
X82172180Y-31832493D01*
X82172180Y-31832493D02*
X82172180Y-31594398D01*
X108524561Y-31848588D02*
X108572180Y-31753350D01*
X108572180Y-31753350D02*
X108572180Y-31610493D01*
X108572180Y-31610493D02*
X108524561Y-31467636D01*
X108524561Y-31467636D02*
X108429323Y-31372398D01*
X108429323Y-31372398D02*
X108334085Y-31324779D01*
X108334085Y-31324779D02*
X108143609Y-31277160D01*
X108143609Y-31277160D02*
X108000752Y-31277160D01*
X108000752Y-31277160D02*
X107810276Y-31324779D01*
X107810276Y-31324779D02*
X107715038Y-31372398D01*
X107715038Y-31372398D02*
X107619800Y-31467636D01*
X107619800Y-31467636D02*
X107572180Y-31610493D01*
X107572180Y-31610493D02*
X107572180Y-31705731D01*
X107572180Y-31705731D02*
X107619800Y-31848588D01*
X107619800Y-31848588D02*
X107667419Y-31896207D01*
X107667419Y-31896207D02*
X108000752Y-31896207D01*
X108000752Y-31896207D02*
X108000752Y-31705731D01*
X107572180Y-32324779D02*
X108238847Y-32324779D01*
X108572180Y-32324779D02*
X108524561Y-32277160D01*
X108524561Y-32277160D02*
X108476942Y-32324779D01*
X108476942Y-32324779D02*
X108524561Y-32372398D01*
X108524561Y-32372398D02*
X108572180Y-32324779D01*
X108572180Y-32324779D02*
X108476942Y-32324779D01*
X107572180Y-32800969D02*
X108238847Y-32800969D01*
X108143609Y-32800969D02*
X108191228Y-32848588D01*
X108191228Y-32848588D02*
X108238847Y-32943826D01*
X108238847Y-32943826D02*
X108238847Y-33086683D01*
X108238847Y-33086683D02*
X108191228Y-33181921D01*
X108191228Y-33181921D02*
X108095990Y-33229540D01*
X108095990Y-33229540D02*
X107572180Y-33229540D01*
X108095990Y-33229540D02*
X108191228Y-33277159D01*
X108191228Y-33277159D02*
X108238847Y-33372397D01*
X108238847Y-33372397D02*
X108238847Y-33515254D01*
X108238847Y-33515254D02*
X108191228Y-33610493D01*
X108191228Y-33610493D02*
X108095990Y-33658112D01*
X108095990Y-33658112D02*
X107572180Y-33658112D01*
X107572180Y-34134302D02*
X108572180Y-34134302D01*
X108191228Y-34134302D02*
X108238847Y-34229540D01*
X108238847Y-34229540D02*
X108238847Y-34420016D01*
X108238847Y-34420016D02*
X108191228Y-34515254D01*
X108191228Y-34515254D02*
X108143609Y-34562873D01*
X108143609Y-34562873D02*
X108048371Y-34610492D01*
X108048371Y-34610492D02*
X107762657Y-34610492D01*
X107762657Y-34610492D02*
X107667419Y-34562873D01*
X107667419Y-34562873D02*
X107619800Y-34515254D01*
X107619800Y-34515254D02*
X107572180Y-34420016D01*
X107572180Y-34420016D02*
X107572180Y-34229540D01*
X107572180Y-34229540D02*
X107619800Y-34134302D01*
X107572180Y-35467635D02*
X108095990Y-35467635D01*
X108095990Y-35467635D02*
X108191228Y-35420016D01*
X108191228Y-35420016D02*
X108238847Y-35324778D01*
X108238847Y-35324778D02*
X108238847Y-35134302D01*
X108238847Y-35134302D02*
X108191228Y-35039064D01*
X107619800Y-35467635D02*
X107572180Y-35372397D01*
X107572180Y-35372397D02*
X107572180Y-35134302D01*
X107572180Y-35134302D02*
X107619800Y-35039064D01*
X107619800Y-35039064D02*
X107715038Y-34991445D01*
X107715038Y-34991445D02*
X107810276Y-34991445D01*
X107810276Y-34991445D02*
X107905514Y-35039064D01*
X107905514Y-35039064D02*
X107953133Y-35134302D01*
X107953133Y-35134302D02*
X107953133Y-35372397D01*
X107953133Y-35372397D02*
X108000752Y-35467635D01*
X107572180Y-36086683D02*
X107619800Y-35991445D01*
X107619800Y-35991445D02*
X107715038Y-35943826D01*
X107715038Y-35943826D02*
X108572180Y-35943826D01*
X107857895Y-37181922D02*
X107857895Y-37658112D01*
X107572180Y-37086684D02*
X108572180Y-37420017D01*
X108572180Y-37420017D02*
X107572180Y-37753350D01*
X83950180Y-31292969D02*
X83950180Y-30816779D01*
X83950180Y-30816779D02*
X84950180Y-30816779D01*
X83950180Y-32054874D02*
X84473990Y-32054874D01*
X84473990Y-32054874D02*
X84569228Y-32007255D01*
X84569228Y-32007255D02*
X84616847Y-31912017D01*
X84616847Y-31912017D02*
X84616847Y-31721541D01*
X84616847Y-31721541D02*
X84569228Y-31626303D01*
X83997800Y-32054874D02*
X83950180Y-31959636D01*
X83950180Y-31959636D02*
X83950180Y-31721541D01*
X83950180Y-31721541D02*
X83997800Y-31626303D01*
X83997800Y-31626303D02*
X84093038Y-31578684D01*
X84093038Y-31578684D02*
X84188276Y-31578684D01*
X84188276Y-31578684D02*
X84283514Y-31626303D01*
X84283514Y-31626303D02*
X84331133Y-31721541D01*
X84331133Y-31721541D02*
X84331133Y-31959636D01*
X84331133Y-31959636D02*
X84378752Y-32054874D01*
X83997800Y-32483446D02*
X83950180Y-32578684D01*
X83950180Y-32578684D02*
X83950180Y-32769160D01*
X83950180Y-32769160D02*
X83997800Y-32864398D01*
X83997800Y-32864398D02*
X84093038Y-32912017D01*
X84093038Y-32912017D02*
X84140657Y-32912017D01*
X84140657Y-32912017D02*
X84235895Y-32864398D01*
X84235895Y-32864398D02*
X84283514Y-32769160D01*
X84283514Y-32769160D02*
X84283514Y-32626303D01*
X84283514Y-32626303D02*
X84331133Y-32531065D01*
X84331133Y-32531065D02*
X84426371Y-32483446D01*
X84426371Y-32483446D02*
X84473990Y-32483446D01*
X84473990Y-32483446D02*
X84569228Y-32531065D01*
X84569228Y-32531065D02*
X84616847Y-32626303D01*
X84616847Y-32626303D02*
X84616847Y-32769160D01*
X84616847Y-32769160D02*
X84569228Y-32864398D01*
X83997800Y-33721541D02*
X83950180Y-33626303D01*
X83950180Y-33626303D02*
X83950180Y-33435827D01*
X83950180Y-33435827D02*
X83997800Y-33340589D01*
X83997800Y-33340589D02*
X84093038Y-33292970D01*
X84093038Y-33292970D02*
X84473990Y-33292970D01*
X84473990Y-33292970D02*
X84569228Y-33340589D01*
X84569228Y-33340589D02*
X84616847Y-33435827D01*
X84616847Y-33435827D02*
X84616847Y-33626303D01*
X84616847Y-33626303D02*
X84569228Y-33721541D01*
X84569228Y-33721541D02*
X84473990Y-33769160D01*
X84473990Y-33769160D02*
X84378752Y-33769160D01*
X84378752Y-33769160D02*
X84283514Y-33292970D01*
X83950180Y-34197732D02*
X84616847Y-34197732D01*
X84426371Y-34197732D02*
X84521609Y-34245351D01*
X84521609Y-34245351D02*
X84569228Y-34292970D01*
X84569228Y-34292970D02*
X84616847Y-34388208D01*
X84616847Y-34388208D02*
X84616847Y-34483446D01*
X138172866Y-69061887D02*
X138172866Y-68481316D01*
X82172180Y-86188779D02*
X83172180Y-86188779D01*
X83172180Y-86188779D02*
X82457895Y-86522112D01*
X82457895Y-86522112D02*
X83172180Y-86855445D01*
X83172180Y-86855445D02*
X82172180Y-86855445D01*
X82172180Y-87474493D02*
X82219800Y-87379255D01*
X82219800Y-87379255D02*
X82267419Y-87331636D01*
X82267419Y-87331636D02*
X82362657Y-87284017D01*
X82362657Y-87284017D02*
X82648371Y-87284017D01*
X82648371Y-87284017D02*
X82743609Y-87331636D01*
X82743609Y-87331636D02*
X82791228Y-87379255D01*
X82791228Y-87379255D02*
X82838847Y-87474493D01*
X82838847Y-87474493D02*
X82838847Y-87617350D01*
X82838847Y-87617350D02*
X82791228Y-87712588D01*
X82791228Y-87712588D02*
X82743609Y-87760207D01*
X82743609Y-87760207D02*
X82648371Y-87807826D01*
X82648371Y-87807826D02*
X82362657Y-87807826D01*
X82362657Y-87807826D02*
X82267419Y-87760207D01*
X82267419Y-87760207D02*
X82219800Y-87712588D01*
X82219800Y-87712588D02*
X82172180Y-87617350D01*
X82172180Y-87617350D02*
X82172180Y-87474493D01*
X82838847Y-88093541D02*
X82838847Y-88474493D01*
X83172180Y-88236398D02*
X82315038Y-88236398D01*
X82315038Y-88236398D02*
X82219800Y-88284017D01*
X82219800Y-88284017D02*
X82172180Y-88379255D01*
X82172180Y-88379255D02*
X82172180Y-88474493D01*
X82172180Y-88950684D02*
X82219800Y-88855446D01*
X82219800Y-88855446D02*
X82267419Y-88807827D01*
X82267419Y-88807827D02*
X82362657Y-88760208D01*
X82362657Y-88760208D02*
X82648371Y-88760208D01*
X82648371Y-88760208D02*
X82743609Y-88807827D01*
X82743609Y-88807827D02*
X82791228Y-88855446D01*
X82791228Y-88855446D02*
X82838847Y-88950684D01*
X82838847Y-88950684D02*
X82838847Y-89093541D01*
X82838847Y-89093541D02*
X82791228Y-89188779D01*
X82791228Y-89188779D02*
X82743609Y-89236398D01*
X82743609Y-89236398D02*
X82648371Y-89284017D01*
X82648371Y-89284017D02*
X82362657Y-89284017D01*
X82362657Y-89284017D02*
X82267419Y-89236398D01*
X82267419Y-89236398D02*
X82219800Y-89188779D01*
X82219800Y-89188779D02*
X82172180Y-89093541D01*
X82172180Y-89093541D02*
X82172180Y-88950684D01*
X82172180Y-89712589D02*
X82838847Y-89712589D01*
X82648371Y-89712589D02*
X82743609Y-89760208D01*
X82743609Y-89760208D02*
X82791228Y-89807827D01*
X82791228Y-89807827D02*
X82838847Y-89903065D01*
X82838847Y-89903065D02*
X82838847Y-89998303D01*
X82695990Y-91093542D02*
X82695990Y-91426875D01*
X82172180Y-91569732D02*
X82172180Y-91093542D01*
X82172180Y-91093542D02*
X83172180Y-91093542D01*
X83172180Y-91093542D02*
X83172180Y-91569732D01*
X82838847Y-91998304D02*
X82172180Y-91998304D01*
X82743609Y-91998304D02*
X82791228Y-92045923D01*
X82791228Y-92045923D02*
X82838847Y-92141161D01*
X82838847Y-92141161D02*
X82838847Y-92284018D01*
X82838847Y-92284018D02*
X82791228Y-92379256D01*
X82791228Y-92379256D02*
X82695990Y-92426875D01*
X82695990Y-92426875D02*
X82172180Y-92426875D01*
X82219800Y-93331637D02*
X82172180Y-93236399D01*
X82172180Y-93236399D02*
X82172180Y-93045923D01*
X82172180Y-93045923D02*
X82219800Y-92950685D01*
X82219800Y-92950685D02*
X82267419Y-92903066D01*
X82267419Y-92903066D02*
X82362657Y-92855447D01*
X82362657Y-92855447D02*
X82648371Y-92855447D01*
X82648371Y-92855447D02*
X82743609Y-92903066D01*
X82743609Y-92903066D02*
X82791228Y-92950685D01*
X82791228Y-92950685D02*
X82838847Y-93045923D01*
X82838847Y-93045923D02*
X82838847Y-93236399D01*
X82838847Y-93236399D02*
X82791228Y-93331637D01*
X82172180Y-93903066D02*
X82219800Y-93807828D01*
X82219800Y-93807828D02*
X82267419Y-93760209D01*
X82267419Y-93760209D02*
X82362657Y-93712590D01*
X82362657Y-93712590D02*
X82648371Y-93712590D01*
X82648371Y-93712590D02*
X82743609Y-93760209D01*
X82743609Y-93760209D02*
X82791228Y-93807828D01*
X82791228Y-93807828D02*
X82838847Y-93903066D01*
X82838847Y-93903066D02*
X82838847Y-94045923D01*
X82838847Y-94045923D02*
X82791228Y-94141161D01*
X82791228Y-94141161D02*
X82743609Y-94188780D01*
X82743609Y-94188780D02*
X82648371Y-94236399D01*
X82648371Y-94236399D02*
X82362657Y-94236399D01*
X82362657Y-94236399D02*
X82267419Y-94188780D01*
X82267419Y-94188780D02*
X82219800Y-94141161D01*
X82219800Y-94141161D02*
X82172180Y-94045923D01*
X82172180Y-94045923D02*
X82172180Y-93903066D01*
X82172180Y-95093542D02*
X83172180Y-95093542D01*
X82219800Y-95093542D02*
X82172180Y-94998304D01*
X82172180Y-94998304D02*
X82172180Y-94807828D01*
X82172180Y-94807828D02*
X82219800Y-94712590D01*
X82219800Y-94712590D02*
X82267419Y-94664971D01*
X82267419Y-94664971D02*
X82362657Y-94617352D01*
X82362657Y-94617352D02*
X82648371Y-94617352D01*
X82648371Y-94617352D02*
X82743609Y-94664971D01*
X82743609Y-94664971D02*
X82791228Y-94712590D01*
X82791228Y-94712590D02*
X82838847Y-94807828D01*
X82838847Y-94807828D02*
X82838847Y-94998304D01*
X82838847Y-94998304D02*
X82791228Y-95093542D01*
X82219800Y-95950685D02*
X82172180Y-95855447D01*
X82172180Y-95855447D02*
X82172180Y-95664971D01*
X82172180Y-95664971D02*
X82219800Y-95569733D01*
X82219800Y-95569733D02*
X82315038Y-95522114D01*
X82315038Y-95522114D02*
X82695990Y-95522114D01*
X82695990Y-95522114D02*
X82791228Y-95569733D01*
X82791228Y-95569733D02*
X82838847Y-95664971D01*
X82838847Y-95664971D02*
X82838847Y-95855447D01*
X82838847Y-95855447D02*
X82791228Y-95950685D01*
X82791228Y-95950685D02*
X82695990Y-95998304D01*
X82695990Y-95998304D02*
X82600752Y-95998304D01*
X82600752Y-95998304D02*
X82505514Y-95522114D01*
X82172180Y-96426876D02*
X82838847Y-96426876D01*
X82648371Y-96426876D02*
X82743609Y-96474495D01*
X82743609Y-96474495D02*
X82791228Y-96522114D01*
X82791228Y-96522114D02*
X82838847Y-96617352D01*
X82838847Y-96617352D02*
X82838847Y-96712590D01*
X136267819Y-49733030D02*
X136267819Y-50209220D01*
X136267819Y-50209220D02*
X135267819Y-50209220D01*
X136267819Y-49399696D02*
X135601152Y-49399696D01*
X135267819Y-49399696D02*
X135315438Y-49447315D01*
X135315438Y-49447315D02*
X135363057Y-49399696D01*
X135363057Y-49399696D02*
X135315438Y-49352077D01*
X135315438Y-49352077D02*
X135267819Y-49399696D01*
X135267819Y-49399696D02*
X135363057Y-49399696D01*
X136267819Y-48923506D02*
X135601152Y-48923506D01*
X135696390Y-48923506D02*
X135648771Y-48875887D01*
X135648771Y-48875887D02*
X135601152Y-48780649D01*
X135601152Y-48780649D02*
X135601152Y-48637792D01*
X135601152Y-48637792D02*
X135648771Y-48542554D01*
X135648771Y-48542554D02*
X135744009Y-48494935D01*
X135744009Y-48494935D02*
X136267819Y-48494935D01*
X135744009Y-48494935D02*
X135648771Y-48447316D01*
X135648771Y-48447316D02*
X135601152Y-48352078D01*
X135601152Y-48352078D02*
X135601152Y-48209221D01*
X135601152Y-48209221D02*
X135648771Y-48113982D01*
X135648771Y-48113982D02*
X135744009Y-48066363D01*
X135744009Y-48066363D02*
X136267819Y-48066363D01*
X136220200Y-47637792D02*
X136267819Y-47494935D01*
X136267819Y-47494935D02*
X136267819Y-47256840D01*
X136267819Y-47256840D02*
X136220200Y-47161602D01*
X136220200Y-47161602D02*
X136172580Y-47113983D01*
X136172580Y-47113983D02*
X136077342Y-47066364D01*
X136077342Y-47066364D02*
X135982104Y-47066364D01*
X135982104Y-47066364D02*
X135886866Y-47113983D01*
X135886866Y-47113983D02*
X135839247Y-47161602D01*
X135839247Y-47161602D02*
X135791628Y-47256840D01*
X135791628Y-47256840D02*
X135744009Y-47447316D01*
X135744009Y-47447316D02*
X135696390Y-47542554D01*
X135696390Y-47542554D02*
X135648771Y-47590173D01*
X135648771Y-47590173D02*
X135553533Y-47637792D01*
X135553533Y-47637792D02*
X135458295Y-47637792D01*
X135458295Y-47637792D02*
X135363057Y-47590173D01*
X135363057Y-47590173D02*
X135315438Y-47542554D01*
X135315438Y-47542554D02*
X135267819Y-47447316D01*
X135267819Y-47447316D02*
X135267819Y-47209221D01*
X135267819Y-47209221D02*
X135315438Y-47066364D01*
X135601152Y-46733030D02*
X136267819Y-46542554D01*
X136267819Y-46542554D02*
X135791628Y-46352078D01*
X135791628Y-46352078D02*
X136267819Y-46161602D01*
X136267819Y-46161602D02*
X135601152Y-45971126D01*
X136267819Y-45590173D02*
X135601152Y-45590173D01*
X135267819Y-45590173D02*
X135315438Y-45637792D01*
X135315438Y-45637792D02*
X135363057Y-45590173D01*
X135363057Y-45590173D02*
X135315438Y-45542554D01*
X135315438Y-45542554D02*
X135267819Y-45590173D01*
X135267819Y-45590173D02*
X135363057Y-45590173D01*
X135601152Y-45256840D02*
X135601152Y-44875888D01*
X135267819Y-45113983D02*
X136124961Y-45113983D01*
X136124961Y-45113983D02*
X136220200Y-45066364D01*
X136220200Y-45066364D02*
X136267819Y-44971126D01*
X136267819Y-44971126D02*
X136267819Y-44875888D01*
X136220200Y-44113983D02*
X136267819Y-44209221D01*
X136267819Y-44209221D02*
X136267819Y-44399697D01*
X136267819Y-44399697D02*
X136220200Y-44494935D01*
X136220200Y-44494935D02*
X136172580Y-44542554D01*
X136172580Y-44542554D02*
X136077342Y-44590173D01*
X136077342Y-44590173D02*
X135791628Y-44590173D01*
X135791628Y-44590173D02*
X135696390Y-44542554D01*
X135696390Y-44542554D02*
X135648771Y-44494935D01*
X135648771Y-44494935D02*
X135601152Y-44399697D01*
X135601152Y-44399697D02*
X135601152Y-44209221D01*
X135601152Y-44209221D02*
X135648771Y-44113983D01*
X136267819Y-43685411D02*
X135267819Y-43685411D01*
X136267819Y-43256840D02*
X135744009Y-43256840D01*
X135744009Y-43256840D02*
X135648771Y-43304459D01*
X135648771Y-43304459D02*
X135601152Y-43399697D01*
X135601152Y-43399697D02*
X135601152Y-43542554D01*
X135601152Y-43542554D02*
X135648771Y-43637792D01*
X135648771Y-43637792D02*
X135696390Y-43685411D01*
X135363057Y-42828268D02*
X135315438Y-42780649D01*
X135315438Y-42780649D02*
X135267819Y-42685411D01*
X135267819Y-42685411D02*
X135267819Y-42447316D01*
X135267819Y-42447316D02*
X135315438Y-42352078D01*
X135315438Y-42352078D02*
X135363057Y-42304459D01*
X135363057Y-42304459D02*
X135458295Y-42256840D01*
X135458295Y-42256840D02*
X135553533Y-42256840D01*
X135553533Y-42256840D02*
X135696390Y-42304459D01*
X135696390Y-42304459D02*
X136267819Y-42875887D01*
X136267819Y-42875887D02*
X136267819Y-42256840D01*
X83159054Y-40774969D02*
X83159054Y-40412112D01*
X83159054Y-40412112D02*
X82796197Y-40375826D01*
X82796197Y-40375826D02*
X82832482Y-40412112D01*
X82832482Y-40412112D02*
X82868768Y-40484684D01*
X82868768Y-40484684D02*
X82868768Y-40666112D01*
X82868768Y-40666112D02*
X82832482Y-40738684D01*
X82832482Y-40738684D02*
X82796197Y-40774969D01*
X82796197Y-40774969D02*
X82723625Y-40811255D01*
X82723625Y-40811255D02*
X82542197Y-40811255D01*
X82542197Y-40811255D02*
X82469625Y-40774969D01*
X82469625Y-40774969D02*
X82433340Y-40738684D01*
X82433340Y-40738684D02*
X82397054Y-40666112D01*
X82397054Y-40666112D02*
X82397054Y-40484684D01*
X82397054Y-40484684D02*
X82433340Y-40412112D01*
X82433340Y-40412112D02*
X82469625Y-40375826D01*
X83159054Y-41028969D02*
X82397054Y-41282969D01*
X82397054Y-41282969D02*
X83159054Y-41536969D01*
X82397054Y-46181541D02*
X82759911Y-45927541D01*
X82397054Y-45746112D02*
X83159054Y-45746112D01*
X83159054Y-45746112D02*
X83159054Y-46036398D01*
X83159054Y-46036398D02*
X83122768Y-46108969D01*
X83122768Y-46108969D02*
X83086482Y-46145255D01*
X83086482Y-46145255D02*
X83013911Y-46181541D01*
X83013911Y-46181541D02*
X82905054Y-46181541D01*
X82905054Y-46181541D02*
X82832482Y-46145255D01*
X82832482Y-46145255D02*
X82796197Y-46108969D01*
X82796197Y-46108969D02*
X82759911Y-46036398D01*
X82759911Y-46036398D02*
X82759911Y-45746112D01*
X83159054Y-46653255D02*
X83159054Y-46798398D01*
X83159054Y-46798398D02*
X83122768Y-46870969D01*
X83122768Y-46870969D02*
X83050197Y-46943541D01*
X83050197Y-46943541D02*
X82905054Y-46979826D01*
X82905054Y-46979826D02*
X82651054Y-46979826D01*
X82651054Y-46979826D02*
X82505911Y-46943541D01*
X82505911Y-46943541D02*
X82433340Y-46870969D01*
X82433340Y-46870969D02*
X82397054Y-46798398D01*
X82397054Y-46798398D02*
X82397054Y-46653255D01*
X82397054Y-46653255D02*
X82433340Y-46580684D01*
X82433340Y-46580684D02*
X82505911Y-46508112D01*
X82505911Y-46508112D02*
X82651054Y-46471826D01*
X82651054Y-46471826D02*
X82905054Y-46471826D01*
X82905054Y-46471826D02*
X83050197Y-46508112D01*
X83050197Y-46508112D02*
X83122768Y-46580684D01*
X83122768Y-46580684D02*
X83159054Y-46653255D01*
X83122768Y-47705541D02*
X83159054Y-47632970D01*
X83159054Y-47632970D02*
X83159054Y-47524112D01*
X83159054Y-47524112D02*
X83122768Y-47415255D01*
X83122768Y-47415255D02*
X83050197Y-47342684D01*
X83050197Y-47342684D02*
X82977625Y-47306398D01*
X82977625Y-47306398D02*
X82832482Y-47270112D01*
X82832482Y-47270112D02*
X82723625Y-47270112D01*
X82723625Y-47270112D02*
X82578482Y-47306398D01*
X82578482Y-47306398D02*
X82505911Y-47342684D01*
X82505911Y-47342684D02*
X82433340Y-47415255D01*
X82433340Y-47415255D02*
X82397054Y-47524112D01*
X82397054Y-47524112D02*
X82397054Y-47596684D01*
X82397054Y-47596684D02*
X82433340Y-47705541D01*
X82433340Y-47705541D02*
X82469625Y-47741827D01*
X82469625Y-47741827D02*
X82723625Y-47741827D01*
X82723625Y-47741827D02*
X82723625Y-47596684D01*
X83159054Y-48939255D02*
X83159054Y-49084398D01*
X83159054Y-49084398D02*
X83122768Y-49156969D01*
X83122768Y-49156969D02*
X83050197Y-49229541D01*
X83050197Y-49229541D02*
X82905054Y-49265826D01*
X82905054Y-49265826D02*
X82651054Y-49265826D01*
X82651054Y-49265826D02*
X82505911Y-49229541D01*
X82505911Y-49229541D02*
X82433340Y-49156969D01*
X82433340Y-49156969D02*
X82397054Y-49084398D01*
X82397054Y-49084398D02*
X82397054Y-48939255D01*
X82397054Y-48939255D02*
X82433340Y-48866684D01*
X82433340Y-48866684D02*
X82505911Y-48794112D01*
X82505911Y-48794112D02*
X82651054Y-48757826D01*
X82651054Y-48757826D02*
X82905054Y-48757826D01*
X82905054Y-48757826D02*
X83050197Y-48794112D01*
X83050197Y-48794112D02*
X83122768Y-48866684D01*
X83122768Y-48866684D02*
X83159054Y-48939255D01*
X83159054Y-49592398D02*
X82542197Y-49592398D01*
X82542197Y-49592398D02*
X82469625Y-49628684D01*
X82469625Y-49628684D02*
X82433340Y-49664970D01*
X82433340Y-49664970D02*
X82397054Y-49737541D01*
X82397054Y-49737541D02*
X82397054Y-49882684D01*
X82397054Y-49882684D02*
X82433340Y-49955255D01*
X82433340Y-49955255D02*
X82469625Y-49991541D01*
X82469625Y-49991541D02*
X82542197Y-50027827D01*
X82542197Y-50027827D02*
X83159054Y-50027827D01*
X83159054Y-50281827D02*
X83159054Y-50717256D01*
X82397054Y-50499541D02*
X83159054Y-50499541D01*
X138807819Y-76681887D02*
X137807819Y-76681887D01*
X137807819Y-76173887D02*
X137807819Y-76028744D01*
X137807819Y-76028744D02*
X137855438Y-75956173D01*
X137855438Y-75956173D02*
X137950676Y-75883601D01*
X137950676Y-75883601D02*
X138141152Y-75847316D01*
X138141152Y-75847316D02*
X138474485Y-75847316D01*
X138474485Y-75847316D02*
X138664961Y-75883601D01*
X138664961Y-75883601D02*
X138760200Y-75956173D01*
X138760200Y-75956173D02*
X138807819Y-76028744D01*
X138807819Y-76028744D02*
X138807819Y-76173887D01*
X138807819Y-76173887D02*
X138760200Y-76246459D01*
X138760200Y-76246459D02*
X138664961Y-76319030D01*
X138664961Y-76319030D02*
X138474485Y-76355316D01*
X138474485Y-76355316D02*
X138141152Y-76355316D01*
X138141152Y-76355316D02*
X137950676Y-76319030D01*
X137950676Y-76319030D02*
X137855438Y-76246459D01*
X137855438Y-76246459D02*
X137807819Y-76173887D01*
X138712580Y-93071792D02*
X138760200Y-93119411D01*
X138760200Y-93119411D02*
X138807819Y-93262268D01*
X138807819Y-93262268D02*
X138807819Y-93357506D01*
X138807819Y-93357506D02*
X138760200Y-93500363D01*
X138760200Y-93500363D02*
X138664961Y-93595601D01*
X138664961Y-93595601D02*
X138569723Y-93643220D01*
X138569723Y-93643220D02*
X138379247Y-93690839D01*
X138379247Y-93690839D02*
X138236390Y-93690839D01*
X138236390Y-93690839D02*
X138045914Y-93643220D01*
X138045914Y-93643220D02*
X137950676Y-93595601D01*
X137950676Y-93595601D02*
X137855438Y-93500363D01*
X137855438Y-93500363D02*
X137807819Y-93357506D01*
X137807819Y-93357506D02*
X137807819Y-93262268D01*
X137807819Y-93262268D02*
X137855438Y-93119411D01*
X137855438Y-93119411D02*
X137903057Y-93071792D01*
X138760200Y-92690839D02*
X138807819Y-92547982D01*
X138807819Y-92547982D02*
X138807819Y-92309887D01*
X138807819Y-92309887D02*
X138760200Y-92214649D01*
X138760200Y-92214649D02*
X138712580Y-92167030D01*
X138712580Y-92167030D02*
X138617342Y-92119411D01*
X138617342Y-92119411D02*
X138522104Y-92119411D01*
X138522104Y-92119411D02*
X138426866Y-92167030D01*
X138426866Y-92167030D02*
X138379247Y-92214649D01*
X138379247Y-92214649D02*
X138331628Y-92309887D01*
X138331628Y-92309887D02*
X138284009Y-92500363D01*
X138284009Y-92500363D02*
X138236390Y-92595601D01*
X138236390Y-92595601D02*
X138188771Y-92643220D01*
X138188771Y-92643220D02*
X138093533Y-92690839D01*
X138093533Y-92690839D02*
X137998295Y-92690839D01*
X137998295Y-92690839D02*
X137903057Y-92643220D01*
X137903057Y-92643220D02*
X137855438Y-92595601D01*
X137855438Y-92595601D02*
X137807819Y-92500363D01*
X137807819Y-92500363D02*
X137807819Y-92262268D01*
X137807819Y-92262268D02*
X137855438Y-92119411D01*
X82172180Y-33880588D02*
X82172180Y-33309160D01*
X82172180Y-33594874D02*
X83172180Y-33594874D01*
X83172180Y-33594874D02*
X83029323Y-33499636D01*
X83029323Y-33499636D02*
X82934085Y-33404398D01*
X82934085Y-33404398D02*
X82886466Y-33309160D01*
X83076942Y-34261541D02*
X83124561Y-34309160D01*
X83124561Y-34309160D02*
X83172180Y-34404398D01*
X83172180Y-34404398D02*
X83172180Y-34642493D01*
X83172180Y-34642493D02*
X83124561Y-34737731D01*
X83124561Y-34737731D02*
X83076942Y-34785350D01*
X83076942Y-34785350D02*
X82981704Y-34832969D01*
X82981704Y-34832969D02*
X82886466Y-34832969D01*
X82886466Y-34832969D02*
X82743609Y-34785350D01*
X82743609Y-34785350D02*
X82172180Y-34213922D01*
X82172180Y-34213922D02*
X82172180Y-34832969D01*
X83172180Y-35118684D02*
X82172180Y-35452017D01*
X82172180Y-35452017D02*
X83172180Y-35785350D01*
X84727990Y-59344112D02*
X84727990Y-59010779D01*
X84204180Y-59010779D02*
X85204180Y-59010779D01*
X85204180Y-59010779D02*
X85204180Y-59486969D01*
X84204180Y-60296493D02*
X84727990Y-60296493D01*
X84727990Y-60296493D02*
X84823228Y-60248874D01*
X84823228Y-60248874D02*
X84870847Y-60153636D01*
X84870847Y-60153636D02*
X84870847Y-59963160D01*
X84870847Y-59963160D02*
X84823228Y-59867922D01*
X84251800Y-60296493D02*
X84204180Y-60201255D01*
X84204180Y-60201255D02*
X84204180Y-59963160D01*
X84204180Y-59963160D02*
X84251800Y-59867922D01*
X84251800Y-59867922D02*
X84347038Y-59820303D01*
X84347038Y-59820303D02*
X84442276Y-59820303D01*
X84442276Y-59820303D02*
X84537514Y-59867922D01*
X84537514Y-59867922D02*
X84585133Y-59963160D01*
X84585133Y-59963160D02*
X84585133Y-60201255D01*
X84585133Y-60201255D02*
X84632752Y-60296493D01*
X84870847Y-60772684D02*
X84204180Y-60772684D01*
X84775609Y-60772684D02*
X84823228Y-60820303D01*
X84823228Y-60820303D02*
X84870847Y-60915541D01*
X84870847Y-60915541D02*
X84870847Y-61058398D01*
X84870847Y-61058398D02*
X84823228Y-61153636D01*
X84823228Y-61153636D02*
X84727990Y-61201255D01*
X84727990Y-61201255D02*
X84204180Y-61201255D01*
X82469625Y-43387541D02*
X82433340Y-43351255D01*
X82433340Y-43351255D02*
X82397054Y-43242398D01*
X82397054Y-43242398D02*
X82397054Y-43169826D01*
X82397054Y-43169826D02*
X82433340Y-43060969D01*
X82433340Y-43060969D02*
X82505911Y-42988398D01*
X82505911Y-42988398D02*
X82578482Y-42952112D01*
X82578482Y-42952112D02*
X82723625Y-42915826D01*
X82723625Y-42915826D02*
X82832482Y-42915826D01*
X82832482Y-42915826D02*
X82977625Y-42952112D01*
X82977625Y-42952112D02*
X83050197Y-42988398D01*
X83050197Y-42988398D02*
X83122768Y-43060969D01*
X83122768Y-43060969D02*
X83159054Y-43169826D01*
X83159054Y-43169826D02*
X83159054Y-43242398D01*
X83159054Y-43242398D02*
X83122768Y-43351255D01*
X83122768Y-43351255D02*
X83086482Y-43387541D01*
X82397054Y-44076969D02*
X82397054Y-43714112D01*
X82397054Y-43714112D02*
X83159054Y-43714112D01*
X82397054Y-44330969D02*
X83159054Y-44330969D01*
X82397054Y-44766398D02*
X82832482Y-44439826D01*
X83159054Y-44766398D02*
X82723625Y-44330969D01*
X105982768Y-37509255D02*
X106019054Y-37436684D01*
X106019054Y-37436684D02*
X106019054Y-37327826D01*
X106019054Y-37327826D02*
X105982768Y-37218969D01*
X105982768Y-37218969D02*
X105910197Y-37146398D01*
X105910197Y-37146398D02*
X105837625Y-37110112D01*
X105837625Y-37110112D02*
X105692482Y-37073826D01*
X105692482Y-37073826D02*
X105583625Y-37073826D01*
X105583625Y-37073826D02*
X105438482Y-37110112D01*
X105438482Y-37110112D02*
X105365911Y-37146398D01*
X105365911Y-37146398D02*
X105293340Y-37218969D01*
X105293340Y-37218969D02*
X105257054Y-37327826D01*
X105257054Y-37327826D02*
X105257054Y-37400398D01*
X105257054Y-37400398D02*
X105293340Y-37509255D01*
X105293340Y-37509255D02*
X105329625Y-37545541D01*
X105329625Y-37545541D02*
X105583625Y-37545541D01*
X105583625Y-37545541D02*
X105583625Y-37400398D01*
X105257054Y-37872112D02*
X106019054Y-37872112D01*
X106019054Y-37872112D02*
X105257054Y-38307541D01*
X105257054Y-38307541D02*
X106019054Y-38307541D01*
X105257054Y-38670398D02*
X106019054Y-38670398D01*
X106019054Y-38670398D02*
X106019054Y-38851827D01*
X106019054Y-38851827D02*
X105982768Y-38960684D01*
X105982768Y-38960684D02*
X105910197Y-39033255D01*
X105910197Y-39033255D02*
X105837625Y-39069541D01*
X105837625Y-39069541D02*
X105692482Y-39105827D01*
X105692482Y-39105827D02*
X105583625Y-39105827D01*
X105583625Y-39105827D02*
X105438482Y-39069541D01*
X105438482Y-39069541D02*
X105365911Y-39033255D01*
X105365911Y-39033255D02*
X105293340Y-38960684D01*
X105293340Y-38960684D02*
X105257054Y-38851827D01*
X105257054Y-38851827D02*
X105257054Y-38670398D01*
X138760200Y-99786839D02*
X138807819Y-99643982D01*
X138807819Y-99643982D02*
X138807819Y-99405887D01*
X138807819Y-99405887D02*
X138760200Y-99310649D01*
X138760200Y-99310649D02*
X138712580Y-99263030D01*
X138712580Y-99263030D02*
X138617342Y-99215411D01*
X138617342Y-99215411D02*
X138522104Y-99215411D01*
X138522104Y-99215411D02*
X138426866Y-99263030D01*
X138426866Y-99263030D02*
X138379247Y-99310649D01*
X138379247Y-99310649D02*
X138331628Y-99405887D01*
X138331628Y-99405887D02*
X138284009Y-99596363D01*
X138284009Y-99596363D02*
X138236390Y-99691601D01*
X138236390Y-99691601D02*
X138188771Y-99739220D01*
X138188771Y-99739220D02*
X138093533Y-99786839D01*
X138093533Y-99786839D02*
X137998295Y-99786839D01*
X137998295Y-99786839D02*
X137903057Y-99739220D01*
X137903057Y-99739220D02*
X137855438Y-99691601D01*
X137855438Y-99691601D02*
X137807819Y-99596363D01*
X137807819Y-99596363D02*
X137807819Y-99358268D01*
X137807819Y-99358268D02*
X137855438Y-99215411D01*
X138284009Y-98786839D02*
X138284009Y-98453506D01*
X138807819Y-98310649D02*
X138807819Y-98786839D01*
X138807819Y-98786839D02*
X137807819Y-98786839D01*
X137807819Y-98786839D02*
X137807819Y-98310649D01*
X138807819Y-97405887D02*
X138807819Y-97882077D01*
X138807819Y-97882077D02*
X137807819Y-97882077D01*
X106019054Y-42806969D02*
X106019054Y-42444112D01*
X106019054Y-42444112D02*
X105656197Y-42407826D01*
X105656197Y-42407826D02*
X105692482Y-42444112D01*
X105692482Y-42444112D02*
X105728768Y-42516684D01*
X105728768Y-42516684D02*
X105728768Y-42698112D01*
X105728768Y-42698112D02*
X105692482Y-42770684D01*
X105692482Y-42770684D02*
X105656197Y-42806969D01*
X105656197Y-42806969D02*
X105583625Y-42843255D01*
X105583625Y-42843255D02*
X105402197Y-42843255D01*
X105402197Y-42843255D02*
X105329625Y-42806969D01*
X105329625Y-42806969D02*
X105293340Y-42770684D01*
X105293340Y-42770684D02*
X105257054Y-42698112D01*
X105257054Y-42698112D02*
X105257054Y-42516684D01*
X105257054Y-42516684D02*
X105293340Y-42444112D01*
X105293340Y-42444112D02*
X105329625Y-42407826D01*
X106019054Y-43060969D02*
X105257054Y-43314969D01*
X105257054Y-43314969D02*
X106019054Y-43568969D01*
X108270561Y-43786588D02*
X108318180Y-43691350D01*
X108318180Y-43691350D02*
X108318180Y-43548493D01*
X108318180Y-43548493D02*
X108270561Y-43405636D01*
X108270561Y-43405636D02*
X108175323Y-43310398D01*
X108175323Y-43310398D02*
X108080085Y-43262779D01*
X108080085Y-43262779D02*
X107889609Y-43215160D01*
X107889609Y-43215160D02*
X107746752Y-43215160D01*
X107746752Y-43215160D02*
X107556276Y-43262779D01*
X107556276Y-43262779D02*
X107461038Y-43310398D01*
X107461038Y-43310398D02*
X107365800Y-43405636D01*
X107365800Y-43405636D02*
X107318180Y-43548493D01*
X107318180Y-43548493D02*
X107318180Y-43643731D01*
X107318180Y-43643731D02*
X107365800Y-43786588D01*
X107365800Y-43786588D02*
X107413419Y-43834207D01*
X107413419Y-43834207D02*
X107746752Y-43834207D01*
X107746752Y-43834207D02*
X107746752Y-43643731D01*
X107318180Y-44262779D02*
X107984847Y-44262779D01*
X108318180Y-44262779D02*
X108270561Y-44215160D01*
X108270561Y-44215160D02*
X108222942Y-44262779D01*
X108222942Y-44262779D02*
X108270561Y-44310398D01*
X108270561Y-44310398D02*
X108318180Y-44262779D01*
X108318180Y-44262779D02*
X108222942Y-44262779D01*
X107318180Y-44738969D02*
X107984847Y-44738969D01*
X107889609Y-44738969D02*
X107937228Y-44786588D01*
X107937228Y-44786588D02*
X107984847Y-44881826D01*
X107984847Y-44881826D02*
X107984847Y-45024683D01*
X107984847Y-45024683D02*
X107937228Y-45119921D01*
X107937228Y-45119921D02*
X107841990Y-45167540D01*
X107841990Y-45167540D02*
X107318180Y-45167540D01*
X107841990Y-45167540D02*
X107937228Y-45215159D01*
X107937228Y-45215159D02*
X107984847Y-45310397D01*
X107984847Y-45310397D02*
X107984847Y-45453254D01*
X107984847Y-45453254D02*
X107937228Y-45548493D01*
X107937228Y-45548493D02*
X107841990Y-45596112D01*
X107841990Y-45596112D02*
X107318180Y-45596112D01*
X107318180Y-46072302D02*
X108318180Y-46072302D01*
X107937228Y-46072302D02*
X107984847Y-46167540D01*
X107984847Y-46167540D02*
X107984847Y-46358016D01*
X107984847Y-46358016D02*
X107937228Y-46453254D01*
X107937228Y-46453254D02*
X107889609Y-46500873D01*
X107889609Y-46500873D02*
X107794371Y-46548492D01*
X107794371Y-46548492D02*
X107508657Y-46548492D01*
X107508657Y-46548492D02*
X107413419Y-46500873D01*
X107413419Y-46500873D02*
X107365800Y-46453254D01*
X107365800Y-46453254D02*
X107318180Y-46358016D01*
X107318180Y-46358016D02*
X107318180Y-46167540D01*
X107318180Y-46167540D02*
X107365800Y-46072302D01*
X107318180Y-47405635D02*
X107841990Y-47405635D01*
X107841990Y-47405635D02*
X107937228Y-47358016D01*
X107937228Y-47358016D02*
X107984847Y-47262778D01*
X107984847Y-47262778D02*
X107984847Y-47072302D01*
X107984847Y-47072302D02*
X107937228Y-46977064D01*
X107365800Y-47405635D02*
X107318180Y-47310397D01*
X107318180Y-47310397D02*
X107318180Y-47072302D01*
X107318180Y-47072302D02*
X107365800Y-46977064D01*
X107365800Y-46977064D02*
X107461038Y-46929445D01*
X107461038Y-46929445D02*
X107556276Y-46929445D01*
X107556276Y-46929445D02*
X107651514Y-46977064D01*
X107651514Y-46977064D02*
X107699133Y-47072302D01*
X107699133Y-47072302D02*
X107699133Y-47310397D01*
X107699133Y-47310397D02*
X107746752Y-47405635D01*
X107318180Y-48024683D02*
X107365800Y-47929445D01*
X107365800Y-47929445D02*
X107461038Y-47881826D01*
X107461038Y-47881826D02*
X108318180Y-47881826D01*
X107841990Y-49500874D02*
X107794371Y-49643731D01*
X107794371Y-49643731D02*
X107746752Y-49691350D01*
X107746752Y-49691350D02*
X107651514Y-49738969D01*
X107651514Y-49738969D02*
X107508657Y-49738969D01*
X107508657Y-49738969D02*
X107413419Y-49691350D01*
X107413419Y-49691350D02*
X107365800Y-49643731D01*
X107365800Y-49643731D02*
X107318180Y-49548493D01*
X107318180Y-49548493D02*
X107318180Y-49167541D01*
X107318180Y-49167541D02*
X108318180Y-49167541D01*
X108318180Y-49167541D02*
X108318180Y-49500874D01*
X108318180Y-49500874D02*
X108270561Y-49596112D01*
X108270561Y-49596112D02*
X108222942Y-49643731D01*
X108222942Y-49643731D02*
X108127704Y-49691350D01*
X108127704Y-49691350D02*
X108032466Y-49691350D01*
X108032466Y-49691350D02*
X107937228Y-49643731D01*
X107937228Y-49643731D02*
X107889609Y-49596112D01*
X107889609Y-49596112D02*
X107841990Y-49500874D01*
X107841990Y-49500874D02*
X107841990Y-49167541D01*
X105982768Y-49193255D02*
X106019054Y-49120684D01*
X106019054Y-49120684D02*
X106019054Y-49011826D01*
X106019054Y-49011826D02*
X105982768Y-48902969D01*
X105982768Y-48902969D02*
X105910197Y-48830398D01*
X105910197Y-48830398D02*
X105837625Y-48794112D01*
X105837625Y-48794112D02*
X105692482Y-48757826D01*
X105692482Y-48757826D02*
X105583625Y-48757826D01*
X105583625Y-48757826D02*
X105438482Y-48794112D01*
X105438482Y-48794112D02*
X105365911Y-48830398D01*
X105365911Y-48830398D02*
X105293340Y-48902969D01*
X105293340Y-48902969D02*
X105257054Y-49011826D01*
X105257054Y-49011826D02*
X105257054Y-49084398D01*
X105257054Y-49084398D02*
X105293340Y-49193255D01*
X105293340Y-49193255D02*
X105329625Y-49229541D01*
X105329625Y-49229541D02*
X105583625Y-49229541D01*
X105583625Y-49229541D02*
X105583625Y-49084398D01*
X105257054Y-49556112D02*
X106019054Y-49556112D01*
X106019054Y-49556112D02*
X105257054Y-49991541D01*
X105257054Y-49991541D02*
X106019054Y-49991541D01*
X105257054Y-50354398D02*
X106019054Y-50354398D01*
X106019054Y-50354398D02*
X106019054Y-50535827D01*
X106019054Y-50535827D02*
X105982768Y-50644684D01*
X105982768Y-50644684D02*
X105910197Y-50717255D01*
X105910197Y-50717255D02*
X105837625Y-50753541D01*
X105837625Y-50753541D02*
X105692482Y-50789827D01*
X105692482Y-50789827D02*
X105583625Y-50789827D01*
X105583625Y-50789827D02*
X105438482Y-50753541D01*
X105438482Y-50753541D02*
X105365911Y-50717255D01*
X105365911Y-50717255D02*
X105293340Y-50644684D01*
X105293340Y-50644684D02*
X105257054Y-50535827D01*
X105257054Y-50535827D02*
X105257054Y-50354398D01*
X106019054Y-31122969D02*
X106019054Y-30760112D01*
X106019054Y-30760112D02*
X105656197Y-30723826D01*
X105656197Y-30723826D02*
X105692482Y-30760112D01*
X105692482Y-30760112D02*
X105728768Y-30832684D01*
X105728768Y-30832684D02*
X105728768Y-31014112D01*
X105728768Y-31014112D02*
X105692482Y-31086684D01*
X105692482Y-31086684D02*
X105656197Y-31122969D01*
X105656197Y-31122969D02*
X105583625Y-31159255D01*
X105583625Y-31159255D02*
X105402197Y-31159255D01*
X105402197Y-31159255D02*
X105329625Y-31122969D01*
X105329625Y-31122969D02*
X105293340Y-31086684D01*
X105293340Y-31086684D02*
X105257054Y-31014112D01*
X105257054Y-31014112D02*
X105257054Y-30832684D01*
X105257054Y-30832684D02*
X105293340Y-30760112D01*
X105293340Y-30760112D02*
X105329625Y-30723826D01*
X106019054Y-31376969D02*
X105257054Y-31630969D01*
X105257054Y-31630969D02*
X106019054Y-31884969D01*
X137855438Y-58956411D02*
X137807819Y-59051649D01*
X137807819Y-59051649D02*
X137807819Y-59194506D01*
X137807819Y-59194506D02*
X137855438Y-59337363D01*
X137855438Y-59337363D02*
X137950676Y-59432601D01*
X137950676Y-59432601D02*
X138045914Y-59480220D01*
X138045914Y-59480220D02*
X138236390Y-59527839D01*
X138236390Y-59527839D02*
X138379247Y-59527839D01*
X138379247Y-59527839D02*
X138569723Y-59480220D01*
X138569723Y-59480220D02*
X138664961Y-59432601D01*
X138664961Y-59432601D02*
X138760200Y-59337363D01*
X138760200Y-59337363D02*
X138807819Y-59194506D01*
X138807819Y-59194506D02*
X138807819Y-59099268D01*
X138807819Y-59099268D02*
X138760200Y-58956411D01*
X138760200Y-58956411D02*
X138712580Y-58908792D01*
X138712580Y-58908792D02*
X138379247Y-58908792D01*
X138379247Y-58908792D02*
X138379247Y-59099268D01*
X138807819Y-58480220D02*
X137807819Y-58480220D01*
X137807819Y-58480220D02*
X138807819Y-57908792D01*
X138807819Y-57908792D02*
X137807819Y-57908792D01*
X138807819Y-57432601D02*
X137807819Y-57432601D01*
X137807819Y-57432601D02*
X137807819Y-57194506D01*
X137807819Y-57194506D02*
X137855438Y-57051649D01*
X137855438Y-57051649D02*
X137950676Y-56956411D01*
X137950676Y-56956411D02*
X138045914Y-56908792D01*
X138045914Y-56908792D02*
X138236390Y-56861173D01*
X138236390Y-56861173D02*
X138379247Y-56861173D01*
X138379247Y-56861173D02*
X138569723Y-56908792D01*
X138569723Y-56908792D02*
X138664961Y-56956411D01*
X138664961Y-56956411D02*
X138760200Y-57051649D01*
X138760200Y-57051649D02*
X138807819Y-57194506D01*
X138807819Y-57194506D02*
X138807819Y-57432601D01*
X137807819Y-80310458D02*
X137807819Y-79838744D01*
X137807819Y-79838744D02*
X138188771Y-80092744D01*
X138188771Y-80092744D02*
X138188771Y-79983887D01*
X138188771Y-79983887D02*
X138236390Y-79911316D01*
X138236390Y-79911316D02*
X138284009Y-79875030D01*
X138284009Y-79875030D02*
X138379247Y-79838744D01*
X138379247Y-79838744D02*
X138617342Y-79838744D01*
X138617342Y-79838744D02*
X138712580Y-79875030D01*
X138712580Y-79875030D02*
X138760200Y-79911316D01*
X138760200Y-79911316D02*
X138807819Y-79983887D01*
X138807819Y-79983887D02*
X138807819Y-80201601D01*
X138807819Y-80201601D02*
X138760200Y-80274173D01*
X138760200Y-80274173D02*
X138712580Y-80310458D01*
X137807819Y-79621030D02*
X138807819Y-79367030D01*
X138807819Y-79367030D02*
X137807819Y-79113030D01*
X137807819Y-78931601D02*
X137807819Y-78459887D01*
X137807819Y-78459887D02*
X138188771Y-78713887D01*
X138188771Y-78713887D02*
X138188771Y-78605030D01*
X138188771Y-78605030D02*
X138236390Y-78532459D01*
X138236390Y-78532459D02*
X138284009Y-78496173D01*
X138284009Y-78496173D02*
X138379247Y-78459887D01*
X138379247Y-78459887D02*
X138617342Y-78459887D01*
X138617342Y-78459887D02*
X138712580Y-78496173D01*
X138712580Y-78496173D02*
X138760200Y-78532459D01*
X138760200Y-78532459D02*
X138807819Y-78605030D01*
X138807819Y-78605030D02*
X138807819Y-78822744D01*
X138807819Y-78822744D02*
X138760200Y-78895316D01*
X138760200Y-78895316D02*
X138712580Y-78931601D01*
X137807819Y-66594458D02*
X137807819Y-66122744D01*
X137807819Y-66122744D02*
X138188771Y-66376744D01*
X138188771Y-66376744D02*
X138188771Y-66267887D01*
X138188771Y-66267887D02*
X138236390Y-66195316D01*
X138236390Y-66195316D02*
X138284009Y-66159030D01*
X138284009Y-66159030D02*
X138379247Y-66122744D01*
X138379247Y-66122744D02*
X138617342Y-66122744D01*
X138617342Y-66122744D02*
X138712580Y-66159030D01*
X138712580Y-66159030D02*
X138760200Y-66195316D01*
X138760200Y-66195316D02*
X138807819Y-66267887D01*
X138807819Y-66267887D02*
X138807819Y-66485601D01*
X138807819Y-66485601D02*
X138760200Y-66558173D01*
X138760200Y-66558173D02*
X138712580Y-66594458D01*
X137807819Y-65905030D02*
X138807819Y-65651030D01*
X138807819Y-65651030D02*
X137807819Y-65397030D01*
X137807819Y-65215601D02*
X137807819Y-64743887D01*
X137807819Y-64743887D02*
X138188771Y-64997887D01*
X138188771Y-64997887D02*
X138188771Y-64889030D01*
X138188771Y-64889030D02*
X138236390Y-64816459D01*
X138236390Y-64816459D02*
X138284009Y-64780173D01*
X138284009Y-64780173D02*
X138379247Y-64743887D01*
X138379247Y-64743887D02*
X138617342Y-64743887D01*
X138617342Y-64743887D02*
X138712580Y-64780173D01*
X138712580Y-64780173D02*
X138760200Y-64816459D01*
X138760200Y-64816459D02*
X138807819Y-64889030D01*
X138807819Y-64889030D02*
X138807819Y-65106744D01*
X138807819Y-65106744D02*
X138760200Y-65179316D01*
X138760200Y-65179316D02*
X138712580Y-65215601D01*
X137807819Y-34810458D02*
X137807819Y-34191411D01*
X137807819Y-34191411D02*
X138188771Y-34524744D01*
X138188771Y-34524744D02*
X138188771Y-34381887D01*
X138188771Y-34381887D02*
X138236390Y-34286649D01*
X138236390Y-34286649D02*
X138284009Y-34239030D01*
X138284009Y-34239030D02*
X138379247Y-34191411D01*
X138379247Y-34191411D02*
X138617342Y-34191411D01*
X138617342Y-34191411D02*
X138712580Y-34239030D01*
X138712580Y-34239030D02*
X138760200Y-34286649D01*
X138760200Y-34286649D02*
X138807819Y-34381887D01*
X138807819Y-34381887D02*
X138807819Y-34667601D01*
X138807819Y-34667601D02*
X138760200Y-34762839D01*
X138760200Y-34762839D02*
X138712580Y-34810458D01*
X137807819Y-33905696D02*
X138807819Y-33572363D01*
X138807819Y-33572363D02*
X137807819Y-33239030D01*
X137807819Y-33000934D02*
X137807819Y-32381887D01*
X137807819Y-32381887D02*
X138188771Y-32715220D01*
X138188771Y-32715220D02*
X138188771Y-32572363D01*
X138188771Y-32572363D02*
X138236390Y-32477125D01*
X138236390Y-32477125D02*
X138284009Y-32429506D01*
X138284009Y-32429506D02*
X138379247Y-32381887D01*
X138379247Y-32381887D02*
X138617342Y-32381887D01*
X138617342Y-32381887D02*
X138712580Y-32429506D01*
X138712580Y-32429506D02*
X138760200Y-32477125D01*
X138760200Y-32477125D02*
X138807819Y-32572363D01*
X138807819Y-32572363D02*
X138807819Y-32858077D01*
X138807819Y-32858077D02*
X138760200Y-32953315D01*
X138760200Y-32953315D02*
X138712580Y-33000934D01*
D12*
G36*
X91134776Y-114921541D02*
G01*
X89131540Y-114921541D01*
X89131540Y-114166958D01*
X89255365Y-114166958D01*
X89257166Y-114172927D01*
X89257166Y-114179161D01*
X89264093Y-114195886D01*
X89269321Y-114213212D01*
X89273267Y-114218034D01*
X89275654Y-114223798D01*
X89288459Y-114236603D01*
X89299916Y-114250606D01*
X89305408Y-114253552D01*
X89309817Y-114257961D01*
X89326535Y-114264885D01*
X89342490Y-114273445D01*
X89348696Y-114274065D01*
X89354453Y-114276450D01*
X89372546Y-114276450D01*
X89390565Y-114278252D01*
X89396534Y-114276450D01*
X89402768Y-114276451D01*
X89419493Y-114269523D01*
X89436819Y-114264296D01*
X89441641Y-114260349D01*
X89447405Y-114257963D01*
X89466169Y-114242563D01*
X89499132Y-114209600D01*
X89549358Y-114184487D01*
X89726753Y-114184487D01*
X89776979Y-114209600D01*
X89795730Y-114228352D01*
X89820844Y-114278579D01*
X89820844Y-114455974D01*
X89795730Y-114506200D01*
X89776976Y-114524954D01*
X89726753Y-114550066D01*
X89549358Y-114550066D01*
X89499131Y-114524952D01*
X89466169Y-114491991D01*
X89447406Y-114476591D01*
X89402770Y-114458102D01*
X89354454Y-114458102D01*
X89309818Y-114476591D01*
X89275655Y-114510754D01*
X89257166Y-114555390D01*
X89257166Y-114603706D01*
X89275655Y-114648342D01*
X89291055Y-114667105D01*
X89338226Y-114714277D01*
X89347720Y-114722069D01*
X89349865Y-114724542D01*
X89353590Y-114726887D01*
X89356990Y-114729677D01*
X89360009Y-114730927D01*
X89370408Y-114737473D01*
X89464751Y-114784643D01*
X89487421Y-114793319D01*
X89491859Y-114793634D01*
X89495970Y-114795337D01*
X89520127Y-114797716D01*
X89755984Y-114797716D01*
X89780141Y-114795337D01*
X89784251Y-114793634D01*
X89788689Y-114793319D01*
X89811360Y-114784644D01*
X89905702Y-114737473D01*
X89916100Y-114730927D01*
X89919122Y-114729676D01*
X89922522Y-114726885D01*
X89926245Y-114724542D01*
X89928387Y-114722071D01*
X89937885Y-114714277D01*
X89985057Y-114667104D01*
X89992846Y-114657611D01*
X89995320Y-114655467D01*
X89997666Y-114651738D01*
X90000456Y-114648340D01*
X90001706Y-114645321D01*
X90008251Y-114634924D01*
X90055421Y-114540581D01*
X90064097Y-114517911D01*
X90064412Y-114513472D01*
X90066115Y-114509362D01*
X90068494Y-114485205D01*
X90068494Y-114249348D01*
X90066115Y-114225191D01*
X90064412Y-114221080D01*
X90064097Y-114216642D01*
X90055421Y-114193972D01*
X90008251Y-114099629D01*
X90001706Y-114089231D01*
X90000455Y-114086211D01*
X89997665Y-114082811D01*
X89995320Y-114079086D01*
X89992847Y-114076941D01*
X89985056Y-114067448D01*
X89937884Y-114020277D01*
X89928388Y-114012483D01*
X89926246Y-114010013D01*
X89922523Y-114007669D01*
X89919121Y-114004877D01*
X89916097Y-114003624D01*
X89905704Y-113997082D01*
X89811361Y-113949910D01*
X89788690Y-113941234D01*
X89784251Y-113940918D01*
X89780141Y-113939216D01*
X89755984Y-113936837D01*
X89524871Y-113936837D01*
X89537843Y-113807116D01*
X89897498Y-113807116D01*
X89921655Y-113804737D01*
X89966291Y-113786248D01*
X90000455Y-113752084D01*
X90018944Y-113707448D01*
X90018944Y-113698778D01*
X90104845Y-113698778D01*
X90110227Y-113722448D01*
X90440427Y-114713048D01*
X90450323Y-114735213D01*
X90456121Y-114741898D01*
X90460077Y-114749810D01*
X90471806Y-114759982D01*
X90481979Y-114771712D01*
X90489890Y-114775667D01*
X90496576Y-114781466D01*
X90511308Y-114786376D01*
X90525193Y-114793319D01*
X90534017Y-114793946D01*
X90542411Y-114796744D01*
X90557898Y-114795643D01*
X90573385Y-114796744D01*
X90581778Y-114793946D01*
X90590603Y-114793319D01*
X90604487Y-114786376D01*
X90619220Y-114781466D01*
X90625905Y-114775667D01*
X90633817Y-114771712D01*
X90643989Y-114759982D01*
X90655719Y-114749810D01*
X90659674Y-114741898D01*
X90665473Y-114735213D01*
X90675369Y-114713048D01*
X91005569Y-113722448D01*
X91010951Y-113698778D01*
X91007526Y-113650586D01*
X90985919Y-113607372D01*
X90949420Y-113575716D01*
X90903585Y-113560438D01*
X90855393Y-113563863D01*
X90812179Y-113585470D01*
X90780523Y-113621969D01*
X90770627Y-113644134D01*
X90557898Y-114282321D01*
X90345169Y-113644134D01*
X90335273Y-113621969D01*
X90303617Y-113585470D01*
X90260403Y-113563863D01*
X90212211Y-113560438D01*
X90166376Y-113575716D01*
X90129877Y-113607372D01*
X90108270Y-113650586D01*
X90104845Y-113698778D01*
X90018944Y-113698778D01*
X90018944Y-113659134D01*
X90000455Y-113614498D01*
X89966291Y-113580334D01*
X89921655Y-113561845D01*
X89897498Y-113559466D01*
X89425784Y-113559466D01*
X89416849Y-113560345D01*
X89413831Y-113560044D01*
X89410882Y-113560933D01*
X89401627Y-113561845D01*
X89384909Y-113568769D01*
X89367577Y-113573999D01*
X89362749Y-113577948D01*
X89356991Y-113580334D01*
X89344196Y-113593128D01*
X89330183Y-113604594D01*
X89327234Y-113610090D01*
X89322827Y-113614498D01*
X89315903Y-113631213D01*
X89307344Y-113647169D01*
X89305516Y-113656289D01*
X89304338Y-113659134D01*
X89304338Y-113662168D01*
X89302574Y-113670970D01*
X89255402Y-114142684D01*
X89255365Y-114166958D01*
X89131540Y-114166958D01*
X89131540Y-113435641D01*
X91134776Y-113435641D01*
X91134776Y-114921541D01*
G37*
D11*
X138760200Y-74686173D02*
X138807819Y-74577316D01*
X138807819Y-74577316D02*
X138807819Y-74395887D01*
X138807819Y-74395887D02*
X138760200Y-74323316D01*
X138760200Y-74323316D02*
X138712580Y-74287030D01*
X138712580Y-74287030D02*
X138617342Y-74250744D01*
X138617342Y-74250744D02*
X138522104Y-74250744D01*
X138522104Y-74250744D02*
X138426866Y-74287030D01*
X138426866Y-74287030D02*
X138379247Y-74323316D01*
X138379247Y-74323316D02*
X138331628Y-74395887D01*
X138331628Y-74395887D02*
X138284009Y-74541030D01*
X138284009Y-74541030D02*
X138236390Y-74613601D01*
X138236390Y-74613601D02*
X138188771Y-74649887D01*
X138188771Y-74649887D02*
X138093533Y-74686173D01*
X138093533Y-74686173D02*
X137998295Y-74686173D01*
X137998295Y-74686173D02*
X137903057Y-74649887D01*
X137903057Y-74649887D02*
X137855438Y-74613601D01*
X137855438Y-74613601D02*
X137807819Y-74541030D01*
X137807819Y-74541030D02*
X137807819Y-74359601D01*
X137807819Y-74359601D02*
X137855438Y-74250744D01*
X138807819Y-73924173D02*
X137807819Y-73924173D01*
X137807819Y-73924173D02*
X137807819Y-73742744D01*
X137807819Y-73742744D02*
X137855438Y-73633887D01*
X137855438Y-73633887D02*
X137950676Y-73561316D01*
X137950676Y-73561316D02*
X138045914Y-73525030D01*
X138045914Y-73525030D02*
X138236390Y-73488744D01*
X138236390Y-73488744D02*
X138379247Y-73488744D01*
X138379247Y-73488744D02*
X138569723Y-73525030D01*
X138569723Y-73525030D02*
X138664961Y-73561316D01*
X138664961Y-73561316D02*
X138760200Y-73633887D01*
X138760200Y-73633887D02*
X138807819Y-73742744D01*
X138807819Y-73742744D02*
X138807819Y-73924173D01*
X138522104Y-73198459D02*
X138522104Y-72835602D01*
X138807819Y-73271030D02*
X137807819Y-73017030D01*
X137807819Y-73017030D02*
X138807819Y-72763030D01*
X137909419Y-54647858D02*
X137909419Y-54028811D01*
X137909419Y-54028811D02*
X138290371Y-54362144D01*
X138290371Y-54362144D02*
X138290371Y-54219287D01*
X138290371Y-54219287D02*
X138337990Y-54124049D01*
X138337990Y-54124049D02*
X138385609Y-54076430D01*
X138385609Y-54076430D02*
X138480847Y-54028811D01*
X138480847Y-54028811D02*
X138718942Y-54028811D01*
X138718942Y-54028811D02*
X138814180Y-54076430D01*
X138814180Y-54076430D02*
X138861800Y-54124049D01*
X138861800Y-54124049D02*
X138909419Y-54219287D01*
X138909419Y-54219287D02*
X138909419Y-54505001D01*
X138909419Y-54505001D02*
X138861800Y-54600239D01*
X138861800Y-54600239D02*
X138814180Y-54647858D01*
X137909419Y-53743096D02*
X138909419Y-53409763D01*
X138909419Y-53409763D02*
X137909419Y-53076430D01*
X137909419Y-52838334D02*
X137909419Y-52219287D01*
X137909419Y-52219287D02*
X138290371Y-52552620D01*
X138290371Y-52552620D02*
X138290371Y-52409763D01*
X138290371Y-52409763D02*
X138337990Y-52314525D01*
X138337990Y-52314525D02*
X138385609Y-52266906D01*
X138385609Y-52266906D02*
X138480847Y-52219287D01*
X138480847Y-52219287D02*
X138718942Y-52219287D01*
X138718942Y-52219287D02*
X138814180Y-52266906D01*
X138814180Y-52266906D02*
X138861800Y-52314525D01*
X138861800Y-52314525D02*
X138909419Y-52409763D01*
X138909419Y-52409763D02*
X138909419Y-52695477D01*
X138909419Y-52695477D02*
X138861800Y-52790715D01*
X138861800Y-52790715D02*
X138814180Y-52838334D01*
X129854438Y-94821211D02*
X129806819Y-94916449D01*
X129806819Y-94916449D02*
X129806819Y-95059306D01*
X129806819Y-95059306D02*
X129854438Y-95202163D01*
X129854438Y-95202163D02*
X129949676Y-95297401D01*
X129949676Y-95297401D02*
X130044914Y-95345020D01*
X130044914Y-95345020D02*
X130235390Y-95392639D01*
X130235390Y-95392639D02*
X130378247Y-95392639D01*
X130378247Y-95392639D02*
X130568723Y-95345020D01*
X130568723Y-95345020D02*
X130663961Y-95297401D01*
X130663961Y-95297401D02*
X130759200Y-95202163D01*
X130759200Y-95202163D02*
X130806819Y-95059306D01*
X130806819Y-95059306D02*
X130806819Y-94964068D01*
X130806819Y-94964068D02*
X130759200Y-94821211D01*
X130759200Y-94821211D02*
X130711580Y-94773592D01*
X130711580Y-94773592D02*
X130378247Y-94773592D01*
X130378247Y-94773592D02*
X130378247Y-94964068D01*
X130806819Y-93916449D02*
X130283009Y-93916449D01*
X130283009Y-93916449D02*
X130187771Y-93964068D01*
X130187771Y-93964068D02*
X130140152Y-94059306D01*
X130140152Y-94059306D02*
X130140152Y-94249782D01*
X130140152Y-94249782D02*
X130187771Y-94345020D01*
X130759200Y-93916449D02*
X130806819Y-94011687D01*
X130806819Y-94011687D02*
X130806819Y-94249782D01*
X130806819Y-94249782D02*
X130759200Y-94345020D01*
X130759200Y-94345020D02*
X130663961Y-94392639D01*
X130663961Y-94392639D02*
X130568723Y-94392639D01*
X130568723Y-94392639D02*
X130473485Y-94345020D01*
X130473485Y-94345020D02*
X130425866Y-94249782D01*
X130425866Y-94249782D02*
X130425866Y-94011687D01*
X130425866Y-94011687D02*
X130378247Y-93916449D01*
X130140152Y-93440258D02*
X130806819Y-93440258D01*
X130235390Y-93440258D02*
X130187771Y-93392639D01*
X130187771Y-93392639D02*
X130140152Y-93297401D01*
X130140152Y-93297401D02*
X130140152Y-93154544D01*
X130140152Y-93154544D02*
X130187771Y-93059306D01*
X130187771Y-93059306D02*
X130283009Y-93011687D01*
X130283009Y-93011687D02*
X130806819Y-93011687D01*
X130140152Y-92678353D02*
X130140152Y-92297401D01*
X129806819Y-92535496D02*
X130663961Y-92535496D01*
X130663961Y-92535496D02*
X130759200Y-92487877D01*
X130759200Y-92487877D02*
X130806819Y-92392639D01*
X130806819Y-92392639D02*
X130806819Y-92297401D01*
X130806819Y-91964067D02*
X130140152Y-91964067D01*
X130330628Y-91964067D02*
X130235390Y-91916448D01*
X130235390Y-91916448D02*
X130187771Y-91868829D01*
X130187771Y-91868829D02*
X130140152Y-91773591D01*
X130140152Y-91773591D02*
X130140152Y-91678353D01*
X130140152Y-91440257D02*
X130806819Y-91202162D01*
X130140152Y-90964067D02*
X130806819Y-91202162D01*
X130806819Y-91202162D02*
X131044914Y-91297400D01*
X131044914Y-91297400D02*
X131092533Y-91345019D01*
X131092533Y-91345019D02*
X131140152Y-91440257D01*
X82868768Y-57829255D02*
X82905054Y-57756684D01*
X82905054Y-57756684D02*
X82905054Y-57647826D01*
X82905054Y-57647826D02*
X82868768Y-57538969D01*
X82868768Y-57538969D02*
X82796197Y-57466398D01*
X82796197Y-57466398D02*
X82723625Y-57430112D01*
X82723625Y-57430112D02*
X82578482Y-57393826D01*
X82578482Y-57393826D02*
X82469625Y-57393826D01*
X82469625Y-57393826D02*
X82324482Y-57430112D01*
X82324482Y-57430112D02*
X82251911Y-57466398D01*
X82251911Y-57466398D02*
X82179340Y-57538969D01*
X82179340Y-57538969D02*
X82143054Y-57647826D01*
X82143054Y-57647826D02*
X82143054Y-57720398D01*
X82143054Y-57720398D02*
X82179340Y-57829255D01*
X82179340Y-57829255D02*
X82215625Y-57865541D01*
X82215625Y-57865541D02*
X82469625Y-57865541D01*
X82469625Y-57865541D02*
X82469625Y-57720398D01*
X82143054Y-58192112D02*
X82905054Y-58192112D01*
X82905054Y-58192112D02*
X82143054Y-58627541D01*
X82143054Y-58627541D02*
X82905054Y-58627541D01*
X82143054Y-58990398D02*
X82905054Y-58990398D01*
X82905054Y-58990398D02*
X82905054Y-59171827D01*
X82905054Y-59171827D02*
X82868768Y-59280684D01*
X82868768Y-59280684D02*
X82796197Y-59353255D01*
X82796197Y-59353255D02*
X82723625Y-59389541D01*
X82723625Y-59389541D02*
X82578482Y-59425827D01*
X82578482Y-59425827D02*
X82469625Y-59425827D01*
X82469625Y-59425827D02*
X82324482Y-59389541D01*
X82324482Y-59389541D02*
X82251911Y-59353255D01*
X82251911Y-59353255D02*
X82179340Y-59280684D01*
X82179340Y-59280684D02*
X82143054Y-59171827D01*
X82143054Y-59171827D02*
X82143054Y-58990398D01*
X136267819Y-39319030D02*
X136267819Y-39795220D01*
X136267819Y-39795220D02*
X135267819Y-39795220D01*
X136267819Y-38985696D02*
X135601152Y-38985696D01*
X135267819Y-38985696D02*
X135315438Y-39033315D01*
X135315438Y-39033315D02*
X135363057Y-38985696D01*
X135363057Y-38985696D02*
X135315438Y-38938077D01*
X135315438Y-38938077D02*
X135267819Y-38985696D01*
X135267819Y-38985696D02*
X135363057Y-38985696D01*
X136267819Y-38509506D02*
X135601152Y-38509506D01*
X135696390Y-38509506D02*
X135648771Y-38461887D01*
X135648771Y-38461887D02*
X135601152Y-38366649D01*
X135601152Y-38366649D02*
X135601152Y-38223792D01*
X135601152Y-38223792D02*
X135648771Y-38128554D01*
X135648771Y-38128554D02*
X135744009Y-38080935D01*
X135744009Y-38080935D02*
X136267819Y-38080935D01*
X135744009Y-38080935D02*
X135648771Y-38033316D01*
X135648771Y-38033316D02*
X135601152Y-37938078D01*
X135601152Y-37938078D02*
X135601152Y-37795221D01*
X135601152Y-37795221D02*
X135648771Y-37699982D01*
X135648771Y-37699982D02*
X135744009Y-37652363D01*
X135744009Y-37652363D02*
X136267819Y-37652363D01*
X136220200Y-37223792D02*
X136267819Y-37080935D01*
X136267819Y-37080935D02*
X136267819Y-36842840D01*
X136267819Y-36842840D02*
X136220200Y-36747602D01*
X136220200Y-36747602D02*
X136172580Y-36699983D01*
X136172580Y-36699983D02*
X136077342Y-36652364D01*
X136077342Y-36652364D02*
X135982104Y-36652364D01*
X135982104Y-36652364D02*
X135886866Y-36699983D01*
X135886866Y-36699983D02*
X135839247Y-36747602D01*
X135839247Y-36747602D02*
X135791628Y-36842840D01*
X135791628Y-36842840D02*
X135744009Y-37033316D01*
X135744009Y-37033316D02*
X135696390Y-37128554D01*
X135696390Y-37128554D02*
X135648771Y-37176173D01*
X135648771Y-37176173D02*
X135553533Y-37223792D01*
X135553533Y-37223792D02*
X135458295Y-37223792D01*
X135458295Y-37223792D02*
X135363057Y-37176173D01*
X135363057Y-37176173D02*
X135315438Y-37128554D01*
X135315438Y-37128554D02*
X135267819Y-37033316D01*
X135267819Y-37033316D02*
X135267819Y-36795221D01*
X135267819Y-36795221D02*
X135315438Y-36652364D01*
X135601152Y-36319030D02*
X136267819Y-36128554D01*
X136267819Y-36128554D02*
X135791628Y-35938078D01*
X135791628Y-35938078D02*
X136267819Y-35747602D01*
X136267819Y-35747602D02*
X135601152Y-35557126D01*
X136267819Y-35176173D02*
X135601152Y-35176173D01*
X135267819Y-35176173D02*
X135315438Y-35223792D01*
X135315438Y-35223792D02*
X135363057Y-35176173D01*
X135363057Y-35176173D02*
X135315438Y-35128554D01*
X135315438Y-35128554D02*
X135267819Y-35176173D01*
X135267819Y-35176173D02*
X135363057Y-35176173D01*
X135601152Y-34842840D02*
X135601152Y-34461888D01*
X135267819Y-34699983D02*
X136124961Y-34699983D01*
X136124961Y-34699983D02*
X136220200Y-34652364D01*
X136220200Y-34652364D02*
X136267819Y-34557126D01*
X136267819Y-34557126D02*
X136267819Y-34461888D01*
X136220200Y-33699983D02*
X136267819Y-33795221D01*
X136267819Y-33795221D02*
X136267819Y-33985697D01*
X136267819Y-33985697D02*
X136220200Y-34080935D01*
X136220200Y-34080935D02*
X136172580Y-34128554D01*
X136172580Y-34128554D02*
X136077342Y-34176173D01*
X136077342Y-34176173D02*
X135791628Y-34176173D01*
X135791628Y-34176173D02*
X135696390Y-34128554D01*
X135696390Y-34128554D02*
X135648771Y-34080935D01*
X135648771Y-34080935D02*
X135601152Y-33985697D01*
X135601152Y-33985697D02*
X135601152Y-33795221D01*
X135601152Y-33795221D02*
X135648771Y-33699983D01*
X136267819Y-33271411D02*
X135267819Y-33271411D01*
X136267819Y-32842840D02*
X135744009Y-32842840D01*
X135744009Y-32842840D02*
X135648771Y-32890459D01*
X135648771Y-32890459D02*
X135601152Y-32985697D01*
X135601152Y-32985697D02*
X135601152Y-33128554D01*
X135601152Y-33128554D02*
X135648771Y-33223792D01*
X135648771Y-33223792D02*
X135696390Y-33271411D01*
X135267819Y-32461887D02*
X135267819Y-31842840D01*
X135267819Y-31842840D02*
X135648771Y-32176173D01*
X135648771Y-32176173D02*
X135648771Y-32033316D01*
X135648771Y-32033316D02*
X135696390Y-31938078D01*
X135696390Y-31938078D02*
X135744009Y-31890459D01*
X135744009Y-31890459D02*
X135839247Y-31842840D01*
X135839247Y-31842840D02*
X136077342Y-31842840D01*
X136077342Y-31842840D02*
X136172580Y-31890459D01*
X136172580Y-31890459D02*
X136220200Y-31938078D01*
X136220200Y-31938078D02*
X136267819Y-32033316D01*
X136267819Y-32033316D02*
X136267819Y-32319030D01*
X136267819Y-32319030D02*
X136220200Y-32414268D01*
X136220200Y-32414268D02*
X136172580Y-32461887D01*
X82905054Y-61856969D02*
X82905054Y-61494112D01*
X82905054Y-61494112D02*
X82542197Y-61457826D01*
X82542197Y-61457826D02*
X82578482Y-61494112D01*
X82578482Y-61494112D02*
X82614768Y-61566684D01*
X82614768Y-61566684D02*
X82614768Y-61748112D01*
X82614768Y-61748112D02*
X82578482Y-61820684D01*
X82578482Y-61820684D02*
X82542197Y-61856969D01*
X82542197Y-61856969D02*
X82469625Y-61893255D01*
X82469625Y-61893255D02*
X82288197Y-61893255D01*
X82288197Y-61893255D02*
X82215625Y-61856969D01*
X82215625Y-61856969D02*
X82179340Y-61820684D01*
X82179340Y-61820684D02*
X82143054Y-61748112D01*
X82143054Y-61748112D02*
X82143054Y-61566684D01*
X82143054Y-61566684D02*
X82179340Y-61494112D01*
X82179340Y-61494112D02*
X82215625Y-61457826D01*
X82905054Y-62110969D02*
X82143054Y-62364969D01*
X82143054Y-62364969D02*
X82905054Y-62618969D01*
X105257054Y-45238112D02*
X106019054Y-45238112D01*
X106019054Y-45238112D02*
X106019054Y-45528398D01*
X106019054Y-45528398D02*
X105982768Y-45600969D01*
X105982768Y-45600969D02*
X105946482Y-45637255D01*
X105946482Y-45637255D02*
X105873911Y-45673541D01*
X105873911Y-45673541D02*
X105765054Y-45673541D01*
X105765054Y-45673541D02*
X105692482Y-45637255D01*
X105692482Y-45637255D02*
X105656197Y-45600969D01*
X105656197Y-45600969D02*
X105619911Y-45528398D01*
X105619911Y-45528398D02*
X105619911Y-45238112D01*
X106019054Y-45927541D02*
X105257054Y-46108969D01*
X105257054Y-46108969D02*
X105801340Y-46254112D01*
X105801340Y-46254112D02*
X105257054Y-46399255D01*
X105257054Y-46399255D02*
X106019054Y-46580684D01*
X105257054Y-46870969D02*
X106019054Y-46870969D01*
X106019054Y-46870969D02*
X105474768Y-47124969D01*
X105474768Y-47124969D02*
X106019054Y-47378969D01*
X106019054Y-47378969D02*
X105257054Y-47378969D01*
X83122768Y-52241255D02*
X83159054Y-52168684D01*
X83159054Y-52168684D02*
X83159054Y-52059826D01*
X83159054Y-52059826D02*
X83122768Y-51950969D01*
X83122768Y-51950969D02*
X83050197Y-51878398D01*
X83050197Y-51878398D02*
X82977625Y-51842112D01*
X82977625Y-51842112D02*
X82832482Y-51805826D01*
X82832482Y-51805826D02*
X82723625Y-51805826D01*
X82723625Y-51805826D02*
X82578482Y-51842112D01*
X82578482Y-51842112D02*
X82505911Y-51878398D01*
X82505911Y-51878398D02*
X82433340Y-51950969D01*
X82433340Y-51950969D02*
X82397054Y-52059826D01*
X82397054Y-52059826D02*
X82397054Y-52132398D01*
X82397054Y-52132398D02*
X82433340Y-52241255D01*
X82433340Y-52241255D02*
X82469625Y-52277541D01*
X82469625Y-52277541D02*
X82723625Y-52277541D01*
X82723625Y-52277541D02*
X82723625Y-52132398D01*
X82397054Y-52604112D02*
X83159054Y-52604112D01*
X83159054Y-52604112D02*
X82397054Y-53039541D01*
X82397054Y-53039541D02*
X83159054Y-53039541D01*
X82397054Y-53402398D02*
X83159054Y-53402398D01*
X83159054Y-53402398D02*
X83159054Y-53583827D01*
X83159054Y-53583827D02*
X83122768Y-53692684D01*
X83122768Y-53692684D02*
X83050197Y-53765255D01*
X83050197Y-53765255D02*
X82977625Y-53801541D01*
X82977625Y-53801541D02*
X82832482Y-53837827D01*
X82832482Y-53837827D02*
X82723625Y-53837827D01*
X82723625Y-53837827D02*
X82578482Y-53801541D01*
X82578482Y-53801541D02*
X82505911Y-53765255D01*
X82505911Y-53765255D02*
X82433340Y-53692684D01*
X82433340Y-53692684D02*
X82397054Y-53583827D01*
X82397054Y-53583827D02*
X82397054Y-53402398D01*
X137753838Y-49025011D02*
X137706219Y-49120249D01*
X137706219Y-49120249D02*
X137706219Y-49263106D01*
X137706219Y-49263106D02*
X137753838Y-49405963D01*
X137753838Y-49405963D02*
X137849076Y-49501201D01*
X137849076Y-49501201D02*
X137944314Y-49548820D01*
X137944314Y-49548820D02*
X138134790Y-49596439D01*
X138134790Y-49596439D02*
X138277647Y-49596439D01*
X138277647Y-49596439D02*
X138468123Y-49548820D01*
X138468123Y-49548820D02*
X138563361Y-49501201D01*
X138563361Y-49501201D02*
X138658600Y-49405963D01*
X138658600Y-49405963D02*
X138706219Y-49263106D01*
X138706219Y-49263106D02*
X138706219Y-49167868D01*
X138706219Y-49167868D02*
X138658600Y-49025011D01*
X138658600Y-49025011D02*
X138610980Y-48977392D01*
X138610980Y-48977392D02*
X138277647Y-48977392D01*
X138277647Y-48977392D02*
X138277647Y-49167868D01*
X138706219Y-48548820D02*
X137706219Y-48548820D01*
X137706219Y-48548820D02*
X138706219Y-47977392D01*
X138706219Y-47977392D02*
X137706219Y-47977392D01*
X138706219Y-47501201D02*
X137706219Y-47501201D01*
X137706219Y-47501201D02*
X137706219Y-47263106D01*
X137706219Y-47263106D02*
X137753838Y-47120249D01*
X137753838Y-47120249D02*
X137849076Y-47025011D01*
X137849076Y-47025011D02*
X137944314Y-46977392D01*
X137944314Y-46977392D02*
X138134790Y-46929773D01*
X138134790Y-46929773D02*
X138277647Y-46929773D01*
X138277647Y-46929773D02*
X138468123Y-46977392D01*
X138468123Y-46977392D02*
X138563361Y-47025011D01*
X138563361Y-47025011D02*
X138658600Y-47120249D01*
X138658600Y-47120249D02*
X138706219Y-47263106D01*
X138706219Y-47263106D02*
X138706219Y-47501201D01*
X105257054Y-33554112D02*
X106019054Y-33554112D01*
X106019054Y-33554112D02*
X106019054Y-33844398D01*
X106019054Y-33844398D02*
X105982768Y-33916969D01*
X105982768Y-33916969D02*
X105946482Y-33953255D01*
X105946482Y-33953255D02*
X105873911Y-33989541D01*
X105873911Y-33989541D02*
X105765054Y-33989541D01*
X105765054Y-33989541D02*
X105692482Y-33953255D01*
X105692482Y-33953255D02*
X105656197Y-33916969D01*
X105656197Y-33916969D02*
X105619911Y-33844398D01*
X105619911Y-33844398D02*
X105619911Y-33554112D01*
X106019054Y-34243541D02*
X105257054Y-34424969D01*
X105257054Y-34424969D02*
X105801340Y-34570112D01*
X105801340Y-34570112D02*
X105257054Y-34715255D01*
X105257054Y-34715255D02*
X106019054Y-34896684D01*
X105257054Y-35186969D02*
X106019054Y-35186969D01*
X106019054Y-35186969D02*
X105474768Y-35440969D01*
X105474768Y-35440969D02*
X106019054Y-35694969D01*
X106019054Y-35694969D02*
X105257054Y-35694969D01*
X137753838Y-39119011D02*
X137706219Y-39214249D01*
X137706219Y-39214249D02*
X137706219Y-39357106D01*
X137706219Y-39357106D02*
X137753838Y-39499963D01*
X137753838Y-39499963D02*
X137849076Y-39595201D01*
X137849076Y-39595201D02*
X137944314Y-39642820D01*
X137944314Y-39642820D02*
X138134790Y-39690439D01*
X138134790Y-39690439D02*
X138277647Y-39690439D01*
X138277647Y-39690439D02*
X138468123Y-39642820D01*
X138468123Y-39642820D02*
X138563361Y-39595201D01*
X138563361Y-39595201D02*
X138658600Y-39499963D01*
X138658600Y-39499963D02*
X138706219Y-39357106D01*
X138706219Y-39357106D02*
X138706219Y-39261868D01*
X138706219Y-39261868D02*
X138658600Y-39119011D01*
X138658600Y-39119011D02*
X138610980Y-39071392D01*
X138610980Y-39071392D02*
X138277647Y-39071392D01*
X138277647Y-39071392D02*
X138277647Y-39261868D01*
X138706219Y-38642820D02*
X137706219Y-38642820D01*
X137706219Y-38642820D02*
X138706219Y-38071392D01*
X138706219Y-38071392D02*
X137706219Y-38071392D01*
X138706219Y-37595201D02*
X137706219Y-37595201D01*
X137706219Y-37595201D02*
X137706219Y-37357106D01*
X137706219Y-37357106D02*
X137753838Y-37214249D01*
X137753838Y-37214249D02*
X137849076Y-37119011D01*
X137849076Y-37119011D02*
X137944314Y-37071392D01*
X137944314Y-37071392D02*
X138134790Y-37023773D01*
X138134790Y-37023773D02*
X138277647Y-37023773D01*
X138277647Y-37023773D02*
X138468123Y-37071392D01*
X138468123Y-37071392D02*
X138563361Y-37119011D01*
X138563361Y-37119011D02*
X138658600Y-37214249D01*
X138658600Y-37214249D02*
X138706219Y-37357106D01*
X138706219Y-37357106D02*
X138706219Y-37595201D01*
D12*
G36*
X94651834Y-114921541D02*
G01*
X91753170Y-114921541D01*
X91753170Y-113659134D01*
X91876995Y-113659134D01*
X91876995Y-113707448D01*
X91895484Y-113752084D01*
X91929648Y-113786248D01*
X91974284Y-113804737D01*
X91998441Y-113807116D01*
X92338787Y-113807116D01*
X92188281Y-113979123D01*
X92180814Y-113989566D01*
X92178512Y-113991869D01*
X92177607Y-113994052D01*
X92174164Y-113998869D01*
X92167718Y-114017926D01*
X92160023Y-114036505D01*
X92160023Y-114040679D01*
X92158685Y-114044636D01*
X92160023Y-114064705D01*
X92160023Y-114084819D01*
X92161621Y-114088677D01*
X92161899Y-114092844D01*
X92170815Y-114110875D01*
X92178512Y-114129455D01*
X92181463Y-114132406D01*
X92183316Y-114136152D01*
X92198460Y-114149403D01*
X92212676Y-114163619D01*
X92216532Y-114165216D01*
X92219676Y-114167967D01*
X92238733Y-114174412D01*
X92257312Y-114182108D01*
X92263201Y-114182688D01*
X92265443Y-114183446D01*
X92268696Y-114183229D01*
X92281469Y-114184487D01*
X92393753Y-114184487D01*
X92443979Y-114209600D01*
X92462730Y-114228352D01*
X92487844Y-114278579D01*
X92487844Y-114455974D01*
X92462730Y-114506200D01*
X92443976Y-114524954D01*
X92393753Y-114550066D01*
X92169186Y-114550066D01*
X92118960Y-114524953D01*
X92085999Y-114491991D01*
X92067236Y-114476592D01*
X92022600Y-114458103D01*
X91974285Y-114458102D01*
X91929648Y-114476590D01*
X91895485Y-114510753D01*
X91876996Y-114555389D01*
X91876995Y-114603704D01*
X91895483Y-114648341D01*
X91910883Y-114667105D01*
X91958054Y-114714277D01*
X91967548Y-114722068D01*
X91969693Y-114724542D01*
X91973419Y-114726887D01*
X91976817Y-114729676D01*
X91979835Y-114730926D01*
X91990236Y-114737473D01*
X92084579Y-114784643D01*
X92107249Y-114793319D01*
X92111687Y-114793634D01*
X92115798Y-114795337D01*
X92139955Y-114797716D01*
X92422984Y-114797716D01*
X92447141Y-114795337D01*
X92451251Y-114793634D01*
X92455689Y-114793319D01*
X92478360Y-114784644D01*
X92572702Y-114737473D01*
X92583100Y-114730927D01*
X92586122Y-114729676D01*
X92589522Y-114726885D01*
X92593245Y-114724542D01*
X92595387Y-114722071D01*
X92604885Y-114714277D01*
X92652057Y-114667104D01*
X92659846Y-114657611D01*
X92662320Y-114655467D01*
X92664666Y-114651738D01*
X92667456Y-114648340D01*
X92668706Y-114645321D01*
X92675251Y-114634924D01*
X92722421Y-114540581D01*
X92731097Y-114517911D01*
X92731412Y-114513472D01*
X92733115Y-114509362D01*
X92735494Y-114485205D01*
X92735494Y-114249348D01*
X92733115Y-114225191D01*
X92731412Y-114221080D01*
X92731097Y-114216642D01*
X92722421Y-114193972D01*
X92675251Y-114099629D01*
X92668706Y-114089231D01*
X92667455Y-114086211D01*
X92664665Y-114082811D01*
X92662320Y-114079086D01*
X92659847Y-114076941D01*
X92652056Y-114067448D01*
X92604884Y-114020277D01*
X92595388Y-114012483D01*
X92593246Y-114010013D01*
X92589523Y-114007669D01*
X92586121Y-114004877D01*
X92583097Y-114003624D01*
X92572704Y-113997082D01*
X92523265Y-113972362D01*
X92704857Y-113764830D01*
X92712323Y-113754386D01*
X92714626Y-113752084D01*
X92715530Y-113749900D01*
X92718974Y-113745084D01*
X92725419Y-113726026D01*
X92733115Y-113707448D01*
X92733115Y-113703273D01*
X92734453Y-113699317D01*
X92734417Y-113698778D01*
X92771845Y-113698778D01*
X92777227Y-113722448D01*
X93107427Y-114713048D01*
X93117323Y-114735213D01*
X93123121Y-114741898D01*
X93127077Y-114749810D01*
X93138806Y-114759982D01*
X93148979Y-114771712D01*
X93156890Y-114775667D01*
X93163576Y-114781466D01*
X93178308Y-114786376D01*
X93192193Y-114793319D01*
X93201017Y-114793946D01*
X93209411Y-114796744D01*
X93224898Y-114795643D01*
X93240385Y-114796744D01*
X93248778Y-114793946D01*
X93257603Y-114793319D01*
X93271487Y-114786376D01*
X93286220Y-114781466D01*
X93292905Y-114775667D01*
X93300817Y-114771712D01*
X93310989Y-114759982D01*
X93322719Y-114749810D01*
X93326674Y-114741898D01*
X93332473Y-114735213D01*
X93342369Y-114713048D01*
X93672569Y-113722448D01*
X93673686Y-113717531D01*
X93687999Y-113752084D01*
X93722163Y-113786248D01*
X93766799Y-113804737D01*
X93790956Y-113807116D01*
X94131302Y-113807116D01*
X93980796Y-113979123D01*
X93973329Y-113989566D01*
X93971027Y-113991869D01*
X93970122Y-113994052D01*
X93966679Y-113998869D01*
X93960233Y-114017926D01*
X93952538Y-114036505D01*
X93952538Y-114040679D01*
X93951200Y-114044636D01*
X93952538Y-114064705D01*
X93952538Y-114084819D01*
X93954136Y-114088677D01*
X93954414Y-114092844D01*
X93963330Y-114110875D01*
X93971027Y-114129455D01*
X93973978Y-114132406D01*
X93975831Y-114136152D01*
X93990975Y-114149403D01*
X94005191Y-114163619D01*
X94009047Y-114165216D01*
X94012191Y-114167967D01*
X94031248Y-114174412D01*
X94049827Y-114182108D01*
X94055716Y-114182688D01*
X94057958Y-114183446D01*
X94061211Y-114183229D01*
X94073984Y-114184487D01*
X94186268Y-114184487D01*
X94236494Y-114209600D01*
X94255245Y-114228352D01*
X94280359Y-114278579D01*
X94280359Y-114455974D01*
X94255245Y-114506200D01*
X94236491Y-114524954D01*
X94186268Y-114550066D01*
X93961701Y-114550066D01*
X93911475Y-114524953D01*
X93878514Y-114491991D01*
X93859751Y-114476592D01*
X93815115Y-114458103D01*
X93766800Y-114458102D01*
X93722163Y-114476590D01*
X93688000Y-114510753D01*
X93669511Y-114555389D01*
X93669510Y-114603704D01*
X93687998Y-114648341D01*
X93703398Y-114667105D01*
X93750569Y-114714277D01*
X93760063Y-114722068D01*
X93762208Y-114724542D01*
X93765934Y-114726887D01*
X93769332Y-114729676D01*
X93772350Y-114730926D01*
X93782751Y-114737473D01*
X93877094Y-114784643D01*
X93899764Y-114793319D01*
X93904202Y-114793634D01*
X93908313Y-114795337D01*
X93932470Y-114797716D01*
X94215499Y-114797716D01*
X94239656Y-114795337D01*
X94243766Y-114793634D01*
X94248204Y-114793319D01*
X94270875Y-114784644D01*
X94365217Y-114737473D01*
X94375615Y-114730927D01*
X94378637Y-114729676D01*
X94382037Y-114726885D01*
X94385760Y-114724542D01*
X94387902Y-114722071D01*
X94397400Y-114714277D01*
X94444572Y-114667104D01*
X94452361Y-114657611D01*
X94454835Y-114655467D01*
X94457181Y-114651738D01*
X94459971Y-114648340D01*
X94461221Y-114645321D01*
X94467766Y-114634924D01*
X94514936Y-114540581D01*
X94523612Y-114517911D01*
X94523927Y-114513472D01*
X94525630Y-114509362D01*
X94528009Y-114485205D01*
X94528009Y-114249348D01*
X94525630Y-114225191D01*
X94523927Y-114221080D01*
X94523612Y-114216642D01*
X94514936Y-114193972D01*
X94467766Y-114099629D01*
X94461221Y-114089231D01*
X94459970Y-114086211D01*
X94457180Y-114082811D01*
X94454835Y-114079086D01*
X94452362Y-114076941D01*
X94444571Y-114067448D01*
X94397399Y-114020277D01*
X94387903Y-114012483D01*
X94385761Y-114010013D01*
X94382038Y-114007669D01*
X94378636Y-114004877D01*
X94375612Y-114003624D01*
X94365219Y-113997082D01*
X94315780Y-113972362D01*
X94497372Y-113764830D01*
X94504838Y-113754386D01*
X94507141Y-113752084D01*
X94508045Y-113749900D01*
X94511489Y-113745084D01*
X94517934Y-113726026D01*
X94525630Y-113707448D01*
X94525630Y-113703273D01*
X94526968Y-113699317D01*
X94525630Y-113679247D01*
X94525630Y-113659134D01*
X94524031Y-113655275D01*
X94523754Y-113651108D01*
X94514835Y-113633074D01*
X94507141Y-113614498D01*
X94504189Y-113611546D01*
X94502337Y-113607801D01*
X94487193Y-113594550D01*
X94472977Y-113580334D01*
X94469120Y-113578736D01*
X94465977Y-113575986D01*
X94446919Y-113569540D01*
X94428341Y-113561845D01*
X94422451Y-113561264D01*
X94420210Y-113560507D01*
X94416956Y-113560723D01*
X94404184Y-113559466D01*
X93790956Y-113559466D01*
X93766799Y-113561845D01*
X93722163Y-113580334D01*
X93687999Y-113614498D01*
X93673719Y-113648972D01*
X93652919Y-113607372D01*
X93616420Y-113575716D01*
X93570585Y-113560438D01*
X93522393Y-113563863D01*
X93479179Y-113585470D01*
X93447523Y-113621969D01*
X93437627Y-113644134D01*
X93224898Y-114282321D01*
X93012169Y-113644134D01*
X93002273Y-113621969D01*
X92970617Y-113585470D01*
X92927403Y-113563863D01*
X92879211Y-113560438D01*
X92833376Y-113575716D01*
X92796877Y-113607372D01*
X92775270Y-113650586D01*
X92771845Y-113698778D01*
X92734417Y-113698778D01*
X92733115Y-113679247D01*
X92733115Y-113659134D01*
X92731516Y-113655275D01*
X92731239Y-113651108D01*
X92722320Y-113633074D01*
X92714626Y-113614498D01*
X92711674Y-113611546D01*
X92709822Y-113607801D01*
X92694678Y-113594550D01*
X92680462Y-113580334D01*
X92676605Y-113578736D01*
X92673462Y-113575986D01*
X92654404Y-113569540D01*
X92635826Y-113561845D01*
X92629936Y-113561264D01*
X92627695Y-113560507D01*
X92624441Y-113560723D01*
X92611669Y-113559466D01*
X91998441Y-113559466D01*
X91974284Y-113561845D01*
X91929648Y-113580334D01*
X91895484Y-113614498D01*
X91876995Y-113659134D01*
X91753170Y-113659134D01*
X91753170Y-113435641D01*
X94651834Y-113435641D01*
X94651834Y-114921541D01*
G37*
D11*
X136267819Y-59385030D02*
X136267819Y-59861220D01*
X136267819Y-59861220D02*
X135267819Y-59861220D01*
X136267819Y-59051696D02*
X135601152Y-59051696D01*
X135267819Y-59051696D02*
X135315438Y-59099315D01*
X135315438Y-59099315D02*
X135363057Y-59051696D01*
X135363057Y-59051696D02*
X135315438Y-59004077D01*
X135315438Y-59004077D02*
X135267819Y-59051696D01*
X135267819Y-59051696D02*
X135363057Y-59051696D01*
X136267819Y-58575506D02*
X135601152Y-58575506D01*
X135696390Y-58575506D02*
X135648771Y-58527887D01*
X135648771Y-58527887D02*
X135601152Y-58432649D01*
X135601152Y-58432649D02*
X135601152Y-58289792D01*
X135601152Y-58289792D02*
X135648771Y-58194554D01*
X135648771Y-58194554D02*
X135744009Y-58146935D01*
X135744009Y-58146935D02*
X136267819Y-58146935D01*
X135744009Y-58146935D02*
X135648771Y-58099316D01*
X135648771Y-58099316D02*
X135601152Y-58004078D01*
X135601152Y-58004078D02*
X135601152Y-57861221D01*
X135601152Y-57861221D02*
X135648771Y-57765982D01*
X135648771Y-57765982D02*
X135744009Y-57718363D01*
X135744009Y-57718363D02*
X136267819Y-57718363D01*
X136220200Y-57289792D02*
X136267819Y-57146935D01*
X136267819Y-57146935D02*
X136267819Y-56908840D01*
X136267819Y-56908840D02*
X136220200Y-56813602D01*
X136220200Y-56813602D02*
X136172580Y-56765983D01*
X136172580Y-56765983D02*
X136077342Y-56718364D01*
X136077342Y-56718364D02*
X135982104Y-56718364D01*
X135982104Y-56718364D02*
X135886866Y-56765983D01*
X135886866Y-56765983D02*
X135839247Y-56813602D01*
X135839247Y-56813602D02*
X135791628Y-56908840D01*
X135791628Y-56908840D02*
X135744009Y-57099316D01*
X135744009Y-57099316D02*
X135696390Y-57194554D01*
X135696390Y-57194554D02*
X135648771Y-57242173D01*
X135648771Y-57242173D02*
X135553533Y-57289792D01*
X135553533Y-57289792D02*
X135458295Y-57289792D01*
X135458295Y-57289792D02*
X135363057Y-57242173D01*
X135363057Y-57242173D02*
X135315438Y-57194554D01*
X135315438Y-57194554D02*
X135267819Y-57099316D01*
X135267819Y-57099316D02*
X135267819Y-56861221D01*
X135267819Y-56861221D02*
X135315438Y-56718364D01*
X135601152Y-56385030D02*
X136267819Y-56194554D01*
X136267819Y-56194554D02*
X135791628Y-56004078D01*
X135791628Y-56004078D02*
X136267819Y-55813602D01*
X136267819Y-55813602D02*
X135601152Y-55623126D01*
X136267819Y-55242173D02*
X135601152Y-55242173D01*
X135267819Y-55242173D02*
X135315438Y-55289792D01*
X135315438Y-55289792D02*
X135363057Y-55242173D01*
X135363057Y-55242173D02*
X135315438Y-55194554D01*
X135315438Y-55194554D02*
X135267819Y-55242173D01*
X135267819Y-55242173D02*
X135363057Y-55242173D01*
X135601152Y-54908840D02*
X135601152Y-54527888D01*
X135267819Y-54765983D02*
X136124961Y-54765983D01*
X136124961Y-54765983D02*
X136220200Y-54718364D01*
X136220200Y-54718364D02*
X136267819Y-54623126D01*
X136267819Y-54623126D02*
X136267819Y-54527888D01*
X136220200Y-53765983D02*
X136267819Y-53861221D01*
X136267819Y-53861221D02*
X136267819Y-54051697D01*
X136267819Y-54051697D02*
X136220200Y-54146935D01*
X136220200Y-54146935D02*
X136172580Y-54194554D01*
X136172580Y-54194554D02*
X136077342Y-54242173D01*
X136077342Y-54242173D02*
X135791628Y-54242173D01*
X135791628Y-54242173D02*
X135696390Y-54194554D01*
X135696390Y-54194554D02*
X135648771Y-54146935D01*
X135648771Y-54146935D02*
X135601152Y-54051697D01*
X135601152Y-54051697D02*
X135601152Y-53861221D01*
X135601152Y-53861221D02*
X135648771Y-53765983D01*
X136267819Y-53337411D02*
X135267819Y-53337411D01*
X136267819Y-52908840D02*
X135744009Y-52908840D01*
X135744009Y-52908840D02*
X135648771Y-52956459D01*
X135648771Y-52956459D02*
X135601152Y-53051697D01*
X135601152Y-53051697D02*
X135601152Y-53194554D01*
X135601152Y-53194554D02*
X135648771Y-53289792D01*
X135648771Y-53289792D02*
X135696390Y-53337411D01*
X136267819Y-51908840D02*
X136267819Y-52480268D01*
X136267819Y-52194554D02*
X135267819Y-52194554D01*
X135267819Y-52194554D02*
X135410676Y-52289792D01*
X135410676Y-52289792D02*
X135505914Y-52385030D01*
X135505914Y-52385030D02*
X135553533Y-52480268D01*
X88582667Y-26569200D02*
X88725524Y-26616819D01*
X88725524Y-26616819D02*
X88963619Y-26616819D01*
X88963619Y-26616819D02*
X89058857Y-26569200D01*
X89058857Y-26569200D02*
X89106476Y-26521580D01*
X89106476Y-26521580D02*
X89154095Y-26426342D01*
X89154095Y-26426342D02*
X89154095Y-26331104D01*
X89154095Y-26331104D02*
X89106476Y-26235866D01*
X89106476Y-26235866D02*
X89058857Y-26188247D01*
X89058857Y-26188247D02*
X88963619Y-26140628D01*
X88963619Y-26140628D02*
X88773143Y-26093009D01*
X88773143Y-26093009D02*
X88677905Y-26045390D01*
X88677905Y-26045390D02*
X88630286Y-25997771D01*
X88630286Y-25997771D02*
X88582667Y-25902533D01*
X88582667Y-25902533D02*
X88582667Y-25807295D01*
X88582667Y-25807295D02*
X88630286Y-25712057D01*
X88630286Y-25712057D02*
X88677905Y-25664438D01*
X88677905Y-25664438D02*
X88773143Y-25616819D01*
X88773143Y-25616819D02*
X89011238Y-25616819D01*
X89011238Y-25616819D02*
X89154095Y-25664438D01*
X89487429Y-25616819D02*
X89725524Y-26616819D01*
X89725524Y-26616819D02*
X89916000Y-25902533D01*
X89916000Y-25902533D02*
X90106476Y-26616819D01*
X90106476Y-26616819D02*
X90344572Y-25616819D01*
X91249333Y-26616819D02*
X90677905Y-26616819D01*
X90963619Y-26616819D02*
X90963619Y-25616819D01*
X90963619Y-25616819D02*
X90868381Y-25759676D01*
X90868381Y-25759676D02*
X90773143Y-25854914D01*
X90773143Y-25854914D02*
X90677905Y-25902533D01*
X90624819Y-105640094D02*
X89624819Y-105640094D01*
X89624819Y-105640094D02*
X89624819Y-105401999D01*
X89624819Y-105401999D02*
X89672438Y-105259142D01*
X89672438Y-105259142D02*
X89767676Y-105163904D01*
X89767676Y-105163904D02*
X89862914Y-105116285D01*
X89862914Y-105116285D02*
X90053390Y-105068666D01*
X90053390Y-105068666D02*
X90196247Y-105068666D01*
X90196247Y-105068666D02*
X90386723Y-105116285D01*
X90386723Y-105116285D02*
X90481961Y-105163904D01*
X90481961Y-105163904D02*
X90577200Y-105259142D01*
X90577200Y-105259142D02*
X90624819Y-105401999D01*
X90624819Y-105401999D02*
X90624819Y-105640094D01*
X89720057Y-104687713D02*
X89672438Y-104640094D01*
X89672438Y-104640094D02*
X89624819Y-104544856D01*
X89624819Y-104544856D02*
X89624819Y-104306761D01*
X89624819Y-104306761D02*
X89672438Y-104211523D01*
X89672438Y-104211523D02*
X89720057Y-104163904D01*
X89720057Y-104163904D02*
X89815295Y-104116285D01*
X89815295Y-104116285D02*
X89910533Y-104116285D01*
X89910533Y-104116285D02*
X90053390Y-104163904D01*
X90053390Y-104163904D02*
X90624819Y-104735332D01*
X90624819Y-104735332D02*
X90624819Y-104116285D01*
X109555819Y-106552904D02*
X110365342Y-106552904D01*
X110365342Y-106552904D02*
X110460580Y-106505285D01*
X110460580Y-106505285D02*
X110508200Y-106457666D01*
X110508200Y-106457666D02*
X110555819Y-106362428D01*
X110555819Y-106362428D02*
X110555819Y-106171952D01*
X110555819Y-106171952D02*
X110508200Y-106076714D01*
X110508200Y-106076714D02*
X110460580Y-106029095D01*
X110460580Y-106029095D02*
X110365342Y-105981476D01*
X110365342Y-105981476D02*
X109555819Y-105981476D01*
X110555819Y-104981476D02*
X110555819Y-105552904D01*
X110555819Y-105267190D02*
X109555819Y-105267190D01*
X109555819Y-105267190D02*
X109698676Y-105362428D01*
X109698676Y-105362428D02*
X109793914Y-105457666D01*
X109793914Y-105457666D02*
X109841533Y-105552904D01*
X88726261Y-63402057D02*
X88631023Y-63354438D01*
X88631023Y-63354438D02*
X88535785Y-63259200D01*
X88535785Y-63259200D02*
X88392928Y-63116342D01*
X88392928Y-63116342D02*
X88297690Y-63068723D01*
X88297690Y-63068723D02*
X88202452Y-63068723D01*
X88250071Y-63306819D02*
X88154833Y-63259200D01*
X88154833Y-63259200D02*
X88059595Y-63163961D01*
X88059595Y-63163961D02*
X88011976Y-62973485D01*
X88011976Y-62973485D02*
X88011976Y-62640152D01*
X88011976Y-62640152D02*
X88059595Y-62449676D01*
X88059595Y-62449676D02*
X88154833Y-62354438D01*
X88154833Y-62354438D02*
X88250071Y-62306819D01*
X88250071Y-62306819D02*
X88440547Y-62306819D01*
X88440547Y-62306819D02*
X88535785Y-62354438D01*
X88535785Y-62354438D02*
X88631023Y-62449676D01*
X88631023Y-62449676D02*
X88678642Y-62640152D01*
X88678642Y-62640152D02*
X88678642Y-62973485D01*
X88678642Y-62973485D02*
X88631023Y-63163961D01*
X88631023Y-63163961D02*
X88535785Y-63259200D01*
X88535785Y-63259200D02*
X88440547Y-63306819D01*
X88440547Y-63306819D02*
X88250071Y-63306819D01*
X89059595Y-62402057D02*
X89107214Y-62354438D01*
X89107214Y-62354438D02*
X89202452Y-62306819D01*
X89202452Y-62306819D02*
X89440547Y-62306819D01*
X89440547Y-62306819D02*
X89535785Y-62354438D01*
X89535785Y-62354438D02*
X89583404Y-62402057D01*
X89583404Y-62402057D02*
X89631023Y-62497295D01*
X89631023Y-62497295D02*
X89631023Y-62592533D01*
X89631023Y-62592533D02*
X89583404Y-62735390D01*
X89583404Y-62735390D02*
X89011976Y-63306819D01*
X89011976Y-63306819D02*
X89631023Y-63306819D01*
X86271833Y-45600819D02*
X85938500Y-45124628D01*
X85700405Y-45600819D02*
X85700405Y-44600819D01*
X85700405Y-44600819D02*
X86081357Y-44600819D01*
X86081357Y-44600819D02*
X86176595Y-44648438D01*
X86176595Y-44648438D02*
X86224214Y-44696057D01*
X86224214Y-44696057D02*
X86271833Y-44791295D01*
X86271833Y-44791295D02*
X86271833Y-44934152D01*
X86271833Y-44934152D02*
X86224214Y-45029390D01*
X86224214Y-45029390D02*
X86176595Y-45077009D01*
X86176595Y-45077009D02*
X86081357Y-45124628D01*
X86081357Y-45124628D02*
X85700405Y-45124628D01*
X87176595Y-44600819D02*
X86700405Y-44600819D01*
X86700405Y-44600819D02*
X86652786Y-45077009D01*
X86652786Y-45077009D02*
X86700405Y-45029390D01*
X86700405Y-45029390D02*
X86795643Y-44981771D01*
X86795643Y-44981771D02*
X87033738Y-44981771D01*
X87033738Y-44981771D02*
X87128976Y-45029390D01*
X87128976Y-45029390D02*
X87176595Y-45077009D01*
X87176595Y-45077009D02*
X87224214Y-45172247D01*
X87224214Y-45172247D02*
X87224214Y-45410342D01*
X87224214Y-45410342D02*
X87176595Y-45505580D01*
X87176595Y-45505580D02*
X87128976Y-45553200D01*
X87128976Y-45553200D02*
X87033738Y-45600819D01*
X87033738Y-45600819D02*
X86795643Y-45600819D01*
X86795643Y-45600819D02*
X86700405Y-45553200D01*
X86700405Y-45553200D02*
X86652786Y-45505580D01*
X87322819Y-105640094D02*
X86322819Y-105640094D01*
X86322819Y-105640094D02*
X86322819Y-105401999D01*
X86322819Y-105401999D02*
X86370438Y-105259142D01*
X86370438Y-105259142D02*
X86465676Y-105163904D01*
X86465676Y-105163904D02*
X86560914Y-105116285D01*
X86560914Y-105116285D02*
X86751390Y-105068666D01*
X86751390Y-105068666D02*
X86894247Y-105068666D01*
X86894247Y-105068666D02*
X87084723Y-105116285D01*
X87084723Y-105116285D02*
X87179961Y-105163904D01*
X87179961Y-105163904D02*
X87275200Y-105259142D01*
X87275200Y-105259142D02*
X87322819Y-105401999D01*
X87322819Y-105401999D02*
X87322819Y-105640094D01*
X87322819Y-104116285D02*
X87322819Y-104687713D01*
X87322819Y-104401999D02*
X86322819Y-104401999D01*
X86322819Y-104401999D02*
X86465676Y-104497237D01*
X86465676Y-104497237D02*
X86560914Y-104592475D01*
X86560914Y-104592475D02*
X86608533Y-104687713D01*
X90915261Y-45556057D02*
X90820023Y-45508438D01*
X90820023Y-45508438D02*
X90724785Y-45413200D01*
X90724785Y-45413200D02*
X90581928Y-45270342D01*
X90581928Y-45270342D02*
X90486690Y-45222723D01*
X90486690Y-45222723D02*
X90391452Y-45222723D01*
X90439071Y-45460819D02*
X90343833Y-45413200D01*
X90343833Y-45413200D02*
X90248595Y-45317961D01*
X90248595Y-45317961D02*
X90200976Y-45127485D01*
X90200976Y-45127485D02*
X90200976Y-44794152D01*
X90200976Y-44794152D02*
X90248595Y-44603676D01*
X90248595Y-44603676D02*
X90343833Y-44508438D01*
X90343833Y-44508438D02*
X90439071Y-44460819D01*
X90439071Y-44460819D02*
X90629547Y-44460819D01*
X90629547Y-44460819D02*
X90724785Y-44508438D01*
X90724785Y-44508438D02*
X90820023Y-44603676D01*
X90820023Y-44603676D02*
X90867642Y-44794152D01*
X90867642Y-44794152D02*
X90867642Y-45127485D01*
X90867642Y-45127485D02*
X90820023Y-45317961D01*
X90820023Y-45317961D02*
X90724785Y-45413200D01*
X90724785Y-45413200D02*
X90629547Y-45460819D01*
X90629547Y-45460819D02*
X90439071Y-45460819D01*
X91200976Y-44460819D02*
X91820023Y-44460819D01*
X91820023Y-44460819D02*
X91486690Y-44841771D01*
X91486690Y-44841771D02*
X91629547Y-44841771D01*
X91629547Y-44841771D02*
X91724785Y-44889390D01*
X91724785Y-44889390D02*
X91772404Y-44937009D01*
X91772404Y-44937009D02*
X91820023Y-45032247D01*
X91820023Y-45032247D02*
X91820023Y-45270342D01*
X91820023Y-45270342D02*
X91772404Y-45365580D01*
X91772404Y-45365580D02*
X91724785Y-45413200D01*
X91724785Y-45413200D02*
X91629547Y-45460819D01*
X91629547Y-45460819D02*
X91343833Y-45460819D01*
X91343833Y-45460819D02*
X91248595Y-45413200D01*
X91248595Y-45413200D02*
X91200976Y-45365580D01*
X93164819Y-34710666D02*
X92688628Y-35043999D01*
X93164819Y-35282094D02*
X92164819Y-35282094D01*
X92164819Y-35282094D02*
X92164819Y-34901142D01*
X92164819Y-34901142D02*
X92212438Y-34805904D01*
X92212438Y-34805904D02*
X92260057Y-34758285D01*
X92260057Y-34758285D02*
X92355295Y-34710666D01*
X92355295Y-34710666D02*
X92498152Y-34710666D01*
X92498152Y-34710666D02*
X92593390Y-34758285D01*
X92593390Y-34758285D02*
X92641009Y-34805904D01*
X92641009Y-34805904D02*
X92688628Y-34901142D01*
X92688628Y-34901142D02*
X92688628Y-35282094D01*
X92164819Y-34377332D02*
X92164819Y-33758285D01*
X92164819Y-33758285D02*
X92545771Y-34091618D01*
X92545771Y-34091618D02*
X92545771Y-33948761D01*
X92545771Y-33948761D02*
X92593390Y-33853523D01*
X92593390Y-33853523D02*
X92641009Y-33805904D01*
X92641009Y-33805904D02*
X92736247Y-33758285D01*
X92736247Y-33758285D02*
X92974342Y-33758285D01*
X92974342Y-33758285D02*
X93069580Y-33805904D01*
X93069580Y-33805904D02*
X93117200Y-33853523D01*
X93117200Y-33853523D02*
X93164819Y-33948761D01*
X93164819Y-33948761D02*
X93164819Y-34234475D01*
X93164819Y-34234475D02*
X93117200Y-34329713D01*
X93117200Y-34329713D02*
X93069580Y-34377332D01*
X87322819Y-102782666D02*
X86846628Y-103115999D01*
X87322819Y-103354094D02*
X86322819Y-103354094D01*
X86322819Y-103354094D02*
X86322819Y-102973142D01*
X86322819Y-102973142D02*
X86370438Y-102877904D01*
X86370438Y-102877904D02*
X86418057Y-102830285D01*
X86418057Y-102830285D02*
X86513295Y-102782666D01*
X86513295Y-102782666D02*
X86656152Y-102782666D01*
X86656152Y-102782666D02*
X86751390Y-102830285D01*
X86751390Y-102830285D02*
X86799009Y-102877904D01*
X86799009Y-102877904D02*
X86846628Y-102973142D01*
X86846628Y-102973142D02*
X86846628Y-103354094D01*
X87322819Y-101830285D02*
X87322819Y-102401713D01*
X87322819Y-102115999D02*
X86322819Y-102115999D01*
X86322819Y-102115999D02*
X86465676Y-102211237D01*
X86465676Y-102211237D02*
X86560914Y-102306475D01*
X86560914Y-102306475D02*
X86608533Y-102401713D01*
X93672819Y-105640094D02*
X92672819Y-105640094D01*
X92672819Y-105640094D02*
X92672819Y-105401999D01*
X92672819Y-105401999D02*
X92720438Y-105259142D01*
X92720438Y-105259142D02*
X92815676Y-105163904D01*
X92815676Y-105163904D02*
X92910914Y-105116285D01*
X92910914Y-105116285D02*
X93101390Y-105068666D01*
X93101390Y-105068666D02*
X93244247Y-105068666D01*
X93244247Y-105068666D02*
X93434723Y-105116285D01*
X93434723Y-105116285D02*
X93529961Y-105163904D01*
X93529961Y-105163904D02*
X93625200Y-105259142D01*
X93625200Y-105259142D02*
X93672819Y-105401999D01*
X93672819Y-105401999D02*
X93672819Y-105640094D01*
X92672819Y-104735332D02*
X92672819Y-104116285D01*
X92672819Y-104116285D02*
X93053771Y-104449618D01*
X93053771Y-104449618D02*
X93053771Y-104306761D01*
X93053771Y-104306761D02*
X93101390Y-104211523D01*
X93101390Y-104211523D02*
X93149009Y-104163904D01*
X93149009Y-104163904D02*
X93244247Y-104116285D01*
X93244247Y-104116285D02*
X93482342Y-104116285D01*
X93482342Y-104116285D02*
X93577580Y-104163904D01*
X93577580Y-104163904D02*
X93625200Y-104211523D01*
X93625200Y-104211523D02*
X93672819Y-104306761D01*
X93672819Y-104306761D02*
X93672819Y-104592475D01*
X93672819Y-104592475D02*
X93625200Y-104687713D01*
X93625200Y-104687713D02*
X93577580Y-104735332D01*
X115421580Y-44870666D02*
X115469200Y-44918285D01*
X115469200Y-44918285D02*
X115516819Y-45061142D01*
X115516819Y-45061142D02*
X115516819Y-45156380D01*
X115516819Y-45156380D02*
X115469200Y-45299237D01*
X115469200Y-45299237D02*
X115373961Y-45394475D01*
X115373961Y-45394475D02*
X115278723Y-45442094D01*
X115278723Y-45442094D02*
X115088247Y-45489713D01*
X115088247Y-45489713D02*
X114945390Y-45489713D01*
X114945390Y-45489713D02*
X114754914Y-45442094D01*
X114754914Y-45442094D02*
X114659676Y-45394475D01*
X114659676Y-45394475D02*
X114564438Y-45299237D01*
X114564438Y-45299237D02*
X114516819Y-45156380D01*
X114516819Y-45156380D02*
X114516819Y-45061142D01*
X114516819Y-45061142D02*
X114564438Y-44918285D01*
X114564438Y-44918285D02*
X114612057Y-44870666D01*
X114516819Y-44537332D02*
X114516819Y-43918285D01*
X114516819Y-43918285D02*
X114897771Y-44251618D01*
X114897771Y-44251618D02*
X114897771Y-44108761D01*
X114897771Y-44108761D02*
X114945390Y-44013523D01*
X114945390Y-44013523D02*
X114993009Y-43965904D01*
X114993009Y-43965904D02*
X115088247Y-43918285D01*
X115088247Y-43918285D02*
X115326342Y-43918285D01*
X115326342Y-43918285D02*
X115421580Y-43965904D01*
X115421580Y-43965904D02*
X115469200Y-44013523D01*
X115469200Y-44013523D02*
X115516819Y-44108761D01*
X115516819Y-44108761D02*
X115516819Y-44394475D01*
X115516819Y-44394475D02*
X115469200Y-44489713D01*
X115469200Y-44489713D02*
X115421580Y-44537332D01*
X91090761Y-29760057D02*
X90995523Y-29712438D01*
X90995523Y-29712438D02*
X90900285Y-29617200D01*
X90900285Y-29617200D02*
X90757428Y-29474342D01*
X90757428Y-29474342D02*
X90662190Y-29426723D01*
X90662190Y-29426723D02*
X90566952Y-29426723D01*
X90614571Y-29664819D02*
X90519333Y-29617200D01*
X90519333Y-29617200D02*
X90424095Y-29521961D01*
X90424095Y-29521961D02*
X90376476Y-29331485D01*
X90376476Y-29331485D02*
X90376476Y-28998152D01*
X90376476Y-28998152D02*
X90424095Y-28807676D01*
X90424095Y-28807676D02*
X90519333Y-28712438D01*
X90519333Y-28712438D02*
X90614571Y-28664819D01*
X90614571Y-28664819D02*
X90805047Y-28664819D01*
X90805047Y-28664819D02*
X90900285Y-28712438D01*
X90900285Y-28712438D02*
X90995523Y-28807676D01*
X90995523Y-28807676D02*
X91043142Y-28998152D01*
X91043142Y-28998152D02*
X91043142Y-29331485D01*
X91043142Y-29331485D02*
X90995523Y-29521961D01*
X90995523Y-29521961D02*
X90900285Y-29617200D01*
X90900285Y-29617200D02*
X90805047Y-29664819D01*
X90805047Y-29664819D02*
X90614571Y-29664819D01*
X91995523Y-29664819D02*
X91424095Y-29664819D01*
X91709809Y-29664819D02*
X91709809Y-28664819D01*
X91709809Y-28664819D02*
X91614571Y-28807676D01*
X91614571Y-28807676D02*
X91519333Y-28902914D01*
X91519333Y-28902914D02*
X91424095Y-28950533D01*
X90915261Y-54192057D02*
X90820023Y-54144438D01*
X90820023Y-54144438D02*
X90724785Y-54049200D01*
X90724785Y-54049200D02*
X90581928Y-53906342D01*
X90581928Y-53906342D02*
X90486690Y-53858723D01*
X90486690Y-53858723D02*
X90391452Y-53858723D01*
X90439071Y-54096819D02*
X90343833Y-54049200D01*
X90343833Y-54049200D02*
X90248595Y-53953961D01*
X90248595Y-53953961D02*
X90200976Y-53763485D01*
X90200976Y-53763485D02*
X90200976Y-53430152D01*
X90200976Y-53430152D02*
X90248595Y-53239676D01*
X90248595Y-53239676D02*
X90343833Y-53144438D01*
X90343833Y-53144438D02*
X90439071Y-53096819D01*
X90439071Y-53096819D02*
X90629547Y-53096819D01*
X90629547Y-53096819D02*
X90724785Y-53144438D01*
X90724785Y-53144438D02*
X90820023Y-53239676D01*
X90820023Y-53239676D02*
X90867642Y-53430152D01*
X90867642Y-53430152D02*
X90867642Y-53763485D01*
X90867642Y-53763485D02*
X90820023Y-53953961D01*
X90820023Y-53953961D02*
X90724785Y-54049200D01*
X90724785Y-54049200D02*
X90629547Y-54096819D01*
X90629547Y-54096819D02*
X90439071Y-54096819D01*
X91724785Y-53430152D02*
X91724785Y-54096819D01*
X91486690Y-53049200D02*
X91248595Y-53763485D01*
X91248595Y-53763485D02*
X91867642Y-53763485D01*
X129714666Y-20790819D02*
X129714666Y-21505104D01*
X129714666Y-21505104D02*
X129667047Y-21647961D01*
X129667047Y-21647961D02*
X129571809Y-21743200D01*
X129571809Y-21743200D02*
X129428952Y-21790819D01*
X129428952Y-21790819D02*
X129333714Y-21790819D01*
X130714666Y-21790819D02*
X130143238Y-21790819D01*
X130428952Y-21790819D02*
X130428952Y-20790819D01*
X130428952Y-20790819D02*
X130333714Y-20933676D01*
X130333714Y-20933676D02*
X130238476Y-21028914D01*
X130238476Y-21028914D02*
X130143238Y-21076533D01*
X90624819Y-102782666D02*
X90148628Y-103115999D01*
X90624819Y-103354094D02*
X89624819Y-103354094D01*
X89624819Y-103354094D02*
X89624819Y-102973142D01*
X89624819Y-102973142D02*
X89672438Y-102877904D01*
X89672438Y-102877904D02*
X89720057Y-102830285D01*
X89720057Y-102830285D02*
X89815295Y-102782666D01*
X89815295Y-102782666D02*
X89958152Y-102782666D01*
X89958152Y-102782666D02*
X90053390Y-102830285D01*
X90053390Y-102830285D02*
X90101009Y-102877904D01*
X90101009Y-102877904D02*
X90148628Y-102973142D01*
X90148628Y-102973142D02*
X90148628Y-103354094D01*
X89720057Y-102401713D02*
X89672438Y-102354094D01*
X89672438Y-102354094D02*
X89624819Y-102258856D01*
X89624819Y-102258856D02*
X89624819Y-102020761D01*
X89624819Y-102020761D02*
X89672438Y-101925523D01*
X89672438Y-101925523D02*
X89720057Y-101877904D01*
X89720057Y-101877904D02*
X89815295Y-101830285D01*
X89815295Y-101830285D02*
X89910533Y-101830285D01*
X89910533Y-101830285D02*
X90053390Y-101877904D01*
X90053390Y-101877904D02*
X90624819Y-102449332D01*
X90624819Y-102449332D02*
X90624819Y-101830285D01*
X96465580Y-89066666D02*
X96513200Y-89114285D01*
X96513200Y-89114285D02*
X96560819Y-89257142D01*
X96560819Y-89257142D02*
X96560819Y-89352380D01*
X96560819Y-89352380D02*
X96513200Y-89495237D01*
X96513200Y-89495237D02*
X96417961Y-89590475D01*
X96417961Y-89590475D02*
X96322723Y-89638094D01*
X96322723Y-89638094D02*
X96132247Y-89685713D01*
X96132247Y-89685713D02*
X95989390Y-89685713D01*
X95989390Y-89685713D02*
X95798914Y-89638094D01*
X95798914Y-89638094D02*
X95703676Y-89590475D01*
X95703676Y-89590475D02*
X95608438Y-89495237D01*
X95608438Y-89495237D02*
X95560819Y-89352380D01*
X95560819Y-89352380D02*
X95560819Y-89257142D01*
X95560819Y-89257142D02*
X95608438Y-89114285D01*
X95608438Y-89114285D02*
X95656057Y-89066666D01*
X96560819Y-88114285D02*
X96560819Y-88685713D01*
X96560819Y-88399999D02*
X95560819Y-88399999D01*
X95560819Y-88399999D02*
X95703676Y-88495237D01*
X95703676Y-88495237D02*
X95798914Y-88590475D01*
X95798914Y-88590475D02*
X95846533Y-88685713D01*
X100774667Y-26569200D02*
X100917524Y-26616819D01*
X100917524Y-26616819D02*
X101155619Y-26616819D01*
X101155619Y-26616819D02*
X101250857Y-26569200D01*
X101250857Y-26569200D02*
X101298476Y-26521580D01*
X101298476Y-26521580D02*
X101346095Y-26426342D01*
X101346095Y-26426342D02*
X101346095Y-26331104D01*
X101346095Y-26331104D02*
X101298476Y-26235866D01*
X101298476Y-26235866D02*
X101250857Y-26188247D01*
X101250857Y-26188247D02*
X101155619Y-26140628D01*
X101155619Y-26140628D02*
X100965143Y-26093009D01*
X100965143Y-26093009D02*
X100869905Y-26045390D01*
X100869905Y-26045390D02*
X100822286Y-25997771D01*
X100822286Y-25997771D02*
X100774667Y-25902533D01*
X100774667Y-25902533D02*
X100774667Y-25807295D01*
X100774667Y-25807295D02*
X100822286Y-25712057D01*
X100822286Y-25712057D02*
X100869905Y-25664438D01*
X100869905Y-25664438D02*
X100965143Y-25616819D01*
X100965143Y-25616819D02*
X101203238Y-25616819D01*
X101203238Y-25616819D02*
X101346095Y-25664438D01*
X101679429Y-25616819D02*
X101917524Y-26616819D01*
X101917524Y-26616819D02*
X102108000Y-25902533D01*
X102108000Y-25902533D02*
X102298476Y-26616819D01*
X102298476Y-26616819D02*
X102536572Y-25616819D01*
X102869905Y-25712057D02*
X102917524Y-25664438D01*
X102917524Y-25664438D02*
X103012762Y-25616819D01*
X103012762Y-25616819D02*
X103250857Y-25616819D01*
X103250857Y-25616819D02*
X103346095Y-25664438D01*
X103346095Y-25664438D02*
X103393714Y-25712057D01*
X103393714Y-25712057D02*
X103441333Y-25807295D01*
X103441333Y-25807295D02*
X103441333Y-25902533D01*
X103441333Y-25902533D02*
X103393714Y-26045390D01*
X103393714Y-26045390D02*
X102822286Y-26616819D01*
X102822286Y-26616819D02*
X103441333Y-26616819D01*
X96210952Y-91148819D02*
X96401428Y-91148819D01*
X96401428Y-91148819D02*
X96496666Y-91196438D01*
X96496666Y-91196438D02*
X96591904Y-91291676D01*
X96591904Y-91291676D02*
X96639523Y-91482152D01*
X96639523Y-91482152D02*
X96639523Y-91815485D01*
X96639523Y-91815485D02*
X96591904Y-92005961D01*
X96591904Y-92005961D02*
X96496666Y-92101200D01*
X96496666Y-92101200D02*
X96401428Y-92148819D01*
X96401428Y-92148819D02*
X96210952Y-92148819D01*
X96210952Y-92148819D02*
X96115714Y-92101200D01*
X96115714Y-92101200D02*
X96020476Y-92005961D01*
X96020476Y-92005961D02*
X95972857Y-91815485D01*
X95972857Y-91815485D02*
X95972857Y-91482152D01*
X95972857Y-91482152D02*
X96020476Y-91291676D01*
X96020476Y-91291676D02*
X96115714Y-91196438D01*
X96115714Y-91196438D02*
X96210952Y-91148819D01*
X97068095Y-92148819D02*
X97068095Y-91148819D01*
X97639523Y-92148819D02*
X97210952Y-91577390D01*
X97639523Y-91148819D02*
X97068095Y-91720247D01*
X98068095Y-92148819D02*
X98068095Y-91148819D01*
X99829999Y-92148819D02*
X99258571Y-92148819D01*
X99544285Y-92148819D02*
X99544285Y-91148819D01*
X99544285Y-91148819D02*
X99449047Y-91291676D01*
X99449047Y-91291676D02*
X99353809Y-91386914D01*
X99353809Y-91386914D02*
X99258571Y-91434533D01*
X100210952Y-91244057D02*
X100258571Y-91196438D01*
X100258571Y-91196438D02*
X100353809Y-91148819D01*
X100353809Y-91148819D02*
X100591904Y-91148819D01*
X100591904Y-91148819D02*
X100687142Y-91196438D01*
X100687142Y-91196438D02*
X100734761Y-91244057D01*
X100734761Y-91244057D02*
X100782380Y-91339295D01*
X100782380Y-91339295D02*
X100782380Y-91434533D01*
X100782380Y-91434533D02*
X100734761Y-91577390D01*
X100734761Y-91577390D02*
X100163333Y-92148819D01*
X100163333Y-92148819D02*
X100782380Y-92148819D01*
X101068095Y-91148819D02*
X101401428Y-92148819D01*
X101401428Y-92148819D02*
X101734761Y-91148819D01*
X102068095Y-91767866D02*
X102830000Y-91767866D01*
X103782380Y-91148819D02*
X103306190Y-91148819D01*
X103306190Y-91148819D02*
X103258571Y-91625009D01*
X103258571Y-91625009D02*
X103306190Y-91577390D01*
X103306190Y-91577390D02*
X103401428Y-91529771D01*
X103401428Y-91529771D02*
X103639523Y-91529771D01*
X103639523Y-91529771D02*
X103734761Y-91577390D01*
X103734761Y-91577390D02*
X103782380Y-91625009D01*
X103782380Y-91625009D02*
X103829999Y-91720247D01*
X103829999Y-91720247D02*
X103829999Y-91958342D01*
X103829999Y-91958342D02*
X103782380Y-92053580D01*
X103782380Y-92053580D02*
X103734761Y-92101200D01*
X103734761Y-92101200D02*
X103639523Y-92148819D01*
X103639523Y-92148819D02*
X103401428Y-92148819D01*
X103401428Y-92148819D02*
X103306190Y-92101200D01*
X103306190Y-92101200D02*
X103258571Y-92053580D01*
X104115714Y-91148819D02*
X104449047Y-92148819D01*
X104449047Y-92148819D02*
X104782380Y-91148819D01*
X93672819Y-102782666D02*
X93196628Y-103115999D01*
X93672819Y-103354094D02*
X92672819Y-103354094D01*
X92672819Y-103354094D02*
X92672819Y-102973142D01*
X92672819Y-102973142D02*
X92720438Y-102877904D01*
X92720438Y-102877904D02*
X92768057Y-102830285D01*
X92768057Y-102830285D02*
X92863295Y-102782666D01*
X92863295Y-102782666D02*
X93006152Y-102782666D01*
X93006152Y-102782666D02*
X93101390Y-102830285D01*
X93101390Y-102830285D02*
X93149009Y-102877904D01*
X93149009Y-102877904D02*
X93196628Y-102973142D01*
X93196628Y-102973142D02*
X93196628Y-103354094D01*
X93006152Y-101925523D02*
X93672819Y-101925523D01*
X92625200Y-102163618D02*
X93339485Y-102401713D01*
X93339485Y-102401713D02*
X93339485Y-101782666D01*
X101545580Y-89066666D02*
X101593200Y-89114285D01*
X101593200Y-89114285D02*
X101640819Y-89257142D01*
X101640819Y-89257142D02*
X101640819Y-89352380D01*
X101640819Y-89352380D02*
X101593200Y-89495237D01*
X101593200Y-89495237D02*
X101497961Y-89590475D01*
X101497961Y-89590475D02*
X101402723Y-89638094D01*
X101402723Y-89638094D02*
X101212247Y-89685713D01*
X101212247Y-89685713D02*
X101069390Y-89685713D01*
X101069390Y-89685713D02*
X100878914Y-89638094D01*
X100878914Y-89638094D02*
X100783676Y-89590475D01*
X100783676Y-89590475D02*
X100688438Y-89495237D01*
X100688438Y-89495237D02*
X100640819Y-89352380D01*
X100640819Y-89352380D02*
X100640819Y-89257142D01*
X100640819Y-89257142D02*
X100688438Y-89114285D01*
X100688438Y-89114285D02*
X100736057Y-89066666D01*
X100736057Y-88685713D02*
X100688438Y-88638094D01*
X100688438Y-88638094D02*
X100640819Y-88542856D01*
X100640819Y-88542856D02*
X100640819Y-88304761D01*
X100640819Y-88304761D02*
X100688438Y-88209523D01*
X100688438Y-88209523D02*
X100736057Y-88161904D01*
X100736057Y-88161904D02*
X100831295Y-88114285D01*
X100831295Y-88114285D02*
X100926533Y-88114285D01*
X100926533Y-88114285D02*
X101069390Y-88161904D01*
X101069390Y-88161904D02*
X101640819Y-88733332D01*
X101640819Y-88733332D02*
X101640819Y-88114285D01*
X86157990Y-84048580D02*
X86110371Y-84096200D01*
X86110371Y-84096200D02*
X85967514Y-84143819D01*
X85967514Y-84143819D02*
X85872276Y-84143819D01*
X85872276Y-84143819D02*
X85729419Y-84096200D01*
X85729419Y-84096200D02*
X85634181Y-84000961D01*
X85634181Y-84000961D02*
X85586562Y-83905723D01*
X85586562Y-83905723D02*
X85538943Y-83715247D01*
X85538943Y-83715247D02*
X85538943Y-83572390D01*
X85538943Y-83572390D02*
X85586562Y-83381914D01*
X85586562Y-83381914D02*
X85634181Y-83286676D01*
X85634181Y-83286676D02*
X85729419Y-83191438D01*
X85729419Y-83191438D02*
X85872276Y-83143819D01*
X85872276Y-83143819D02*
X85967514Y-83143819D01*
X85967514Y-83143819D02*
X86110371Y-83191438D01*
X86110371Y-83191438D02*
X86157990Y-83239057D01*
X86729419Y-84143819D02*
X86634181Y-84096200D01*
X86634181Y-84096200D02*
X86586562Y-84048580D01*
X86586562Y-84048580D02*
X86538943Y-83953342D01*
X86538943Y-83953342D02*
X86538943Y-83667628D01*
X86538943Y-83667628D02*
X86586562Y-83572390D01*
X86586562Y-83572390D02*
X86634181Y-83524771D01*
X86634181Y-83524771D02*
X86729419Y-83477152D01*
X86729419Y-83477152D02*
X86872276Y-83477152D01*
X86872276Y-83477152D02*
X86967514Y-83524771D01*
X86967514Y-83524771D02*
X87015133Y-83572390D01*
X87015133Y-83572390D02*
X87062752Y-83667628D01*
X87062752Y-83667628D02*
X87062752Y-83953342D01*
X87062752Y-83953342D02*
X87015133Y-84048580D01*
X87015133Y-84048580D02*
X86967514Y-84096200D01*
X86967514Y-84096200D02*
X86872276Y-84143819D01*
X86872276Y-84143819D02*
X86729419Y-84143819D01*
X87491324Y-83477152D02*
X87491324Y-84143819D01*
X87491324Y-83572390D02*
X87538943Y-83524771D01*
X87538943Y-83524771D02*
X87634181Y-83477152D01*
X87634181Y-83477152D02*
X87777038Y-83477152D01*
X87777038Y-83477152D02*
X87872276Y-83524771D01*
X87872276Y-83524771D02*
X87919895Y-83620009D01*
X87919895Y-83620009D02*
X87919895Y-84143819D01*
X88396086Y-83477152D02*
X88396086Y-84143819D01*
X88396086Y-83572390D02*
X88443705Y-83524771D01*
X88443705Y-83524771D02*
X88538943Y-83477152D01*
X88538943Y-83477152D02*
X88681800Y-83477152D01*
X88681800Y-83477152D02*
X88777038Y-83524771D01*
X88777038Y-83524771D02*
X88824657Y-83620009D01*
X88824657Y-83620009D02*
X88824657Y-84143819D01*
X89824657Y-84143819D02*
X89253229Y-84143819D01*
X89538943Y-84143819D02*
X89538943Y-83143819D01*
X89538943Y-83143819D02*
X89443705Y-83286676D01*
X89443705Y-83286676D02*
X89348467Y-83381914D01*
X89348467Y-83381914D02*
X89253229Y-83429533D01*
X85544819Y-50966666D02*
X85068628Y-51299999D01*
X85544819Y-51538094D02*
X84544819Y-51538094D01*
X84544819Y-51538094D02*
X84544819Y-51157142D01*
X84544819Y-51157142D02*
X84592438Y-51061904D01*
X84592438Y-51061904D02*
X84640057Y-51014285D01*
X84640057Y-51014285D02*
X84735295Y-50966666D01*
X84735295Y-50966666D02*
X84878152Y-50966666D01*
X84878152Y-50966666D02*
X84973390Y-51014285D01*
X84973390Y-51014285D02*
X85021009Y-51061904D01*
X85021009Y-51061904D02*
X85068628Y-51157142D01*
X85068628Y-51157142D02*
X85068628Y-51538094D01*
X84544819Y-50109523D02*
X84544819Y-50299999D01*
X84544819Y-50299999D02*
X84592438Y-50395237D01*
X84592438Y-50395237D02*
X84640057Y-50442856D01*
X84640057Y-50442856D02*
X84782914Y-50538094D01*
X84782914Y-50538094D02*
X84973390Y-50585713D01*
X84973390Y-50585713D02*
X85354342Y-50585713D01*
X85354342Y-50585713D02*
X85449580Y-50538094D01*
X85449580Y-50538094D02*
X85497200Y-50490475D01*
X85497200Y-50490475D02*
X85544819Y-50395237D01*
X85544819Y-50395237D02*
X85544819Y-50204761D01*
X85544819Y-50204761D02*
X85497200Y-50109523D01*
X85497200Y-50109523D02*
X85449580Y-50061904D01*
X85449580Y-50061904D02*
X85354342Y-50014285D01*
X85354342Y-50014285D02*
X85116247Y-50014285D01*
X85116247Y-50014285D02*
X85021009Y-50061904D01*
X85021009Y-50061904D02*
X84973390Y-50109523D01*
X84973390Y-50109523D02*
X84925771Y-50204761D01*
X84925771Y-50204761D02*
X84925771Y-50395237D01*
X84925771Y-50395237D02*
X84973390Y-50490475D01*
X84973390Y-50490475D02*
X85021009Y-50538094D01*
X85021009Y-50538094D02*
X85116247Y-50585713D01*
%TO.C,Conn12*%
X98044000Y-41148000D02*
X98044000Y-51308000D01*
X98044000Y-41148000D02*
X103124000Y-41148000D01*
X98044000Y-51308000D02*
X103124000Y-51308000D01*
X103124000Y-51308000D02*
X103124000Y-41148000D01*
X103124000Y-51308000D02*
X104648000Y-51308000D01*
X104648000Y-41148000D02*
X103124000Y-41148000D01*
X104648000Y-51308000D02*
X104648000Y-41148000D01*
%TO.C,Conn8*%
X139954000Y-39814500D02*
X139954000Y-32321500D01*
X145034000Y-32321500D02*
X139954000Y-32321500D01*
X145034000Y-32321500D02*
X145034000Y-39814500D01*
X145034000Y-32321500D02*
X146304000Y-32321500D01*
X145034000Y-39814500D02*
X139954000Y-39814500D01*
X146304000Y-32321500D02*
X146304000Y-39814500D01*
X146304000Y-39814500D02*
X145034000Y-39814500D01*
D13*
%TO.C,SW1*%
X87590000Y-20466000D02*
X87590000Y-20866000D01*
X87590000Y-20466000D02*
X92330000Y-20466000D01*
X87590000Y-23866000D02*
X87590000Y-21806000D01*
X87590000Y-25206000D02*
X87590000Y-24806000D01*
X87590000Y-25206000D02*
X92330000Y-25206000D01*
X92330000Y-20466000D02*
X92330000Y-20866000D01*
X92330000Y-23866000D02*
X92330000Y-21806000D01*
X92330000Y-25206000D02*
X92330000Y-24806000D01*
%TO.C,D2*%
X89435000Y-109592000D02*
X89435000Y-112052000D01*
X90905000Y-109592000D02*
X89435000Y-109592000D01*
X90905000Y-112052000D02*
X90905000Y-109592000D01*
D14*
%TO.C,U1*%
X111506000Y-48006000D02*
X129286000Y-48006000D01*
X111506000Y-108966000D02*
X111506000Y-48006000D01*
X111506000Y-108966000D02*
X116366000Y-108966000D01*
X116366000Y-108966000D02*
X116366000Y-109666000D01*
X124426000Y-108966000D02*
X124426000Y-109666000D01*
X124426000Y-109666000D02*
X116366000Y-109666000D01*
X129286000Y-48006000D02*
X129286000Y-108966000D01*
X129286000Y-108966000D02*
X124426000Y-108966000D01*
D15*
X129996000Y-102616000D02*
G75*
G02*
X129796000Y-102616000I-100000J0D01*
G01*
X129796000Y-102616000D02*
G75*
G02*
X129996000Y-102616000I100000J0D01*
G01*
D11*
%TO.C,H3*%
X146766283Y-23114000D02*
G75*
G02*
X138729717Y-23114000I-4018283J0D01*
G01*
X138729717Y-23114000D02*
G75*
G02*
X146766283Y-23114000I4018283J0D01*
G01*
D13*
%TO.C,Q2*%
X88821500Y-58892000D02*
X88171500Y-58892000D01*
X88821500Y-58892000D02*
X89471500Y-58892000D01*
X88821500Y-62012000D02*
X88171500Y-62012000D01*
X88821500Y-62012000D02*
X89471500Y-62012000D01*
X90224000Y-62292000D02*
X89744000Y-62292000D01*
X89984000Y-61962000D01*
X90224000Y-62292000D01*
G36*
X90224000Y-62292000D02*
G01*
X89744000Y-62292000D01*
X89984000Y-61962000D01*
X90224000Y-62292000D01*
G37*
%TO.C,R5*%
X85916000Y-42351276D02*
X85916000Y-42860724D01*
X86961000Y-42351276D02*
X86961000Y-42860724D01*
%TO.C,D1*%
X86133000Y-109592000D02*
X86133000Y-112052000D01*
X87603000Y-109592000D02*
X86133000Y-109592000D01*
X87603000Y-112052000D02*
X87603000Y-109592000D01*
%TO.C,Q3*%
X91010500Y-41046000D02*
X90360500Y-41046000D01*
X91010500Y-41046000D02*
X91660500Y-41046000D01*
X91010500Y-44166000D02*
X90360500Y-44166000D01*
X91010500Y-44166000D02*
X91660500Y-44166000D01*
X92413000Y-44446000D02*
X91933000Y-44446000D01*
X92173000Y-44116000D01*
X92413000Y-44446000D01*
G36*
X92413000Y-44446000D02*
G01*
X91933000Y-44446000D01*
X92173000Y-44116000D01*
X92413000Y-44446000D01*
G37*
%TO.C,R3*%
X89915276Y-34021500D02*
X90424724Y-34021500D01*
X89915276Y-35066500D02*
X90424724Y-35066500D01*
%TO.C,R1*%
X86345500Y-107950724D02*
X86345500Y-107441276D01*
X87390500Y-107950724D02*
X87390500Y-107441276D01*
D11*
%TO.C,H4*%
X146766283Y-112014000D02*
G75*
G02*
X138729717Y-112014000I-4018283J0D01*
G01*
X138729717Y-112014000D02*
G75*
G02*
X146766283Y-112014000I4018283J0D01*
G01*
D13*
%TO.C,D3*%
X92483000Y-109592000D02*
X92483000Y-112052000D01*
X93953000Y-109592000D02*
X92483000Y-109592000D01*
X93953000Y-112052000D02*
X93953000Y-109592000D01*
%TO.C,C3*%
X116076000Y-44557733D02*
X116076000Y-44850267D01*
X117096000Y-44557733D02*
X117096000Y-44850267D01*
%TO.C,Q1*%
X88138000Y-29870000D02*
X87488000Y-29870000D01*
X88138000Y-29870000D02*
X88788000Y-29870000D01*
X88138000Y-32990000D02*
X87488000Y-32990000D01*
X88138000Y-32990000D02*
X88788000Y-32990000D01*
X89540500Y-33270000D02*
X89060500Y-33270000D01*
X89300500Y-32940000D01*
X89540500Y-33270000D01*
G36*
X89540500Y-33270000D02*
G01*
X89060500Y-33270000D01*
X89300500Y-32940000D01*
X89540500Y-33270000D01*
G37*
D11*
%TO.C,Conn3*%
X75184000Y-36383000D02*
X75184000Y-28890000D01*
X80264000Y-28890000D02*
X75184000Y-28890000D01*
X80264000Y-28890000D02*
X80264000Y-36383000D01*
X80264000Y-28890000D02*
X81534000Y-28890000D01*
X80264000Y-36383000D02*
X75184000Y-36383000D01*
X81534000Y-28890000D02*
X81534000Y-36383000D01*
X81534000Y-36383000D02*
X80264000Y-36383000D01*
%TO.C,Conn7*%
X75184000Y-84836000D02*
X80264000Y-84836000D01*
X75184000Y-97536000D02*
X75184000Y-84836000D01*
X75184000Y-97536000D02*
X80264000Y-97536000D01*
X80264000Y-84836000D02*
X80264000Y-97536000D01*
X80264000Y-97536000D02*
X81788000Y-97536000D01*
X81788000Y-84836000D02*
X80264000Y-84836000D01*
X81788000Y-97536000D02*
X81788000Y-84836000D01*
%TO.C,H1*%
X83266283Y-23114000D02*
G75*
G02*
X75229717Y-23114000I-4018283J0D01*
G01*
X75229717Y-23114000D02*
G75*
G02*
X83266283Y-23114000I4018283J0D01*
G01*
%TO.C,Conn2*%
X139700000Y-63500000D02*
X144780000Y-63500000D01*
X139700000Y-81280000D02*
X139700000Y-63500000D01*
X139700000Y-81280000D02*
X144780000Y-81280000D01*
X144780000Y-63500000D02*
X144780000Y-81280000D01*
X144780000Y-81280000D02*
X146304000Y-81280000D01*
X146304000Y-63500000D02*
X144780000Y-63500000D01*
X146304000Y-81280000D02*
X146304000Y-63500000D01*
%TO.C,Conn4*%
X75184000Y-63815000D02*
X75184000Y-56322000D01*
X80264000Y-56322000D02*
X75184000Y-56322000D01*
X80264000Y-56322000D02*
X80264000Y-63815000D01*
X80264000Y-56322000D02*
X81534000Y-56322000D01*
X80264000Y-63815000D02*
X75184000Y-63815000D01*
X81534000Y-56322000D02*
X81534000Y-63815000D01*
X81534000Y-63815000D02*
X80264000Y-63815000D01*
D13*
%TO.C,Q4*%
X91010500Y-49682000D02*
X90360500Y-49682000D01*
X91010500Y-49682000D02*
X91660500Y-49682000D01*
X91010500Y-52802000D02*
X90360500Y-52802000D01*
X91010500Y-52802000D02*
X91660500Y-52802000D01*
X92413000Y-53082000D02*
X91933000Y-53082000D01*
X92173000Y-52752000D01*
X92413000Y-53082000D01*
G36*
X92413000Y-53082000D02*
G01*
X91933000Y-53082000D01*
X92173000Y-52752000D01*
X92413000Y-53082000D01*
G37*
%TO.C,J1*%
X112144000Y-20242000D02*
X112144000Y-41792000D01*
X128394000Y-20242000D02*
X112144000Y-20242000D01*
X128394000Y-20242000D02*
X128394000Y-41792000D01*
X128394000Y-41792000D02*
X112144000Y-41792000D01*
%TO.C,R2*%
X89647500Y-107950724D02*
X89647500Y-107441276D01*
X90692500Y-107950724D02*
X90692500Y-107441276D01*
%TO.C,C1*%
X97026000Y-89046267D02*
X97026000Y-88753733D01*
X98046000Y-89046267D02*
X98046000Y-88753733D01*
%TO.C,SW2*%
X99782000Y-20466000D02*
X99782000Y-20866000D01*
X99782000Y-20466000D02*
X104522000Y-20466000D01*
X99782000Y-23866000D02*
X99782000Y-21806000D01*
X99782000Y-25206000D02*
X99782000Y-24806000D01*
X99782000Y-25206000D02*
X104522000Y-25206000D01*
X104522000Y-20466000D02*
X104522000Y-20866000D01*
X104522000Y-23866000D02*
X104522000Y-21806000D01*
X104522000Y-25206000D02*
X104522000Y-24806000D01*
D11*
%TO.C,Conn5*%
X75184000Y-39050000D02*
X80264000Y-39050000D01*
X75184000Y-54290000D02*
X75184000Y-39050000D01*
X75184000Y-54290000D02*
X80264000Y-54290000D01*
X80264000Y-39050000D02*
X80264000Y-54290000D01*
X80264000Y-54290000D02*
X81788000Y-54290000D01*
X81788000Y-39050000D02*
X80264000Y-39050000D01*
X81788000Y-54290000D02*
X81788000Y-39050000D01*
%TO.C,U2*%
X94996000Y-92837000D02*
X105156000Y-92837000D01*
X94996000Y-99187000D02*
X97536000Y-96647000D01*
X94996000Y-104267000D02*
X94996000Y-99187000D01*
X94996000Y-109347000D02*
X94996000Y-92837000D01*
X94996000Y-109347000D02*
X105156000Y-109347000D01*
X97536000Y-96647000D02*
X102616000Y-96647000D01*
X97536000Y-106807000D02*
X94996000Y-104267000D01*
X102616000Y-96647000D02*
X105156000Y-99187000D01*
X102616000Y-106807000D02*
X97536000Y-106807000D01*
X105156000Y-92837000D02*
X105156000Y-109347000D01*
X105156000Y-99187000D02*
X105156000Y-104267000D01*
X105156000Y-104267000D02*
X102616000Y-106807000D01*
D13*
%TO.C,R4*%
X92695500Y-107950724D02*
X92695500Y-107441276D01*
X93740500Y-107950724D02*
X93740500Y-107441276D01*
%TO.C,C2*%
X102106000Y-89046267D02*
X102106000Y-88753733D01*
X103126000Y-89046267D02*
X103126000Y-88753733D01*
D11*
%TO.C,Conn6*%
X139700000Y-85344000D02*
X144780000Y-85344000D01*
X139700000Y-100584000D02*
X139700000Y-85344000D01*
X139700000Y-100584000D02*
X144780000Y-100584000D01*
X144780000Y-85344000D02*
X144780000Y-100584000D01*
X144780000Y-100584000D02*
X146304000Y-100584000D01*
X146304000Y-85344000D02*
X144780000Y-85344000D01*
X146304000Y-100584000D02*
X146304000Y-85344000D01*
%TO.C,Conn9*%
X139954000Y-49657000D02*
X139954000Y-42164000D01*
X145034000Y-42164000D02*
X139954000Y-42164000D01*
X145034000Y-42164000D02*
X145034000Y-49657000D01*
X145034000Y-42164000D02*
X146304000Y-42164000D01*
X145034000Y-49657000D02*
X139954000Y-49657000D01*
X146304000Y-42164000D02*
X146304000Y-49657000D01*
X146304000Y-49657000D02*
X145034000Y-49657000D01*
%TO.C,Conn11*%
X98044000Y-29464000D02*
X98044000Y-39624000D01*
X98044000Y-29464000D02*
X103124000Y-29464000D01*
X98044000Y-39624000D02*
X103124000Y-39624000D01*
X103124000Y-39624000D02*
X103124000Y-29464000D01*
X103124000Y-39624000D02*
X104648000Y-39624000D01*
X104648000Y-29464000D02*
X103124000Y-29464000D01*
X104648000Y-39624000D02*
X104648000Y-29464000D01*
%TO.C,Conn1*%
X65187800Y-66802000D02*
X65187800Y-82550000D01*
X65213200Y-66802000D02*
X72960200Y-66802000D01*
X65213200Y-74650600D02*
X74103200Y-74650600D01*
X72934800Y-82550000D02*
X74103200Y-82550000D01*
X72960200Y-82550000D02*
X65213200Y-82550000D01*
X74103200Y-66802000D02*
X72884000Y-66802000D01*
X75246200Y-67945000D02*
X75246200Y-69113400D01*
X75246200Y-72390000D02*
X75246200Y-69113400D01*
X75246200Y-72390000D02*
X75246200Y-73533000D01*
X75246200Y-76962000D02*
X75246200Y-75819000D01*
X75246200Y-76962000D02*
X75246200Y-80264000D01*
X75246200Y-80238600D02*
X75246200Y-81407000D01*
X77506800Y-66802000D02*
X76414600Y-66802000D01*
X77532200Y-66802000D02*
X89825800Y-66802000D01*
X77532200Y-74676000D02*
X76389200Y-74676000D01*
X77532200Y-74676000D02*
X89825800Y-74676000D01*
X77532200Y-82550000D02*
X89825800Y-82550000D01*
X77557600Y-82550000D02*
X76363800Y-82550000D01*
X89825800Y-66802000D02*
X89825800Y-82550000D01*
X74128600Y-82550000D02*
G75*
G02*
X75246200Y-81432400I1117598J2D01*
G01*
X75246200Y-67945000D02*
G75*
G02*
X74103200Y-66802000I0J1143000D01*
G01*
X75246200Y-81432400D02*
G75*
G02*
X76363800Y-82550000I2J-1117598D01*
G01*
X76389200Y-66802000D02*
G75*
G02*
X75246200Y-67945000I-1143000J0D01*
G01*
X76389200Y-74676000D02*
G75*
G02*
X74103200Y-74676000I-1143000J0D01*
G01*
X74103200Y-74676000D02*
G75*
G02*
X76389200Y-74676000I1143000J0D01*
G01*
%TO.C,Conn10*%
X139954000Y-59563000D02*
X139954000Y-52070000D01*
X145034000Y-52070000D02*
X139954000Y-52070000D01*
X145034000Y-52070000D02*
X145034000Y-59563000D01*
X145034000Y-52070000D02*
X146304000Y-52070000D01*
X145034000Y-59563000D02*
X139954000Y-59563000D01*
X146304000Y-52070000D02*
X146304000Y-59563000D01*
X146304000Y-59563000D02*
X145034000Y-59563000D01*
%TO.C,H2*%
X83266283Y-112014000D02*
G75*
G02*
X75229717Y-112014000I-4018283J0D01*
G01*
X75229717Y-112014000D02*
G75*
G02*
X83266283Y-112014000I4018283J0D01*
G01*
D13*
%TO.C,R6*%
X85916000Y-50883776D02*
X85916000Y-51393224D01*
X86961000Y-50883776D02*
X86961000Y-51393224D01*
%TD*%
M02*
