M48
; DRILL file {KiCad 8.0.5} date 2025-03-17T23:02:20-0500
; FORMAT={-:-/ absolute / inch / decimal}
; #@! TF.CreationDate,2025-03-17T23:02:20-05:00
; #@! TF.GenerationSoftware,Kicad,Pcbnew,8.0.5
; #@! TF.FileFunction,Plated,1,2,PTH
FMAT,2
INCH
; #@! TA.AperFunction,Plated,PTH,ViaDrill
T1C0.0157
; #@! TA.AperFunction,Plated,PTH,ComponentDrill
T2C0.0276
; #@! TA.AperFunction,Plated,PTH,ComponentDrill
T3C0.0315
; #@! TA.AperFunction,Plated,PTH,ComponentDrill
T4C0.0350
; #@! TA.AperFunction,Plated,PTH,ComponentDrill
T5C0.0354
; #@! TA.AperFunction,Plated,PTH,ComponentDrill
T6C0.0402
; #@! TA.AperFunction,Plated,PTH,ComponentDrill
T7C0.0630
; #@! TA.AperFunction,Plated,PTH,ComponentDrill
T8C0.0787
; #@! TA.AperFunction,Plated,PTH,ComponentDrill
T9C0.1280
%
G90
G05
T1
X3.1Y-2.85
X3.19Y-1.66
X3.25Y-1.1
X3.25Y-2.15
X3.25Y-2.6
X3.25Y-3.1
X3.25Y-3.35
X3.25Y-3.85
X3.26Y-1.48
X3.32Y-3.98
X3.36Y-1.36
X3.36Y-2.46
X3.37Y-1.84
X3.44Y-1.82
X3.48Y-1.66
X3.5Y-1.1
X3.5Y-2.15
X3.5Y-2.6
X3.5Y-2.85
X3.5Y-3.35
X3.57Y-1.85
X3.59Y-1.27
X3.6072Y-4.1372
X3.61Y-3.83
X3.68Y-3.62
X3.6915Y-1.98
X3.75Y-1.1
X3.75Y-1.35
X3.75Y-2.3
X3.75Y-2.6
X3.75Y-3.35
X3.75Y-3.85
X3.75Y-4.1
X3.84Y-1.68
X3.85Y-1.85
X3.85Y-1.95
X4.0Y-1.1
X4.0Y-1.6
X4.0Y-2.3
X4.0Y-2.6
X4.0Y-2.85
X4.0Y-3.1
X4.0Y-3.35
X4.0Y-3.85
X4.0Y-4.1
X4.04Y-3.96
X4.1Y-1.22
X4.14Y-1.6
X4.15Y-3.39
X4.17Y-2.15
X4.2Y-1.1
X4.22Y-1.98
X4.24Y-2.27
X4.25Y-2.4
X4.25Y-2.6
X4.25Y-2.85
X4.25Y-3.1
X4.25Y-3.35
X4.25Y-3.6
X4.25Y-3.85
X4.25Y-4.1
X4.49Y-1.54
X4.5Y-1.85
X4.52Y-3.46
X4.55Y-2.15
X4.55Y-2.35
X4.55Y-2.6
X4.55Y-3.9
X4.55Y-4.1
X4.56Y-3.32
X4.6Y-2.7715
X4.6Y-2.9
X4.6Y-3.05
X4.6Y-3.4
X4.7Y-1.85
X4.7Y-3.2
X4.75Y-1.1
X4.75Y-1.35
X4.75Y-2.15
X4.75Y-2.35
X4.75Y-2.6
X4.75Y-3.9
X4.75Y-4.1
X4.83Y-3.75
X4.87Y-3.4
X4.9Y-3.58
X4.95Y-3.9
X4.95Y-4.1
X5.05Y-1.8
X5.14Y-3.12
X5.16Y-2.56
X5.25Y-1.1
X5.25Y-3.35
X5.26Y-3.61
X5.3Y-2.85
X5.3Y-3.0
X5.4Y-3.35
X5.47Y-1.35
X5.47Y-1.6
X5.47Y-2.1
X5.47Y-2.43
T2
X4.5365Y-3.6506
X4.5365Y-3.7294
X4.6152Y-3.6506
X4.6152Y-3.7294
X4.6939Y-3.6506
X4.6939Y-3.7294
T3
X4.44Y-1.94
X4.44Y-2.04
X4.44Y-2.14
X4.44Y-2.24
X4.44Y-2.34
X4.44Y-2.44
X4.44Y-2.54
X4.44Y-2.64
X4.44Y-2.74
X4.44Y-2.84
X4.44Y-2.94
X4.44Y-3.04
X4.44Y-3.14
X4.44Y-3.24
X4.44Y-3.34
X4.44Y-3.44
X4.44Y-3.54
X4.44Y-3.64
X4.44Y-3.74
X4.44Y-3.84
X4.44Y-3.94
X4.44Y-4.04
X4.44Y-4.14
X4.44Y-4.24
X5.04Y-1.94
X5.04Y-2.04
X5.04Y-2.14
X5.04Y-2.24
X5.04Y-2.34
X5.04Y-2.44
X5.04Y-2.54
X5.04Y-2.64
X5.04Y-2.74
X5.04Y-2.84
X5.04Y-2.94
X5.04Y-3.04
X5.04Y-3.14
X5.04Y-3.24
X5.04Y-3.34
X5.04Y-3.44
X5.04Y-3.54
X5.04Y-3.64
X5.04Y-3.74
X5.04Y-3.84
X5.04Y-3.94
X5.04Y-4.04
X5.04Y-4.14
X5.04Y-4.24
T4
X3.84Y-3.705
X3.94Y-3.705
X4.04Y-3.705
T5
X3.06Y-1.2374
X3.06Y-1.3374
X3.06Y-1.6374
X3.06Y-1.7374
X3.06Y-1.8374
X3.06Y-1.9374
X3.06Y-2.0374
X3.06Y-2.3174
X3.06Y-2.4174
X3.06Y-3.44
X3.06Y-3.54
X3.06Y-3.64
X3.06Y-3.74
X3.96Y-1.26
X3.96Y-1.36
X3.96Y-1.46
X3.96Y-1.72
X3.96Y-1.82
X3.96Y-1.92
X4.56Y-1.58
X4.61Y-1.48
X4.66Y-1.58
X4.71Y-1.48
X4.76Y-1.58
X4.81Y-1.48
X4.86Y-1.58
X4.91Y-1.48
X5.6Y-2.6
X5.6Y-2.7
X5.6Y-2.8
X5.6Y-2.9
X5.6Y-3.0
X5.6Y-3.1
X5.6Y-3.46
X5.6Y-3.56
X5.6Y-3.66
X5.6Y-3.76
X5.6Y-3.86
X5.61Y-1.3725
X5.61Y-1.4725
X5.61Y-1.76
X5.61Y-1.86
X5.61Y-2.15
X5.61Y-2.25
T6
X4.486Y-1.1005
X4.586Y-1.03
X4.884Y-1.1005
X4.984Y-1.03
T7
X4.425Y-1.3501
X5.045Y-1.3501
T9
X4.51Y-1.23
X4.96Y-1.23
T8
G00X3.6774Y-2.7437
M15
G01X3.6774Y-2.8263
M16
G05
G00X3.6774Y-3.0537
M15
G01X3.6774Y-3.1363
M16
G05
M30
