%TF.GenerationSoftware,KiCad,Pcbnew,8.0.5*%
%TF.CreationDate,2025-03-17T23:02:10-05:00*%
%TF.ProjectId,Raman_Spectrometer_Board,52616d61-6e5f-4537-9065-6374726f6d65,rev?*%
%TF.SameCoordinates,Original*%
%TF.FileFunction,Soldermask,Bot*%
%TF.FilePolarity,Negative*%
%FSLAX46Y46*%
G04 Gerber Fmt 4.6, Leading zero omitted, Abs format (unit mm)*
G04 Created by KiCad (PCBNEW 8.0.5) date 2025-03-17 23:02:10*
%MOMM*%
%LPD*%
G01*
G04 APERTURE LIST*
%ADD10C,1.524000*%
%ADD11C,1.308000*%
%ADD12C,1.208000*%
%ADD13C,2.946400*%
%ADD14C,1.100000*%
%ADD15C,1.400000*%
%ADD16C,4.000000*%
%ADD17C,2.000000*%
%ADD18O,3.000000X5.100000*%
G04 APERTURE END LIST*
D10*
%TO.C,Conn12*%
X100584000Y-43688000D03*
X100584000Y-46228000D03*
X100584000Y-48768000D03*
%TD*%
%TO.C,Conn8*%
X142494000Y-34861500D03*
X142494000Y-37401500D03*
%TD*%
D11*
%TO.C,U1*%
X128016000Y-105156000D03*
X128016000Y-102616000D03*
X128016000Y-100076000D03*
X128016000Y-97536000D03*
X128016000Y-72136000D03*
X112776000Y-102616000D03*
X128016000Y-94996000D03*
X128016000Y-92456000D03*
X128016000Y-89916000D03*
X128016000Y-87376000D03*
X128016000Y-84836000D03*
X128016000Y-82296000D03*
X128016000Y-79756000D03*
X128016000Y-77216000D03*
X128016000Y-74676000D03*
X112776000Y-74676000D03*
X112776000Y-77216000D03*
X112776000Y-79756000D03*
X112776000Y-82296000D03*
X112776000Y-84836000D03*
X112776000Y-87376000D03*
X112776000Y-89916000D03*
X112776000Y-92456000D03*
X112776000Y-94996000D03*
X112776000Y-97536000D03*
X112776000Y-100076000D03*
X128016000Y-69596000D03*
X128016000Y-67056000D03*
X128016000Y-64516000D03*
X128016000Y-61976000D03*
X128016000Y-59436000D03*
X128016000Y-56896000D03*
X128016000Y-54356000D03*
X128016000Y-51816000D03*
X128016000Y-49276000D03*
X112776000Y-49276000D03*
X112776000Y-51816000D03*
X112776000Y-54356000D03*
X112776000Y-56896000D03*
X112776000Y-59436000D03*
X112776000Y-61976000D03*
X112776000Y-64516000D03*
X112776000Y-67056000D03*
X112776000Y-69596000D03*
X128016000Y-107696000D03*
X112776000Y-72136000D03*
X112776000Y-105156000D03*
D12*
X117226000Y-92726000D03*
X117226000Y-94726000D03*
X115226000Y-94726000D03*
X115226000Y-92726000D03*
X119226000Y-92726000D03*
X119226000Y-94726000D03*
D11*
X112776000Y-107696000D03*
%TD*%
D13*
%TO.C,H3*%
X142748000Y-23114000D03*
%TD*%
%TO.C,H4*%
X142748000Y-112014000D03*
%TD*%
D10*
%TO.C,Conn3*%
X77724000Y-31430000D03*
X77724000Y-33970000D03*
%TD*%
%TO.C,Conn7*%
X77724000Y-87376000D03*
X77724000Y-89916000D03*
X77724000Y-92456000D03*
X77724000Y-94996000D03*
%TD*%
D13*
%TO.C,H1*%
X79248000Y-23114000D03*
%TD*%
D10*
%TO.C,Conn2*%
X142240000Y-66040000D03*
X142240000Y-68580000D03*
X142240000Y-71120000D03*
X142240000Y-73660000D03*
X142240000Y-76200000D03*
X142240000Y-78740000D03*
%TD*%
%TO.C,Conn4*%
X77724000Y-58862000D03*
X77724000Y-61402000D03*
%TD*%
D14*
%TO.C,J1*%
X124714000Y-37592000D03*
X123444000Y-40132000D03*
X122174000Y-37592000D03*
X120904000Y-40132000D03*
X119634000Y-37592000D03*
X118364000Y-40132000D03*
X117094000Y-37592000D03*
X115824000Y-40132000D03*
D15*
X126594000Y-26162000D03*
X124054000Y-27952000D03*
X116484000Y-26162000D03*
X113944000Y-27952000D03*
D16*
X125984000Y-31242000D03*
X114554000Y-31242000D03*
D17*
X128144000Y-34292000D03*
X112394000Y-34292000D03*
%TD*%
D10*
%TO.C,Conn5*%
X77724000Y-41590000D03*
X77724000Y-44130000D03*
X77724000Y-46670000D03*
X77724000Y-49210000D03*
X77724000Y-51750000D03*
%TD*%
%TO.C,U2*%
X97536000Y-94107000D03*
X100076000Y-94107000D03*
X102616000Y-94107000D03*
%TD*%
%TO.C,Conn6*%
X142240000Y-87884000D03*
X142240000Y-90424000D03*
X142240000Y-92964000D03*
X142240000Y-95504000D03*
X142240000Y-98044000D03*
%TD*%
%TO.C,Conn9*%
X142494000Y-44704000D03*
X142494000Y-47244000D03*
%TD*%
%TO.C,Conn11*%
X100584000Y-32004000D03*
X100584000Y-34544000D03*
X100584000Y-37084000D03*
%TD*%
D18*
%TO.C,Conn1*%
X93407200Y-70739000D03*
X93407200Y-78613000D03*
%TD*%
D10*
%TO.C,Conn10*%
X142494000Y-54610000D03*
X142494000Y-57150000D03*
%TD*%
D13*
%TO.C,H2*%
X79248000Y-112014000D03*
%TD*%
M02*
