%TF.GenerationSoftware,KiCad,Pcbnew,8.0.5*%
%TF.CreationDate,2025-03-17T23:02:10-05:00*%
%TF.ProjectId,Raman_Spectrometer_Board,52616d61-6e5f-4537-9065-6374726f6d65,rev?*%
%TF.SameCoordinates,Original*%
%TF.FileFunction,Copper,L2,Bot*%
%TF.FilePolarity,Positive*%
%FSLAX46Y46*%
G04 Gerber Fmt 4.6, Leading zero omitted, Abs format (unit mm)*
G04 Created by KiCad (PCBNEW 8.0.5) date 2025-03-17 23:02:10*
%MOMM*%
%LPD*%
G01*
G04 APERTURE LIST*
%TA.AperFunction,ComponentPad*%
%ADD10C,1.524000*%
%TD*%
%TA.AperFunction,ComponentPad*%
%ADD11C,1.308000*%
%TD*%
%TA.AperFunction,ComponentPad*%
%ADD12C,1.208000*%
%TD*%
%TA.AperFunction,ComponentPad*%
%ADD13C,1.100000*%
%TD*%
%TA.AperFunction,ComponentPad*%
%ADD14C,1.400000*%
%TD*%
%TA.AperFunction,ComponentPad*%
%ADD15C,4.000000*%
%TD*%
%TA.AperFunction,ComponentPad*%
%ADD16C,2.000000*%
%TD*%
%TA.AperFunction,ComponentPad*%
%ADD17O,3.000000X5.100000*%
%TD*%
%TA.AperFunction,ViaPad*%
%ADD18C,0.800000*%
%TD*%
%TA.AperFunction,Conductor*%
%ADD19C,0.508000*%
%TD*%
%TA.AperFunction,Conductor*%
%ADD20C,0.250000*%
%TD*%
%TA.AperFunction,Conductor*%
%ADD21C,0.254000*%
%TD*%
G04 APERTURE END LIST*
D10*
%TO.P,Conn12,1*%
%TO.N,+5V*%
X100584000Y-43688000D03*
%TO.P,Conn12,2*%
%TO.N,GimbalPWM_B*%
X100584000Y-46228000D03*
%TO.P,Conn12,3*%
%TO.N,GND*%
X100584000Y-48768000D03*
%TD*%
%TO.P,Conn8,1*%
%TO.N,+3.3V*%
X142494000Y-34861500D03*
%TO.P,Conn8,2*%
%TO.N,Limit Switch 1*%
X142494000Y-37401500D03*
%TD*%
D11*
%TO.P,U1,0,RX1*%
%TO.N,unconnected-(U1-RX1-Pad0)*%
X128016000Y-105156000D03*
%TO.P,U1,1,TX1*%
%TO.N,unconnected-(U1-TX1-Pad1)*%
X128016000Y-102616000D03*
%TO.P,U1,2,OUT2*%
%TO.N,unconnected-(U1-OUT2-Pad2)*%
X128016000Y-100076000D03*
%TO.P,U1,3,LRCLK2*%
%TO.N,SEL*%
X128016000Y-97536000D03*
%TO.P,U1,3.3V_1,3.3V*%
%TO.N,+3.3V*%
X128016000Y-72136000D03*
%TO.P,U1,3.3V_2,3.3V*%
X112776000Y-102616000D03*
%TO.P,U1,4,BCLK2*%
%TO.N,IN_A*%
X128016000Y-94996000D03*
%TO.P,U1,5,IN2*%
%TO.N,unconnected-(U1-IN2-Pad5)*%
X128016000Y-92456000D03*
%TO.P,U1,6,OUT1D*%
%TO.N,PWM*%
X128016000Y-89916000D03*
%TO.P,U1,7,RX2*%
%TO.N,IN_B*%
X128016000Y-87376000D03*
%TO.P,U1,8,TX2*%
%TO.N,unconnected-(U1-TX2-Pad8)*%
X128016000Y-84836000D03*
%TO.P,U1,9,OUT1C*%
%TO.N,FAN_OUT*%
X128016000Y-82296000D03*
%TO.P,U1,10,CS1*%
%TO.N,unconnected-(U1-CS1-Pad10)*%
X128016000Y-79756000D03*
%TO.P,U1,11,MOSI*%
%TO.N,unconnected-(U1-MOSI-Pad11)*%
X128016000Y-77216000D03*
%TO.P,U1,12,MISO*%
%TO.N,unconnected-(U1-MISO-Pad12)*%
X128016000Y-74676000D03*
%TO.P,U1,13,SCK*%
%TO.N,unconnected-(U1-SCK-Pad13)*%
X112776000Y-74676000D03*
%TO.P,U1,14,A0*%
%TO.N,unconnected-(U1-A0-Pad14)*%
X112776000Y-77216000D03*
%TO.P,U1,15,A1*%
%TO.N,unconnected-(U1-A1-Pad15)*%
X112776000Y-79756000D03*
%TO.P,U1,16,A2*%
%TO.N,unconnected-(U1-A2-Pad16)*%
X112776000Y-82296000D03*
%TO.P,U1,17,A3*%
%TO.N,GPIO*%
X112776000Y-84836000D03*
%TO.P,U1,18,A4*%
%TO.N,SDA*%
X112776000Y-87376000D03*
%TO.P,U1,19,A5*%
%TO.N,SCL*%
X112776000Y-89916000D03*
%TO.P,U1,20,A6*%
%TO.N,CS*%
X112776000Y-92456000D03*
%TO.P,U1,21,A7*%
%TO.N,unconnected-(U1-A7-Pad21)*%
X112776000Y-94996000D03*
%TO.P,U1,22,A8*%
%TO.N,Encoder A*%
X112776000Y-97536000D03*
%TO.P,U1,23,A9*%
%TO.N,Encoder B*%
X112776000Y-100076000D03*
%TO.P,U1,24,A10*%
%TO.N,CCD_ROG_3.3V*%
X128016000Y-69596000D03*
%TO.P,U1,25,A11*%
%TO.N,CLD_CLK_3.3V*%
X128016000Y-67056000D03*
%TO.P,U1,26,A12*%
%TO.N,unconnected-(U1-A12-Pad26)*%
X128016000Y-64516000D03*
%TO.P,U1,27,A13*%
%TO.N,unconnected-(U1-A13-Pad27)*%
X128016000Y-61976000D03*
%TO.P,U1,28,RX7*%
%TO.N,Limit Switch 3*%
X128016000Y-59436000D03*
%TO.P,U1,29,TX7*%
%TO.N,Limit Switch 2*%
X128016000Y-56896000D03*
%TO.P,U1,30,CRX3*%
%TO.N,Limit Switch 1*%
X128016000Y-54356000D03*
%TO.P,U1,31,CTX3*%
%TO.N,unconnected-(U1-CTX3-Pad31)*%
X128016000Y-51816000D03*
%TO.P,U1,32,OUT1B*%
%TO.N,unconnected-(U1-OUT1B-Pad32)*%
X128016000Y-49276000D03*
%TO.P,U1,33,MCLK2*%
%TO.N,Green_Laser_3.3V*%
X112776000Y-49276000D03*
%TO.P,U1,34,RX8*%
%TO.N,CCD_Vout*%
X112776000Y-51816000D03*
%TO.P,U1,35,TX8*%
%TO.N,unconnected-(U1-TX8-Pad35)*%
X112776000Y-54356000D03*
%TO.P,U1,36,CS2*%
%TO.N,GimbalPWM_A*%
X112776000Y-56896000D03*
%TO.P,U1,37,CS3*%
%TO.N,GimbalPWM_B*%
X112776000Y-59436000D03*
%TO.P,U1,38,A14*%
%TO.N,unconnected-(U1-A14-Pad38)*%
X112776000Y-61976000D03*
%TO.P,U1,39,A15*%
%TO.N,unconnected-(U1-A15-Pad39)*%
X112776000Y-64516000D03*
%TO.P,U1,40,A16*%
%TO.N,SW1*%
X112776000Y-67056000D03*
%TO.P,U1,41,A17*%
%TO.N,SW2*%
X112776000Y-69596000D03*
%TO.P,U1,GND1,GND*%
%TO.N,GND*%
X128016000Y-107696000D03*
%TO.P,U1,GND2,GND*%
X112776000Y-72136000D03*
%TO.P,U1,GND3,GND*%
X112776000Y-105156000D03*
D12*
%TO.P,U1,GND5,GND*%
X117226000Y-92726000D03*
%TO.P,U1,LED,LED*%
%TO.N,LED*%
X117226000Y-94726000D03*
%TO.P,U1,R+,R+*%
%TO.N,R+*%
X115226000Y-94726000D03*
%TO.P,U1,R-,R-*%
%TO.N,R-*%
X115226000Y-92726000D03*
%TO.P,U1,T+,T+*%
%TO.N,T+*%
X119226000Y-92726000D03*
%TO.P,U1,T-,T-*%
%TO.N,T-*%
X119226000Y-94726000D03*
D11*
%TO.P,U1,VIN,VIN*%
%TO.N,+5V*%
X112776000Y-107696000D03*
%TD*%
D10*
%TO.P,Conn3,1*%
%TO.N,Net-(Q1-D)*%
X77724000Y-31430000D03*
%TO.P,Conn3,2*%
%TO.N,+12V*%
X77724000Y-33970000D03*
%TD*%
%TO.P,Conn7,1*%
%TO.N,+5V*%
X77724000Y-87376000D03*
%TO.P,Conn7,2*%
%TO.N,Encoder A*%
X77724000Y-89916000D03*
%TO.P,Conn7,3*%
%TO.N,Encoder B*%
X77724000Y-92456000D03*
%TO.P,Conn7,4*%
%TO.N,GND*%
X77724000Y-94996000D03*
%TD*%
%TO.P,Conn2,1*%
%TO.N,+3.3V*%
X142240000Y-66040000D03*
%TO.P,Conn2,2*%
%TO.N,GND*%
X142240000Y-68580000D03*
%TO.P,Conn2,3*%
%TO.N,SCL*%
X142240000Y-71120000D03*
%TO.P,Conn2,4*%
%TO.N,SDA*%
X142240000Y-73660000D03*
%TO.P,Conn2,5*%
%TO.N,GPIO*%
X142240000Y-76200000D03*
%TO.P,Conn2,6*%
%TO.N,+3.3V*%
X142240000Y-78740000D03*
%TD*%
%TO.P,Conn4,1*%
%TO.N,Net-(Q2-D)*%
X77724000Y-58862000D03*
%TO.P,Conn4,2*%
%TO.N,+5V*%
X77724000Y-61402000D03*
%TD*%
D13*
%TO.P,J1,1*%
%TO.N,T+*%
X124714000Y-37592000D03*
%TO.P,J1,2*%
%TO.N,Net-(C3-Pad1)*%
X123444000Y-40132000D03*
%TO.P,J1,3*%
%TO.N,T-*%
X122174000Y-37592000D03*
%TO.P,J1,4*%
%TO.N,R+*%
X120904000Y-40132000D03*
%TO.P,J1,5*%
%TO.N,Net-(C3-Pad1)*%
X119634000Y-37592000D03*
%TO.P,J1,6*%
%TO.N,R-*%
X118364000Y-40132000D03*
%TO.P,J1,7*%
%TO.N,unconnected-(J1-Pad7)*%
X117094000Y-37592000D03*
%TO.P,J1,8*%
%TO.N,GND*%
X115824000Y-40132000D03*
D14*
%TO.P,J1,9*%
X126594000Y-26162000D03*
%TO.P,J1,10*%
%TO.N,LED*%
X124054000Y-27952000D03*
%TO.P,J1,11*%
%TO.N,unconnected-(J1-Pad11)*%
X116484000Y-26162000D03*
%TO.P,J1,12*%
%TO.N,unconnected-(J1-Pad12)*%
X113944000Y-27952000D03*
D15*
%TO.P,J1,13*%
%TO.N,N/C*%
X125984000Y-31242000D03*
%TO.P,J1,14*%
X114554000Y-31242000D03*
D16*
%TO.P,J1,SH*%
%TO.N,GND*%
X128144000Y-34292000D03*
X112394000Y-34292000D03*
%TD*%
D10*
%TO.P,Conn5,1*%
%TO.N,+5V*%
X77724000Y-41590000D03*
%TO.P,Conn5,2*%
%TO.N,CCD_CLK_5V*%
X77724000Y-44130000D03*
%TO.P,Conn5,3*%
%TO.N,CCD_ROG_5V*%
X77724000Y-46670000D03*
%TO.P,Conn5,4*%
%TO.N,CCD_Vout*%
X77724000Y-49210000D03*
%TO.P,Conn5,5*%
%TO.N,GND*%
X77724000Y-51750000D03*
%TD*%
%TO.P,U2,1,Vi*%
%TO.N,+12V*%
X97536000Y-94107000D03*
%TO.P,U2,2,GND*%
%TO.N,GND*%
X100076000Y-94107000D03*
%TO.P,U2,3,Vo*%
%TO.N,+5V*%
X102616000Y-94107000D03*
%TD*%
%TO.P,Conn6,1*%
%TO.N,IN_B*%
X142240000Y-87884000D03*
%TO.P,Conn6,2*%
%TO.N,PWM*%
X142240000Y-90424000D03*
%TO.P,Conn6,3*%
%TO.N,CS*%
X142240000Y-92964000D03*
%TO.P,Conn6,4*%
%TO.N,IN_A*%
X142240000Y-95504000D03*
%TO.P,Conn6,5*%
%TO.N,SEL*%
X142240000Y-98044000D03*
%TD*%
%TO.P,Conn9,1*%
%TO.N,+3.3V*%
X142494000Y-44704000D03*
%TO.P,Conn9,2*%
%TO.N,Limit Switch 2*%
X142494000Y-47244000D03*
%TD*%
%TO.P,Conn11,1*%
%TO.N,+5V*%
X100584000Y-32004000D03*
%TO.P,Conn11,2*%
%TO.N,GimbalPWM_A*%
X100584000Y-34544000D03*
%TO.P,Conn11,3*%
%TO.N,GND*%
X100584000Y-37084000D03*
%TD*%
D17*
%TO.P,Conn1,1,GND*%
%TO.N,GND*%
X93407200Y-70739000D03*
%TO.P,Conn1,4,PV+*%
%TO.N,+12V*%
X93407200Y-78613000D03*
%TD*%
D10*
%TO.P,Conn10,1*%
%TO.N,+3.3V*%
X142494000Y-54610000D03*
%TO.P,Conn10,2*%
%TO.N,Limit Switch 3*%
X142494000Y-57150000D03*
%TD*%
D18*
%TO.N,GND*%
X85344000Y-62484000D03*
X84328000Y-101092000D03*
X120650000Y-66040000D03*
X134620000Y-72390000D03*
X125730000Y-99060000D03*
X116840000Y-86360000D03*
X119380000Y-46990000D03*
X88900000Y-66040000D03*
X120650000Y-54610000D03*
X107188000Y-50292000D03*
X101600000Y-97790000D03*
X107950000Y-78740000D03*
X101600000Y-66040000D03*
X124460000Y-90932000D03*
X95250000Y-85090000D03*
X114300000Y-46990000D03*
X82550000Y-54610000D03*
X138938000Y-61722000D03*
X107950000Y-72390000D03*
X95250000Y-34290000D03*
X120650000Y-27940000D03*
X82550000Y-85090000D03*
X101600000Y-40640000D03*
X105156000Y-40640000D03*
X101600000Y-27940000D03*
X101600000Y-104140000D03*
X115570000Y-99060000D03*
X138938000Y-53340000D03*
X133350000Y-85090000D03*
X90678000Y-46990000D03*
X131064000Y-65024000D03*
X82550000Y-66040000D03*
X88392000Y-42164000D03*
X82550000Y-27940000D03*
X97790000Y-46990000D03*
X115570000Y-66040000D03*
X88900000Y-72390000D03*
X85344000Y-34544000D03*
X133604000Y-91694000D03*
X120650000Y-59690000D03*
X97536000Y-42672000D03*
X106680000Y-27940000D03*
X95250000Y-58420000D03*
X138938000Y-40640000D03*
X133350000Y-27940000D03*
X95250000Y-27940000D03*
X120650000Y-104140000D03*
X95250000Y-104140000D03*
X107950000Y-91440000D03*
X82804000Y-37592000D03*
X101600000Y-72390000D03*
X138938000Y-34290000D03*
X115570000Y-104140000D03*
X82550000Y-78740000D03*
X120650000Y-34290000D03*
X137160000Y-85090000D03*
X128270000Y-45720000D03*
X85598000Y-46736000D03*
X101600000Y-78740000D03*
X134620000Y-76200000D03*
X107950000Y-66040000D03*
X107950000Y-85090000D03*
X81026000Y-42164000D03*
X125730000Y-104140000D03*
X122682000Y-95250000D03*
X107950000Y-104140000D03*
X107950000Y-97790000D03*
X78740000Y-72390000D03*
X116840000Y-77470000D03*
X104140000Y-30988000D03*
X115570000Y-59690000D03*
X119380000Y-81280000D03*
X107950000Y-60960000D03*
X88900000Y-54610000D03*
X101600000Y-58420000D03*
X95250000Y-97790000D03*
X101600000Y-85090000D03*
X97790000Y-49530000D03*
X115570000Y-54610000D03*
X88900000Y-27940000D03*
X88900000Y-85090000D03*
X116840000Y-73660000D03*
X130556000Y-79248000D03*
X123698000Y-86360000D03*
X95250000Y-66040000D03*
X82550000Y-97790000D03*
X120650000Y-99060000D03*
%TO.N,+5V*%
X93472000Y-91948000D03*
X91694000Y-97282000D03*
X91623500Y-105085500D03*
X102616000Y-100584000D03*
%TO.N,Net-(C3-Pad1)*%
X114046000Y-39116000D03*
%TO.N,CCD_CLK_5V*%
X87376000Y-46228000D03*
%TO.N,Green_Laser_3.3V*%
X91186000Y-32258000D03*
%TO.N,FAN_OUT*%
X105410000Y-86106000D03*
%TO.N,CCD_ROG_3.3V*%
X116840000Y-70395000D03*
%TO.N,CLD_CLK_3.3V*%
X93763000Y-50292000D03*
%TO.N,GimbalPWM_A*%
X105918000Y-54610000D03*
%TO.N,SDA*%
X115824000Y-84328000D03*
%TO.N,SCL*%
X114808000Y-87884000D03*
%TO.N,GimbalPWM_B*%
X107696000Y-57658000D03*
%TD*%
D19*
%TO.N,+12V*%
X75946000Y-65278000D02*
X75946000Y-35748000D01*
X93407200Y-78613000D02*
X89281000Y-78613000D01*
X75946000Y-35748000D02*
X77724000Y-33970000D01*
X89281000Y-78613000D02*
X75946000Y-65278000D01*
D20*
%TO.N,+5V*%
X104140000Y-107696000D02*
X102616000Y-106172000D01*
X102616000Y-94107000D02*
X102616000Y-92964000D01*
X91694000Y-105015000D02*
X91623500Y-105085500D01*
X102616000Y-106172000D02*
X102616000Y-100584000D01*
X91694000Y-97282000D02*
X91694000Y-105015000D01*
X93980000Y-91948000D02*
X93472000Y-91948000D01*
X102616000Y-92964000D02*
X101600000Y-91948000D01*
X101600000Y-91948000D02*
X93980000Y-91948000D01*
X112776000Y-107696000D02*
X104140000Y-107696000D01*
%TO.N,Net-(C3-Pad1)*%
X120904000Y-38735000D02*
X114427000Y-38735000D01*
X120777000Y-38735000D02*
X119634000Y-37592000D01*
D21*
X121666000Y-38735000D02*
X123063000Y-40132000D01*
X120904000Y-38735000D02*
X121666000Y-38735000D01*
X120777000Y-38735000D02*
X120904000Y-38735000D01*
X123063000Y-40132000D02*
X123444000Y-40132000D01*
D20*
X114427000Y-38735000D02*
X114046000Y-39116000D01*
%TO.N,CCD_CLK_5V*%
X87376000Y-46228000D02*
X85278000Y-44130000D01*
X85278000Y-44130000D02*
X77724000Y-44130000D01*
%TO.N,CCD_Vout*%
X112776000Y-51816000D02*
X96774000Y-51816000D01*
X93980000Y-49022000D02*
X77912000Y-49022000D01*
X77912000Y-49022000D02*
X77724000Y-49210000D01*
X96774000Y-51816000D02*
X93980000Y-49022000D01*
%TO.N,CS*%
X142240000Y-92964000D02*
X130556000Y-92964000D01*
X123444000Y-93472000D02*
X121412000Y-91440000D01*
X130048000Y-93472000D02*
X123444000Y-93472000D01*
X121412000Y-91440000D02*
X113792000Y-91440000D01*
X130556000Y-92964000D02*
X130048000Y-93472000D01*
X113792000Y-91440000D02*
X112776000Y-92456000D01*
%TO.N,Encoder B*%
X108966000Y-96266000D02*
X81534000Y-96266000D01*
X81534000Y-96266000D02*
X77724000Y-92456000D01*
X112776000Y-100076000D02*
X108966000Y-96266000D01*
%TO.N,Encoder A*%
X110744000Y-95504000D02*
X83312000Y-95504000D01*
X83312000Y-95504000D02*
X77724000Y-89916000D01*
X112776000Y-97536000D02*
X110744000Y-95504000D01*
%TO.N,Green_Laser_3.3V*%
X107188000Y-30988000D02*
X107188000Y-47244000D01*
X91186000Y-32258000D02*
X94234000Y-29210000D01*
X94234000Y-29210000D02*
X105410000Y-29210000D01*
X107188000Y-47244000D02*
X109220000Y-49276000D01*
X109220000Y-49276000D02*
X112776000Y-49276000D01*
X105410000Y-29210000D02*
X107188000Y-30988000D01*
%TO.N,FAN_OUT*%
X105410000Y-86106000D02*
X107950000Y-88646000D01*
X107950000Y-88646000D02*
X124968000Y-88646000D01*
X124968000Y-88646000D02*
X125984000Y-87630000D01*
X125984000Y-87630000D02*
X125984000Y-84328000D01*
X125984000Y-84328000D02*
X128016000Y-82296000D01*
%TO.N,CCD_ROG_3.3V*%
X116840000Y-70395000D02*
X127217000Y-70395000D01*
X127217000Y-70395000D02*
X128016000Y-69596000D01*
%TO.N,CLD_CLK_3.3V*%
X123190000Y-53086000D02*
X124968000Y-54864000D01*
X124968000Y-65532000D02*
X126492000Y-67056000D01*
X126492000Y-67056000D02*
X128016000Y-67056000D01*
X124968000Y-54864000D02*
X124968000Y-65532000D01*
X96557000Y-53086000D02*
X123190000Y-53086000D01*
X93763000Y-50292000D02*
X96557000Y-53086000D01*
%TO.N,GimbalPWM_A*%
X108204000Y-56896000D02*
X112776000Y-56896000D01*
X105918000Y-54610000D02*
X108204000Y-56896000D01*
%TO.N,SDA*%
X115824000Y-80772000D02*
X122936000Y-73660000D01*
X115824000Y-84328000D02*
X115824000Y-80772000D01*
X122936000Y-73660000D02*
X142240000Y-73660000D01*
%TO.N,GPIO*%
X144018000Y-65532000D02*
X144018000Y-74422000D01*
X114300000Y-71628000D02*
X117348000Y-68580000D01*
X134620000Y-64008000D02*
X142494000Y-64008000D01*
X117348000Y-68580000D02*
X130048000Y-68580000D01*
X144018000Y-74422000D02*
X142240000Y-76200000D01*
X112776000Y-84836000D02*
X114300000Y-83312000D01*
X142494000Y-64008000D02*
X144018000Y-65532000D01*
X130048000Y-68580000D02*
X134620000Y-64008000D01*
X114300000Y-83312000D02*
X114300000Y-71628000D01*
%TO.N,SCL*%
X114808000Y-72644000D02*
X116332000Y-71120000D01*
X114808000Y-87884000D02*
X114808000Y-72644000D01*
X116332000Y-71120000D02*
X142240000Y-71120000D01*
%TO.N,GimbalPWM_B*%
X109474000Y-59436000D02*
X112776000Y-59436000D01*
X107696000Y-57658000D02*
X109474000Y-59436000D01*
%TD*%
%TA.AperFunction,Conductor*%
%TO.N,GND*%
G36*
X141687335Y-19069685D02*
G01*
X141733090Y-19122489D01*
X141743034Y-19191647D01*
X141714009Y-19255203D01*
X141656292Y-19292660D01*
X141568713Y-19319226D01*
X141407680Y-19368075D01*
X141046972Y-19517487D01*
X141046967Y-19517489D01*
X140702657Y-19701527D01*
X140702639Y-19701538D01*
X140378023Y-19918439D01*
X140378009Y-19918449D01*
X140076202Y-20166136D01*
X139800136Y-20442202D01*
X139552449Y-20744009D01*
X139552439Y-20744023D01*
X139335538Y-21068639D01*
X139335527Y-21068657D01*
X139151489Y-21412967D01*
X139151487Y-21412972D01*
X139002075Y-21773680D01*
X138888735Y-22147314D01*
X138888732Y-22147325D01*
X138812568Y-22530234D01*
X138774300Y-22918788D01*
X138774300Y-23309211D01*
X138812568Y-23697765D01*
X138888732Y-24080674D01*
X138888735Y-24080685D01*
X139002075Y-24454319D01*
X139151487Y-24815027D01*
X139151489Y-24815032D01*
X139335527Y-25159342D01*
X139335538Y-25159360D01*
X139552439Y-25483976D01*
X139552449Y-25483990D01*
X139800136Y-25785797D01*
X140076202Y-26061863D01*
X140076207Y-26061867D01*
X140076208Y-26061868D01*
X140378015Y-26309555D01*
X140702646Y-26526466D01*
X140702655Y-26526471D01*
X140702657Y-26526472D01*
X141046967Y-26710510D01*
X141046969Y-26710510D01*
X141046975Y-26710514D01*
X141244621Y-26792382D01*
X141407680Y-26859924D01*
X141407684Y-26859925D01*
X141407686Y-26859926D01*
X141781305Y-26973262D01*
X141781311Y-26973263D01*
X141781314Y-26973264D01*
X141781325Y-26973267D01*
X142164234Y-27049431D01*
X142552785Y-27087700D01*
X142552788Y-27087700D01*
X142943212Y-27087700D01*
X142943215Y-27087700D01*
X143331766Y-27049431D01*
X143406307Y-27034603D01*
X143714674Y-26973267D01*
X143714685Y-26973264D01*
X143714685Y-26973263D01*
X143714695Y-26973262D01*
X144088314Y-26859926D01*
X144449025Y-26710514D01*
X144793354Y-26526466D01*
X145117985Y-26309555D01*
X145419792Y-26061868D01*
X145695868Y-25785792D01*
X145943555Y-25483985D01*
X146160466Y-25159354D01*
X146344514Y-24815025D01*
X146493926Y-24454314D01*
X146523623Y-24356414D01*
X146561920Y-24297978D01*
X146625732Y-24269522D01*
X146694799Y-24280082D01*
X146747192Y-24326306D01*
X146766283Y-24392412D01*
X146766283Y-110735587D01*
X146746598Y-110802626D01*
X146693794Y-110848381D01*
X146624636Y-110858325D01*
X146561080Y-110829300D01*
X146523622Y-110771582D01*
X146493924Y-110673680D01*
X146435574Y-110532812D01*
X146344514Y-110312975D01*
X146160466Y-109968646D01*
X145943555Y-109644015D01*
X145695868Y-109342208D01*
X145695867Y-109342207D01*
X145695863Y-109342202D01*
X145419797Y-109066136D01*
X145117990Y-108818449D01*
X145117989Y-108818448D01*
X145117985Y-108818445D01*
X144793354Y-108601534D01*
X144793349Y-108601531D01*
X144793342Y-108601527D01*
X144449032Y-108417489D01*
X144449027Y-108417487D01*
X144088319Y-108268075D01*
X143714685Y-108154735D01*
X143714674Y-108154732D01*
X143331765Y-108078568D01*
X143039126Y-108049746D01*
X142943215Y-108040300D01*
X142552785Y-108040300D01*
X142464165Y-108049028D01*
X142164234Y-108078568D01*
X141781325Y-108154732D01*
X141781314Y-108154735D01*
X141407680Y-108268075D01*
X141046972Y-108417487D01*
X141046967Y-108417489D01*
X140702657Y-108601527D01*
X140702639Y-108601538D01*
X140378023Y-108818439D01*
X140378009Y-108818449D01*
X140076202Y-109066136D01*
X139800136Y-109342202D01*
X139552449Y-109644009D01*
X139552439Y-109644023D01*
X139335538Y-109968639D01*
X139335527Y-109968657D01*
X139151489Y-110312967D01*
X139151487Y-110312972D01*
X139002075Y-110673680D01*
X138888735Y-111047314D01*
X138888732Y-111047325D01*
X138812568Y-111430234D01*
X138774300Y-111818788D01*
X138774300Y-112209211D01*
X138812568Y-112597765D01*
X138888732Y-112980674D01*
X138888735Y-112980685D01*
X139002075Y-113354319D01*
X139151487Y-113715027D01*
X139151489Y-113715032D01*
X139335527Y-114059342D01*
X139335538Y-114059360D01*
X139552439Y-114383976D01*
X139552449Y-114383990D01*
X139800136Y-114685797D01*
X140076202Y-114961863D01*
X140076207Y-114961867D01*
X140076208Y-114961868D01*
X140378015Y-115209555D01*
X140702646Y-115426466D01*
X140702655Y-115426471D01*
X140702657Y-115426472D01*
X141046967Y-115610510D01*
X141046969Y-115610510D01*
X141046975Y-115610514D01*
X141266812Y-115701574D01*
X141407680Y-115759924D01*
X141407684Y-115759925D01*
X141407686Y-115759926D01*
X141503463Y-115788979D01*
X141561899Y-115827275D01*
X141590356Y-115891087D01*
X141579796Y-115960154D01*
X141533572Y-116012548D01*
X141467400Y-116031639D01*
X80634317Y-115999060D01*
X80567288Y-115979340D01*
X80521561Y-115926511D01*
X80511655Y-115857347D01*
X80540714Y-115793807D01*
X80586930Y-115760499D01*
X80588311Y-115759926D01*
X80588314Y-115759926D01*
X80949025Y-115610514D01*
X81293354Y-115426466D01*
X81617985Y-115209555D01*
X81919792Y-114961868D01*
X82195868Y-114685792D01*
X82443555Y-114383985D01*
X82660466Y-114059354D01*
X82844514Y-113715025D01*
X82993926Y-113354314D01*
X83107262Y-112980695D01*
X83107264Y-112980685D01*
X83107267Y-112980674D01*
X83183431Y-112597765D01*
X83221700Y-112209211D01*
X83221700Y-111818788D01*
X83183431Y-111430234D01*
X83107267Y-111047325D01*
X83107264Y-111047314D01*
X83107263Y-111047311D01*
X83107262Y-111047305D01*
X82993926Y-110673686D01*
X82844514Y-110312975D01*
X82660466Y-109968646D01*
X82443555Y-109644015D01*
X82195868Y-109342208D01*
X82195867Y-109342207D01*
X82195863Y-109342202D01*
X81919797Y-109066136D01*
X81617990Y-108818449D01*
X81617989Y-108818448D01*
X81617985Y-108818445D01*
X81293354Y-108601534D01*
X81293349Y-108601531D01*
X81293342Y-108601527D01*
X80949032Y-108417489D01*
X80949027Y-108417487D01*
X80588319Y-108268075D01*
X80214685Y-108154735D01*
X80214674Y-108154732D01*
X79831765Y-108078568D01*
X79539126Y-108049746D01*
X79443215Y-108040300D01*
X79052785Y-108040300D01*
X78964165Y-108049028D01*
X78664234Y-108078568D01*
X78281325Y-108154732D01*
X78281314Y-108154735D01*
X77907680Y-108268075D01*
X77546972Y-108417487D01*
X77546967Y-108417489D01*
X77202657Y-108601527D01*
X77202639Y-108601538D01*
X76878023Y-108818439D01*
X76878009Y-108818449D01*
X76576202Y-109066136D01*
X76300136Y-109342202D01*
X76052449Y-109644009D01*
X76052439Y-109644023D01*
X75835538Y-109968639D01*
X75835527Y-109968657D01*
X75651489Y-110312967D01*
X75651487Y-110312972D01*
X75502075Y-110673680D01*
X75454869Y-110829300D01*
X75446065Y-110858325D01*
X75426661Y-110922291D01*
X75388363Y-110980730D01*
X75324551Y-111009186D01*
X75255484Y-110998626D01*
X75203090Y-110952402D01*
X75184000Y-110886296D01*
X75184000Y-65882387D01*
X75203685Y-65815348D01*
X75256489Y-65769593D01*
X75325647Y-65759649D01*
X75389203Y-65788674D01*
X75395681Y-65794706D01*
X88690600Y-79089624D01*
X88690621Y-79089647D01*
X88800029Y-79199055D01*
X88800032Y-79199057D01*
X88800034Y-79199059D01*
X88882605Y-79254230D01*
X88923611Y-79281630D01*
X89004043Y-79314945D01*
X89004044Y-79314946D01*
X89027603Y-79324704D01*
X89060920Y-79338505D01*
X89060929Y-79338506D01*
X89060930Y-79338507D01*
X89085103Y-79343315D01*
X89085110Y-79343316D01*
X89206686Y-79367501D01*
X89206688Y-79367501D01*
X89361426Y-79367501D01*
X89361446Y-79367500D01*
X91282700Y-79367500D01*
X91349739Y-79387185D01*
X91395494Y-79439989D01*
X91406700Y-79491500D01*
X91406700Y-79794127D01*
X91432235Y-79988070D01*
X91440930Y-80054116D01*
X91473278Y-80174840D01*
X91508802Y-80307418D01*
X91508805Y-80307428D01*
X91609153Y-80549690D01*
X91609158Y-80549700D01*
X91740275Y-80776803D01*
X91899918Y-80984851D01*
X91899926Y-80984860D01*
X92085340Y-81170274D01*
X92085348Y-81170281D01*
X92293396Y-81329924D01*
X92520499Y-81461041D01*
X92520509Y-81461046D01*
X92762771Y-81561394D01*
X92762781Y-81561398D01*
X93016084Y-81629270D01*
X93276080Y-81663500D01*
X93276087Y-81663500D01*
X93538313Y-81663500D01*
X93538320Y-81663500D01*
X93798316Y-81629270D01*
X94051619Y-81561398D01*
X94293897Y-81461043D01*
X94521003Y-81329924D01*
X94729051Y-81170282D01*
X94729055Y-81170277D01*
X94729060Y-81170274D01*
X94914474Y-80984860D01*
X94914477Y-80984855D01*
X94914482Y-80984851D01*
X95074124Y-80776803D01*
X95205243Y-80549697D01*
X95305598Y-80307419D01*
X95373470Y-80054116D01*
X95407700Y-79794120D01*
X95407700Y-77431880D01*
X95373470Y-77171884D01*
X95305598Y-76918581D01*
X95270425Y-76833666D01*
X95205246Y-76676309D01*
X95205241Y-76676299D01*
X95074124Y-76449196D01*
X94914481Y-76241148D01*
X94914474Y-76241140D01*
X94729060Y-76055726D01*
X94729051Y-76055718D01*
X94521003Y-75896075D01*
X94293900Y-75764958D01*
X94293890Y-75764953D01*
X94051628Y-75664605D01*
X94051621Y-75664603D01*
X94051619Y-75664602D01*
X93798316Y-75596730D01*
X93740539Y-75589123D01*
X93538327Y-75562500D01*
X93538320Y-75562500D01*
X93276080Y-75562500D01*
X93276072Y-75562500D01*
X93064718Y-75590327D01*
X93016084Y-75596730D01*
X92856404Y-75639516D01*
X92762781Y-75664602D01*
X92762771Y-75664605D01*
X92520509Y-75764953D01*
X92520499Y-75764958D01*
X92293396Y-75896075D01*
X92085348Y-76055718D01*
X91899918Y-76241148D01*
X91740275Y-76449196D01*
X91609158Y-76676299D01*
X91609153Y-76676309D01*
X91508805Y-76918571D01*
X91508802Y-76918581D01*
X91441214Y-77170826D01*
X91440930Y-77171885D01*
X91406700Y-77431872D01*
X91406700Y-77734500D01*
X91387015Y-77801539D01*
X91334211Y-77847294D01*
X91282700Y-77858500D01*
X89644886Y-77858500D01*
X89577847Y-77838815D01*
X89557205Y-77822181D01*
X76736819Y-65001794D01*
X76703334Y-64940471D01*
X76700500Y-64914113D01*
X76700500Y-62463308D01*
X76720185Y-62396269D01*
X76772989Y-62350514D01*
X76842147Y-62340570D01*
X76905216Y-62369372D01*
X76905237Y-62369349D01*
X76905323Y-62369421D01*
X76905703Y-62369595D01*
X76907280Y-62371063D01*
X76909384Y-62372829D01*
X77090333Y-62499531D01*
X77090335Y-62499532D01*
X77090338Y-62499534D01*
X77290550Y-62592894D01*
X77503932Y-62650070D01*
X77661123Y-62663822D01*
X77723998Y-62669323D01*
X77724000Y-62669323D01*
X77724002Y-62669323D01*
X77779017Y-62664509D01*
X77944068Y-62650070D01*
X78157450Y-62592894D01*
X78357662Y-62499534D01*
X78538620Y-62372826D01*
X78694826Y-62216620D01*
X78821534Y-62035662D01*
X78914894Y-61835450D01*
X78972070Y-61622068D01*
X78991323Y-61402000D01*
X78972070Y-61181932D01*
X78914894Y-60968550D01*
X78821534Y-60768339D01*
X78749946Y-60666100D01*
X78694827Y-60587381D01*
X78658630Y-60551184D01*
X78538620Y-60431174D01*
X78538616Y-60431171D01*
X78538615Y-60431170D01*
X78357666Y-60304468D01*
X78357658Y-60304464D01*
X78228811Y-60244382D01*
X78176371Y-60198210D01*
X78157219Y-60131017D01*
X78177435Y-60064135D01*
X78228811Y-60019618D01*
X78234802Y-60016824D01*
X78357662Y-59959534D01*
X78538620Y-59832826D01*
X78694826Y-59676620D01*
X78821534Y-59495662D01*
X78914894Y-59295450D01*
X78972070Y-59082068D01*
X78991323Y-58862000D01*
X78986817Y-58810500D01*
X78972070Y-58641937D01*
X78972070Y-58641932D01*
X78914894Y-58428550D01*
X78821534Y-58228339D01*
X78749946Y-58126100D01*
X78694827Y-58047381D01*
X78658630Y-58011184D01*
X78538620Y-57891174D01*
X78538616Y-57891171D01*
X78538615Y-57891170D01*
X78357666Y-57764468D01*
X78357662Y-57764466D01*
X78357660Y-57764465D01*
X78157450Y-57671106D01*
X78157447Y-57671105D01*
X78157445Y-57671104D01*
X77944070Y-57613930D01*
X77944062Y-57613929D01*
X77724002Y-57594677D01*
X77723998Y-57594677D01*
X77503937Y-57613929D01*
X77503929Y-57613930D01*
X77290554Y-57671104D01*
X77290548Y-57671107D01*
X77090340Y-57764465D01*
X77090338Y-57764466D01*
X76909374Y-57891177D01*
X76905230Y-57894655D01*
X76903798Y-57892949D01*
X76850858Y-57921857D01*
X76781166Y-57916873D01*
X76725233Y-57875001D01*
X76700816Y-57809537D01*
X76700500Y-57800691D01*
X76700500Y-50271308D01*
X76720185Y-50204269D01*
X76772989Y-50158514D01*
X76842147Y-50148570D01*
X76905216Y-50177372D01*
X76905237Y-50177349D01*
X76905323Y-50177421D01*
X76905703Y-50177595D01*
X76907280Y-50179063D01*
X76909384Y-50180829D01*
X77090333Y-50307531D01*
X77090335Y-50307532D01*
X77090338Y-50307534D01*
X77290550Y-50400894D01*
X77503932Y-50458070D01*
X77661123Y-50471822D01*
X77723998Y-50477323D01*
X77724000Y-50477323D01*
X77724002Y-50477323D01*
X77779017Y-50472509D01*
X77944068Y-50458070D01*
X78157450Y-50400894D01*
X78357662Y-50307534D01*
X78538620Y-50180826D01*
X78694826Y-50024620D01*
X78821534Y-49843662D01*
X78858511Y-49764363D01*
X78879620Y-49719096D01*
X78925792Y-49666656D01*
X78992002Y-49647500D01*
X92880520Y-49647500D01*
X92947559Y-49667185D01*
X92993314Y-49719989D01*
X93003258Y-49789147D01*
X92987907Y-49833500D01*
X92935821Y-49923715D01*
X92935818Y-49923722D01*
X92892477Y-50057114D01*
X92877326Y-50103744D01*
X92857540Y-50292000D01*
X92877326Y-50480256D01*
X92877327Y-50480259D01*
X92935818Y-50660277D01*
X92935821Y-50660284D01*
X93030467Y-50824216D01*
X93157129Y-50964888D01*
X93310265Y-51076148D01*
X93310270Y-51076151D01*
X93483192Y-51153142D01*
X93483197Y-51153144D01*
X93668354Y-51192500D01*
X93727548Y-51192500D01*
X93794587Y-51212185D01*
X93815229Y-51228819D01*
X96158263Y-53571855D01*
X96158267Y-53571858D01*
X96260715Y-53640312D01*
X96299882Y-53656535D01*
X96299883Y-53656536D01*
X96299884Y-53656536D01*
X96374548Y-53687463D01*
X96394597Y-53691451D01*
X96428196Y-53698134D01*
X96495392Y-53711501D01*
X96495394Y-53711501D01*
X96624721Y-53711501D01*
X96624741Y-53711500D01*
X105241025Y-53711500D01*
X105308064Y-53731185D01*
X105353819Y-53783989D01*
X105363763Y-53853147D01*
X105334738Y-53916703D01*
X105313909Y-53935819D01*
X105312128Y-53937112D01*
X105185466Y-54077785D01*
X105090821Y-54241715D01*
X105090818Y-54241722D01*
X105032327Y-54421740D01*
X105032326Y-54421744D01*
X105012540Y-54610000D01*
X105032326Y-54798256D01*
X105032327Y-54798259D01*
X105090818Y-54978277D01*
X105090821Y-54978284D01*
X105185467Y-55142216D01*
X105190760Y-55148094D01*
X105312129Y-55282888D01*
X105465265Y-55394148D01*
X105465270Y-55394151D01*
X105638192Y-55471142D01*
X105638197Y-55471144D01*
X105823354Y-55510500D01*
X105882548Y-55510500D01*
X105949587Y-55530185D01*
X105970229Y-55546819D01*
X107171878Y-56748468D01*
X107205363Y-56809791D01*
X107200379Y-56879483D01*
X107158507Y-56935416D01*
X107157083Y-56936467D01*
X107090127Y-56985113D01*
X106963466Y-57125785D01*
X106868821Y-57289715D01*
X106868818Y-57289722D01*
X106842712Y-57370070D01*
X106810326Y-57469744D01*
X106790540Y-57658000D01*
X106810326Y-57846256D01*
X106810327Y-57846259D01*
X106868818Y-58026277D01*
X106868821Y-58026284D01*
X106963467Y-58190216D01*
X107081059Y-58320815D01*
X107090129Y-58330888D01*
X107243265Y-58442148D01*
X107243270Y-58442151D01*
X107416192Y-58519142D01*
X107416197Y-58519144D01*
X107601354Y-58558500D01*
X107660548Y-58558500D01*
X107727587Y-58578185D01*
X107748229Y-58594819D01*
X109075263Y-59921855D01*
X109075267Y-59921858D01*
X109177710Y-59990309D01*
X109177711Y-59990309D01*
X109177715Y-59990312D01*
X109244396Y-60017931D01*
X109244398Y-60017933D01*
X109274129Y-60030247D01*
X109291548Y-60037463D01*
X109412394Y-60061500D01*
X109535607Y-60061500D01*
X111739900Y-60061500D01*
X111806939Y-60081185D01*
X111838854Y-60110773D01*
X111919159Y-60217114D01*
X112077278Y-60361258D01*
X112077283Y-60361261D01*
X112077286Y-60361263D01*
X112259186Y-60473891D01*
X112259187Y-60473891D01*
X112259190Y-60473893D01*
X112458703Y-60551185D01*
X112634845Y-60584111D01*
X112697125Y-60615779D01*
X112732398Y-60676092D01*
X112729464Y-60745900D01*
X112689255Y-60803040D01*
X112634845Y-60827888D01*
X112458703Y-60860815D01*
X112332533Y-60909693D01*
X112259192Y-60938106D01*
X112259186Y-60938108D01*
X112077286Y-61050736D01*
X112077283Y-61050738D01*
X112077279Y-61050740D01*
X112077278Y-61050742D01*
X111919159Y-61194886D01*
X111919158Y-61194887D01*
X111790219Y-61365629D01*
X111694849Y-61557158D01*
X111694846Y-61557164D01*
X111636296Y-61762949D01*
X111636295Y-61762952D01*
X111616554Y-61975999D01*
X111616554Y-61976000D01*
X111636295Y-62189047D01*
X111636296Y-62189050D01*
X111694846Y-62394835D01*
X111694849Y-62394841D01*
X111746980Y-62499534D01*
X111790219Y-62586370D01*
X111919159Y-62757114D01*
X112077278Y-62901258D01*
X112077283Y-62901261D01*
X112077286Y-62901263D01*
X112259186Y-63013891D01*
X112259187Y-63013891D01*
X112259190Y-63013893D01*
X112458703Y-63091185D01*
X112634845Y-63124111D01*
X112697125Y-63155779D01*
X112732398Y-63216092D01*
X112729464Y-63285900D01*
X112689255Y-63343040D01*
X112634845Y-63367888D01*
X112458703Y-63400815D01*
X112408283Y-63420348D01*
X112259192Y-63478106D01*
X112259190Y-63478107D01*
X112077286Y-63590736D01*
X112077283Y-63590738D01*
X112077279Y-63590740D01*
X112077278Y-63590742D01*
X111919159Y-63734886D01*
X111919158Y-63734887D01*
X111790219Y-63905629D01*
X111694849Y-64097158D01*
X111694846Y-64097164D01*
X111636296Y-64302949D01*
X111636295Y-64302952D01*
X111616554Y-64515999D01*
X111616554Y-64516000D01*
X111636295Y-64729047D01*
X111636296Y-64729050D01*
X111694846Y-64934835D01*
X111694849Y-64934841D01*
X111698646Y-64942466D01*
X111790219Y-65126370D01*
X111919159Y-65297114D01*
X112077278Y-65441258D01*
X112077283Y-65441261D01*
X112077286Y-65441263D01*
X112259186Y-65553891D01*
X112259187Y-65553891D01*
X112259190Y-65553893D01*
X112458703Y-65631185D01*
X112634845Y-65664111D01*
X112697125Y-65695779D01*
X112732398Y-65756092D01*
X112729464Y-65825900D01*
X112689255Y-65883040D01*
X112634845Y-65907888D01*
X112458703Y-65940815D01*
X112332533Y-65989693D01*
X112259192Y-66018106D01*
X112259186Y-66018108D01*
X112077286Y-66130736D01*
X112077283Y-66130738D01*
X112077279Y-66130740D01*
X112077278Y-66130742D01*
X111919159Y-66274886D01*
X111919158Y-66274887D01*
X111790219Y-66445629D01*
X111694849Y-66637158D01*
X111694846Y-66637164D01*
X111636296Y-66842949D01*
X111636295Y-66842952D01*
X111616554Y-67055999D01*
X111616554Y-67056000D01*
X111636295Y-67269047D01*
X111636296Y-67269050D01*
X111694846Y-67474835D01*
X111694849Y-67474841D01*
X111785783Y-67657462D01*
X111790219Y-67666370D01*
X111919159Y-67837114D01*
X112077278Y-67981258D01*
X112077283Y-67981261D01*
X112077286Y-67981263D01*
X112259186Y-68093891D01*
X112259187Y-68093891D01*
X112259190Y-68093893D01*
X112458703Y-68171185D01*
X112634845Y-68204111D01*
X112697125Y-68235779D01*
X112732398Y-68296092D01*
X112729464Y-68365900D01*
X112689255Y-68423040D01*
X112634845Y-68447888D01*
X112458703Y-68480815D01*
X112332533Y-68529693D01*
X112259192Y-68558106D01*
X112259186Y-68558108D01*
X112077286Y-68670736D01*
X112077283Y-68670738D01*
X112077279Y-68670740D01*
X112077278Y-68670742D01*
X111919159Y-68814886D01*
X111919158Y-68814887D01*
X111790219Y-68985629D01*
X111694849Y-69177158D01*
X111694846Y-69177164D01*
X111636296Y-69382949D01*
X111636295Y-69382952D01*
X111616554Y-69595999D01*
X111616554Y-69596000D01*
X111636295Y-69809047D01*
X111636296Y-69809050D01*
X111694846Y-70014835D01*
X111694849Y-70014841D01*
X111698646Y-70022466D01*
X111790219Y-70206370D01*
X111919159Y-70377114D01*
X112077278Y-70521258D01*
X112077283Y-70521261D01*
X112077286Y-70521263D01*
X112259186Y-70633891D01*
X112259187Y-70633891D01*
X112259190Y-70633893D01*
X112458703Y-70711185D01*
X112669020Y-70750500D01*
X112669022Y-70750500D01*
X112882978Y-70750500D01*
X112882980Y-70750500D01*
X113093297Y-70711185D01*
X113292810Y-70633893D01*
X113474722Y-70521258D01*
X113632841Y-70377114D01*
X113761781Y-70206370D01*
X113857151Y-70014840D01*
X113857151Y-70014837D01*
X113857153Y-70014835D01*
X113915703Y-69809050D01*
X113915704Y-69809047D01*
X113935446Y-69596000D01*
X113935446Y-69595999D01*
X113915704Y-69382952D01*
X113915703Y-69382949D01*
X113857153Y-69177164D01*
X113857150Y-69177158D01*
X113818772Y-69100084D01*
X113761781Y-68985630D01*
X113632841Y-68814886D01*
X113474722Y-68670742D01*
X113474716Y-68670738D01*
X113474713Y-68670736D01*
X113292813Y-68558108D01*
X113292807Y-68558106D01*
X113093297Y-68480815D01*
X112917153Y-68447888D01*
X112854874Y-68416221D01*
X112819601Y-68355908D01*
X112822535Y-68286100D01*
X112862744Y-68228960D01*
X112917152Y-68204112D01*
X113093297Y-68171185D01*
X113292810Y-68093893D01*
X113474722Y-67981258D01*
X113632841Y-67837114D01*
X113761781Y-67666370D01*
X113857151Y-67474840D01*
X113857151Y-67474837D01*
X113857153Y-67474835D01*
X113904814Y-67307323D01*
X113915704Y-67269048D01*
X113935446Y-67056000D01*
X113915704Y-66842952D01*
X113907200Y-66813065D01*
X113857153Y-66637164D01*
X113857150Y-66637158D01*
X113775634Y-66473451D01*
X113761781Y-66445630D01*
X113632841Y-66274886D01*
X113474722Y-66130742D01*
X113474716Y-66130738D01*
X113474713Y-66130736D01*
X113292813Y-66018108D01*
X113292807Y-66018106D01*
X113093297Y-65940815D01*
X112917153Y-65907888D01*
X112854874Y-65876221D01*
X112819601Y-65815908D01*
X112822535Y-65746100D01*
X112862744Y-65688960D01*
X112917152Y-65664112D01*
X113093297Y-65631185D01*
X113292810Y-65553893D01*
X113474722Y-65441258D01*
X113632841Y-65297114D01*
X113761781Y-65126370D01*
X113857151Y-64934840D01*
X113857151Y-64934837D01*
X113857153Y-64934835D01*
X113899633Y-64785532D01*
X113915704Y-64729048D01*
X113935446Y-64516000D01*
X113915704Y-64302952D01*
X113907200Y-64273065D01*
X113857153Y-64097164D01*
X113857150Y-64097158D01*
X113761781Y-63905630D01*
X113632841Y-63734886D01*
X113474722Y-63590742D01*
X113474716Y-63590738D01*
X113474713Y-63590736D01*
X113292810Y-63478107D01*
X113292807Y-63478106D01*
X113093297Y-63400815D01*
X112917153Y-63367888D01*
X112854874Y-63336221D01*
X112819601Y-63275908D01*
X112822535Y-63206100D01*
X112862744Y-63148960D01*
X112917152Y-63124112D01*
X113093297Y-63091185D01*
X113292810Y-63013893D01*
X113474722Y-62901258D01*
X113632841Y-62757114D01*
X113761781Y-62586370D01*
X113857151Y-62394840D01*
X113857151Y-62394837D01*
X113857153Y-62394835D01*
X113890679Y-62277000D01*
X113915704Y-62189048D01*
X113935446Y-61976000D01*
X113915704Y-61762952D01*
X113875620Y-61622070D01*
X113857153Y-61557164D01*
X113857150Y-61557158D01*
X113779889Y-61401997D01*
X113761781Y-61365630D01*
X113632841Y-61194886D01*
X113474722Y-61050742D01*
X113474716Y-61050738D01*
X113474713Y-61050736D01*
X113292813Y-60938108D01*
X113292807Y-60938106D01*
X113093297Y-60860815D01*
X112917153Y-60827888D01*
X112854874Y-60796221D01*
X112819601Y-60735908D01*
X112822535Y-60666100D01*
X112862744Y-60608960D01*
X112917152Y-60584112D01*
X113093297Y-60551185D01*
X113292810Y-60473893D01*
X113474722Y-60361258D01*
X113632841Y-60217114D01*
X113761781Y-60046370D01*
X113857151Y-59854840D01*
X113857151Y-59854837D01*
X113857153Y-59854835D01*
X113890679Y-59737000D01*
X113915704Y-59649048D01*
X113935446Y-59436000D01*
X113915704Y-59222952D01*
X113875620Y-59082070D01*
X113857153Y-59017164D01*
X113857150Y-59017158D01*
X113779889Y-58861997D01*
X113761781Y-58825630D01*
X113632841Y-58654886D01*
X113474722Y-58510742D01*
X113474716Y-58510738D01*
X113474713Y-58510736D01*
X113292813Y-58398108D01*
X113292807Y-58398106D01*
X113292714Y-58398070D01*
X113093297Y-58320815D01*
X112917153Y-58287888D01*
X112854874Y-58256221D01*
X112819601Y-58195908D01*
X112822535Y-58126100D01*
X112862744Y-58068960D01*
X112917152Y-58044112D01*
X113093297Y-58011185D01*
X113292810Y-57933893D01*
X113474722Y-57821258D01*
X113632841Y-57677114D01*
X113761781Y-57506370D01*
X113857151Y-57314840D01*
X113857151Y-57314837D01*
X113857153Y-57314835D01*
X113890679Y-57197000D01*
X113915704Y-57109048D01*
X113935446Y-56896000D01*
X113933915Y-56879483D01*
X113915704Y-56682952D01*
X113915703Y-56682949D01*
X113857153Y-56477164D01*
X113857150Y-56477158D01*
X113786552Y-56335377D01*
X113761781Y-56285630D01*
X113632841Y-56114886D01*
X113474722Y-55970742D01*
X113474716Y-55970738D01*
X113474713Y-55970736D01*
X113292813Y-55858108D01*
X113292807Y-55858106D01*
X113292714Y-55858070D01*
X113093297Y-55780815D01*
X112917153Y-55747888D01*
X112854874Y-55716221D01*
X112819601Y-55655908D01*
X112822535Y-55586100D01*
X112862744Y-55528960D01*
X112917152Y-55504112D01*
X113093297Y-55471185D01*
X113292810Y-55393893D01*
X113474722Y-55281258D01*
X113632841Y-55137114D01*
X113761781Y-54966370D01*
X113857151Y-54774840D01*
X113857151Y-54774837D01*
X113857153Y-54774835D01*
X113915704Y-54569048D01*
X113915704Y-54569047D01*
X113915828Y-54567715D01*
X113935446Y-54356000D01*
X113924856Y-54241722D01*
X113915704Y-54142952D01*
X113915703Y-54142949D01*
X113857153Y-53937164D01*
X113857150Y-53937158D01*
X113834053Y-53890772D01*
X113821792Y-53821986D01*
X113848665Y-53757491D01*
X113906141Y-53717764D01*
X113945053Y-53711500D01*
X122879548Y-53711500D01*
X122946587Y-53731185D01*
X122967229Y-53747819D01*
X124306181Y-55086771D01*
X124339666Y-55148094D01*
X124342500Y-55174452D01*
X124342500Y-65593611D01*
X124366535Y-65714444D01*
X124366540Y-65714461D01*
X124413685Y-65828280D01*
X124413690Y-65828289D01*
X124447914Y-65879507D01*
X124447915Y-65879509D01*
X124482140Y-65930731D01*
X124482141Y-65930732D01*
X124482142Y-65930733D01*
X124569267Y-66017858D01*
X124569268Y-66017858D01*
X124576335Y-66024925D01*
X124576334Y-66024925D01*
X124576338Y-66024928D01*
X126093262Y-67541854D01*
X126093265Y-67541857D01*
X126161411Y-67587390D01*
X126195714Y-67610311D01*
X126309548Y-67657463D01*
X126430388Y-67681499D01*
X126430392Y-67681500D01*
X126430393Y-67681500D01*
X126430394Y-67681500D01*
X126979900Y-67681500D01*
X127046939Y-67701185D01*
X127078854Y-67730774D01*
X127097733Y-67755774D01*
X127122425Y-67821135D01*
X127107860Y-67889470D01*
X127058662Y-67939082D01*
X126998779Y-67954500D01*
X117286389Y-67954500D01*
X117225971Y-67966518D01*
X117165548Y-67978537D01*
X117165543Y-67978538D01*
X117131546Y-67992620D01*
X117118397Y-67998067D01*
X117096169Y-68007274D01*
X117051713Y-68025688D01*
X117041557Y-68032475D01*
X117041449Y-68032547D01*
X116949268Y-68094140D01*
X116905705Y-68137703D01*
X116862142Y-68181267D01*
X116862139Y-68181270D01*
X113901270Y-71142139D01*
X113901267Y-71142142D01*
X113857704Y-71185704D01*
X113814142Y-71229266D01*
X113786854Y-71270106D01*
X113786853Y-71270105D01*
X113745689Y-71331712D01*
X113745685Y-71331719D01*
X113698540Y-71445538D01*
X113698535Y-71445554D01*
X113677075Y-71553447D01*
X113677075Y-71553451D01*
X113674500Y-71566394D01*
X113674500Y-73652582D01*
X113654815Y-73719621D01*
X113602011Y-73765376D01*
X113532853Y-73775320D01*
X113479908Y-73753257D01*
X113479597Y-73753760D01*
X113476473Y-73751825D01*
X113475768Y-73751532D01*
X113474718Y-73750739D01*
X113292813Y-73638108D01*
X113292807Y-73638106D01*
X113093297Y-73560815D01*
X112882980Y-73521500D01*
X112669020Y-73521500D01*
X112458703Y-73560815D01*
X112332533Y-73609693D01*
X112259192Y-73638106D01*
X112259186Y-73638108D01*
X112077286Y-73750736D01*
X112077283Y-73750738D01*
X112077279Y-73750740D01*
X112077278Y-73750742D01*
X111919159Y-73894886D01*
X111919158Y-73894887D01*
X111790219Y-74065629D01*
X111694849Y-74257158D01*
X111694846Y-74257164D01*
X111636296Y-74462949D01*
X111636295Y-74462952D01*
X111616554Y-74675999D01*
X111616554Y-74676000D01*
X111636295Y-74889047D01*
X111636296Y-74889050D01*
X111694846Y-75094835D01*
X111694849Y-75094841D01*
X111698646Y-75102466D01*
X111790219Y-75286370D01*
X111919159Y-75457114D01*
X112077278Y-75601258D01*
X112077283Y-75601261D01*
X112077286Y-75601263D01*
X112259186Y-75713891D01*
X112259187Y-75713891D01*
X112259190Y-75713893D01*
X112458703Y-75791185D01*
X112634845Y-75824111D01*
X112697125Y-75855779D01*
X112732398Y-75916092D01*
X112729464Y-75985900D01*
X112689255Y-76043040D01*
X112634845Y-76067888D01*
X112458703Y-76100815D01*
X112332533Y-76149693D01*
X112259192Y-76178106D01*
X112259186Y-76178108D01*
X112077286Y-76290736D01*
X112077283Y-76290738D01*
X112077279Y-76290740D01*
X112077278Y-76290742D01*
X111919159Y-76434886D01*
X111919158Y-76434887D01*
X111790219Y-76605629D01*
X111694849Y-76797158D01*
X111694846Y-76797164D01*
X111636296Y-77002949D01*
X111636295Y-77002952D01*
X111616554Y-77215999D01*
X111616554Y-77216000D01*
X111636295Y-77429047D01*
X111636296Y-77429050D01*
X111694846Y-77634835D01*
X111694849Y-77634841D01*
X111698646Y-77642466D01*
X111790219Y-77826370D01*
X111919159Y-77997114D01*
X112077278Y-78141258D01*
X112077283Y-78141261D01*
X112077286Y-78141263D01*
X112259186Y-78253891D01*
X112259187Y-78253891D01*
X112259190Y-78253893D01*
X112458703Y-78331185D01*
X112634845Y-78364111D01*
X112697125Y-78395779D01*
X112732398Y-78456092D01*
X112729464Y-78525900D01*
X112689255Y-78583040D01*
X112634845Y-78607888D01*
X112458703Y-78640815D01*
X112332533Y-78689693D01*
X112259192Y-78718106D01*
X112259186Y-78718108D01*
X112077286Y-78830736D01*
X112077283Y-78830738D01*
X112077279Y-78830740D01*
X112077278Y-78830742D01*
X111919159Y-78974886D01*
X111919158Y-78974887D01*
X111790219Y-79145629D01*
X111694849Y-79337158D01*
X111694846Y-79337164D01*
X111636296Y-79542949D01*
X111636295Y-79542952D01*
X111616554Y-79755999D01*
X111616554Y-79756000D01*
X111636295Y-79969047D01*
X111636296Y-79969050D01*
X111694846Y-80174835D01*
X111694849Y-80174841D01*
X111790219Y-80366370D01*
X111919159Y-80537114D01*
X112077278Y-80681258D01*
X112077283Y-80681261D01*
X112077286Y-80681263D01*
X112259186Y-80793891D01*
X112259187Y-80793891D01*
X112259190Y-80793893D01*
X112458703Y-80871185D01*
X112634845Y-80904111D01*
X112697125Y-80935779D01*
X112732398Y-80996092D01*
X112729464Y-81065900D01*
X112689255Y-81123040D01*
X112634845Y-81147888D01*
X112458703Y-81180815D01*
X112332533Y-81229693D01*
X112259192Y-81258106D01*
X112259186Y-81258108D01*
X112077286Y-81370736D01*
X112077283Y-81370738D01*
X112077279Y-81370740D01*
X112077278Y-81370742D01*
X111978222Y-81461043D01*
X111919158Y-81514887D01*
X111790219Y-81685629D01*
X111694849Y-81877158D01*
X111694846Y-81877164D01*
X111636296Y-82082949D01*
X111636295Y-82082952D01*
X111616554Y-82295999D01*
X111616554Y-82296000D01*
X111636295Y-82509047D01*
X111636296Y-82509050D01*
X111694846Y-82714835D01*
X111694849Y-82714840D01*
X111790219Y-82906370D01*
X111919159Y-83077114D01*
X112077278Y-83221258D01*
X112077283Y-83221261D01*
X112077286Y-83221263D01*
X112259186Y-83333891D01*
X112259187Y-83333891D01*
X112259190Y-83333893D01*
X112458703Y-83411185D01*
X112634845Y-83444111D01*
X112697125Y-83475779D01*
X112732398Y-83536092D01*
X112729464Y-83605900D01*
X112689255Y-83663040D01*
X112634845Y-83687888D01*
X112458703Y-83720815D01*
X112332533Y-83769693D01*
X112259192Y-83798106D01*
X112259186Y-83798108D01*
X112077286Y-83910736D01*
X112077283Y-83910738D01*
X112077279Y-83910740D01*
X112077278Y-83910742D01*
X111944583Y-84031709D01*
X111919158Y-84054887D01*
X111790219Y-84225629D01*
X111694849Y-84417158D01*
X111694846Y-84417164D01*
X111636296Y-84622949D01*
X111636295Y-84622952D01*
X111616554Y-84835999D01*
X111616554Y-84836000D01*
X111636295Y-85049047D01*
X111636296Y-85049050D01*
X111694846Y-85254835D01*
X111694849Y-85254841D01*
X111728215Y-85321849D01*
X111790219Y-85446370D01*
X111919159Y-85617114D01*
X112077278Y-85761258D01*
X112077283Y-85761261D01*
X112077286Y-85761263D01*
X112259186Y-85873891D01*
X112259187Y-85873891D01*
X112259190Y-85873893D01*
X112458703Y-85951185D01*
X112634845Y-85984111D01*
X112697125Y-86015779D01*
X112732398Y-86076092D01*
X112729464Y-86145900D01*
X112689255Y-86203040D01*
X112634845Y-86227888D01*
X112458703Y-86260815D01*
X112332533Y-86309693D01*
X112259192Y-86338106D01*
X112259186Y-86338108D01*
X112077286Y-86450736D01*
X112077283Y-86450738D01*
X112077279Y-86450740D01*
X112077278Y-86450742D01*
X111919159Y-86594886D01*
X111919158Y-86594887D01*
X111790219Y-86765629D01*
X111694849Y-86957158D01*
X111694846Y-86957164D01*
X111636296Y-87162949D01*
X111636295Y-87162952D01*
X111616554Y-87375999D01*
X111616554Y-87376000D01*
X111636295Y-87589047D01*
X111636296Y-87589050D01*
X111694846Y-87794835D01*
X111694849Y-87794841D01*
X111717947Y-87841228D01*
X111730208Y-87910014D01*
X111703335Y-87974509D01*
X111645859Y-88014236D01*
X111606947Y-88020500D01*
X108260453Y-88020500D01*
X108193414Y-88000815D01*
X108172772Y-87984181D01*
X106348960Y-86160369D01*
X106315475Y-86099046D01*
X106313323Y-86085668D01*
X106295674Y-85917744D01*
X106237179Y-85737716D01*
X106142533Y-85573784D01*
X106015871Y-85433112D01*
X106015870Y-85433111D01*
X105862734Y-85321851D01*
X105862729Y-85321848D01*
X105689807Y-85244857D01*
X105689802Y-85244855D01*
X105544001Y-85213865D01*
X105504646Y-85205500D01*
X105315354Y-85205500D01*
X105282897Y-85212398D01*
X105130197Y-85244855D01*
X105130192Y-85244857D01*
X104957270Y-85321848D01*
X104957265Y-85321851D01*
X104804129Y-85433111D01*
X104677466Y-85573785D01*
X104582821Y-85737715D01*
X104582818Y-85737722D01*
X104538574Y-85873893D01*
X104524326Y-85917744D01*
X104504540Y-86106000D01*
X104524326Y-86294256D01*
X104524327Y-86294259D01*
X104582818Y-86474277D01*
X104582821Y-86474284D01*
X104677467Y-86638216D01*
X104771219Y-86742338D01*
X104804129Y-86778888D01*
X104957265Y-86890148D01*
X104957270Y-86890151D01*
X105130192Y-86967142D01*
X105130197Y-86967144D01*
X105315354Y-87006500D01*
X105374548Y-87006500D01*
X105441587Y-87026185D01*
X105462228Y-87042818D01*
X107464141Y-89044732D01*
X107464142Y-89044733D01*
X107520786Y-89101377D01*
X107551268Y-89131859D01*
X107617225Y-89175930D01*
X107617224Y-89175930D01*
X107653712Y-89200310D01*
X107653713Y-89200310D01*
X107653714Y-89200311D01*
X107767548Y-89247463D01*
X107888388Y-89271499D01*
X107888392Y-89271500D01*
X107888393Y-89271500D01*
X107888394Y-89271500D01*
X111606947Y-89271500D01*
X111673986Y-89291185D01*
X111719741Y-89343989D01*
X111729685Y-89413147D01*
X111717947Y-89450772D01*
X111694849Y-89497158D01*
X111694846Y-89497164D01*
X111636296Y-89702949D01*
X111636295Y-89702952D01*
X111616554Y-89915999D01*
X111616554Y-89916000D01*
X111636295Y-90129047D01*
X111636296Y-90129050D01*
X111694846Y-90334835D01*
X111694849Y-90334841D01*
X111739245Y-90424000D01*
X111790219Y-90526370D01*
X111919159Y-90697114D01*
X112077278Y-90841258D01*
X112077283Y-90841261D01*
X112077286Y-90841263D01*
X112259186Y-90953891D01*
X112259187Y-90953891D01*
X112259190Y-90953893D01*
X112458703Y-91031185D01*
X112634845Y-91064111D01*
X112697125Y-91095779D01*
X112732398Y-91156092D01*
X112729464Y-91225900D01*
X112689255Y-91283040D01*
X112634845Y-91307888D01*
X112458703Y-91340815D01*
X112332533Y-91389693D01*
X112259192Y-91418106D01*
X112259190Y-91418107D01*
X112077286Y-91530736D01*
X112077283Y-91530738D01*
X112077279Y-91530740D01*
X112077278Y-91530742D01*
X111922248Y-91672070D01*
X111919158Y-91674887D01*
X111790219Y-91845629D01*
X111694849Y-92037158D01*
X111694846Y-92037164D01*
X111636296Y-92242949D01*
X111636295Y-92242952D01*
X111616554Y-92455999D01*
X111616554Y-92456000D01*
X111636295Y-92669047D01*
X111636296Y-92669050D01*
X111694846Y-92874835D01*
X111694849Y-92874841D01*
X111739245Y-92964000D01*
X111790219Y-93066370D01*
X111919159Y-93237114D01*
X112077278Y-93381258D01*
X112077283Y-93381261D01*
X112077286Y-93381263D01*
X112259186Y-93493891D01*
X112259187Y-93493891D01*
X112259190Y-93493893D01*
X112458703Y-93571185D01*
X112634845Y-93604111D01*
X112697125Y-93635779D01*
X112732398Y-93696092D01*
X112729464Y-93765900D01*
X112689255Y-93823040D01*
X112634845Y-93847888D01*
X112458703Y-93880815D01*
X112332533Y-93929693D01*
X112259192Y-93958106D01*
X112259186Y-93958108D01*
X112077286Y-94070736D01*
X112077283Y-94070738D01*
X112077279Y-94070740D01*
X112077278Y-94070742D01*
X111970821Y-94167790D01*
X111919158Y-94214887D01*
X111790219Y-94385629D01*
X111694849Y-94577158D01*
X111694846Y-94577164D01*
X111636296Y-94782949D01*
X111636295Y-94782952D01*
X111616554Y-94995999D01*
X111616554Y-94996000D01*
X111635518Y-95200654D01*
X111622103Y-95269223D01*
X111573746Y-95319655D01*
X111505800Y-95335938D01*
X111439837Y-95312901D01*
X111424366Y-95299776D01*
X111234198Y-95109608D01*
X111234178Y-95109586D01*
X111142736Y-95018144D01*
X111142732Y-95018141D01*
X111076793Y-94974082D01*
X111040286Y-94949688D01*
X111040287Y-94949688D01*
X111040285Y-94949687D01*
X110992322Y-94929821D01*
X110959792Y-94916347D01*
X110926453Y-94902537D01*
X110916427Y-94900543D01*
X110866029Y-94890518D01*
X110805610Y-94878500D01*
X110805607Y-94878500D01*
X110805606Y-94878500D01*
X103843900Y-94878500D01*
X103776861Y-94858815D01*
X103731106Y-94806011D01*
X103721162Y-94736853D01*
X103731518Y-94702096D01*
X103806891Y-94540456D01*
X103806894Y-94540450D01*
X103864070Y-94327068D01*
X103883323Y-94107000D01*
X103881440Y-94085481D01*
X103872100Y-93978714D01*
X103864070Y-93886932D01*
X103806894Y-93673550D01*
X103713534Y-93473339D01*
X103586826Y-93292380D01*
X103430620Y-93136174D01*
X103294376Y-93040775D01*
X103250752Y-92986198D01*
X103241500Y-92939200D01*
X103241500Y-92902394D01*
X103238925Y-92889451D01*
X103238925Y-92889447D01*
X103217464Y-92781554D01*
X103217463Y-92781553D01*
X103217463Y-92781549D01*
X103217460Y-92781543D01*
X103217459Y-92781538D01*
X103170865Y-92669050D01*
X103170312Y-92667714D01*
X103130271Y-92607790D01*
X103101858Y-92565267D01*
X103101856Y-92565264D01*
X103011637Y-92475045D01*
X103011606Y-92475016D01*
X102090198Y-91553608D01*
X102090178Y-91553586D01*
X101998735Y-91462143D01*
X101976568Y-91447331D01*
X101932830Y-91418107D01*
X101897994Y-91394829D01*
X101896285Y-91393687D01*
X101853768Y-91376077D01*
X101811251Y-91358466D01*
X101811249Y-91358464D01*
X101782455Y-91346538D01*
X101782453Y-91346537D01*
X101782452Y-91346537D01*
X101722029Y-91334518D01*
X101661610Y-91322500D01*
X101661607Y-91322500D01*
X101661606Y-91322500D01*
X94175748Y-91322500D01*
X94108709Y-91302815D01*
X94083600Y-91281474D01*
X94077873Y-91275114D01*
X94077869Y-91275110D01*
X93924734Y-91163851D01*
X93924729Y-91163848D01*
X93751807Y-91086857D01*
X93751802Y-91086855D01*
X93606001Y-91055865D01*
X93566646Y-91047500D01*
X93377354Y-91047500D01*
X93344897Y-91054398D01*
X93192197Y-91086855D01*
X93192192Y-91086857D01*
X93019270Y-91163848D01*
X93019265Y-91163851D01*
X92866129Y-91275111D01*
X92739466Y-91415785D01*
X92644821Y-91579715D01*
X92644818Y-91579722D01*
X92600562Y-91715930D01*
X92586326Y-91759744D01*
X92566540Y-91948000D01*
X92586326Y-92136256D01*
X92586327Y-92136259D01*
X92644818Y-92316277D01*
X92644821Y-92316284D01*
X92739467Y-92480216D01*
X92856162Y-92609819D01*
X92866129Y-92620888D01*
X93019265Y-92732148D01*
X93019270Y-92732151D01*
X93192192Y-92809142D01*
X93192197Y-92809144D01*
X93377354Y-92848500D01*
X93377355Y-92848500D01*
X93566644Y-92848500D01*
X93566646Y-92848500D01*
X93751803Y-92809144D01*
X93924730Y-92732151D01*
X94077871Y-92620888D01*
X94080788Y-92617647D01*
X94083600Y-92614526D01*
X94143087Y-92577879D01*
X94175748Y-92573500D01*
X101289548Y-92573500D01*
X101356587Y-92593185D01*
X101377229Y-92609819D01*
X101764800Y-92997390D01*
X101798285Y-93058713D01*
X101793301Y-93128405D01*
X101764801Y-93172752D01*
X101645172Y-93292381D01*
X101518466Y-93473338D01*
X101518465Y-93473340D01*
X101425107Y-93673548D01*
X101425104Y-93673554D01*
X101367930Y-93886929D01*
X101367929Y-93886937D01*
X101348677Y-94106997D01*
X101348677Y-94107002D01*
X101367929Y-94327062D01*
X101367930Y-94327070D01*
X101425104Y-94540445D01*
X101425108Y-94540456D01*
X101500482Y-94702096D01*
X101510974Y-94771173D01*
X101482454Y-94834957D01*
X101423977Y-94873196D01*
X101388100Y-94878500D01*
X98763900Y-94878500D01*
X98696861Y-94858815D01*
X98651106Y-94806011D01*
X98641162Y-94736853D01*
X98651518Y-94702096D01*
X98726891Y-94540456D01*
X98726894Y-94540450D01*
X98784070Y-94327068D01*
X98803323Y-94107000D01*
X98801440Y-94085481D01*
X98792100Y-93978714D01*
X98784070Y-93886932D01*
X98726894Y-93673550D01*
X98633534Y-93473339D01*
X98506826Y-93292380D01*
X98350620Y-93136174D01*
X98350616Y-93136171D01*
X98350615Y-93136170D01*
X98169666Y-93009468D01*
X98169662Y-93009466D01*
X98119763Y-92986198D01*
X97969450Y-92916106D01*
X97969447Y-92916105D01*
X97969445Y-92916104D01*
X97756070Y-92858930D01*
X97756062Y-92858929D01*
X97536002Y-92839677D01*
X97535998Y-92839677D01*
X97315937Y-92858929D01*
X97315929Y-92858930D01*
X97102554Y-92916104D01*
X97102548Y-92916107D01*
X96902340Y-93009465D01*
X96902338Y-93009466D01*
X96721377Y-93136175D01*
X96565175Y-93292377D01*
X96438466Y-93473338D01*
X96438465Y-93473340D01*
X96345107Y-93673548D01*
X96345104Y-93673554D01*
X96287930Y-93886929D01*
X96287929Y-93886937D01*
X96268677Y-94106997D01*
X96268677Y-94107002D01*
X96287929Y-94327062D01*
X96287930Y-94327070D01*
X96345104Y-94540445D01*
X96345108Y-94540456D01*
X96420482Y-94702096D01*
X96430974Y-94771173D01*
X96402454Y-94834957D01*
X96343977Y-94873196D01*
X96308100Y-94878500D01*
X83622453Y-94878500D01*
X83555414Y-94858815D01*
X83534772Y-94842181D01*
X81266091Y-92573500D01*
X78992385Y-90299795D01*
X78958901Y-90238473D01*
X78960291Y-90180023D01*
X78972070Y-90136068D01*
X78991323Y-89916000D01*
X78972070Y-89695932D01*
X78914894Y-89482550D01*
X78821534Y-89282339D01*
X78732360Y-89154984D01*
X78694827Y-89101381D01*
X78631103Y-89037657D01*
X78538620Y-88945174D01*
X78538616Y-88945171D01*
X78538615Y-88945170D01*
X78357666Y-88818468D01*
X78357658Y-88818464D01*
X78228811Y-88758382D01*
X78176371Y-88712210D01*
X78157219Y-88645017D01*
X78177435Y-88578135D01*
X78228811Y-88533618D01*
X78234802Y-88530824D01*
X78357662Y-88473534D01*
X78538620Y-88346826D01*
X78694826Y-88190620D01*
X78821534Y-88009662D01*
X78914894Y-87809450D01*
X78972070Y-87596068D01*
X78988591Y-87407229D01*
X78991323Y-87376002D01*
X78991323Y-87375997D01*
X78972684Y-87162952D01*
X78972070Y-87155932D01*
X78914894Y-86942550D01*
X78821534Y-86742339D01*
X78694826Y-86561380D01*
X78538620Y-86405174D01*
X78538616Y-86405171D01*
X78538615Y-86405170D01*
X78357666Y-86278468D01*
X78357662Y-86278466D01*
X78319809Y-86260815D01*
X78157450Y-86185106D01*
X78157447Y-86185105D01*
X78157445Y-86185104D01*
X77944070Y-86127930D01*
X77944062Y-86127929D01*
X77724002Y-86108677D01*
X77723998Y-86108677D01*
X77503937Y-86127929D01*
X77503929Y-86127930D01*
X77290554Y-86185104D01*
X77290548Y-86185107D01*
X77090340Y-86278465D01*
X77090338Y-86278466D01*
X76909377Y-86405175D01*
X76753175Y-86561377D01*
X76626466Y-86742338D01*
X76626465Y-86742340D01*
X76533107Y-86942548D01*
X76533104Y-86942554D01*
X76475930Y-87155929D01*
X76475929Y-87155937D01*
X76456677Y-87375997D01*
X76456677Y-87376002D01*
X76475929Y-87596062D01*
X76475930Y-87596070D01*
X76533104Y-87809445D01*
X76533105Y-87809447D01*
X76533106Y-87809450D01*
X76587588Y-87926288D01*
X76626466Y-88009662D01*
X76626468Y-88009666D01*
X76753170Y-88190615D01*
X76753175Y-88190621D01*
X76909378Y-88346824D01*
X76909384Y-88346829D01*
X77090333Y-88473531D01*
X77090335Y-88473532D01*
X77090338Y-88473534D01*
X77184971Y-88517662D01*
X77219189Y-88533618D01*
X77271628Y-88579790D01*
X77290780Y-88646984D01*
X77270564Y-88713865D01*
X77219189Y-88758382D01*
X77090340Y-88818465D01*
X77090338Y-88818466D01*
X76909377Y-88945175D01*
X76753175Y-89101377D01*
X76626466Y-89282338D01*
X76626465Y-89282340D01*
X76533107Y-89482548D01*
X76533104Y-89482554D01*
X76475930Y-89695929D01*
X76475929Y-89695937D01*
X76456677Y-89915997D01*
X76456677Y-89916002D01*
X76475929Y-90136062D01*
X76475930Y-90136070D01*
X76533104Y-90349445D01*
X76533105Y-90349447D01*
X76533106Y-90349450D01*
X76567868Y-90423997D01*
X76626466Y-90549662D01*
X76626468Y-90549666D01*
X76753170Y-90730615D01*
X76753175Y-90730621D01*
X76909378Y-90886824D01*
X76909384Y-90886829D01*
X77090333Y-91013531D01*
X77090335Y-91013532D01*
X77090338Y-91013534D01*
X77163179Y-91047500D01*
X77219189Y-91073618D01*
X77271628Y-91119790D01*
X77290780Y-91186984D01*
X77270564Y-91253865D01*
X77219189Y-91298382D01*
X77090340Y-91358465D01*
X77090338Y-91358466D01*
X76909377Y-91485175D01*
X76753175Y-91641377D01*
X76626466Y-91822338D01*
X76626465Y-91822340D01*
X76533107Y-92022548D01*
X76533104Y-92022554D01*
X76475930Y-92235929D01*
X76475929Y-92235937D01*
X76456677Y-92455997D01*
X76456677Y-92456002D01*
X76475929Y-92676062D01*
X76475930Y-92676070D01*
X76533104Y-92889445D01*
X76533105Y-92889447D01*
X76533106Y-92889450D01*
X76589070Y-93009465D01*
X76626466Y-93089662D01*
X76626468Y-93089666D01*
X76753170Y-93270615D01*
X76753175Y-93270621D01*
X76909378Y-93426824D01*
X76909384Y-93426829D01*
X77090333Y-93553531D01*
X77090335Y-93553532D01*
X77090338Y-93553534D01*
X77290550Y-93646894D01*
X77503932Y-93704070D01*
X77661123Y-93717822D01*
X77723998Y-93723323D01*
X77724000Y-93723323D01*
X77724002Y-93723323D01*
X77779017Y-93718509D01*
X77944068Y-93704070D01*
X77988022Y-93692292D01*
X78057870Y-93693955D01*
X78107796Y-93724386D01*
X81135263Y-96751855D01*
X81135267Y-96751858D01*
X81237715Y-96820312D01*
X81276882Y-96836535D01*
X81276883Y-96836536D01*
X81276884Y-96836536D01*
X81351548Y-96867463D01*
X81371597Y-96871451D01*
X81405196Y-96878134D01*
X81472392Y-96891501D01*
X81472394Y-96891501D01*
X81601721Y-96891501D01*
X81601741Y-96891500D01*
X90703368Y-96891500D01*
X90770407Y-96911185D01*
X90816162Y-96963989D01*
X90826106Y-97033147D01*
X90821300Y-97053813D01*
X90815645Y-97071217D01*
X90808326Y-97093742D01*
X90794071Y-97229377D01*
X90788540Y-97282000D01*
X90808326Y-97470256D01*
X90808327Y-97470259D01*
X90866818Y-97650277D01*
X90866821Y-97650284D01*
X90961467Y-97814216D01*
X91002381Y-97859655D01*
X91036650Y-97897715D01*
X91066880Y-97960706D01*
X91068500Y-97980687D01*
X91068500Y-104312471D01*
X91048815Y-104379510D01*
X91022068Y-104407831D01*
X91022458Y-104408264D01*
X91017629Y-104412611D01*
X90890966Y-104553285D01*
X90796321Y-104717215D01*
X90796318Y-104717222D01*
X90737827Y-104897240D01*
X90737826Y-104897244D01*
X90718040Y-105085500D01*
X90737826Y-105273756D01*
X90737827Y-105273759D01*
X90796318Y-105453777D01*
X90796321Y-105453784D01*
X90890967Y-105617716D01*
X91017629Y-105758388D01*
X91170765Y-105869648D01*
X91170770Y-105869651D01*
X91343692Y-105946642D01*
X91343697Y-105946644D01*
X91528854Y-105986000D01*
X91528855Y-105986000D01*
X91718144Y-105986000D01*
X91718146Y-105986000D01*
X91903303Y-105946644D01*
X92076230Y-105869651D01*
X92229371Y-105758388D01*
X92356033Y-105617716D01*
X92450679Y-105453784D01*
X92509174Y-105273756D01*
X92528960Y-105085500D01*
X92509174Y-104897244D01*
X92450679Y-104717216D01*
X92356033Y-104553284D01*
X92351350Y-104548083D01*
X92321120Y-104485091D01*
X92319500Y-104465111D01*
X92319500Y-100584000D01*
X101710540Y-100584000D01*
X101730326Y-100772256D01*
X101730327Y-100772259D01*
X101788818Y-100952277D01*
X101788821Y-100952284D01*
X101883467Y-101116216D01*
X101926772Y-101164310D01*
X101958650Y-101199715D01*
X101988880Y-101262706D01*
X101990500Y-101282687D01*
X101990500Y-106233611D01*
X102014535Y-106354444D01*
X102014540Y-106354461D01*
X102061685Y-106468280D01*
X102061690Y-106468289D01*
X102095914Y-106519507D01*
X102095915Y-106519509D01*
X102130140Y-106570731D01*
X102130141Y-106570732D01*
X102130142Y-106570733D01*
X102217267Y-106657858D01*
X102217268Y-106657858D01*
X102224335Y-106664925D01*
X102224334Y-106664925D01*
X102224338Y-106664928D01*
X103741262Y-108181854D01*
X103741265Y-108181857D01*
X103809411Y-108227390D01*
X103843714Y-108250311D01*
X103957548Y-108297463D01*
X104078388Y-108321499D01*
X104078392Y-108321500D01*
X104078393Y-108321500D01*
X104078394Y-108321500D01*
X111739900Y-108321500D01*
X111806939Y-108341185D01*
X111838854Y-108370773D01*
X111919159Y-108477114D01*
X112077278Y-108621258D01*
X112077283Y-108621261D01*
X112077286Y-108621263D01*
X112259186Y-108733891D01*
X112259187Y-108733891D01*
X112259190Y-108733893D01*
X112458703Y-108811185D01*
X112669020Y-108850500D01*
X112669022Y-108850500D01*
X112882978Y-108850500D01*
X112882980Y-108850500D01*
X113093297Y-108811185D01*
X113292810Y-108733893D01*
X113474722Y-108621258D01*
X113632841Y-108477114D01*
X113761781Y-108306370D01*
X113857151Y-108114840D01*
X113857151Y-108114837D01*
X113857153Y-108114835D01*
X113915703Y-107909050D01*
X113915704Y-107909047D01*
X113935446Y-107696000D01*
X113935446Y-107695999D01*
X113915704Y-107482952D01*
X113915703Y-107482949D01*
X113857153Y-107277164D01*
X113857150Y-107277158D01*
X113761781Y-107085630D01*
X113632841Y-106914886D01*
X113474722Y-106770742D01*
X113474716Y-106770738D01*
X113474713Y-106770736D01*
X113292813Y-106658108D01*
X113292807Y-106658106D01*
X113093297Y-106580815D01*
X112882980Y-106541500D01*
X112669020Y-106541500D01*
X112458703Y-106580815D01*
X112332533Y-106629693D01*
X112259192Y-106658106D01*
X112259186Y-106658108D01*
X112077286Y-106770736D01*
X112077283Y-106770738D01*
X112077279Y-106770740D01*
X112077278Y-106770742D01*
X111919159Y-106914886D01*
X111919158Y-106914887D01*
X111838854Y-107021227D01*
X111782745Y-107062863D01*
X111739900Y-107070500D01*
X104450453Y-107070500D01*
X104383414Y-107050815D01*
X104362772Y-107034181D01*
X103277819Y-105949228D01*
X103244334Y-105887905D01*
X103241500Y-105861547D01*
X103241500Y-101282687D01*
X103261185Y-101215648D01*
X103273350Y-101199715D01*
X103291891Y-101179122D01*
X103348533Y-101116216D01*
X103443179Y-100952284D01*
X103501674Y-100772256D01*
X103521460Y-100584000D01*
X103501674Y-100395744D01*
X103443179Y-100215716D01*
X103348533Y-100051784D01*
X103221871Y-99911112D01*
X103182373Y-99882415D01*
X103068734Y-99799851D01*
X103068729Y-99799848D01*
X102895807Y-99722857D01*
X102895802Y-99722855D01*
X102750001Y-99691865D01*
X102710646Y-99683500D01*
X102521354Y-99683500D01*
X102488897Y-99690398D01*
X102336197Y-99722855D01*
X102336192Y-99722857D01*
X102163270Y-99799848D01*
X102163265Y-99799851D01*
X102010129Y-99911111D01*
X101883466Y-100051785D01*
X101788821Y-100215715D01*
X101788818Y-100215722D01*
X101730327Y-100395740D01*
X101730326Y-100395744D01*
X101710540Y-100584000D01*
X92319500Y-100584000D01*
X92319500Y-97980687D01*
X92339185Y-97913648D01*
X92351350Y-97897715D01*
X92385619Y-97859655D01*
X92426533Y-97814216D01*
X92521179Y-97650284D01*
X92579674Y-97470256D01*
X92599460Y-97282000D01*
X92579674Y-97093744D01*
X92566700Y-97053817D01*
X92564706Y-96983978D01*
X92600786Y-96924145D01*
X92663487Y-96893316D01*
X92684632Y-96891500D01*
X108655548Y-96891500D01*
X108722587Y-96911185D01*
X108743229Y-96927819D01*
X111598702Y-99783293D01*
X111632187Y-99844616D01*
X111634492Y-99882415D01*
X111616554Y-100075999D01*
X111616554Y-100076000D01*
X111636295Y-100289047D01*
X111636296Y-100289050D01*
X111694846Y-100494835D01*
X111694849Y-100494840D01*
X111790219Y-100686370D01*
X111919159Y-100857114D01*
X112077278Y-101001258D01*
X112077283Y-101001261D01*
X112077286Y-101001263D01*
X112259186Y-101113891D01*
X112259187Y-101113891D01*
X112259190Y-101113893D01*
X112458703Y-101191185D01*
X112634845Y-101224111D01*
X112697125Y-101255779D01*
X112732398Y-101316092D01*
X112729464Y-101385900D01*
X112689255Y-101443040D01*
X112634845Y-101467888D01*
X112458703Y-101500815D01*
X112332533Y-101549693D01*
X112259192Y-101578106D01*
X112259186Y-101578108D01*
X112077286Y-101690736D01*
X112077283Y-101690738D01*
X112077279Y-101690740D01*
X112077278Y-101690742D01*
X111919159Y-101834886D01*
X111919158Y-101834887D01*
X111790219Y-102005629D01*
X111694849Y-102197158D01*
X111694846Y-102197164D01*
X111636296Y-102402949D01*
X111636295Y-102402952D01*
X111616554Y-102615999D01*
X111616554Y-102616000D01*
X111636295Y-102829047D01*
X111636296Y-102829050D01*
X111694846Y-103034835D01*
X111694849Y-103034840D01*
X111790219Y-103226370D01*
X111919159Y-103397114D01*
X112077278Y-103541258D01*
X112077283Y-103541261D01*
X112077286Y-103541263D01*
X112259186Y-103653891D01*
X112259187Y-103653891D01*
X112259190Y-103653893D01*
X112458703Y-103731185D01*
X112669020Y-103770500D01*
X112669022Y-103770500D01*
X112882978Y-103770500D01*
X112882980Y-103770500D01*
X113093297Y-103731185D01*
X113292810Y-103653893D01*
X113474722Y-103541258D01*
X113632841Y-103397114D01*
X113761781Y-103226370D01*
X113857151Y-103034840D01*
X113857151Y-103034837D01*
X113857153Y-103034835D01*
X113915703Y-102829050D01*
X113915704Y-102829047D01*
X113935446Y-102616000D01*
X113935446Y-102615999D01*
X113915704Y-102402952D01*
X113915703Y-102402949D01*
X113857153Y-102197164D01*
X113857150Y-102197158D01*
X113761781Y-102005630D01*
X113632841Y-101834886D01*
X113474722Y-101690742D01*
X113474716Y-101690738D01*
X113474713Y-101690736D01*
X113292813Y-101578108D01*
X113292807Y-101578106D01*
X113093297Y-101500815D01*
X112917153Y-101467888D01*
X112854874Y-101436221D01*
X112819601Y-101375908D01*
X112822535Y-101306100D01*
X112862744Y-101248960D01*
X112917152Y-101224112D01*
X113093297Y-101191185D01*
X113292810Y-101113893D01*
X113474722Y-101001258D01*
X113632841Y-100857114D01*
X113761781Y-100686370D01*
X113857151Y-100494840D01*
X113857151Y-100494837D01*
X113857153Y-100494835D01*
X113915703Y-100289050D01*
X113915704Y-100289047D01*
X113935446Y-100076000D01*
X113935446Y-100075999D01*
X113915704Y-99862952D01*
X113915703Y-99862949D01*
X113857153Y-99657164D01*
X113857150Y-99657158D01*
X113761781Y-99465630D01*
X113632841Y-99294886D01*
X113474722Y-99150742D01*
X113474716Y-99150738D01*
X113474713Y-99150736D01*
X113292813Y-99038108D01*
X113292807Y-99038106D01*
X113093297Y-98960815D01*
X112917153Y-98927888D01*
X112854874Y-98896221D01*
X112819601Y-98835908D01*
X112822535Y-98766100D01*
X112862744Y-98708960D01*
X112917152Y-98684112D01*
X113093297Y-98651185D01*
X113292810Y-98573893D01*
X113474722Y-98461258D01*
X113632841Y-98317114D01*
X113761781Y-98146370D01*
X113857151Y-97954840D01*
X113857151Y-97954837D01*
X113857153Y-97954835D01*
X113915703Y-97749050D01*
X113915704Y-97749047D01*
X113935446Y-97536000D01*
X113935446Y-97535999D01*
X113915704Y-97322952D01*
X113915703Y-97322949D01*
X113857153Y-97117164D01*
X113857150Y-97117158D01*
X113815318Y-97033147D01*
X113761781Y-96925630D01*
X113632841Y-96754886D01*
X113474722Y-96610742D01*
X113474716Y-96610738D01*
X113474713Y-96610736D01*
X113292813Y-96498108D01*
X113292807Y-96498106D01*
X113093297Y-96420815D01*
X112917153Y-96387888D01*
X112854874Y-96356221D01*
X112819601Y-96295908D01*
X112822535Y-96226100D01*
X112862744Y-96168960D01*
X112917152Y-96144112D01*
X113093297Y-96111185D01*
X113292810Y-96033893D01*
X113474722Y-95921258D01*
X113632841Y-95777114D01*
X113761781Y-95606370D01*
X113857151Y-95414840D01*
X113857151Y-95414837D01*
X113857153Y-95414835D01*
X113915703Y-95209050D01*
X113915704Y-95209047D01*
X113923334Y-95126704D01*
X113928051Y-95075796D01*
X113953837Y-95010861D01*
X114010637Y-94970173D01*
X114080418Y-94966653D01*
X114141025Y-95001418D01*
X114170788Y-95053305D01*
X114191669Y-95126696D01*
X114191672Y-95126702D01*
X114282912Y-95309935D01*
X114406269Y-95473287D01*
X114557537Y-95611185D01*
X114557539Y-95611187D01*
X114731569Y-95718942D01*
X114731575Y-95718945D01*
X114772010Y-95734609D01*
X114922444Y-95792888D01*
X115123653Y-95830500D01*
X115123656Y-95830500D01*
X115328344Y-95830500D01*
X115328347Y-95830500D01*
X115529556Y-95792888D01*
X115720427Y-95718944D01*
X115894462Y-95611186D01*
X116045732Y-95473285D01*
X116127046Y-95365608D01*
X116183154Y-95323971D01*
X116252866Y-95319279D01*
X116314048Y-95353022D01*
X116324954Y-95365608D01*
X116406266Y-95473283D01*
X116406268Y-95473286D01*
X116557537Y-95611185D01*
X116557539Y-95611187D01*
X116731569Y-95718942D01*
X116731575Y-95718945D01*
X116772010Y-95734609D01*
X116922444Y-95792888D01*
X117123653Y-95830500D01*
X117123656Y-95830500D01*
X117328344Y-95830500D01*
X117328347Y-95830500D01*
X117529556Y-95792888D01*
X117720427Y-95718944D01*
X117894462Y-95611186D01*
X118045732Y-95473285D01*
X118127046Y-95365608D01*
X118183154Y-95323971D01*
X118252866Y-95319279D01*
X118314048Y-95353022D01*
X118324954Y-95365608D01*
X118406266Y-95473283D01*
X118406268Y-95473286D01*
X118557537Y-95611185D01*
X118557539Y-95611187D01*
X118731569Y-95718942D01*
X118731575Y-95718945D01*
X118772010Y-95734609D01*
X118922444Y-95792888D01*
X119123653Y-95830500D01*
X119123656Y-95830500D01*
X119328344Y-95830500D01*
X119328347Y-95830500D01*
X119529556Y-95792888D01*
X119720427Y-95718944D01*
X119894462Y-95611186D01*
X120045732Y-95473285D01*
X120169088Y-95309935D01*
X120260328Y-95126701D01*
X120316345Y-94929821D01*
X120335232Y-94726000D01*
X120316345Y-94522179D01*
X120260328Y-94325299D01*
X120169088Y-94142065D01*
X120081673Y-94026309D01*
X120045730Y-93978712D01*
X119894462Y-93840814D01*
X119894460Y-93840812D01*
X119879302Y-93831427D01*
X119832666Y-93779400D01*
X119821562Y-93710418D01*
X119849515Y-93646384D01*
X119879302Y-93620573D01*
X119894460Y-93611187D01*
X119894459Y-93611187D01*
X119894462Y-93611186D01*
X120045732Y-93473285D01*
X120169088Y-93309935D01*
X120260328Y-93126701D01*
X120316345Y-92929821D01*
X120335232Y-92726000D01*
X120316345Y-92522179D01*
X120260328Y-92325299D01*
X120220229Y-92244771D01*
X120207968Y-92175987D01*
X120234841Y-92111492D01*
X120292317Y-92071764D01*
X120331230Y-92065500D01*
X121101548Y-92065500D01*
X121168587Y-92085185D01*
X121189229Y-92101819D01*
X122955016Y-93867606D01*
X122955045Y-93867637D01*
X123045264Y-93957856D01*
X123045267Y-93957858D01*
X123122190Y-94009256D01*
X123147710Y-94026309D01*
X123147712Y-94026310D01*
X123147715Y-94026312D01*
X123214396Y-94053931D01*
X123214398Y-94053933D01*
X123254640Y-94070601D01*
X123261548Y-94073463D01*
X123321971Y-94085481D01*
X123382393Y-94097500D01*
X123382394Y-94097500D01*
X126998779Y-94097500D01*
X127065818Y-94117185D01*
X127111573Y-94169989D01*
X127121517Y-94239147D01*
X127097733Y-94296227D01*
X127030219Y-94385629D01*
X126934849Y-94577158D01*
X126934846Y-94577164D01*
X126876296Y-94782949D01*
X126876295Y-94782952D01*
X126856554Y-94995999D01*
X126856554Y-94996000D01*
X126876295Y-95209047D01*
X126876296Y-95209050D01*
X126934846Y-95414835D01*
X126934849Y-95414841D01*
X126979245Y-95504000D01*
X127030219Y-95606370D01*
X127159159Y-95777114D01*
X127317278Y-95921258D01*
X127317283Y-95921261D01*
X127317286Y-95921263D01*
X127499186Y-96033891D01*
X127499187Y-96033891D01*
X127499190Y-96033893D01*
X127698703Y-96111185D01*
X127874845Y-96144111D01*
X127937125Y-96175779D01*
X127972398Y-96236092D01*
X127969464Y-96305900D01*
X127929255Y-96363040D01*
X127874845Y-96387888D01*
X127698703Y-96420815D01*
X127572533Y-96469693D01*
X127499192Y-96498106D01*
X127499186Y-96498108D01*
X127317286Y-96610736D01*
X127317283Y-96610738D01*
X127317279Y-96610740D01*
X127317278Y-96610742D01*
X127210821Y-96707790D01*
X127159158Y-96754887D01*
X127030219Y-96925629D01*
X126934849Y-97117158D01*
X126934846Y-97117164D01*
X126876296Y-97322949D01*
X126876295Y-97322952D01*
X126856554Y-97535999D01*
X126856554Y-97536000D01*
X126876295Y-97749047D01*
X126876296Y-97749050D01*
X126934846Y-97954835D01*
X126934849Y-97954841D01*
X126979245Y-98044000D01*
X127030219Y-98146370D01*
X127159159Y-98317114D01*
X127317278Y-98461258D01*
X127317283Y-98461261D01*
X127317286Y-98461263D01*
X127499186Y-98573891D01*
X127499187Y-98573891D01*
X127499190Y-98573893D01*
X127698703Y-98651185D01*
X127874845Y-98684111D01*
X127937125Y-98715779D01*
X127972398Y-98776092D01*
X127969464Y-98845900D01*
X127929255Y-98903040D01*
X127874845Y-98927888D01*
X127698703Y-98960815D01*
X127572533Y-99009693D01*
X127499192Y-99038106D01*
X127499186Y-99038108D01*
X127317286Y-99150736D01*
X127317283Y-99150738D01*
X127317279Y-99150740D01*
X127317278Y-99150742D01*
X127162249Y-99292069D01*
X127159158Y-99294887D01*
X127030219Y-99465629D01*
X126934849Y-99657158D01*
X126934846Y-99657164D01*
X126876296Y-99862949D01*
X126876295Y-99862952D01*
X126856554Y-100075999D01*
X126856554Y-100076000D01*
X126876295Y-100289047D01*
X126876296Y-100289050D01*
X126934846Y-100494835D01*
X126934849Y-100494840D01*
X127030219Y-100686370D01*
X127159159Y-100857114D01*
X127317278Y-101001258D01*
X127317283Y-101001261D01*
X127317286Y-101001263D01*
X127499186Y-101113891D01*
X127499187Y-101113891D01*
X127499190Y-101113893D01*
X127698703Y-101191185D01*
X127874845Y-101224111D01*
X127937125Y-101255779D01*
X127972398Y-101316092D01*
X127969464Y-101385900D01*
X127929255Y-101443040D01*
X127874845Y-101467888D01*
X127698703Y-101500815D01*
X127572533Y-101549693D01*
X127499192Y-101578106D01*
X127499186Y-101578108D01*
X127317286Y-101690736D01*
X127317283Y-101690738D01*
X127317279Y-101690740D01*
X127317278Y-101690742D01*
X127159159Y-101834886D01*
X127159158Y-101834887D01*
X127030219Y-102005629D01*
X126934849Y-102197158D01*
X126934846Y-102197164D01*
X126876296Y-102402949D01*
X126876295Y-102402952D01*
X126856554Y-102615999D01*
X126856554Y-102616000D01*
X126876295Y-102829047D01*
X126876296Y-102829050D01*
X126934846Y-103034835D01*
X126934849Y-103034840D01*
X127030219Y-103226370D01*
X127159159Y-103397114D01*
X127317278Y-103541258D01*
X127317283Y-103541261D01*
X127317286Y-103541263D01*
X127499186Y-103653891D01*
X127499187Y-103653891D01*
X127499190Y-103653893D01*
X127698703Y-103731185D01*
X127874845Y-103764111D01*
X127937125Y-103795779D01*
X127972398Y-103856092D01*
X127969464Y-103925900D01*
X127929255Y-103983040D01*
X127874845Y-104007888D01*
X127698703Y-104040815D01*
X127572533Y-104089693D01*
X127499192Y-104118106D01*
X127499186Y-104118108D01*
X127317286Y-104230736D01*
X127317283Y-104230738D01*
X127317279Y-104230740D01*
X127317278Y-104230742D01*
X127159159Y-104374886D01*
X127159158Y-104374887D01*
X127030219Y-104545629D01*
X126934849Y-104737158D01*
X126934846Y-104737164D01*
X126876296Y-104942949D01*
X126876295Y-104942952D01*
X126856554Y-105155999D01*
X126856554Y-105156000D01*
X126876295Y-105369047D01*
X126876296Y-105369050D01*
X126934846Y-105574835D01*
X126934849Y-105574841D01*
X127026244Y-105758388D01*
X127030219Y-105766370D01*
X127159159Y-105937114D01*
X127317278Y-106081258D01*
X127317283Y-106081261D01*
X127317286Y-106081263D01*
X127499186Y-106193891D01*
X127499187Y-106193891D01*
X127499190Y-106193893D01*
X127698703Y-106271185D01*
X127909020Y-106310500D01*
X127909022Y-106310500D01*
X128122978Y-106310500D01*
X128122980Y-106310500D01*
X128333297Y-106271185D01*
X128532810Y-106193893D01*
X128714722Y-106081258D01*
X128872841Y-105937114D01*
X129001781Y-105766370D01*
X129097151Y-105574840D01*
X129097151Y-105574837D01*
X129097153Y-105574835D01*
X129155703Y-105369050D01*
X129155704Y-105369047D01*
X129175446Y-105156000D01*
X129175446Y-105155999D01*
X129155704Y-104942952D01*
X129155703Y-104942949D01*
X129097153Y-104737164D01*
X129097150Y-104737158D01*
X129087220Y-104717215D01*
X129001781Y-104545630D01*
X128872841Y-104374886D01*
X128714722Y-104230742D01*
X128714716Y-104230738D01*
X128714713Y-104230736D01*
X128532813Y-104118108D01*
X128532807Y-104118106D01*
X128333297Y-104040815D01*
X128157153Y-104007888D01*
X128094874Y-103976221D01*
X128059601Y-103915908D01*
X128062535Y-103846100D01*
X128102744Y-103788960D01*
X128157152Y-103764112D01*
X128333297Y-103731185D01*
X128532810Y-103653893D01*
X128714722Y-103541258D01*
X128872841Y-103397114D01*
X129001781Y-103226370D01*
X129097151Y-103034840D01*
X129097151Y-103034837D01*
X129097153Y-103034835D01*
X129155703Y-102829050D01*
X129155704Y-102829047D01*
X129175446Y-102616000D01*
X129175446Y-102615999D01*
X129155704Y-102402952D01*
X129155703Y-102402949D01*
X129097153Y-102197164D01*
X129097150Y-102197158D01*
X129001781Y-102005630D01*
X128872841Y-101834886D01*
X128714722Y-101690742D01*
X128714716Y-101690738D01*
X128714713Y-101690736D01*
X128532813Y-101578108D01*
X128532807Y-101578106D01*
X128333297Y-101500815D01*
X128157153Y-101467888D01*
X128094874Y-101436221D01*
X128059601Y-101375908D01*
X128062535Y-101306100D01*
X128102744Y-101248960D01*
X128157152Y-101224112D01*
X128333297Y-101191185D01*
X128532810Y-101113893D01*
X128714722Y-101001258D01*
X128872841Y-100857114D01*
X129001781Y-100686370D01*
X129097151Y-100494840D01*
X129097151Y-100494837D01*
X129097153Y-100494835D01*
X129155703Y-100289050D01*
X129155704Y-100289047D01*
X129175446Y-100076000D01*
X129175446Y-100075999D01*
X129155704Y-99862952D01*
X129155703Y-99862949D01*
X129097153Y-99657164D01*
X129097150Y-99657158D01*
X129001781Y-99465630D01*
X128872841Y-99294886D01*
X128714722Y-99150742D01*
X128714716Y-99150738D01*
X128714713Y-99150736D01*
X128532813Y-99038108D01*
X128532807Y-99038106D01*
X128333297Y-98960815D01*
X128157153Y-98927888D01*
X128094874Y-98896221D01*
X128059601Y-98835908D01*
X128062535Y-98766100D01*
X128102744Y-98708960D01*
X128157152Y-98684112D01*
X128333297Y-98651185D01*
X128532810Y-98573893D01*
X128714722Y-98461258D01*
X128872841Y-98317114D01*
X129001781Y-98146370D01*
X129097151Y-97954840D01*
X129097151Y-97954837D01*
X129097153Y-97954835D01*
X129155703Y-97749050D01*
X129155704Y-97749047D01*
X129175446Y-97536000D01*
X129175446Y-97535999D01*
X129155704Y-97322952D01*
X129155703Y-97322949D01*
X129097153Y-97117164D01*
X129097150Y-97117158D01*
X129055318Y-97033147D01*
X129001781Y-96925630D01*
X128872841Y-96754886D01*
X128714722Y-96610742D01*
X128714716Y-96610738D01*
X128714713Y-96610736D01*
X128532813Y-96498108D01*
X128532807Y-96498106D01*
X128333297Y-96420815D01*
X128157153Y-96387888D01*
X128094874Y-96356221D01*
X128059601Y-96295908D01*
X128062535Y-96226100D01*
X128102744Y-96168960D01*
X128157152Y-96144112D01*
X128333297Y-96111185D01*
X128532810Y-96033893D01*
X128714722Y-95921258D01*
X128872841Y-95777114D01*
X129001781Y-95606370D01*
X129097151Y-95414840D01*
X129097151Y-95414837D01*
X129097153Y-95414835D01*
X129155703Y-95209050D01*
X129155704Y-95209047D01*
X129163335Y-95126702D01*
X129175446Y-94996000D01*
X129155704Y-94782952D01*
X129139500Y-94726000D01*
X129097153Y-94577164D01*
X129097150Y-94577158D01*
X129012156Y-94406466D01*
X129001781Y-94385630D01*
X128934267Y-94296227D01*
X128909575Y-94230866D01*
X128924140Y-94162531D01*
X128973337Y-94112918D01*
X129033221Y-94097500D01*
X130109607Y-94097500D01*
X130170029Y-94085481D01*
X130230452Y-94073463D01*
X130230455Y-94073461D01*
X130230458Y-94073461D01*
X130263787Y-94059654D01*
X130263786Y-94059654D01*
X130263792Y-94059652D01*
X130344286Y-94026312D01*
X130415518Y-93978715D01*
X130446733Y-93957858D01*
X130533858Y-93870733D01*
X130533858Y-93870731D01*
X130544066Y-93860524D01*
X130544066Y-93860522D01*
X130778773Y-93625818D01*
X130840097Y-93592334D01*
X130866454Y-93589500D01*
X141072200Y-93589500D01*
X141139239Y-93609185D01*
X141173775Y-93642376D01*
X141269174Y-93778620D01*
X141269175Y-93778621D01*
X141425378Y-93934824D01*
X141425384Y-93934829D01*
X141606333Y-94061531D01*
X141606335Y-94061532D01*
X141606338Y-94061534D01*
X141683468Y-94097500D01*
X141735189Y-94121618D01*
X141787628Y-94167790D01*
X141806780Y-94234984D01*
X141786564Y-94301865D01*
X141735189Y-94346382D01*
X141606340Y-94406465D01*
X141606338Y-94406466D01*
X141425377Y-94533175D01*
X141269175Y-94689377D01*
X141142466Y-94870338D01*
X141142465Y-94870340D01*
X141049107Y-95070548D01*
X141049104Y-95070554D01*
X140991930Y-95283929D01*
X140991929Y-95283937D01*
X140972677Y-95503997D01*
X140972677Y-95504002D01*
X140991929Y-95724062D01*
X140991930Y-95724070D01*
X141049104Y-95937445D01*
X141049105Y-95937447D01*
X141049106Y-95937450D01*
X141094077Y-96033891D01*
X141142466Y-96137662D01*
X141142468Y-96137666D01*
X141269170Y-96318615D01*
X141269175Y-96318621D01*
X141425378Y-96474824D01*
X141425384Y-96474829D01*
X141606333Y-96601531D01*
X141606335Y-96601532D01*
X141606338Y-96601534D01*
X141725748Y-96657215D01*
X141735189Y-96661618D01*
X141787628Y-96707790D01*
X141806780Y-96774984D01*
X141786564Y-96841865D01*
X141735189Y-96886382D01*
X141606340Y-96946465D01*
X141606338Y-96946466D01*
X141425377Y-97073175D01*
X141269175Y-97229377D01*
X141142466Y-97410338D01*
X141142465Y-97410340D01*
X141049107Y-97610548D01*
X141049104Y-97610554D01*
X140991930Y-97823929D01*
X140991929Y-97823937D01*
X140972677Y-98043997D01*
X140972677Y-98044002D01*
X140991929Y-98264062D01*
X140991930Y-98264070D01*
X141049104Y-98477445D01*
X141049105Y-98477447D01*
X141049106Y-98477450D01*
X141094077Y-98573891D01*
X141142466Y-98677662D01*
X141142468Y-98677666D01*
X141269170Y-98858615D01*
X141269175Y-98858621D01*
X141425378Y-99014824D01*
X141425384Y-99014829D01*
X141606333Y-99141531D01*
X141606335Y-99141532D01*
X141606338Y-99141534D01*
X141806550Y-99234894D01*
X142019932Y-99292070D01*
X142177123Y-99305822D01*
X142239998Y-99311323D01*
X142240000Y-99311323D01*
X142240002Y-99311323D01*
X142295017Y-99306509D01*
X142460068Y-99292070D01*
X142673450Y-99234894D01*
X142873662Y-99141534D01*
X143054620Y-99014826D01*
X143210826Y-98858620D01*
X143337534Y-98677662D01*
X143430894Y-98477450D01*
X143488070Y-98264068D01*
X143507323Y-98044000D01*
X143488070Y-97823932D01*
X143430894Y-97610550D01*
X143337534Y-97410339D01*
X143263506Y-97304615D01*
X143210827Y-97229381D01*
X143210823Y-97229377D01*
X143054620Y-97073174D01*
X143054616Y-97073171D01*
X143054615Y-97073170D01*
X142873666Y-96946468D01*
X142873658Y-96946464D01*
X142744811Y-96886382D01*
X142692371Y-96840210D01*
X142673219Y-96773017D01*
X142693435Y-96706135D01*
X142744811Y-96661618D01*
X142750802Y-96658824D01*
X142873662Y-96601534D01*
X143054620Y-96474826D01*
X143210826Y-96318620D01*
X143337534Y-96137662D01*
X143430894Y-95937450D01*
X143488070Y-95724068D01*
X143507323Y-95504000D01*
X143488070Y-95283932D01*
X143430894Y-95070550D01*
X143337534Y-94870339D01*
X143244067Y-94736853D01*
X143210827Y-94689381D01*
X143162955Y-94641509D01*
X143054620Y-94533174D01*
X143054616Y-94533171D01*
X143054615Y-94533170D01*
X142873666Y-94406468D01*
X142873658Y-94406464D01*
X142744811Y-94346382D01*
X142692371Y-94300210D01*
X142673219Y-94233017D01*
X142693435Y-94166135D01*
X142744811Y-94121618D01*
X142750802Y-94118824D01*
X142873662Y-94061534D01*
X143054620Y-93934826D01*
X143210826Y-93778620D01*
X143337534Y-93597662D01*
X143430894Y-93397450D01*
X143488070Y-93184068D01*
X143507323Y-92964000D01*
X143505153Y-92939200D01*
X143497043Y-92846500D01*
X143488070Y-92743932D01*
X143430894Y-92530550D01*
X143337534Y-92330339D01*
X143271112Y-92235478D01*
X143210827Y-92149381D01*
X143133210Y-92071764D01*
X143054620Y-91993174D01*
X143054616Y-91993171D01*
X143054615Y-91993170D01*
X142873666Y-91866468D01*
X142873658Y-91866464D01*
X142744811Y-91806382D01*
X142692371Y-91760210D01*
X142673219Y-91693017D01*
X142693435Y-91626135D01*
X142744811Y-91581618D01*
X142750802Y-91578824D01*
X142873662Y-91521534D01*
X143054620Y-91394826D01*
X143210826Y-91238620D01*
X143337534Y-91057662D01*
X143430894Y-90857450D01*
X143488070Y-90644068D01*
X143507323Y-90424000D01*
X143488070Y-90203932D01*
X143430894Y-89990550D01*
X143337534Y-89790339D01*
X143210826Y-89609380D01*
X143054620Y-89453174D01*
X143054616Y-89453171D01*
X143054615Y-89453170D01*
X142873666Y-89326468D01*
X142873658Y-89326464D01*
X142744811Y-89266382D01*
X142692371Y-89220210D01*
X142673219Y-89153017D01*
X142693435Y-89086135D01*
X142744811Y-89041618D01*
X142753305Y-89037657D01*
X142873662Y-88981534D01*
X143054620Y-88854826D01*
X143210826Y-88698620D01*
X143337534Y-88517662D01*
X143430894Y-88317450D01*
X143488070Y-88104068D01*
X143507323Y-87884000D01*
X143503980Y-87845794D01*
X143490853Y-87695744D01*
X143488070Y-87663932D01*
X143430894Y-87450550D01*
X143337534Y-87250339D01*
X143210826Y-87069380D01*
X143054620Y-86913174D01*
X143054616Y-86913171D01*
X143054615Y-86913170D01*
X142873666Y-86786468D01*
X142873662Y-86786466D01*
X142828979Y-86765630D01*
X142673450Y-86693106D01*
X142673447Y-86693105D01*
X142673445Y-86693104D01*
X142460070Y-86635930D01*
X142460062Y-86635929D01*
X142240002Y-86616677D01*
X142239998Y-86616677D01*
X142019937Y-86635929D01*
X142019929Y-86635930D01*
X141806554Y-86693104D01*
X141806548Y-86693107D01*
X141606340Y-86786465D01*
X141606338Y-86786466D01*
X141425377Y-86913175D01*
X141269175Y-87069377D01*
X141142466Y-87250338D01*
X141142465Y-87250340D01*
X141049107Y-87450548D01*
X141049104Y-87450554D01*
X140991930Y-87663929D01*
X140991929Y-87663937D01*
X140972677Y-87883997D01*
X140972677Y-87884002D01*
X140991929Y-88104062D01*
X140991930Y-88104070D01*
X141049104Y-88317445D01*
X141049105Y-88317447D01*
X141049106Y-88317450D01*
X141121889Y-88473534D01*
X141142466Y-88517662D01*
X141142468Y-88517666D01*
X141269170Y-88698615D01*
X141269175Y-88698621D01*
X141425378Y-88854824D01*
X141425384Y-88854829D01*
X141606333Y-88981531D01*
X141606335Y-88981532D01*
X141606338Y-88981534D01*
X141725748Y-89037215D01*
X141735189Y-89041618D01*
X141787628Y-89087790D01*
X141806780Y-89154984D01*
X141786564Y-89221865D01*
X141735189Y-89266382D01*
X141606340Y-89326465D01*
X141606338Y-89326466D01*
X141425377Y-89453175D01*
X141269175Y-89609377D01*
X141142466Y-89790338D01*
X141142465Y-89790340D01*
X141049107Y-89990548D01*
X141049104Y-89990554D01*
X140991930Y-90203929D01*
X140991929Y-90203937D01*
X140972677Y-90423997D01*
X140972677Y-90424002D01*
X140991929Y-90644062D01*
X140991930Y-90644070D01*
X141049104Y-90857445D01*
X141049105Y-90857447D01*
X141049106Y-90857450D01*
X141121889Y-91013534D01*
X141142466Y-91057662D01*
X141142468Y-91057666D01*
X141269170Y-91238615D01*
X141269175Y-91238621D01*
X141425378Y-91394824D01*
X141425384Y-91394829D01*
X141606333Y-91521531D01*
X141606335Y-91521532D01*
X141606338Y-91521534D01*
X141725748Y-91577215D01*
X141735189Y-91581618D01*
X141787628Y-91627790D01*
X141806780Y-91694984D01*
X141786564Y-91761865D01*
X141735189Y-91806382D01*
X141606340Y-91866465D01*
X141606338Y-91866466D01*
X141425377Y-91993175D01*
X141269175Y-92149377D01*
X141173776Y-92285623D01*
X141119199Y-92329248D01*
X141072201Y-92338500D01*
X130494389Y-92338500D01*
X130395895Y-92358092D01*
X130373548Y-92362537D01*
X130373547Y-92362537D01*
X130259716Y-92409687D01*
X130157603Y-92477918D01*
X130157570Y-92477940D01*
X130157266Y-92478142D01*
X130070145Y-92565264D01*
X129825227Y-92810182D01*
X129763906Y-92843666D01*
X129737548Y-92846500D01*
X129269417Y-92846500D01*
X129202378Y-92826815D01*
X129156623Y-92774011D01*
X129146679Y-92704853D01*
X129150150Y-92688567D01*
X129155704Y-92669048D01*
X129175446Y-92456000D01*
X129166373Y-92358093D01*
X129155704Y-92242952D01*
X129155703Y-92242949D01*
X129097153Y-92037164D01*
X129097150Y-92037158D01*
X129012156Y-91866466D01*
X129001781Y-91845630D01*
X128872841Y-91674886D01*
X128714722Y-91530742D01*
X128714716Y-91530738D01*
X128714713Y-91530736D01*
X128532810Y-91418107D01*
X128532807Y-91418106D01*
X128526816Y-91415785D01*
X128333297Y-91340815D01*
X128157153Y-91307888D01*
X128094874Y-91276221D01*
X128059601Y-91215908D01*
X128062535Y-91146100D01*
X128102744Y-91088960D01*
X128157152Y-91064112D01*
X128333297Y-91031185D01*
X128532810Y-90953893D01*
X128714722Y-90841258D01*
X128872841Y-90697114D01*
X129001781Y-90526370D01*
X129097151Y-90334840D01*
X129097151Y-90334837D01*
X129097153Y-90334835D01*
X129153706Y-90136070D01*
X129155704Y-90129048D01*
X129175446Y-89916000D01*
X129155704Y-89702952D01*
X129129081Y-89609381D01*
X129097153Y-89497164D01*
X129097150Y-89497158D01*
X129055318Y-89413147D01*
X129001781Y-89305630D01*
X128872841Y-89134886D01*
X128714722Y-88990742D01*
X128714716Y-88990738D01*
X128714713Y-88990736D01*
X128532813Y-88878108D01*
X128532807Y-88878106D01*
X128333297Y-88800815D01*
X128157153Y-88767888D01*
X128094874Y-88736221D01*
X128059601Y-88675908D01*
X128062535Y-88606100D01*
X128102744Y-88548960D01*
X128157152Y-88524112D01*
X128333297Y-88491185D01*
X128532810Y-88413893D01*
X128714722Y-88301258D01*
X128872841Y-88157114D01*
X129001781Y-87986370D01*
X129097151Y-87794840D01*
X129097151Y-87794837D01*
X129097153Y-87794835D01*
X129153706Y-87596070D01*
X129155704Y-87589048D01*
X129175446Y-87376000D01*
X129155704Y-87162952D01*
X129129081Y-87069381D01*
X129097153Y-86957164D01*
X129097150Y-86957158D01*
X129012156Y-86786466D01*
X129001781Y-86765630D01*
X128872841Y-86594886D01*
X128714722Y-86450742D01*
X128714716Y-86450738D01*
X128714713Y-86450736D01*
X128532813Y-86338108D01*
X128532807Y-86338106D01*
X128333297Y-86260815D01*
X128157153Y-86227888D01*
X128094874Y-86196221D01*
X128059601Y-86135908D01*
X128062535Y-86066100D01*
X128102744Y-86008960D01*
X128157152Y-85984112D01*
X128333297Y-85951185D01*
X128532810Y-85873893D01*
X128714722Y-85761258D01*
X128872841Y-85617114D01*
X129001781Y-85446370D01*
X129097151Y-85254840D01*
X129097151Y-85254837D01*
X129097153Y-85254835D01*
X129130679Y-85137000D01*
X129155704Y-85049048D01*
X129175446Y-84836000D01*
X129155704Y-84622952D01*
X129145500Y-84587090D01*
X129097153Y-84417164D01*
X129097150Y-84417158D01*
X129052755Y-84328000D01*
X129001781Y-84225630D01*
X128872841Y-84054886D01*
X128714722Y-83910742D01*
X128714716Y-83910738D01*
X128714713Y-83910736D01*
X128532813Y-83798108D01*
X128532807Y-83798106D01*
X128333297Y-83720815D01*
X128157153Y-83687888D01*
X128094874Y-83656221D01*
X128059601Y-83595908D01*
X128062535Y-83526100D01*
X128102744Y-83468960D01*
X128157152Y-83444112D01*
X128333297Y-83411185D01*
X128532810Y-83333893D01*
X128714722Y-83221258D01*
X128872841Y-83077114D01*
X129001781Y-82906370D01*
X129097151Y-82714840D01*
X129097151Y-82714837D01*
X129097153Y-82714835D01*
X129155703Y-82509050D01*
X129155704Y-82509047D01*
X129175446Y-82296000D01*
X129175446Y-82295999D01*
X129155704Y-82082952D01*
X129155703Y-82082949D01*
X129097153Y-81877164D01*
X129097150Y-81877158D01*
X129001781Y-81685630D01*
X128872841Y-81514886D01*
X128714722Y-81370742D01*
X128714716Y-81370738D01*
X128714713Y-81370736D01*
X128532813Y-81258108D01*
X128532807Y-81258106D01*
X128333297Y-81180815D01*
X128157153Y-81147888D01*
X128094874Y-81116221D01*
X128059601Y-81055908D01*
X128062535Y-80986100D01*
X128102744Y-80928960D01*
X128157152Y-80904112D01*
X128333297Y-80871185D01*
X128532810Y-80793893D01*
X128714722Y-80681258D01*
X128872841Y-80537114D01*
X129001781Y-80366370D01*
X129097151Y-80174840D01*
X129097151Y-80174837D01*
X129097153Y-80174835D01*
X129144814Y-80007323D01*
X129155704Y-79969048D01*
X129175446Y-79756000D01*
X129155704Y-79542952D01*
X129141065Y-79491500D01*
X129097153Y-79337164D01*
X129097150Y-79337158D01*
X129086089Y-79314944D01*
X129001781Y-79145630D01*
X128872841Y-78974886D01*
X128714722Y-78830742D01*
X128714716Y-78830738D01*
X128714713Y-78830736D01*
X128532813Y-78718108D01*
X128532807Y-78718106D01*
X128333297Y-78640815D01*
X128157153Y-78607888D01*
X128094874Y-78576221D01*
X128059601Y-78515908D01*
X128062535Y-78446100D01*
X128102744Y-78388960D01*
X128157152Y-78364112D01*
X128333297Y-78331185D01*
X128532810Y-78253893D01*
X128714722Y-78141258D01*
X128872841Y-77997114D01*
X129001781Y-77826370D01*
X129097151Y-77634840D01*
X129097151Y-77634837D01*
X129097153Y-77634835D01*
X129144814Y-77467323D01*
X129155704Y-77429048D01*
X129175446Y-77216000D01*
X129155704Y-77002952D01*
X129147200Y-76973065D01*
X129097153Y-76797164D01*
X129097150Y-76797158D01*
X129001781Y-76605630D01*
X128872841Y-76434886D01*
X128714722Y-76290742D01*
X128714716Y-76290738D01*
X128714713Y-76290736D01*
X128532813Y-76178108D01*
X128532807Y-76178106D01*
X128333297Y-76100815D01*
X128157153Y-76067888D01*
X128094874Y-76036221D01*
X128059601Y-75975908D01*
X128062535Y-75906100D01*
X128102744Y-75848960D01*
X128157152Y-75824112D01*
X128333297Y-75791185D01*
X128532810Y-75713893D01*
X128714722Y-75601258D01*
X128872841Y-75457114D01*
X129001781Y-75286370D01*
X129097151Y-75094840D01*
X129097151Y-75094837D01*
X129097153Y-75094835D01*
X129144814Y-74927323D01*
X129155704Y-74889048D01*
X129175446Y-74676000D01*
X129155704Y-74462952D01*
X129150150Y-74443431D01*
X129150738Y-74373566D01*
X129189005Y-74315108D01*
X129252803Y-74286618D01*
X129269417Y-74285500D01*
X141072200Y-74285500D01*
X141139239Y-74305185D01*
X141173775Y-74338376D01*
X141269174Y-74474620D01*
X141269175Y-74474621D01*
X141425378Y-74630824D01*
X141425384Y-74630829D01*
X141606333Y-74757531D01*
X141606335Y-74757532D01*
X141606338Y-74757534D01*
X141725748Y-74813215D01*
X141735189Y-74817618D01*
X141787628Y-74863790D01*
X141806780Y-74930984D01*
X141786564Y-74997865D01*
X141735189Y-75042382D01*
X141606340Y-75102465D01*
X141606338Y-75102466D01*
X141425377Y-75229175D01*
X141269175Y-75385377D01*
X141142466Y-75566338D01*
X141142465Y-75566340D01*
X141049107Y-75766548D01*
X141049104Y-75766554D01*
X140991930Y-75979929D01*
X140991929Y-75979937D01*
X140972677Y-76199997D01*
X140972677Y-76200002D01*
X140991929Y-76420062D01*
X140991930Y-76420070D01*
X141049104Y-76633445D01*
X141049105Y-76633447D01*
X141049106Y-76633450D01*
X141125444Y-76797158D01*
X141142466Y-76833662D01*
X141142468Y-76833666D01*
X141269170Y-77014615D01*
X141269175Y-77014621D01*
X141425378Y-77170824D01*
X141425384Y-77170829D01*
X141606333Y-77297531D01*
X141606335Y-77297532D01*
X141606338Y-77297534D01*
X141725748Y-77353215D01*
X141735189Y-77357618D01*
X141787628Y-77403790D01*
X141806780Y-77470984D01*
X141786564Y-77537865D01*
X141735189Y-77582382D01*
X141606340Y-77642465D01*
X141606338Y-77642466D01*
X141425377Y-77769175D01*
X141269175Y-77925377D01*
X141142466Y-78106338D01*
X141142465Y-78106340D01*
X141049107Y-78306548D01*
X141049104Y-78306554D01*
X140991930Y-78519929D01*
X140991929Y-78519937D01*
X140972677Y-78739997D01*
X140972677Y-78740002D01*
X140991929Y-78960062D01*
X140991930Y-78960070D01*
X141049104Y-79173445D01*
X141049105Y-79173447D01*
X141049106Y-79173450D01*
X141139593Y-79367500D01*
X141142466Y-79373662D01*
X141142468Y-79373666D01*
X141269170Y-79554615D01*
X141269175Y-79554621D01*
X141425378Y-79710824D01*
X141425384Y-79710829D01*
X141606333Y-79837531D01*
X141606335Y-79837532D01*
X141606338Y-79837534D01*
X141806550Y-79930894D01*
X142019932Y-79988070D01*
X142177123Y-80001822D01*
X142239998Y-80007323D01*
X142240000Y-80007323D01*
X142240002Y-80007323D01*
X142295017Y-80002509D01*
X142460068Y-79988070D01*
X142673450Y-79930894D01*
X142873662Y-79837534D01*
X143054620Y-79710826D01*
X143210826Y-79554620D01*
X143337534Y-79373662D01*
X143430894Y-79173450D01*
X143488070Y-78960068D01*
X143507323Y-78740000D01*
X143488070Y-78519932D01*
X143430894Y-78306550D01*
X143337534Y-78106339D01*
X143210826Y-77925380D01*
X143054620Y-77769174D01*
X143054616Y-77769171D01*
X143054615Y-77769170D01*
X142873666Y-77642468D01*
X142873658Y-77642464D01*
X142744811Y-77582382D01*
X142692371Y-77536210D01*
X142673219Y-77469017D01*
X142693435Y-77402135D01*
X142744811Y-77357618D01*
X142750802Y-77354824D01*
X142873662Y-77297534D01*
X143054620Y-77170826D01*
X143210826Y-77014620D01*
X143337534Y-76833662D01*
X143430894Y-76633450D01*
X143488070Y-76420068D01*
X143507323Y-76200000D01*
X143488070Y-75979932D01*
X143476292Y-75935976D01*
X143477955Y-75866128D01*
X143508384Y-75816205D01*
X144503858Y-74820733D01*
X144572312Y-74718285D01*
X144608538Y-74630826D01*
X144619463Y-74604452D01*
X144643500Y-74483606D01*
X144643500Y-65470394D01*
X144619463Y-65349548D01*
X144572311Y-65235714D01*
X144572310Y-65235713D01*
X144572307Y-65235707D01*
X144503859Y-65133268D01*
X144496961Y-65126370D01*
X144416733Y-65046142D01*
X144416732Y-65046141D01*
X142986927Y-63616337D01*
X142986925Y-63616334D01*
X142986925Y-63616335D01*
X142979858Y-63609268D01*
X142979858Y-63609267D01*
X142892733Y-63522142D01*
X142826830Y-63478107D01*
X142826829Y-63478106D01*
X142790285Y-63453687D01*
X142750039Y-63437017D01*
X142709792Y-63420347D01*
X142676453Y-63406537D01*
X142666427Y-63404543D01*
X142616029Y-63394518D01*
X142555610Y-63382500D01*
X142555607Y-63382500D01*
X142555606Y-63382500D01*
X134681606Y-63382500D01*
X134558393Y-63382500D01*
X134558388Y-63382500D01*
X134437555Y-63406535D01*
X134437547Y-63406537D01*
X134323716Y-63453687D01*
X134221265Y-63522142D01*
X134221262Y-63522145D01*
X129825229Y-67918181D01*
X129763906Y-67951666D01*
X129737548Y-67954500D01*
X129033221Y-67954500D01*
X128966182Y-67934815D01*
X128920427Y-67882011D01*
X128910483Y-67812853D01*
X128934267Y-67755773D01*
X128953145Y-67730774D01*
X129001781Y-67666370D01*
X129097151Y-67474840D01*
X129097151Y-67474837D01*
X129097153Y-67474835D01*
X129144814Y-67307323D01*
X129155704Y-67269048D01*
X129175446Y-67056000D01*
X129155704Y-66842952D01*
X129147200Y-66813065D01*
X129097153Y-66637164D01*
X129097150Y-66637158D01*
X129015634Y-66473451D01*
X129001781Y-66445630D01*
X128872841Y-66274886D01*
X128714722Y-66130742D01*
X128714716Y-66130738D01*
X128714713Y-66130736D01*
X128532813Y-66018108D01*
X128532807Y-66018106D01*
X128333297Y-65940815D01*
X128157153Y-65907888D01*
X128094874Y-65876221D01*
X128059601Y-65815908D01*
X128062535Y-65746100D01*
X128102744Y-65688960D01*
X128157152Y-65664112D01*
X128333297Y-65631185D01*
X128532810Y-65553893D01*
X128714722Y-65441258D01*
X128872841Y-65297114D01*
X129001781Y-65126370D01*
X129097151Y-64934840D01*
X129097151Y-64934837D01*
X129097153Y-64934835D01*
X129139633Y-64785532D01*
X129155704Y-64729048D01*
X129175446Y-64516000D01*
X129155704Y-64302952D01*
X129147200Y-64273065D01*
X129097153Y-64097164D01*
X129097150Y-64097158D01*
X129001781Y-63905630D01*
X128872841Y-63734886D01*
X128714722Y-63590742D01*
X128714716Y-63590738D01*
X128714713Y-63590736D01*
X128532810Y-63478107D01*
X128532807Y-63478106D01*
X128333297Y-63400815D01*
X128157153Y-63367888D01*
X128094874Y-63336221D01*
X128059601Y-63275908D01*
X128062535Y-63206100D01*
X128102744Y-63148960D01*
X128157152Y-63124112D01*
X128333297Y-63091185D01*
X128532810Y-63013893D01*
X128714722Y-62901258D01*
X128872841Y-62757114D01*
X129001781Y-62586370D01*
X129097151Y-62394840D01*
X129097151Y-62394837D01*
X129097153Y-62394835D01*
X129130679Y-62277000D01*
X129155704Y-62189048D01*
X129175446Y-61976000D01*
X129155704Y-61762952D01*
X129115620Y-61622070D01*
X129097153Y-61557164D01*
X129097150Y-61557158D01*
X129019889Y-61401997D01*
X129001781Y-61365630D01*
X128872841Y-61194886D01*
X128714722Y-61050742D01*
X128714716Y-61050738D01*
X128714713Y-61050736D01*
X128532813Y-60938108D01*
X128532807Y-60938106D01*
X128333297Y-60860815D01*
X128157153Y-60827888D01*
X128094874Y-60796221D01*
X128059601Y-60735908D01*
X128062535Y-60666100D01*
X128102744Y-60608960D01*
X128157152Y-60584112D01*
X128333297Y-60551185D01*
X128532810Y-60473893D01*
X128714722Y-60361258D01*
X128872841Y-60217114D01*
X129001781Y-60046370D01*
X129097151Y-59854840D01*
X129097151Y-59854837D01*
X129097153Y-59854835D01*
X129130679Y-59737000D01*
X129155704Y-59649048D01*
X129175446Y-59436000D01*
X129155704Y-59222952D01*
X129115620Y-59082070D01*
X129097153Y-59017164D01*
X129097150Y-59017158D01*
X129019889Y-58861997D01*
X129001781Y-58825630D01*
X128872841Y-58654886D01*
X128714722Y-58510742D01*
X128714716Y-58510738D01*
X128714713Y-58510736D01*
X128532813Y-58398108D01*
X128532807Y-58398106D01*
X128532714Y-58398070D01*
X128333297Y-58320815D01*
X128157153Y-58287888D01*
X128094874Y-58256221D01*
X128059601Y-58195908D01*
X128062535Y-58126100D01*
X128102744Y-58068960D01*
X128157152Y-58044112D01*
X128333297Y-58011185D01*
X128532810Y-57933893D01*
X128714722Y-57821258D01*
X128872841Y-57677114D01*
X129001781Y-57506370D01*
X129097151Y-57314840D01*
X129097151Y-57314837D01*
X129097153Y-57314835D01*
X129130679Y-57197000D01*
X129155704Y-57109048D01*
X129175446Y-56896000D01*
X129173915Y-56879483D01*
X129155704Y-56682952D01*
X129155703Y-56682949D01*
X129097153Y-56477164D01*
X129097150Y-56477158D01*
X129026552Y-56335377D01*
X129001781Y-56285630D01*
X128872841Y-56114886D01*
X128714722Y-55970742D01*
X128714716Y-55970738D01*
X128714713Y-55970736D01*
X128532813Y-55858108D01*
X128532807Y-55858106D01*
X128532714Y-55858070D01*
X128333297Y-55780815D01*
X128157153Y-55747888D01*
X128094874Y-55716221D01*
X128059601Y-55655908D01*
X128062535Y-55586100D01*
X128102744Y-55528960D01*
X128157152Y-55504112D01*
X128333297Y-55471185D01*
X128532810Y-55393893D01*
X128714722Y-55281258D01*
X128872841Y-55137114D01*
X129001781Y-54966370D01*
X129097151Y-54774840D01*
X129097151Y-54774837D01*
X129097153Y-54774835D01*
X129144053Y-54609997D01*
X141226677Y-54609997D01*
X141226677Y-54610002D01*
X141245929Y-54830062D01*
X141245930Y-54830070D01*
X141303104Y-55043445D01*
X141303105Y-55043447D01*
X141303106Y-55043450D01*
X141323307Y-55086771D01*
X141396466Y-55243662D01*
X141396468Y-55243666D01*
X141523170Y-55424615D01*
X141523175Y-55424621D01*
X141679378Y-55580824D01*
X141679384Y-55580829D01*
X141860333Y-55707531D01*
X141860335Y-55707532D01*
X141860338Y-55707534D01*
X141933179Y-55741500D01*
X141989189Y-55767618D01*
X142041628Y-55813790D01*
X142060780Y-55880984D01*
X142040564Y-55947865D01*
X141989189Y-55992382D01*
X141860340Y-56052465D01*
X141860338Y-56052466D01*
X141679377Y-56179175D01*
X141523175Y-56335377D01*
X141396466Y-56516338D01*
X141396465Y-56516340D01*
X141303107Y-56716548D01*
X141303104Y-56716554D01*
X141245930Y-56929929D01*
X141245929Y-56929937D01*
X141226677Y-57149997D01*
X141226677Y-57150002D01*
X141245929Y-57370062D01*
X141245930Y-57370070D01*
X141303104Y-57583445D01*
X141303105Y-57583447D01*
X141303106Y-57583450D01*
X141387514Y-57764465D01*
X141396466Y-57783662D01*
X141396468Y-57783666D01*
X141523170Y-57964615D01*
X141523175Y-57964621D01*
X141679378Y-58120824D01*
X141679384Y-58120829D01*
X141860333Y-58247531D01*
X141860335Y-58247532D01*
X141860338Y-58247534D01*
X142060550Y-58340894D01*
X142273932Y-58398070D01*
X142431123Y-58411822D01*
X142493998Y-58417323D01*
X142494000Y-58417323D01*
X142494002Y-58417323D01*
X142549017Y-58412509D01*
X142714068Y-58398070D01*
X142927450Y-58340894D01*
X143127662Y-58247534D01*
X143308620Y-58120826D01*
X143464826Y-57964620D01*
X143591534Y-57783662D01*
X143684894Y-57583450D01*
X143742070Y-57370068D01*
X143761323Y-57150000D01*
X143759204Y-57125784D01*
X143754103Y-57067474D01*
X143742070Y-56929932D01*
X143684894Y-56716550D01*
X143591534Y-56516339D01*
X143464826Y-56335380D01*
X143308620Y-56179174D01*
X143308616Y-56179171D01*
X143308615Y-56179170D01*
X143127666Y-56052468D01*
X143127658Y-56052464D01*
X142998811Y-55992382D01*
X142946371Y-55946210D01*
X142927219Y-55879017D01*
X142947435Y-55812135D01*
X142998811Y-55767618D01*
X143054821Y-55741500D01*
X143127662Y-55707534D01*
X143308620Y-55580826D01*
X143464826Y-55424620D01*
X143591534Y-55243662D01*
X143684894Y-55043450D01*
X143742070Y-54830068D01*
X143761323Y-54610000D01*
X143742070Y-54389932D01*
X143684894Y-54176550D01*
X143591534Y-53976339D01*
X143505275Y-53853147D01*
X143464827Y-53795381D01*
X143387210Y-53717764D01*
X143308620Y-53639174D01*
X143308616Y-53639171D01*
X143308615Y-53639170D01*
X143127666Y-53512468D01*
X143127662Y-53512466D01*
X143127660Y-53512465D01*
X142927450Y-53419106D01*
X142927447Y-53419105D01*
X142927445Y-53419104D01*
X142714070Y-53361930D01*
X142714062Y-53361929D01*
X142494002Y-53342677D01*
X142493998Y-53342677D01*
X142273937Y-53361929D01*
X142273929Y-53361930D01*
X142060554Y-53419104D01*
X142060548Y-53419107D01*
X141860340Y-53512465D01*
X141860338Y-53512466D01*
X141679377Y-53639175D01*
X141523175Y-53795377D01*
X141396466Y-53976338D01*
X141396465Y-53976340D01*
X141303107Y-54176548D01*
X141303104Y-54176554D01*
X141245930Y-54389929D01*
X141245929Y-54389937D01*
X141226677Y-54609997D01*
X129144053Y-54609997D01*
X129155704Y-54569048D01*
X129155704Y-54569047D01*
X129155828Y-54567715D01*
X129175446Y-54356000D01*
X129164856Y-54241722D01*
X129155704Y-54142952D01*
X129155703Y-54142949D01*
X129097153Y-53937164D01*
X129097150Y-53937158D01*
X129041725Y-53825849D01*
X129001781Y-53745630D01*
X128872841Y-53574886D01*
X128714722Y-53430742D01*
X128714716Y-53430738D01*
X128714713Y-53430736D01*
X128532813Y-53318108D01*
X128532807Y-53318106D01*
X128333297Y-53240815D01*
X128157153Y-53207888D01*
X128094874Y-53176221D01*
X128059601Y-53115908D01*
X128062535Y-53046100D01*
X128102744Y-52988960D01*
X128157152Y-52964112D01*
X128333297Y-52931185D01*
X128532810Y-52853893D01*
X128714722Y-52741258D01*
X128872841Y-52597114D01*
X129001781Y-52426370D01*
X129097151Y-52234840D01*
X129097151Y-52234837D01*
X129097153Y-52234835D01*
X129155703Y-52029050D01*
X129155704Y-52029047D01*
X129175446Y-51816000D01*
X129175446Y-51815999D01*
X129155704Y-51602952D01*
X129155703Y-51602949D01*
X129097153Y-51397164D01*
X129097150Y-51397158D01*
X129001781Y-51205630D01*
X128872841Y-51034886D01*
X128714722Y-50890742D01*
X128714716Y-50890738D01*
X128714713Y-50890736D01*
X128532813Y-50778108D01*
X128532807Y-50778106D01*
X128333297Y-50700815D01*
X128157153Y-50667888D01*
X128094874Y-50636221D01*
X128059601Y-50575908D01*
X128062535Y-50506100D01*
X128102744Y-50448960D01*
X128157152Y-50424112D01*
X128333297Y-50391185D01*
X128532810Y-50313893D01*
X128714722Y-50201258D01*
X128872841Y-50057114D01*
X129001781Y-49886370D01*
X129097151Y-49694840D01*
X129097151Y-49694837D01*
X129097153Y-49694835D01*
X129155703Y-49489050D01*
X129155704Y-49489047D01*
X129175446Y-49276000D01*
X129175446Y-49275999D01*
X129155704Y-49062952D01*
X129155703Y-49062949D01*
X129097153Y-48857164D01*
X129097150Y-48857158D01*
X129001781Y-48665630D01*
X128872841Y-48494886D01*
X128714722Y-48350742D01*
X128714716Y-48350738D01*
X128714713Y-48350736D01*
X128532813Y-48238108D01*
X128532807Y-48238106D01*
X128333297Y-48160815D01*
X128122980Y-48121500D01*
X127909020Y-48121500D01*
X127698703Y-48160815D01*
X127572533Y-48209693D01*
X127499192Y-48238106D01*
X127499186Y-48238108D01*
X127317286Y-48350736D01*
X127317283Y-48350738D01*
X127317279Y-48350740D01*
X127317278Y-48350742D01*
X127188995Y-48467687D01*
X127159158Y-48494887D01*
X127030219Y-48665629D01*
X126934849Y-48857158D01*
X126934846Y-48857164D01*
X126876296Y-49062949D01*
X126876295Y-49062952D01*
X126856554Y-49275999D01*
X126856554Y-49276000D01*
X126876295Y-49489047D01*
X126876296Y-49489050D01*
X126934846Y-49694835D01*
X126934849Y-49694841D01*
X127003893Y-49833500D01*
X127030219Y-49886370D01*
X127159159Y-50057114D01*
X127317278Y-50201258D01*
X127317283Y-50201261D01*
X127317286Y-50201263D01*
X127499186Y-50313891D01*
X127499187Y-50313891D01*
X127499190Y-50313893D01*
X127698703Y-50391185D01*
X127874845Y-50424111D01*
X127937125Y-50455779D01*
X127972398Y-50516092D01*
X127969464Y-50585900D01*
X127929255Y-50643040D01*
X127874845Y-50667888D01*
X127698703Y-50700815D01*
X127572533Y-50749693D01*
X127499192Y-50778106D01*
X127499186Y-50778108D01*
X127317286Y-50890736D01*
X127317283Y-50890738D01*
X127317279Y-50890740D01*
X127317278Y-50890742D01*
X127159159Y-51034886D01*
X127159158Y-51034887D01*
X127030219Y-51205629D01*
X126934849Y-51397158D01*
X126934846Y-51397164D01*
X126876296Y-51602949D01*
X126876295Y-51602952D01*
X126856554Y-51815999D01*
X126856554Y-51816000D01*
X126876295Y-52029047D01*
X126876296Y-52029050D01*
X126934846Y-52234835D01*
X126934849Y-52234840D01*
X127030219Y-52426370D01*
X127159159Y-52597114D01*
X127317278Y-52741258D01*
X127317283Y-52741261D01*
X127317286Y-52741263D01*
X127499186Y-52853891D01*
X127499187Y-52853891D01*
X127499190Y-52853893D01*
X127698703Y-52931185D01*
X127874845Y-52964111D01*
X127937125Y-52995779D01*
X127972398Y-53056092D01*
X127969464Y-53125900D01*
X127929255Y-53183040D01*
X127874845Y-53207888D01*
X127698703Y-53240815D01*
X127572533Y-53289693D01*
X127499192Y-53318106D01*
X127499186Y-53318108D01*
X127317286Y-53430736D01*
X127317283Y-53430738D01*
X127317279Y-53430740D01*
X127317278Y-53430742D01*
X127227632Y-53512465D01*
X127159158Y-53574887D01*
X127030219Y-53745629D01*
X126934849Y-53937158D01*
X126934846Y-53937164D01*
X126876296Y-54142949D01*
X126876295Y-54142952D01*
X126856554Y-54355999D01*
X126856554Y-54356000D01*
X126876295Y-54569047D01*
X126876296Y-54569048D01*
X126934846Y-54774835D01*
X126934849Y-54774841D01*
X126948569Y-54802394D01*
X127030219Y-54966370D01*
X127159159Y-55137114D01*
X127317278Y-55281258D01*
X127317283Y-55281261D01*
X127317286Y-55281263D01*
X127499186Y-55393891D01*
X127499187Y-55393891D01*
X127499190Y-55393893D01*
X127698703Y-55471185D01*
X127874845Y-55504111D01*
X127937125Y-55535779D01*
X127972398Y-55596092D01*
X127969464Y-55665900D01*
X127929255Y-55723040D01*
X127874845Y-55747888D01*
X127698703Y-55780815D01*
X127617857Y-55812135D01*
X127499192Y-55858106D01*
X127499186Y-55858108D01*
X127317286Y-55970736D01*
X127317283Y-55970738D01*
X127317279Y-55970740D01*
X127317278Y-55970742D01*
X127227633Y-56052464D01*
X127159158Y-56114887D01*
X127030219Y-56285629D01*
X126934849Y-56477158D01*
X126934846Y-56477164D01*
X126876296Y-56682949D01*
X126876295Y-56682952D01*
X126856554Y-56895999D01*
X126856554Y-56896000D01*
X126876295Y-57109047D01*
X126876296Y-57109050D01*
X126934846Y-57314835D01*
X126934849Y-57314841D01*
X127030219Y-57506370D01*
X127159159Y-57677114D01*
X127317278Y-57821258D01*
X127317283Y-57821261D01*
X127317286Y-57821263D01*
X127499186Y-57933891D01*
X127499187Y-57933891D01*
X127499190Y-57933893D01*
X127698703Y-58011185D01*
X127874845Y-58044111D01*
X127937125Y-58075779D01*
X127972398Y-58136092D01*
X127969464Y-58205900D01*
X127929255Y-58263040D01*
X127874845Y-58287888D01*
X127698703Y-58320815D01*
X127646871Y-58340895D01*
X127499192Y-58398106D01*
X127499186Y-58398108D01*
X127317286Y-58510736D01*
X127317283Y-58510738D01*
X127317279Y-58510740D01*
X127317278Y-58510742D01*
X127159159Y-58654886D01*
X127159158Y-58654887D01*
X127030219Y-58825629D01*
X126934849Y-59017158D01*
X126934846Y-59017164D01*
X126876296Y-59222949D01*
X126876295Y-59222952D01*
X126856554Y-59435999D01*
X126856554Y-59436000D01*
X126876295Y-59649047D01*
X126876296Y-59649050D01*
X126934846Y-59854835D01*
X126934849Y-59854841D01*
X127016058Y-60017930D01*
X127030219Y-60046370D01*
X127159159Y-60217114D01*
X127317278Y-60361258D01*
X127317283Y-60361261D01*
X127317286Y-60361263D01*
X127499186Y-60473891D01*
X127499187Y-60473891D01*
X127499190Y-60473893D01*
X127698703Y-60551185D01*
X127874845Y-60584111D01*
X127937125Y-60615779D01*
X127972398Y-60676092D01*
X127969464Y-60745900D01*
X127929255Y-60803040D01*
X127874845Y-60827888D01*
X127698703Y-60860815D01*
X127572533Y-60909693D01*
X127499192Y-60938106D01*
X127499186Y-60938108D01*
X127317286Y-61050736D01*
X127317283Y-61050738D01*
X127317279Y-61050740D01*
X127317278Y-61050742D01*
X127159159Y-61194886D01*
X127159158Y-61194887D01*
X127030219Y-61365629D01*
X126934849Y-61557158D01*
X126934846Y-61557164D01*
X126876296Y-61762949D01*
X126876295Y-61762952D01*
X126856554Y-61975999D01*
X126856554Y-61976000D01*
X126876295Y-62189047D01*
X126876296Y-62189050D01*
X126934846Y-62394835D01*
X126934849Y-62394841D01*
X126986980Y-62499534D01*
X127030219Y-62586370D01*
X127159159Y-62757114D01*
X127317278Y-62901258D01*
X127317283Y-62901261D01*
X127317286Y-62901263D01*
X127499186Y-63013891D01*
X127499187Y-63013891D01*
X127499190Y-63013893D01*
X127698703Y-63091185D01*
X127874845Y-63124111D01*
X127937125Y-63155779D01*
X127972398Y-63216092D01*
X127969464Y-63285900D01*
X127929255Y-63343040D01*
X127874845Y-63367888D01*
X127698703Y-63400815D01*
X127648283Y-63420348D01*
X127499192Y-63478106D01*
X127499190Y-63478107D01*
X127317286Y-63590736D01*
X127317283Y-63590738D01*
X127317279Y-63590740D01*
X127317278Y-63590742D01*
X127159159Y-63734886D01*
X127159158Y-63734887D01*
X127030219Y-63905629D01*
X126934849Y-64097158D01*
X126934846Y-64097164D01*
X126876296Y-64302949D01*
X126876295Y-64302952D01*
X126856554Y-64515999D01*
X126856554Y-64516000D01*
X126876295Y-64729047D01*
X126876296Y-64729050D01*
X126934846Y-64934835D01*
X126934849Y-64934841D01*
X126938646Y-64942466D01*
X127030219Y-65126370D01*
X127159159Y-65297114D01*
X127317278Y-65441258D01*
X127317283Y-65441261D01*
X127317286Y-65441263D01*
X127499186Y-65553891D01*
X127499187Y-65553891D01*
X127499190Y-65553893D01*
X127698703Y-65631185D01*
X127874845Y-65664111D01*
X127937125Y-65695779D01*
X127972398Y-65756092D01*
X127969464Y-65825900D01*
X127929255Y-65883040D01*
X127874845Y-65907888D01*
X127698703Y-65940815D01*
X127572533Y-65989693D01*
X127499192Y-66018106D01*
X127499186Y-66018108D01*
X127317286Y-66130736D01*
X127317283Y-66130738D01*
X127317279Y-66130740D01*
X127317278Y-66130742D01*
X127159159Y-66274886D01*
X127159158Y-66274887D01*
X127078854Y-66381227D01*
X127022745Y-66422863D01*
X126979900Y-66430500D01*
X126802453Y-66430500D01*
X126735414Y-66410815D01*
X126714772Y-66394181D01*
X125629819Y-65309228D01*
X125596334Y-65247905D01*
X125593500Y-65221547D01*
X125593500Y-54802393D01*
X125593499Y-54802389D01*
X125592677Y-54798256D01*
X125569463Y-54681548D01*
X125522864Y-54569048D01*
X125522312Y-54567715D01*
X125499391Y-54533412D01*
X125453858Y-54465266D01*
X125453855Y-54465263D01*
X123682928Y-52694338D01*
X123682925Y-52694334D01*
X123682925Y-52694335D01*
X123675858Y-52687268D01*
X123675858Y-52687267D01*
X123588733Y-52600142D01*
X123588732Y-52600141D01*
X123588731Y-52600140D01*
X123537509Y-52565915D01*
X123486287Y-52531689D01*
X123486286Y-52531688D01*
X123486283Y-52531686D01*
X123486280Y-52531685D01*
X123405792Y-52498347D01*
X123372453Y-52484537D01*
X123362427Y-52482543D01*
X123312029Y-52472518D01*
X123251610Y-52460500D01*
X123251607Y-52460500D01*
X123251606Y-52460500D01*
X113945053Y-52460500D01*
X113878014Y-52440815D01*
X113832259Y-52388011D01*
X113822315Y-52318853D01*
X113834053Y-52281228D01*
X113843249Y-52262757D01*
X113857151Y-52234840D01*
X113857151Y-52234837D01*
X113857153Y-52234835D01*
X113915703Y-52029050D01*
X113915704Y-52029047D01*
X113935446Y-51816000D01*
X113935446Y-51815999D01*
X113915704Y-51602952D01*
X113915703Y-51602949D01*
X113857153Y-51397164D01*
X113857150Y-51397158D01*
X113761781Y-51205630D01*
X113632841Y-51034886D01*
X113474722Y-50890742D01*
X113474716Y-50890738D01*
X113474713Y-50890736D01*
X113292813Y-50778108D01*
X113292807Y-50778106D01*
X113093297Y-50700815D01*
X112917153Y-50667888D01*
X112854874Y-50636221D01*
X112819601Y-50575908D01*
X112822535Y-50506100D01*
X112862744Y-50448960D01*
X112917152Y-50424112D01*
X113093297Y-50391185D01*
X113292810Y-50313893D01*
X113474722Y-50201258D01*
X113632841Y-50057114D01*
X113761781Y-49886370D01*
X113857151Y-49694840D01*
X113857151Y-49694837D01*
X113857153Y-49694835D01*
X113915703Y-49489050D01*
X113915704Y-49489047D01*
X113935446Y-49276000D01*
X113935446Y-49275999D01*
X113915704Y-49062952D01*
X113915703Y-49062949D01*
X113857153Y-48857164D01*
X113857150Y-48857158D01*
X113761781Y-48665630D01*
X113632841Y-48494886D01*
X113474722Y-48350742D01*
X113474716Y-48350738D01*
X113474713Y-48350736D01*
X113292813Y-48238108D01*
X113292807Y-48238106D01*
X113093297Y-48160815D01*
X112882980Y-48121500D01*
X112669020Y-48121500D01*
X112458703Y-48160815D01*
X112332533Y-48209693D01*
X112259192Y-48238106D01*
X112259186Y-48238108D01*
X112077286Y-48350736D01*
X112077283Y-48350738D01*
X112077279Y-48350740D01*
X112077278Y-48350742D01*
X111948995Y-48467687D01*
X111919158Y-48494887D01*
X111838854Y-48601227D01*
X111782745Y-48642863D01*
X111739900Y-48650500D01*
X109530452Y-48650500D01*
X109463413Y-48630815D01*
X109442771Y-48614181D01*
X107849819Y-47021229D01*
X107816334Y-46959906D01*
X107813500Y-46933548D01*
X107813500Y-44703997D01*
X141226677Y-44703997D01*
X141226677Y-44704002D01*
X141245929Y-44924062D01*
X141245930Y-44924070D01*
X141303104Y-45137445D01*
X141303105Y-45137447D01*
X141303106Y-45137450D01*
X141373130Y-45287618D01*
X141396466Y-45337662D01*
X141396468Y-45337666D01*
X141523170Y-45518615D01*
X141523175Y-45518621D01*
X141679378Y-45674824D01*
X141679384Y-45674829D01*
X141860333Y-45801531D01*
X141860335Y-45801532D01*
X141860338Y-45801534D01*
X141975812Y-45855380D01*
X141989189Y-45861618D01*
X142041628Y-45907790D01*
X142060780Y-45974984D01*
X142040564Y-46041865D01*
X141989189Y-46086382D01*
X141860340Y-46146465D01*
X141860338Y-46146466D01*
X141679377Y-46273175D01*
X141523175Y-46429377D01*
X141396466Y-46610338D01*
X141396465Y-46610340D01*
X141303107Y-46810548D01*
X141303104Y-46810554D01*
X141245930Y-47023929D01*
X141245929Y-47023937D01*
X141226677Y-47243997D01*
X141226677Y-47244002D01*
X141245929Y-47464062D01*
X141245930Y-47464070D01*
X141303104Y-47677445D01*
X141303105Y-47677447D01*
X141303106Y-47677450D01*
X141345113Y-47767534D01*
X141396466Y-47877662D01*
X141396468Y-47877666D01*
X141523170Y-48058615D01*
X141523175Y-48058621D01*
X141679378Y-48214824D01*
X141679384Y-48214829D01*
X141860333Y-48341531D01*
X141860335Y-48341532D01*
X141860338Y-48341534D01*
X142060550Y-48434894D01*
X142273932Y-48492070D01*
X142431123Y-48505822D01*
X142493998Y-48511323D01*
X142494000Y-48511323D01*
X142494002Y-48511323D01*
X142549017Y-48506509D01*
X142714068Y-48492070D01*
X142927450Y-48434894D01*
X143127662Y-48341534D01*
X143308620Y-48214826D01*
X143464826Y-48058620D01*
X143591534Y-47877662D01*
X143684894Y-47677450D01*
X143742070Y-47464068D01*
X143761323Y-47244000D01*
X143742070Y-47023932D01*
X143684894Y-46810550D01*
X143591534Y-46610339D01*
X143479217Y-46449932D01*
X143464827Y-46429381D01*
X143451702Y-46416256D01*
X143308620Y-46273174D01*
X143308616Y-46273171D01*
X143308615Y-46273170D01*
X143127666Y-46146468D01*
X143127658Y-46146464D01*
X142998811Y-46086382D01*
X142946371Y-46040210D01*
X142927219Y-45973017D01*
X142947435Y-45906135D01*
X142998811Y-45861618D01*
X143012188Y-45855380D01*
X143127662Y-45801534D01*
X143308620Y-45674826D01*
X143464826Y-45518620D01*
X143591534Y-45337662D01*
X143684894Y-45137450D01*
X143742070Y-44924068D01*
X143761323Y-44704000D01*
X143742070Y-44483932D01*
X143684894Y-44270550D01*
X143591534Y-44070339D01*
X143477913Y-43908070D01*
X143464827Y-43889381D01*
X143464823Y-43889377D01*
X143308620Y-43733174D01*
X143308616Y-43733171D01*
X143308615Y-43733170D01*
X143127664Y-43606467D01*
X143061658Y-43575688D01*
X142927450Y-43513106D01*
X142927447Y-43513105D01*
X142927445Y-43513104D01*
X142714070Y-43455930D01*
X142714062Y-43455929D01*
X142494002Y-43436677D01*
X142493998Y-43436677D01*
X142273937Y-43455929D01*
X142273929Y-43455930D01*
X142060554Y-43513104D01*
X142060550Y-43513106D01*
X142027458Y-43528537D01*
X141860339Y-43606466D01*
X141679377Y-43733175D01*
X141523175Y-43889377D01*
X141396466Y-44070338D01*
X141396465Y-44070340D01*
X141303107Y-44270548D01*
X141303104Y-44270554D01*
X141245930Y-44483929D01*
X141245929Y-44483937D01*
X141226677Y-44703997D01*
X107813500Y-44703997D01*
X107813500Y-39116000D01*
X113140540Y-39116000D01*
X113160326Y-39304256D01*
X113160327Y-39304259D01*
X113218818Y-39484277D01*
X113218821Y-39484284D01*
X113313467Y-39648216D01*
X113440129Y-39788888D01*
X113593265Y-39900148D01*
X113593270Y-39900151D01*
X113766192Y-39977142D01*
X113766197Y-39977144D01*
X113951354Y-40016500D01*
X113951355Y-40016500D01*
X114140644Y-40016500D01*
X114140646Y-40016500D01*
X114325803Y-39977144D01*
X114498730Y-39900151D01*
X114651871Y-39788888D01*
X114778533Y-39648216D01*
X114873179Y-39484284D01*
X114873182Y-39484275D01*
X114885559Y-39446183D01*
X114924996Y-39388507D01*
X114989354Y-39361308D01*
X115003490Y-39360500D01*
X117378345Y-39360500D01*
X117445384Y-39380185D01*
X117491139Y-39432989D01*
X117501083Y-39502147D01*
X117487703Y-39542954D01*
X117388769Y-39728043D01*
X117328699Y-39926067D01*
X117308417Y-40132000D01*
X117328699Y-40337932D01*
X117329912Y-40341930D01*
X117388768Y-40535954D01*
X117486315Y-40718450D01*
X117486317Y-40718452D01*
X117617589Y-40878410D01*
X117712546Y-40956338D01*
X117777550Y-41009685D01*
X117960046Y-41107232D01*
X118158066Y-41167300D01*
X118158065Y-41167300D01*
X118176529Y-41169118D01*
X118364000Y-41187583D01*
X118569934Y-41167300D01*
X118767954Y-41107232D01*
X118950450Y-41009685D01*
X119110410Y-40878410D01*
X119241685Y-40718450D01*
X119339232Y-40535954D01*
X119399300Y-40337934D01*
X119419583Y-40132000D01*
X119399300Y-39926066D01*
X119339232Y-39728046D01*
X119241685Y-39545550D01*
X119241683Y-39545547D01*
X119240297Y-39542954D01*
X119226055Y-39474551D01*
X119251055Y-39409307D01*
X119307359Y-39367936D01*
X119349655Y-39360500D01*
X119918345Y-39360500D01*
X119985384Y-39380185D01*
X120031139Y-39432989D01*
X120041083Y-39502147D01*
X120027703Y-39542954D01*
X119928769Y-39728043D01*
X119868699Y-39926067D01*
X119848417Y-40132000D01*
X119868699Y-40337932D01*
X119869912Y-40341930D01*
X119928768Y-40535954D01*
X120026315Y-40718450D01*
X120026317Y-40718452D01*
X120157589Y-40878410D01*
X120252546Y-40956338D01*
X120317550Y-41009685D01*
X120500046Y-41107232D01*
X120698066Y-41167300D01*
X120698065Y-41167300D01*
X120716529Y-41169118D01*
X120904000Y-41187583D01*
X121109934Y-41167300D01*
X121307954Y-41107232D01*
X121490450Y-41009685D01*
X121650410Y-40878410D01*
X121781685Y-40718450D01*
X121879232Y-40535954D01*
X121939300Y-40337934D01*
X121953251Y-40196279D01*
X121979411Y-40131494D01*
X122036446Y-40091135D01*
X122106246Y-40088018D01*
X122164335Y-40120754D01*
X122398573Y-40354992D01*
X122429552Y-40406677D01*
X122468768Y-40535954D01*
X122566315Y-40718450D01*
X122566317Y-40718452D01*
X122697589Y-40878410D01*
X122792546Y-40956338D01*
X122857550Y-41009685D01*
X123040046Y-41107232D01*
X123238066Y-41167300D01*
X123238065Y-41167300D01*
X123256529Y-41169118D01*
X123444000Y-41187583D01*
X123649934Y-41167300D01*
X123847954Y-41107232D01*
X124030450Y-41009685D01*
X124190410Y-40878410D01*
X124321685Y-40718450D01*
X124419232Y-40535954D01*
X124479300Y-40337934D01*
X124499583Y-40132000D01*
X124479300Y-39926066D01*
X124419232Y-39728046D01*
X124321685Y-39545550D01*
X124240137Y-39446183D01*
X124190410Y-39385589D01*
X124030452Y-39254317D01*
X124030453Y-39254317D01*
X124030450Y-39254315D01*
X123847954Y-39156768D01*
X123649934Y-39096700D01*
X123649932Y-39096699D01*
X123649934Y-39096699D01*
X123444000Y-39076417D01*
X123238067Y-39096699D01*
X123061404Y-39150289D01*
X122991537Y-39150912D01*
X122937728Y-39119309D01*
X122570859Y-38752440D01*
X122537374Y-38691117D01*
X122542358Y-38621425D01*
X122584230Y-38565492D01*
X122600081Y-38555404D01*
X122760450Y-38469685D01*
X122920410Y-38338410D01*
X123051685Y-38178450D01*
X123149232Y-37995954D01*
X123209300Y-37797934D01*
X123229583Y-37592000D01*
X123658417Y-37592000D01*
X123678699Y-37797932D01*
X123689929Y-37834951D01*
X123738768Y-37995954D01*
X123836315Y-38178450D01*
X123849571Y-38194602D01*
X123967589Y-38338410D01*
X124064209Y-38417702D01*
X124127550Y-38469685D01*
X124310046Y-38567232D01*
X124508066Y-38627300D01*
X124508065Y-38627300D01*
X124526529Y-38629118D01*
X124714000Y-38647583D01*
X124919934Y-38627300D01*
X125117954Y-38567232D01*
X125300450Y-38469685D01*
X125460410Y-38338410D01*
X125591685Y-38178450D01*
X125689232Y-37995954D01*
X125749300Y-37797934D01*
X125769583Y-37592000D01*
X125749300Y-37386066D01*
X125689232Y-37188046D01*
X125591685Y-37005550D01*
X125539702Y-36942209D01*
X125460410Y-36845589D01*
X125300452Y-36714317D01*
X125300453Y-36714317D01*
X125300450Y-36714315D01*
X125117954Y-36616768D01*
X124919934Y-36556700D01*
X124919932Y-36556699D01*
X124919934Y-36556699D01*
X124714000Y-36536417D01*
X124508067Y-36556699D01*
X124310043Y-36616769D01*
X124199898Y-36675643D01*
X124127550Y-36714315D01*
X124127548Y-36714316D01*
X124127547Y-36714317D01*
X123967589Y-36845589D01*
X123836317Y-37005547D01*
X123738769Y-37188043D01*
X123678699Y-37386067D01*
X123658417Y-37592000D01*
X123229583Y-37592000D01*
X123209300Y-37386066D01*
X123149232Y-37188046D01*
X123051685Y-37005550D01*
X122999702Y-36942209D01*
X122920410Y-36845589D01*
X122760452Y-36714317D01*
X122760453Y-36714317D01*
X122760450Y-36714315D01*
X122577954Y-36616768D01*
X122379934Y-36556700D01*
X122379932Y-36556699D01*
X122379934Y-36556699D01*
X122174000Y-36536417D01*
X121968067Y-36556699D01*
X121770043Y-36616769D01*
X121659898Y-36675643D01*
X121587550Y-36714315D01*
X121587548Y-36714316D01*
X121587547Y-36714317D01*
X121427589Y-36845589D01*
X121296317Y-37005547D01*
X121198769Y-37188043D01*
X121138699Y-37386067D01*
X121118417Y-37592000D01*
X121138699Y-37797932D01*
X121175345Y-37918737D01*
X121175968Y-37988604D01*
X121138720Y-38047717D01*
X121075425Y-38077308D01*
X121006181Y-38067981D01*
X120969003Y-38042413D01*
X120715721Y-37789131D01*
X120682236Y-37727808D01*
X120679999Y-37689300D01*
X120689583Y-37592000D01*
X120669300Y-37386066D01*
X120609232Y-37188046D01*
X120511685Y-37005550D01*
X120459702Y-36942209D01*
X120380410Y-36845589D01*
X120220452Y-36714317D01*
X120220453Y-36714317D01*
X120220450Y-36714315D01*
X120037954Y-36616768D01*
X119839934Y-36556700D01*
X119839932Y-36556699D01*
X119839934Y-36556699D01*
X119634000Y-36536417D01*
X119428067Y-36556699D01*
X119230043Y-36616769D01*
X119119898Y-36675643D01*
X119047550Y-36714315D01*
X119047548Y-36714316D01*
X119047547Y-36714317D01*
X118887589Y-36845589D01*
X118756317Y-37005547D01*
X118658769Y-37188043D01*
X118598699Y-37386067D01*
X118578417Y-37592000D01*
X118598699Y-37797932D01*
X118644678Y-37949505D01*
X118645301Y-38019372D01*
X118608052Y-38078485D01*
X118544758Y-38108076D01*
X118526017Y-38109500D01*
X118201983Y-38109500D01*
X118134944Y-38089815D01*
X118089189Y-38037011D01*
X118079245Y-37967853D01*
X118083322Y-37949505D01*
X118118073Y-37834945D01*
X118129300Y-37797934D01*
X118149583Y-37592000D01*
X118129300Y-37386066D01*
X118069232Y-37188046D01*
X117971685Y-37005550D01*
X117919702Y-36942209D01*
X117840410Y-36845589D01*
X117680452Y-36714317D01*
X117680453Y-36714317D01*
X117680450Y-36714315D01*
X117497954Y-36616768D01*
X117299934Y-36556700D01*
X117299932Y-36556699D01*
X117299934Y-36556699D01*
X117094000Y-36536417D01*
X116888067Y-36556699D01*
X116690043Y-36616769D01*
X116579898Y-36675643D01*
X116507550Y-36714315D01*
X116507548Y-36714316D01*
X116507547Y-36714317D01*
X116347589Y-36845589D01*
X116216317Y-37005547D01*
X116118769Y-37188043D01*
X116058699Y-37386067D01*
X116038417Y-37592000D01*
X116058699Y-37797932D01*
X116104678Y-37949505D01*
X116105301Y-38019372D01*
X116068052Y-38078485D01*
X116004758Y-38108076D01*
X115986017Y-38109500D01*
X114365389Y-38109500D01*
X114304971Y-38121518D01*
X114261743Y-38130116D01*
X114244546Y-38133537D01*
X114130715Y-38180688D01*
X114130711Y-38180690D01*
X114109891Y-38194602D01*
X114043214Y-38215480D01*
X114041001Y-38215500D01*
X113951354Y-38215500D01*
X113918897Y-38222398D01*
X113766197Y-38254855D01*
X113766192Y-38254857D01*
X113593270Y-38331848D01*
X113593265Y-38331851D01*
X113440129Y-38443111D01*
X113313466Y-38583785D01*
X113218821Y-38747715D01*
X113218818Y-38747722D01*
X113160327Y-38927740D01*
X113160326Y-38927744D01*
X113140540Y-39116000D01*
X107813500Y-39116000D01*
X107813500Y-34861497D01*
X141226677Y-34861497D01*
X141226677Y-34861502D01*
X141245929Y-35081562D01*
X141245930Y-35081570D01*
X141303104Y-35294945D01*
X141303105Y-35294947D01*
X141303106Y-35294950D01*
X141396466Y-35495162D01*
X141396468Y-35495166D01*
X141523170Y-35676115D01*
X141523175Y-35676121D01*
X141679378Y-35832324D01*
X141679384Y-35832329D01*
X141860333Y-35959031D01*
X141860335Y-35959032D01*
X141860338Y-35959034D01*
X141979748Y-36014715D01*
X141989189Y-36019118D01*
X142041628Y-36065290D01*
X142060780Y-36132484D01*
X142040564Y-36199365D01*
X141989189Y-36243882D01*
X141860340Y-36303965D01*
X141860338Y-36303966D01*
X141679377Y-36430675D01*
X141523175Y-36586877D01*
X141396466Y-36767838D01*
X141396465Y-36767840D01*
X141303107Y-36968048D01*
X141303104Y-36968054D01*
X141245930Y-37181429D01*
X141245929Y-37181437D01*
X141226677Y-37401497D01*
X141226677Y-37401502D01*
X141245929Y-37621562D01*
X141245930Y-37621570D01*
X141303104Y-37834945D01*
X141303105Y-37834947D01*
X141303106Y-37834950D01*
X141374756Y-37988604D01*
X141396466Y-38035162D01*
X141396468Y-38035166D01*
X141523170Y-38216115D01*
X141523175Y-38216121D01*
X141679378Y-38372324D01*
X141679384Y-38372329D01*
X141860333Y-38499031D01*
X141860335Y-38499032D01*
X141860338Y-38499034D01*
X142060550Y-38592394D01*
X142273932Y-38649570D01*
X142431123Y-38663322D01*
X142493998Y-38668823D01*
X142494000Y-38668823D01*
X142494002Y-38668823D01*
X142549017Y-38664009D01*
X142714068Y-38649570D01*
X142927450Y-38592394D01*
X143127662Y-38499034D01*
X143308620Y-38372326D01*
X143464826Y-38216120D01*
X143591534Y-38035162D01*
X143684894Y-37834950D01*
X143742070Y-37621568D01*
X143761323Y-37401500D01*
X143742070Y-37181432D01*
X143684894Y-36968050D01*
X143591534Y-36767839D01*
X143528180Y-36677359D01*
X143464827Y-36586881D01*
X143414363Y-36536417D01*
X143308620Y-36430674D01*
X143308616Y-36430671D01*
X143308615Y-36430670D01*
X143127666Y-36303968D01*
X143127658Y-36303964D01*
X142998811Y-36243882D01*
X142946371Y-36197710D01*
X142927219Y-36130517D01*
X142947435Y-36063635D01*
X142998811Y-36019118D01*
X143004802Y-36016324D01*
X143127662Y-35959034D01*
X143308620Y-35832326D01*
X143464826Y-35676120D01*
X143591534Y-35495162D01*
X143684894Y-35294950D01*
X143742070Y-35081568D01*
X143761323Y-34861500D01*
X143742070Y-34641432D01*
X143684894Y-34428050D01*
X143591534Y-34227839D01*
X143464826Y-34046880D01*
X143308620Y-33890674D01*
X143308616Y-33890671D01*
X143308615Y-33890670D01*
X143127666Y-33763968D01*
X143127662Y-33763966D01*
X143127660Y-33763965D01*
X142927450Y-33670606D01*
X142927447Y-33670605D01*
X142927445Y-33670604D01*
X142714070Y-33613430D01*
X142714062Y-33613429D01*
X142494002Y-33594177D01*
X142493998Y-33594177D01*
X142273937Y-33613429D01*
X142273929Y-33613430D01*
X142060554Y-33670604D01*
X142060548Y-33670607D01*
X141860340Y-33763965D01*
X141860338Y-33763966D01*
X141679377Y-33890675D01*
X141523175Y-34046877D01*
X141396466Y-34227838D01*
X141396465Y-34227840D01*
X141303107Y-34428048D01*
X141303104Y-34428054D01*
X141245930Y-34641429D01*
X141245929Y-34641437D01*
X141226677Y-34861497D01*
X107813500Y-34861497D01*
X107813500Y-31241994D01*
X112048556Y-31241994D01*
X112048556Y-31242005D01*
X112068310Y-31556004D01*
X112068311Y-31556011D01*
X112086254Y-31650070D01*
X112126958Y-31863451D01*
X112127270Y-31865083D01*
X112224497Y-32164316D01*
X112224499Y-32164321D01*
X112358461Y-32449003D01*
X112358464Y-32449009D01*
X112527051Y-32714661D01*
X112527054Y-32714665D01*
X112727606Y-32957090D01*
X112727608Y-32957092D01*
X112727610Y-32957094D01*
X112881422Y-33101533D01*
X112956968Y-33172476D01*
X112956978Y-33172484D01*
X113211504Y-33357408D01*
X113211509Y-33357410D01*
X113211516Y-33357416D01*
X113487234Y-33508994D01*
X113487239Y-33508996D01*
X113487241Y-33508997D01*
X113487242Y-33508998D01*
X113779771Y-33624818D01*
X113779774Y-33624819D01*
X114084523Y-33703065D01*
X114084527Y-33703066D01*
X114150010Y-33711338D01*
X114396670Y-33742499D01*
X114396679Y-33742499D01*
X114396682Y-33742500D01*
X114396684Y-33742500D01*
X114711316Y-33742500D01*
X114711318Y-33742500D01*
X114711321Y-33742499D01*
X114711329Y-33742499D01*
X114897593Y-33718968D01*
X115023473Y-33703066D01*
X115328225Y-33624819D01*
X115328228Y-33624818D01*
X115620757Y-33508998D01*
X115620758Y-33508997D01*
X115620756Y-33508997D01*
X115620766Y-33508994D01*
X115896484Y-33357416D01*
X116151030Y-33172478D01*
X116380390Y-32957094D01*
X116580947Y-32714663D01*
X116749537Y-32449007D01*
X116883503Y-32164315D01*
X116980731Y-31865079D01*
X117039688Y-31556015D01*
X117039689Y-31556004D01*
X117059444Y-31242005D01*
X117059444Y-31241994D01*
X117039689Y-30927995D01*
X117039688Y-30927988D01*
X117039688Y-30927985D01*
X116980731Y-30618921D01*
X116883503Y-30319685D01*
X116845584Y-30239104D01*
X116818680Y-30181929D01*
X116749537Y-30034993D01*
X116580947Y-29769337D01*
X116580945Y-29769334D01*
X116380393Y-29526909D01*
X116380391Y-29526907D01*
X116151031Y-29311523D01*
X116151021Y-29311515D01*
X115896495Y-29126591D01*
X115896488Y-29126586D01*
X115896484Y-29126584D01*
X115620766Y-28975006D01*
X115620763Y-28975004D01*
X115620758Y-28975002D01*
X115620757Y-28975001D01*
X115328228Y-28859182D01*
X115328226Y-28859181D01*
X115328225Y-28859181D01*
X115240268Y-28836597D01*
X115035319Y-28783975D01*
X114975281Y-28748237D01*
X114944096Y-28685713D01*
X114951664Y-28616255D01*
X114967209Y-28589137D01*
X114969058Y-28586689D01*
X115068229Y-28387528D01*
X115129115Y-28173536D01*
X115149643Y-27952000D01*
X115149643Y-27951999D01*
X122848357Y-27951999D01*
X122848357Y-27952000D01*
X122868884Y-28173535D01*
X122868885Y-28173537D01*
X122929769Y-28387523D01*
X122929775Y-28387538D01*
X123028938Y-28586683D01*
X123028943Y-28586691D01*
X123163020Y-28764238D01*
X123327437Y-28914123D01*
X123327439Y-28914125D01*
X123516595Y-29031245D01*
X123516596Y-29031245D01*
X123516599Y-29031247D01*
X123724060Y-29111618D01*
X123942757Y-29152500D01*
X123942759Y-29152500D01*
X124165242Y-29152500D01*
X124165243Y-29152500D01*
X124236838Y-29139116D01*
X124306351Y-29146146D01*
X124361031Y-29189642D01*
X124383514Y-29255796D01*
X124366662Y-29323603D01*
X124344507Y-29351396D01*
X124157608Y-29526907D01*
X124157606Y-29526909D01*
X123957054Y-29769334D01*
X123957051Y-29769338D01*
X123788464Y-30034990D01*
X123788461Y-30034996D01*
X123654499Y-30319678D01*
X123654497Y-30319683D01*
X123557270Y-30618916D01*
X123498311Y-30927988D01*
X123498310Y-30927995D01*
X123478556Y-31241994D01*
X123478556Y-31242005D01*
X123498310Y-31556004D01*
X123498311Y-31556011D01*
X123516254Y-31650070D01*
X123556958Y-31863451D01*
X123557270Y-31865083D01*
X123654497Y-32164316D01*
X123654499Y-32164321D01*
X123788461Y-32449003D01*
X123788464Y-32449009D01*
X123957051Y-32714661D01*
X123957054Y-32714665D01*
X124157606Y-32957090D01*
X124157608Y-32957092D01*
X124157610Y-32957094D01*
X124311422Y-33101533D01*
X124386968Y-33172476D01*
X124386978Y-33172484D01*
X124641504Y-33357408D01*
X124641509Y-33357410D01*
X124641516Y-33357416D01*
X124917234Y-33508994D01*
X124917239Y-33508996D01*
X124917241Y-33508997D01*
X124917242Y-33508998D01*
X125209771Y-33624818D01*
X125209774Y-33624819D01*
X125514523Y-33703065D01*
X125514527Y-33703066D01*
X125580010Y-33711338D01*
X125826670Y-33742499D01*
X125826679Y-33742499D01*
X125826682Y-33742500D01*
X125826684Y-33742500D01*
X126141316Y-33742500D01*
X126141318Y-33742500D01*
X126141321Y-33742499D01*
X126141329Y-33742499D01*
X126327593Y-33718968D01*
X126453473Y-33703066D01*
X126758225Y-33624819D01*
X126758228Y-33624818D01*
X127050757Y-33508998D01*
X127050758Y-33508997D01*
X127050756Y-33508997D01*
X127050766Y-33508994D01*
X127326484Y-33357416D01*
X127581030Y-33172478D01*
X127810390Y-32957094D01*
X128010947Y-32714663D01*
X128179537Y-32449007D01*
X128313503Y-32164315D01*
X128410731Y-31865079D01*
X128469688Y-31556015D01*
X128469689Y-31556004D01*
X128489444Y-31242005D01*
X128489444Y-31241994D01*
X128469689Y-30927995D01*
X128469688Y-30927988D01*
X128469688Y-30927985D01*
X128410731Y-30618921D01*
X128313503Y-30319685D01*
X128275584Y-30239104D01*
X128248680Y-30181929D01*
X128179537Y-30034993D01*
X128010947Y-29769337D01*
X128010945Y-29769334D01*
X127810393Y-29526909D01*
X127810391Y-29526907D01*
X127581031Y-29311523D01*
X127581021Y-29311515D01*
X127326495Y-29126591D01*
X127326488Y-29126586D01*
X127326484Y-29126584D01*
X127050766Y-28975006D01*
X127050763Y-28975004D01*
X127050758Y-28975002D01*
X127050757Y-28975001D01*
X126758228Y-28859181D01*
X126758225Y-28859180D01*
X126453476Y-28780934D01*
X126453463Y-28780932D01*
X126141329Y-28741500D01*
X126141318Y-28741500D01*
X125826682Y-28741500D01*
X125826670Y-28741500D01*
X125514536Y-28780932D01*
X125514523Y-28780934D01*
X125209779Y-28859179D01*
X125140737Y-28886515D01*
X125071159Y-28892891D01*
X125009179Y-28860638D01*
X124974475Y-28799996D01*
X124978065Y-28730219D01*
X124996134Y-28696497D01*
X125079058Y-28586689D01*
X125178229Y-28387528D01*
X125239115Y-28173536D01*
X125259643Y-27952000D01*
X125239115Y-27730464D01*
X125178229Y-27516472D01*
X125081203Y-27321618D01*
X125079061Y-27317316D01*
X125079056Y-27317308D01*
X124944979Y-27139761D01*
X124780562Y-26989876D01*
X124780560Y-26989874D01*
X124591404Y-26872754D01*
X124591398Y-26872752D01*
X124383940Y-26792382D01*
X124165243Y-26751500D01*
X123942757Y-26751500D01*
X123724060Y-26792382D01*
X123592864Y-26843207D01*
X123516601Y-26872752D01*
X123516595Y-26872754D01*
X123327439Y-26989874D01*
X123327437Y-26989876D01*
X123163020Y-27139761D01*
X123028943Y-27317308D01*
X123028938Y-27317316D01*
X122929775Y-27516461D01*
X122929769Y-27516476D01*
X122868885Y-27730462D01*
X122868884Y-27730464D01*
X122848357Y-27951999D01*
X115149643Y-27951999D01*
X115129115Y-27730464D01*
X115068229Y-27516472D01*
X114971203Y-27321618D01*
X114969061Y-27317316D01*
X114969056Y-27317308D01*
X114834979Y-27139761D01*
X114670562Y-26989876D01*
X114670560Y-26989874D01*
X114481404Y-26872754D01*
X114481398Y-26872752D01*
X114273940Y-26792382D01*
X114055243Y-26751500D01*
X113832757Y-26751500D01*
X113614060Y-26792382D01*
X113482864Y-26843207D01*
X113406601Y-26872752D01*
X113406595Y-26872754D01*
X113217439Y-26989874D01*
X113217437Y-26989876D01*
X113053020Y-27139761D01*
X112918943Y-27317308D01*
X112918938Y-27317316D01*
X112819775Y-27516461D01*
X112819769Y-27516476D01*
X112758885Y-27730462D01*
X112758884Y-27730464D01*
X112738357Y-27951999D01*
X112738357Y-27952000D01*
X112758884Y-28173535D01*
X112758885Y-28173537D01*
X112819769Y-28387523D01*
X112819775Y-28387538D01*
X112918938Y-28586683D01*
X112918943Y-28586691D01*
X113053020Y-28764238D01*
X113217433Y-28914120D01*
X113222010Y-28917576D01*
X113221013Y-28918895D01*
X113262497Y-28965170D01*
X113273605Y-29034151D01*
X113245656Y-29098187D01*
X113214409Y-29123891D01*
X113214639Y-29124253D01*
X113214668Y-29124293D01*
X113214665Y-29124294D01*
X113214797Y-29124502D01*
X113211508Y-29126588D01*
X112956978Y-29311515D01*
X112956968Y-29311523D01*
X112727608Y-29526907D01*
X112727606Y-29526909D01*
X112527054Y-29769334D01*
X112527051Y-29769338D01*
X112358464Y-30034990D01*
X112358461Y-30034996D01*
X112224499Y-30319678D01*
X112224497Y-30319683D01*
X112127270Y-30618916D01*
X112068311Y-30927988D01*
X112068310Y-30927995D01*
X112048556Y-31241994D01*
X107813500Y-31241994D01*
X107813500Y-30926396D01*
X107813500Y-30926394D01*
X107789463Y-30805548D01*
X107768910Y-30755930D01*
X107760935Y-30736677D01*
X107742310Y-30691711D01*
X107673858Y-30589267D01*
X107673855Y-30589263D01*
X105902928Y-28818338D01*
X105902925Y-28818334D01*
X105902925Y-28818335D01*
X105895858Y-28811268D01*
X105895858Y-28811267D01*
X105808733Y-28724142D01*
X105808732Y-28724141D01*
X105808731Y-28724140D01*
X105757509Y-28689915D01*
X105706287Y-28655689D01*
X105706286Y-28655688D01*
X105706283Y-28655686D01*
X105706280Y-28655685D01*
X105625792Y-28622347D01*
X105592452Y-28608537D01*
X105592453Y-28608537D01*
X105580072Y-28606074D01*
X105530207Y-28596156D01*
X105494904Y-28589134D01*
X105471608Y-28584500D01*
X105471607Y-28584500D01*
X105471606Y-28584500D01*
X94295607Y-28584500D01*
X94172393Y-28584500D01*
X94172392Y-28584500D01*
X94149096Y-28589134D01*
X94113793Y-28596156D01*
X94078118Y-28603252D01*
X94051545Y-28608537D01*
X94051541Y-28608539D01*
X94019262Y-28621909D01*
X94004397Y-28628067D01*
X93982169Y-28637274D01*
X93937713Y-28655688D01*
X93927557Y-28662475D01*
X93927449Y-28662547D01*
X93835268Y-28724140D01*
X93811172Y-28748237D01*
X93748142Y-28811267D01*
X93748139Y-28811270D01*
X91238229Y-31321181D01*
X91176906Y-31354666D01*
X91150548Y-31357500D01*
X91091354Y-31357500D01*
X91058897Y-31364398D01*
X90906197Y-31396855D01*
X90906192Y-31396857D01*
X90733270Y-31473848D01*
X90733265Y-31473851D01*
X90580129Y-31585111D01*
X90453466Y-31725785D01*
X90358821Y-31889715D01*
X90358818Y-31889722D01*
X90302302Y-32063662D01*
X90300326Y-32069744D01*
X90280540Y-32258000D01*
X90300326Y-32446256D01*
X90300327Y-32446259D01*
X90358818Y-32626277D01*
X90358821Y-32626284D01*
X90453467Y-32790216D01*
X90580129Y-32930888D01*
X90733265Y-33042148D01*
X90733270Y-33042151D01*
X90906192Y-33119142D01*
X90906197Y-33119144D01*
X91091354Y-33158500D01*
X91091355Y-33158500D01*
X91280644Y-33158500D01*
X91280646Y-33158500D01*
X91465803Y-33119144D01*
X91638730Y-33042151D01*
X91791871Y-32930888D01*
X91918533Y-32790216D01*
X92013179Y-32626284D01*
X92071674Y-32446256D01*
X92089321Y-32278345D01*
X92115905Y-32213732D01*
X92124952Y-32203636D01*
X92324591Y-32003997D01*
X99316677Y-32003997D01*
X99316677Y-32004002D01*
X99335929Y-32224062D01*
X99335930Y-32224070D01*
X99393104Y-32437445D01*
X99393105Y-32437447D01*
X99393106Y-32437450D01*
X99435113Y-32527534D01*
X99486466Y-32637662D01*
X99486468Y-32637666D01*
X99613170Y-32818615D01*
X99613175Y-32818621D01*
X99769378Y-32974824D01*
X99769384Y-32974829D01*
X99950333Y-33101531D01*
X99950335Y-33101532D01*
X99950338Y-33101534D01*
X100065805Y-33155377D01*
X100079189Y-33161618D01*
X100131628Y-33207790D01*
X100150780Y-33274984D01*
X100130564Y-33341865D01*
X100079189Y-33386382D01*
X99950340Y-33446465D01*
X99950338Y-33446466D01*
X99769377Y-33573175D01*
X99613175Y-33729377D01*
X99486466Y-33910338D01*
X99486465Y-33910340D01*
X99393107Y-34110548D01*
X99393104Y-34110554D01*
X99335930Y-34323929D01*
X99335929Y-34323937D01*
X99316677Y-34543997D01*
X99316677Y-34544002D01*
X99335929Y-34764062D01*
X99335930Y-34764070D01*
X99393104Y-34977445D01*
X99393105Y-34977447D01*
X99393106Y-34977450D01*
X99435113Y-35067534D01*
X99486466Y-35177662D01*
X99486468Y-35177666D01*
X99613170Y-35358615D01*
X99613175Y-35358621D01*
X99769378Y-35514824D01*
X99769384Y-35514829D01*
X99950333Y-35641531D01*
X99950335Y-35641532D01*
X99950338Y-35641534D01*
X100150550Y-35734894D01*
X100363932Y-35792070D01*
X100521123Y-35805822D01*
X100583998Y-35811323D01*
X100584000Y-35811323D01*
X100584002Y-35811323D01*
X100639017Y-35806509D01*
X100804068Y-35792070D01*
X101017450Y-35734894D01*
X101217662Y-35641534D01*
X101398620Y-35514826D01*
X101554826Y-35358620D01*
X101681534Y-35177662D01*
X101774894Y-34977450D01*
X101832070Y-34764068D01*
X101851323Y-34544000D01*
X101832070Y-34323932D01*
X101774894Y-34110550D01*
X101681534Y-33910339D01*
X101569217Y-33749932D01*
X101554827Y-33729381D01*
X101496050Y-33670604D01*
X101398620Y-33573174D01*
X101398616Y-33573171D01*
X101398615Y-33573170D01*
X101217666Y-33446468D01*
X101217658Y-33446464D01*
X101088811Y-33386382D01*
X101036371Y-33340210D01*
X101017219Y-33273017D01*
X101037435Y-33206135D01*
X101088811Y-33161618D01*
X101094802Y-33158824D01*
X101217662Y-33101534D01*
X101398620Y-32974826D01*
X101554826Y-32818620D01*
X101681534Y-32637662D01*
X101774894Y-32437450D01*
X101832070Y-32224068D01*
X101851323Y-32004000D01*
X101832070Y-31783932D01*
X101774894Y-31570550D01*
X101681534Y-31370339D01*
X101591671Y-31242000D01*
X101554827Y-31189381D01*
X101554823Y-31189377D01*
X101398620Y-31033174D01*
X101398616Y-31033171D01*
X101398615Y-31033170D01*
X101217666Y-30906468D01*
X101217662Y-30906466D01*
X101217660Y-30906465D01*
X101017450Y-30813106D01*
X101017447Y-30813105D01*
X101017445Y-30813104D01*
X100804070Y-30755930D01*
X100804062Y-30755929D01*
X100584002Y-30736677D01*
X100583998Y-30736677D01*
X100363937Y-30755929D01*
X100363929Y-30755930D01*
X100150554Y-30813104D01*
X100150548Y-30813107D01*
X99950340Y-30906465D01*
X99950338Y-30906466D01*
X99769377Y-31033175D01*
X99613175Y-31189377D01*
X99486466Y-31370338D01*
X99486465Y-31370340D01*
X99393107Y-31570548D01*
X99393104Y-31570554D01*
X99335930Y-31783929D01*
X99335929Y-31783937D01*
X99316677Y-32003997D01*
X92324591Y-32003997D01*
X94456771Y-29871819D01*
X94518094Y-29838334D01*
X94544452Y-29835500D01*
X105099548Y-29835500D01*
X105166587Y-29855185D01*
X105187229Y-29871819D01*
X106526181Y-31210771D01*
X106559666Y-31272094D01*
X106562500Y-31298452D01*
X106562500Y-47305611D01*
X106586535Y-47426444D01*
X106586540Y-47426461D01*
X106633685Y-47540281D01*
X106633687Y-47540285D01*
X106633688Y-47540286D01*
X106662880Y-47583973D01*
X106688937Y-47622971D01*
X106702143Y-47642735D01*
X106793586Y-47734178D01*
X106793608Y-47734198D01*
X108731016Y-49671606D01*
X108731045Y-49671637D01*
X108821266Y-49761858D01*
X108887544Y-49806143D01*
X108923715Y-49830312D01*
X108990396Y-49857931D01*
X108990398Y-49857933D01*
X109037543Y-49877461D01*
X109037548Y-49877463D01*
X109061068Y-49882141D01*
X109082286Y-49886362D01*
X109082306Y-49886365D01*
X109082328Y-49886370D01*
X109158391Y-49901499D01*
X109158392Y-49901500D01*
X109158393Y-49901500D01*
X109158394Y-49901500D01*
X111739900Y-49901500D01*
X111806939Y-49921185D01*
X111838854Y-49950773D01*
X111919159Y-50057114D01*
X112077278Y-50201258D01*
X112077283Y-50201261D01*
X112077286Y-50201263D01*
X112259186Y-50313891D01*
X112259187Y-50313891D01*
X112259190Y-50313893D01*
X112458703Y-50391185D01*
X112634845Y-50424111D01*
X112697125Y-50455779D01*
X112732398Y-50516092D01*
X112729464Y-50585900D01*
X112689255Y-50643040D01*
X112634845Y-50667888D01*
X112458703Y-50700815D01*
X112332533Y-50749693D01*
X112259192Y-50778106D01*
X112259186Y-50778108D01*
X112077286Y-50890736D01*
X112077283Y-50890738D01*
X112077279Y-50890740D01*
X112077278Y-50890742D01*
X111919159Y-51034886D01*
X111919158Y-51034887D01*
X111838854Y-51141227D01*
X111782745Y-51182863D01*
X111739900Y-51190500D01*
X97084453Y-51190500D01*
X97017414Y-51170815D01*
X96996772Y-51154181D01*
X94472928Y-48630338D01*
X94472925Y-48630334D01*
X94472925Y-48630335D01*
X94465858Y-48623268D01*
X94465858Y-48623267D01*
X94378733Y-48536142D01*
X94378732Y-48536141D01*
X94378731Y-48536140D01*
X94312775Y-48492070D01*
X94276286Y-48467688D01*
X94276287Y-48467688D01*
X94276285Y-48467687D01*
X94236039Y-48451017D01*
X94195792Y-48434347D01*
X94162453Y-48420537D01*
X94152427Y-48418543D01*
X94102029Y-48408518D01*
X94041610Y-48396500D01*
X94041607Y-48396500D01*
X94041606Y-48396500D01*
X78747309Y-48396500D01*
X78680270Y-48376815D01*
X78659628Y-48360182D01*
X78640977Y-48341531D01*
X78538620Y-48239174D01*
X78538616Y-48239171D01*
X78538615Y-48239170D01*
X78357666Y-48112468D01*
X78357658Y-48112464D01*
X78228811Y-48052382D01*
X78176371Y-48006210D01*
X78157219Y-47939017D01*
X78177435Y-47872135D01*
X78228811Y-47827618D01*
X78234802Y-47824824D01*
X78357662Y-47767534D01*
X78538620Y-47640826D01*
X78694826Y-47484620D01*
X78821534Y-47303662D01*
X78914894Y-47103450D01*
X78972070Y-46890068D01*
X78991323Y-46670000D01*
X78986103Y-46610339D01*
X78972070Y-46449937D01*
X78972070Y-46449932D01*
X78914894Y-46236550D01*
X78821534Y-46036339D01*
X78758180Y-45945859D01*
X78694827Y-45855381D01*
X78633994Y-45794548D01*
X78538620Y-45699174D01*
X78538616Y-45699171D01*
X78538615Y-45699170D01*
X78357666Y-45572468D01*
X78357658Y-45572464D01*
X78228811Y-45512382D01*
X78176371Y-45466210D01*
X78157219Y-45399017D01*
X78177435Y-45332135D01*
X78228811Y-45287618D01*
X78294096Y-45257175D01*
X78357662Y-45227534D01*
X78538620Y-45100826D01*
X78694826Y-44944620D01*
X78790225Y-44808376D01*
X78844802Y-44764752D01*
X78891800Y-44755500D01*
X84967548Y-44755500D01*
X85034587Y-44775185D01*
X85055229Y-44791819D01*
X86437038Y-46173628D01*
X86470523Y-46234951D01*
X86472678Y-46248347D01*
X86475287Y-46273170D01*
X86490326Y-46416256D01*
X86490327Y-46416259D01*
X86548818Y-46596277D01*
X86548821Y-46596284D01*
X86643467Y-46760216D01*
X86688792Y-46810554D01*
X86770129Y-46900888D01*
X86923265Y-47012148D01*
X86923270Y-47012151D01*
X87096192Y-47089142D01*
X87096197Y-47089144D01*
X87281354Y-47128500D01*
X87281355Y-47128500D01*
X87470644Y-47128500D01*
X87470646Y-47128500D01*
X87655803Y-47089144D01*
X87828730Y-47012151D01*
X87981871Y-46900888D01*
X88108533Y-46760216D01*
X88203179Y-46596284D01*
X88261674Y-46416256D01*
X88281460Y-46228000D01*
X88261674Y-46039744D01*
X88203179Y-45859716D01*
X88108533Y-45695784D01*
X87981871Y-45555112D01*
X87981870Y-45555111D01*
X87828734Y-45443851D01*
X87828729Y-45443848D01*
X87655807Y-45366857D01*
X87655802Y-45366855D01*
X87492452Y-45332135D01*
X87470646Y-45327500D01*
X87470645Y-45327500D01*
X87411452Y-45327500D01*
X87344413Y-45307815D01*
X87323771Y-45291181D01*
X85768198Y-43735608D01*
X85768178Y-43735586D01*
X85720589Y-43687997D01*
X99316677Y-43687997D01*
X99316677Y-43688002D01*
X99335929Y-43908062D01*
X99335930Y-43908070D01*
X99393104Y-44121445D01*
X99393105Y-44121447D01*
X99393106Y-44121450D01*
X99462631Y-44270548D01*
X99486466Y-44321662D01*
X99486468Y-44321666D01*
X99613170Y-44502615D01*
X99613175Y-44502621D01*
X99769378Y-44658824D01*
X99769384Y-44658829D01*
X99950333Y-44785531D01*
X99950335Y-44785532D01*
X99950338Y-44785534D01*
X100069748Y-44841215D01*
X100079189Y-44845618D01*
X100131628Y-44891790D01*
X100150780Y-44958984D01*
X100130564Y-45025865D01*
X100079189Y-45070382D01*
X99950340Y-45130465D01*
X99950338Y-45130466D01*
X99769377Y-45257175D01*
X99613175Y-45413377D01*
X99486466Y-45594338D01*
X99486465Y-45594340D01*
X99393107Y-45794548D01*
X99393104Y-45794554D01*
X99335930Y-46007929D01*
X99335929Y-46007937D01*
X99316677Y-46227997D01*
X99316677Y-46228002D01*
X99335929Y-46448062D01*
X99335930Y-46448070D01*
X99393104Y-46661445D01*
X99393105Y-46661447D01*
X99393106Y-46661450D01*
X99397092Y-46669997D01*
X99486466Y-46861662D01*
X99486468Y-46861666D01*
X99613170Y-47042615D01*
X99613175Y-47042621D01*
X99769378Y-47198824D01*
X99769384Y-47198829D01*
X99950333Y-47325531D01*
X99950335Y-47325532D01*
X99950338Y-47325534D01*
X100150550Y-47418894D01*
X100363932Y-47476070D01*
X100521123Y-47489822D01*
X100583998Y-47495323D01*
X100584000Y-47495323D01*
X100584002Y-47495323D01*
X100639017Y-47490509D01*
X100804068Y-47476070D01*
X101017450Y-47418894D01*
X101217662Y-47325534D01*
X101398620Y-47198826D01*
X101554826Y-47042620D01*
X101681534Y-46861662D01*
X101774894Y-46661450D01*
X101832070Y-46448068D01*
X101851323Y-46228000D01*
X101832070Y-46007932D01*
X101774894Y-45794550D01*
X101681534Y-45594339D01*
X101576162Y-45443851D01*
X101554827Y-45413381D01*
X101479108Y-45337662D01*
X101398620Y-45257174D01*
X101398616Y-45257171D01*
X101398615Y-45257170D01*
X101217666Y-45130468D01*
X101217658Y-45130464D01*
X101088811Y-45070382D01*
X101036371Y-45024210D01*
X101017219Y-44957017D01*
X101037435Y-44890135D01*
X101088811Y-44845618D01*
X101094802Y-44842824D01*
X101217662Y-44785534D01*
X101398620Y-44658826D01*
X101554826Y-44502620D01*
X101681534Y-44321662D01*
X101774894Y-44121450D01*
X101832070Y-43908068D01*
X101851323Y-43688000D01*
X101832070Y-43467932D01*
X101774894Y-43254550D01*
X101681534Y-43054339D01*
X101554826Y-42873380D01*
X101398620Y-42717174D01*
X101398616Y-42717171D01*
X101398615Y-42717170D01*
X101217666Y-42590468D01*
X101217662Y-42590466D01*
X101154105Y-42560829D01*
X101017450Y-42497106D01*
X101017447Y-42497105D01*
X101017445Y-42497104D01*
X100804070Y-42439930D01*
X100804062Y-42439929D01*
X100584002Y-42420677D01*
X100583998Y-42420677D01*
X100363937Y-42439929D01*
X100363929Y-42439930D01*
X100150554Y-42497104D01*
X100150548Y-42497107D01*
X99950340Y-42590465D01*
X99950338Y-42590466D01*
X99769377Y-42717175D01*
X99613175Y-42873377D01*
X99486466Y-43054338D01*
X99486465Y-43054340D01*
X99393107Y-43254548D01*
X99393104Y-43254554D01*
X99335930Y-43467929D01*
X99335929Y-43467937D01*
X99316677Y-43687997D01*
X85720589Y-43687997D01*
X85676736Y-43644144D01*
X85676728Y-43644138D01*
X85620348Y-43606466D01*
X85620346Y-43606465D01*
X85574286Y-43575688D01*
X85574287Y-43575688D01*
X85574285Y-43575687D01*
X85534039Y-43559017D01*
X85493792Y-43542347D01*
X85460452Y-43528537D01*
X85460444Y-43528535D01*
X85382882Y-43513106D01*
X85382873Y-43513106D01*
X85339607Y-43504500D01*
X85339606Y-43504500D01*
X78891799Y-43504500D01*
X78824760Y-43484815D01*
X78790224Y-43451623D01*
X78694827Y-43315381D01*
X78633994Y-43254548D01*
X78538620Y-43159174D01*
X78538616Y-43159171D01*
X78538615Y-43159170D01*
X78357666Y-43032468D01*
X78357658Y-43032464D01*
X78228811Y-42972382D01*
X78176371Y-42926210D01*
X78157219Y-42859017D01*
X78177435Y-42792135D01*
X78228811Y-42747618D01*
X78294096Y-42717175D01*
X78357662Y-42687534D01*
X78538620Y-42560826D01*
X78694826Y-42404620D01*
X78821534Y-42223662D01*
X78914894Y-42023450D01*
X78972070Y-41810068D01*
X78991323Y-41590000D01*
X78972070Y-41369932D01*
X78914894Y-41156550D01*
X78821534Y-40956339D01*
X78758180Y-40865859D01*
X78694827Y-40775381D01*
X78637896Y-40718450D01*
X78538620Y-40619174D01*
X78538616Y-40619171D01*
X78538615Y-40619170D01*
X78357666Y-40492468D01*
X78357662Y-40492466D01*
X78357660Y-40492465D01*
X78157450Y-40399106D01*
X78157447Y-40399105D01*
X78157445Y-40399104D01*
X77944070Y-40341930D01*
X77944062Y-40341929D01*
X77724002Y-40322677D01*
X77723998Y-40322677D01*
X77503937Y-40341929D01*
X77503929Y-40341930D01*
X77290554Y-40399104D01*
X77290548Y-40399107D01*
X77090340Y-40492465D01*
X77090338Y-40492466D01*
X76909374Y-40619177D01*
X76905230Y-40622655D01*
X76903798Y-40620949D01*
X76850858Y-40649857D01*
X76781166Y-40644873D01*
X76725233Y-40603001D01*
X76700816Y-40537537D01*
X76700500Y-40528691D01*
X76700500Y-36111886D01*
X76720185Y-36044847D01*
X76736819Y-36024205D01*
X77087336Y-35673688D01*
X77498930Y-35262093D01*
X77560251Y-35228610D01*
X77597413Y-35226248D01*
X77704851Y-35235647D01*
X77723999Y-35237323D01*
X77724000Y-35237323D01*
X77724002Y-35237323D01*
X77779017Y-35232509D01*
X77944068Y-35218070D01*
X78157450Y-35160894D01*
X78357662Y-35067534D01*
X78538620Y-34940826D01*
X78694826Y-34784620D01*
X78821534Y-34603662D01*
X78914894Y-34403450D01*
X78972070Y-34190068D01*
X78991323Y-33970000D01*
X78986103Y-33910339D01*
X78973298Y-33763968D01*
X78972070Y-33749932D01*
X78914894Y-33536550D01*
X78821534Y-33336339D01*
X78722494Y-33194894D01*
X78694827Y-33155381D01*
X78640977Y-33101531D01*
X78538620Y-32999174D01*
X78538616Y-32999171D01*
X78538615Y-32999170D01*
X78357666Y-32872468D01*
X78357658Y-32872464D01*
X78228811Y-32812382D01*
X78176371Y-32766210D01*
X78157219Y-32699017D01*
X78177435Y-32632135D01*
X78228811Y-32587618D01*
X78234802Y-32584824D01*
X78357662Y-32527534D01*
X78538620Y-32400826D01*
X78694826Y-32244620D01*
X78821534Y-32063662D01*
X78914894Y-31863450D01*
X78972070Y-31650068D01*
X78991323Y-31430000D01*
X78988423Y-31396857D01*
X78974876Y-31242005D01*
X78972070Y-31209932D01*
X78914894Y-30996550D01*
X78821534Y-30796339D01*
X78748273Y-30691711D01*
X78694827Y-30615381D01*
X78668709Y-30589263D01*
X78538620Y-30459174D01*
X78538616Y-30459171D01*
X78538615Y-30459170D01*
X78357666Y-30332468D01*
X78357662Y-30332466D01*
X78330253Y-30319685D01*
X78157450Y-30239106D01*
X78157447Y-30239105D01*
X78157445Y-30239104D01*
X77944070Y-30181930D01*
X77944062Y-30181929D01*
X77724002Y-30162677D01*
X77723998Y-30162677D01*
X77503937Y-30181929D01*
X77503929Y-30181930D01*
X77290554Y-30239104D01*
X77290548Y-30239107D01*
X77090340Y-30332465D01*
X77090338Y-30332466D01*
X76909377Y-30459175D01*
X76753175Y-30615377D01*
X76626466Y-30796338D01*
X76626465Y-30796340D01*
X76533107Y-30996548D01*
X76533104Y-30996554D01*
X76475930Y-31209929D01*
X76475929Y-31209937D01*
X76456677Y-31429997D01*
X76456677Y-31430002D01*
X76475929Y-31650062D01*
X76475930Y-31650070D01*
X76533104Y-31863445D01*
X76533105Y-31863447D01*
X76533106Y-31863450D01*
X76545354Y-31889715D01*
X76626466Y-32063662D01*
X76626468Y-32063666D01*
X76753170Y-32244615D01*
X76753175Y-32244621D01*
X76909378Y-32400824D01*
X76909384Y-32400829D01*
X77090333Y-32527531D01*
X77090335Y-32527532D01*
X77090338Y-32527534D01*
X77209748Y-32583215D01*
X77219189Y-32587618D01*
X77271628Y-32633790D01*
X77290780Y-32700984D01*
X77270564Y-32767865D01*
X77219189Y-32812382D01*
X77090340Y-32872465D01*
X77090338Y-32872466D01*
X76909377Y-32999175D01*
X76753175Y-33155377D01*
X76626466Y-33336338D01*
X76626465Y-33336340D01*
X76533107Y-33536548D01*
X76533104Y-33536554D01*
X76475930Y-33749929D01*
X76475929Y-33749937D01*
X76456677Y-33969997D01*
X76456677Y-33970003D01*
X76467750Y-34096583D01*
X76453983Y-34165083D01*
X76431903Y-34195070D01*
X75395681Y-35231293D01*
X75334358Y-35264778D01*
X75264666Y-35259794D01*
X75208733Y-35217922D01*
X75184316Y-35152458D01*
X75184000Y-35143612D01*
X75184000Y-24241703D01*
X75203685Y-24174664D01*
X75256489Y-24128909D01*
X75325647Y-24118965D01*
X75389203Y-24147990D01*
X75426659Y-24205705D01*
X75454650Y-24297978D01*
X75502075Y-24454319D01*
X75651487Y-24815027D01*
X75651489Y-24815032D01*
X75835527Y-25159342D01*
X75835538Y-25159360D01*
X76052439Y-25483976D01*
X76052449Y-25483990D01*
X76300136Y-25785797D01*
X76576202Y-26061863D01*
X76576207Y-26061867D01*
X76576208Y-26061868D01*
X76878015Y-26309555D01*
X77202646Y-26526466D01*
X77202655Y-26526471D01*
X77202657Y-26526472D01*
X77546967Y-26710510D01*
X77546969Y-26710510D01*
X77546975Y-26710514D01*
X77744621Y-26792382D01*
X77907680Y-26859924D01*
X77907684Y-26859925D01*
X77907686Y-26859926D01*
X78281305Y-26973262D01*
X78281311Y-26973263D01*
X78281314Y-26973264D01*
X78281325Y-26973267D01*
X78664234Y-27049431D01*
X79052785Y-27087700D01*
X79052788Y-27087700D01*
X79443212Y-27087700D01*
X79443215Y-27087700D01*
X79831766Y-27049431D01*
X79906307Y-27034603D01*
X80214674Y-26973267D01*
X80214685Y-26973264D01*
X80214685Y-26973263D01*
X80214695Y-26973262D01*
X80588314Y-26859926D01*
X80949025Y-26710514D01*
X81293354Y-26526466D01*
X81617985Y-26309555D01*
X81797782Y-26161999D01*
X115278357Y-26161999D01*
X115278357Y-26162000D01*
X115298884Y-26383535D01*
X115298885Y-26383537D01*
X115359769Y-26597523D01*
X115359775Y-26597538D01*
X115458938Y-26796683D01*
X115458943Y-26796691D01*
X115593020Y-26974238D01*
X115757437Y-27124123D01*
X115757439Y-27124125D01*
X115946595Y-27241245D01*
X115946596Y-27241245D01*
X115946599Y-27241247D01*
X116154060Y-27321618D01*
X116372757Y-27362500D01*
X116372759Y-27362500D01*
X116595241Y-27362500D01*
X116595243Y-27362500D01*
X116813940Y-27321618D01*
X117021401Y-27241247D01*
X117210562Y-27124124D01*
X117374981Y-26974236D01*
X117509058Y-26796689D01*
X117608229Y-26597528D01*
X117669115Y-26383536D01*
X117689643Y-26162000D01*
X117669115Y-25940464D01*
X117608229Y-25726472D01*
X117608224Y-25726461D01*
X117509061Y-25527316D01*
X117509056Y-25527308D01*
X117374979Y-25349761D01*
X117210562Y-25199876D01*
X117210560Y-25199874D01*
X117021404Y-25082754D01*
X117021398Y-25082752D01*
X116813940Y-25002382D01*
X116595243Y-24961500D01*
X116372757Y-24961500D01*
X116154060Y-25002382D01*
X116022864Y-25053207D01*
X115946601Y-25082752D01*
X115946595Y-25082754D01*
X115757439Y-25199874D01*
X115757437Y-25199876D01*
X115593020Y-25349761D01*
X115458943Y-25527308D01*
X115458938Y-25527316D01*
X115359775Y-25726461D01*
X115359769Y-25726476D01*
X115298885Y-25940462D01*
X115298884Y-25940464D01*
X115278357Y-26161999D01*
X81797782Y-26161999D01*
X81919792Y-26061868D01*
X82195868Y-25785792D01*
X82443555Y-25483985D01*
X82660466Y-25159354D01*
X82844514Y-24815025D01*
X82993926Y-24454314D01*
X83107262Y-24080695D01*
X83107264Y-24080685D01*
X83107267Y-24080674D01*
X83183431Y-23697765D01*
X83221700Y-23309211D01*
X83221700Y-22918788D01*
X83183431Y-22530234D01*
X83107267Y-22147325D01*
X83107264Y-22147314D01*
X83107263Y-22147311D01*
X83107262Y-22147305D01*
X82993926Y-21773686D01*
X82844514Y-21412975D01*
X82660466Y-21068646D01*
X82443555Y-20744015D01*
X82195868Y-20442208D01*
X82195867Y-20442207D01*
X82195863Y-20442202D01*
X81919797Y-20166136D01*
X81617990Y-19918449D01*
X81617989Y-19918448D01*
X81617985Y-19918445D01*
X81293354Y-19701534D01*
X81293349Y-19701531D01*
X81293342Y-19701527D01*
X80949032Y-19517489D01*
X80949027Y-19517487D01*
X80588319Y-19368075D01*
X80454880Y-19327597D01*
X80339707Y-19292660D01*
X80281270Y-19254363D01*
X80252814Y-19190551D01*
X80263374Y-19121484D01*
X80309598Y-19069090D01*
X80375704Y-19050000D01*
X141620296Y-19050000D01*
X141687335Y-19069685D01*
G37*
%TD.AperFunction*%
%TA.AperFunction,Conductor*%
G36*
X118187809Y-92085185D02*
G01*
X118233564Y-92137989D01*
X118243508Y-92207147D01*
X118231770Y-92244771D01*
X118225536Y-92257290D01*
X118191673Y-92325295D01*
X118191672Y-92325299D01*
X118147595Y-92480216D01*
X118135654Y-92522183D01*
X118116768Y-92725999D01*
X118116768Y-92726000D01*
X118135654Y-92929816D01*
X118135654Y-92929818D01*
X118135655Y-92929821D01*
X118181134Y-93089662D01*
X118191673Y-93126704D01*
X118282912Y-93309935D01*
X118406269Y-93473287D01*
X118513658Y-93571184D01*
X118556785Y-93610500D01*
X118557537Y-93611185D01*
X118557538Y-93611186D01*
X118572699Y-93620574D01*
X118619334Y-93672603D01*
X118630437Y-93741585D01*
X118602483Y-93805619D01*
X118572699Y-93831426D01*
X118557538Y-93840813D01*
X118557537Y-93840814D01*
X118406269Y-93978712D01*
X118324954Y-94086392D01*
X118268845Y-94128028D01*
X118199133Y-94132719D01*
X118137951Y-94098977D01*
X118127046Y-94086392D01*
X118045730Y-93978712D01*
X117894462Y-93840814D01*
X117894460Y-93840812D01*
X117720430Y-93733057D01*
X117720424Y-93733054D01*
X117566825Y-93673550D01*
X117529556Y-93659112D01*
X117328347Y-93621500D01*
X117123653Y-93621500D01*
X116922444Y-93659112D01*
X116922441Y-93659112D01*
X116922441Y-93659113D01*
X116731575Y-93733054D01*
X116731569Y-93733057D01*
X116557539Y-93840812D01*
X116557537Y-93840814D01*
X116406269Y-93978712D01*
X116324954Y-94086392D01*
X116268845Y-94128028D01*
X116199133Y-94132719D01*
X116137951Y-94098977D01*
X116127046Y-94086392D01*
X116045730Y-93978712D01*
X115894462Y-93840814D01*
X115894460Y-93840812D01*
X115879302Y-93831427D01*
X115832666Y-93779400D01*
X115821562Y-93710418D01*
X115849515Y-93646384D01*
X115879302Y-93620573D01*
X115894460Y-93611187D01*
X115894459Y-93611187D01*
X115894462Y-93611186D01*
X116045732Y-93473285D01*
X116169088Y-93309935D01*
X116260328Y-93126701D01*
X116316345Y-92929821D01*
X116335232Y-92726000D01*
X116316345Y-92522179D01*
X116260328Y-92325299D01*
X116220229Y-92244771D01*
X116207968Y-92175987D01*
X116234841Y-92111492D01*
X116292317Y-92071764D01*
X116331230Y-92065500D01*
X118120770Y-92065500D01*
X118187809Y-92085185D01*
G37*
%TD.AperFunction*%
%TA.AperFunction,Conductor*%
G36*
X126814703Y-84758228D02*
G01*
X126852477Y-84817006D01*
X126856971Y-84840500D01*
X126876295Y-85049047D01*
X126876296Y-85049050D01*
X126934846Y-85254835D01*
X126934849Y-85254841D01*
X126968215Y-85321849D01*
X127030219Y-85446370D01*
X127159159Y-85617114D01*
X127317278Y-85761258D01*
X127317283Y-85761261D01*
X127317286Y-85761263D01*
X127499186Y-85873891D01*
X127499187Y-85873891D01*
X127499190Y-85873893D01*
X127698703Y-85951185D01*
X127874845Y-85984111D01*
X127937125Y-86015779D01*
X127972398Y-86076092D01*
X127969464Y-86145900D01*
X127929255Y-86203040D01*
X127874845Y-86227888D01*
X127698703Y-86260815D01*
X127572533Y-86309693D01*
X127499192Y-86338106D01*
X127499186Y-86338108D01*
X127317286Y-86450736D01*
X127317283Y-86450738D01*
X127317279Y-86450740D01*
X127317278Y-86450742D01*
X127159159Y-86594886D01*
X127159158Y-86594887D01*
X127030219Y-86765629D01*
X126934849Y-86957158D01*
X126934846Y-86957164D01*
X126876296Y-87162949D01*
X126876295Y-87162952D01*
X126856971Y-87371499D01*
X126855809Y-87374425D01*
X126856971Y-87380500D01*
X126876295Y-87589047D01*
X126876296Y-87589050D01*
X126934846Y-87794835D01*
X126934849Y-87794841D01*
X126992198Y-87910014D01*
X127030219Y-87986370D01*
X127159159Y-88157114D01*
X127317278Y-88301258D01*
X127317283Y-88301261D01*
X127317286Y-88301263D01*
X127499186Y-88413891D01*
X127499187Y-88413891D01*
X127499190Y-88413893D01*
X127698703Y-88491185D01*
X127874845Y-88524111D01*
X127937125Y-88555779D01*
X127972398Y-88616092D01*
X127969464Y-88685900D01*
X127929255Y-88743040D01*
X127874845Y-88767888D01*
X127698703Y-88800815D01*
X127653141Y-88818466D01*
X127499192Y-88878106D01*
X127499186Y-88878108D01*
X127317286Y-88990736D01*
X127317283Y-88990738D01*
X127317279Y-88990740D01*
X127317278Y-88990742D01*
X127162248Y-89132070D01*
X127159158Y-89134887D01*
X127030219Y-89305629D01*
X126934849Y-89497158D01*
X126934846Y-89497164D01*
X126876296Y-89702949D01*
X126876295Y-89702952D01*
X126856554Y-89915999D01*
X126856554Y-89916000D01*
X126876295Y-90129047D01*
X126876296Y-90129050D01*
X126934846Y-90334835D01*
X126934849Y-90334841D01*
X126979245Y-90424000D01*
X127030219Y-90526370D01*
X127159159Y-90697114D01*
X127317278Y-90841258D01*
X127317283Y-90841261D01*
X127317286Y-90841263D01*
X127499186Y-90953891D01*
X127499187Y-90953891D01*
X127499190Y-90953893D01*
X127698703Y-91031185D01*
X127874845Y-91064111D01*
X127937125Y-91095779D01*
X127972398Y-91156092D01*
X127969464Y-91225900D01*
X127929255Y-91283040D01*
X127874845Y-91307888D01*
X127698703Y-91340815D01*
X127572533Y-91389693D01*
X127499192Y-91418106D01*
X127499190Y-91418107D01*
X127317286Y-91530736D01*
X127317283Y-91530738D01*
X127317279Y-91530740D01*
X127317278Y-91530742D01*
X127162248Y-91672070D01*
X127159158Y-91674887D01*
X127030219Y-91845629D01*
X126934849Y-92037158D01*
X126934846Y-92037164D01*
X126876296Y-92242949D01*
X126876295Y-92242952D01*
X126856554Y-92455999D01*
X126856554Y-92456000D01*
X126876295Y-92669045D01*
X126881850Y-92688567D01*
X126881262Y-92758434D01*
X126842995Y-92816892D01*
X126779197Y-92845382D01*
X126762583Y-92846500D01*
X123754452Y-92846500D01*
X123687413Y-92826815D01*
X123666771Y-92810181D01*
X121902198Y-91045608D01*
X121902178Y-91045586D01*
X121810733Y-90954141D01*
X121759509Y-90919915D01*
X121708286Y-90885688D01*
X121708283Y-90885686D01*
X121708280Y-90885685D01*
X121627792Y-90852347D01*
X121594453Y-90838537D01*
X121584427Y-90836543D01*
X121534029Y-90826518D01*
X121473610Y-90814500D01*
X121473607Y-90814500D01*
X121473606Y-90814500D01*
X113853607Y-90814500D01*
X113793221Y-90814500D01*
X113726182Y-90794815D01*
X113680427Y-90742011D01*
X113670483Y-90672853D01*
X113694267Y-90615773D01*
X113698839Y-90609718D01*
X113761781Y-90526370D01*
X113857151Y-90334840D01*
X113857151Y-90334837D01*
X113857153Y-90334835D01*
X113913706Y-90136070D01*
X113915704Y-90129048D01*
X113935446Y-89916000D01*
X113915704Y-89702952D01*
X113889081Y-89609381D01*
X113857153Y-89497164D01*
X113857150Y-89497158D01*
X113834053Y-89450772D01*
X113821792Y-89381986D01*
X113848665Y-89317491D01*
X113906141Y-89277764D01*
X113945053Y-89271500D01*
X125029607Y-89271500D01*
X125090029Y-89259481D01*
X125150452Y-89247463D01*
X125185113Y-89233106D01*
X125264286Y-89200312D01*
X125315509Y-89166084D01*
X125366733Y-89131858D01*
X125453858Y-89044733D01*
X125453859Y-89044731D01*
X125460925Y-89037665D01*
X125460928Y-89037661D01*
X126382729Y-88115860D01*
X126382733Y-88115858D01*
X126469858Y-88028733D01*
X126504084Y-87977509D01*
X126538312Y-87926286D01*
X126571652Y-87845792D01*
X126585463Y-87812452D01*
X126609500Y-87691606D01*
X126609500Y-87391941D01*
X126611847Y-87383944D01*
X126611807Y-87383866D01*
X126609500Y-87360058D01*
X126609500Y-84851941D01*
X126629185Y-84784902D01*
X126681989Y-84739147D01*
X126751147Y-84729203D01*
X126814703Y-84758228D01*
G37*
%TD.AperFunction*%
%TA.AperFunction,Conductor*%
G36*
X126829622Y-74305185D02*
G01*
X126875377Y-74357989D01*
X126885321Y-74427147D01*
X126881850Y-74443433D01*
X126876295Y-74462954D01*
X126856554Y-74675999D01*
X126856554Y-74676000D01*
X126876295Y-74889047D01*
X126876296Y-74889050D01*
X126934846Y-75094835D01*
X126934849Y-75094841D01*
X126938646Y-75102466D01*
X127030219Y-75286370D01*
X127159159Y-75457114D01*
X127317278Y-75601258D01*
X127317283Y-75601261D01*
X127317286Y-75601263D01*
X127499186Y-75713891D01*
X127499187Y-75713891D01*
X127499190Y-75713893D01*
X127698703Y-75791185D01*
X127874845Y-75824111D01*
X127937125Y-75855779D01*
X127972398Y-75916092D01*
X127969464Y-75985900D01*
X127929255Y-76043040D01*
X127874845Y-76067888D01*
X127698703Y-76100815D01*
X127572533Y-76149693D01*
X127499192Y-76178106D01*
X127499186Y-76178108D01*
X127317286Y-76290736D01*
X127317283Y-76290738D01*
X127317279Y-76290740D01*
X127317278Y-76290742D01*
X127159159Y-76434886D01*
X127159158Y-76434887D01*
X127030219Y-76605629D01*
X126934849Y-76797158D01*
X126934846Y-76797164D01*
X126876296Y-77002949D01*
X126876295Y-77002952D01*
X126856554Y-77215999D01*
X126856554Y-77216000D01*
X126876295Y-77429047D01*
X126876296Y-77429050D01*
X126934846Y-77634835D01*
X126934849Y-77634841D01*
X126938646Y-77642466D01*
X127030219Y-77826370D01*
X127159159Y-77997114D01*
X127317278Y-78141258D01*
X127317283Y-78141261D01*
X127317286Y-78141263D01*
X127499186Y-78253891D01*
X127499187Y-78253891D01*
X127499190Y-78253893D01*
X127698703Y-78331185D01*
X127874845Y-78364111D01*
X127937125Y-78395779D01*
X127972398Y-78456092D01*
X127969464Y-78525900D01*
X127929255Y-78583040D01*
X127874845Y-78607888D01*
X127698703Y-78640815D01*
X127572533Y-78689693D01*
X127499192Y-78718106D01*
X127499186Y-78718108D01*
X127317286Y-78830736D01*
X127317283Y-78830738D01*
X127317279Y-78830740D01*
X127317278Y-78830742D01*
X127159159Y-78974886D01*
X127159158Y-78974887D01*
X127030219Y-79145629D01*
X126934849Y-79337158D01*
X126934846Y-79337164D01*
X126876296Y-79542949D01*
X126876295Y-79542952D01*
X126856554Y-79755999D01*
X126856554Y-79756000D01*
X126876295Y-79969047D01*
X126876296Y-79969050D01*
X126934846Y-80174835D01*
X126934849Y-80174841D01*
X127030219Y-80366370D01*
X127159159Y-80537114D01*
X127317278Y-80681258D01*
X127317283Y-80681261D01*
X127317286Y-80681263D01*
X127499186Y-80793891D01*
X127499187Y-80793891D01*
X127499190Y-80793893D01*
X127698703Y-80871185D01*
X127874845Y-80904111D01*
X127937125Y-80935779D01*
X127972398Y-80996092D01*
X127969464Y-81065900D01*
X127929255Y-81123040D01*
X127874845Y-81147888D01*
X127698703Y-81180815D01*
X127572533Y-81229693D01*
X127499192Y-81258106D01*
X127499186Y-81258108D01*
X127317286Y-81370736D01*
X127317283Y-81370738D01*
X127317279Y-81370740D01*
X127317278Y-81370742D01*
X127218222Y-81461043D01*
X127159158Y-81514887D01*
X127030219Y-81685629D01*
X126934849Y-81877158D01*
X126934846Y-81877164D01*
X126876296Y-82082949D01*
X126876295Y-82082952D01*
X126856554Y-82295999D01*
X126856554Y-82296000D01*
X126874492Y-82489584D01*
X126861077Y-82558154D01*
X126838702Y-82588706D01*
X126206151Y-83221258D01*
X125585270Y-83842139D01*
X125585267Y-83842142D01*
X125541704Y-83885704D01*
X125498142Y-83929266D01*
X125477796Y-83959717D01*
X125477795Y-83959718D01*
X125429690Y-84031709D01*
X125429685Y-84031718D01*
X125396347Y-84112207D01*
X125390823Y-84125543D01*
X125382537Y-84145545D01*
X125382535Y-84145553D01*
X125358500Y-84266389D01*
X125358500Y-87319548D01*
X125338815Y-87386587D01*
X125322181Y-87407229D01*
X124745229Y-87984181D01*
X124683906Y-88017666D01*
X124657548Y-88020500D01*
X115836829Y-88020500D01*
X115769790Y-88000815D01*
X115724035Y-87948011D01*
X115714646Y-87890498D01*
X115713460Y-87890498D01*
X115713460Y-87884002D01*
X115713460Y-87884000D01*
X115693674Y-87695744D01*
X115635179Y-87515716D01*
X115540533Y-87351784D01*
X115511508Y-87319548D01*
X115465350Y-87268284D01*
X115435120Y-87205292D01*
X115433500Y-87185312D01*
X115433500Y-85318741D01*
X115453185Y-85251702D01*
X115505989Y-85205947D01*
X115575147Y-85196003D01*
X115583266Y-85197448D01*
X115729354Y-85228500D01*
X115729355Y-85228500D01*
X115918644Y-85228500D01*
X115918646Y-85228500D01*
X116103803Y-85189144D01*
X116276730Y-85112151D01*
X116429871Y-85000888D01*
X116556533Y-84860216D01*
X116651179Y-84696284D01*
X116709674Y-84516256D01*
X116729460Y-84328000D01*
X116709674Y-84139744D01*
X116651179Y-83959716D01*
X116556533Y-83795784D01*
X116489031Y-83720815D01*
X116481350Y-83712284D01*
X116451120Y-83649292D01*
X116449500Y-83629312D01*
X116449500Y-81082452D01*
X116469185Y-81015413D01*
X116485819Y-80994771D01*
X123158771Y-74321819D01*
X123220094Y-74288334D01*
X123246452Y-74285500D01*
X126762583Y-74285500D01*
X126829622Y-74305185D01*
G37*
%TD.AperFunction*%
%TA.AperFunction,Conductor*%
G36*
X126829622Y-71765185D02*
G01*
X126875377Y-71817989D01*
X126885321Y-71887147D01*
X126881850Y-71903433D01*
X126876295Y-71922954D01*
X126856554Y-72135999D01*
X126856554Y-72136000D01*
X126876295Y-72349047D01*
X126876296Y-72349050D01*
X126934846Y-72554835D01*
X126934849Y-72554841D01*
X127030219Y-72746370D01*
X127097733Y-72835773D01*
X127122425Y-72901134D01*
X127107860Y-72969469D01*
X127058663Y-73019082D01*
X126998779Y-73034500D01*
X122874389Y-73034500D01*
X122813971Y-73046518D01*
X122753548Y-73058537D01*
X122753543Y-73058538D01*
X122719546Y-73072620D01*
X122706397Y-73078067D01*
X122684169Y-73087274D01*
X122639713Y-73105688D01*
X122629557Y-73112475D01*
X122629449Y-73112547D01*
X122537268Y-73174140D01*
X122493705Y-73217703D01*
X122450142Y-73261267D01*
X115645181Y-80066228D01*
X115583858Y-80099713D01*
X115514166Y-80094729D01*
X115458233Y-80052857D01*
X115433816Y-79987393D01*
X115433500Y-79978547D01*
X115433500Y-72954452D01*
X115453185Y-72887413D01*
X115469819Y-72866771D01*
X116554772Y-71781819D01*
X116616095Y-71748334D01*
X116642453Y-71745500D01*
X126762583Y-71745500D01*
X126829622Y-71765185D01*
G37*
%TD.AperFunction*%
%TA.AperFunction,Conductor*%
G36*
X141139239Y-71765185D02*
G01*
X141173775Y-71798376D01*
X141269174Y-71934620D01*
X141269175Y-71934621D01*
X141425378Y-72090824D01*
X141425384Y-72090829D01*
X141606333Y-72217531D01*
X141606335Y-72217532D01*
X141606338Y-72217534D01*
X141725748Y-72273215D01*
X141735189Y-72277618D01*
X141787628Y-72323790D01*
X141806780Y-72390984D01*
X141786564Y-72457865D01*
X141735189Y-72502382D01*
X141606340Y-72562465D01*
X141606338Y-72562466D01*
X141425377Y-72689175D01*
X141269175Y-72845377D01*
X141173776Y-72981623D01*
X141119199Y-73025248D01*
X141072201Y-73034500D01*
X129033221Y-73034500D01*
X128966182Y-73014815D01*
X128920427Y-72962011D01*
X128910483Y-72892853D01*
X128934267Y-72835773D01*
X128965261Y-72794730D01*
X129001781Y-72746370D01*
X129097151Y-72554840D01*
X129097151Y-72554837D01*
X129097153Y-72554835D01*
X129144814Y-72387323D01*
X129155704Y-72349048D01*
X129175446Y-72136000D01*
X129155704Y-71922952D01*
X129150150Y-71903431D01*
X129150738Y-71833566D01*
X129189005Y-71775108D01*
X129252803Y-71746618D01*
X129269417Y-71745500D01*
X141072200Y-71745500D01*
X141139239Y-71765185D01*
G37*
%TD.AperFunction*%
%TA.AperFunction,Conductor*%
G36*
X141776630Y-64653185D02*
G01*
X141822385Y-64705989D01*
X141832329Y-64775147D01*
X141803304Y-64838703D01*
X141761996Y-64869882D01*
X141606340Y-64942465D01*
X141606338Y-64942466D01*
X141425377Y-65069175D01*
X141269175Y-65225377D01*
X141142466Y-65406338D01*
X141142465Y-65406340D01*
X141049107Y-65606548D01*
X141049104Y-65606554D01*
X140991930Y-65819929D01*
X140991929Y-65819937D01*
X140972677Y-66039997D01*
X140972677Y-66040002D01*
X140991929Y-66260062D01*
X140991930Y-66260070D01*
X141049104Y-66473445D01*
X141049105Y-66473447D01*
X141049106Y-66473450D01*
X141087500Y-66555786D01*
X141142466Y-66673662D01*
X141142468Y-66673666D01*
X141269170Y-66854615D01*
X141269175Y-66854621D01*
X141425378Y-67010824D01*
X141425384Y-67010829D01*
X141606333Y-67137531D01*
X141606335Y-67137532D01*
X141606338Y-67137534D01*
X141806550Y-67230894D01*
X142019932Y-67288070D01*
X142177123Y-67301822D01*
X142239998Y-67307323D01*
X142240000Y-67307323D01*
X142240002Y-67307323D01*
X142295017Y-67302509D01*
X142460068Y-67288070D01*
X142673450Y-67230894D01*
X142873662Y-67137534D01*
X143054620Y-67010826D01*
X143180819Y-66884627D01*
X143242142Y-66851142D01*
X143311834Y-66856126D01*
X143367767Y-66897998D01*
X143392184Y-66963462D01*
X143392500Y-66972308D01*
X143392500Y-70187691D01*
X143372815Y-70254730D01*
X143320011Y-70300485D01*
X143250853Y-70310429D01*
X143187297Y-70281404D01*
X143180819Y-70275373D01*
X143160176Y-70254730D01*
X143054620Y-70149174D01*
X143054616Y-70149171D01*
X143054615Y-70149170D01*
X142873666Y-70022468D01*
X142873662Y-70022466D01*
X142857297Y-70014835D01*
X142673450Y-69929106D01*
X142673447Y-69929105D01*
X142673445Y-69929104D01*
X142460070Y-69871930D01*
X142460062Y-69871929D01*
X142240002Y-69852677D01*
X142239998Y-69852677D01*
X142019937Y-69871929D01*
X142019929Y-69871930D01*
X141806554Y-69929104D01*
X141806548Y-69929107D01*
X141606340Y-70022465D01*
X141606338Y-70022466D01*
X141425377Y-70149175D01*
X141269175Y-70305377D01*
X141173776Y-70441623D01*
X141119199Y-70485248D01*
X141072201Y-70494500D01*
X129033221Y-70494500D01*
X128966182Y-70474815D01*
X128920427Y-70422011D01*
X128910483Y-70352853D01*
X128934267Y-70295773D01*
X128965261Y-70254730D01*
X129001781Y-70206370D01*
X129097151Y-70014840D01*
X129097151Y-70014837D01*
X129097153Y-70014835D01*
X129155703Y-69809050D01*
X129155704Y-69809047D01*
X129175446Y-69596000D01*
X129175446Y-69595999D01*
X129155704Y-69382954D01*
X129155704Y-69382952D01*
X129150150Y-69363431D01*
X129150738Y-69293566D01*
X129189005Y-69235108D01*
X129252803Y-69206618D01*
X129269417Y-69205500D01*
X130109607Y-69205500D01*
X130170029Y-69193481D01*
X130230452Y-69181463D01*
X130230455Y-69181461D01*
X130230458Y-69181461D01*
X130263787Y-69167654D01*
X130263786Y-69167654D01*
X130263792Y-69167652D01*
X130344286Y-69134312D01*
X130395509Y-69100084D01*
X130446733Y-69065858D01*
X130533858Y-68978733D01*
X130533858Y-68978731D01*
X130544066Y-68968524D01*
X130544067Y-68968521D01*
X134842772Y-64669819D01*
X134904095Y-64636334D01*
X134930453Y-64633500D01*
X141709591Y-64633500D01*
X141776630Y-64653185D01*
G37*
%TD.AperFunction*%
%TD*%
M02*
