%TF.GenerationSoftware,KiCad,Pcbnew,8.0.6-8.0.6-0~ubuntu24.04.1*%
%TF.CreationDate,2024-11-14T21:57:33-06:00*%
%TF.ProjectId,CCD_Breakout,4343445f-4272-4656-916b-6f75742e6b69,rev?*%
%TF.SameCoordinates,Original*%
%TF.FileFunction,Legend,Top*%
%TF.FilePolarity,Positive*%
%FSLAX46Y46*%
G04 Gerber Fmt 4.6, Leading zero omitted, Abs format (unit mm)*
G04 Created by KiCad (PCBNEW 8.0.6-8.0.6-0~ubuntu24.04.1) date 2024-11-14 21:57:33*
%MOMM*%
%LPD*%
G01*
G04 APERTURE LIST*
%ADD10C,0.150000*%
%ADD11C,0.100000*%
%ADD12C,0.120000*%
G04 APERTURE END LIST*
D10*
X70953333Y-48365580D02*
X70905714Y-48413200D01*
X70905714Y-48413200D02*
X70762857Y-48460819D01*
X70762857Y-48460819D02*
X70667619Y-48460819D01*
X70667619Y-48460819D02*
X70524762Y-48413200D01*
X70524762Y-48413200D02*
X70429524Y-48317961D01*
X70429524Y-48317961D02*
X70381905Y-48222723D01*
X70381905Y-48222723D02*
X70334286Y-48032247D01*
X70334286Y-48032247D02*
X70334286Y-47889390D01*
X70334286Y-47889390D02*
X70381905Y-47698914D01*
X70381905Y-47698914D02*
X70429524Y-47603676D01*
X70429524Y-47603676D02*
X70524762Y-47508438D01*
X70524762Y-47508438D02*
X70667619Y-47460819D01*
X70667619Y-47460819D02*
X70762857Y-47460819D01*
X70762857Y-47460819D02*
X70905714Y-47508438D01*
X70905714Y-47508438D02*
X70953333Y-47556057D01*
X71286667Y-47460819D02*
X71905714Y-47460819D01*
X71905714Y-47460819D02*
X71572381Y-47841771D01*
X71572381Y-47841771D02*
X71715238Y-47841771D01*
X71715238Y-47841771D02*
X71810476Y-47889390D01*
X71810476Y-47889390D02*
X71858095Y-47937009D01*
X71858095Y-47937009D02*
X71905714Y-48032247D01*
X71905714Y-48032247D02*
X71905714Y-48270342D01*
X71905714Y-48270342D02*
X71858095Y-48365580D01*
X71858095Y-48365580D02*
X71810476Y-48413200D01*
X71810476Y-48413200D02*
X71715238Y-48460819D01*
X71715238Y-48460819D02*
X71429524Y-48460819D01*
X71429524Y-48460819D02*
X71334286Y-48413200D01*
X71334286Y-48413200D02*
X71286667Y-48365580D01*
X76194761Y-45587057D02*
X76099523Y-45539438D01*
X76099523Y-45539438D02*
X76004285Y-45444200D01*
X76004285Y-45444200D02*
X75861428Y-45301342D01*
X75861428Y-45301342D02*
X75766190Y-45253723D01*
X75766190Y-45253723D02*
X75670952Y-45253723D01*
X75718571Y-45491819D02*
X75623333Y-45444200D01*
X75623333Y-45444200D02*
X75528095Y-45348961D01*
X75528095Y-45348961D02*
X75480476Y-45158485D01*
X75480476Y-45158485D02*
X75480476Y-44825152D01*
X75480476Y-44825152D02*
X75528095Y-44634676D01*
X75528095Y-44634676D02*
X75623333Y-44539438D01*
X75623333Y-44539438D02*
X75718571Y-44491819D01*
X75718571Y-44491819D02*
X75909047Y-44491819D01*
X75909047Y-44491819D02*
X76004285Y-44539438D01*
X76004285Y-44539438D02*
X76099523Y-44634676D01*
X76099523Y-44634676D02*
X76147142Y-44825152D01*
X76147142Y-44825152D02*
X76147142Y-45158485D01*
X76147142Y-45158485D02*
X76099523Y-45348961D01*
X76099523Y-45348961D02*
X76004285Y-45444200D01*
X76004285Y-45444200D02*
X75909047Y-45491819D01*
X75909047Y-45491819D02*
X75718571Y-45491819D01*
X77099523Y-45491819D02*
X76528095Y-45491819D01*
X76813809Y-45491819D02*
X76813809Y-44491819D01*
X76813809Y-44491819D02*
X76718571Y-44634676D01*
X76718571Y-44634676D02*
X76623333Y-44729914D01*
X76623333Y-44729914D02*
X76528095Y-44777533D01*
D11*
X70478095Y-53369419D02*
X70478095Y-54178942D01*
X70478095Y-54178942D02*
X70525714Y-54274180D01*
X70525714Y-54274180D02*
X70573333Y-54321800D01*
X70573333Y-54321800D02*
X70668571Y-54369419D01*
X70668571Y-54369419D02*
X70859047Y-54369419D01*
X70859047Y-54369419D02*
X70954285Y-54321800D01*
X70954285Y-54321800D02*
X71001904Y-54274180D01*
X71001904Y-54274180D02*
X71049523Y-54178942D01*
X71049523Y-54178942D02*
X71049523Y-53369419D01*
X72049523Y-54369419D02*
X71478095Y-54369419D01*
X71763809Y-54369419D02*
X71763809Y-53369419D01*
X71763809Y-53369419D02*
X71668571Y-53512276D01*
X71668571Y-53512276D02*
X71573333Y-53607514D01*
X71573333Y-53607514D02*
X71478095Y-53655133D01*
D10*
X64857333Y-48365580D02*
X64809714Y-48413200D01*
X64809714Y-48413200D02*
X64666857Y-48460819D01*
X64666857Y-48460819D02*
X64571619Y-48460819D01*
X64571619Y-48460819D02*
X64428762Y-48413200D01*
X64428762Y-48413200D02*
X64333524Y-48317961D01*
X64333524Y-48317961D02*
X64285905Y-48222723D01*
X64285905Y-48222723D02*
X64238286Y-48032247D01*
X64238286Y-48032247D02*
X64238286Y-47889390D01*
X64238286Y-47889390D02*
X64285905Y-47698914D01*
X64285905Y-47698914D02*
X64333524Y-47603676D01*
X64333524Y-47603676D02*
X64428762Y-47508438D01*
X64428762Y-47508438D02*
X64571619Y-47460819D01*
X64571619Y-47460819D02*
X64666857Y-47460819D01*
X64666857Y-47460819D02*
X64809714Y-47508438D01*
X64809714Y-47508438D02*
X64857333Y-47556057D01*
X65809714Y-48460819D02*
X65238286Y-48460819D01*
X65524000Y-48460819D02*
X65524000Y-47460819D01*
X65524000Y-47460819D02*
X65428762Y-47603676D01*
X65428762Y-47603676D02*
X65333524Y-47698914D01*
X65333524Y-47698914D02*
X65238286Y-47746533D01*
X71243333Y-45561819D02*
X70910000Y-45085628D01*
X70671905Y-45561819D02*
X70671905Y-44561819D01*
X70671905Y-44561819D02*
X71052857Y-44561819D01*
X71052857Y-44561819D02*
X71148095Y-44609438D01*
X71148095Y-44609438D02*
X71195714Y-44657057D01*
X71195714Y-44657057D02*
X71243333Y-44752295D01*
X71243333Y-44752295D02*
X71243333Y-44895152D01*
X71243333Y-44895152D02*
X71195714Y-44990390D01*
X71195714Y-44990390D02*
X71148095Y-45038009D01*
X71148095Y-45038009D02*
X71052857Y-45085628D01*
X71052857Y-45085628D02*
X70671905Y-45085628D01*
X72195714Y-45561819D02*
X71624286Y-45561819D01*
X71910000Y-45561819D02*
X71910000Y-44561819D01*
X71910000Y-44561819D02*
X71814762Y-44704676D01*
X71814762Y-44704676D02*
X71719524Y-44799914D01*
X71719524Y-44799914D02*
X71624286Y-44847533D01*
X65111333Y-45317580D02*
X65063714Y-45365200D01*
X65063714Y-45365200D02*
X64920857Y-45412819D01*
X64920857Y-45412819D02*
X64825619Y-45412819D01*
X64825619Y-45412819D02*
X64682762Y-45365200D01*
X64682762Y-45365200D02*
X64587524Y-45269961D01*
X64587524Y-45269961D02*
X64539905Y-45174723D01*
X64539905Y-45174723D02*
X64492286Y-44984247D01*
X64492286Y-44984247D02*
X64492286Y-44841390D01*
X64492286Y-44841390D02*
X64539905Y-44650914D01*
X64539905Y-44650914D02*
X64587524Y-44555676D01*
X64587524Y-44555676D02*
X64682762Y-44460438D01*
X64682762Y-44460438D02*
X64825619Y-44412819D01*
X64825619Y-44412819D02*
X64920857Y-44412819D01*
X64920857Y-44412819D02*
X65063714Y-44460438D01*
X65063714Y-44460438D02*
X65111333Y-44508057D01*
X65492286Y-44508057D02*
X65539905Y-44460438D01*
X65539905Y-44460438D02*
X65635143Y-44412819D01*
X65635143Y-44412819D02*
X65873238Y-44412819D01*
X65873238Y-44412819D02*
X65968476Y-44460438D01*
X65968476Y-44460438D02*
X66016095Y-44508057D01*
X66016095Y-44508057D02*
X66063714Y-44603295D01*
X66063714Y-44603295D02*
X66063714Y-44698533D01*
X66063714Y-44698533D02*
X66016095Y-44841390D01*
X66016095Y-44841390D02*
X65444667Y-45412819D01*
X65444667Y-45412819D02*
X66063714Y-45412819D01*
D12*
%TO.C,C3*%
X71556267Y-49027000D02*
X71263733Y-49027000D01*
X71556267Y-50047000D02*
X71263733Y-50047000D01*
%TO.C,Q1*%
X74730000Y-47974500D02*
X74730000Y-47324500D01*
X74730000Y-47974500D02*
X74730000Y-48624500D01*
X77850000Y-47974500D02*
X77850000Y-47324500D01*
X77850000Y-47974500D02*
X77850000Y-48624500D01*
X74780000Y-49137000D02*
X74450000Y-49377000D01*
X74450000Y-48897000D01*
X74780000Y-49137000D01*
G36*
X74780000Y-49137000D02*
G01*
X74450000Y-49377000D01*
X74450000Y-48897000D01*
X74780000Y-49137000D01*
G37*
%TO.C,U1*%
D11*
X76240000Y-52912000D02*
X66240000Y-52912000D01*
X66240000Y-94512000D01*
X76240000Y-94512000D01*
X76240000Y-52912000D01*
D10*
%TO.C,H1*%
X75266283Y-32656000D02*
G75*
G02*
X67229717Y-32656000I-4018283J0D01*
G01*
X67229717Y-32656000D02*
G75*
G02*
X75266283Y-32656000I4018283J0D01*
G01*
%TO.C,H2*%
X75266283Y-100156000D02*
G75*
G02*
X67229717Y-100156000I-4018283J0D01*
G01*
X67229717Y-100156000D02*
G75*
G02*
X75266283Y-100156000I4018283J0D01*
G01*
D12*
%TO.C,C1*%
X66556267Y-49027000D02*
X66263733Y-49027000D01*
X66556267Y-50047000D02*
X66263733Y-50047000D01*
%TO.C,R1*%
X71155276Y-46014500D02*
X71664724Y-46014500D01*
X71155276Y-47059500D02*
X71664724Y-47059500D01*
%TO.C,C2*%
X66556267Y-46027000D02*
X66263733Y-46027000D01*
X66556267Y-47047000D02*
X66263733Y-47047000D01*
D10*
%TO.C,Conn1*%
X63710000Y-37473000D02*
X63710000Y-38997000D01*
X63710000Y-38997000D02*
X78950000Y-38997000D01*
X63710000Y-44077000D02*
X63710000Y-38997000D01*
X78950000Y-37473000D02*
X63710000Y-37473000D01*
X78950000Y-38997000D02*
X78950000Y-37473000D01*
X78950000Y-44077000D02*
X63710000Y-44077000D01*
X78950000Y-44077000D02*
X78950000Y-38997000D01*
%TD*%
M02*
