%TF.GenerationSoftware,KiCad,Pcbnew,8.0.5*%
%TF.CreationDate,2024-11-15T15:56:27-06:00*%
%TF.ProjectId,CCD_Breakout,4343445f-4272-4656-916b-6f75742e6b69,rev?*%
%TF.SameCoordinates,Original*%
%TF.FileFunction,Copper,L1,Top*%
%TF.FilePolarity,Positive*%
%FSLAX46Y46*%
G04 Gerber Fmt 4.6, Leading zero omitted, Abs format (unit mm)*
G04 Created by KiCad (PCBNEW 8.0.5) date 2024-11-15 15:56:27*
%MOMM*%
%LPD*%
G01*
G04 APERTURE LIST*
G04 Aperture macros list*
%AMRoundRect*
0 Rectangle with rounded corners*
0 $1 Rounding radius*
0 $2 $3 $4 $5 $6 $7 $8 $9 X,Y pos of 4 corners*
0 Add a 4 corners polygon primitive as box body*
4,1,4,$2,$3,$4,$5,$6,$7,$8,$9,$2,$3,0*
0 Add four circle primitives for the rounded corners*
1,1,$1+$1,$2,$3*
1,1,$1+$1,$4,$5*
1,1,$1+$1,$6,$7*
1,1,$1+$1,$8,$9*
0 Add four rect primitives between the rounded corners*
20,1,$1+$1,$2,$3,$4,$5,0*
20,1,$1+$1,$4,$5,$6,$7,0*
20,1,$1+$1,$6,$7,$8,$9,0*
20,1,$1+$1,$8,$9,$2,$3,0*%
G04 Aperture macros list end*
%TA.AperFunction,SMDPad,CuDef*%
%ADD10RoundRect,0.237500X0.250000X0.237500X-0.250000X0.237500X-0.250000X-0.237500X0.250000X-0.237500X0*%
%TD*%
%TA.AperFunction,SMDPad,CuDef*%
%ADD11RoundRect,0.237500X-0.300000X-0.237500X0.300000X-0.237500X0.300000X0.237500X-0.300000X0.237500X0*%
%TD*%
%TA.AperFunction,SMDPad,CuDef*%
%ADD12RoundRect,0.150000X0.150000X-0.587500X0.150000X0.587500X-0.150000X0.587500X-0.150000X-0.587500X0*%
%TD*%
%TA.AperFunction,ComponentPad*%
%ADD13C,1.524000*%
%TD*%
%TA.AperFunction,SMDPad,CuDef*%
%ADD14RoundRect,0.237500X0.300000X0.237500X-0.300000X0.237500X-0.300000X-0.237500X0.300000X-0.237500X0*%
%TD*%
%TA.AperFunction,SMDPad,CuDef*%
%ADD15RoundRect,0.237500X-0.250000X-0.237500X0.250000X-0.237500X0.250000X0.237500X-0.250000X0.237500X0*%
%TD*%
%TA.AperFunction,ViaPad*%
%ADD16C,0.800000*%
%TD*%
%TA.AperFunction,Conductor*%
%ADD17C,0.127000*%
%TD*%
%TA.AperFunction,Conductor*%
%ADD18C,0.250000*%
%TD*%
G04 APERTURE END LIST*
D10*
%TO.P,R3,1*%
%TO.N,GND*%
X76858500Y-45212000D03*
%TO.P,R3,2*%
%TO.N,Vout*%
X75033500Y-45212000D03*
%TD*%
%TO.P,R2,1*%
%TO.N,Net-(Q1-E)*%
X73429500Y-47117000D03*
%TO.P,R2,2*%
%TO.N,Vout*%
X71604500Y-47117000D03*
%TD*%
D11*
%TO.P,C3,1*%
%TO.N,GND*%
X71527500Y-51054000D03*
%TO.P,C3,2*%
%TO.N,Net-(U1-VGG)*%
X73252500Y-51054000D03*
%TD*%
D12*
%TO.P,Q1,1,C*%
%TO.N,GND*%
X75340000Y-48912000D03*
%TO.P,Q1,2,B*%
%TO.N,Net-(Q1-B)*%
X77240000Y-48912000D03*
%TO.P,Q1,3,E*%
%TO.N,Net-(Q1-E)*%
X76290000Y-47037000D03*
%TD*%
D13*
%TO.P,U1,1,Vout*%
%TO.N,Net-(Q1-B)*%
X66240000Y-61012000D03*
%TO.P,U1,2,GND*%
%TO.N,GND*%
X66240000Y-63552000D03*
%TO.P,U1,3,GND*%
X66240000Y-66092000D03*
%TO.P,U1,4,SHSW*%
%TO.N,SHSW*%
X66240000Y-68632000D03*
%TO.P,U1,5,\u00F8CLK*%
%TO.N,CLK*%
X66240000Y-71172000D03*
%TO.P,U1,6,VDD*%
%TO.N,+5V*%
X66240000Y-73712000D03*
%TO.P,U1,7,NC*%
%TO.N,unconnected-(U1-NC-Pad7)*%
X66240000Y-76252000D03*
%TO.P,U1,8,NC*%
%TO.N,unconnected-(U1-NC-Pad8)*%
X66240000Y-78792000D03*
%TO.P,U1,9,VDD*%
%TO.N,+5V*%
X66240000Y-81332000D03*
%TO.P,U1,10,NC*%
%TO.N,unconnected-(U1-NC-Pad10)*%
X66240000Y-83872000D03*
%TO.P,U1,11,\u00F8ROG*%
%TO.N,ROG*%
X66240000Y-86412000D03*
%TO.P,U1,12,GND*%
%TO.N,GND*%
X76240000Y-86412000D03*
%TO.P,U1,13,NC*%
%TO.N,unconnected-(U1-NC-Pad13)*%
X76240000Y-83872000D03*
%TO.P,U1,14,NC*%
%TO.N,unconnected-(U1-NC-Pad14)*%
X76240000Y-81332000D03*
%TO.P,U1,15,VDD*%
%TO.N,+5V*%
X76240000Y-78792000D03*
%TO.P,U1,16,GND*%
%TO.N,GND*%
X76240000Y-76252000D03*
%TO.P,U1,17,GND*%
X76240000Y-73712000D03*
%TO.P,U1,18,VGG*%
%TO.N,Net-(U1-VGG)*%
X76240000Y-71172000D03*
%TO.P,U1,19,GND*%
%TO.N,GND*%
X76240000Y-68632000D03*
%TO.P,U1,20,VDD*%
%TO.N,+5V*%
X76240000Y-66092000D03*
%TO.P,U1,21,VDD*%
X76240000Y-63552000D03*
%TO.P,U1,22,VDD*%
X76240000Y-61012000D03*
%TD*%
D14*
%TO.P,C1,1*%
%TO.N,+5V*%
X66902500Y-50800000D03*
%TO.P,C1,2*%
%TO.N,GND*%
X65177500Y-50800000D03*
%TD*%
D15*
%TO.P,R1,2*%
%TO.N,Net-(Q1-E)*%
X73429500Y-48895000D03*
%TO.P,R1,1*%
%TO.N,+5V*%
X71604500Y-48895000D03*
%TD*%
D14*
%TO.P,C2,1*%
%TO.N,+5V*%
X67272500Y-46537000D03*
%TO.P,C2,2*%
%TO.N,GND*%
X65547500Y-46537000D03*
%TD*%
D13*
%TO.P,Conn1,1*%
%TO.N,+5V*%
X66250000Y-41537000D03*
%TO.P,Conn1,2*%
%TO.N,CLK*%
X68790000Y-41537000D03*
%TO.P,Conn1,3*%
%TO.N,ROG*%
X71330000Y-41537000D03*
%TO.P,Conn1,4*%
%TO.N,Vout*%
X73870000Y-41537000D03*
%TO.P,Conn1,5*%
%TO.N,GND*%
X76410000Y-41537000D03*
%TD*%
D16*
%TO.N,GND*%
X70002400Y-51054000D03*
%TO.N,Net-(Q1-B)*%
X76962000Y-50546000D03*
%TO.N,GND*%
X76200000Y-58674000D03*
X67183000Y-58674000D03*
X67183000Y-55372000D03*
X76200000Y-55372000D03*
X71399400Y-55372000D03*
X71170800Y-45008800D03*
X71374000Y-91186000D03*
X77216000Y-91186000D03*
X65278000Y-90932000D03*
X65024000Y-54102000D03*
X65836800Y-48691800D03*
X71374000Y-58674000D03*
X77876400Y-52120800D03*
%TD*%
D17*
%TO.N,Net-(U1-VGG)*%
X77418000Y-71172000D02*
X76240000Y-71172000D01*
X77978000Y-70612000D02*
X77418000Y-71172000D01*
X77724000Y-53467000D02*
X77978000Y-53721000D01*
X73533000Y-53467000D02*
X77724000Y-53467000D01*
X73252500Y-53186500D02*
X73533000Y-53467000D01*
X77978000Y-53721000D02*
X77978000Y-70612000D01*
X73252500Y-51054000D02*
X73252500Y-53186500D01*
%TO.N,+5V*%
X74422000Y-54102000D02*
X74676000Y-54356000D01*
X68834000Y-53594000D02*
X69342000Y-54102000D01*
X68834000Y-53467000D02*
X68834000Y-53594000D01*
X68834000Y-54102000D02*
X68834000Y-53467000D01*
X68834000Y-53467000D02*
X68834000Y-51689000D01*
X69342000Y-54102000D02*
X74422000Y-54102000D01*
X74676000Y-54356000D02*
X74676000Y-60452000D01*
X68834000Y-51689000D02*
X68834000Y-48514000D01*
X68072000Y-54864000D02*
X68834000Y-54102000D01*
X68072000Y-72898000D02*
X68072000Y-54864000D01*
%TO.N,Net-(Q1-B)*%
X77240000Y-50268000D02*
X76962000Y-50546000D01*
X77240000Y-48912000D02*
X77240000Y-50268000D01*
%TO.N,Vout*%
X75033500Y-45212000D02*
X74479600Y-45212000D01*
X74479600Y-45212000D02*
X73870000Y-44602400D01*
X73870000Y-44602400D02*
X73870000Y-41537000D01*
X73870000Y-45383000D02*
X73870000Y-44602400D01*
X72136000Y-47117000D02*
X73870000Y-45383000D01*
X71604500Y-47117000D02*
X72136000Y-47117000D01*
%TO.N,+5V*%
X71604500Y-48895000D02*
X69723000Y-48895000D01*
X68834000Y-48006000D02*
X68834000Y-48514000D01*
X68834000Y-46101000D02*
X68834000Y-48006000D01*
X69723000Y-48895000D02*
X68834000Y-48006000D01*
D18*
%TO.N,Net-(Q1-E)*%
X73429500Y-48895000D02*
X73429500Y-47117000D01*
X73509500Y-47037000D02*
X73429500Y-47117000D01*
X76290000Y-47037000D02*
X73509500Y-47037000D01*
D17*
%TO.N,+5V*%
X68834000Y-48868500D02*
X66902500Y-50800000D01*
X68834000Y-48514000D02*
X68834000Y-48868500D01*
X67272500Y-46899500D02*
X67272500Y-46537000D01*
X74676000Y-65532000D02*
X74676000Y-78486000D01*
X68834000Y-44121000D02*
X68834000Y-45847000D01*
X67512000Y-73712000D02*
X66240000Y-73712000D01*
X74676000Y-65278000D02*
X74676000Y-65786000D01*
X76240000Y-66092000D02*
X75236000Y-66092000D01*
X74982000Y-78792000D02*
X76240000Y-78792000D01*
X68072000Y-80899000D02*
X67639000Y-81332000D01*
X67512000Y-73712000D02*
X68072000Y-73152000D01*
X76240000Y-61012000D02*
X75236000Y-61012000D01*
X68072000Y-73152000D02*
X68072000Y-72898000D01*
X66250000Y-41537000D02*
X68834000Y-44121000D01*
X68144000Y-46537000D02*
X67272500Y-46537000D01*
X74676000Y-60452000D02*
X74676000Y-62992000D01*
X67639000Y-81332000D02*
X66240000Y-81332000D01*
X75236000Y-66092000D02*
X74676000Y-65532000D01*
X68072000Y-72898000D02*
X68072000Y-80899000D01*
X76240000Y-63552000D02*
X75236000Y-63552000D01*
X74676000Y-65278000D02*
X74676000Y-65532000D01*
X74676000Y-62992000D02*
X74676000Y-65278000D01*
X68834000Y-45847000D02*
X68144000Y-46537000D01*
X74676000Y-78486000D02*
X74982000Y-78792000D01*
X75236000Y-61012000D02*
X74676000Y-60452000D01*
X75236000Y-63552000D02*
X74676000Y-62992000D01*
X68834000Y-45847000D02*
X68834000Y-46101000D01*
%TO.N,ROG*%
X63681000Y-83853000D02*
X66240000Y-86412000D01*
X71330000Y-41537000D02*
X69344000Y-39551000D01*
X69344000Y-39551000D02*
X64843000Y-39551000D01*
X64843000Y-39551000D02*
X63681000Y-40713000D01*
X63681000Y-40713000D02*
X63681000Y-83853000D01*
%TO.N,CLK*%
X65024000Y-39878000D02*
X67131000Y-39878000D01*
X64008000Y-40894000D02*
X65024000Y-39878000D01*
X64008000Y-68940000D02*
X64008000Y-40894000D01*
X67131000Y-39878000D02*
X68790000Y-41537000D01*
X66240000Y-71172000D02*
X64008000Y-68940000D01*
%TD*%
%TA.AperFunction,Conductor*%
%TO.N,GND*%
G36*
X71375920Y-28194060D02*
G01*
X72251980Y-28221435D01*
X72265743Y-28222637D01*
X72348882Y-28234590D01*
X72664509Y-28279971D01*
X72673200Y-28281540D01*
X73222753Y-28401088D01*
X73231329Y-28403276D01*
X73770971Y-28561730D01*
X73779330Y-28564512D01*
X74306318Y-28761068D01*
X74314451Y-28764437D01*
X74826061Y-28998082D01*
X74833960Y-29002036D01*
X75327581Y-29271574D01*
X75335193Y-29276091D01*
X75808299Y-29580138D01*
X75815570Y-29585186D01*
X76265806Y-29922228D01*
X76272699Y-29927782D01*
X76697740Y-30296082D01*
X76704218Y-30302114D01*
X77101885Y-30699781D01*
X77107917Y-30706259D01*
X77476217Y-31131300D01*
X77481771Y-31138193D01*
X77818813Y-31588429D01*
X77823861Y-31595700D01*
X78127908Y-32068806D01*
X78132425Y-32076418D01*
X78401963Y-32570039D01*
X78405922Y-32577949D01*
X78639556Y-33089535D01*
X78642938Y-33097699D01*
X78839480Y-33624650D01*
X78842275Y-33633048D01*
X79000722Y-34172669D01*
X79002911Y-34181246D01*
X79122457Y-34730789D01*
X79124029Y-34739500D01*
X79204068Y-35296185D01*
X79205014Y-35304986D01*
X79245174Y-35866505D01*
X79245485Y-35874244D01*
X79247995Y-36155439D01*
X79248000Y-36156546D01*
X79248000Y-96655453D01*
X79247995Y-96656560D01*
X79245485Y-96937755D01*
X79245174Y-96945494D01*
X79205014Y-97507013D01*
X79204068Y-97515814D01*
X79124029Y-98072499D01*
X79122457Y-98081210D01*
X79002911Y-98630753D01*
X79000722Y-98639330D01*
X78842275Y-99178951D01*
X78839480Y-99187349D01*
X78642938Y-99714300D01*
X78639550Y-99722479D01*
X78405925Y-100234045D01*
X78401963Y-100241960D01*
X78132425Y-100735581D01*
X78127908Y-100743193D01*
X77823861Y-101216299D01*
X77818813Y-101223570D01*
X77481771Y-101673806D01*
X77476217Y-101680699D01*
X77107917Y-102105740D01*
X77101885Y-102112218D01*
X76704218Y-102509885D01*
X76697740Y-102515917D01*
X76272699Y-102884217D01*
X76265806Y-102889771D01*
X75815570Y-103226813D01*
X75808299Y-103231861D01*
X75335193Y-103535908D01*
X75327581Y-103540425D01*
X74833960Y-103809963D01*
X74826045Y-103813925D01*
X74633355Y-103901924D01*
X74385169Y-104015267D01*
X74314479Y-104047550D01*
X74306300Y-104050938D01*
X73779349Y-104247480D01*
X73770951Y-104250275D01*
X73231330Y-104408722D01*
X73222753Y-104410911D01*
X72673210Y-104530457D01*
X72664499Y-104532029D01*
X72107814Y-104612068D01*
X72099013Y-104613014D01*
X71614263Y-104647684D01*
X71605417Y-104648000D01*
X71375921Y-104648000D01*
X71372048Y-104647939D01*
X70510088Y-104621002D01*
X70505116Y-104620747D01*
X70396987Y-104613014D01*
X70388185Y-104612068D01*
X69831500Y-104532029D01*
X69822789Y-104530457D01*
X69273246Y-104410911D01*
X69264669Y-104408722D01*
X68725048Y-104250275D01*
X68716650Y-104247480D01*
X68298265Y-104091431D01*
X68189696Y-104050936D01*
X68181535Y-104047556D01*
X67669949Y-103813922D01*
X67662039Y-103809963D01*
X67168418Y-103540425D01*
X67160806Y-103535908D01*
X66687700Y-103231861D01*
X66680429Y-103226813D01*
X66230193Y-102889771D01*
X66223300Y-102884217D01*
X65798259Y-102515917D01*
X65791781Y-102509885D01*
X65394114Y-102112218D01*
X65388082Y-102105740D01*
X65019782Y-101680699D01*
X65014228Y-101673806D01*
X64677186Y-101223570D01*
X64672138Y-101216299D01*
X64368091Y-100743193D01*
X64363574Y-100735581D01*
X64094036Y-100241960D01*
X64090082Y-100234061D01*
X63965282Y-99960788D01*
X67274300Y-99960788D01*
X67274300Y-100351211D01*
X67312568Y-100739765D01*
X67388732Y-101122674D01*
X67388735Y-101122685D01*
X67502075Y-101496319D01*
X67651487Y-101857027D01*
X67651489Y-101857032D01*
X67835527Y-102201342D01*
X67835538Y-102201360D01*
X68052439Y-102525976D01*
X68052449Y-102525990D01*
X68300136Y-102827797D01*
X68576202Y-103103863D01*
X68576207Y-103103867D01*
X68576208Y-103103868D01*
X68878015Y-103351555D01*
X69202646Y-103568466D01*
X69202655Y-103568471D01*
X69202657Y-103568472D01*
X69546967Y-103752510D01*
X69546969Y-103752510D01*
X69546975Y-103752514D01*
X69695234Y-103813925D01*
X69907680Y-103901924D01*
X69907684Y-103901925D01*
X69907686Y-103901926D01*
X70281305Y-104015262D01*
X70281311Y-104015263D01*
X70281314Y-104015264D01*
X70281325Y-104015267D01*
X70664234Y-104091431D01*
X71052785Y-104129700D01*
X71052788Y-104129700D01*
X71443212Y-104129700D01*
X71443215Y-104129700D01*
X71831766Y-104091431D01*
X71906307Y-104076603D01*
X72214674Y-104015267D01*
X72214685Y-104015264D01*
X72214685Y-104015263D01*
X72214695Y-104015262D01*
X72588314Y-103901926D01*
X72949025Y-103752514D01*
X73293354Y-103568466D01*
X73617985Y-103351555D01*
X73919792Y-103103868D01*
X74195868Y-102827792D01*
X74443555Y-102525985D01*
X74660466Y-102201354D01*
X74844514Y-101857025D01*
X74993926Y-101496314D01*
X75107262Y-101122695D01*
X75107264Y-101122685D01*
X75107267Y-101122674D01*
X75183431Y-100739765D01*
X75221700Y-100351211D01*
X75221700Y-99960788D01*
X75183431Y-99572234D01*
X75107267Y-99189325D01*
X75107264Y-99189314D01*
X75107263Y-99189311D01*
X75107262Y-99189305D01*
X74993926Y-98815686D01*
X74844514Y-98454975D01*
X74660466Y-98110646D01*
X74443555Y-97786015D01*
X74195868Y-97484208D01*
X74195867Y-97484207D01*
X74195863Y-97484202D01*
X73919797Y-97208136D01*
X73617990Y-96960449D01*
X73617989Y-96960448D01*
X73617985Y-96960445D01*
X73293354Y-96743534D01*
X73293349Y-96743531D01*
X73293342Y-96743527D01*
X72949032Y-96559489D01*
X72949027Y-96559487D01*
X72588319Y-96410075D01*
X72214685Y-96296735D01*
X72214674Y-96296732D01*
X71831765Y-96220568D01*
X71539126Y-96191746D01*
X71443215Y-96182300D01*
X71052785Y-96182300D01*
X70964165Y-96191028D01*
X70664234Y-96220568D01*
X70281325Y-96296732D01*
X70281314Y-96296735D01*
X69907680Y-96410075D01*
X69546972Y-96559487D01*
X69546967Y-96559489D01*
X69202657Y-96743527D01*
X69202639Y-96743538D01*
X68878023Y-96960439D01*
X68878009Y-96960449D01*
X68576202Y-97208136D01*
X68300136Y-97484202D01*
X68052449Y-97786009D01*
X68052439Y-97786023D01*
X67835538Y-98110639D01*
X67835527Y-98110657D01*
X67651489Y-98454967D01*
X67651487Y-98454972D01*
X67502075Y-98815680D01*
X67388735Y-99189314D01*
X67388732Y-99189325D01*
X67312568Y-99572234D01*
X67274300Y-99960788D01*
X63965282Y-99960788D01*
X63856437Y-99722451D01*
X63853068Y-99714318D01*
X63656512Y-99187330D01*
X63653730Y-99178971D01*
X63495276Y-98639329D01*
X63493088Y-98630753D01*
X63373542Y-98081210D01*
X63371970Y-98072499D01*
X63291928Y-97515793D01*
X63290987Y-97507035D01*
X63250824Y-96945482D01*
X63250514Y-96937754D01*
X63248005Y-96656559D01*
X63248000Y-96655453D01*
X63248000Y-84516978D01*
X63267685Y-84449939D01*
X63320489Y-84404184D01*
X63389647Y-84394240D01*
X63453203Y-84423265D01*
X63459679Y-84429296D01*
X64238593Y-85208210D01*
X64989993Y-85959610D01*
X65023478Y-86020933D01*
X65022087Y-86079384D01*
X64991930Y-86191929D01*
X64991930Y-86191933D01*
X64972677Y-86411997D01*
X64972677Y-86412002D01*
X64991929Y-86632062D01*
X64991930Y-86632070D01*
X65049104Y-86845445D01*
X65049105Y-86845447D01*
X65049106Y-86845450D01*
X65142466Y-87045662D01*
X65142468Y-87045666D01*
X65269170Y-87226615D01*
X65269175Y-87226621D01*
X65425378Y-87382824D01*
X65425384Y-87382829D01*
X65606333Y-87509531D01*
X65606335Y-87509532D01*
X65606338Y-87509534D01*
X65806550Y-87602894D01*
X66019932Y-87660070D01*
X66177123Y-87673822D01*
X66239998Y-87679323D01*
X66240000Y-87679323D01*
X66240002Y-87679323D01*
X66295017Y-87674509D01*
X66460068Y-87660070D01*
X66673450Y-87602894D01*
X66873662Y-87509534D01*
X67054620Y-87382826D01*
X67210826Y-87226620D01*
X67337534Y-87045662D01*
X67430894Y-86845450D01*
X67488070Y-86632068D01*
X67507323Y-86412000D01*
X67488070Y-86191932D01*
X67430894Y-85978550D01*
X67337534Y-85778339D01*
X67210826Y-85597380D01*
X67054620Y-85441174D01*
X67054616Y-85441171D01*
X67054615Y-85441170D01*
X66873666Y-85314468D01*
X66873658Y-85314464D01*
X66744811Y-85254382D01*
X66692371Y-85208210D01*
X66673219Y-85141017D01*
X66693435Y-85074135D01*
X66744811Y-85029618D01*
X66750802Y-85026824D01*
X66873662Y-84969534D01*
X67054620Y-84842826D01*
X67210826Y-84686620D01*
X67337534Y-84505662D01*
X67430894Y-84305450D01*
X67488070Y-84092068D01*
X67507323Y-83872000D01*
X67488070Y-83651932D01*
X67430894Y-83438550D01*
X67337534Y-83238339D01*
X67210826Y-83057380D01*
X67054620Y-82901174D01*
X67054616Y-82901171D01*
X67054615Y-82901170D01*
X66873666Y-82774468D01*
X66873658Y-82774464D01*
X66744811Y-82714382D01*
X66692371Y-82668210D01*
X66673219Y-82601017D01*
X66693435Y-82534135D01*
X66744811Y-82489618D01*
X66750802Y-82486824D01*
X66873662Y-82429534D01*
X67054620Y-82302826D01*
X67210826Y-82146620D01*
X67337534Y-81965662D01*
X67337536Y-81965655D01*
X67340239Y-81960976D01*
X67341713Y-81961827D01*
X67382795Y-81915162D01*
X67449014Y-81896000D01*
X67713251Y-81896000D01*
X67713253Y-81896000D01*
X67856696Y-81857565D01*
X67985304Y-81783313D01*
X68090313Y-81678304D01*
X68090313Y-81678302D01*
X68100517Y-81668099D01*
X68100521Y-81668094D01*
X68408094Y-81360521D01*
X68408099Y-81360517D01*
X68418302Y-81350313D01*
X68418304Y-81350313D01*
X68495319Y-81273298D01*
X68556642Y-81239813D01*
X68626334Y-81244797D01*
X68682267Y-81286669D01*
X68706684Y-81352133D01*
X68707000Y-81360979D01*
X68707000Y-87503008D01*
X68709344Y-87562969D01*
X68709344Y-87562971D01*
X68709345Y-87562973D01*
X68746411Y-87677048D01*
X68816913Y-87774087D01*
X68913952Y-87844589D01*
X69028027Y-87881655D01*
X69043020Y-87882241D01*
X69087991Y-87884000D01*
X73406000Y-87884000D01*
X73406009Y-87884000D01*
X73447519Y-87882376D01*
X73465973Y-87881655D01*
X73580048Y-87844589D01*
X73677087Y-87774087D01*
X73747589Y-87677048D01*
X73784655Y-87562973D01*
X73787000Y-87503000D01*
X73787000Y-60325000D01*
X73786891Y-60322224D01*
X73784655Y-60265030D01*
X73784655Y-60265027D01*
X73747589Y-60150952D01*
X73677087Y-60053913D01*
X73580048Y-59983411D01*
X73580046Y-59983410D01*
X73518580Y-59963438D01*
X73465973Y-59946345D01*
X73465971Y-59946344D01*
X73465969Y-59946344D01*
X73406009Y-59944000D01*
X73406000Y-59944000D01*
X69088000Y-59944000D01*
X69087991Y-59944000D01*
X69028030Y-59946344D01*
X68913952Y-59983411D01*
X68913950Y-59983412D01*
X68832884Y-60042309D01*
X68767077Y-60065788D01*
X68699024Y-60049962D01*
X68650330Y-59999855D01*
X68636000Y-59941990D01*
X68636000Y-55148978D01*
X68655685Y-55081939D01*
X68672319Y-55061297D01*
X69059287Y-54674328D01*
X69120608Y-54640845D01*
X69179056Y-54642235D01*
X69267747Y-54666000D01*
X69267748Y-54666000D01*
X73988000Y-54666000D01*
X74055039Y-54685685D01*
X74100794Y-54738489D01*
X74112000Y-54790000D01*
X74112000Y-60377747D01*
X74112000Y-60377748D01*
X74112000Y-62917747D01*
X74112000Y-62917748D01*
X74112000Y-65203748D01*
X74112000Y-65457747D01*
X74112000Y-65457748D01*
X74112000Y-78411747D01*
X74112000Y-78560253D01*
X74115765Y-78574303D01*
X74150435Y-78703696D01*
X74224687Y-78832304D01*
X74224689Y-78832306D01*
X74336761Y-78944378D01*
X74336767Y-78944383D01*
X74526346Y-79133962D01*
X74526356Y-79133973D01*
X74530686Y-79138303D01*
X74530687Y-79138304D01*
X74635696Y-79243313D01*
X74717229Y-79290386D01*
X74764303Y-79317565D01*
X74907747Y-79356000D01*
X74907748Y-79356000D01*
X75030986Y-79356000D01*
X75098025Y-79375685D01*
X75138312Y-79421812D01*
X75139761Y-79420976D01*
X75142468Y-79425666D01*
X75269170Y-79606615D01*
X75269175Y-79606621D01*
X75425378Y-79762824D01*
X75425384Y-79762829D01*
X75606333Y-79889531D01*
X75606335Y-79889532D01*
X75606338Y-79889534D01*
X75725748Y-79945215D01*
X75735189Y-79949618D01*
X75787628Y-79995790D01*
X75806780Y-80062984D01*
X75786564Y-80129865D01*
X75735189Y-80174382D01*
X75606340Y-80234465D01*
X75606338Y-80234466D01*
X75425377Y-80361175D01*
X75269175Y-80517377D01*
X75142466Y-80698338D01*
X75142465Y-80698340D01*
X75049107Y-80898548D01*
X75049104Y-80898554D01*
X74991930Y-81111929D01*
X74991929Y-81111937D01*
X74972677Y-81331997D01*
X74972677Y-81332002D01*
X74991929Y-81552062D01*
X74991930Y-81552070D01*
X75049104Y-81765445D01*
X75049105Y-81765447D01*
X75049106Y-81765450D01*
X75092060Y-81857565D01*
X75142466Y-81965662D01*
X75142468Y-81965666D01*
X75269170Y-82146615D01*
X75269175Y-82146621D01*
X75425378Y-82302824D01*
X75425384Y-82302829D01*
X75606333Y-82429531D01*
X75606335Y-82429532D01*
X75606338Y-82429534D01*
X75725748Y-82485215D01*
X75735189Y-82489618D01*
X75787628Y-82535790D01*
X75806780Y-82602984D01*
X75786564Y-82669865D01*
X75735189Y-82714382D01*
X75606340Y-82774465D01*
X75606338Y-82774466D01*
X75425377Y-82901175D01*
X75269175Y-83057377D01*
X75142466Y-83238338D01*
X75142465Y-83238340D01*
X75049107Y-83438548D01*
X75049104Y-83438554D01*
X74991930Y-83651929D01*
X74991929Y-83651937D01*
X74972677Y-83871997D01*
X74972677Y-83872002D01*
X74991929Y-84092062D01*
X74991930Y-84092070D01*
X75049104Y-84305445D01*
X75049105Y-84305447D01*
X75049106Y-84305450D01*
X75095146Y-84404184D01*
X75142466Y-84505662D01*
X75142468Y-84505666D01*
X75269170Y-84686615D01*
X75269175Y-84686621D01*
X75425378Y-84842824D01*
X75425384Y-84842829D01*
X75606333Y-84969531D01*
X75606335Y-84969532D01*
X75606338Y-84969534D01*
X75806550Y-85062894D01*
X76019932Y-85120070D01*
X76177123Y-85133822D01*
X76239998Y-85139323D01*
X76240000Y-85139323D01*
X76240002Y-85139323D01*
X76295017Y-85134509D01*
X76460068Y-85120070D01*
X76673450Y-85062894D01*
X76873662Y-84969534D01*
X77054620Y-84842826D01*
X77210826Y-84686620D01*
X77337534Y-84505662D01*
X77430894Y-84305450D01*
X77488070Y-84092068D01*
X77507323Y-83872000D01*
X77488070Y-83651932D01*
X77430894Y-83438550D01*
X77337534Y-83238339D01*
X77210826Y-83057380D01*
X77054620Y-82901174D01*
X77054616Y-82901171D01*
X77054615Y-82901170D01*
X76873666Y-82774468D01*
X76873658Y-82774464D01*
X76744811Y-82714382D01*
X76692371Y-82668210D01*
X76673219Y-82601017D01*
X76693435Y-82534135D01*
X76744811Y-82489618D01*
X76750802Y-82486824D01*
X76873662Y-82429534D01*
X77054620Y-82302826D01*
X77210826Y-82146620D01*
X77337534Y-81965662D01*
X77430894Y-81765450D01*
X77488070Y-81552068D01*
X77504788Y-81360979D01*
X77507323Y-81332002D01*
X77507323Y-81331997D01*
X77492605Y-81163770D01*
X77488070Y-81111932D01*
X77430894Y-80898550D01*
X77337534Y-80698339D01*
X77210826Y-80517380D01*
X77054620Y-80361174D01*
X77054616Y-80361171D01*
X77054615Y-80361170D01*
X76873666Y-80234468D01*
X76873658Y-80234464D01*
X76744811Y-80174382D01*
X76692371Y-80128210D01*
X76673219Y-80061017D01*
X76693435Y-79994135D01*
X76744811Y-79949618D01*
X76750802Y-79946824D01*
X76873662Y-79889534D01*
X77054620Y-79762826D01*
X77210826Y-79606620D01*
X77337534Y-79425662D01*
X77430894Y-79225450D01*
X77488070Y-79012068D01*
X77507323Y-78792000D01*
X77488070Y-78571932D01*
X77430894Y-78358550D01*
X77337534Y-78158339D01*
X77210826Y-77977380D01*
X77054620Y-77821174D01*
X77054616Y-77821171D01*
X77054615Y-77821170D01*
X76873666Y-77694468D01*
X76873662Y-77694466D01*
X76873658Y-77694464D01*
X76673450Y-77601106D01*
X76673447Y-77601105D01*
X76673445Y-77601104D01*
X76460070Y-77543930D01*
X76460062Y-77543929D01*
X76240002Y-77524677D01*
X76239998Y-77524677D01*
X76019937Y-77543929D01*
X76019929Y-77543930D01*
X75806554Y-77601104D01*
X75806548Y-77601107D01*
X75606340Y-77694465D01*
X75606338Y-77694466D01*
X75435123Y-77814351D01*
X75368916Y-77836679D01*
X75301149Y-77819667D01*
X75253337Y-77768719D01*
X75240000Y-77712776D01*
X75240000Y-72251223D01*
X75259685Y-72184184D01*
X75312489Y-72138429D01*
X75381647Y-72128485D01*
X75435121Y-72149646D01*
X75606338Y-72269534D01*
X75806550Y-72362894D01*
X76019932Y-72420070D01*
X76177123Y-72433822D01*
X76239998Y-72439323D01*
X76240000Y-72439323D01*
X76240002Y-72439323D01*
X76295017Y-72434509D01*
X76460068Y-72420070D01*
X76673450Y-72362894D01*
X76873662Y-72269534D01*
X77054620Y-72142826D01*
X77210826Y-71986620D01*
X77337534Y-71805662D01*
X77337536Y-71805655D01*
X77340239Y-71800976D01*
X77341713Y-71801827D01*
X77382795Y-71755162D01*
X77449014Y-71736000D01*
X77492251Y-71736000D01*
X77492253Y-71736000D01*
X77635696Y-71697565D01*
X77764304Y-71623313D01*
X77869313Y-71518304D01*
X77869314Y-71518302D01*
X78429313Y-70958304D01*
X78503565Y-70829696D01*
X78542001Y-70686252D01*
X78542001Y-70537747D01*
X78542001Y-70530152D01*
X78542000Y-70530134D01*
X78542000Y-53646750D01*
X78542000Y-53646748D01*
X78503565Y-53503304D01*
X78429313Y-53374696D01*
X78324304Y-53269687D01*
X78324303Y-53269686D01*
X78319973Y-53265356D01*
X78319962Y-53265346D01*
X78182383Y-53127767D01*
X78182381Y-53127764D01*
X78070306Y-53015689D01*
X78070304Y-53015687D01*
X77941696Y-52941435D01*
X77798253Y-52903000D01*
X77798252Y-52903000D01*
X73940500Y-52903000D01*
X73873461Y-52883315D01*
X73827706Y-52830511D01*
X73816500Y-52779000D01*
X73816500Y-52064964D01*
X73836185Y-51997925D01*
X73875401Y-51959427D01*
X74013350Y-51874340D01*
X74135340Y-51752350D01*
X74225908Y-51605516D01*
X74280174Y-51441753D01*
X74290500Y-51340677D01*
X74290499Y-50767324D01*
X74287121Y-50734259D01*
X74280174Y-50666247D01*
X74225908Y-50502484D01*
X74135340Y-50355650D01*
X74013350Y-50233660D01*
X73866516Y-50143092D01*
X73755084Y-50106167D01*
X73697641Y-50066395D01*
X73670818Y-50001879D01*
X73683133Y-49933104D01*
X73730676Y-49881904D01*
X73781488Y-49865104D01*
X73829753Y-49860174D01*
X73993516Y-49805908D01*
X74140350Y-49715340D01*
X74262340Y-49593350D01*
X74352908Y-49446516D01*
X74407174Y-49282753D01*
X74417500Y-49181677D01*
X74417499Y-48608324D01*
X74414965Y-48583521D01*
X74407174Y-48507247D01*
X74371304Y-48399000D01*
X74352908Y-48343484D01*
X74262340Y-48196650D01*
X74159371Y-48093681D01*
X74125886Y-48032358D01*
X74130870Y-47962666D01*
X74159371Y-47918319D01*
X74192797Y-47884893D01*
X74262340Y-47815350D01*
X74288842Y-47772384D01*
X74320288Y-47721403D01*
X74372236Y-47674678D01*
X74425826Y-47662500D01*
X75380541Y-47662500D01*
X75447580Y-47682185D01*
X75493335Y-47734989D01*
X75499617Y-47751905D01*
X75538254Y-47884893D01*
X75538255Y-47884896D01*
X75621917Y-48026362D01*
X75621923Y-48026370D01*
X75738129Y-48142576D01*
X75738133Y-48142579D01*
X75738135Y-48142581D01*
X75879602Y-48226244D01*
X75921224Y-48238336D01*
X76037426Y-48272097D01*
X76037429Y-48272097D01*
X76037431Y-48272098D01*
X76074306Y-48275000D01*
X76315500Y-48275000D01*
X76382539Y-48294685D01*
X76428294Y-48347489D01*
X76439500Y-48399000D01*
X76439500Y-49565201D01*
X76442401Y-49602067D01*
X76442402Y-49602073D01*
X76468072Y-49690426D01*
X76467873Y-49760295D01*
X76429931Y-49818965D01*
X76421882Y-49825338D01*
X76356132Y-49873109D01*
X76356123Y-49873116D01*
X76229466Y-50013785D01*
X76134821Y-50177715D01*
X76134818Y-50177722D01*
X76111826Y-50248486D01*
X76076326Y-50357744D01*
X76056540Y-50546000D01*
X76076326Y-50734256D01*
X76076327Y-50734259D01*
X76134818Y-50914277D01*
X76134821Y-50914284D01*
X76229467Y-51078216D01*
X76328093Y-51187751D01*
X76356129Y-51218888D01*
X76509265Y-51330148D01*
X76509270Y-51330151D01*
X76682192Y-51407142D01*
X76682197Y-51407144D01*
X76867354Y-51446500D01*
X76867355Y-51446500D01*
X77056644Y-51446500D01*
X77056646Y-51446500D01*
X77241803Y-51407144D01*
X77414730Y-51330151D01*
X77567871Y-51218888D01*
X77694533Y-51078216D01*
X77789179Y-50914284D01*
X77847674Y-50734256D01*
X77867460Y-50546000D01*
X77847674Y-50357744D01*
X77810069Y-50242008D01*
X77804000Y-50203690D01*
X77804000Y-50056808D01*
X77823685Y-49989769D01*
X77840314Y-49969131D01*
X77908081Y-49901365D01*
X77991744Y-49759898D01*
X78037598Y-49602069D01*
X78040500Y-49565194D01*
X78040500Y-48258806D01*
X78037598Y-48221931D01*
X78014544Y-48142581D01*
X77991745Y-48064106D01*
X77991744Y-48064103D01*
X77991744Y-48064102D01*
X77908081Y-47922635D01*
X77908079Y-47922633D01*
X77908076Y-47922629D01*
X77791870Y-47806423D01*
X77791862Y-47806417D01*
X77650396Y-47722755D01*
X77650393Y-47722754D01*
X77492573Y-47676902D01*
X77492567Y-47676901D01*
X77455701Y-47674000D01*
X77455694Y-47674000D01*
X77214500Y-47674000D01*
X77147461Y-47654315D01*
X77101706Y-47601511D01*
X77090500Y-47550000D01*
X77090500Y-46383813D01*
X77090499Y-46383798D01*
X77087598Y-46346932D01*
X77087597Y-46346926D01*
X77046680Y-46206092D01*
X77041744Y-46189102D01*
X76958081Y-46047635D01*
X76958079Y-46047633D01*
X76958076Y-46047629D01*
X76841870Y-45931423D01*
X76841862Y-45931417D01*
X76700396Y-45847755D01*
X76700393Y-45847754D01*
X76542573Y-45801902D01*
X76542567Y-45801901D01*
X76505701Y-45799000D01*
X76505694Y-45799000D01*
X76116870Y-45799000D01*
X76049831Y-45779315D01*
X76004076Y-45726511D01*
X75994132Y-45657353D01*
X75999164Y-45635996D01*
X76001462Y-45629061D01*
X76011174Y-45599753D01*
X76021500Y-45498677D01*
X76021499Y-44925324D01*
X76011174Y-44824247D01*
X75956908Y-44660484D01*
X75866340Y-44513650D01*
X75744350Y-44391660D01*
X75597516Y-44301092D01*
X75433753Y-44246826D01*
X75433751Y-44246825D01*
X75332678Y-44236500D01*
X74734330Y-44236500D01*
X74734312Y-44236501D01*
X74633247Y-44246825D01*
X74633240Y-44246827D01*
X74597003Y-44258835D01*
X74527174Y-44261236D01*
X74467133Y-44225504D01*
X74435941Y-44162983D01*
X74434000Y-44141129D01*
X74434000Y-42746014D01*
X74453685Y-42678975D01*
X74499806Y-42638698D01*
X74498967Y-42637245D01*
X74503658Y-42634536D01*
X74503658Y-42634535D01*
X74503662Y-42634534D01*
X74684620Y-42507826D01*
X74840826Y-42351620D01*
X74967534Y-42170662D01*
X75060894Y-41970450D01*
X75118070Y-41757068D01*
X75137323Y-41537000D01*
X75118070Y-41316932D01*
X75060894Y-41103550D01*
X74967534Y-40903339D01*
X74840826Y-40722380D01*
X74684620Y-40566174D01*
X74684616Y-40566171D01*
X74684615Y-40566170D01*
X74503666Y-40439468D01*
X74503662Y-40439466D01*
X74503660Y-40439465D01*
X74303450Y-40346106D01*
X74303447Y-40346105D01*
X74303445Y-40346104D01*
X74090070Y-40288930D01*
X74090062Y-40288929D01*
X73870002Y-40269677D01*
X73869998Y-40269677D01*
X73649937Y-40288929D01*
X73649929Y-40288930D01*
X73436554Y-40346104D01*
X73436548Y-40346107D01*
X73236340Y-40439465D01*
X73236338Y-40439466D01*
X73055377Y-40566175D01*
X72899175Y-40722377D01*
X72772466Y-40903338D01*
X72772465Y-40903340D01*
X72712382Y-41032189D01*
X72666209Y-41084628D01*
X72599016Y-41103780D01*
X72532135Y-41083564D01*
X72487618Y-41032189D01*
X72469059Y-40992390D01*
X72427534Y-40903339D01*
X72300826Y-40722380D01*
X72144620Y-40566174D01*
X72144616Y-40566171D01*
X72144615Y-40566170D01*
X71963666Y-40439468D01*
X71963662Y-40439466D01*
X71963660Y-40439465D01*
X71763450Y-40346106D01*
X71763447Y-40346105D01*
X71763445Y-40346104D01*
X71550070Y-40288930D01*
X71550062Y-40288929D01*
X71330002Y-40269677D01*
X71329998Y-40269677D01*
X71183288Y-40282512D01*
X71109932Y-40288930D01*
X71109929Y-40288930D01*
X70997383Y-40319087D01*
X70927533Y-40317424D01*
X70877609Y-40286993D01*
X69802383Y-39211767D01*
X69802381Y-39211764D01*
X69690306Y-39099689D01*
X69690304Y-39099687D01*
X69561696Y-39025435D01*
X69418253Y-38987000D01*
X69418252Y-38987000D01*
X64917252Y-38987000D01*
X64768747Y-38987000D01*
X64625304Y-39025435D01*
X64625301Y-39025436D01*
X64496699Y-39099685D01*
X64496693Y-39099689D01*
X63459681Y-40136702D01*
X63398358Y-40170187D01*
X63328666Y-40165203D01*
X63272733Y-40123331D01*
X63248316Y-40057867D01*
X63248000Y-40049021D01*
X63248000Y-36156546D01*
X63248005Y-36155440D01*
X63250514Y-35874245D01*
X63250825Y-35866505D01*
X63251895Y-35851550D01*
X63290987Y-35304961D01*
X63291928Y-35296209D01*
X63371972Y-34739485D01*
X63373539Y-34730804D01*
X63493089Y-34181238D01*
X63495277Y-34172669D01*
X63653733Y-33633020D01*
X63656509Y-33624677D01*
X63853072Y-33097671D01*
X63856433Y-33089558D01*
X64090087Y-32577926D01*
X64094027Y-32570055D01*
X64153691Y-32460788D01*
X67274300Y-32460788D01*
X67274300Y-32851211D01*
X67312568Y-33239765D01*
X67388732Y-33622674D01*
X67388735Y-33622685D01*
X67502075Y-33996319D01*
X67651487Y-34357027D01*
X67651489Y-34357032D01*
X67835527Y-34701342D01*
X67835538Y-34701360D01*
X68052439Y-35025976D01*
X68052449Y-35025990D01*
X68300136Y-35327797D01*
X68576202Y-35603863D01*
X68576207Y-35603867D01*
X68576208Y-35603868D01*
X68878015Y-35851555D01*
X69202646Y-36068466D01*
X69202655Y-36068471D01*
X69202657Y-36068472D01*
X69546967Y-36252510D01*
X69546969Y-36252510D01*
X69546975Y-36252514D01*
X69766812Y-36343574D01*
X69907680Y-36401924D01*
X69907684Y-36401925D01*
X69907686Y-36401926D01*
X70281305Y-36515262D01*
X70281311Y-36515263D01*
X70281314Y-36515264D01*
X70281325Y-36515267D01*
X70664234Y-36591431D01*
X71052785Y-36629700D01*
X71052788Y-36629700D01*
X71443212Y-36629700D01*
X71443215Y-36629700D01*
X71831766Y-36591431D01*
X71906307Y-36576603D01*
X72214674Y-36515267D01*
X72214685Y-36515264D01*
X72214685Y-36515263D01*
X72214695Y-36515262D01*
X72588314Y-36401926D01*
X72949025Y-36252514D01*
X73293354Y-36068466D01*
X73617985Y-35851555D01*
X73919792Y-35603868D01*
X74195868Y-35327792D01*
X74443555Y-35025985D01*
X74660466Y-34701354D01*
X74844514Y-34357025D01*
X74993926Y-33996314D01*
X75107262Y-33622695D01*
X75107264Y-33622685D01*
X75107267Y-33622674D01*
X75183431Y-33239765D01*
X75221700Y-32851211D01*
X75221700Y-32460788D01*
X75183431Y-32072234D01*
X75107267Y-31689325D01*
X75107264Y-31689314D01*
X75107263Y-31689311D01*
X75107262Y-31689305D01*
X74993926Y-31315686D01*
X74844514Y-30954975D01*
X74660466Y-30610646D01*
X74443555Y-30286015D01*
X74195868Y-29984208D01*
X74195867Y-29984207D01*
X74195863Y-29984202D01*
X73919797Y-29708136D01*
X73617990Y-29460449D01*
X73617989Y-29460448D01*
X73617985Y-29460445D01*
X73293354Y-29243534D01*
X73293349Y-29243531D01*
X73293342Y-29243527D01*
X72949032Y-29059489D01*
X72949027Y-29059487D01*
X72588319Y-28910075D01*
X72214685Y-28796735D01*
X72214674Y-28796732D01*
X71831765Y-28720568D01*
X71539126Y-28691746D01*
X71443215Y-28682300D01*
X71052785Y-28682300D01*
X70964165Y-28691028D01*
X70664234Y-28720568D01*
X70281325Y-28796732D01*
X70281314Y-28796735D01*
X69907680Y-28910075D01*
X69546972Y-29059487D01*
X69546967Y-29059489D01*
X69202657Y-29243527D01*
X69202639Y-29243538D01*
X68878023Y-29460439D01*
X68878009Y-29460449D01*
X68576202Y-29708136D01*
X68300136Y-29984202D01*
X68052449Y-30286009D01*
X68052439Y-30286023D01*
X67835538Y-30610639D01*
X67835527Y-30610657D01*
X67651489Y-30954967D01*
X67651487Y-30954972D01*
X67502075Y-31315680D01*
X67388735Y-31689314D01*
X67388732Y-31689325D01*
X67312568Y-32072234D01*
X67274300Y-32460788D01*
X64153691Y-32460788D01*
X64363578Y-32076410D01*
X64368091Y-32068806D01*
X64672138Y-31595700D01*
X64677186Y-31588429D01*
X65014228Y-31138193D01*
X65019767Y-31131317D01*
X65388094Y-30706245D01*
X65394100Y-30699795D01*
X65791795Y-30302100D01*
X65798245Y-30296094D01*
X66223317Y-29927767D01*
X66230193Y-29922228D01*
X66680429Y-29585186D01*
X66687700Y-29580138D01*
X66873955Y-29460439D01*
X67160814Y-29276086D01*
X67168410Y-29271578D01*
X67662055Y-29002027D01*
X67669926Y-28998087D01*
X68181558Y-28764433D01*
X68189671Y-28761072D01*
X68716677Y-28564509D01*
X68725020Y-28561733D01*
X69264677Y-28403274D01*
X69273238Y-28401089D01*
X69822804Y-28281539D01*
X69831485Y-28279972D01*
X70388209Y-28199928D01*
X70396967Y-28198987D01*
X70450417Y-28195164D01*
X70462282Y-28194316D01*
X70471126Y-28194000D01*
X71372047Y-28194000D01*
X71375920Y-28194060D01*
G37*
%TD.AperFunction*%
%TA.AperFunction,Conductor*%
G36*
X77333334Y-66886626D02*
G01*
X77389267Y-66928498D01*
X77413684Y-66993962D01*
X77414000Y-67002808D01*
X77414000Y-70261191D01*
X77394315Y-70328230D01*
X77341511Y-70373985D01*
X77272353Y-70383929D01*
X77208797Y-70354904D01*
X77202319Y-70348873D01*
X77181676Y-70328230D01*
X77054620Y-70201174D01*
X77054616Y-70201171D01*
X77054615Y-70201170D01*
X76873666Y-70074468D01*
X76873662Y-70074466D01*
X76873658Y-70074464D01*
X76673450Y-69981106D01*
X76673447Y-69981105D01*
X76673445Y-69981104D01*
X76460070Y-69923930D01*
X76460062Y-69923929D01*
X76240002Y-69904677D01*
X76239998Y-69904677D01*
X76019937Y-69923929D01*
X76019929Y-69923930D01*
X75806554Y-69981104D01*
X75806548Y-69981107D01*
X75606340Y-70074465D01*
X75606338Y-70074466D01*
X75435123Y-70194351D01*
X75368916Y-70216679D01*
X75301149Y-70199667D01*
X75253337Y-70148719D01*
X75240000Y-70092776D01*
X75240000Y-67171223D01*
X75259685Y-67104184D01*
X75312489Y-67058429D01*
X75381647Y-67048485D01*
X75435121Y-67069646D01*
X75606338Y-67189534D01*
X75806550Y-67282894D01*
X76019932Y-67340070D01*
X76177123Y-67353822D01*
X76239998Y-67359323D01*
X76240000Y-67359323D01*
X76240002Y-67359323D01*
X76295017Y-67354509D01*
X76460068Y-67340070D01*
X76673450Y-67282894D01*
X76873662Y-67189534D01*
X77054620Y-67062826D01*
X77202319Y-66915127D01*
X77263642Y-66881642D01*
X77333334Y-66886626D01*
G37*
%TD.AperFunction*%
%TA.AperFunction,Conductor*%
G36*
X65113210Y-40688918D02*
G01*
X65169144Y-40730789D01*
X65193561Y-40796254D01*
X65178709Y-40864527D01*
X65171454Y-40876221D01*
X65152466Y-40903339D01*
X65067930Y-41084628D01*
X65059107Y-41103548D01*
X65059104Y-41103554D01*
X65001930Y-41316929D01*
X65001929Y-41316937D01*
X64982677Y-41536997D01*
X64982677Y-41537002D01*
X65001929Y-41757062D01*
X65001930Y-41757070D01*
X65059104Y-41970445D01*
X65059105Y-41970447D01*
X65059106Y-41970450D01*
X65092382Y-42041811D01*
X65152466Y-42170662D01*
X65152468Y-42170666D01*
X65279170Y-42351615D01*
X65279175Y-42351621D01*
X65435378Y-42507824D01*
X65435384Y-42507829D01*
X65616333Y-42634531D01*
X65616335Y-42634532D01*
X65616338Y-42634534D01*
X65816550Y-42727894D01*
X66029932Y-42785070D01*
X66187123Y-42798822D01*
X66249998Y-42804323D01*
X66250000Y-42804323D01*
X66250002Y-42804323D01*
X66305017Y-42799509D01*
X66470068Y-42785070D01*
X66582616Y-42754912D01*
X66652465Y-42756575D01*
X66702390Y-42787006D01*
X68233681Y-44318297D01*
X68267166Y-44379620D01*
X68270000Y-44405978D01*
X68270000Y-45562022D01*
X68250315Y-45629061D01*
X68233680Y-45649704D01*
X68185170Y-45698213D01*
X68123847Y-45731697D01*
X68054155Y-45726712D01*
X68032393Y-45716070D01*
X68003442Y-45698213D01*
X67886516Y-45626092D01*
X67722753Y-45571826D01*
X67722751Y-45571825D01*
X67621678Y-45561500D01*
X66923330Y-45561500D01*
X66923312Y-45561501D01*
X66822247Y-45571825D01*
X66658484Y-45626092D01*
X66658481Y-45626093D01*
X66511648Y-45716661D01*
X66389661Y-45838648D01*
X66299093Y-45985481D01*
X66299091Y-45985486D01*
X66278844Y-46046587D01*
X66244826Y-46149247D01*
X66244826Y-46149248D01*
X66244825Y-46149248D01*
X66234500Y-46250315D01*
X66234500Y-46823669D01*
X66234501Y-46823687D01*
X66244825Y-46924752D01*
X66281109Y-47034249D01*
X66299092Y-47088516D01*
X66389660Y-47235350D01*
X66511650Y-47357340D01*
X66658484Y-47447908D01*
X66822247Y-47502174D01*
X66923323Y-47512500D01*
X67621676Y-47512499D01*
X67621684Y-47512498D01*
X67621687Y-47512498D01*
X67677030Y-47506844D01*
X67722753Y-47502174D01*
X67886516Y-47447908D01*
X68033350Y-47357340D01*
X68058319Y-47332371D01*
X68119642Y-47298886D01*
X68189334Y-47303870D01*
X68245267Y-47345742D01*
X68269684Y-47411206D01*
X68270000Y-47420052D01*
X68270000Y-48583521D01*
X68250315Y-48650560D01*
X68233681Y-48671202D01*
X67116701Y-49788181D01*
X67055378Y-49821666D01*
X67029020Y-49824500D01*
X66553330Y-49824500D01*
X66553312Y-49824501D01*
X66452247Y-49834825D01*
X66288484Y-49889092D01*
X66288481Y-49889093D01*
X66141648Y-49979661D01*
X66019661Y-50101648D01*
X65929093Y-50248481D01*
X65929092Y-50248484D01*
X65874826Y-50412247D01*
X65874826Y-50412248D01*
X65874825Y-50412248D01*
X65864500Y-50513315D01*
X65864500Y-51086669D01*
X65864501Y-51086687D01*
X65874825Y-51187752D01*
X65885143Y-51218888D01*
X65929092Y-51351516D01*
X66019660Y-51498350D01*
X66141650Y-51620340D01*
X66288484Y-51710908D01*
X66452247Y-51765174D01*
X66553323Y-51775500D01*
X67251676Y-51775499D01*
X67251684Y-51775498D01*
X67251687Y-51775498D01*
X67307030Y-51769844D01*
X67352753Y-51765174D01*
X67516516Y-51710908D01*
X67663350Y-51620340D01*
X67785340Y-51498350D01*
X67875908Y-51351516D01*
X67930174Y-51187753D01*
X67940500Y-51086677D01*
X67940499Y-50610977D01*
X67960183Y-50543939D01*
X67976818Y-50523297D01*
X68058319Y-50441796D01*
X68119642Y-50408311D01*
X68189334Y-50413295D01*
X68245267Y-50455167D01*
X68269684Y-50520631D01*
X68270000Y-50529477D01*
X68270000Y-53817021D01*
X68250315Y-53884060D01*
X68233681Y-53904702D01*
X67620689Y-54517693D01*
X67620685Y-54517699D01*
X67546436Y-54646301D01*
X67546435Y-54646304D01*
X67508000Y-54789748D01*
X67508000Y-60228511D01*
X67488315Y-60295550D01*
X67435511Y-60341305D01*
X67366353Y-60351249D01*
X67302797Y-60322224D01*
X67282425Y-60299634D01*
X67210827Y-60197381D01*
X67164398Y-60150952D01*
X67054620Y-60041174D01*
X67054616Y-60041171D01*
X67054615Y-60041170D01*
X66873666Y-59914468D01*
X66873662Y-59914466D01*
X66873660Y-59914465D01*
X66673450Y-59821106D01*
X66673447Y-59821105D01*
X66673445Y-59821104D01*
X66460070Y-59763930D01*
X66460062Y-59763929D01*
X66240002Y-59744677D01*
X66239998Y-59744677D01*
X66019937Y-59763929D01*
X66019929Y-59763930D01*
X65806554Y-59821104D01*
X65806548Y-59821107D01*
X65606340Y-59914465D01*
X65606338Y-59914466D01*
X65425377Y-60041175D01*
X65269175Y-60197377D01*
X65142466Y-60378338D01*
X65142465Y-60378340D01*
X65049107Y-60578548D01*
X65049104Y-60578554D01*
X64991930Y-60791929D01*
X64991929Y-60791937D01*
X64972677Y-61011997D01*
X64972677Y-61012002D01*
X64991929Y-61232062D01*
X64991930Y-61232070D01*
X65049104Y-61445445D01*
X65049105Y-61445447D01*
X65049106Y-61445450D01*
X65066000Y-61481679D01*
X65142466Y-61645662D01*
X65142468Y-61645666D01*
X65269170Y-61826615D01*
X65269175Y-61826621D01*
X65425378Y-61982824D01*
X65425384Y-61982829D01*
X65606333Y-62109531D01*
X65606335Y-62109532D01*
X65606338Y-62109534D01*
X65806550Y-62202894D01*
X66019932Y-62260070D01*
X66177123Y-62273822D01*
X66239998Y-62279323D01*
X66240000Y-62279323D01*
X66240002Y-62279323D01*
X66295017Y-62274509D01*
X66460068Y-62260070D01*
X66673450Y-62202894D01*
X66873662Y-62109534D01*
X67054620Y-61982826D01*
X67210826Y-61826620D01*
X67282425Y-61724366D01*
X67337002Y-61680741D01*
X67406500Y-61673547D01*
X67468855Y-61705070D01*
X67504269Y-61765299D01*
X67508000Y-61795489D01*
X67508000Y-67848511D01*
X67488315Y-67915550D01*
X67435511Y-67961305D01*
X67366353Y-67971249D01*
X67302797Y-67942224D01*
X67282425Y-67919634D01*
X67210827Y-67817381D01*
X67210823Y-67817377D01*
X67054620Y-67661174D01*
X67054616Y-67661171D01*
X67054615Y-67661170D01*
X66873666Y-67534468D01*
X66873662Y-67534466D01*
X66873660Y-67534465D01*
X66673450Y-67441106D01*
X66673447Y-67441105D01*
X66673445Y-67441104D01*
X66460070Y-67383930D01*
X66460062Y-67383929D01*
X66240002Y-67364677D01*
X66239998Y-67364677D01*
X66019937Y-67383929D01*
X66019929Y-67383930D01*
X65806554Y-67441104D01*
X65806548Y-67441107D01*
X65606340Y-67534465D01*
X65606338Y-67534466D01*
X65425377Y-67661175D01*
X65269175Y-67817377D01*
X65142466Y-67998338D01*
X65142465Y-67998340D01*
X65049107Y-68198548D01*
X65049104Y-68198554D01*
X64991930Y-68411929D01*
X64991929Y-68411937D01*
X64972677Y-68631997D01*
X64972677Y-68632002D01*
X64988531Y-68813217D01*
X64974764Y-68881717D01*
X64926149Y-68931900D01*
X64858120Y-68947833D01*
X64792277Y-68924458D01*
X64777322Y-68911705D01*
X64608319Y-68742702D01*
X64574834Y-68681379D01*
X64572000Y-68655021D01*
X64572000Y-41178978D01*
X64591685Y-41111939D01*
X64608319Y-41091297D01*
X64667427Y-41032189D01*
X64982198Y-40717417D01*
X65043519Y-40683934D01*
X65113210Y-40688918D01*
G37*
%TD.AperFunction*%
%TA.AperFunction,Conductor*%
G36*
X77357039Y-54050685D02*
G01*
X77402794Y-54103489D01*
X77414000Y-54155000D01*
X77414000Y-60101191D01*
X77394315Y-60168230D01*
X77341511Y-60213985D01*
X77272353Y-60223929D01*
X77208797Y-60194904D01*
X77202319Y-60188873D01*
X77164398Y-60150952D01*
X77054620Y-60041174D01*
X77054616Y-60041171D01*
X77054615Y-60041170D01*
X76873666Y-59914468D01*
X76873662Y-59914466D01*
X76873660Y-59914465D01*
X76673450Y-59821106D01*
X76673447Y-59821105D01*
X76673445Y-59821104D01*
X76460070Y-59763930D01*
X76460062Y-59763929D01*
X76240002Y-59744677D01*
X76239998Y-59744677D01*
X76019937Y-59763929D01*
X76019929Y-59763930D01*
X75806554Y-59821104D01*
X75806548Y-59821107D01*
X75606340Y-59914465D01*
X75606338Y-59914466D01*
X75435123Y-60034351D01*
X75368916Y-60056679D01*
X75301149Y-60039667D01*
X75253337Y-59988719D01*
X75240000Y-59932776D01*
X75240000Y-54281750D01*
X75240000Y-54281748D01*
X75214637Y-54187090D01*
X75216300Y-54117244D01*
X75255463Y-54059381D01*
X75319691Y-54031877D01*
X75334412Y-54031000D01*
X77290000Y-54031000D01*
X77357039Y-54050685D01*
G37*
%TD.AperFunction*%
%TA.AperFunction,Conductor*%
G36*
X69554081Y-49433634D02*
G01*
X69648748Y-49459000D01*
X69797253Y-49459000D01*
X70619585Y-49459000D01*
X70686624Y-49478685D01*
X70725123Y-49517903D01*
X70771657Y-49593346D01*
X70771660Y-49593350D01*
X70893650Y-49715340D01*
X71040484Y-49805908D01*
X71204247Y-49860174D01*
X71305323Y-49870500D01*
X71903676Y-49870499D01*
X71903684Y-49870498D01*
X71903687Y-49870498D01*
X71959030Y-49864844D01*
X72004753Y-49860174D01*
X72168516Y-49805908D01*
X72315350Y-49715340D01*
X72429319Y-49601371D01*
X72490642Y-49567886D01*
X72560334Y-49572870D01*
X72604681Y-49601371D01*
X72718650Y-49715340D01*
X72865484Y-49805908D01*
X72958696Y-49836795D01*
X73016139Y-49876566D01*
X73042963Y-49941082D01*
X73030648Y-50009858D01*
X72983106Y-50061058D01*
X72919697Y-50078500D01*
X72903333Y-50078500D01*
X72903312Y-50078501D01*
X72802247Y-50088825D01*
X72638484Y-50143092D01*
X72638481Y-50143093D01*
X72491648Y-50233661D01*
X72369661Y-50355648D01*
X72279093Y-50502481D01*
X72279091Y-50502486D01*
X72272195Y-50523297D01*
X72224826Y-50666247D01*
X72224826Y-50666248D01*
X72224825Y-50666248D01*
X72214500Y-50767315D01*
X72214500Y-51340669D01*
X72214501Y-51340687D01*
X72224825Y-51441752D01*
X72279092Y-51605515D01*
X72279093Y-51605518D01*
X72313395Y-51661129D01*
X72369660Y-51752350D01*
X72491650Y-51874340D01*
X72629597Y-51959426D01*
X72676321Y-52011373D01*
X72688500Y-52064964D01*
X72688500Y-53260752D01*
X72720963Y-53381907D01*
X72719300Y-53451757D01*
X72680137Y-53509619D01*
X72615908Y-53537123D01*
X72601188Y-53538000D01*
X69626978Y-53538000D01*
X69559939Y-53518315D01*
X69539297Y-53501681D01*
X69434319Y-53396703D01*
X69400834Y-53335380D01*
X69398000Y-53309022D01*
X69398000Y-49553412D01*
X69417685Y-49486373D01*
X69470489Y-49440618D01*
X69539647Y-49430674D01*
X69554081Y-49433634D01*
G37*
%TD.AperFunction*%
%TA.AperFunction,Conductor*%
G36*
X72667865Y-41990435D02*
G01*
X72712382Y-42041811D01*
X72772464Y-42170658D01*
X72772468Y-42170666D01*
X72899170Y-42351615D01*
X72899175Y-42351621D01*
X73055378Y-42507824D01*
X73055384Y-42507829D01*
X73236341Y-42634536D01*
X73241033Y-42637245D01*
X73240178Y-42638724D01*
X73286828Y-42679779D01*
X73306000Y-42746014D01*
X73306000Y-45098021D01*
X73286315Y-45165060D01*
X73269681Y-45185702D01*
X72283269Y-46172113D01*
X72221946Y-46205598D01*
X72156584Y-46202138D01*
X72088665Y-46179632D01*
X72004753Y-46151826D01*
X72004751Y-46151825D01*
X71903678Y-46141500D01*
X71305330Y-46141500D01*
X71305312Y-46141501D01*
X71204247Y-46151825D01*
X71040484Y-46206092D01*
X71040481Y-46206093D01*
X70893648Y-46296661D01*
X70771661Y-46418648D01*
X70681093Y-46565481D01*
X70681092Y-46565484D01*
X70626826Y-46729247D01*
X70626826Y-46729248D01*
X70626825Y-46729248D01*
X70616500Y-46830315D01*
X70616500Y-47403669D01*
X70616501Y-47403687D01*
X70626825Y-47504752D01*
X70641819Y-47550000D01*
X70679098Y-47662500D01*
X70681092Y-47668515D01*
X70681093Y-47668518D01*
X70694463Y-47690194D01*
X70766151Y-47806419D01*
X70771661Y-47815351D01*
X70874629Y-47918319D01*
X70908114Y-47979642D01*
X70903130Y-48049334D01*
X70874629Y-48093681D01*
X70771660Y-48196649D01*
X70771657Y-48196653D01*
X70725123Y-48272097D01*
X70673175Y-48318822D01*
X70619585Y-48331000D01*
X70007978Y-48331000D01*
X69940939Y-48311315D01*
X69920297Y-48294681D01*
X69434319Y-47808703D01*
X69400834Y-47747380D01*
X69398000Y-47721022D01*
X69398000Y-44046750D01*
X69398000Y-44046748D01*
X69359565Y-43903304D01*
X69285313Y-43774696D01*
X69180304Y-43669687D01*
X69180303Y-43669686D01*
X69175973Y-43665356D01*
X69175962Y-43665346D01*
X68510293Y-42999677D01*
X68476808Y-42938354D01*
X68481792Y-42868662D01*
X68523664Y-42812729D01*
X68589128Y-42788312D01*
X68608771Y-42788467D01*
X68773163Y-42802850D01*
X68789999Y-42804323D01*
X68790000Y-42804323D01*
X68790002Y-42804323D01*
X68845017Y-42799509D01*
X69010068Y-42785070D01*
X69223450Y-42727894D01*
X69423662Y-42634534D01*
X69604620Y-42507826D01*
X69760826Y-42351620D01*
X69887534Y-42170662D01*
X69947618Y-42041811D01*
X69993790Y-41989371D01*
X70060983Y-41970219D01*
X70127865Y-41990435D01*
X70172382Y-42041811D01*
X70232464Y-42170658D01*
X70232468Y-42170666D01*
X70359170Y-42351615D01*
X70359175Y-42351621D01*
X70515378Y-42507824D01*
X70515384Y-42507829D01*
X70696333Y-42634531D01*
X70696335Y-42634532D01*
X70696338Y-42634534D01*
X70896550Y-42727894D01*
X71109932Y-42785070D01*
X71267123Y-42798822D01*
X71329998Y-42804323D01*
X71330000Y-42804323D01*
X71330002Y-42804323D01*
X71385017Y-42799509D01*
X71550068Y-42785070D01*
X71763450Y-42727894D01*
X71963662Y-42634534D01*
X72144620Y-42507826D01*
X72300826Y-42351620D01*
X72427534Y-42170662D01*
X72487618Y-42041811D01*
X72533790Y-41989371D01*
X72600983Y-41970219D01*
X72667865Y-41990435D01*
G37*
%TD.AperFunction*%
%TD*%
M02*
