%TF.GenerationSoftware,KiCad,Pcbnew,9.0.8-9.0.8~ubuntu22.04.1*%
%TF.CreationDate,2026-03-23T14:46:36-05:00*%
%TF.ProjectId,CCD_Breakout,4343445f-4272-4656-916b-6f75742e6b69,rev?*%
%TF.SameCoordinates,Original*%
%TF.FileFunction,Copper,L2,Bot*%
%TF.FilePolarity,Positive*%
%FSLAX46Y46*%
G04 Gerber Fmt 4.6, Leading zero omitted, Abs format (unit mm)*
G04 Created by KiCad (PCBNEW 9.0.8-9.0.8~ubuntu22.04.1) date 2026-03-23 14:46:36*
%MOMM*%
%LPD*%
G01*
G04 APERTURE LIST*
%TA.AperFunction,ComponentPad*%
%ADD10C,0.800000*%
%TD*%
%TA.AperFunction,ComponentPad*%
%ADD11C,6.400000*%
%TD*%
%TA.AperFunction,ComponentPad*%
%ADD12C,1.524000*%
%TD*%
%TA.AperFunction,ComponentPad*%
%ADD13R,1.218000X1.218000*%
%TD*%
%TA.AperFunction,ComponentPad*%
%ADD14C,1.218000*%
%TD*%
%TA.AperFunction,ViaPad*%
%ADD15C,0.600000*%
%TD*%
%TA.AperFunction,Conductor*%
%ADD16C,0.254000*%
%TD*%
G04 APERTURE END LIST*
D10*
%TO.P,H1,1,1*%
%TO.N,GND*%
X118250000Y-84074000D03*
X118952944Y-82376944D03*
X118952944Y-85771056D03*
X120650000Y-81674000D03*
D11*
X120650000Y-84074000D03*
D10*
X120650000Y-86474000D03*
X122347056Y-82376944D03*
X122347056Y-85771056D03*
X123050000Y-84074000D03*
%TD*%
D12*
%TO.P,Conn1,1*%
%TO.N,Net-(Q1-D)*%
X129794000Y-105410000D03*
%TO.P,Conn1,2*%
%TO.N,Net-(Q2-D)*%
X129794000Y-102870000D03*
%TO.P,Conn1,3*%
%TO.N,/ADC/OUT*%
X129794000Y-100330000D03*
%TO.P,Conn1,4*%
%TO.N,/CCD/CLK*%
X129794000Y-97790000D03*
%TO.P,Conn1,5*%
%TO.N,/CCD/Trig*%
X129794000Y-95250000D03*
%TO.P,Conn1,6*%
%TO.N,/CCD/ST*%
X129794000Y-92710000D03*
%TO.P,Conn1,7*%
%TO.N,/ADC/CLK2*%
X129794000Y-90170000D03*
%TO.P,Conn1,8*%
%TO.N,/ADC/SDI*%
X129794000Y-87630000D03*
%TO.P,Conn1,9*%
%TO.N,/ADC/TRIG*%
X129794000Y-85090000D03*
%TO.P,Conn1,10*%
%TO.N,GND*%
X129794000Y-82550000D03*
%TD*%
D10*
%TO.P,H2,1,1*%
%TO.N,GND*%
X178956000Y-84074000D03*
X179658944Y-82376944D03*
X179658944Y-85771056D03*
X181356000Y-81674000D03*
D11*
X181356000Y-84074000D03*
D10*
X181356000Y-86474000D03*
X183053056Y-82376944D03*
X183053056Y-85771056D03*
X183756000Y-84074000D03*
%TD*%
%TO.P,H3,1,1*%
%TO.N,GND*%
X118250000Y-103886000D03*
X118952944Y-102188944D03*
X118952944Y-105583056D03*
X120650000Y-101486000D03*
D11*
X120650000Y-103886000D03*
D10*
X120650000Y-106286000D03*
X122347056Y-102188944D03*
X122347056Y-105583056D03*
X123050000Y-103886000D03*
%TD*%
%TO.P,H4,1,1*%
%TO.N,GND*%
X178956000Y-103886000D03*
X179658944Y-102188944D03*
X179658944Y-105583056D03*
X181356000Y-101486000D03*
D11*
X181356000Y-103886000D03*
D10*
X181356000Y-106286000D03*
X183053056Y-102188944D03*
X183053056Y-105583056D03*
X183756000Y-103886000D03*
%TD*%
D13*
%TO.P,U1,1,Vdd*%
%TO.N,+5V*%
X164973000Y-99060000D03*
D14*
%TO.P,U1,2,Vss*%
%TO.N,GND*%
X162433000Y-99060000D03*
%TO.P,U1,3,CLK*%
%TO.N,Net-(U1-CLK)*%
X159893000Y-99060000D03*
%TO.P,U1,4,NC*%
%TO.N,unconnected-(U1-NC-Pad4)*%
X157353000Y-99060000D03*
%TO.P,U1,5,NC*%
%TO.N,unconnected-(U1-NC-Pad5)*%
X154813000Y-99060000D03*
%TO.P,U1,6,NC*%
%TO.N,unconnected-(U1-NC-Pad6)*%
X152273000Y-99060000D03*
%TO.P,U1,7,NC*%
%TO.N,unconnected-(U1-NC-Pad7)*%
X149733000Y-99060000D03*
%TO.P,U1,8,NC*%
%TO.N,unconnected-(U1-NC-Pad8)*%
X147193000Y-99060000D03*
%TO.P,U1,9,NC*%
%TO.N,unconnected-(U1-NC-Pad9)*%
X144653000Y-99060000D03*
%TO.P,U1,10,NC*%
%TO.N,unconnected-(U1-NC-Pad10)*%
X142113000Y-99060000D03*
%TO.P,U1,11,Vss*%
%TO.N,GND*%
X139573000Y-99060000D03*
%TO.P,U1,12,Vdd*%
%TO.N,+5V*%
X137033000Y-99060000D03*
%TO.P,U1,13,Video*%
%TO.N,Net-(U1-Video)*%
X137033000Y-88900000D03*
%TO.P,U1,14,NC*%
%TO.N,unconnected-(U1-NC-Pad14)*%
X139573000Y-88900000D03*
%TO.P,U1,15,EOS*%
%TO.N,/CCD/EOSb*%
X142113000Y-88900000D03*
%TO.P,U1,16,NC*%
%TO.N,unconnected-(U1-NC-Pad16)*%
X144653000Y-88900000D03*
%TO.P,U1,17,NC*%
%TO.N,unconnected-(U1-NC-Pad17)*%
X147193000Y-88900000D03*
%TO.P,U1,18,NC*%
%TO.N,unconnected-(U1-NC-Pad18)*%
X149733000Y-88900000D03*
%TO.P,U1,19,NC*%
%TO.N,unconnected-(U1-NC-Pad19)*%
X152273000Y-88900000D03*
%TO.P,U1,20,NC*%
%TO.N,unconnected-(U1-NC-Pad20)*%
X154813000Y-88900000D03*
%TO.P,U1,21,NC*%
%TO.N,unconnected-(U1-NC-Pad21)*%
X157353000Y-88900000D03*
%TO.P,U1,22,VIcp*%
%TO.N,Net-(U1-VIcp)*%
X159893000Y-88900000D03*
%TO.P,U1,23,Trig*%
%TO.N,/CCD/Trigb*%
X162433000Y-88900000D03*
%TO.P,U1,24,ST*%
%TO.N,Net-(U1-ST)*%
X164973000Y-88900000D03*
%TD*%
D15*
%TO.N,GND*%
X123317000Y-98552000D03*
X152603200Y-100787200D03*
X159004000Y-80518000D03*
X163626800Y-95148400D03*
X175006000Y-101752400D03*
X167944800Y-104394000D03*
X163626800Y-96621600D03*
X156260800Y-95199200D03*
X141071600Y-92862400D03*
X161493200Y-90627200D03*
X155194000Y-105815300D03*
X163576000Y-98933000D03*
X148844000Y-92710000D03*
X161239200Y-97180400D03*
X165709600Y-82753200D03*
X146939000Y-85471000D03*
X174599600Y-94488000D03*
X162001200Y-102616000D03*
X169011600Y-95148400D03*
X123444000Y-107289600D03*
X150114000Y-85471000D03*
X117348000Y-91440000D03*
X176784000Y-93472000D03*
X169164000Y-80518000D03*
X174879000Y-92329000D03*
X133604000Y-80518000D03*
X131572000Y-84683600D03*
X120142000Y-93345000D03*
X153797000Y-81788000D03*
X180848000Y-92329000D03*
X132842000Y-101041200D03*
X148844000Y-80518000D03*
X134315200Y-89357200D03*
X163576000Y-101092000D03*
X146558000Y-92683500D03*
X169011600Y-96570800D03*
X166243000Y-93599000D03*
X138684000Y-80518000D03*
X170992800Y-84531200D03*
X159004000Y-107289600D03*
X153035000Y-93726000D03*
X174244000Y-80518000D03*
X117348000Y-96520000D03*
X161290000Y-98933000D03*
X166370000Y-99822000D03*
X138430000Y-96570800D03*
X184658000Y-86360000D03*
X169351000Y-105044000D03*
X145643600Y-103835200D03*
X184658000Y-101600000D03*
X144780000Y-94386400D03*
X153924000Y-107289600D03*
X159004000Y-95199200D03*
X133731000Y-96647000D03*
X184658000Y-91440000D03*
X155956000Y-90678000D03*
X117348000Y-86360000D03*
X143814800Y-103784400D03*
X139649200Y-103784400D03*
X172593000Y-101854000D03*
X154889200Y-97536000D03*
X168021000Y-89281000D03*
X143764000Y-107289600D03*
X179959000Y-99187000D03*
X164084000Y-107289600D03*
X174244000Y-107289600D03*
X159004000Y-91846400D03*
X117348000Y-101600000D03*
X177139600Y-86715600D03*
X120269000Y-89662000D03*
X141071600Y-94335600D03*
X138684000Y-107289600D03*
X123317000Y-89662000D03*
X137820400Y-103784400D03*
X123317000Y-93345000D03*
X144780000Y-92683500D03*
X153924000Y-80518000D03*
X159385000Y-81788000D03*
X153517600Y-98755200D03*
X170230800Y-98958400D03*
X156210000Y-97536000D03*
X180975000Y-94615000D03*
X138430000Y-94284800D03*
X161798000Y-105410000D03*
X168046400Y-99771200D03*
X150114000Y-81788000D03*
X150774400Y-104749600D03*
X128524000Y-107289600D03*
X169037000Y-92964000D03*
X152628001Y-91249750D03*
X171958000Y-92964000D03*
X141071600Y-96621600D03*
X153873200Y-101955600D03*
X162433000Y-81788000D03*
X164084000Y-80518000D03*
X180975000Y-88646000D03*
X156083000Y-93726000D03*
X138430000Y-99060000D03*
X168021000Y-101219000D03*
X159258000Y-85471000D03*
X161391600Y-95199200D03*
X141427200Y-103784400D03*
X166217600Y-96672400D03*
X148844000Y-107289600D03*
X156945500Y-102565200D03*
X147320000Y-96672400D03*
X172567600Y-85902800D03*
X138430000Y-92811600D03*
X132461000Y-105283000D03*
X131572000Y-82550000D03*
X180848000Y-98298000D03*
X166217600Y-95199200D03*
X184658000Y-96520000D03*
X169164000Y-107289600D03*
X179324000Y-80518000D03*
X120142000Y-98552000D03*
X133731000Y-91059000D03*
X134239000Y-99441000D03*
X120269000Y-94869000D03*
X140766800Y-99060000D03*
X143764000Y-80518000D03*
X163195000Y-93599000D03*
X153670000Y-85471000D03*
X151079200Y-98653600D03*
X159207200Y-100838000D03*
X162433000Y-85471000D03*
X133604000Y-107289600D03*
X177342800Y-82042000D03*
X172618400Y-100584000D03*
X156845000Y-81788000D03*
X158877000Y-103124000D03*
X156845000Y-85471000D03*
X123444000Y-80518000D03*
X147574000Y-103912500D03*
X158014500Y-90551000D03*
X138836400Y-101396800D03*
X168097200Y-98298000D03*
X179324000Y-107289600D03*
X123317000Y-94869000D03*
X146507200Y-94386400D03*
X152654000Y-96824800D03*
X172847000Y-88138000D03*
X147066000Y-81788000D03*
X128524000Y-80518000D03*
X158914700Y-104952800D03*
X153543000Y-90932000D03*
%TO.N,Net-(U3-AIN+)*%
X155220500Y-102565200D03*
X155170500Y-101092000D03*
X152527000Y-103378000D03*
X152527000Y-102255600D03*
%TO.N,Net-(U1-VIcp)*%
X159739500Y-90551000D03*
%TO.N,+5V*%
X168910000Y-99187000D03*
X158344600Y-99973400D03*
X169418000Y-102108000D03*
X170307000Y-97663000D03*
X176757500Y-100584000D03*
X169351000Y-103744000D03*
X136194400Y-90474400D03*
X171473500Y-86741000D03*
X156959700Y-104952800D03*
X139750800Y-82830500D03*
X176911000Y-98933000D03*
X176911000Y-98933000D03*
X175641000Y-96901000D03*
%TO.N,+3V3*%
X137033000Y-101600000D03*
X137033000Y-105156000D03*
%TO.N,+1V8*%
X152171400Y-104241600D03*
X168021000Y-91440000D03*
X151384000Y-101198400D03*
X161056600Y-104775000D03*
X165735000Y-101917500D03*
X161163000Y-101981000D03*
%TO.N,+1V*%
X175768000Y-95755100D03*
X169710500Y-88392000D03*
X175133000Y-89281000D03*
X169672000Y-86741000D03*
%TO.N,/ADC/opIND+*%
X174701200Y-105117500D03*
X174991001Y-91059000D03*
%TO.N,Net-(U1-Video)*%
X137795000Y-95885000D03*
X170942000Y-96266000D03*
X171323000Y-98806000D03*
%TO.N,/CCD/opINA+*%
X174939397Y-96901000D03*
X175133000Y-98933000D03*
%TO.N,Net-(U1-ST)*%
X164869500Y-90678000D03*
%TO.N,Net-(U1-CLK)*%
X159789500Y-97409000D03*
%TO.N,/CCD/CLKb*%
X157988000Y-97409000D03*
X157480000Y-92329000D03*
%TO.N,/ADC/Video*%
X177591001Y-91059000D03*
X178816000Y-89281000D03*
X159893000Y-101854000D03*
%TO.N,/CCD/Videob*%
X176291001Y-91059000D03*
X176149000Y-94869000D03*
%TO.N,/ADC/SDI*%
X127635000Y-103251000D03*
X127741400Y-88028603D03*
%TO.N,/CCD/opINC-*%
X178943000Y-91948000D03*
X179197000Y-94996000D03*
%TO.N,/CCD/Trigb*%
X154686000Y-96413600D03*
X149976396Y-97155250D03*
X162052000Y-96413600D03*
%TO.N,/CCD/EOSb*%
X142367000Y-94127600D03*
X151485600Y-95300800D03*
X150677999Y-97155250D03*
%TO.N,/ADC/TRIG*%
X128273800Y-85725000D03*
X128273800Y-101346000D03*
%TO.N,/ADC/CLK2*%
X127106400Y-90805000D03*
X144272000Y-106172000D03*
X148590000Y-103267600D03*
X127635000Y-104013000D03*
%TO.N,/ADC/OUT*%
X150622000Y-100584000D03*
X150855400Y-102870000D03*
%TO.N,/CCD/ST*%
X148717000Y-93853000D03*
X148728001Y-97155250D03*
%TO.N,Net-(Q1-D)*%
X131762500Y-102679500D03*
%TO.N,Net-(Q2-D)*%
X128854200Y-83794600D03*
%TO.N,Net-(Q1-G)*%
X135532500Y-105410000D03*
X134874000Y-103505000D03*
%TO.N,/CCD/Trig*%
X150668003Y-95356400D03*
X150678002Y-91249750D03*
%TD*%
D16*
%TO.N,Net-(U3-AIN+)*%
X155194000Y-101115500D02*
X155194000Y-102589500D01*
X155194000Y-102589500D02*
X155220500Y-102616000D01*
X152527000Y-103378000D02*
X152527000Y-102255600D01*
X155170500Y-101092000D02*
X155194000Y-101115500D01*
%TO.N,Net-(U1-VIcp)*%
X159893000Y-88900000D02*
X159893000Y-90397500D01*
X159893000Y-90397500D02*
X159739500Y-90551000D01*
%TO.N,+5V*%
X176911000Y-98933000D02*
X176911000Y-100430500D01*
X139750800Y-84429600D02*
X136194400Y-87986000D01*
X169418000Y-102108000D02*
X169418000Y-99568000D01*
X156972000Y-104952800D02*
X156959700Y-104952800D01*
X169418000Y-98679000D02*
X170307000Y-97790000D01*
X136194400Y-98221400D02*
X137033000Y-99060000D01*
X170307000Y-97663000D02*
X170307000Y-88519000D01*
X139750800Y-82830500D02*
X139750800Y-84429600D01*
X136194400Y-87986000D02*
X136194400Y-90474400D01*
X136194400Y-90424000D02*
X136194400Y-98221400D01*
X169291000Y-99441000D02*
X169037000Y-99187000D01*
X170307000Y-88519000D02*
X171450000Y-87376000D01*
X158344600Y-99973400D02*
X158343600Y-99974400D01*
X136194400Y-90474400D02*
X136194400Y-90424000D01*
X168910000Y-99187000D02*
X169418000Y-98679000D01*
X139750800Y-82830500D02*
X136777900Y-82830500D01*
X176911000Y-98933000D02*
X175641000Y-97663000D01*
X176911000Y-100430500D02*
X176757500Y-100584000D01*
X169351000Y-103744000D02*
X169351000Y-102175000D01*
X171450000Y-86764500D02*
X171473500Y-86741000D01*
X169037000Y-99187000D02*
X168910000Y-99187000D01*
X158343600Y-99974400D02*
X158343600Y-103581200D01*
X169418000Y-99568000D02*
X169291000Y-99441000D01*
X158343600Y-103581200D02*
X156972000Y-104952800D01*
X169351000Y-102175000D02*
X169418000Y-102108000D01*
X171450000Y-87376000D02*
X171450000Y-86764500D01*
X175641000Y-97663000D02*
X175641000Y-96901000D01*
X170307000Y-97790000D02*
X170307000Y-97663000D01*
%TO.N,+3V3*%
X137033000Y-101600000D02*
X137033000Y-105156000D01*
%TO.N,+1V8*%
X161163000Y-101981000D02*
X161163000Y-104668600D01*
X167259000Y-100584000D02*
X167259000Y-92202000D01*
X165735000Y-101917500D02*
X165925500Y-101917500D01*
X165925500Y-101917500D02*
X167259000Y-100584000D01*
X167259000Y-92202000D02*
X168021000Y-91440000D01*
X152171400Y-104241600D02*
X151384000Y-103454200D01*
X161163000Y-104668600D02*
X161056600Y-104775000D01*
X151384000Y-103454200D02*
X151384000Y-101198400D01*
%TO.N,+1V*%
X169672000Y-86741000D02*
X169672000Y-88353500D01*
X169672000Y-88353500D02*
X169710500Y-88392000D01*
X175619400Y-89767400D02*
X175133000Y-89281000D01*
X169710500Y-88392000D02*
X169710500Y-88493600D01*
X175768000Y-95755100D02*
X175619400Y-95606500D01*
X175619400Y-95606500D02*
X175619400Y-89767400D01*
%TO.N,/ADC/opIND+*%
X175666400Y-102920800D02*
X175209200Y-102463600D01*
X175400100Y-105117500D02*
X175666400Y-104851200D01*
X173634400Y-92415601D02*
X174991001Y-91059000D01*
X174701200Y-105117500D02*
X175400100Y-105117500D01*
X175209200Y-102463600D02*
X174447200Y-102463600D01*
X174447200Y-102463600D02*
X173634400Y-101650800D01*
X173634400Y-101650800D02*
X173634400Y-92415601D01*
X175666400Y-104851200D02*
X175666400Y-102920800D01*
%TO.N,Net-(U1-Video)*%
X170942000Y-98425000D02*
X171323000Y-98806000D01*
X137541000Y-95631000D02*
X137795000Y-95885000D01*
X137541000Y-89408000D02*
X137541000Y-95631000D01*
X137033000Y-88900000D02*
X137541000Y-89408000D01*
X170942000Y-96266000D02*
X170942000Y-98425000D01*
%TO.N,/CCD/opINA+*%
X175133000Y-97094603D02*
X174939397Y-96901000D01*
X175133000Y-98933000D02*
X175133000Y-97094603D01*
%TO.N,Net-(U1-ST)*%
X164973000Y-88900000D02*
X164973000Y-90574500D01*
X164973000Y-90574500D02*
X164869500Y-90678000D01*
%TO.N,Net-(U1-CLK)*%
X159893000Y-97512500D02*
X159789500Y-97409000D01*
X159893000Y-99060000D02*
X159893000Y-97512500D01*
%TO.N,/CCD/CLKb*%
X157607000Y-92329000D02*
X157480000Y-92329000D01*
X157988000Y-92710000D02*
X157607000Y-92329000D01*
X157988000Y-97409000D02*
X157988000Y-92710000D01*
%TO.N,/ADC/Video*%
X160528000Y-105537000D02*
X160528000Y-102489000D01*
X160528000Y-102489000D02*
X159893000Y-101854000D01*
X177038000Y-102404027D02*
X177038000Y-105714800D01*
X176580800Y-106172000D02*
X161163000Y-106172000D01*
X177038000Y-105714800D02*
X176580800Y-106172000D01*
X177591001Y-91059000D02*
X177591001Y-101851026D01*
X178816000Y-89281000D02*
X178816000Y-89834001D01*
X161163000Y-106172000D02*
X160528000Y-105537000D01*
X177591001Y-101851026D02*
X177038000Y-102404027D01*
X178816000Y-89834001D02*
X177591001Y-91059000D01*
%TO.N,/CCD/Videob*%
X176149000Y-91201001D02*
X176291001Y-91059000D01*
X176149000Y-94869000D02*
X176149000Y-91201001D01*
%TO.N,/ADC/SDI*%
X127635000Y-88135003D02*
X127741400Y-88028603D01*
X127635000Y-103251000D02*
X127635000Y-88135003D01*
%TO.N,/CCD/opINC-*%
X179197000Y-92202000D02*
X178943000Y-91948000D01*
X179197000Y-94996000D02*
X179197000Y-92202000D01*
%TO.N,/CCD/Trigb*%
X149976396Y-97202615D02*
X149976396Y-97155250D01*
X153414750Y-97684850D02*
X150458631Y-97684850D01*
X154686000Y-96413600D02*
X153414750Y-97684850D01*
X162433000Y-88900000D02*
X162433000Y-96032600D01*
X162433000Y-96032600D02*
X162052000Y-96413600D01*
X150458631Y-97684850D02*
X149976396Y-97202615D01*
%TO.N,/CCD/EOSb*%
X151485600Y-95300800D02*
X151196603Y-95589797D01*
X151196603Y-95589797D02*
X151196603Y-96636646D01*
X151196603Y-96636646D02*
X150677999Y-97155250D01*
X142113000Y-93873600D02*
X142367000Y-94127600D01*
X142113000Y-88900000D02*
X142113000Y-93873600D01*
%TO.N,/ADC/TRIG*%
X128270000Y-101342200D02*
X128273800Y-101346000D01*
X128273800Y-85725000D02*
X128270000Y-85728800D01*
X128270000Y-85728800D02*
X128270000Y-88265000D01*
X128270000Y-88265000D02*
X128270000Y-101342200D01*
%TO.N,/ADC/CLK2*%
X146431000Y-105791000D02*
X146050000Y-106172000D01*
X127000000Y-103378000D02*
X127000000Y-90911400D01*
X127635000Y-104013000D02*
X127000000Y-103378000D01*
X127000000Y-90911400D02*
X127106400Y-90805000D01*
X148590000Y-103267600D02*
X146795400Y-103267600D01*
X146795400Y-103267600D02*
X146431000Y-103632000D01*
X146050000Y-106172000D02*
X144272000Y-106172000D01*
X146431000Y-103632000D02*
X146431000Y-105791000D01*
%TO.N,/ADC/OUT*%
X150622000Y-100584000D02*
X150622000Y-102636600D01*
X150622000Y-102636600D02*
X150855400Y-102870000D01*
%TO.N,/CCD/ST*%
X148717000Y-93853000D02*
X148717000Y-97144249D01*
X148717000Y-97144249D02*
X148728001Y-97155250D01*
%TO.N,Net-(Q1-D)*%
X130810000Y-104394000D02*
X129794000Y-105410000D01*
X130810000Y-103632000D02*
X130810000Y-104394000D01*
X131762500Y-102679500D02*
X130810000Y-103632000D01*
%TO.N,Net-(Q2-D)*%
X128854200Y-83794600D02*
X128802400Y-83846400D01*
X128802400Y-101878400D02*
X129794000Y-102870000D01*
X128802400Y-83846400D02*
X128802400Y-101878400D01*
%TO.N,Net-(Q1-G)*%
X134874000Y-103505000D02*
X134874000Y-104751500D01*
X134874000Y-104751500D02*
X135532500Y-105410000D01*
%TO.N,/CCD/Trig*%
X150668003Y-95356400D02*
X150668003Y-94568997D01*
X150668003Y-94568997D02*
X150678002Y-94558998D01*
X150678002Y-94558998D02*
X150678002Y-91249750D01*
%TD*%
%TA.AperFunction,Conductor*%
%TO.N,GND*%
G36*
X175162052Y-91599596D02*
G01*
X175187147Y-91601792D01*
X175190966Y-91605611D01*
X175196256Y-91606712D01*
X175211851Y-91626495D01*
X175229664Y-91644308D01*
X175231139Y-91650964D01*
X175233479Y-91653932D01*
X175233275Y-91660596D01*
X175237900Y-91681457D01*
X175237900Y-95579463D01*
X175234905Y-95602213D01*
X175213500Y-95682099D01*
X175213500Y-95828100D01*
X175251286Y-95969125D01*
X175251287Y-95969128D01*
X175251288Y-95969129D01*
X175324289Y-96095571D01*
X175427529Y-96198811D01*
X175462995Y-96219287D01*
X175501644Y-96265345D01*
X175501644Y-96325472D01*
X175462996Y-96371533D01*
X175459285Y-96373558D01*
X175450896Y-96377877D01*
X175426971Y-96384288D01*
X175332329Y-96438928D01*
X175330438Y-96439903D01*
X175302578Y-96443444D01*
X175274933Y-96448319D01*
X175272164Y-96447311D01*
X175270791Y-96447486D01*
X175268376Y-96445932D01*
X175246250Y-96437879D01*
X175153426Y-96384288D01*
X175153425Y-96384287D01*
X175153422Y-96384286D01*
X175012398Y-96346500D01*
X174866396Y-96346500D01*
X174725371Y-96384286D01*
X174598924Y-96457290D01*
X174495687Y-96560527D01*
X174422683Y-96686974D01*
X174384897Y-96827999D01*
X174384897Y-96974000D01*
X174422683Y-97115025D01*
X174422684Y-97115028D01*
X174422685Y-97115029D01*
X174495686Y-97241471D01*
X174598926Y-97344711D01*
X174707551Y-97407425D01*
X174746199Y-97453484D01*
X174751500Y-97483548D01*
X174751500Y-98493908D01*
X174730935Y-98550409D01*
X174725755Y-98556063D01*
X174689290Y-98592527D01*
X174616286Y-98718974D01*
X174578500Y-98859999D01*
X174578500Y-99006000D01*
X174616286Y-99147025D01*
X174616287Y-99147028D01*
X174616288Y-99147029D01*
X174689289Y-99273471D01*
X174792529Y-99376711D01*
X174918971Y-99449712D01*
X174918973Y-99449712D01*
X174918974Y-99449713D01*
X175059999Y-99487500D01*
X175206000Y-99487500D01*
X175206001Y-99487500D01*
X175347029Y-99449712D01*
X175473471Y-99376711D01*
X175576711Y-99273471D01*
X175649712Y-99147029D01*
X175687500Y-99006001D01*
X175687500Y-98859999D01*
X175649712Y-98718971D01*
X175576711Y-98592529D01*
X175540245Y-98556063D01*
X175514834Y-98501569D01*
X175514500Y-98493908D01*
X175514500Y-98288233D01*
X175535065Y-98231732D01*
X175587136Y-98201668D01*
X175646350Y-98212109D01*
X175664555Y-98226078D01*
X176330755Y-98892278D01*
X176356166Y-98946772D01*
X176356500Y-98954433D01*
X176356500Y-99006000D01*
X176394286Y-99147025D01*
X176394287Y-99147028D01*
X176394288Y-99147029D01*
X176461084Y-99262724D01*
X176467290Y-99273472D01*
X176503755Y-99309937D01*
X176529166Y-99364431D01*
X176529500Y-99372092D01*
X176529500Y-100024604D01*
X176508935Y-100081105D01*
X176485551Y-100100727D01*
X176417028Y-100140289D01*
X176313790Y-100243527D01*
X176240786Y-100369974D01*
X176203000Y-100510999D01*
X176203000Y-100657000D01*
X176240786Y-100798025D01*
X176240787Y-100798028D01*
X176240788Y-100798029D01*
X176313789Y-100924471D01*
X176417029Y-101027711D01*
X176543471Y-101100712D01*
X176543473Y-101100712D01*
X176543474Y-101100713D01*
X176684499Y-101138500D01*
X176830500Y-101138500D01*
X176830501Y-101138500D01*
X176971529Y-101100712D01*
X177077652Y-101039441D01*
X177136865Y-101029001D01*
X177188937Y-101059065D01*
X177209501Y-101115566D01*
X177209501Y-101656593D01*
X177188936Y-101713094D01*
X177183756Y-101718747D01*
X176960533Y-101941971D01*
X176732725Y-102169778D01*
X176682497Y-102256776D01*
X176656500Y-102353802D01*
X176656500Y-105520367D01*
X176635935Y-105576868D01*
X176630755Y-105582522D01*
X176448522Y-105764755D01*
X176394028Y-105790166D01*
X176386367Y-105790500D01*
X174972577Y-105790500D01*
X174916076Y-105769935D01*
X174886012Y-105717864D01*
X174896453Y-105658650D01*
X174928625Y-105626477D01*
X175041671Y-105561211D01*
X175078137Y-105524745D01*
X175132631Y-105499334D01*
X175140292Y-105499000D01*
X175450324Y-105499000D01*
X175450325Y-105499000D01*
X175547354Y-105473001D01*
X175634347Y-105422776D01*
X175705376Y-105351747D01*
X175971676Y-105085447D01*
X175980866Y-105069529D01*
X176021901Y-104998454D01*
X176047900Y-104901425D01*
X176047900Y-102870575D01*
X176035391Y-102823890D01*
X176021902Y-102773549D01*
X176021901Y-102773548D01*
X176021901Y-102773546D01*
X175971676Y-102686553D01*
X175971674Y-102686551D01*
X175971673Y-102686549D01*
X175897578Y-102612455D01*
X175897577Y-102612455D01*
X175443448Y-102158325D01*
X175443447Y-102158324D01*
X175397036Y-102131529D01*
X175397036Y-102131528D01*
X175356454Y-102108098D01*
X175259425Y-102082100D01*
X174641633Y-102082100D01*
X174585132Y-102061535D01*
X174579478Y-102056355D01*
X174041645Y-101518522D01*
X174016234Y-101464028D01*
X174015900Y-101456367D01*
X174015900Y-92610033D01*
X174036465Y-92553532D01*
X174041645Y-92547878D01*
X174950278Y-91639245D01*
X174999822Y-91614409D01*
X175006092Y-91613500D01*
X175064002Y-91613500D01*
X175132267Y-91595208D01*
X175137389Y-91594466D01*
X175162052Y-91599596D01*
G37*
%TD.AperFunction*%
%TA.AperFunction,Conductor*%
G36*
X181358157Y-80210605D02*
G01*
X181730386Y-80228892D01*
X181738938Y-80229734D01*
X182105473Y-80284104D01*
X182113910Y-80285782D01*
X182473327Y-80375812D01*
X182481578Y-80378315D01*
X182830431Y-80503136D01*
X182838393Y-80506433D01*
X183147954Y-80652845D01*
X183173340Y-80664852D01*
X183180947Y-80668919D01*
X183498740Y-80859396D01*
X183505913Y-80864188D01*
X183803507Y-81084900D01*
X183810175Y-81090372D01*
X184084714Y-81339199D01*
X184090800Y-81345285D01*
X184225791Y-81494225D01*
X184339627Y-81619824D01*
X184345099Y-81626492D01*
X184565811Y-81924086D01*
X184570603Y-81931259D01*
X184761080Y-82249052D01*
X184765147Y-82256659D01*
X184923562Y-82591598D01*
X184926863Y-82599568D01*
X185051684Y-82948421D01*
X185054188Y-82956675D01*
X185144214Y-83316078D01*
X185145897Y-83324538D01*
X185200263Y-83691044D01*
X185201108Y-83699629D01*
X185219394Y-84071842D01*
X185219500Y-84076155D01*
X185219500Y-103883844D01*
X185219394Y-103888157D01*
X185201108Y-104260370D01*
X185200263Y-104268955D01*
X185145897Y-104635461D01*
X185144214Y-104643921D01*
X185054188Y-105003324D01*
X185051684Y-105011578D01*
X184926863Y-105360431D01*
X184923562Y-105368401D01*
X184765147Y-105703340D01*
X184761080Y-105710947D01*
X184570603Y-106028740D01*
X184565811Y-106035913D01*
X184345099Y-106333507D01*
X184339627Y-106340175D01*
X184090807Y-106614707D01*
X184084707Y-106620807D01*
X183810175Y-106869627D01*
X183803507Y-106875099D01*
X183505913Y-107095811D01*
X183498740Y-107100603D01*
X183180947Y-107291080D01*
X183173340Y-107295147D01*
X182838401Y-107453562D01*
X182830431Y-107456863D01*
X182481578Y-107581684D01*
X182473324Y-107584188D01*
X182113921Y-107674214D01*
X182105461Y-107675897D01*
X181738955Y-107730263D01*
X181730370Y-107731108D01*
X181358158Y-107749394D01*
X181353845Y-107749500D01*
X120652155Y-107749500D01*
X120647842Y-107749394D01*
X120275629Y-107731108D01*
X120267044Y-107730263D01*
X119900538Y-107675897D01*
X119892078Y-107674214D01*
X119532675Y-107584188D01*
X119524421Y-107581684D01*
X119175568Y-107456863D01*
X119167598Y-107453562D01*
X118832659Y-107295147D01*
X118825052Y-107291080D01*
X118507259Y-107100603D01*
X118500086Y-107095811D01*
X118202492Y-106875099D01*
X118195824Y-106869627D01*
X117996214Y-106688712D01*
X117921285Y-106620800D01*
X117915199Y-106614714D01*
X117709208Y-106387438D01*
X117666372Y-106340175D01*
X117660900Y-106333507D01*
X117456555Y-106057981D01*
X117440185Y-106035908D01*
X117435396Y-106028740D01*
X117244919Y-105710947D01*
X117240852Y-105703340D01*
X117200253Y-105617500D01*
X117082433Y-105368393D01*
X117079136Y-105360431D01*
X117069140Y-105332495D01*
X116980746Y-105085449D01*
X116954315Y-105011578D01*
X116951811Y-105003324D01*
X116950591Y-104998452D01*
X116861782Y-104643910D01*
X116860104Y-104635473D01*
X116805734Y-104268938D01*
X116804892Y-104260386D01*
X116786606Y-103888157D01*
X116786500Y-103883844D01*
X116786500Y-90731999D01*
X126551900Y-90731999D01*
X126551900Y-90878001D01*
X126555509Y-90891471D01*
X126589686Y-91019025D01*
X126589687Y-91019027D01*
X126589688Y-91019029D01*
X126606724Y-91048537D01*
X126618500Y-91092485D01*
X126618500Y-103428224D01*
X126644498Y-103525252D01*
X126682619Y-103591280D01*
X126694724Y-103612247D01*
X127054755Y-103972278D01*
X127080166Y-104026772D01*
X127080500Y-104034433D01*
X127080500Y-104086000D01*
X127118286Y-104227025D01*
X127118287Y-104227028D01*
X127118288Y-104227029D01*
X127191289Y-104353471D01*
X127294529Y-104456711D01*
X127420971Y-104529712D01*
X127420973Y-104529712D01*
X127420974Y-104529713D01*
X127561999Y-104567500D01*
X127708000Y-104567500D01*
X127708001Y-104567500D01*
X127849029Y-104529712D01*
X127975471Y-104456711D01*
X128078711Y-104353471D01*
X128151712Y-104227029D01*
X128189500Y-104086001D01*
X128189500Y-103939999D01*
X128177480Y-103895140D01*
X128151713Y-103798974D01*
X128151712Y-103798973D01*
X128151712Y-103798971D01*
X128080684Y-103675947D01*
X128070244Y-103616736D01*
X128080683Y-103588055D01*
X128151712Y-103465029D01*
X128189500Y-103324001D01*
X128189500Y-103177999D01*
X128174819Y-103123209D01*
X128151713Y-103036974D01*
X128151712Y-103036973D01*
X128151712Y-103036971D01*
X128078711Y-102910529D01*
X128042245Y-102874063D01*
X128016834Y-102819569D01*
X128016500Y-102811908D01*
X128016500Y-101965670D01*
X128037065Y-101909169D01*
X128089136Y-101879105D01*
X128127145Y-101880764D01*
X128200799Y-101900500D01*
X128200801Y-101900500D01*
X128345916Y-101900500D01*
X128351430Y-101902507D01*
X128357156Y-101901222D01*
X128379151Y-101912596D01*
X128402417Y-101921065D01*
X128406645Y-101926815D01*
X128410564Y-101928842D01*
X128417789Y-101941971D01*
X128427035Y-101954545D01*
X128429298Y-101959968D01*
X128446899Y-102025654D01*
X128479488Y-102082100D01*
X128497124Y-102112647D01*
X128497125Y-102112648D01*
X128816451Y-102431974D01*
X128841862Y-102486468D01*
X128835506Y-102527765D01*
X128816563Y-102573497D01*
X128816562Y-102573501D01*
X128788795Y-102713100D01*
X128777500Y-102769884D01*
X128777500Y-102970116D01*
X128785217Y-103008911D01*
X128816561Y-103166493D01*
X128816563Y-103166498D01*
X128816564Y-103166502D01*
X128893190Y-103351493D01*
X128893191Y-103351495D01*
X128893192Y-103351496D01*
X129004429Y-103517976D01*
X129004430Y-103517977D01*
X129004433Y-103517981D01*
X129146019Y-103659567D01*
X129146022Y-103659569D01*
X129146023Y-103659570D01*
X129163128Y-103670999D01*
X129312507Y-103770810D01*
X129497498Y-103847436D01*
X129497503Y-103847437D01*
X129497506Y-103847438D01*
X129597017Y-103867231D01*
X129693884Y-103886500D01*
X129693886Y-103886500D01*
X129894114Y-103886500D01*
X129894116Y-103886500D01*
X130022694Y-103860923D01*
X130090493Y-103847438D01*
X130090494Y-103847437D01*
X130090502Y-103847436D01*
X130275493Y-103770810D01*
X130291765Y-103759936D01*
X130350169Y-103745645D01*
X130404096Y-103772239D01*
X130428312Y-103827274D01*
X130428500Y-103833023D01*
X130428500Y-104199566D01*
X130407935Y-104256067D01*
X130402755Y-104261721D01*
X130232024Y-104432451D01*
X130177530Y-104457862D01*
X130136232Y-104451505D01*
X130090506Y-104432565D01*
X130090498Y-104432562D01*
X129942877Y-104403199D01*
X129894116Y-104393500D01*
X129693884Y-104393500D01*
X129650639Y-104402101D01*
X129497506Y-104432561D01*
X129497501Y-104432563D01*
X129497499Y-104432563D01*
X129497498Y-104432564D01*
X129312507Y-104509190D01*
X129312505Y-104509190D01*
X129312503Y-104509192D01*
X129146023Y-104620429D01*
X129004429Y-104762023D01*
X128893192Y-104928503D01*
X128893190Y-104928505D01*
X128893190Y-104928507D01*
X128816564Y-105113498D01*
X128816563Y-105113501D01*
X128816561Y-105113506D01*
X128790870Y-105242669D01*
X128781115Y-105291713D01*
X128777500Y-105309885D01*
X128777500Y-105510114D01*
X128816561Y-105706493D01*
X128816563Y-105706498D01*
X128816564Y-105706502D01*
X128893190Y-105891493D01*
X128893191Y-105891495D01*
X128893192Y-105891496D01*
X129004429Y-106057976D01*
X129004430Y-106057977D01*
X129004433Y-106057981D01*
X129146019Y-106199567D01*
X129312507Y-106310810D01*
X129497498Y-106387436D01*
X129497503Y-106387437D01*
X129497506Y-106387438D01*
X129592061Y-106406246D01*
X129693884Y-106426500D01*
X129693886Y-106426500D01*
X129894114Y-106426500D01*
X129894116Y-106426500D01*
X130022694Y-106400923D01*
X130090493Y-106387438D01*
X130090494Y-106387437D01*
X130090502Y-106387436D01*
X130275493Y-106310810D01*
X130441981Y-106199567D01*
X130542549Y-106098999D01*
X143717500Y-106098999D01*
X143717500Y-106245000D01*
X143755286Y-106386025D01*
X143755287Y-106386028D01*
X143755288Y-106386029D01*
X143828289Y-106512471D01*
X143931529Y-106615711D01*
X144057971Y-106688712D01*
X144057973Y-106688712D01*
X144057974Y-106688713D01*
X144198999Y-106726500D01*
X144345000Y-106726500D01*
X144345001Y-106726500D01*
X144486029Y-106688712D01*
X144612471Y-106615711D01*
X144648937Y-106579245D01*
X144703431Y-106553834D01*
X144711092Y-106553500D01*
X146100224Y-106553500D01*
X146100225Y-106553500D01*
X146197254Y-106527501D01*
X146284247Y-106477276D01*
X146355276Y-106406247D01*
X146355276Y-106406246D01*
X146665245Y-106096277D01*
X146665246Y-106096277D01*
X146736273Y-106025250D01*
X146736276Y-106025247D01*
X146786501Y-105938254D01*
X146812500Y-105841225D01*
X146812500Y-104879799D01*
X156405200Y-104879799D01*
X156405200Y-105025800D01*
X156442986Y-105166825D01*
X156442987Y-105166828D01*
X156442988Y-105166829D01*
X156515989Y-105293271D01*
X156619229Y-105396511D01*
X156745671Y-105469512D01*
X156745673Y-105469512D01*
X156745674Y-105469513D01*
X156886699Y-105507300D01*
X157032700Y-105507300D01*
X157032701Y-105507300D01*
X157173729Y-105469512D01*
X157300171Y-105396511D01*
X157403411Y-105293271D01*
X157476412Y-105166829D01*
X157514200Y-105025801D01*
X157514200Y-104986531D01*
X157534765Y-104930030D01*
X157539934Y-104924387D01*
X158570609Y-103893711D01*
X158570614Y-103893708D01*
X158577845Y-103886476D01*
X158577847Y-103886476D01*
X158648876Y-103815447D01*
X158699101Y-103728454D01*
X158725100Y-103631425D01*
X158725100Y-101780999D01*
X159338500Y-101780999D01*
X159338500Y-101927001D01*
X159340371Y-101933982D01*
X159376286Y-102068025D01*
X159376287Y-102068028D01*
X159376288Y-102068029D01*
X159449289Y-102194471D01*
X159552529Y-102297711D01*
X159678971Y-102370712D01*
X159678973Y-102370712D01*
X159678974Y-102370713D01*
X159819999Y-102408500D01*
X159871567Y-102408500D01*
X159928068Y-102429065D01*
X159933722Y-102434245D01*
X160120755Y-102621278D01*
X160146166Y-102675772D01*
X160146500Y-102683433D01*
X160146500Y-105587224D01*
X160172498Y-105684252D01*
X160210728Y-105750470D01*
X160222724Y-105771247D01*
X160928753Y-106477276D01*
X161015747Y-106527502D01*
X161112775Y-106553501D01*
X161112776Y-106553501D01*
X161218607Y-106553501D01*
X161218623Y-106553500D01*
X176631024Y-106553500D01*
X176631025Y-106553500D01*
X176728054Y-106527501D01*
X176815047Y-106477276D01*
X176886076Y-106406247D01*
X176886076Y-106406246D01*
X177265009Y-106027311D01*
X177265014Y-106027308D01*
X177272245Y-106020076D01*
X177272247Y-106020076D01*
X177343276Y-105949047D01*
X177393501Y-105862054D01*
X177419500Y-105765025D01*
X177419500Y-102598458D01*
X177440065Y-102541957D01*
X177445234Y-102536314D01*
X177818010Y-102163537D01*
X177818015Y-102163534D01*
X177825246Y-102156302D01*
X177825248Y-102156302D01*
X177896277Y-102085273D01*
X177914729Y-102053313D01*
X177933180Y-102021355D01*
X177933181Y-102021353D01*
X177946503Y-101998279D01*
X177948588Y-101990500D01*
X177972502Y-101901251D01*
X177972502Y-101795420D01*
X177972501Y-101795402D01*
X177972501Y-91874999D01*
X178388500Y-91874999D01*
X178388500Y-92021000D01*
X178426286Y-92162025D01*
X178426287Y-92162028D01*
X178426288Y-92162029D01*
X178499289Y-92288471D01*
X178602529Y-92391711D01*
X178728971Y-92464712D01*
X178728975Y-92464713D01*
X178750348Y-92470440D01*
X178799602Y-92504926D01*
X178815500Y-92555345D01*
X178815500Y-94556908D01*
X178794935Y-94613409D01*
X178789755Y-94619063D01*
X178753290Y-94655527D01*
X178680286Y-94781974D01*
X178660160Y-94857089D01*
X178642500Y-94922999D01*
X178642500Y-95069001D01*
X178647262Y-95086774D01*
X178680286Y-95210025D01*
X178680287Y-95210028D01*
X178680288Y-95210029D01*
X178753289Y-95336471D01*
X178856529Y-95439711D01*
X178982971Y-95512712D01*
X178982973Y-95512712D01*
X178982974Y-95512713D01*
X179123999Y-95550500D01*
X179270000Y-95550500D01*
X179270001Y-95550500D01*
X179411029Y-95512712D01*
X179537471Y-95439711D01*
X179640711Y-95336471D01*
X179713712Y-95210029D01*
X179751500Y-95069001D01*
X179751500Y-94922999D01*
X179733840Y-94857089D01*
X179713713Y-94781974D01*
X179713712Y-94781973D01*
X179713712Y-94781971D01*
X179640711Y-94655529D01*
X179604245Y-94619063D01*
X179578834Y-94564569D01*
X179578500Y-94556908D01*
X179578500Y-92151775D01*
X179552501Y-92054747D01*
X179552501Y-92054746D01*
X179509276Y-91979877D01*
X179497500Y-91935928D01*
X179497500Y-91874999D01*
X179459713Y-91733974D01*
X179459712Y-91733973D01*
X179459712Y-91733971D01*
X179386711Y-91607529D01*
X179283471Y-91504289D01*
X179157029Y-91431288D01*
X179157028Y-91431287D01*
X179157025Y-91431286D01*
X179016001Y-91393500D01*
X178869999Y-91393500D01*
X178728974Y-91431286D01*
X178602527Y-91504290D01*
X178499290Y-91607527D01*
X178426286Y-91733974D01*
X178388500Y-91874999D01*
X177972501Y-91874999D01*
X177972501Y-91498092D01*
X177993066Y-91441591D01*
X177998246Y-91435937D01*
X178015616Y-91418567D01*
X178034712Y-91399471D01*
X178107713Y-91273029D01*
X178145501Y-91132001D01*
X178145501Y-91080433D01*
X178166066Y-91023932D01*
X178171246Y-91018278D01*
X178642124Y-90547400D01*
X179121276Y-90068248D01*
X179136431Y-90041998D01*
X179171501Y-89981255D01*
X179197500Y-89884226D01*
X179197500Y-89720092D01*
X179218065Y-89663591D01*
X179223245Y-89657937D01*
X179223672Y-89657510D01*
X179259711Y-89621471D01*
X179332712Y-89495029D01*
X179370500Y-89354001D01*
X179370500Y-89207999D01*
X179355897Y-89153500D01*
X179332713Y-89066974D01*
X179332712Y-89066973D01*
X179332712Y-89066971D01*
X179259711Y-88940529D01*
X179156471Y-88837289D01*
X179030029Y-88764288D01*
X179030028Y-88764287D01*
X179030025Y-88764286D01*
X178889001Y-88726500D01*
X178742999Y-88726500D01*
X178601974Y-88764286D01*
X178475527Y-88837290D01*
X178372290Y-88940527D01*
X178299286Y-89066974D01*
X178261500Y-89207999D01*
X178261500Y-89354000D01*
X178299286Y-89495025D01*
X178299287Y-89495028D01*
X178299288Y-89495029D01*
X178342991Y-89570725D01*
X178372291Y-89621474D01*
X178375799Y-89626046D01*
X178373293Y-89627968D01*
X178393904Y-89672169D01*
X178378341Y-89730247D01*
X178368493Y-89741985D01*
X177631723Y-90478755D01*
X177577229Y-90504166D01*
X177569568Y-90504500D01*
X177518000Y-90504500D01*
X177376975Y-90542286D01*
X177250528Y-90615290D01*
X177147291Y-90718527D01*
X177074287Y-90844974D01*
X177036501Y-90985999D01*
X177036501Y-91132000D01*
X177074287Y-91273025D01*
X177074288Y-91273028D01*
X177074289Y-91273029D01*
X177128542Y-91366999D01*
X177147291Y-91399472D01*
X177183756Y-91435937D01*
X177209167Y-91490431D01*
X177209501Y-91498092D01*
X177209501Y-98324368D01*
X177188936Y-98380869D01*
X177136865Y-98410933D01*
X177098852Y-98409273D01*
X176984002Y-98378500D01*
X176984001Y-98378500D01*
X176932433Y-98378500D01*
X176875932Y-98357935D01*
X176870278Y-98352755D01*
X176048245Y-97530722D01*
X176040134Y-97513330D01*
X176027801Y-97498631D01*
X176024469Y-97479734D01*
X176022834Y-97476228D01*
X176022500Y-97468567D01*
X176022500Y-97340092D01*
X176043065Y-97283591D01*
X176048245Y-97277937D01*
X176065864Y-97260318D01*
X176084711Y-97241471D01*
X176157712Y-97115029D01*
X176195500Y-96974001D01*
X176195500Y-96827999D01*
X176191020Y-96811279D01*
X176157713Y-96686974D01*
X176157712Y-96686973D01*
X176157712Y-96686971D01*
X176084711Y-96560529D01*
X175981471Y-96457289D01*
X175946002Y-96436811D01*
X175907355Y-96390753D01*
X175907355Y-96330626D01*
X175946004Y-96284566D01*
X175967206Y-96275784D01*
X175973105Y-96274203D01*
X175982029Y-96271812D01*
X176108471Y-96198811D01*
X176211711Y-96095571D01*
X176284712Y-95969129D01*
X176322500Y-95828101D01*
X176322500Y-95682099D01*
X176284712Y-95541071D01*
X176274800Y-95523904D01*
X176264360Y-95464692D01*
X176294424Y-95412620D01*
X176328175Y-95395051D01*
X176363025Y-95385713D01*
X176363024Y-95385713D01*
X176363029Y-95385712D01*
X176489471Y-95312711D01*
X176592711Y-95209471D01*
X176665712Y-95083029D01*
X176703500Y-94942001D01*
X176703500Y-94795999D01*
X176701923Y-94790115D01*
X176665713Y-94654974D01*
X176665712Y-94654973D01*
X176665712Y-94654971D01*
X176592711Y-94528529D01*
X176556245Y-94492063D01*
X176530834Y-94437569D01*
X176530500Y-94429908D01*
X176530500Y-91611755D01*
X176551065Y-91555254D01*
X176574449Y-91535632D01*
X176631472Y-91502711D01*
X176734712Y-91399471D01*
X176807713Y-91273029D01*
X176845501Y-91132001D01*
X176845501Y-90985999D01*
X176807713Y-90844971D01*
X176734712Y-90718529D01*
X176631472Y-90615289D01*
X176505030Y-90542288D01*
X176505029Y-90542287D01*
X176505026Y-90542286D01*
X176364002Y-90504500D01*
X176218000Y-90504500D01*
X176217998Y-90504500D01*
X176111549Y-90533022D01*
X176051651Y-90527781D01*
X176009135Y-90485264D01*
X176000900Y-90448117D01*
X176000900Y-89717175D01*
X175974902Y-89620149D01*
X175974901Y-89620148D01*
X175974901Y-89620146D01*
X175924676Y-89533153D01*
X175924674Y-89533151D01*
X175924673Y-89533149D01*
X175850578Y-89459055D01*
X175850571Y-89459049D01*
X175713245Y-89321722D01*
X175687834Y-89267229D01*
X175687500Y-89259568D01*
X175687500Y-89207999D01*
X175649713Y-89066974D01*
X175649712Y-89066973D01*
X175649712Y-89066971D01*
X175576711Y-88940529D01*
X175473471Y-88837289D01*
X175347029Y-88764288D01*
X175347028Y-88764287D01*
X175347025Y-88764286D01*
X175206001Y-88726500D01*
X175059999Y-88726500D01*
X174918974Y-88764286D01*
X174792527Y-88837290D01*
X174689290Y-88940527D01*
X174616286Y-89066974D01*
X174578500Y-89207999D01*
X174578500Y-89354000D01*
X174616286Y-89495025D01*
X174616287Y-89495028D01*
X174616288Y-89495029D01*
X174689289Y-89621471D01*
X174792529Y-89724711D01*
X174918971Y-89797712D01*
X174918973Y-89797712D01*
X174918974Y-89797713D01*
X175059999Y-89835500D01*
X175111568Y-89835500D01*
X175129600Y-89842063D01*
X175148716Y-89843736D01*
X175164436Y-89854742D01*
X175168069Y-89856065D01*
X175173723Y-89861245D01*
X175212155Y-89899677D01*
X175237566Y-89954171D01*
X175237900Y-89961832D01*
X175237900Y-90436542D01*
X175217335Y-90493043D01*
X175165264Y-90523107D01*
X175127250Y-90521447D01*
X175064002Y-90504500D01*
X174918000Y-90504500D01*
X174776975Y-90542286D01*
X174650528Y-90615290D01*
X174547291Y-90718527D01*
X174474287Y-90844974D01*
X174436501Y-90985999D01*
X174436501Y-91037567D01*
X174415936Y-91094068D01*
X174410756Y-91099721D01*
X173871233Y-91639245D01*
X173329125Y-92181352D01*
X173278897Y-92268350D01*
X173254334Y-92360023D01*
X173252900Y-92365376D01*
X173252900Y-101701025D01*
X173259434Y-101725409D01*
X173278898Y-101798052D01*
X173320342Y-101869837D01*
X173322804Y-101874100D01*
X173329124Y-101885047D01*
X174212953Y-102768876D01*
X174299947Y-102819102D01*
X174396975Y-102845101D01*
X174396976Y-102845101D01*
X174502807Y-102845101D01*
X174502823Y-102845100D01*
X175014767Y-102845100D01*
X175071268Y-102865665D01*
X175076922Y-102870845D01*
X175259155Y-103053077D01*
X175284565Y-103107571D01*
X175284900Y-103115232D01*
X175284900Y-104648100D01*
X175277090Y-104669557D01*
X175273124Y-104692050D01*
X175267047Y-104697148D01*
X175264335Y-104704601D01*
X175244558Y-104716019D01*
X175227064Y-104730699D01*
X175215646Y-104732712D01*
X175212264Y-104734665D01*
X175197000Y-104736000D01*
X175140292Y-104736000D01*
X175083791Y-104715435D01*
X175078137Y-104710255D01*
X175041672Y-104673790D01*
X175041671Y-104673789D01*
X174915229Y-104600788D01*
X174915228Y-104600787D01*
X174915225Y-104600786D01*
X174774201Y-104563000D01*
X174628199Y-104563000D01*
X174487174Y-104600786D01*
X174360727Y-104673790D01*
X174257490Y-104777027D01*
X174184486Y-104903474D01*
X174151710Y-105025800D01*
X174146700Y-105044499D01*
X174146700Y-105190501D01*
X174154258Y-105218709D01*
X174184486Y-105331525D01*
X174184487Y-105331528D01*
X174184488Y-105331529D01*
X174257489Y-105457971D01*
X174360729Y-105561211D01*
X174473774Y-105626477D01*
X174512422Y-105672536D01*
X174512422Y-105732663D01*
X174473773Y-105778724D01*
X174429823Y-105790500D01*
X161357433Y-105790500D01*
X161300932Y-105769935D01*
X161295278Y-105764755D01*
X161010078Y-105479555D01*
X160984667Y-105425061D01*
X161000230Y-105366983D01*
X161049483Y-105332495D01*
X161072233Y-105329500D01*
X161129600Y-105329500D01*
X161129601Y-105329500D01*
X161270629Y-105291712D01*
X161397071Y-105218711D01*
X161500311Y-105115471D01*
X161573312Y-104989029D01*
X161611100Y-104848001D01*
X161611100Y-104701999D01*
X161606628Y-104685309D01*
X161573312Y-104560970D01*
X161573310Y-104560967D01*
X161556276Y-104531462D01*
X161544500Y-104487513D01*
X161544500Y-102420092D01*
X161565065Y-102363591D01*
X161570245Y-102357937D01*
X161577011Y-102351171D01*
X161606711Y-102321471D01*
X161679712Y-102195029D01*
X161717500Y-102054001D01*
X161717500Y-101907999D01*
X161700485Y-101844499D01*
X165180500Y-101844499D01*
X165180500Y-101990500D01*
X165218286Y-102131525D01*
X165218287Y-102131528D01*
X165218288Y-102131529D01*
X165291289Y-102257971D01*
X165394529Y-102361211D01*
X165520971Y-102434212D01*
X165520973Y-102434212D01*
X165520974Y-102434213D01*
X165661999Y-102472000D01*
X165808000Y-102472000D01*
X165808001Y-102472000D01*
X165949029Y-102434212D01*
X166075471Y-102361211D01*
X166178711Y-102257971D01*
X166246911Y-102139844D01*
X166260871Y-102121650D01*
X167564276Y-100818247D01*
X167614502Y-100731253D01*
X167640501Y-100634225D01*
X167640501Y-100533775D01*
X167640501Y-100528394D01*
X167640500Y-100528376D01*
X167640500Y-99113999D01*
X168355500Y-99113999D01*
X168355500Y-99260000D01*
X168393286Y-99401025D01*
X168393287Y-99401028D01*
X168393288Y-99401029D01*
X168466289Y-99527471D01*
X168569529Y-99630711D01*
X168695971Y-99703712D01*
X168695973Y-99703712D01*
X168695974Y-99703713D01*
X168836999Y-99741500D01*
X168948600Y-99741500D01*
X169005101Y-99762065D01*
X169035165Y-99814136D01*
X169036500Y-99829400D01*
X169036500Y-101668908D01*
X169015935Y-101725409D01*
X169010755Y-101731063D01*
X168974290Y-101767527D01*
X168901286Y-101893974D01*
X168873339Y-101998279D01*
X168863500Y-102034999D01*
X168863500Y-102181001D01*
X168874491Y-102222019D01*
X168901287Y-102322027D01*
X168957724Y-102419780D01*
X168969500Y-102463729D01*
X168969500Y-103304908D01*
X168948935Y-103361409D01*
X168943755Y-103367063D01*
X168907290Y-103403527D01*
X168834286Y-103529974D01*
X168802368Y-103649100D01*
X168796500Y-103670999D01*
X168796500Y-103817001D01*
X168804964Y-103848590D01*
X168834286Y-103958025D01*
X168834287Y-103958028D01*
X168834288Y-103958029D01*
X168907289Y-104084471D01*
X169010529Y-104187711D01*
X169136971Y-104260712D01*
X169136973Y-104260712D01*
X169136974Y-104260713D01*
X169277999Y-104298500D01*
X169424000Y-104298500D01*
X169424001Y-104298500D01*
X169565029Y-104260712D01*
X169691471Y-104187711D01*
X169794711Y-104084471D01*
X169867712Y-103958029D01*
X169905500Y-103817001D01*
X169905500Y-103670999D01*
X169881593Y-103581775D01*
X169867713Y-103529974D01*
X169867712Y-103529973D01*
X169867712Y-103529971D01*
X169794711Y-103403529D01*
X169758245Y-103367063D01*
X169732834Y-103312569D01*
X169732500Y-103304908D01*
X169732500Y-102614092D01*
X169753065Y-102557591D01*
X169758245Y-102551937D01*
X169782417Y-102527765D01*
X169861711Y-102448471D01*
X169934712Y-102322029D01*
X169972500Y-102181001D01*
X169972500Y-102034999D01*
X169960577Y-101990500D01*
X169934713Y-101893974D01*
X169934712Y-101893973D01*
X169934712Y-101893971D01*
X169861711Y-101767529D01*
X169825245Y-101731063D01*
X169799834Y-101676569D01*
X169799500Y-101668908D01*
X169799500Y-99517775D01*
X169773502Y-99420749D01*
X169773501Y-99420748D01*
X169773501Y-99420746D01*
X169723276Y-99333753D01*
X169652247Y-99262724D01*
X169575177Y-99185654D01*
X169565525Y-99164956D01*
X169552427Y-99146250D01*
X169553118Y-99138348D01*
X169549766Y-99131160D01*
X169555676Y-99109102D01*
X169557667Y-99086351D01*
X169564318Y-99076851D01*
X169565329Y-99073082D01*
X169575177Y-99061345D01*
X169645004Y-98991517D01*
X169645011Y-98991511D01*
X169652245Y-98984276D01*
X169652247Y-98984276D01*
X170410445Y-98226076D01*
X170464939Y-98200666D01*
X170523017Y-98216229D01*
X170557505Y-98265482D01*
X170560500Y-98288232D01*
X170560500Y-98475224D01*
X170586498Y-98572252D01*
X170619130Y-98628774D01*
X170631952Y-98650981D01*
X170636724Y-98659247D01*
X170710477Y-98732999D01*
X170742754Y-98765276D01*
X170768165Y-98819770D01*
X170768500Y-98827431D01*
X170768500Y-98879000D01*
X170806286Y-99020025D01*
X170806287Y-99020028D01*
X170806288Y-99020029D01*
X170879289Y-99146471D01*
X170982529Y-99249711D01*
X171108971Y-99322712D01*
X171108973Y-99322712D01*
X171108974Y-99322713D01*
X171249999Y-99360500D01*
X171396000Y-99360500D01*
X171396001Y-99360500D01*
X171537029Y-99322712D01*
X171663471Y-99249711D01*
X171766711Y-99146471D01*
X171839712Y-99020029D01*
X171877500Y-98879001D01*
X171877500Y-98732999D01*
X171843673Y-98606754D01*
X171839713Y-98591974D01*
X171839712Y-98591973D01*
X171839712Y-98591971D01*
X171766711Y-98465529D01*
X171663471Y-98362289D01*
X171537029Y-98289288D01*
X171537028Y-98289287D01*
X171537025Y-98289286D01*
X171390436Y-98250009D01*
X171391123Y-98247444D01*
X171346565Y-98224221D01*
X171323582Y-98168660D01*
X171323500Y-98164868D01*
X171323500Y-96705092D01*
X171344065Y-96648591D01*
X171349245Y-96642937D01*
X171364557Y-96627625D01*
X171385711Y-96606471D01*
X171458712Y-96480029D01*
X171496500Y-96339001D01*
X171496500Y-96192999D01*
X171470395Y-96095572D01*
X171458713Y-96051974D01*
X171458712Y-96051973D01*
X171458712Y-96051971D01*
X171385711Y-95925529D01*
X171282471Y-95822289D01*
X171156029Y-95749288D01*
X171156028Y-95749287D01*
X171156025Y-95749286D01*
X171015001Y-95711500D01*
X170868999Y-95711500D01*
X170868997Y-95711500D01*
X170799149Y-95730215D01*
X170739251Y-95724974D01*
X170696735Y-95682457D01*
X170688500Y-95645310D01*
X170688500Y-88713433D01*
X170709065Y-88656932D01*
X170714245Y-88651278D01*
X171230749Y-88134774D01*
X171755276Y-87610247D01*
X171758594Y-87604500D01*
X171805501Y-87523254D01*
X171831500Y-87426225D01*
X171831500Y-87203592D01*
X171852065Y-87147091D01*
X171857245Y-87141437D01*
X171886854Y-87111828D01*
X171917211Y-87081471D01*
X171990212Y-86955029D01*
X172028000Y-86814001D01*
X172028000Y-86667999D01*
X171990212Y-86526971D01*
X171917211Y-86400529D01*
X171813971Y-86297289D01*
X171687529Y-86224288D01*
X171687528Y-86224287D01*
X171687525Y-86224286D01*
X171546501Y-86186500D01*
X171400499Y-86186500D01*
X171259474Y-86224286D01*
X171133027Y-86297290D01*
X171029790Y-86400527D01*
X170956786Y-86526974D01*
X170919000Y-86667999D01*
X170919000Y-86814000D01*
X170956786Y-86955025D01*
X171029790Y-87081472D01*
X171042755Y-87094437D01*
X171050865Y-87111828D01*
X171063199Y-87126528D01*
X171066530Y-87145424D01*
X171068166Y-87148931D01*
X171068500Y-87156592D01*
X171068500Y-87181566D01*
X171047935Y-87238067D01*
X171042755Y-87243721D01*
X170256734Y-88029742D01*
X170202240Y-88055153D01*
X170144162Y-88039590D01*
X170132424Y-88029742D01*
X170079245Y-87976563D01*
X170053834Y-87922069D01*
X170053500Y-87914408D01*
X170053500Y-87180092D01*
X170074065Y-87123591D01*
X170079245Y-87117937D01*
X170085354Y-87111828D01*
X170115711Y-87081471D01*
X170188712Y-86955029D01*
X170226500Y-86814001D01*
X170226500Y-86667999D01*
X170188712Y-86526971D01*
X170115711Y-86400529D01*
X170012471Y-86297289D01*
X169886029Y-86224288D01*
X169886028Y-86224287D01*
X169886025Y-86224286D01*
X169745001Y-86186500D01*
X169598999Y-86186500D01*
X169457974Y-86224286D01*
X169331527Y-86297290D01*
X169228290Y-86400527D01*
X169155286Y-86526974D01*
X169117500Y-86667999D01*
X169117500Y-86814000D01*
X169155286Y-86955025D01*
X169228290Y-87081472D01*
X169264755Y-87117937D01*
X169290166Y-87172431D01*
X169290500Y-87180092D01*
X169290500Y-87991408D01*
X169270286Y-88046944D01*
X169270299Y-88046954D01*
X169270267Y-88046994D01*
X169269935Y-88047909D01*
X169267666Y-88050384D01*
X169266791Y-88051525D01*
X169193786Y-88177974D01*
X169156000Y-88318999D01*
X169156000Y-88465000D01*
X169193786Y-88606025D01*
X169193787Y-88606028D01*
X169193788Y-88606029D01*
X169266789Y-88732471D01*
X169370029Y-88835711D01*
X169496471Y-88908712D01*
X169496473Y-88908712D01*
X169496474Y-88908713D01*
X169637499Y-88946500D01*
X169783501Y-88946500D01*
X169814849Y-88938100D01*
X169874746Y-88943339D01*
X169917264Y-88985854D01*
X169925500Y-89023004D01*
X169925500Y-97223908D01*
X169904935Y-97280409D01*
X169899755Y-97286063D01*
X169863290Y-97322527D01*
X169790286Y-97448974D01*
X169752500Y-97589999D01*
X169752500Y-97736002D01*
X169753941Y-97741380D01*
X169748700Y-97801278D01*
X169731191Y-97826284D01*
X169112724Y-98444753D01*
X169112722Y-98444755D01*
X169112721Y-98444754D01*
X168950723Y-98606754D01*
X168896229Y-98632165D01*
X168888568Y-98632500D01*
X168836999Y-98632500D01*
X168695974Y-98670286D01*
X168569527Y-98743290D01*
X168466290Y-98846527D01*
X168393286Y-98972974D01*
X168355500Y-99113999D01*
X167640500Y-99113999D01*
X167640500Y-92396433D01*
X167661065Y-92339932D01*
X167666245Y-92334278D01*
X167980278Y-92020245D01*
X168034772Y-91994834D01*
X168042433Y-91994500D01*
X168094000Y-91994500D01*
X168094001Y-91994500D01*
X168235029Y-91956712D01*
X168361471Y-91883711D01*
X168464711Y-91780471D01*
X168537712Y-91654029D01*
X168575500Y-91513001D01*
X168575500Y-91366999D01*
X168550320Y-91273025D01*
X168537713Y-91225974D01*
X168537712Y-91225973D01*
X168537712Y-91225971D01*
X168464711Y-91099529D01*
X168361471Y-90996289D01*
X168235029Y-90923288D01*
X168235028Y-90923287D01*
X168235025Y-90923286D01*
X168094001Y-90885500D01*
X167947999Y-90885500D01*
X167806974Y-90923286D01*
X167680527Y-90996290D01*
X167577290Y-91099527D01*
X167504286Y-91225974D01*
X167466500Y-91366999D01*
X167466500Y-91418567D01*
X167445935Y-91475068D01*
X167440755Y-91480722D01*
X166953725Y-91967751D01*
X166903497Y-92054749D01*
X166877500Y-92151775D01*
X166877500Y-100389566D01*
X166856935Y-100446067D01*
X166851755Y-100451721D01*
X165948365Y-101355110D01*
X165893871Y-101380521D01*
X165863460Y-101377860D01*
X165808001Y-101363000D01*
X165661999Y-101363000D01*
X165520974Y-101400786D01*
X165394527Y-101473790D01*
X165291290Y-101577027D01*
X165218286Y-101703474D01*
X165180500Y-101844499D01*
X161700485Y-101844499D01*
X161679712Y-101766971D01*
X161606711Y-101640529D01*
X161503471Y-101537289D01*
X161377029Y-101464288D01*
X161377028Y-101464287D01*
X161377025Y-101464286D01*
X161236001Y-101426500D01*
X161089999Y-101426500D01*
X160948974Y-101464286D01*
X160822527Y-101537290D01*
X160719290Y-101640527D01*
X160646287Y-101766973D01*
X160622127Y-101857140D01*
X160613236Y-101869837D01*
X160609225Y-101884806D01*
X160596530Y-101893695D01*
X160587639Y-101906393D01*
X160572667Y-101910404D01*
X160559972Y-101919294D01*
X160544531Y-101917942D01*
X160529561Y-101921954D01*
X160515513Y-101915403D01*
X160500074Y-101914053D01*
X160475067Y-101896544D01*
X160473245Y-101894722D01*
X160447834Y-101840228D01*
X160447500Y-101832567D01*
X160447500Y-101780999D01*
X160409713Y-101639974D01*
X160409712Y-101639973D01*
X160409712Y-101639971D01*
X160336711Y-101513529D01*
X160233471Y-101410289D01*
X160107029Y-101337288D01*
X160107028Y-101337287D01*
X160107025Y-101337286D01*
X159966001Y-101299500D01*
X159819999Y-101299500D01*
X159678974Y-101337286D01*
X159552527Y-101410290D01*
X159449290Y-101513527D01*
X159376286Y-101639974D01*
X159347845Y-101746122D01*
X159338500Y-101780999D01*
X158725100Y-101780999D01*
X158725100Y-100413492D01*
X158745665Y-100356991D01*
X158750845Y-100351337D01*
X158752845Y-100349337D01*
X158788311Y-100313871D01*
X158861312Y-100187429D01*
X158899100Y-100046401D01*
X158899100Y-99900399D01*
X158875986Y-99814136D01*
X158861313Y-99759374D01*
X158861312Y-99759373D01*
X158861312Y-99759371D01*
X158788311Y-99632929D01*
X158685071Y-99529689D01*
X158558629Y-99456688D01*
X158558628Y-99456687D01*
X158558625Y-99456686D01*
X158417601Y-99418900D01*
X158271599Y-99418900D01*
X158269134Y-99418900D01*
X158212633Y-99398335D01*
X158182569Y-99346264D01*
X158182923Y-99313852D01*
X158212540Y-99164956D01*
X158216500Y-99145047D01*
X158216500Y-98974953D01*
X159029500Y-98974953D01*
X159029500Y-99145047D01*
X159033460Y-99164956D01*
X159062682Y-99311870D01*
X159062684Y-99311874D01*
X159127774Y-99469018D01*
X159127775Y-99469020D01*
X159127776Y-99469021D01*
X159222276Y-99610449D01*
X159342551Y-99730724D01*
X159483979Y-99825224D01*
X159641126Y-99890316D01*
X159641127Y-99890316D01*
X159641129Y-99890317D01*
X159725108Y-99907021D01*
X159807953Y-99923500D01*
X159807955Y-99923500D01*
X159978045Y-99923500D01*
X159978047Y-99923500D01*
X160088257Y-99901577D01*
X160144870Y-99890317D01*
X160144870Y-99890316D01*
X160144874Y-99890316D01*
X160302021Y-99825224D01*
X160443449Y-99730724D01*
X160563724Y-99610449D01*
X160658224Y-99469021D01*
X160723316Y-99311874D01*
X160756500Y-99145047D01*
X160756500Y-98974953D01*
X160730955Y-98846529D01*
X160723317Y-98808129D01*
X160723316Y-98808127D01*
X160723316Y-98808126D01*
X160658224Y-98650979D01*
X160563724Y-98509551D01*
X160480107Y-98425934D01*
X164109500Y-98425934D01*
X164109500Y-99694068D01*
X164116792Y-99730725D01*
X164124266Y-99768301D01*
X164180516Y-99852484D01*
X164208705Y-99871319D01*
X164264698Y-99908734D01*
X164275261Y-99910835D01*
X164338933Y-99923500D01*
X165607066Y-99923499D01*
X165607068Y-99923499D01*
X165625561Y-99919820D01*
X165681301Y-99908734D01*
X165765484Y-99852484D01*
X165821734Y-99768301D01*
X165836500Y-99694067D01*
X165836499Y-98425934D01*
X165836499Y-98425933D01*
X165836499Y-98425931D01*
X165829207Y-98389274D01*
X165821734Y-98351699D01*
X165765484Y-98267516D01*
X165741515Y-98251500D01*
X165681301Y-98211265D01*
X165628011Y-98200666D01*
X165607067Y-98196500D01*
X165607065Y-98196500D01*
X164338931Y-98196500D01*
X164264699Y-98211266D01*
X164180517Y-98267515D01*
X164180514Y-98267518D01*
X164124265Y-98351698D01*
X164112814Y-98409273D01*
X164109501Y-98425931D01*
X164109500Y-98425934D01*
X160480107Y-98425934D01*
X160443449Y-98389276D01*
X160403062Y-98362290D01*
X160313565Y-98302489D01*
X160278011Y-98253999D01*
X160274500Y-98229403D01*
X160274500Y-97701508D01*
X160286275Y-97657560D01*
X160306212Y-97623029D01*
X160344000Y-97482001D01*
X160344000Y-97335999D01*
X160333159Y-97295540D01*
X160306213Y-97194974D01*
X160306212Y-97194973D01*
X160306212Y-97194971D01*
X160233211Y-97068529D01*
X160129971Y-96965289D01*
X160003529Y-96892288D01*
X160003528Y-96892287D01*
X160003525Y-96892286D01*
X159862501Y-96854500D01*
X159716499Y-96854500D01*
X159575474Y-96892286D01*
X159449027Y-96965290D01*
X159345790Y-97068527D01*
X159272786Y-97194974D01*
X159243748Y-97303350D01*
X159235000Y-97335999D01*
X159235000Y-97482001D01*
X159239456Y-97498631D01*
X159272786Y-97623025D01*
X159272787Y-97623028D01*
X159272788Y-97623029D01*
X159345789Y-97749471D01*
X159449029Y-97852711D01*
X159467549Y-97863403D01*
X159506198Y-97909462D01*
X159511500Y-97939527D01*
X159511500Y-98229403D01*
X159490935Y-98285904D01*
X159472435Y-98302489D01*
X159342553Y-98389274D01*
X159222274Y-98509553D01*
X159127774Y-98650981D01*
X159062684Y-98808125D01*
X159062682Y-98808129D01*
X159033619Y-98954242D01*
X159029500Y-98974953D01*
X158216500Y-98974953D01*
X158190955Y-98846529D01*
X158183317Y-98808129D01*
X158183316Y-98808127D01*
X158183316Y-98808126D01*
X158118224Y-98650979D01*
X158023724Y-98509551D01*
X157903449Y-98389276D01*
X157762021Y-98294776D01*
X157762020Y-98294775D01*
X157762018Y-98294774D01*
X157604874Y-98229684D01*
X157604870Y-98229682D01*
X157479468Y-98204739D01*
X157438047Y-98196500D01*
X157267953Y-98196500D01*
X157231106Y-98203829D01*
X157101129Y-98229682D01*
X157101125Y-98229684D01*
X156943981Y-98294774D01*
X156802553Y-98389274D01*
X156682274Y-98509553D01*
X156587774Y-98650981D01*
X156522684Y-98808125D01*
X156522682Y-98808129D01*
X156493619Y-98954242D01*
X156489500Y-98974953D01*
X156489500Y-99145047D01*
X156493460Y-99164956D01*
X156522682Y-99311870D01*
X156522684Y-99311874D01*
X156587774Y-99469018D01*
X156587775Y-99469020D01*
X156587776Y-99469021D01*
X156682276Y-99610449D01*
X156802551Y-99730724D01*
X156943979Y-99825224D01*
X157101126Y-99890316D01*
X157101127Y-99890316D01*
X157101129Y-99890317D01*
X157185108Y-99907021D01*
X157267953Y-99923500D01*
X157267955Y-99923500D01*
X157438045Y-99923500D01*
X157438047Y-99923500D01*
X157548257Y-99901577D01*
X157604870Y-99890317D01*
X157604870Y-99890316D01*
X157604874Y-99890316D01*
X157668564Y-99863934D01*
X157728631Y-99861312D01*
X157776334Y-99897915D01*
X157790100Y-99945144D01*
X157790100Y-100046400D01*
X157827886Y-100187425D01*
X157827887Y-100187428D01*
X157827888Y-100187429D01*
X157860277Y-100243529D01*
X157900890Y-100313872D01*
X157936355Y-100349337D01*
X157961766Y-100403831D01*
X157962100Y-100411492D01*
X157962100Y-103386767D01*
X157941535Y-103443268D01*
X157936355Y-103448922D01*
X157012722Y-104372555D01*
X156958228Y-104397966D01*
X156950567Y-104398300D01*
X156886699Y-104398300D01*
X156745674Y-104436086D01*
X156619227Y-104509090D01*
X156515990Y-104612327D01*
X156442986Y-104738774D01*
X156405200Y-104879799D01*
X146812500Y-104879799D01*
X146812500Y-103826432D01*
X146819063Y-103808399D01*
X146820736Y-103789284D01*
X146831742Y-103773563D01*
X146833065Y-103769931D01*
X146838245Y-103764277D01*
X146927677Y-103674845D01*
X146982171Y-103649434D01*
X146989832Y-103649100D01*
X148150908Y-103649100D01*
X148207409Y-103669665D01*
X148213063Y-103674845D01*
X148249529Y-103711311D01*
X148375971Y-103784312D01*
X148375973Y-103784312D01*
X148375974Y-103784313D01*
X148516999Y-103822100D01*
X148663000Y-103822100D01*
X148663001Y-103822100D01*
X148804029Y-103784312D01*
X148930471Y-103711311D01*
X149033711Y-103608071D01*
X149106712Y-103481629D01*
X149144500Y-103340601D01*
X149144500Y-103194599D01*
X149140052Y-103177999D01*
X149106713Y-103053574D01*
X149106712Y-103053573D01*
X149106712Y-103053571D01*
X149033711Y-102927129D01*
X148930471Y-102823889D01*
X148804029Y-102750888D01*
X148804028Y-102750887D01*
X148804025Y-102750886D01*
X148663001Y-102713100D01*
X148516999Y-102713100D01*
X148375974Y-102750886D01*
X148249527Y-102823890D01*
X148213063Y-102860355D01*
X148158569Y-102885766D01*
X148150908Y-102886100D01*
X146745175Y-102886100D01*
X146648149Y-102912097D01*
X146561151Y-102962325D01*
X146125725Y-103397751D01*
X146075497Y-103484749D01*
X146049500Y-103581775D01*
X146049500Y-105596567D01*
X146042936Y-105614599D01*
X146041264Y-105633715D01*
X146030257Y-105649435D01*
X146028935Y-105653068D01*
X146023755Y-105658722D01*
X145917722Y-105764755D01*
X145863228Y-105790166D01*
X145855567Y-105790500D01*
X144711092Y-105790500D01*
X144654591Y-105769935D01*
X144648937Y-105764755D01*
X144612472Y-105728290D01*
X144612471Y-105728289D01*
X144486029Y-105655288D01*
X144486028Y-105655287D01*
X144486025Y-105655286D01*
X144345001Y-105617500D01*
X144198999Y-105617500D01*
X144057974Y-105655286D01*
X143931527Y-105728290D01*
X143828290Y-105831527D01*
X143755286Y-105957974D01*
X143717500Y-106098999D01*
X130542549Y-106098999D01*
X130583567Y-106057981D01*
X130694810Y-105891493D01*
X130771436Y-105706502D01*
X130775862Y-105684254D01*
X130810500Y-105510114D01*
X130810500Y-105309885D01*
X130807195Y-105293272D01*
X130786753Y-105190500D01*
X130771438Y-105113506D01*
X130771437Y-105113503D01*
X130771436Y-105113498D01*
X130752492Y-105067766D01*
X130749870Y-105007697D01*
X130771545Y-104971976D01*
X131115276Y-104628247D01*
X131120884Y-104618534D01*
X131165501Y-104541254D01*
X131191500Y-104444225D01*
X131191500Y-103826432D01*
X131212065Y-103769931D01*
X131217245Y-103764277D01*
X131549523Y-103431999D01*
X134319500Y-103431999D01*
X134319500Y-103578000D01*
X134357286Y-103719025D01*
X134357287Y-103719028D01*
X134357288Y-103719029D01*
X134423102Y-103833023D01*
X134430290Y-103845472D01*
X134466755Y-103881937D01*
X134492166Y-103936431D01*
X134492500Y-103944092D01*
X134492500Y-104801724D01*
X134518498Y-104898752D01*
X134557489Y-104966288D01*
X134568724Y-104985747D01*
X134952255Y-105369278D01*
X134977666Y-105423772D01*
X134978000Y-105431433D01*
X134978000Y-105483001D01*
X134984511Y-105507300D01*
X135015786Y-105624025D01*
X135015787Y-105624028D01*
X135015788Y-105624029D01*
X135088789Y-105750471D01*
X135192029Y-105853711D01*
X135318471Y-105926712D01*
X135318473Y-105926712D01*
X135318474Y-105926713D01*
X135459499Y-105964500D01*
X135605500Y-105964500D01*
X135605501Y-105964500D01*
X135746529Y-105926712D01*
X135872971Y-105853711D01*
X135976211Y-105750471D01*
X136049212Y-105624029D01*
X136087000Y-105483001D01*
X136087000Y-105336999D01*
X136079671Y-105309645D01*
X136049213Y-105195974D01*
X136049212Y-105195973D01*
X136049212Y-105195971D01*
X135976211Y-105069529D01*
X135872971Y-104966289D01*
X135746529Y-104893288D01*
X135746528Y-104893287D01*
X135746525Y-104893286D01*
X135605501Y-104855500D01*
X135553933Y-104855500D01*
X135497432Y-104834935D01*
X135491778Y-104829755D01*
X135281245Y-104619222D01*
X135255834Y-104564728D01*
X135255500Y-104557067D01*
X135255500Y-103944092D01*
X135276065Y-103887591D01*
X135281245Y-103881937D01*
X135317711Y-103845471D01*
X135390712Y-103719029D01*
X135428500Y-103578001D01*
X135428500Y-103431999D01*
X135416366Y-103386713D01*
X135390713Y-103290974D01*
X135390712Y-103290973D01*
X135390712Y-103290971D01*
X135317711Y-103164529D01*
X135214471Y-103061289D01*
X135088029Y-102988288D01*
X135088028Y-102988287D01*
X135088025Y-102988286D01*
X134947001Y-102950500D01*
X134800999Y-102950500D01*
X134659974Y-102988286D01*
X134533527Y-103061290D01*
X134430290Y-103164527D01*
X134357286Y-103290974D01*
X134319500Y-103431999D01*
X131549523Y-103431999D01*
X131721777Y-103259745D01*
X131776271Y-103234334D01*
X131783932Y-103234000D01*
X131835500Y-103234000D01*
X131835501Y-103234000D01*
X131976529Y-103196212D01*
X132102971Y-103123211D01*
X132206211Y-103019971D01*
X132279212Y-102893529D01*
X132317000Y-102752501D01*
X132317000Y-102606499D01*
X132308158Y-102573501D01*
X132279213Y-102465474D01*
X132279212Y-102465473D01*
X132279212Y-102465471D01*
X132206211Y-102339029D01*
X132102971Y-102235789D01*
X131976529Y-102162788D01*
X131976528Y-102162787D01*
X131976525Y-102162786D01*
X131835501Y-102125000D01*
X131689499Y-102125000D01*
X131548474Y-102162786D01*
X131422027Y-102235790D01*
X131318790Y-102339027D01*
X131245786Y-102465474D01*
X131208000Y-102606499D01*
X131208000Y-102658067D01*
X131187435Y-102714568D01*
X131182255Y-102720222D01*
X130960555Y-102941922D01*
X130906061Y-102967333D01*
X130847983Y-102951770D01*
X130813495Y-102902517D01*
X130810500Y-102879767D01*
X130810500Y-102769885D01*
X130800621Y-102720222D01*
X130793924Y-102686553D01*
X130771438Y-102573506D01*
X130771437Y-102573503D01*
X130771436Y-102573498D01*
X130694810Y-102388507D01*
X130606789Y-102256773D01*
X130583570Y-102222023D01*
X130583569Y-102222022D01*
X130583567Y-102222019D01*
X130441981Y-102080433D01*
X130441977Y-102080430D01*
X130441976Y-102080429D01*
X130275496Y-101969192D01*
X130275495Y-101969191D01*
X130275493Y-101969190D01*
X130090502Y-101892564D01*
X130090498Y-101892563D01*
X130090493Y-101892561D01*
X129934269Y-101861487D01*
X129894116Y-101853500D01*
X129693884Y-101853500D01*
X129653731Y-101861487D01*
X129497501Y-101892562D01*
X129497497Y-101892563D01*
X129451765Y-101911506D01*
X129391695Y-101914127D01*
X129355974Y-101892451D01*
X129209645Y-101746122D01*
X129201534Y-101728730D01*
X129189201Y-101714031D01*
X129185869Y-101695134D01*
X129184234Y-101691628D01*
X129183900Y-101683967D01*
X129183900Y-101526999D01*
X136478500Y-101526999D01*
X136478500Y-101673001D01*
X136486009Y-101701024D01*
X136516286Y-101814025D01*
X136516287Y-101814028D01*
X136516288Y-101814029D01*
X136581512Y-101927001D01*
X136589290Y-101940472D01*
X136625755Y-101976937D01*
X136651166Y-102031431D01*
X136651500Y-102039092D01*
X136651500Y-104716908D01*
X136630935Y-104773409D01*
X136625755Y-104779063D01*
X136589290Y-104815527D01*
X136516286Y-104941974D01*
X136478500Y-105082999D01*
X136478500Y-105229000D01*
X136516286Y-105370025D01*
X136516287Y-105370028D01*
X136516288Y-105370029D01*
X136589289Y-105496471D01*
X136692529Y-105599711D01*
X136818971Y-105672712D01*
X136818973Y-105672712D01*
X136818974Y-105672713D01*
X136959999Y-105710500D01*
X137106000Y-105710500D01*
X137106001Y-105710500D01*
X137247029Y-105672712D01*
X137373471Y-105599711D01*
X137476711Y-105496471D01*
X137549712Y-105370029D01*
X137587500Y-105229001D01*
X137587500Y-105082999D01*
X137566151Y-105003324D01*
X137549713Y-104941974D01*
X137549712Y-104941973D01*
X137549712Y-104941971D01*
X137476711Y-104815529D01*
X137440245Y-104779063D01*
X137414834Y-104724569D01*
X137414500Y-104716908D01*
X137414500Y-102039092D01*
X137435065Y-101982591D01*
X137440245Y-101976937D01*
X137451512Y-101965670D01*
X137476711Y-101940471D01*
X137549712Y-101814029D01*
X137587500Y-101673001D01*
X137587500Y-101526999D01*
X137549712Y-101385971D01*
X137476711Y-101259529D01*
X137373471Y-101156289D01*
X137247029Y-101083288D01*
X137247028Y-101083287D01*
X137247025Y-101083286D01*
X137106001Y-101045500D01*
X136959999Y-101045500D01*
X136818974Y-101083286D01*
X136692527Y-101156290D01*
X136589290Y-101259527D01*
X136516286Y-101385974D01*
X136483700Y-101507592D01*
X136478500Y-101526999D01*
X129183900Y-101526999D01*
X129183900Y-101308719D01*
X129204465Y-101252218D01*
X129256536Y-101222154D01*
X129308015Y-101230370D01*
X129308518Y-101229157D01*
X129312504Y-101230808D01*
X129312507Y-101230810D01*
X129497498Y-101307436D01*
X129497503Y-101307437D01*
X129497506Y-101307438D01*
X129597017Y-101327231D01*
X129693884Y-101346500D01*
X129693886Y-101346500D01*
X129894114Y-101346500D01*
X129894116Y-101346500D01*
X130022694Y-101320923D01*
X130090493Y-101307438D01*
X130090494Y-101307437D01*
X130090502Y-101307436D01*
X130275493Y-101230810D01*
X130441981Y-101119567D01*
X130583567Y-100977981D01*
X130694810Y-100811493D01*
X130771436Y-100626502D01*
X130794411Y-100510999D01*
X150067500Y-100510999D01*
X150067500Y-100657000D01*
X150105286Y-100798025D01*
X150105287Y-100798028D01*
X150105288Y-100798029D01*
X150151442Y-100877971D01*
X150178290Y-100924472D01*
X150214755Y-100960937D01*
X150240166Y-101015431D01*
X150240500Y-101023092D01*
X150240500Y-102686825D01*
X150242608Y-102694692D01*
X150266498Y-102783852D01*
X150289124Y-102823041D01*
X150300900Y-102866991D01*
X150300900Y-102943001D01*
X150303250Y-102951770D01*
X150338686Y-103084025D01*
X150338687Y-103084028D01*
X150338688Y-103084029D01*
X150411689Y-103210471D01*
X150514929Y-103313711D01*
X150641371Y-103386712D01*
X150641373Y-103386712D01*
X150641374Y-103386713D01*
X150782399Y-103424500D01*
X150914891Y-103424500D01*
X150971392Y-103445065D01*
X151001456Y-103497136D01*
X151002038Y-103500922D01*
X151002498Y-103504419D01*
X151028498Y-103601452D01*
X151069285Y-103672100D01*
X151069286Y-103672100D01*
X151078724Y-103688447D01*
X151591155Y-104200878D01*
X151616566Y-104255371D01*
X151616900Y-104263032D01*
X151616900Y-104314600D01*
X151654686Y-104455625D01*
X151654687Y-104455628D01*
X151654688Y-104455629D01*
X151727689Y-104582071D01*
X151830929Y-104685311D01*
X151957371Y-104758312D01*
X151957373Y-104758312D01*
X151957374Y-104758313D01*
X152098399Y-104796100D01*
X152244400Y-104796100D01*
X152244401Y-104796100D01*
X152385429Y-104758312D01*
X152511871Y-104685311D01*
X152615111Y-104582071D01*
X152688112Y-104455629D01*
X152725900Y-104314601D01*
X152725900Y-104168599D01*
X152688112Y-104027571D01*
X152686047Y-104023994D01*
X152675608Y-103964780D01*
X152705673Y-103912710D01*
X152735756Y-103897051D01*
X152735702Y-103896919D01*
X152737221Y-103896289D01*
X152739428Y-103895140D01*
X152741029Y-103894712D01*
X152867471Y-103821711D01*
X152970711Y-103718471D01*
X153043712Y-103592029D01*
X153081500Y-103451001D01*
X153081500Y-103304999D01*
X153043712Y-103163971D01*
X152970711Y-103037529D01*
X152934245Y-103001063D01*
X152908834Y-102946569D01*
X152908500Y-102938908D01*
X152908500Y-102694692D01*
X152929065Y-102638191D01*
X152934245Y-102632537D01*
X152951260Y-102615522D01*
X152970711Y-102596071D01*
X153043712Y-102469629D01*
X153081500Y-102328601D01*
X153081500Y-102182599D01*
X153049061Y-102061535D01*
X153043713Y-102041574D01*
X153043712Y-102041573D01*
X153043712Y-102041571D01*
X152970711Y-101915129D01*
X152867471Y-101811889D01*
X152741029Y-101738888D01*
X152741028Y-101738887D01*
X152741025Y-101738886D01*
X152600001Y-101701100D01*
X152453999Y-101701100D01*
X152312974Y-101738886D01*
X152186527Y-101811890D01*
X152083290Y-101915127D01*
X152010286Y-102041574D01*
X151986185Y-102131525D01*
X151972500Y-102182599D01*
X151972500Y-102328601D01*
X151980964Y-102360190D01*
X152010286Y-102469625D01*
X152010287Y-102469628D01*
X152010288Y-102469629D01*
X152070261Y-102573506D01*
X152083290Y-102596072D01*
X152119755Y-102632537D01*
X152145166Y-102687031D01*
X152145500Y-102694692D01*
X152145500Y-102938908D01*
X152124935Y-102995409D01*
X152119755Y-103001063D01*
X152083290Y-103037527D01*
X152010286Y-103163974D01*
X151971009Y-103310564D01*
X151969230Y-103310087D01*
X151963004Y-103322047D01*
X151957565Y-103342346D01*
X151949494Y-103347997D01*
X151944943Y-103356739D01*
X151925525Y-103364780D01*
X151908312Y-103376834D01*
X151898496Y-103375975D01*
X151889391Y-103379746D01*
X151869346Y-103373424D01*
X151848414Y-103371593D01*
X151836018Y-103362914D01*
X151832048Y-103361662D01*
X151823407Y-103354084D01*
X151791245Y-103321922D01*
X151765834Y-103267428D01*
X151765500Y-103259767D01*
X151765500Y-101637492D01*
X151786065Y-101580991D01*
X151791245Y-101575337D01*
X151827711Y-101538871D01*
X151900712Y-101412429D01*
X151938500Y-101271401D01*
X151938500Y-101125399D01*
X151935865Y-101115566D01*
X151914543Y-101035988D01*
X151909991Y-101018999D01*
X154616000Y-101018999D01*
X154616000Y-101165000D01*
X154653786Y-101306025D01*
X154653787Y-101306028D01*
X154653788Y-101306029D01*
X154715215Y-101412425D01*
X154726790Y-101432472D01*
X154786755Y-101492437D01*
X154812166Y-101546931D01*
X154812500Y-101554592D01*
X154812500Y-102152608D01*
X154791935Y-102209109D01*
X154786755Y-102214763D01*
X154776790Y-102224727D01*
X154703786Y-102351174D01*
X154666000Y-102492199D01*
X154666000Y-102638200D01*
X154703786Y-102779225D01*
X154703787Y-102779228D01*
X154703788Y-102779229D01*
X154776789Y-102905671D01*
X154880029Y-103008911D01*
X155006471Y-103081912D01*
X155006473Y-103081912D01*
X155006474Y-103081913D01*
X155147499Y-103119700D01*
X155293500Y-103119700D01*
X155293501Y-103119700D01*
X155434529Y-103081912D01*
X155560971Y-103008911D01*
X155664211Y-102905671D01*
X155737212Y-102779229D01*
X155775000Y-102638201D01*
X155775000Y-102492199D01*
X155767372Y-102463729D01*
X155737213Y-102351174D01*
X155737212Y-102351173D01*
X155737212Y-102351171D01*
X155664211Y-102224729D01*
X155601245Y-102161763D01*
X155575834Y-102107269D01*
X155575500Y-102099608D01*
X155575500Y-101507592D01*
X155596065Y-101451091D01*
X155601245Y-101445437D01*
X155614211Y-101432471D01*
X155687212Y-101306029D01*
X155725000Y-101165001D01*
X155725000Y-101018999D01*
X155714008Y-100977976D01*
X155687213Y-100877974D01*
X155687212Y-100877973D01*
X155687212Y-100877971D01*
X155614211Y-100751529D01*
X155510971Y-100648289D01*
X155384529Y-100575288D01*
X155384528Y-100575287D01*
X155384525Y-100575286D01*
X155243501Y-100537500D01*
X155097499Y-100537500D01*
X154956474Y-100575286D01*
X154830027Y-100648290D01*
X154726790Y-100751527D01*
X154653786Y-100877974D01*
X154616000Y-101018999D01*
X151909991Y-101018999D01*
X151900713Y-100984374D01*
X151900712Y-100984373D01*
X151900712Y-100984371D01*
X151827711Y-100857929D01*
X151724471Y-100754689D01*
X151598029Y-100681688D01*
X151598028Y-100681687D01*
X151598025Y-100681686D01*
X151457001Y-100643900D01*
X151310999Y-100643900D01*
X151310997Y-100643900D01*
X151287149Y-100650290D01*
X151227251Y-100645049D01*
X151184735Y-100602532D01*
X151176500Y-100565385D01*
X151176500Y-100510999D01*
X151138713Y-100369974D01*
X151138712Y-100369973D01*
X151138712Y-100369971D01*
X151065711Y-100243529D01*
X150962471Y-100140289D01*
X150836029Y-100067288D01*
X150836028Y-100067287D01*
X150836025Y-100067286D01*
X150695001Y-100029500D01*
X150548999Y-100029500D01*
X150407974Y-100067286D01*
X150281527Y-100140290D01*
X150178290Y-100243527D01*
X150105286Y-100369974D01*
X150067500Y-100510999D01*
X130794411Y-100510999D01*
X130810500Y-100430116D01*
X130810500Y-100229884D01*
X130797711Y-100165594D01*
X130771438Y-100033506D01*
X130771437Y-100033503D01*
X130771436Y-100033498D01*
X130694810Y-99848507D01*
X130616111Y-99730725D01*
X130583570Y-99682023D01*
X130583569Y-99682022D01*
X130583567Y-99682019D01*
X130441981Y-99540433D01*
X130441977Y-99540430D01*
X130441976Y-99540429D01*
X130275496Y-99429192D01*
X130275495Y-99429191D01*
X130275493Y-99429190D01*
X130090502Y-99352564D01*
X130090498Y-99352563D01*
X130090493Y-99352561D01*
X129940427Y-99322712D01*
X129894116Y-99313500D01*
X129693884Y-99313500D01*
X129650639Y-99322101D01*
X129497506Y-99352561D01*
X129497501Y-99352563D01*
X129497499Y-99352563D01*
X129497498Y-99352564D01*
X129439207Y-99376709D01*
X129308518Y-99430842D01*
X129307983Y-99429551D01*
X129253706Y-99437296D01*
X129202648Y-99405541D01*
X129183900Y-99351279D01*
X129183900Y-98768719D01*
X129204465Y-98712218D01*
X129256536Y-98682154D01*
X129308015Y-98690370D01*
X129308518Y-98689157D01*
X129312504Y-98690808D01*
X129312507Y-98690810D01*
X129497498Y-98767436D01*
X129497503Y-98767437D01*
X129497506Y-98767438D01*
X129563702Y-98780605D01*
X129693884Y-98806500D01*
X129693886Y-98806500D01*
X129894114Y-98806500D01*
X129894116Y-98806500D01*
X130024298Y-98780605D01*
X130090493Y-98767438D01*
X130090494Y-98767437D01*
X130090502Y-98767436D01*
X130275493Y-98690810D01*
X130441981Y-98579567D01*
X130583567Y-98437981D01*
X130694810Y-98271493D01*
X130771436Y-98086502D01*
X130771832Y-98084514D01*
X130784923Y-98018694D01*
X130810500Y-97890116D01*
X130810500Y-97689884D01*
X130792414Y-97598959D01*
X130771438Y-97493506D01*
X130771437Y-97493503D01*
X130771436Y-97493498D01*
X130694810Y-97308507D01*
X130583567Y-97142019D01*
X130441981Y-97000433D01*
X130441977Y-97000430D01*
X130441976Y-97000429D01*
X130275496Y-96889192D01*
X130275495Y-96889191D01*
X130275493Y-96889190D01*
X130090502Y-96812564D01*
X130090498Y-96812563D01*
X130090493Y-96812561D01*
X129942711Y-96783166D01*
X129894116Y-96773500D01*
X129693884Y-96773500D01*
X129650639Y-96782101D01*
X129497506Y-96812561D01*
X129497501Y-96812563D01*
X129497499Y-96812563D01*
X129497498Y-96812564D01*
X129492151Y-96814779D01*
X129308518Y-96890842D01*
X129307983Y-96889551D01*
X129253706Y-96897296D01*
X129202648Y-96865541D01*
X129183900Y-96811279D01*
X129183900Y-96228719D01*
X129204465Y-96172218D01*
X129256536Y-96142154D01*
X129308015Y-96150370D01*
X129308518Y-96149157D01*
X129312504Y-96150808D01*
X129312507Y-96150810D01*
X129497498Y-96227436D01*
X129497503Y-96227437D01*
X129497506Y-96227438D01*
X129597017Y-96247231D01*
X129693884Y-96266500D01*
X129693886Y-96266500D01*
X129894114Y-96266500D01*
X129894116Y-96266500D01*
X130022694Y-96240923D01*
X130090493Y-96227438D01*
X130090494Y-96227437D01*
X130090502Y-96227436D01*
X130275493Y-96150810D01*
X130441981Y-96039567D01*
X130583567Y-95897981D01*
X130694810Y-95731493D01*
X130771436Y-95546502D01*
X130771829Y-95544529D01*
X130803419Y-95385712D01*
X130810500Y-95350116D01*
X130810500Y-95149884D01*
X130794411Y-95069000D01*
X130771438Y-94953506D01*
X130771437Y-94953503D01*
X130771436Y-94953498D01*
X130694810Y-94768507D01*
X130605847Y-94635364D01*
X130583570Y-94602023D01*
X130583569Y-94602022D01*
X130583567Y-94602019D01*
X130441981Y-94460433D01*
X130441977Y-94460430D01*
X130441976Y-94460429D01*
X130275496Y-94349192D01*
X130275495Y-94349191D01*
X130275493Y-94349190D01*
X130090502Y-94272564D01*
X130090498Y-94272563D01*
X130090493Y-94272561D01*
X129942711Y-94243166D01*
X129894116Y-94233500D01*
X129693884Y-94233500D01*
X129650639Y-94242101D01*
X129497506Y-94272561D01*
X129497501Y-94272563D01*
X129497499Y-94272563D01*
X129497498Y-94272564D01*
X129413403Y-94307397D01*
X129308518Y-94350842D01*
X129307983Y-94349551D01*
X129253706Y-94357296D01*
X129202648Y-94325541D01*
X129183900Y-94271279D01*
X129183900Y-93688719D01*
X129204465Y-93632218D01*
X129256536Y-93602154D01*
X129308015Y-93610370D01*
X129308518Y-93609157D01*
X129312504Y-93610808D01*
X129312507Y-93610810D01*
X129497498Y-93687436D01*
X129497503Y-93687437D01*
X129497506Y-93687438D01*
X129597017Y-93707231D01*
X129693884Y-93726500D01*
X129693886Y-93726500D01*
X129894114Y-93726500D01*
X129894116Y-93726500D01*
X130022694Y-93700923D01*
X130090493Y-93687438D01*
X130090494Y-93687437D01*
X130090502Y-93687436D01*
X130275493Y-93610810D01*
X130441981Y-93499567D01*
X130583567Y-93357981D01*
X130694810Y-93191493D01*
X130771436Y-93006502D01*
X130810500Y-92810116D01*
X130810500Y-92609884D01*
X130786235Y-92487897D01*
X130771438Y-92413506D01*
X130771437Y-92413503D01*
X130771436Y-92413498D01*
X130694810Y-92228507D01*
X130583567Y-92062019D01*
X130441981Y-91920433D01*
X130441977Y-91920430D01*
X130441976Y-91920429D01*
X130275496Y-91809192D01*
X130275495Y-91809191D01*
X130275493Y-91809190D01*
X130090502Y-91732564D01*
X130090498Y-91732563D01*
X130090493Y-91732561D01*
X129942711Y-91703166D01*
X129894116Y-91693500D01*
X129693884Y-91693500D01*
X129650639Y-91702101D01*
X129497506Y-91732561D01*
X129497501Y-91732563D01*
X129497499Y-91732563D01*
X129497498Y-91732564D01*
X129413403Y-91767397D01*
X129308518Y-91810842D01*
X129307983Y-91809551D01*
X129253706Y-91817296D01*
X129202648Y-91785541D01*
X129183900Y-91731279D01*
X129183900Y-91148719D01*
X129204465Y-91092218D01*
X129256536Y-91062154D01*
X129308015Y-91070370D01*
X129308518Y-91069157D01*
X129312504Y-91070808D01*
X129312507Y-91070810D01*
X129497498Y-91147436D01*
X129497503Y-91147437D01*
X129497506Y-91147438D01*
X129597017Y-91167231D01*
X129693884Y-91186500D01*
X129693886Y-91186500D01*
X129894114Y-91186500D01*
X129894116Y-91186500D01*
X130022694Y-91160923D01*
X130090493Y-91147438D01*
X130090494Y-91147437D01*
X130090502Y-91147436D01*
X130275493Y-91070810D01*
X130441981Y-90959567D01*
X130583567Y-90817981D01*
X130694810Y-90651493D01*
X130771436Y-90466502D01*
X130771829Y-90464529D01*
X130784386Y-90401399D01*
X135639900Y-90401399D01*
X135639900Y-90547400D01*
X135677686Y-90688425D01*
X135677687Y-90688428D01*
X135677688Y-90688429D01*
X135745590Y-90806040D01*
X135750690Y-90814872D01*
X135787155Y-90851337D01*
X135812566Y-90905831D01*
X135812900Y-90913492D01*
X135812900Y-98271624D01*
X135837193Y-98362290D01*
X135838899Y-98368654D01*
X135863309Y-98410933D01*
X135873778Y-98429066D01*
X135873777Y-98429066D01*
X135873779Y-98429068D01*
X135889121Y-98455644D01*
X136175918Y-98742441D01*
X136201329Y-98796935D01*
X136199974Y-98821744D01*
X136173809Y-98953286D01*
X136169500Y-98974953D01*
X136169500Y-99145047D01*
X136173460Y-99164956D01*
X136202682Y-99311870D01*
X136202684Y-99311874D01*
X136267774Y-99469018D01*
X136267775Y-99469020D01*
X136267776Y-99469021D01*
X136362276Y-99610449D01*
X136482551Y-99730724D01*
X136623979Y-99825224D01*
X136781126Y-99890316D01*
X136781127Y-99890316D01*
X136781129Y-99890317D01*
X136865108Y-99907021D01*
X136947953Y-99923500D01*
X136947955Y-99923500D01*
X137118045Y-99923500D01*
X137118047Y-99923500D01*
X137228257Y-99901577D01*
X137284870Y-99890317D01*
X137284870Y-99890316D01*
X137284874Y-99890316D01*
X137442021Y-99825224D01*
X137583449Y-99730724D01*
X137703724Y-99610449D01*
X137798224Y-99469021D01*
X137863316Y-99311874D01*
X137896500Y-99145047D01*
X137896500Y-98974953D01*
X141249500Y-98974953D01*
X141249500Y-99145047D01*
X141253460Y-99164956D01*
X141282682Y-99311870D01*
X141282684Y-99311874D01*
X141347774Y-99469018D01*
X141347775Y-99469020D01*
X141347776Y-99469021D01*
X141442276Y-99610449D01*
X141562551Y-99730724D01*
X141703979Y-99825224D01*
X141861126Y-99890316D01*
X141861127Y-99890316D01*
X141861129Y-99890317D01*
X141945108Y-99907021D01*
X142027953Y-99923500D01*
X142027955Y-99923500D01*
X142198045Y-99923500D01*
X142198047Y-99923500D01*
X142308257Y-99901577D01*
X142364870Y-99890317D01*
X142364870Y-99890316D01*
X142364874Y-99890316D01*
X142522021Y-99825224D01*
X142663449Y-99730724D01*
X142783724Y-99610449D01*
X142878224Y-99469021D01*
X142943316Y-99311874D01*
X142976500Y-99145047D01*
X142976500Y-98974953D01*
X143789500Y-98974953D01*
X143789500Y-99145047D01*
X143793460Y-99164956D01*
X143822682Y-99311870D01*
X143822684Y-99311874D01*
X143887774Y-99469018D01*
X143887775Y-99469020D01*
X143887776Y-99469021D01*
X143982276Y-99610449D01*
X144102551Y-99730724D01*
X144243979Y-99825224D01*
X144401126Y-99890316D01*
X144401127Y-99890316D01*
X144401129Y-99890317D01*
X144485108Y-99907021D01*
X144567953Y-99923500D01*
X144567955Y-99923500D01*
X144738045Y-99923500D01*
X144738047Y-99923500D01*
X144848257Y-99901577D01*
X144904870Y-99890317D01*
X144904870Y-99890316D01*
X144904874Y-99890316D01*
X145062021Y-99825224D01*
X145203449Y-99730724D01*
X145323724Y-99610449D01*
X145418224Y-99469021D01*
X145483316Y-99311874D01*
X145516500Y-99145047D01*
X145516500Y-98974953D01*
X146329500Y-98974953D01*
X146329500Y-99145047D01*
X146333460Y-99164956D01*
X146362682Y-99311870D01*
X146362684Y-99311874D01*
X146427774Y-99469018D01*
X146427775Y-99469020D01*
X146427776Y-99469021D01*
X146522276Y-99610449D01*
X146642551Y-99730724D01*
X146783979Y-99825224D01*
X146941126Y-99890316D01*
X146941127Y-99890316D01*
X146941129Y-99890317D01*
X147025108Y-99907021D01*
X147107953Y-99923500D01*
X147107955Y-99923500D01*
X147278045Y-99923500D01*
X147278047Y-99923500D01*
X147388257Y-99901577D01*
X147444870Y-99890317D01*
X147444870Y-99890316D01*
X147444874Y-99890316D01*
X147602021Y-99825224D01*
X147743449Y-99730724D01*
X147863724Y-99610449D01*
X147958224Y-99469021D01*
X148023316Y-99311874D01*
X148056500Y-99145047D01*
X148056500Y-98974953D01*
X148869500Y-98974953D01*
X148869500Y-99145047D01*
X148873460Y-99164956D01*
X148902682Y-99311870D01*
X148902684Y-99311874D01*
X148967774Y-99469018D01*
X148967775Y-99469020D01*
X148967776Y-99469021D01*
X149062276Y-99610449D01*
X149182551Y-99730724D01*
X149323979Y-99825224D01*
X149481126Y-99890316D01*
X149481127Y-99890316D01*
X149481129Y-99890317D01*
X149565108Y-99907021D01*
X149647953Y-99923500D01*
X149647955Y-99923500D01*
X149818045Y-99923500D01*
X149818047Y-99923500D01*
X149928257Y-99901577D01*
X149984870Y-99890317D01*
X149984870Y-99890316D01*
X149984874Y-99890316D01*
X150142021Y-99825224D01*
X150283449Y-99730724D01*
X150403724Y-99610449D01*
X150498224Y-99469021D01*
X150563316Y-99311874D01*
X150596500Y-99145047D01*
X150596500Y-98974953D01*
X150570955Y-98846529D01*
X150563317Y-98808129D01*
X150563316Y-98808127D01*
X150563316Y-98808126D01*
X150498224Y-98650979D01*
X150403724Y-98509551D01*
X150283449Y-98389276D01*
X150142021Y-98294776D01*
X150142020Y-98294775D01*
X150142018Y-98294774D01*
X149984874Y-98229684D01*
X149984870Y-98229682D01*
X149859468Y-98204739D01*
X149818047Y-98196500D01*
X149647953Y-98196500D01*
X149611106Y-98203829D01*
X149481129Y-98229682D01*
X149481125Y-98229684D01*
X149323981Y-98294774D01*
X149182553Y-98389274D01*
X149062274Y-98509553D01*
X148967774Y-98650981D01*
X148902684Y-98808125D01*
X148902682Y-98808129D01*
X148873619Y-98954242D01*
X148869500Y-98974953D01*
X148056500Y-98974953D01*
X148030955Y-98846529D01*
X148023317Y-98808129D01*
X148023316Y-98808127D01*
X148023316Y-98808126D01*
X147958224Y-98650979D01*
X147863724Y-98509551D01*
X147743449Y-98389276D01*
X147602021Y-98294776D01*
X147602020Y-98294775D01*
X147602018Y-98294774D01*
X147444874Y-98229684D01*
X147444870Y-98229682D01*
X147319468Y-98204739D01*
X147278047Y-98196500D01*
X147107953Y-98196500D01*
X147071106Y-98203829D01*
X146941129Y-98229682D01*
X146941125Y-98229684D01*
X146783981Y-98294774D01*
X146642553Y-98389274D01*
X146522274Y-98509553D01*
X146427774Y-98650981D01*
X146362684Y-98808125D01*
X146362682Y-98808129D01*
X146333619Y-98954242D01*
X146329500Y-98974953D01*
X145516500Y-98974953D01*
X145490955Y-98846529D01*
X145483317Y-98808129D01*
X145483316Y-98808127D01*
X145483316Y-98808126D01*
X145418224Y-98650979D01*
X145323724Y-98509551D01*
X145203449Y-98389276D01*
X145062021Y-98294776D01*
X145062020Y-98294775D01*
X145062018Y-98294774D01*
X144904874Y-98229684D01*
X144904870Y-98229682D01*
X144779468Y-98204739D01*
X144738047Y-98196500D01*
X144567953Y-98196500D01*
X144531106Y-98203829D01*
X144401129Y-98229682D01*
X144401125Y-98229684D01*
X144243981Y-98294774D01*
X144102553Y-98389274D01*
X143982274Y-98509553D01*
X143887774Y-98650981D01*
X143822684Y-98808125D01*
X143822682Y-98808129D01*
X143793619Y-98954242D01*
X143789500Y-98974953D01*
X142976500Y-98974953D01*
X142950955Y-98846529D01*
X142943317Y-98808129D01*
X142943316Y-98808127D01*
X142943316Y-98808126D01*
X142878224Y-98650979D01*
X142783724Y-98509551D01*
X142663449Y-98389276D01*
X142522021Y-98294776D01*
X142522020Y-98294775D01*
X142522018Y-98294774D01*
X142364874Y-98229684D01*
X142364870Y-98229682D01*
X142239468Y-98204739D01*
X142198047Y-98196500D01*
X142027953Y-98196500D01*
X141991106Y-98203829D01*
X141861129Y-98229682D01*
X141861125Y-98229684D01*
X141703981Y-98294774D01*
X141562553Y-98389274D01*
X141442274Y-98509553D01*
X141347774Y-98650981D01*
X141282684Y-98808125D01*
X141282682Y-98808129D01*
X141253619Y-98954242D01*
X141249500Y-98974953D01*
X137896500Y-98974953D01*
X137870955Y-98846529D01*
X137863317Y-98808129D01*
X137863316Y-98808127D01*
X137863316Y-98808126D01*
X137798224Y-98650979D01*
X137703724Y-98509551D01*
X137583449Y-98389276D01*
X137442021Y-98294776D01*
X137442020Y-98294775D01*
X137442018Y-98294774D01*
X137284874Y-98229684D01*
X137284870Y-98229682D01*
X137159468Y-98204739D01*
X137118047Y-98196500D01*
X136947953Y-98196500D01*
X136909988Y-98204051D01*
X136794744Y-98226974D01*
X136767700Y-98222811D01*
X136740448Y-98220427D01*
X136737134Y-98218106D01*
X136735316Y-98217827D01*
X136715441Y-98202918D01*
X136601645Y-98089122D01*
X136576234Y-98034628D01*
X136575900Y-98026967D01*
X136575900Y-90913492D01*
X136596465Y-90856991D01*
X136601645Y-90851337D01*
X136608011Y-90844971D01*
X136638111Y-90814871D01*
X136711112Y-90688429D01*
X136748900Y-90547401D01*
X136748900Y-90401399D01*
X136711112Y-90260371D01*
X136638111Y-90133929D01*
X136601645Y-90097463D01*
X136576234Y-90042969D01*
X136575900Y-90035308D01*
X136575900Y-89776860D01*
X136596465Y-89720359D01*
X136648536Y-89690295D01*
X136697436Y-89695650D01*
X136743954Y-89714919D01*
X136781125Y-89730316D01*
X136781129Y-89730317D01*
X136865108Y-89747021D01*
X136947953Y-89763500D01*
X136947955Y-89763500D01*
X137071600Y-89763500D01*
X137128101Y-89784065D01*
X137158165Y-89836136D01*
X137159500Y-89851400D01*
X137159500Y-95681225D01*
X137163693Y-95696872D01*
X137183948Y-95772468D01*
X137185499Y-95778254D01*
X137211936Y-95824044D01*
X137228724Y-95853123D01*
X137240500Y-95897071D01*
X137240500Y-95958001D01*
X137243686Y-95969890D01*
X137278286Y-96099025D01*
X137278287Y-96099028D01*
X137278288Y-96099029D01*
X137351289Y-96225471D01*
X137454529Y-96328711D01*
X137580971Y-96401712D01*
X137580973Y-96401712D01*
X137580974Y-96401713D01*
X137721999Y-96439500D01*
X137868000Y-96439500D01*
X137868001Y-96439500D01*
X138009029Y-96401712D01*
X138135471Y-96328711D01*
X138238711Y-96225471D01*
X138311712Y-96099029D01*
X138349500Y-95958001D01*
X138349500Y-95811999D01*
X138331416Y-95744509D01*
X138311713Y-95670974D01*
X138311712Y-95670973D01*
X138311712Y-95670971D01*
X138238711Y-95544529D01*
X138135471Y-95441289D01*
X138009029Y-95368288D01*
X138009027Y-95368287D01*
X138009025Y-95368286D01*
X137987647Y-95362557D01*
X137938395Y-95328068D01*
X137922500Y-95277653D01*
X137922500Y-89357775D01*
X137896501Y-89260746D01*
X137887722Y-89245541D01*
X137872147Y-89218565D01*
X137861706Y-89159354D01*
X137862481Y-89156111D01*
X137862473Y-89156110D01*
X137863317Y-89151870D01*
X137896500Y-88985047D01*
X137896500Y-88814954D01*
X138709500Y-88814954D01*
X138709500Y-88985045D01*
X138742682Y-89151870D01*
X138742684Y-89151874D01*
X138807774Y-89309018D01*
X138807775Y-89309020D01*
X138807776Y-89309021D01*
X138902276Y-89450449D01*
X139022551Y-89570724D01*
X139163979Y-89665224D01*
X139163980Y-89665224D01*
X139163981Y-89665225D01*
X139191499Y-89676623D01*
X139321126Y-89730316D01*
X139321127Y-89730316D01*
X139321129Y-89730317D01*
X139405108Y-89747021D01*
X139487953Y-89763500D01*
X139487955Y-89763500D01*
X139658045Y-89763500D01*
X139658047Y-89763500D01*
X139768257Y-89741577D01*
X139824870Y-89730317D01*
X139824870Y-89730316D01*
X139824874Y-89730316D01*
X139982021Y-89665224D01*
X140123449Y-89570724D01*
X140243724Y-89450449D01*
X140338224Y-89309021D01*
X140403316Y-89151874D01*
X140436500Y-88985047D01*
X140436500Y-88814954D01*
X141249500Y-88814954D01*
X141249500Y-88985045D01*
X141282682Y-89151870D01*
X141282684Y-89151874D01*
X141347774Y-89309018D01*
X141347775Y-89309020D01*
X141347776Y-89309021D01*
X141442276Y-89450449D01*
X141562551Y-89570724D01*
X141692435Y-89657510D01*
X141727988Y-89705999D01*
X141731500Y-89730596D01*
X141731500Y-93923824D01*
X141757498Y-94020854D01*
X141757499Y-94020856D01*
X141776979Y-94054596D01*
X141776982Y-94054599D01*
X141800724Y-94095723D01*
X141812500Y-94139671D01*
X141812500Y-94200601D01*
X141820964Y-94232190D01*
X141850286Y-94341625D01*
X141850287Y-94341628D01*
X141850288Y-94341629D01*
X141923289Y-94468071D01*
X142026529Y-94571311D01*
X142152971Y-94644312D01*
X142152973Y-94644312D01*
X142152974Y-94644313D01*
X142293999Y-94682100D01*
X142440000Y-94682100D01*
X142440001Y-94682100D01*
X142581029Y-94644312D01*
X142707471Y-94571311D01*
X142810711Y-94468071D01*
X142883712Y-94341629D01*
X142921500Y-94200601D01*
X142921500Y-94054599D01*
X142883712Y-93913571D01*
X142810711Y-93787129D01*
X142803581Y-93779999D01*
X148162500Y-93779999D01*
X148162500Y-93926000D01*
X148200286Y-94067025D01*
X148200287Y-94067028D01*
X148200288Y-94067029D01*
X148223854Y-94107847D01*
X148273290Y-94193472D01*
X148309755Y-94229937D01*
X148335166Y-94284431D01*
X148335500Y-94292092D01*
X148335500Y-96727159D01*
X148314935Y-96783660D01*
X148309755Y-96789314D01*
X148284291Y-96814777D01*
X148211287Y-96941224D01*
X148173501Y-97082249D01*
X148173501Y-97228250D01*
X148211287Y-97369275D01*
X148211288Y-97369278D01*
X148211289Y-97369279D01*
X148284290Y-97495721D01*
X148387530Y-97598961D01*
X148513972Y-97671962D01*
X148513974Y-97671962D01*
X148513975Y-97671963D01*
X148655000Y-97709750D01*
X148801001Y-97709750D01*
X148801002Y-97709750D01*
X148942030Y-97671962D01*
X149068472Y-97598961D01*
X149171712Y-97495721D01*
X149244713Y-97369279D01*
X149267293Y-97285006D01*
X149301780Y-97235753D01*
X149359858Y-97220190D01*
X149414352Y-97245601D01*
X149437103Y-97285006D01*
X149459682Y-97369275D01*
X149459683Y-97369278D01*
X149459684Y-97369279D01*
X149532685Y-97495721D01*
X149635925Y-97598961D01*
X149762367Y-97671962D01*
X149762369Y-97671962D01*
X149762370Y-97671963D01*
X149903395Y-97709750D01*
X149907598Y-97709750D01*
X149964099Y-97730315D01*
X149969753Y-97735495D01*
X150153353Y-97919094D01*
X150153353Y-97919095D01*
X150224380Y-97990123D01*
X150224382Y-97990124D01*
X150224384Y-97990126D01*
X150311377Y-98040351D01*
X150311379Y-98040351D01*
X150311380Y-98040352D01*
X150408406Y-98066350D01*
X151973545Y-98066350D01*
X152030046Y-98086915D01*
X152060110Y-98138986D01*
X152049669Y-98198200D01*
X152007183Y-98235459D01*
X151863981Y-98294774D01*
X151722553Y-98389274D01*
X151602274Y-98509553D01*
X151507774Y-98650981D01*
X151442684Y-98808125D01*
X151442682Y-98808129D01*
X151413619Y-98954242D01*
X151409500Y-98974953D01*
X151409500Y-99145047D01*
X151413460Y-99164956D01*
X151442682Y-99311870D01*
X151442684Y-99311874D01*
X151507774Y-99469018D01*
X151507775Y-99469020D01*
X151507776Y-99469021D01*
X151602276Y-99610449D01*
X151722551Y-99730724D01*
X151863979Y-99825224D01*
X152021126Y-99890316D01*
X152021127Y-99890316D01*
X152021129Y-99890317D01*
X152105108Y-99907021D01*
X152187953Y-99923500D01*
X152187955Y-99923500D01*
X152358045Y-99923500D01*
X152358047Y-99923500D01*
X152468257Y-99901577D01*
X152524870Y-99890317D01*
X152524870Y-99890316D01*
X152524874Y-99890316D01*
X152682021Y-99825224D01*
X152823449Y-99730724D01*
X152943724Y-99610449D01*
X153038224Y-99469021D01*
X153103316Y-99311874D01*
X153136500Y-99145047D01*
X153136500Y-98974953D01*
X153949500Y-98974953D01*
X153949500Y-99145047D01*
X153953460Y-99164956D01*
X153982682Y-99311870D01*
X153982684Y-99311874D01*
X154047774Y-99469018D01*
X154047775Y-99469020D01*
X154047776Y-99469021D01*
X154142276Y-99610449D01*
X154262551Y-99730724D01*
X154403979Y-99825224D01*
X154561126Y-99890316D01*
X154561127Y-99890316D01*
X154561129Y-99890317D01*
X154645108Y-99907021D01*
X154727953Y-99923500D01*
X154727955Y-99923500D01*
X154898045Y-99923500D01*
X154898047Y-99923500D01*
X155008257Y-99901577D01*
X155064870Y-99890317D01*
X155064870Y-99890316D01*
X155064874Y-99890316D01*
X155222021Y-99825224D01*
X155363449Y-99730724D01*
X155483724Y-99610449D01*
X155578224Y-99469021D01*
X155643316Y-99311874D01*
X155676500Y-99145047D01*
X155676500Y-98974953D01*
X155650955Y-98846529D01*
X155643317Y-98808129D01*
X155643316Y-98808127D01*
X155643316Y-98808126D01*
X155578224Y-98650979D01*
X155483724Y-98509551D01*
X155363449Y-98389276D01*
X155222021Y-98294776D01*
X155222020Y-98294775D01*
X155222018Y-98294774D01*
X155064874Y-98229684D01*
X155064870Y-98229682D01*
X154939468Y-98204739D01*
X154898047Y-98196500D01*
X154727953Y-98196500D01*
X154691106Y-98203829D01*
X154561129Y-98229682D01*
X154561125Y-98229684D01*
X154403981Y-98294774D01*
X154262553Y-98389274D01*
X154142274Y-98509553D01*
X154047774Y-98650981D01*
X153982684Y-98808125D01*
X153982682Y-98808129D01*
X153953619Y-98954242D01*
X153949500Y-98974953D01*
X153136500Y-98974953D01*
X153110955Y-98846529D01*
X153103317Y-98808129D01*
X153103316Y-98808127D01*
X153103316Y-98808126D01*
X153038224Y-98650979D01*
X152943724Y-98509551D01*
X152823449Y-98389276D01*
X152682021Y-98294776D01*
X152682020Y-98294775D01*
X152682018Y-98294774D01*
X152538817Y-98235459D01*
X152494487Y-98194838D01*
X152486639Y-98135225D01*
X152518945Y-98084514D01*
X152572455Y-98066350D01*
X153464974Y-98066350D01*
X153464975Y-98066350D01*
X153562004Y-98040351D01*
X153648997Y-97990126D01*
X153720026Y-97919097D01*
X154645278Y-96993845D01*
X154699772Y-96968434D01*
X154707433Y-96968100D01*
X154759000Y-96968100D01*
X154759001Y-96968100D01*
X154900029Y-96930312D01*
X155026471Y-96857311D01*
X155129711Y-96754071D01*
X155202712Y-96627629D01*
X155240500Y-96486601D01*
X155240500Y-96340599D01*
X155220738Y-96266847D01*
X155202713Y-96199574D01*
X155202712Y-96199573D01*
X155202712Y-96199571D01*
X155129711Y-96073129D01*
X155026471Y-95969889D01*
X154900029Y-95896888D01*
X154900028Y-95896887D01*
X154900025Y-95896886D01*
X154759001Y-95859100D01*
X154612999Y-95859100D01*
X154471974Y-95896886D01*
X154345527Y-95969890D01*
X154242290Y-96073127D01*
X154169286Y-96199574D01*
X154131500Y-96340599D01*
X154131500Y-96392167D01*
X154110935Y-96448668D01*
X154105755Y-96454322D01*
X153282472Y-97277605D01*
X153227978Y-97303016D01*
X153220317Y-97303350D01*
X151320399Y-97303350D01*
X151298941Y-97295540D01*
X151276449Y-97291574D01*
X151271350Y-97285497D01*
X151263898Y-97282785D01*
X151252479Y-97263008D01*
X151237800Y-97245514D01*
X151235786Y-97234096D01*
X151233834Y-97230714D01*
X151232499Y-97215450D01*
X151232499Y-97176683D01*
X151253064Y-97120182D01*
X151258244Y-97114528D01*
X151378927Y-96993845D01*
X151501879Y-96870893D01*
X151552105Y-96783899D01*
X151578104Y-96686871D01*
X151578104Y-96586421D01*
X151578104Y-96581040D01*
X151578103Y-96581022D01*
X151578103Y-95917522D01*
X151598668Y-95861021D01*
X151643253Y-95832617D01*
X151699629Y-95817512D01*
X151826071Y-95744511D01*
X151929311Y-95641271D01*
X152002312Y-95514829D01*
X152040100Y-95373801D01*
X152040100Y-95227799D01*
X152002312Y-95086771D01*
X151929311Y-94960329D01*
X151826071Y-94857089D01*
X151699629Y-94784088D01*
X151699628Y-94784087D01*
X151699625Y-94784086D01*
X151558601Y-94746300D01*
X151412599Y-94746300D01*
X151271572Y-94784087D01*
X151181352Y-94836175D01*
X151166090Y-94838865D01*
X151152667Y-94846616D01*
X151137400Y-94843924D01*
X151122138Y-94846615D01*
X151108717Y-94838866D01*
X151093453Y-94836175D01*
X151083489Y-94824300D01*
X151070067Y-94816551D01*
X151064766Y-94801987D01*
X151054804Y-94790115D01*
X151049503Y-94760051D01*
X151049503Y-94658115D01*
X151052498Y-94635364D01*
X151059503Y-94609222D01*
X151059503Y-94503392D01*
X151059502Y-94503374D01*
X151059502Y-92255999D01*
X156925500Y-92255999D01*
X156925500Y-92402001D01*
X156928583Y-92413506D01*
X156963286Y-92543025D01*
X156963287Y-92543028D01*
X156963288Y-92543029D01*
X157036289Y-92669471D01*
X157139529Y-92772711D01*
X157265971Y-92845712D01*
X157265973Y-92845712D01*
X157265974Y-92845713D01*
X157406999Y-92883500D01*
X157518600Y-92883500D01*
X157575101Y-92904065D01*
X157605165Y-92956136D01*
X157606500Y-92971400D01*
X157606500Y-96969908D01*
X157585935Y-97026409D01*
X157580755Y-97032063D01*
X157544290Y-97068527D01*
X157471286Y-97194974D01*
X157442248Y-97303350D01*
X157433500Y-97335999D01*
X157433500Y-97482001D01*
X157437956Y-97498631D01*
X157471286Y-97623025D01*
X157471287Y-97623028D01*
X157471288Y-97623029D01*
X157544289Y-97749471D01*
X157647529Y-97852711D01*
X157773971Y-97925712D01*
X157773973Y-97925712D01*
X157773974Y-97925713D01*
X157914999Y-97963500D01*
X158061000Y-97963500D01*
X158061001Y-97963500D01*
X158202029Y-97925712D01*
X158328471Y-97852711D01*
X158431711Y-97749471D01*
X158504712Y-97623029D01*
X158542500Y-97482001D01*
X158542500Y-97335999D01*
X158531659Y-97295540D01*
X158504713Y-97194974D01*
X158504712Y-97194973D01*
X158504712Y-97194971D01*
X158431711Y-97068529D01*
X158395245Y-97032063D01*
X158369834Y-96977569D01*
X158369500Y-96969908D01*
X158369500Y-96340599D01*
X161497500Y-96340599D01*
X161497500Y-96486600D01*
X161535286Y-96627625D01*
X161535287Y-96627628D01*
X161535288Y-96627629D01*
X161608289Y-96754071D01*
X161711529Y-96857311D01*
X161837971Y-96930312D01*
X161837973Y-96930312D01*
X161837974Y-96930313D01*
X161978999Y-96968100D01*
X162125000Y-96968100D01*
X162125001Y-96968100D01*
X162266029Y-96930312D01*
X162392471Y-96857311D01*
X162495711Y-96754071D01*
X162568712Y-96627629D01*
X162606500Y-96486601D01*
X162606500Y-96435032D01*
X162613063Y-96416999D01*
X162614736Y-96397884D01*
X162625742Y-96382163D01*
X162627065Y-96378531D01*
X162632245Y-96372877D01*
X162667245Y-96337877D01*
X162667247Y-96337876D01*
X162738276Y-96266847D01*
X162788501Y-96179854D01*
X162814500Y-96082825D01*
X162814500Y-89730596D01*
X162835065Y-89674095D01*
X162853562Y-89657511D01*
X162983449Y-89570724D01*
X163103724Y-89450449D01*
X163198224Y-89309021D01*
X163263316Y-89151874D01*
X163296500Y-88985047D01*
X163296500Y-88814954D01*
X164109500Y-88814954D01*
X164109500Y-88985045D01*
X164142682Y-89151870D01*
X164142684Y-89151874D01*
X164207774Y-89309018D01*
X164207775Y-89309020D01*
X164207776Y-89309021D01*
X164302276Y-89450449D01*
X164422551Y-89570724D01*
X164552435Y-89657510D01*
X164587988Y-89705999D01*
X164591500Y-89730596D01*
X164591500Y-90147472D01*
X164570935Y-90203973D01*
X164547550Y-90223596D01*
X164529029Y-90234288D01*
X164529028Y-90234289D01*
X164425791Y-90337525D01*
X164352786Y-90463974D01*
X164315000Y-90604999D01*
X164315000Y-90751000D01*
X164352786Y-90892025D01*
X164352787Y-90892028D01*
X164352788Y-90892029D01*
X164425789Y-91018471D01*
X164529029Y-91121711D01*
X164655471Y-91194712D01*
X164655473Y-91194712D01*
X164655474Y-91194713D01*
X164796499Y-91232500D01*
X164942500Y-91232500D01*
X164942501Y-91232500D01*
X165083529Y-91194712D01*
X165209971Y-91121711D01*
X165313211Y-91018471D01*
X165386212Y-90892029D01*
X165424000Y-90751001D01*
X165424000Y-90604999D01*
X165394002Y-90493043D01*
X165386212Y-90463970D01*
X165386210Y-90463967D01*
X165366276Y-90429439D01*
X165354500Y-90385490D01*
X165354500Y-89730596D01*
X165375065Y-89674095D01*
X165393562Y-89657511D01*
X165523449Y-89570724D01*
X165643724Y-89450449D01*
X165738224Y-89309021D01*
X165803316Y-89151874D01*
X165836500Y-88985047D01*
X165836500Y-88814953D01*
X165825538Y-88759847D01*
X165803317Y-88648129D01*
X165803316Y-88648127D01*
X165803316Y-88648126D01*
X165738224Y-88490979D01*
X165643724Y-88349551D01*
X165523449Y-88229276D01*
X165382021Y-88134776D01*
X165382020Y-88134775D01*
X165382018Y-88134774D01*
X165224874Y-88069684D01*
X165224870Y-88069682D01*
X165099468Y-88044739D01*
X165058047Y-88036500D01*
X164887953Y-88036500D01*
X164851106Y-88043829D01*
X164721129Y-88069682D01*
X164721125Y-88069684D01*
X164563981Y-88134774D01*
X164422553Y-88229274D01*
X164302274Y-88349553D01*
X164207774Y-88490981D01*
X164142684Y-88648125D01*
X164142682Y-88648129D01*
X164109500Y-88814954D01*
X163296500Y-88814954D01*
X163296500Y-88814953D01*
X163285538Y-88759847D01*
X163263317Y-88648129D01*
X163263316Y-88648127D01*
X163263316Y-88648126D01*
X163198224Y-88490979D01*
X163103724Y-88349551D01*
X162983449Y-88229276D01*
X162842021Y-88134776D01*
X162842020Y-88134775D01*
X162842018Y-88134774D01*
X162684874Y-88069684D01*
X162684870Y-88069682D01*
X162559468Y-88044739D01*
X162518047Y-88036500D01*
X162347953Y-88036500D01*
X162311106Y-88043829D01*
X162181129Y-88069682D01*
X162181125Y-88069684D01*
X162023981Y-88134774D01*
X161882553Y-88229274D01*
X161762274Y-88349553D01*
X161667774Y-88490981D01*
X161602684Y-88648125D01*
X161602682Y-88648129D01*
X161569500Y-88814954D01*
X161569500Y-88985045D01*
X161602682Y-89151870D01*
X161602684Y-89151874D01*
X161667774Y-89309018D01*
X161667775Y-89309020D01*
X161667776Y-89309021D01*
X161762276Y-89450449D01*
X161882551Y-89570724D01*
X162012435Y-89657510D01*
X162047988Y-89705999D01*
X162051500Y-89730596D01*
X162051500Y-95772468D01*
X162030935Y-95828969D01*
X161984130Y-95855992D01*
X161984564Y-95857609D01*
X161837974Y-95896886D01*
X161711527Y-95969890D01*
X161608290Y-96073127D01*
X161535286Y-96199574D01*
X161497500Y-96340599D01*
X158369500Y-96340599D01*
X158369500Y-92659775D01*
X158343502Y-92562749D01*
X158343501Y-92562748D01*
X158343501Y-92562746D01*
X158293276Y-92475753D01*
X158222247Y-92404724D01*
X158222245Y-92404722D01*
X158036870Y-92219347D01*
X158014120Y-92179941D01*
X157996713Y-92114975D01*
X157996712Y-92114971D01*
X157923711Y-91988529D01*
X157820471Y-91885289D01*
X157694029Y-91812288D01*
X157694028Y-91812287D01*
X157694025Y-91812286D01*
X157553001Y-91774500D01*
X157406999Y-91774500D01*
X157265974Y-91812286D01*
X157139527Y-91885290D01*
X157036290Y-91988527D01*
X156963286Y-92114974D01*
X156932867Y-92228503D01*
X156925500Y-92255999D01*
X151059502Y-92255999D01*
X151059502Y-91688842D01*
X151080067Y-91632341D01*
X151085247Y-91626687D01*
X151100179Y-91611755D01*
X151121713Y-91590221D01*
X151194714Y-91463779D01*
X151232502Y-91322751D01*
X151232502Y-91176749D01*
X151209852Y-91092218D01*
X151194715Y-91035724D01*
X151194714Y-91035723D01*
X151194714Y-91035721D01*
X151121713Y-90909279D01*
X151018473Y-90806039D01*
X150892031Y-90733038D01*
X150892030Y-90733037D01*
X150892027Y-90733036D01*
X150751003Y-90695250D01*
X150605001Y-90695250D01*
X150463976Y-90733036D01*
X150337529Y-90806040D01*
X150234292Y-90909277D01*
X150161288Y-91035724D01*
X150123502Y-91176749D01*
X150123502Y-91322750D01*
X150161288Y-91463775D01*
X150161289Y-91463778D01*
X150161290Y-91463779D01*
X150225914Y-91575712D01*
X150234292Y-91590222D01*
X150270757Y-91626687D01*
X150296168Y-91681181D01*
X150296502Y-91688842D01*
X150296502Y-94469882D01*
X150293507Y-94492631D01*
X150286503Y-94518770D01*
X150286503Y-94917308D01*
X150265938Y-94973809D01*
X150260758Y-94979463D01*
X150224293Y-95015927D01*
X150151289Y-95142374D01*
X150115043Y-95277653D01*
X150113503Y-95283399D01*
X150113503Y-95429401D01*
X150116689Y-95441290D01*
X150151289Y-95570425D01*
X150151290Y-95570428D01*
X150151291Y-95570429D01*
X150224292Y-95696871D01*
X150327532Y-95800111D01*
X150453974Y-95873112D01*
X150453976Y-95873112D01*
X150453977Y-95873113D01*
X150595002Y-95910900D01*
X150727203Y-95910900D01*
X150783704Y-95931465D01*
X150813768Y-95983536D01*
X150815103Y-95998800D01*
X150815103Y-96442213D01*
X150808539Y-96460245D01*
X150806867Y-96479361D01*
X150795860Y-96495081D01*
X150794538Y-96498714D01*
X150789358Y-96504368D01*
X150718721Y-96575005D01*
X150664227Y-96600416D01*
X150656566Y-96600750D01*
X150604998Y-96600750D01*
X150463971Y-96638537D01*
X150371146Y-96692129D01*
X150311932Y-96702569D01*
X150283249Y-96692129D01*
X150190425Y-96638538D01*
X150190424Y-96638537D01*
X150190421Y-96638536D01*
X150049397Y-96600750D01*
X149903395Y-96600750D01*
X149762370Y-96638536D01*
X149635923Y-96711540D01*
X149532686Y-96814777D01*
X149459682Y-96941224D01*
X149437103Y-97025493D01*
X149402615Y-97074747D01*
X149344537Y-97090308D01*
X149290043Y-97064898D01*
X149267293Y-97025493D01*
X149244713Y-96941221D01*
X149171712Y-96814779D01*
X149124245Y-96767312D01*
X149098834Y-96712818D01*
X149098500Y-96705157D01*
X149098500Y-94292092D01*
X149119065Y-94235591D01*
X149124245Y-94229937D01*
X149160711Y-94193471D01*
X149233712Y-94067029D01*
X149271500Y-93926001D01*
X149271500Y-93779999D01*
X149233712Y-93638971D01*
X149160711Y-93512529D01*
X149057471Y-93409289D01*
X148931029Y-93336288D01*
X148931028Y-93336287D01*
X148931025Y-93336286D01*
X148790001Y-93298500D01*
X148643999Y-93298500D01*
X148502974Y-93336286D01*
X148376527Y-93409290D01*
X148273290Y-93512527D01*
X148200286Y-93638974D01*
X148162500Y-93779999D01*
X142803581Y-93779999D01*
X142707471Y-93683889D01*
X142581029Y-93610888D01*
X142581027Y-93610887D01*
X142581025Y-93610886D01*
X142559647Y-93605157D01*
X142510395Y-93570668D01*
X142494500Y-93520253D01*
X142494500Y-89730596D01*
X142515065Y-89674095D01*
X142533562Y-89657511D01*
X142663449Y-89570724D01*
X142783724Y-89450449D01*
X142878224Y-89309021D01*
X142943316Y-89151874D01*
X142976500Y-88985047D01*
X142976500Y-88814954D01*
X143789500Y-88814954D01*
X143789500Y-88985045D01*
X143822682Y-89151870D01*
X143822684Y-89151874D01*
X143887774Y-89309018D01*
X143887775Y-89309020D01*
X143887776Y-89309021D01*
X143982276Y-89450449D01*
X144102551Y-89570724D01*
X144243979Y-89665224D01*
X144243980Y-89665224D01*
X144243981Y-89665225D01*
X144271499Y-89676623D01*
X144401126Y-89730316D01*
X144401127Y-89730316D01*
X144401129Y-89730317D01*
X144485108Y-89747021D01*
X144567953Y-89763500D01*
X144567955Y-89763500D01*
X144738045Y-89763500D01*
X144738047Y-89763500D01*
X144848257Y-89741577D01*
X144904870Y-89730317D01*
X144904870Y-89730316D01*
X144904874Y-89730316D01*
X145062021Y-89665224D01*
X145203449Y-89570724D01*
X145323724Y-89450449D01*
X145418224Y-89309021D01*
X145483316Y-89151874D01*
X145516500Y-88985047D01*
X145516500Y-88814954D01*
X146329500Y-88814954D01*
X146329500Y-88985045D01*
X146362682Y-89151870D01*
X146362684Y-89151874D01*
X146427774Y-89309018D01*
X146427775Y-89309020D01*
X146427776Y-89309021D01*
X146522276Y-89450449D01*
X146642551Y-89570724D01*
X146783979Y-89665224D01*
X146783980Y-89665224D01*
X146783981Y-89665225D01*
X146811499Y-89676623D01*
X146941126Y-89730316D01*
X146941127Y-89730316D01*
X146941129Y-89730317D01*
X147025108Y-89747021D01*
X147107953Y-89763500D01*
X147107955Y-89763500D01*
X147278045Y-89763500D01*
X147278047Y-89763500D01*
X147388257Y-89741577D01*
X147444870Y-89730317D01*
X147444870Y-89730316D01*
X147444874Y-89730316D01*
X147602021Y-89665224D01*
X147743449Y-89570724D01*
X147863724Y-89450449D01*
X147958224Y-89309021D01*
X148023316Y-89151874D01*
X148056500Y-88985047D01*
X148056500Y-88814954D01*
X148869500Y-88814954D01*
X148869500Y-88985045D01*
X148902682Y-89151870D01*
X148902684Y-89151874D01*
X148967774Y-89309018D01*
X148967775Y-89309020D01*
X148967776Y-89309021D01*
X149062276Y-89450449D01*
X149182551Y-89570724D01*
X149323979Y-89665224D01*
X149323980Y-89665224D01*
X149323981Y-89665225D01*
X149351499Y-89676623D01*
X149481126Y-89730316D01*
X149481127Y-89730316D01*
X149481129Y-89730317D01*
X149565108Y-89747021D01*
X149647953Y-89763500D01*
X149647955Y-89763500D01*
X149818045Y-89763500D01*
X149818047Y-89763500D01*
X149928257Y-89741577D01*
X149984870Y-89730317D01*
X149984870Y-89730316D01*
X149984874Y-89730316D01*
X150142021Y-89665224D01*
X150283449Y-89570724D01*
X150403724Y-89450449D01*
X150498224Y-89309021D01*
X150563316Y-89151874D01*
X150596500Y-88985047D01*
X150596500Y-88814954D01*
X151409500Y-88814954D01*
X151409500Y-88985045D01*
X151442682Y-89151870D01*
X151442684Y-89151874D01*
X151507774Y-89309018D01*
X151507775Y-89309020D01*
X151507776Y-89309021D01*
X151602276Y-89450449D01*
X151722551Y-89570724D01*
X151863979Y-89665224D01*
X151863980Y-89665224D01*
X151863981Y-89665225D01*
X151891499Y-89676623D01*
X152021126Y-89730316D01*
X152021127Y-89730316D01*
X152021129Y-89730317D01*
X152105108Y-89747021D01*
X152187953Y-89763500D01*
X152187955Y-89763500D01*
X152358045Y-89763500D01*
X152358047Y-89763500D01*
X152468257Y-89741577D01*
X152524870Y-89730317D01*
X152524870Y-89730316D01*
X152524874Y-89730316D01*
X152682021Y-89665224D01*
X152823449Y-89570724D01*
X152943724Y-89450449D01*
X153038224Y-89309021D01*
X153103316Y-89151874D01*
X153136500Y-88985047D01*
X153136500Y-88814954D01*
X153949500Y-88814954D01*
X153949500Y-88985045D01*
X153982682Y-89151870D01*
X153982684Y-89151874D01*
X154047774Y-89309018D01*
X154047775Y-89309020D01*
X154047776Y-89309021D01*
X154142276Y-89450449D01*
X154262551Y-89570724D01*
X154403979Y-89665224D01*
X154403980Y-89665224D01*
X154403981Y-89665225D01*
X154431499Y-89676623D01*
X154561126Y-89730316D01*
X154561127Y-89730316D01*
X154561129Y-89730317D01*
X154645108Y-89747021D01*
X154727953Y-89763500D01*
X154727955Y-89763500D01*
X154898045Y-89763500D01*
X154898047Y-89763500D01*
X155008257Y-89741577D01*
X155064870Y-89730317D01*
X155064870Y-89730316D01*
X155064874Y-89730316D01*
X155222021Y-89665224D01*
X155363449Y-89570724D01*
X155483724Y-89450449D01*
X155578224Y-89309021D01*
X155643316Y-89151874D01*
X155676500Y-88985047D01*
X155676500Y-88814954D01*
X156489500Y-88814954D01*
X156489500Y-88985045D01*
X156522682Y-89151870D01*
X156522684Y-89151874D01*
X156587774Y-89309018D01*
X156587775Y-89309020D01*
X156587776Y-89309021D01*
X156682276Y-89450449D01*
X156802551Y-89570724D01*
X156943979Y-89665224D01*
X156943980Y-89665224D01*
X156943981Y-89665225D01*
X156971499Y-89676623D01*
X157101126Y-89730316D01*
X157101127Y-89730316D01*
X157101129Y-89730317D01*
X157185108Y-89747021D01*
X157267953Y-89763500D01*
X157267955Y-89763500D01*
X157438045Y-89763500D01*
X157438047Y-89763500D01*
X157548257Y-89741577D01*
X157604870Y-89730317D01*
X157604870Y-89730316D01*
X157604874Y-89730316D01*
X157762021Y-89665224D01*
X157903449Y-89570724D01*
X158023724Y-89450449D01*
X158118224Y-89309021D01*
X158183316Y-89151874D01*
X158216500Y-88985047D01*
X158216500Y-88814954D01*
X159029500Y-88814954D01*
X159029500Y-88985045D01*
X159062682Y-89151870D01*
X159062684Y-89151874D01*
X159127774Y-89309018D01*
X159127775Y-89309020D01*
X159127776Y-89309021D01*
X159222276Y-89450449D01*
X159342551Y-89570724D01*
X159472435Y-89657510D01*
X159507988Y-89705999D01*
X159511500Y-89730596D01*
X159511500Y-89991604D01*
X159490935Y-90048105D01*
X159467551Y-90067727D01*
X159399028Y-90107289D01*
X159295790Y-90210527D01*
X159222786Y-90336974D01*
X159185000Y-90477999D01*
X159185000Y-90624000D01*
X159222786Y-90765025D01*
X159222787Y-90765028D01*
X159222788Y-90765029D01*
X159295789Y-90891471D01*
X159399029Y-90994711D01*
X159525471Y-91067712D01*
X159525473Y-91067712D01*
X159525474Y-91067713D01*
X159666499Y-91105500D01*
X159812500Y-91105500D01*
X159812501Y-91105500D01*
X159953529Y-91067712D01*
X160079971Y-90994711D01*
X160183211Y-90891471D01*
X160256212Y-90765029D01*
X160294000Y-90624001D01*
X160294000Y-90477999D01*
X160277496Y-90416404D01*
X160274501Y-90393656D01*
X160274501Y-90378490D01*
X160274501Y-90347275D01*
X160274500Y-90347271D01*
X160274500Y-89730596D01*
X160295065Y-89674095D01*
X160313562Y-89657511D01*
X160443449Y-89570724D01*
X160563724Y-89450449D01*
X160658224Y-89309021D01*
X160723316Y-89151874D01*
X160756500Y-88985047D01*
X160756500Y-88814953D01*
X160745538Y-88759847D01*
X160723317Y-88648129D01*
X160723316Y-88648127D01*
X160723316Y-88648126D01*
X160658224Y-88490979D01*
X160563724Y-88349551D01*
X160443449Y-88229276D01*
X160302021Y-88134776D01*
X160302020Y-88134775D01*
X160302018Y-88134774D01*
X160144874Y-88069684D01*
X160144870Y-88069682D01*
X160019468Y-88044739D01*
X159978047Y-88036500D01*
X159807953Y-88036500D01*
X159771106Y-88043829D01*
X159641129Y-88069682D01*
X159641125Y-88069684D01*
X159483981Y-88134774D01*
X159342553Y-88229274D01*
X159222274Y-88349553D01*
X159127774Y-88490981D01*
X159062684Y-88648125D01*
X159062682Y-88648129D01*
X159029500Y-88814954D01*
X158216500Y-88814954D01*
X158216500Y-88814953D01*
X158205538Y-88759847D01*
X158183317Y-88648129D01*
X158183316Y-88648127D01*
X158183316Y-88648126D01*
X158118224Y-88490979D01*
X158023724Y-88349551D01*
X157903449Y-88229276D01*
X157762021Y-88134776D01*
X157762020Y-88134775D01*
X157762018Y-88134774D01*
X157604874Y-88069684D01*
X157604870Y-88069682D01*
X157479468Y-88044739D01*
X157438047Y-88036500D01*
X157267953Y-88036500D01*
X157231106Y-88043829D01*
X157101129Y-88069682D01*
X157101125Y-88069684D01*
X156943981Y-88134774D01*
X156802553Y-88229274D01*
X156682274Y-88349553D01*
X156587774Y-88490981D01*
X156522684Y-88648125D01*
X156522682Y-88648129D01*
X156489500Y-88814954D01*
X155676500Y-88814954D01*
X155676500Y-88814953D01*
X155665538Y-88759847D01*
X155643317Y-88648129D01*
X155643316Y-88648127D01*
X155643316Y-88648126D01*
X155578224Y-88490979D01*
X155483724Y-88349551D01*
X155363449Y-88229276D01*
X155222021Y-88134776D01*
X155222020Y-88134775D01*
X155222018Y-88134774D01*
X155064874Y-88069684D01*
X155064870Y-88069682D01*
X154939468Y-88044739D01*
X154898047Y-88036500D01*
X154727953Y-88036500D01*
X154691106Y-88043829D01*
X154561129Y-88069682D01*
X154561125Y-88069684D01*
X154403981Y-88134774D01*
X154262553Y-88229274D01*
X154142274Y-88349553D01*
X154047774Y-88490981D01*
X153982684Y-88648125D01*
X153982682Y-88648129D01*
X153949500Y-88814954D01*
X153136500Y-88814954D01*
X153136500Y-88814953D01*
X153125538Y-88759847D01*
X153103317Y-88648129D01*
X153103316Y-88648127D01*
X153103316Y-88648126D01*
X153038224Y-88490979D01*
X152943724Y-88349551D01*
X152823449Y-88229276D01*
X152682021Y-88134776D01*
X152682020Y-88134775D01*
X152682018Y-88134774D01*
X152524874Y-88069684D01*
X152524870Y-88069682D01*
X152399468Y-88044739D01*
X152358047Y-88036500D01*
X152187953Y-88036500D01*
X152151106Y-88043829D01*
X152021129Y-88069682D01*
X152021125Y-88069684D01*
X151863981Y-88134774D01*
X151722553Y-88229274D01*
X151602274Y-88349553D01*
X151507774Y-88490981D01*
X151442684Y-88648125D01*
X151442682Y-88648129D01*
X151409500Y-88814954D01*
X150596500Y-88814954D01*
X150596500Y-88814953D01*
X150585538Y-88759847D01*
X150563317Y-88648129D01*
X150563316Y-88648127D01*
X150563316Y-88648126D01*
X150498224Y-88490979D01*
X150403724Y-88349551D01*
X150283449Y-88229276D01*
X150142021Y-88134776D01*
X150142020Y-88134775D01*
X150142018Y-88134774D01*
X149984874Y-88069684D01*
X149984870Y-88069682D01*
X149859468Y-88044739D01*
X149818047Y-88036500D01*
X149647953Y-88036500D01*
X149611106Y-88043829D01*
X149481129Y-88069682D01*
X149481125Y-88069684D01*
X149323981Y-88134774D01*
X149182553Y-88229274D01*
X149062274Y-88349553D01*
X148967774Y-88490981D01*
X148902684Y-88648125D01*
X148902682Y-88648129D01*
X148869500Y-88814954D01*
X148056500Y-88814954D01*
X148056500Y-88814953D01*
X148045538Y-88759847D01*
X148023317Y-88648129D01*
X148023316Y-88648127D01*
X148023316Y-88648126D01*
X147958224Y-88490979D01*
X147863724Y-88349551D01*
X147743449Y-88229276D01*
X147602021Y-88134776D01*
X147602020Y-88134775D01*
X147602018Y-88134774D01*
X147444874Y-88069684D01*
X147444870Y-88069682D01*
X147319468Y-88044739D01*
X147278047Y-88036500D01*
X147107953Y-88036500D01*
X147071106Y-88043829D01*
X146941129Y-88069682D01*
X146941125Y-88069684D01*
X146783981Y-88134774D01*
X146642553Y-88229274D01*
X146522274Y-88349553D01*
X146427774Y-88490981D01*
X146362684Y-88648125D01*
X146362682Y-88648129D01*
X146329500Y-88814954D01*
X145516500Y-88814954D01*
X145516500Y-88814953D01*
X145505538Y-88759847D01*
X145483317Y-88648129D01*
X145483316Y-88648127D01*
X145483316Y-88648126D01*
X145418224Y-88490979D01*
X145323724Y-88349551D01*
X145203449Y-88229276D01*
X145062021Y-88134776D01*
X145062020Y-88134775D01*
X145062018Y-88134774D01*
X144904874Y-88069684D01*
X144904870Y-88069682D01*
X144779468Y-88044739D01*
X144738047Y-88036500D01*
X144567953Y-88036500D01*
X144531106Y-88043829D01*
X144401129Y-88069682D01*
X144401125Y-88069684D01*
X144243981Y-88134774D01*
X144102553Y-88229274D01*
X143982274Y-88349553D01*
X143887774Y-88490981D01*
X143822684Y-88648125D01*
X143822682Y-88648129D01*
X143789500Y-88814954D01*
X142976500Y-88814954D01*
X142976500Y-88814953D01*
X142965538Y-88759847D01*
X142943317Y-88648129D01*
X142943316Y-88648127D01*
X142943316Y-88648126D01*
X142878224Y-88490979D01*
X142783724Y-88349551D01*
X142663449Y-88229276D01*
X142522021Y-88134776D01*
X142522020Y-88134775D01*
X142522018Y-88134774D01*
X142364874Y-88069684D01*
X142364870Y-88069682D01*
X142239468Y-88044739D01*
X142198047Y-88036500D01*
X142027953Y-88036500D01*
X141991106Y-88043829D01*
X141861129Y-88069682D01*
X141861125Y-88069684D01*
X141703981Y-88134774D01*
X141562553Y-88229274D01*
X141442274Y-88349553D01*
X141347774Y-88490981D01*
X141282684Y-88648125D01*
X141282682Y-88648129D01*
X141249500Y-88814954D01*
X140436500Y-88814954D01*
X140436500Y-88814953D01*
X140425538Y-88759847D01*
X140403317Y-88648129D01*
X140403316Y-88648127D01*
X140403316Y-88648126D01*
X140338224Y-88490979D01*
X140243724Y-88349551D01*
X140123449Y-88229276D01*
X139982021Y-88134776D01*
X139982020Y-88134775D01*
X139982018Y-88134774D01*
X139824874Y-88069684D01*
X139824870Y-88069682D01*
X139699468Y-88044739D01*
X139658047Y-88036500D01*
X139487953Y-88036500D01*
X139451106Y-88043829D01*
X139321129Y-88069682D01*
X139321125Y-88069684D01*
X139163981Y-88134774D01*
X139022553Y-88229274D01*
X138902274Y-88349553D01*
X138807774Y-88490981D01*
X138742684Y-88648125D01*
X138742682Y-88648129D01*
X138709500Y-88814954D01*
X137896500Y-88814954D01*
X137896500Y-88814953D01*
X137885538Y-88759847D01*
X137863317Y-88648129D01*
X137863316Y-88648127D01*
X137863316Y-88648126D01*
X137798224Y-88490979D01*
X137703724Y-88349551D01*
X137583449Y-88229276D01*
X137442021Y-88134776D01*
X137442020Y-88134775D01*
X137442018Y-88134774D01*
X137284874Y-88069684D01*
X137284870Y-88069682D01*
X137159468Y-88044739D01*
X137118047Y-88036500D01*
X136947953Y-88036500D01*
X136901938Y-88045652D01*
X136842510Y-88036504D01*
X136802867Y-87991298D01*
X136801556Y-87931185D01*
X136822634Y-87897288D01*
X140056076Y-84663847D01*
X140088026Y-84608507D01*
X140106301Y-84576854D01*
X140132300Y-84479825D01*
X140132300Y-83269592D01*
X140152865Y-83213091D01*
X140158045Y-83207437D01*
X140194511Y-83170971D01*
X140267512Y-83044529D01*
X140305300Y-82903501D01*
X140305300Y-82757499D01*
X140267512Y-82616471D01*
X140194511Y-82490029D01*
X140091271Y-82386789D01*
X139964829Y-82313788D01*
X139964828Y-82313787D01*
X139964825Y-82313786D01*
X139823801Y-82276000D01*
X139677799Y-82276000D01*
X139536774Y-82313786D01*
X139410327Y-82386790D01*
X139373863Y-82423255D01*
X139319369Y-82448666D01*
X139311708Y-82449000D01*
X136727675Y-82449000D01*
X136630649Y-82474997D01*
X136543651Y-82525225D01*
X136472625Y-82596251D01*
X136422397Y-82683249D01*
X136396400Y-82780275D01*
X136396400Y-82880724D01*
X136422397Y-82977750D01*
X136422398Y-82977753D01*
X136422399Y-82977754D01*
X136472624Y-83064747D01*
X136543653Y-83135776D01*
X136630646Y-83186001D01*
X136630648Y-83186001D01*
X136630649Y-83186002D01*
X136727675Y-83212000D01*
X139281400Y-83212000D01*
X139337901Y-83232565D01*
X139367965Y-83284636D01*
X139369300Y-83299900D01*
X139369300Y-84235167D01*
X139348735Y-84291668D01*
X139343555Y-84297322D01*
X135889125Y-87751751D01*
X135838897Y-87838749D01*
X135812900Y-87935775D01*
X135812900Y-90035308D01*
X135792335Y-90091809D01*
X135787155Y-90097463D01*
X135750690Y-90133927D01*
X135677686Y-90260374D01*
X135639900Y-90401399D01*
X130784386Y-90401399D01*
X130788943Y-90378490D01*
X130795153Y-90347271D01*
X130810500Y-90270116D01*
X130810500Y-90069884D01*
X130787483Y-89954171D01*
X130771438Y-89873506D01*
X130771437Y-89873503D01*
X130771436Y-89873498D01*
X130694810Y-89688507D01*
X130616111Y-89570725D01*
X130583570Y-89522023D01*
X130583569Y-89522022D01*
X130583567Y-89522019D01*
X130441981Y-89380433D01*
X130441977Y-89380430D01*
X130441976Y-89380429D01*
X130275496Y-89269192D01*
X130275495Y-89269191D01*
X130275493Y-89269190D01*
X130090502Y-89192564D01*
X130090498Y-89192563D01*
X130090493Y-89192561D01*
X129942711Y-89163166D01*
X129894116Y-89153500D01*
X129693884Y-89153500D01*
X129650639Y-89162101D01*
X129497506Y-89192561D01*
X129497501Y-89192563D01*
X129497499Y-89192563D01*
X129497498Y-89192564D01*
X129413403Y-89227397D01*
X129308518Y-89270842D01*
X129307983Y-89269551D01*
X129253706Y-89277296D01*
X129202648Y-89245541D01*
X129183900Y-89191279D01*
X129183900Y-88608719D01*
X129204465Y-88552218D01*
X129256536Y-88522154D01*
X129308015Y-88530370D01*
X129308518Y-88529157D01*
X129312504Y-88530808D01*
X129312507Y-88530810D01*
X129497498Y-88607436D01*
X129497503Y-88607437D01*
X129497506Y-88607438D01*
X129597017Y-88627231D01*
X129693884Y-88646500D01*
X129693886Y-88646500D01*
X129894114Y-88646500D01*
X129894116Y-88646500D01*
X130022694Y-88620923D01*
X130090493Y-88607438D01*
X130090494Y-88607437D01*
X130090502Y-88607436D01*
X130275493Y-88530810D01*
X130441981Y-88419567D01*
X130583567Y-88277981D01*
X130694810Y-88111493D01*
X130771436Y-87926502D01*
X130777248Y-87897286D01*
X130810500Y-87730114D01*
X130810500Y-87529885D01*
X130806920Y-87511889D01*
X130771436Y-87333498D01*
X130694810Y-87148507D01*
X130583567Y-86982019D01*
X130441981Y-86840433D01*
X130441977Y-86840430D01*
X130441976Y-86840429D01*
X130275496Y-86729192D01*
X130275495Y-86729191D01*
X130275493Y-86729190D01*
X130090502Y-86652564D01*
X130090498Y-86652563D01*
X130090493Y-86652561D01*
X129942711Y-86623166D01*
X129894116Y-86613500D01*
X129693884Y-86613500D01*
X129650639Y-86622101D01*
X129497506Y-86652561D01*
X129497501Y-86652563D01*
X129497499Y-86652563D01*
X129497498Y-86652564D01*
X129460235Y-86667999D01*
X129308518Y-86730842D01*
X129307983Y-86729551D01*
X129253706Y-86737296D01*
X129202648Y-86705541D01*
X129183900Y-86651279D01*
X129183900Y-86068719D01*
X129204465Y-86012218D01*
X129256536Y-85982154D01*
X129308015Y-85990370D01*
X129308518Y-85989157D01*
X129312504Y-85990808D01*
X129312507Y-85990810D01*
X129497498Y-86067436D01*
X129497503Y-86067437D01*
X129497506Y-86067438D01*
X129597017Y-86087231D01*
X129693884Y-86106500D01*
X129693886Y-86106500D01*
X129894114Y-86106500D01*
X129894116Y-86106500D01*
X130022694Y-86080923D01*
X130090493Y-86067438D01*
X130090494Y-86067437D01*
X130090502Y-86067436D01*
X130275493Y-85990810D01*
X130441981Y-85879567D01*
X130583567Y-85737981D01*
X130694810Y-85571493D01*
X130771436Y-85386502D01*
X130771829Y-85384529D01*
X130806885Y-85208288D01*
X130810500Y-85190116D01*
X130810500Y-84989884D01*
X130771436Y-84793498D01*
X130694810Y-84608507D01*
X130673660Y-84576854D01*
X130583570Y-84442023D01*
X130583569Y-84442022D01*
X130583567Y-84442019D01*
X130441981Y-84300433D01*
X130441977Y-84300430D01*
X130441976Y-84300429D01*
X130275496Y-84189192D01*
X130275495Y-84189191D01*
X130275493Y-84189190D01*
X130090502Y-84112564D01*
X130090498Y-84112563D01*
X130090493Y-84112561D01*
X129938497Y-84082328D01*
X129894116Y-84073500D01*
X129693884Y-84073500D01*
X129650639Y-84082101D01*
X129497506Y-84112561D01*
X129497497Y-84112564D01*
X129488457Y-84116309D01*
X129428387Y-84118931D01*
X129380685Y-84082328D01*
X129367672Y-84023626D01*
X129369915Y-84012350D01*
X129408700Y-83867600D01*
X129408700Y-83721599D01*
X129370913Y-83580574D01*
X129370912Y-83580573D01*
X129370912Y-83580571D01*
X129297911Y-83454129D01*
X129194671Y-83350889D01*
X129068229Y-83277888D01*
X129068228Y-83277887D01*
X129068225Y-83277886D01*
X128927201Y-83240100D01*
X128781199Y-83240100D01*
X128640174Y-83277886D01*
X128513727Y-83350890D01*
X128410490Y-83454127D01*
X128337486Y-83580574D01*
X128299700Y-83721599D01*
X128299700Y-83867600D01*
X128337486Y-84008625D01*
X128337487Y-84008627D01*
X128337488Y-84008629D01*
X128409124Y-84132708D01*
X128420900Y-84176655D01*
X128420900Y-85082600D01*
X128400335Y-85139101D01*
X128348264Y-85169165D01*
X128333000Y-85170500D01*
X128200799Y-85170500D01*
X128059774Y-85208286D01*
X127933327Y-85281290D01*
X127830090Y-85384527D01*
X127757086Y-85510974D01*
X127719300Y-85651999D01*
X127719300Y-85798000D01*
X127757086Y-85939025D01*
X127757087Y-85939028D01*
X127757088Y-85939029D01*
X127786029Y-85989157D01*
X127830090Y-86065472D01*
X127862755Y-86098137D01*
X127888166Y-86152631D01*
X127888500Y-86160292D01*
X127888500Y-87386203D01*
X127867935Y-87442704D01*
X127815864Y-87472768D01*
X127800600Y-87474103D01*
X127668399Y-87474103D01*
X127527374Y-87511889D01*
X127400927Y-87584893D01*
X127297690Y-87688130D01*
X127224686Y-87814577D01*
X127188182Y-87950818D01*
X127186900Y-87955602D01*
X127186900Y-88101604D01*
X127189550Y-88111493D01*
X127224686Y-88242628D01*
X127224687Y-88242630D01*
X127224688Y-88242632D01*
X127241724Y-88272140D01*
X127253500Y-88316088D01*
X127253500Y-90162600D01*
X127232935Y-90219101D01*
X127180864Y-90249165D01*
X127165600Y-90250500D01*
X127033399Y-90250500D01*
X126892374Y-90288286D01*
X126765927Y-90361290D01*
X126662690Y-90464527D01*
X126589686Y-90590974D01*
X126555510Y-90718527D01*
X126551900Y-90731999D01*
X116786500Y-90731999D01*
X116786500Y-84076155D01*
X116786606Y-84071842D01*
X116789529Y-84012350D01*
X116804892Y-83699611D01*
X116805734Y-83691062D01*
X116860104Y-83324523D01*
X116861781Y-83316093D01*
X116951813Y-82956666D01*
X116954315Y-82948421D01*
X116978537Y-82880724D01*
X117079139Y-82599558D01*
X117082430Y-82591613D01*
X117240855Y-82256651D01*
X117244919Y-82249052D01*
X117435396Y-81931259D01*
X117440178Y-81924100D01*
X117660904Y-81626486D01*
X117666372Y-81619824D01*
X117915209Y-81345274D01*
X117921274Y-81339209D01*
X118195829Y-81090367D01*
X118202486Y-81084904D01*
X118500100Y-80864178D01*
X118507254Y-80859399D01*
X118825052Y-80668919D01*
X118832651Y-80664855D01*
X119167613Y-80506430D01*
X119175558Y-80503139D01*
X119524423Y-80378314D01*
X119532666Y-80375813D01*
X119892093Y-80285781D01*
X119900523Y-80284104D01*
X120267062Y-80229734D01*
X120275611Y-80228892D01*
X120647842Y-80210605D01*
X120652155Y-80210500D01*
X120689882Y-80210500D01*
X181316118Y-80210500D01*
X181353845Y-80210500D01*
X181358157Y-80210605D01*
G37*
%TD.AperFunction*%
%TD*%
M02*
