%TF.GenerationSoftware,KiCad,Pcbnew,9.0.8-9.0.8~ubuntu22.04.1*%
%TF.CreationDate,2026-03-23T14:46:36-05:00*%
%TF.ProjectId,CCD_Breakout,4343445f-4272-4656-916b-6f75742e6b69,rev?*%
%TF.SameCoordinates,Original*%
%TF.FileFunction,Copper,L1,Top*%
%TF.FilePolarity,Positive*%
%FSLAX46Y46*%
G04 Gerber Fmt 4.6, Leading zero omitted, Abs format (unit mm)*
G04 Created by KiCad (PCBNEW 9.0.8-9.0.8~ubuntu22.04.1) date 2026-03-23 14:46:36*
%MOMM*%
%LPD*%
G01*
G04 APERTURE LIST*
G04 Aperture macros list*
%AMRoundRect*
0 Rectangle with rounded corners*
0 $1 Rounding radius*
0 $2 $3 $4 $5 $6 $7 $8 $9 X,Y pos of 4 corners*
0 Add a 4 corners polygon primitive as box body*
4,1,4,$2,$3,$4,$5,$6,$7,$8,$9,$2,$3,0*
0 Add four circle primitives for the rounded corners*
1,1,$1+$1,$2,$3*
1,1,$1+$1,$4,$5*
1,1,$1+$1,$6,$7*
1,1,$1+$1,$8,$9*
0 Add four rect primitives between the rounded corners*
20,1,$1+$1,$2,$3,$4,$5,0*
20,1,$1+$1,$4,$5,$6,$7,0*
20,1,$1+$1,$6,$7,$8,$9,0*
20,1,$1+$1,$8,$9,$2,$3,0*%
G04 Aperture macros list end*
%TA.AperFunction,SMDPad,CuDef*%
%ADD10RoundRect,0.237500X-0.237500X0.250000X-0.237500X-0.250000X0.237500X-0.250000X0.237500X0.250000X0*%
%TD*%
%TA.AperFunction,SMDPad,CuDef*%
%ADD11RoundRect,0.237500X0.250000X0.237500X-0.250000X0.237500X-0.250000X-0.237500X0.250000X-0.237500X0*%
%TD*%
%TA.AperFunction,SMDPad,CuDef*%
%ADD12R,0.355600X1.473200*%
%TD*%
%TA.AperFunction,SMDPad,CuDef*%
%ADD13RoundRect,0.237500X-0.250000X-0.237500X0.250000X-0.237500X0.250000X0.237500X-0.250000X0.237500X0*%
%TD*%
%TA.AperFunction,SMDPad,CuDef*%
%ADD14RoundRect,0.237500X-0.237500X0.300000X-0.237500X-0.300000X0.237500X-0.300000X0.237500X0.300000X0*%
%TD*%
%TA.AperFunction,ComponentPad*%
%ADD15C,0.800000*%
%TD*%
%TA.AperFunction,ComponentPad*%
%ADD16C,6.400000*%
%TD*%
%TA.AperFunction,SMDPad,CuDef*%
%ADD17RoundRect,0.250000X0.295000X-0.407500X0.295000X0.407500X-0.295000X0.407500X-0.295000X-0.407500X0*%
%TD*%
%TA.AperFunction,SMDPad,CuDef*%
%ADD18RoundRect,0.237500X-0.300000X-0.237500X0.300000X-0.237500X0.300000X0.237500X-0.300000X0.237500X0*%
%TD*%
%TA.AperFunction,ComponentPad*%
%ADD19C,1.524000*%
%TD*%
%TA.AperFunction,SMDPad,CuDef*%
%ADD20R,0.914400X0.508000*%
%TD*%
%TA.AperFunction,SMDPad,CuDef*%
%ADD21RoundRect,0.250000X0.407500X0.295000X-0.407500X0.295000X-0.407500X-0.295000X0.407500X-0.295000X0*%
%TD*%
%TA.AperFunction,SMDPad,CuDef*%
%ADD22RoundRect,0.100000X0.650000X0.100000X-0.650000X0.100000X-0.650000X-0.100000X0.650000X-0.100000X0*%
%TD*%
%TA.AperFunction,SMDPad,CuDef*%
%ADD23C,1.500000*%
%TD*%
%TA.AperFunction,SMDPad,CuDef*%
%ADD24RoundRect,0.237500X0.300000X0.237500X-0.300000X0.237500X-0.300000X-0.237500X0.300000X-0.237500X0*%
%TD*%
%TA.AperFunction,SMDPad,CuDef*%
%ADD25RoundRect,0.250000X-0.407500X-0.295000X0.407500X-0.295000X0.407500X0.295000X-0.407500X0.295000X0*%
%TD*%
%TA.AperFunction,SMDPad,CuDef*%
%ADD26RoundRect,0.237500X0.237500X-0.250000X0.237500X0.250000X-0.237500X0.250000X-0.237500X-0.250000X0*%
%TD*%
%TA.AperFunction,SMDPad,CuDef*%
%ADD27R,0.355600X1.409700*%
%TD*%
%TA.AperFunction,SMDPad,CuDef*%
%ADD28RoundRect,0.049500X0.425500X-0.115500X0.425500X0.115500X-0.425500X0.115500X-0.425500X-0.115500X0*%
%TD*%
%TA.AperFunction,SMDPad,CuDef*%
%ADD29RoundRect,0.237500X0.237500X-0.300000X0.237500X0.300000X-0.237500X0.300000X-0.237500X-0.300000X0*%
%TD*%
%TA.AperFunction,ComponentPad*%
%ADD30R,1.218000X1.218000*%
%TD*%
%TA.AperFunction,ComponentPad*%
%ADD31C,1.218000*%
%TD*%
%TA.AperFunction,ViaPad*%
%ADD32C,0.600000*%
%TD*%
%TA.AperFunction,Conductor*%
%ADD33C,0.254000*%
%TD*%
G04 APERTURE END LIST*
D10*
%TO.P,R8,1*%
%TO.N,/CCD/Videob*%
X171958000Y-95226500D03*
%TO.P,R8,2*%
%TO.N,/CCD/opINA-*%
X171958000Y-97051500D03*
%TD*%
D11*
%TO.P,R4,1*%
%TO.N,Net-(U1-CLK)*%
X159789500Y-97409000D03*
%TO.P,R4,2*%
%TO.N,/CCD/CLKb*%
X157964500Y-97409000D03*
%TD*%
D12*
%TO.P,U8,1,OUTA*%
%TO.N,/CCD/opINA-*%
X173690999Y-96901000D03*
%TO.P,U8,2,INA-*%
X174341000Y-96901000D03*
%TO.P,U8,3,INA+*%
%TO.N,/CCD/opINA+*%
X174991001Y-96901000D03*
%TO.P,U8,4,V+*%
%TO.N,+5V*%
X175641000Y-96901000D03*
%TO.P,U8,5,INB+*%
%TO.N,+1V*%
X176290999Y-96901000D03*
%TO.P,U8,6,INB-*%
%TO.N,/CCD/opINB-*%
X176941000Y-96901000D03*
%TO.P,U8,7,OUTB*%
X177590999Y-96901000D03*
%TO.P,U8,8,OUTC*%
%TO.N,/ADC/Video*%
X177591001Y-91059000D03*
%TO.P,U8,9,INC-*%
%TO.N,/CCD/opINC-*%
X176941000Y-91059000D03*
%TO.P,U8,10,INC+*%
%TO.N,/CCD/Videob*%
X176291001Y-91059000D03*
%TO.P,U8,11,V-*%
%TO.N,GND*%
X175641000Y-91059000D03*
%TO.P,U8,12,IND+*%
%TO.N,/ADC/opIND+*%
X174991001Y-91059000D03*
%TO.P,U8,13,IND-*%
%TO.N,+1V8*%
X174341000Y-91059000D03*
%TO.P,U8,14,OUTD*%
X173691001Y-91059000D03*
%TD*%
D13*
%TO.P,R16,1*%
%TO.N,Net-(R15-Pad2)*%
X162917500Y-105156000D03*
%TO.P,R16,2*%
%TO.N,/ADC/opIND+*%
X164742500Y-105156000D03*
%TD*%
D14*
%TO.P,C9,1*%
%TO.N,+5V*%
X144780000Y-90958500D03*
%TO.P,C9,2*%
%TO.N,GND*%
X144780000Y-92683500D03*
%TD*%
D11*
%TO.P,R6,1*%
%TO.N,Net-(R6-Pad1)*%
X167638100Y-85344000D03*
%TO.P,R6,2*%
%TO.N,+1V*%
X165813100Y-85344000D03*
%TD*%
D15*
%TO.P,H1,1,1*%
%TO.N,GND*%
X118250000Y-84074000D03*
X118952944Y-82376944D03*
X118952944Y-85771056D03*
X120650000Y-81674000D03*
D16*
X120650000Y-84074000D03*
D15*
X120650000Y-86474000D03*
X122347056Y-82376944D03*
X122347056Y-85771056D03*
X123050000Y-84074000D03*
%TD*%
D11*
%TO.P,R1,1*%
%TO.N,/CCD/opINA+*%
X175156500Y-98933000D03*
%TO.P,R1,2*%
%TO.N,Net-(U1-Video)*%
X173331500Y-98933000D03*
%TD*%
D17*
%TO.P,C15,1*%
%TO.N,/ADC/opIND+*%
X174701200Y-105117500D03*
%TO.P,C15,2*%
%TO.N,GND*%
X174701200Y-103162500D03*
%TD*%
D18*
%TO.P,C11,1*%
%TO.N,+5V*%
X176937500Y-98933000D03*
%TO.P,C11,2*%
%TO.N,GND*%
X178662500Y-98933000D03*
%TD*%
D19*
%TO.P,Conn1,1*%
%TO.N,Net-(Q1-D)*%
X129794000Y-105410000D03*
%TO.P,Conn1,2*%
%TO.N,Net-(Q2-D)*%
X129794000Y-102870000D03*
%TO.P,Conn1,3*%
%TO.N,/ADC/OUT*%
X129794000Y-100330000D03*
%TO.P,Conn1,4*%
%TO.N,/CCD/CLK*%
X129794000Y-97790000D03*
%TO.P,Conn1,5*%
%TO.N,/CCD/Trig*%
X129794000Y-95250000D03*
%TO.P,Conn1,6*%
%TO.N,/CCD/ST*%
X129794000Y-92710000D03*
%TO.P,Conn1,7*%
%TO.N,/ADC/CLK2*%
X129794000Y-90170000D03*
%TO.P,Conn1,8*%
%TO.N,/ADC/SDI*%
X129794000Y-87630000D03*
%TO.P,Conn1,9*%
%TO.N,/ADC/TRIG*%
X129794000Y-85090000D03*
%TO.P,Conn1,10*%
%TO.N,GND*%
X129794000Y-82550000D03*
%TD*%
D20*
%TO.P,Q1,1,G*%
%TO.N,Net-(Q1-G)*%
X135890000Y-103314500D03*
%TO.P,Q1,2,S*%
%TO.N,+3V3*%
X135890000Y-101409500D03*
%TO.P,Q1,3,D*%
%TO.N,Net-(Q1-D)*%
X133858000Y-102362000D03*
%TD*%
D13*
%TO.P,R13,1*%
%TO.N,/CCD/opINC-*%
X177014500Y-89281000D03*
%TO.P,R13,2*%
%TO.N,/ADC/Video*%
X178839500Y-89281000D03*
%TD*%
D15*
%TO.P,H2,1,1*%
%TO.N,GND*%
X178956000Y-84074000D03*
X179658944Y-82376944D03*
X179658944Y-85771056D03*
X181356000Y-81674000D03*
D16*
X181356000Y-84074000D03*
D15*
X181356000Y-86474000D03*
X183053056Y-82376944D03*
X183053056Y-85771056D03*
X183756000Y-84074000D03*
%TD*%
D13*
%TO.P,R15,1*%
%TO.N,GND*%
X162917500Y-103505000D03*
%TO.P,R15,2*%
%TO.N,Net-(R15-Pad2)*%
X164742500Y-103505000D03*
%TD*%
D10*
%TO.P,R14,1*%
%TO.N,+5V*%
X171196000Y-103481500D03*
%TO.P,R14,2*%
%TO.N,/ADC/opIND+*%
X171196000Y-105306500D03*
%TD*%
D21*
%TO.P,C13,1*%
%TO.N,+5V*%
X169379500Y-102108000D03*
%TO.P,C13,2*%
%TO.N,GND*%
X167424500Y-102108000D03*
%TD*%
D14*
%TO.P,C2,1*%
%TO.N,+5V*%
X136906000Y-82830500D03*
%TO.P,C2,2*%
%TO.N,GND*%
X136906000Y-84555500D03*
%TD*%
D22*
%TO.P,U2,1*%
%TO.N,GND*%
X172272000Y-85105000D03*
%TO.P,U2,2*%
X172272000Y-84455000D03*
%TO.P,U2,3,IN*%
%TO.N,+5V*%
X172272000Y-83805000D03*
%TO.P,U2,4*%
%TO.N,Net-(R6-Pad1)*%
X169612000Y-83805000D03*
%TO.P,U2,5*%
%TO.N,+1V*%
X169612000Y-85105000D03*
%TD*%
D13*
%TO.P,R3,1*%
%TO.N,/CCD/STb*%
X163044500Y-90678000D03*
%TO.P,R3,2*%
%TO.N,Net-(U1-ST)*%
X164869500Y-90678000D03*
%TD*%
D23*
%TO.P,TP1,1,1*%
%TO.N,+1V8*%
X141605000Y-101727000D03*
%TD*%
D24*
%TO.P,C12,1*%
%TO.N,+5V*%
X176757500Y-100584000D03*
%TO.P,C12,2*%
%TO.N,GND*%
X175032500Y-100584000D03*
%TD*%
D22*
%TO.P,U4,1*%
%TO.N,GND*%
X169351000Y-105044000D03*
%TO.P,U4,2*%
X169351000Y-104394000D03*
%TO.P,U4,3,IN*%
%TO.N,+5V*%
X169351000Y-103744000D03*
%TO.P,U4,4*%
%TO.N,Net-(R15-Pad2)*%
X166691000Y-103744000D03*
%TO.P,U4,5*%
%TO.N,/ADC/opIND+*%
X166691000Y-105044000D03*
%TD*%
D23*
%TO.P,TP5,1,1*%
%TO.N,/ADC/Video*%
X146685000Y-101727000D03*
%TD*%
D25*
%TO.P,C4,1*%
%TO.N,+5V*%
X156959700Y-104952800D03*
%TO.P,C4,2*%
%TO.N,GND*%
X158914700Y-104952800D03*
%TD*%
%TO.P,C7,1*%
%TO.N,+1V*%
X169710500Y-88493600D03*
%TO.P,C7,2*%
%TO.N,GND*%
X171665500Y-88493600D03*
%TD*%
D14*
%TO.P,C8,1*%
%TO.N,+5V*%
X146558000Y-90958500D03*
%TO.P,C8,2*%
%TO.N,GND*%
X146558000Y-92683500D03*
%TD*%
D25*
%TO.P,C10,1*%
%TO.N,+5V*%
X173977700Y-86766400D03*
%TO.P,C10,2*%
%TO.N,GND*%
X175932700Y-86766400D03*
%TD*%
D18*
%TO.P,C16,1*%
%TO.N,Net-(U3-AIN+)*%
X155220500Y-102565200D03*
%TO.P,C16,2*%
%TO.N,GND*%
X156945500Y-102565200D03*
%TD*%
D26*
%TO.P,R12,1*%
%TO.N,/CCD/opINB-*%
X179197000Y-96924500D03*
%TO.P,R12,2*%
%TO.N,/CCD/opINC-*%
X179197000Y-95099500D03*
%TD*%
D27*
%TO.P,U5,1,OE1*%
%TO.N,GND*%
X148078000Y-97155250D03*
%TO.P,U5,2,A0*%
%TO.N,/CCD/ST*%
X148728001Y-97155250D03*
%TO.P,U5,3,A1*%
%TO.N,/CCD/CLK*%
X149377999Y-97155250D03*
%TO.P,U5,4,A2*%
%TO.N,/CCD/Trigb*%
X150028001Y-97155250D03*
%TO.P,U5,5,A3*%
%TO.N,/CCD/EOSb*%
X150677999Y-97155250D03*
%TO.P,U5,6,A4*%
%TO.N,GND*%
X151327998Y-97155250D03*
%TO.P,U5,7,A5*%
X151977999Y-97155250D03*
%TO.P,U5,8,A6*%
X152627998Y-97155250D03*
%TO.P,U5,9,A7*%
X153277999Y-97155250D03*
%TO.P,U5,10,GND*%
X153927998Y-97155250D03*
%TO.P,U5,11,Y7*%
X153928000Y-91249750D03*
%TO.P,U5,12,Y6*%
X153278002Y-91249750D03*
%TO.P,U5,13,Y5*%
X152628001Y-91249750D03*
%TO.P,U5,14,Y4*%
X151978002Y-91249750D03*
%TO.P,U5,15,Y3*%
%TO.N,unconnected-(U5-Y3-Pad15)*%
X151328001Y-91249750D03*
%TO.P,U5,16,Y2*%
%TO.N,/CCD/Trig*%
X150678002Y-91249750D03*
%TO.P,U5,17,Y1*%
%TO.N,/CCD/CLKb*%
X150028001Y-91249750D03*
%TO.P,U5,18,Y0*%
%TO.N,/CCD/STb*%
X149378002Y-91249750D03*
%TO.P,U5,19,OE2*%
%TO.N,GND*%
X148728001Y-91249750D03*
%TO.P,U5,20,VCC*%
%TO.N,+5V*%
X148078002Y-91249750D03*
%TD*%
D14*
%TO.P,C3,1*%
%TO.N,+5V*%
X138430000Y-82830500D03*
%TO.P,C3,2*%
%TO.N,GND*%
X138430000Y-84555500D03*
%TD*%
D17*
%TO.P,C14,1*%
%TO.N,/ADC/opIND+*%
X172847000Y-105244500D03*
%TO.P,C14,2*%
%TO.N,GND*%
X172847000Y-103289500D03*
%TD*%
D11*
%TO.P,R7,1*%
%TO.N,/ADC/Video*%
X156995500Y-101092000D03*
%TO.P,R7,2*%
%TO.N,Net-(U3-AIN+)*%
X155170500Y-101092000D03*
%TD*%
%TO.P,R5,1*%
%TO.N,+5V*%
X171473500Y-86741000D03*
%TO.P,R5,2*%
%TO.N,+1V*%
X169648500Y-86741000D03*
%TD*%
D10*
%TO.P,R10,1*%
%TO.N,Net-(Q2-G)*%
X134264400Y-86463500D03*
%TO.P,R10,2*%
%TO.N,GND*%
X134264400Y-88288500D03*
%TD*%
D20*
%TO.P,Q2,1,G*%
%TO.N,Net-(Q2-G)*%
X135382000Y-84709000D03*
%TO.P,Q2,2,S*%
%TO.N,+5V*%
X135382000Y-82804000D03*
%TO.P,Q2,3,D*%
%TO.N,Net-(Q2-D)*%
X133350000Y-83756500D03*
%TD*%
D23*
%TO.P,TP4,1,1*%
%TO.N,Net-(U3-AIN+)*%
X144145000Y-101727000D03*
%TD*%
D15*
%TO.P,H3,1,1*%
%TO.N,GND*%
X118250000Y-103886000D03*
X118952944Y-102188944D03*
X118952944Y-105583056D03*
X120650000Y-101486000D03*
D16*
X120650000Y-103886000D03*
D15*
X120650000Y-106286000D03*
X122347056Y-102188944D03*
X122347056Y-105583056D03*
X123050000Y-103886000D03*
%TD*%
D28*
%TO.P,U3,1,VREF*%
%TO.N,+5V*%
X153653000Y-104739000D03*
%TO.P,U3,2,AVDD*%
%TO.N,+1V8*%
X153653000Y-104239000D03*
%TO.P,U3,3,AIN+*%
%TO.N,Net-(U3-AIN+)*%
X153653000Y-103739000D03*
%TO.P,U3,4,AIN-*%
%TO.N,GND*%
X153649203Y-103236221D03*
%TO.P,U3,5,GND*%
X153653000Y-102739000D03*
%TO.P,U3,6,CNVST*%
%TO.N,/ADC/TRIG*%
X149703000Y-102739000D03*
%TO.P,U3,7,SDO*%
%TO.N,/ADC/OUT*%
X149703000Y-103236221D03*
%TO.P,U3,8,SCLK*%
%TO.N,/ADC/CLK2*%
X149703000Y-103739000D03*
%TO.P,U3,9,SDI*%
%TO.N,/ADC/SDI*%
X149703000Y-104239000D03*
%TO.P,U3,10,DVIO*%
%TO.N,+3V3*%
X149703000Y-104739000D03*
%TD*%
D23*
%TO.P,TP3,1,1*%
%TO.N,+5V*%
X143002000Y-83185000D03*
%TD*%
D11*
%TO.P,R11,1*%
%TO.N,Net-(Q1-G)*%
X135532500Y-105410000D03*
%TO.P,R11,2*%
%TO.N,GND*%
X133707500Y-105410000D03*
%TD*%
D15*
%TO.P,H4,1,1*%
%TO.N,GND*%
X178956000Y-103886000D03*
X179658944Y-102188944D03*
X179658944Y-105583056D03*
X181356000Y-101486000D03*
D16*
X181356000Y-103886000D03*
D15*
X181356000Y-106286000D03*
X183053056Y-102188944D03*
X183053056Y-105583056D03*
X183756000Y-103886000D03*
%TD*%
D29*
%TO.P,C6,1*%
%TO.N,+3V3*%
X147574000Y-105637500D03*
%TO.P,C6,2*%
%TO.N,GND*%
X147574000Y-103912500D03*
%TD*%
D24*
%TO.P,C1,1*%
%TO.N,Net-(U1-VIcp)*%
X159739500Y-90551000D03*
%TO.P,C1,2*%
%TO.N,GND*%
X158014500Y-90551000D03*
%TD*%
D14*
%TO.P,C5,1*%
%TO.N,+1V8*%
X155194000Y-104090300D03*
%TO.P,C5,2*%
%TO.N,GND*%
X155194000Y-105815300D03*
%TD*%
D13*
%TO.P,R9,1*%
%TO.N,GND*%
X165813100Y-83769200D03*
%TO.P,R9,2*%
%TO.N,Net-(R6-Pad1)*%
X167638100Y-83769200D03*
%TD*%
D30*
%TO.P,U1,1,Vdd*%
%TO.N,+5V*%
X164973000Y-99060000D03*
D31*
%TO.P,U1,2,Vss*%
%TO.N,GND*%
X162433000Y-99060000D03*
%TO.P,U1,3,CLK*%
%TO.N,Net-(U1-CLK)*%
X159893000Y-99060000D03*
%TO.P,U1,4,NC*%
%TO.N,unconnected-(U1-NC-Pad4)*%
X157353000Y-99060000D03*
%TO.P,U1,5,NC*%
%TO.N,unconnected-(U1-NC-Pad5)*%
X154813000Y-99060000D03*
%TO.P,U1,6,NC*%
%TO.N,unconnected-(U1-NC-Pad6)*%
X152273000Y-99060000D03*
%TO.P,U1,7,NC*%
%TO.N,unconnected-(U1-NC-Pad7)*%
X149733000Y-99060000D03*
%TO.P,U1,8,NC*%
%TO.N,unconnected-(U1-NC-Pad8)*%
X147193000Y-99060000D03*
%TO.P,U1,9,NC*%
%TO.N,unconnected-(U1-NC-Pad9)*%
X144653000Y-99060000D03*
%TO.P,U1,10,NC*%
%TO.N,unconnected-(U1-NC-Pad10)*%
X142113000Y-99060000D03*
%TO.P,U1,11,Vss*%
%TO.N,GND*%
X139573000Y-99060000D03*
%TO.P,U1,12,Vdd*%
%TO.N,+5V*%
X137033000Y-99060000D03*
%TO.P,U1,13,Video*%
%TO.N,Net-(U1-Video)*%
X137033000Y-88900000D03*
%TO.P,U1,14,NC*%
%TO.N,unconnected-(U1-NC-Pad14)*%
X139573000Y-88900000D03*
%TO.P,U1,15,EOS*%
%TO.N,/CCD/EOSb*%
X142113000Y-88900000D03*
%TO.P,U1,16,NC*%
%TO.N,unconnected-(U1-NC-Pad16)*%
X144653000Y-88900000D03*
%TO.P,U1,17,NC*%
%TO.N,unconnected-(U1-NC-Pad17)*%
X147193000Y-88900000D03*
%TO.P,U1,18,NC*%
%TO.N,unconnected-(U1-NC-Pad18)*%
X149733000Y-88900000D03*
%TO.P,U1,19,NC*%
%TO.N,unconnected-(U1-NC-Pad19)*%
X152273000Y-88900000D03*
%TO.P,U1,20,NC*%
%TO.N,unconnected-(U1-NC-Pad20)*%
X154813000Y-88900000D03*
%TO.P,U1,21,NC*%
%TO.N,unconnected-(U1-NC-Pad21)*%
X157353000Y-88900000D03*
%TO.P,U1,22,VIcp*%
%TO.N,Net-(U1-VIcp)*%
X159893000Y-88900000D03*
%TO.P,U1,23,Trig*%
%TO.N,/CCD/Trigb*%
X162433000Y-88900000D03*
%TO.P,U1,24,ST*%
%TO.N,Net-(U1-ST)*%
X164973000Y-88900000D03*
%TD*%
D32*
%TO.N,GND*%
X123317000Y-98552000D03*
X152603200Y-100787200D03*
X159004000Y-80518000D03*
X163626800Y-95148400D03*
X175006000Y-101752400D03*
X167944800Y-104394000D03*
X163626800Y-96621600D03*
X156260800Y-95199200D03*
X141071600Y-92862400D03*
X161493200Y-90627200D03*
X155194000Y-105815300D03*
X163576000Y-98933000D03*
X148844000Y-92710000D03*
X161239200Y-97180400D03*
X165709600Y-82753200D03*
X146939000Y-85471000D03*
X174599600Y-94488000D03*
X162001200Y-102616000D03*
X169011600Y-95148400D03*
X123444000Y-107289600D03*
X150114000Y-85471000D03*
X117348000Y-91440000D03*
X176784000Y-93472000D03*
X169164000Y-80518000D03*
X174879000Y-92329000D03*
X133604000Y-80518000D03*
X131572000Y-84683600D03*
X120142000Y-93345000D03*
X153797000Y-81788000D03*
X180848000Y-92329000D03*
X132842000Y-101041200D03*
X148844000Y-80518000D03*
X134315200Y-89357200D03*
X163576000Y-101092000D03*
X146558000Y-92683500D03*
X169011600Y-96570800D03*
X166243000Y-93599000D03*
X138684000Y-80518000D03*
X170992800Y-84531200D03*
X159004000Y-107289600D03*
X153035000Y-93726000D03*
X174244000Y-80518000D03*
X117348000Y-96520000D03*
X161290000Y-98933000D03*
X166370000Y-99822000D03*
X138430000Y-96570800D03*
X184658000Y-86360000D03*
X169351000Y-105044000D03*
X145643600Y-103835200D03*
X184658000Y-101600000D03*
X144780000Y-94386400D03*
X153924000Y-107289600D03*
X159004000Y-95199200D03*
X133731000Y-96647000D03*
X184658000Y-91440000D03*
X155956000Y-90678000D03*
X117348000Y-86360000D03*
X143814800Y-103784400D03*
X139649200Y-103784400D03*
X172593000Y-101854000D03*
X154889200Y-97536000D03*
X168021000Y-89281000D03*
X143764000Y-107289600D03*
X179959000Y-99187000D03*
X164084000Y-107289600D03*
X174244000Y-107289600D03*
X159004000Y-91846400D03*
X117348000Y-101600000D03*
X177139600Y-86715600D03*
X120269000Y-89662000D03*
X141071600Y-94335600D03*
X138684000Y-107289600D03*
X123317000Y-89662000D03*
X137820400Y-103784400D03*
X123317000Y-93345000D03*
X144780000Y-92683500D03*
X153924000Y-80518000D03*
X159385000Y-81788000D03*
X153517600Y-98755200D03*
X170230800Y-98958400D03*
X156210000Y-97536000D03*
X180975000Y-94615000D03*
X138430000Y-94284800D03*
X161798000Y-105410000D03*
X168046400Y-99771200D03*
X150114000Y-81788000D03*
X150774400Y-104749600D03*
X128524000Y-107289600D03*
X169037000Y-92964000D03*
X152628001Y-91249750D03*
X171958000Y-92964000D03*
X141071600Y-96621600D03*
X153873200Y-101955600D03*
X162433000Y-81788000D03*
X164084000Y-80518000D03*
X180975000Y-88646000D03*
X156083000Y-93726000D03*
X138430000Y-99060000D03*
X168021000Y-101219000D03*
X159258000Y-85471000D03*
X161391600Y-95199200D03*
X141427200Y-103784400D03*
X166217600Y-96672400D03*
X148844000Y-107289600D03*
X156945500Y-102565200D03*
X147320000Y-96672400D03*
X172567600Y-85902800D03*
X138430000Y-92811600D03*
X132461000Y-105283000D03*
X131572000Y-82550000D03*
X180848000Y-98298000D03*
X166217600Y-95199200D03*
X184658000Y-96520000D03*
X169164000Y-107289600D03*
X179324000Y-80518000D03*
X120142000Y-98552000D03*
X133731000Y-91059000D03*
X134239000Y-99441000D03*
X120269000Y-94869000D03*
X140766800Y-99060000D03*
X143764000Y-80518000D03*
X163195000Y-93599000D03*
X153670000Y-85471000D03*
X151079200Y-98653600D03*
X159207200Y-100838000D03*
X162433000Y-85471000D03*
X133604000Y-107289600D03*
X177342800Y-82042000D03*
X172618400Y-100584000D03*
X156845000Y-81788000D03*
X158877000Y-103124000D03*
X156845000Y-85471000D03*
X123444000Y-80518000D03*
X147574000Y-103912500D03*
X158014500Y-90551000D03*
X138836400Y-101396800D03*
X168097200Y-98298000D03*
X179324000Y-107289600D03*
X123317000Y-94869000D03*
X146507200Y-94386400D03*
X152654000Y-96824800D03*
X172847000Y-88138000D03*
X147066000Y-81788000D03*
X128524000Y-80518000D03*
X158914700Y-104952800D03*
X153543000Y-90932000D03*
%TO.N,Net-(U3-AIN+)*%
X155220500Y-102565200D03*
X155170500Y-101092000D03*
X152527000Y-103378000D03*
X152527000Y-102255600D03*
%TO.N,Net-(U1-VIcp)*%
X159739500Y-90551000D03*
%TO.N,+5V*%
X168910000Y-99187000D03*
X158344600Y-99973400D03*
X169418000Y-102108000D03*
X170307000Y-97663000D03*
X176757500Y-100584000D03*
X169351000Y-103744000D03*
X136194400Y-90474400D03*
X171473500Y-86741000D03*
X156959700Y-104952800D03*
X139750800Y-82830500D03*
X176911000Y-98933000D03*
X176911000Y-98933000D03*
X175641000Y-96901000D03*
%TO.N,+3V3*%
X137033000Y-101600000D03*
X137033000Y-105156000D03*
%TO.N,+1V8*%
X152171400Y-104241600D03*
X168021000Y-91440000D03*
X151384000Y-101198400D03*
X161056600Y-104775000D03*
X165735000Y-101917500D03*
X161163000Y-101981000D03*
%TO.N,+1V*%
X175768000Y-95755100D03*
X169710500Y-88392000D03*
X175133000Y-89281000D03*
X169672000Y-86741000D03*
%TO.N,/ADC/opIND+*%
X174701200Y-105117500D03*
X174991001Y-91059000D03*
%TO.N,Net-(U1-Video)*%
X137795000Y-95885000D03*
X170942000Y-96266000D03*
X171323000Y-98806000D03*
%TO.N,/CCD/opINA+*%
X174939397Y-96901000D03*
X175133000Y-98933000D03*
%TO.N,Net-(U1-ST)*%
X164869500Y-90678000D03*
%TO.N,Net-(U1-CLK)*%
X159789500Y-97409000D03*
%TO.N,/CCD/CLKb*%
X157988000Y-97409000D03*
X157480000Y-92329000D03*
%TO.N,/ADC/Video*%
X177591001Y-91059000D03*
X178816000Y-89281000D03*
X159893000Y-101854000D03*
%TO.N,/CCD/Videob*%
X176291001Y-91059000D03*
X176149000Y-94869000D03*
%TO.N,/ADC/SDI*%
X127635000Y-103251000D03*
X127741400Y-88028603D03*
%TO.N,/CCD/opINC-*%
X178943000Y-91948000D03*
X179197000Y-94996000D03*
%TO.N,/CCD/Trigb*%
X154686000Y-96413600D03*
X149976396Y-97155250D03*
X162052000Y-96413600D03*
%TO.N,/CCD/EOSb*%
X142367000Y-94127600D03*
X151485600Y-95300800D03*
X150677999Y-97155250D03*
%TO.N,/ADC/TRIG*%
X128273800Y-85725000D03*
X128273800Y-101346000D03*
%TO.N,/ADC/CLK2*%
X127106400Y-90805000D03*
X144272000Y-106172000D03*
X148590000Y-103267600D03*
X127635000Y-104013000D03*
%TO.N,/ADC/OUT*%
X150622000Y-100584000D03*
X150855400Y-102870000D03*
%TO.N,/CCD/ST*%
X148717000Y-93853000D03*
X148728001Y-97155250D03*
%TO.N,Net-(Q1-D)*%
X131762500Y-102679500D03*
%TO.N,Net-(Q2-D)*%
X128854200Y-83794600D03*
%TO.N,Net-(Q1-G)*%
X135532500Y-105410000D03*
X134874000Y-103505000D03*
%TO.N,/CCD/Trig*%
X150668003Y-95356400D03*
X150678002Y-91249750D03*
%TD*%
D33*
%TO.N,Net-(U3-AIN+)*%
X152209800Y-102255600D02*
X152189200Y-102235000D01*
X153647600Y-103733600D02*
X153653000Y-103739000D01*
X147560950Y-102235000D02*
X147090350Y-102705600D01*
X145809050Y-102235000D02*
X144653000Y-102235000D01*
X147090350Y-102705600D02*
X146279650Y-102705600D01*
X144653000Y-102235000D02*
X144145000Y-101727000D01*
X155220500Y-102860554D02*
X155220500Y-102565200D01*
X154342054Y-103739000D02*
X155220500Y-102860554D01*
X152189200Y-102235000D02*
X147560950Y-102235000D01*
X153653000Y-103739000D02*
X154342054Y-103739000D01*
X152527000Y-102255600D02*
X152209800Y-102255600D01*
X146279650Y-102705600D02*
X145809050Y-102235000D01*
X152882600Y-103733600D02*
X153647600Y-103733600D01*
X152527000Y-103378000D02*
X152882600Y-103733600D01*
%TO.N,+5V*%
X168910000Y-99187000D02*
X168783000Y-99060000D01*
X170511200Y-97867200D02*
X170307000Y-97663000D01*
X158369000Y-99973400D02*
X164059600Y-99973400D01*
X168783000Y-99060000D02*
X164973000Y-99060000D01*
X173977700Y-86766400D02*
X173977700Y-84264900D01*
X164059600Y-99973400D02*
X164973000Y-99060000D01*
X154736800Y-104952800D02*
X154523000Y-104739000D01*
X169379500Y-102108000D02*
X169418000Y-102108000D01*
X136194400Y-90474400D02*
X136678500Y-90958500D01*
X138430000Y-82830500D02*
X136906000Y-82830500D01*
X142647500Y-82830500D02*
X143002000Y-83185000D01*
X154523000Y-104739000D02*
X153653000Y-104739000D01*
X156959700Y-104952800D02*
X154736800Y-104952800D01*
X175641000Y-97624601D02*
X175398401Y-97867200D01*
X170451000Y-103481500D02*
X170188500Y-103744000D01*
X170188500Y-103744000D02*
X169351000Y-103744000D01*
X135382000Y-82804000D02*
X135890000Y-82804000D01*
X137946400Y-99973400D02*
X158369000Y-99973400D01*
X158344600Y-99973400D02*
X158369000Y-99973400D01*
X171346500Y-86868000D02*
X171473500Y-86741000D01*
X175398401Y-97867200D02*
X170511200Y-97867200D01*
X171196000Y-103481500D02*
X170451000Y-103481500D01*
X173952300Y-86741000D02*
X173977700Y-86766400D01*
X146558000Y-90958500D02*
X147786752Y-90958500D01*
X171473500Y-86741000D02*
X173952300Y-86741000D01*
X137033000Y-99060000D02*
X137946400Y-99973400D01*
X136678500Y-90958500D02*
X144780000Y-90958500D01*
X173517800Y-83805000D02*
X172272000Y-83805000D01*
X144780000Y-90958500D02*
X146558000Y-90958500D01*
X173977700Y-84264900D02*
X173517800Y-83805000D01*
X138430000Y-82830500D02*
X142647500Y-82830500D01*
X176937500Y-98933000D02*
X176911000Y-98933000D01*
X171473500Y-86741000D02*
X171450000Y-86741000D01*
X175641000Y-96901000D02*
X175641000Y-97624601D01*
X147786752Y-90958500D02*
X148078002Y-91249750D01*
X136879500Y-82804000D02*
X135382000Y-82804000D01*
%TO.N,+3V3*%
X147981500Y-105637500D02*
X148880000Y-104739000D01*
X136997000Y-105247000D02*
X146077500Y-105247000D01*
X146468000Y-105637500D02*
X147574000Y-105637500D01*
X136997000Y-105192000D02*
X136997000Y-105247000D01*
X147574000Y-105637500D02*
X147981500Y-105637500D01*
X137033000Y-105156000D02*
X136997000Y-105192000D01*
X137033000Y-101600000D02*
X136779000Y-101346000D01*
X146077500Y-105247000D02*
X146468000Y-105637500D01*
X135953500Y-101346000D02*
X135890000Y-101409500D01*
X148880000Y-104739000D02*
X149703000Y-104739000D01*
X136779000Y-101346000D02*
X135953500Y-101346000D01*
%TO.N,+1V8*%
X142584600Y-100747400D02*
X149775916Y-100747400D01*
X161036000Y-104775000D02*
X161009500Y-104801500D01*
X165481000Y-101854000D02*
X165544500Y-101917500D01*
X141605000Y-101727000D02*
X142584600Y-100747400D01*
X174341000Y-91059000D02*
X173691001Y-91059000D01*
X149775916Y-100747400D02*
X150226916Y-101198400D01*
X161009500Y-104801500D02*
X161009500Y-104723100D01*
X161009500Y-104723100D02*
X160376700Y-104090300D01*
X161163000Y-101981000D02*
X161290000Y-101854000D01*
X150226916Y-101198400D02*
X151384000Y-101198400D01*
X165544500Y-101917500D02*
X165735000Y-101917500D01*
X153650400Y-104241600D02*
X153653000Y-104239000D01*
X160376700Y-104090300D02*
X155194000Y-104090300D01*
X173691001Y-91059000D02*
X168402000Y-91059000D01*
X161056600Y-104775000D02*
X161036000Y-104775000D01*
X168402000Y-91059000D02*
X168021000Y-91440000D01*
X161290000Y-101854000D02*
X165481000Y-101854000D01*
X152171400Y-104241600D02*
X153650400Y-104241600D01*
%TO.N,+1V*%
X165813100Y-86260300D02*
X166268400Y-86715600D01*
X165813100Y-85344000D02*
X165813100Y-86260300D01*
X176290999Y-96278099D02*
X175768000Y-95755100D01*
X175133000Y-89281000D02*
X170599500Y-89281000D01*
X169648500Y-85141500D02*
X169612000Y-85105000D01*
X169812100Y-88493600D02*
X169710500Y-88493600D01*
X176290999Y-96901000D02*
X176290999Y-96278099D01*
X170599500Y-89281000D02*
X169812100Y-88493600D01*
X169646600Y-86715600D02*
X169672000Y-86741000D01*
X169648500Y-86741000D02*
X169648500Y-85141500D01*
X166268400Y-86715600D02*
X169646600Y-86715600D01*
X169648500Y-86741000D02*
X169672000Y-86741000D01*
%TO.N,/ADC/opIND+*%
X172885500Y-105283000D02*
X172847000Y-105244500D01*
X172847000Y-105244500D02*
X171258000Y-105244500D01*
X171196000Y-105306500D02*
X170838500Y-105664000D01*
X173990000Y-105283000D02*
X172885500Y-105283000D01*
X173990000Y-105283000D02*
X174155500Y-105117500D01*
X164854500Y-105044000D02*
X164742500Y-105156000D01*
X171258000Y-105244500D02*
X171196000Y-105306500D01*
X170838500Y-105664000D02*
X167311000Y-105664000D01*
X167311000Y-105664000D02*
X166691000Y-105044000D01*
X166691000Y-105044000D02*
X164854500Y-105044000D01*
X174155500Y-105117500D02*
X174701200Y-105117500D01*
%TO.N,Net-(U1-Video)*%
X173204500Y-98806000D02*
X173331500Y-98933000D01*
X171323000Y-98806000D02*
X173204500Y-98806000D01*
X137795000Y-95885000D02*
X170561000Y-95885000D01*
X170561000Y-95885000D02*
X170942000Y-96266000D01*
%TO.N,/CCD/opINA+*%
X175156500Y-98933000D02*
X175133000Y-98933000D01*
%TO.N,/CCD/STb*%
X163044500Y-90678000D02*
X162212900Y-89846400D01*
X150089501Y-89846400D02*
X149378002Y-90557899D01*
X162212900Y-89846400D02*
X150089501Y-89846400D01*
X149378002Y-90557899D02*
X149378002Y-91249750D01*
%TO.N,/CCD/CLKb*%
X150415402Y-92329000D02*
X150028001Y-91941599D01*
X157480000Y-92329000D02*
X150415402Y-92329000D01*
X150028001Y-91941599D02*
X150028001Y-91249750D01*
X157964500Y-97409000D02*
X157988000Y-97409000D01*
%TO.N,/ADC/Video*%
X157630500Y-101727000D02*
X156995500Y-101092000D01*
X153020554Y-101727000D02*
X154417554Y-100330000D01*
X178839500Y-89281000D02*
X178816000Y-89281000D01*
X156591000Y-100330000D02*
X156995500Y-100734500D01*
X159766000Y-101727000D02*
X157630500Y-101727000D01*
X156995500Y-100734500D02*
X156995500Y-101092000D01*
X146685000Y-101727000D02*
X153020554Y-101727000D01*
X159893000Y-101854000D02*
X159766000Y-101727000D01*
X154417554Y-100330000D02*
X156591000Y-100330000D01*
%TO.N,/CCD/opINA-*%
X174341000Y-96901000D02*
X173690999Y-96901000D01*
X172108500Y-96901000D02*
X171958000Y-97051500D01*
X173690999Y-96901000D02*
X172108500Y-96901000D01*
%TO.N,/CCD/Videob*%
X171958000Y-95226500D02*
X175791500Y-95226500D01*
X175791500Y-95226500D02*
X176149000Y-94869000D01*
%TO.N,/CCD/opINB-*%
X179197000Y-96924500D02*
X177614499Y-96924500D01*
X176941000Y-96901000D02*
X177590999Y-96901000D01*
X177614499Y-96924500D02*
X177590999Y-96901000D01*
%TO.N,/ADC/SDI*%
X128270000Y-103886000D02*
X131826000Y-103886000D01*
X132439400Y-104499400D02*
X146536400Y-104499400D01*
X128140003Y-87630000D02*
X127741400Y-88028603D01*
X148178400Y-104678600D02*
X148618000Y-104239000D01*
X131826000Y-103886000D02*
X132439400Y-104499400D01*
X127635000Y-103251000D02*
X128270000Y-103886000D01*
X148618000Y-104239000D02*
X149703000Y-104239000D01*
X146536400Y-104499400D02*
X146715600Y-104678600D01*
X129794000Y-87630000D02*
X128140003Y-87630000D01*
X146715600Y-104678600D02*
X148178400Y-104678600D01*
%TO.N,/CCD/opINC-*%
X177014500Y-90985500D02*
X176941000Y-91059000D01*
X177014500Y-89281000D02*
X177014500Y-90985500D01*
X179197000Y-95099500D02*
X179197000Y-94996000D01*
X178943000Y-91948000D02*
X178865800Y-92025200D01*
X177183601Y-92025200D02*
X176941000Y-91782599D01*
X176941000Y-91782599D02*
X176941000Y-91059000D01*
X178865800Y-92025200D02*
X177183601Y-92025200D01*
%TO.N,/CCD/Trigb*%
X162052000Y-96413600D02*
X154686000Y-96413600D01*
%TO.N,/CCD/EOSb*%
X149606000Y-95173800D02*
X149987000Y-94792800D01*
X149987000Y-94792800D02*
X150977600Y-94792800D01*
X143413200Y-95173800D02*
X149606000Y-95173800D01*
X150977600Y-94792800D02*
X151485600Y-95300800D01*
X142367000Y-94127600D02*
X143413200Y-95173800D01*
%TO.N,/ADC/TRIG*%
X134850600Y-101600000D02*
X135612600Y-102362000D01*
X128524000Y-101600000D02*
X134850600Y-101600000D01*
X128908800Y-85090000D02*
X128273800Y-85725000D01*
X147578000Y-102739000D02*
X149703000Y-102739000D01*
X135612600Y-102362000D02*
X139573000Y-102362000D01*
X128273800Y-101346000D02*
X128273800Y-101349800D01*
X129794000Y-85090000D02*
X128908800Y-85090000D01*
X147193000Y-103124000D02*
X147578000Y-102739000D01*
X128273800Y-101349800D02*
X128524000Y-101600000D01*
X140335000Y-103124000D02*
X147193000Y-103124000D01*
X139573000Y-102362000D02*
X140335000Y-103124000D01*
%TO.N,/ADC/CLK2*%
X131318000Y-105664000D02*
X131826000Y-106172000D01*
X127635000Y-104013000D02*
X127894106Y-104013000D01*
X148590000Y-103267600D02*
X149061400Y-103739000D01*
X127741400Y-90170000D02*
X127106400Y-90805000D01*
X128122706Y-104241600D02*
X130911600Y-104241600D01*
X131826000Y-106172000D02*
X144272000Y-106172000D01*
X149061400Y-103739000D02*
X149703000Y-103739000D01*
X129794000Y-90170000D02*
X127741400Y-90170000D01*
X131318000Y-104648000D02*
X131318000Y-105664000D01*
X127894106Y-104013000D02*
X128122706Y-104241600D01*
X130911600Y-104241600D02*
X131318000Y-104648000D01*
%TO.N,/ADC/OUT*%
X150855400Y-102870000D02*
X150489179Y-103236221D01*
X129794000Y-100330000D02*
X150368000Y-100330000D01*
X150489179Y-103236221D02*
X149703000Y-103236221D01*
X150368000Y-100330000D02*
X150622000Y-100584000D01*
%TO.N,/CCD/ST*%
X148463000Y-93599000D02*
X148717000Y-93853000D01*
X129794000Y-92710000D02*
X130683000Y-93599000D01*
X130683000Y-93599000D02*
X148082000Y-93599000D01*
X148082000Y-93599000D02*
X148463000Y-93599000D01*
%TO.N,Net-(R6-Pad1)*%
X169576200Y-83769200D02*
X169612000Y-83805000D01*
X167638100Y-85344000D02*
X167638100Y-83769200D01*
X167638100Y-83769200D02*
X169576200Y-83769200D01*
%TO.N,/CCD/CLK*%
X130093700Y-98089700D02*
X149135401Y-98089700D01*
X149135401Y-98089700D02*
X149377999Y-97847102D01*
X129794000Y-97790000D02*
X130093700Y-98089700D01*
X149377999Y-97847102D02*
X149377999Y-97155250D01*
%TO.N,Net-(Q1-D)*%
X132080000Y-102362000D02*
X133858000Y-102362000D01*
X131762500Y-102679500D02*
X132080000Y-102362000D01*
%TO.N,Net-(Q2-D)*%
X128854200Y-83794600D02*
X128981200Y-83667600D01*
X133350000Y-83667600D02*
X133350000Y-83756500D01*
X128981200Y-83667600D02*
X133350000Y-83667600D01*
%TO.N,Net-(Q1-G)*%
X135890000Y-103314500D02*
X135064500Y-103314500D01*
X135064500Y-103314500D02*
X134874000Y-103505000D01*
%TO.N,Net-(Q2-G)*%
X134465700Y-86463500D02*
X135382000Y-85547200D01*
X135382000Y-85547200D02*
X135382000Y-84709000D01*
X134264400Y-86463500D02*
X134465700Y-86463500D01*
%TO.N,Net-(R15-Pad2)*%
X164981500Y-103744000D02*
X164742500Y-103505000D01*
X166691000Y-103744000D02*
X164981500Y-103744000D01*
X164742500Y-103505000D02*
X164568500Y-103505000D01*
X164568500Y-103505000D02*
X162917500Y-105156000D01*
%TO.N,/CCD/Trig*%
X149920400Y-95529400D02*
X138186954Y-95529400D01*
X138186954Y-95529400D02*
X138013954Y-95356400D01*
X138013954Y-95356400D02*
X129900400Y-95356400D01*
X150093400Y-95356400D02*
X149920400Y-95529400D01*
X129900400Y-95356400D02*
X129794000Y-95250000D01*
X150668003Y-95356400D02*
X150093400Y-95356400D01*
%TD*%
%TA.AperFunction,Conductor*%
%TO.N,GND*%
G36*
X131822114Y-104421637D02*
G01*
X132205153Y-104804676D01*
X132292147Y-104854902D01*
X132389175Y-104880901D01*
X132389176Y-104880901D01*
X132495007Y-104880901D01*
X132495023Y-104880900D01*
X134739554Y-104880900D01*
X134796055Y-104901465D01*
X134826119Y-104953536D01*
X134821912Y-104999514D01*
X134799315Y-105060100D01*
X134796800Y-105066843D01*
X134796798Y-105066853D01*
X134790500Y-105125434D01*
X134790500Y-105694553D01*
X134790627Y-105696904D01*
X134789437Y-105696967D01*
X134775927Y-105751611D01*
X134727352Y-105787048D01*
X134702959Y-105790500D01*
X132020432Y-105790500D01*
X131963931Y-105769935D01*
X131958277Y-105764755D01*
X131725245Y-105531722D01*
X131699834Y-105477228D01*
X131699500Y-105469567D01*
X131699500Y-104597775D01*
X131689638Y-104560971D01*
X131675054Y-104506541D01*
X131680295Y-104446644D01*
X131722811Y-104404128D01*
X131782709Y-104398887D01*
X131822114Y-104421637D01*
G37*
%TD.AperFunction*%
%TA.AperFunction,Conductor*%
G36*
X139435068Y-102764065D02*
G01*
X139440722Y-102769245D01*
X140100753Y-103429276D01*
X140187747Y-103479502D01*
X140284775Y-103505501D01*
X140284776Y-103505501D01*
X140390607Y-103505501D01*
X140390623Y-103505500D01*
X147243224Y-103505500D01*
X147243225Y-103505500D01*
X147340254Y-103479501D01*
X147427247Y-103429276D01*
X147498276Y-103358247D01*
X147710278Y-103146245D01*
X147727669Y-103138134D01*
X147742369Y-103125801D01*
X147761265Y-103122469D01*
X147764772Y-103120834D01*
X147772433Y-103120500D01*
X147947600Y-103120500D01*
X148004101Y-103141065D01*
X148034165Y-103193136D01*
X148035500Y-103208400D01*
X148035500Y-103340601D01*
X148040228Y-103358247D01*
X148073286Y-103481625D01*
X148073287Y-103481628D01*
X148073288Y-103481629D01*
X148146289Y-103608071D01*
X148249529Y-103711311D01*
X148375971Y-103784312D01*
X148375975Y-103784313D01*
X148377598Y-103785250D01*
X148416247Y-103831310D01*
X148416247Y-103891437D01*
X148387163Y-103931106D01*
X148383757Y-103933719D01*
X148046122Y-104271355D01*
X147991628Y-104296766D01*
X147983967Y-104297100D01*
X146910033Y-104297100D01*
X146853532Y-104276535D01*
X146847878Y-104271355D01*
X146770648Y-104194125D01*
X146770647Y-104194124D01*
X146683654Y-104143899D01*
X146683653Y-104143898D01*
X146683650Y-104143897D01*
X146586625Y-104117900D01*
X135249474Y-104117900D01*
X135192973Y-104097335D01*
X135162909Y-104045264D01*
X135173350Y-103986050D01*
X135205522Y-103953877D01*
X135214471Y-103948711D01*
X135317711Y-103845471D01*
X135318167Y-103845015D01*
X135372661Y-103819604D01*
X135397465Y-103820957D01*
X135407733Y-103823000D01*
X136372266Y-103822999D01*
X136372268Y-103822999D01*
X136390761Y-103819320D01*
X136446501Y-103808234D01*
X136530684Y-103751984D01*
X136586934Y-103667801D01*
X136601700Y-103593567D01*
X136601699Y-103035434D01*
X136601699Y-103035431D01*
X136596180Y-103007690D01*
X136586934Y-102961199D01*
X136532835Y-102880235D01*
X136518543Y-102821831D01*
X136545137Y-102767904D01*
X136600172Y-102743688D01*
X136605921Y-102743500D01*
X139378567Y-102743500D01*
X139435068Y-102764065D01*
G37*
%TD.AperFunction*%
%TA.AperFunction,Conductor*%
G36*
X154391017Y-100998782D02*
G01*
X154425505Y-101048035D01*
X154428500Y-101070785D01*
X154428500Y-101376551D01*
X154434800Y-101435159D01*
X154472894Y-101537290D01*
X154484242Y-101567715D01*
X154569026Y-101680974D01*
X154672232Y-101758232D01*
X154705139Y-101808555D01*
X154698001Y-101868257D01*
X154672233Y-101898966D01*
X154589037Y-101961246D01*
X154569025Y-101976227D01*
X154569024Y-101976228D01*
X154484242Y-102089484D01*
X154434800Y-102222043D01*
X154434798Y-102222053D01*
X154428500Y-102280634D01*
X154428500Y-102849751D01*
X154434800Y-102908359D01*
X154468948Y-102999911D01*
X154469425Y-103060036D01*
X154448745Y-103092784D01*
X154240201Y-103301328D01*
X154185707Y-103326739D01*
X154154972Y-103323990D01*
X154149308Y-103322449D01*
X154123900Y-103319501D01*
X154123895Y-103319500D01*
X154123889Y-103319500D01*
X154123881Y-103319500D01*
X153182110Y-103319500D01*
X153163685Y-103321637D01*
X153105192Y-103307716D01*
X153069332Y-103259453D01*
X153068658Y-103257072D01*
X153063804Y-103238958D01*
X153051527Y-103193136D01*
X153043713Y-103163974D01*
X153043712Y-103163973D01*
X153043712Y-103163971D01*
X152970711Y-103037529D01*
X152867471Y-102934289D01*
X152795821Y-102892922D01*
X152757173Y-102846864D01*
X152757173Y-102786737D01*
X152795819Y-102740678D01*
X152867471Y-102699311D01*
X152970711Y-102596071D01*
X153043712Y-102469629D01*
X153081500Y-102328601D01*
X153081500Y-102182599D01*
X153081500Y-102176838D01*
X153083513Y-102176838D01*
X153094781Y-102125983D01*
X153142479Y-102089374D01*
X153146173Y-102088298D01*
X153167808Y-102082501D01*
X153254801Y-102032276D01*
X153325830Y-101961247D01*
X153325830Y-101961246D01*
X154278446Y-101008629D01*
X154332939Y-100983219D01*
X154391017Y-100998782D01*
G37*
%TD.AperFunction*%
%TA.AperFunction,Conductor*%
G36*
X141083486Y-100732065D02*
G01*
X141113550Y-100784136D01*
X141103109Y-100843350D01*
X141075819Y-100872486D01*
X140964673Y-100946750D01*
X140824752Y-101086671D01*
X140714822Y-101251193D01*
X140639103Y-101433997D01*
X140639101Y-101434001D01*
X140612302Y-101568733D01*
X140600500Y-101628065D01*
X140600500Y-101825935D01*
X140604193Y-101844499D01*
X140639101Y-102019998D01*
X140639103Y-102020002D01*
X140714822Y-102202806D01*
X140714823Y-102202808D01*
X140714824Y-102202809D01*
X140824754Y-102367331D01*
X140964669Y-102507246D01*
X140964672Y-102507248D01*
X140964673Y-102507249D01*
X141075819Y-102581514D01*
X141111373Y-102630003D01*
X141107441Y-102690001D01*
X141065862Y-102733435D01*
X141026985Y-102742500D01*
X140529433Y-102742500D01*
X140472932Y-102721935D01*
X140467278Y-102716755D01*
X140139026Y-102388503D01*
X139807247Y-102056724D01*
X139807244Y-102056722D01*
X139807243Y-102056721D01*
X139807240Y-102056719D01*
X139792983Y-102048487D01*
X139792983Y-102048488D01*
X139735620Y-102015370D01*
X139720254Y-102006499D01*
X139720253Y-102006498D01*
X139720252Y-102006498D01*
X139623225Y-101980500D01*
X137605847Y-101980500D01*
X137549346Y-101959935D01*
X137519282Y-101907864D01*
X137529723Y-101848651D01*
X137530535Y-101847244D01*
X137549712Y-101814029D01*
X137587500Y-101673001D01*
X137587500Y-101526999D01*
X137569742Y-101460724D01*
X137549713Y-101385974D01*
X137549712Y-101385973D01*
X137549712Y-101385971D01*
X137476711Y-101259529D01*
X137373471Y-101156289D01*
X137247029Y-101083288D01*
X137247028Y-101083287D01*
X137247025Y-101083286D01*
X137106001Y-101045500D01*
X137045072Y-101045500D01*
X137001123Y-101033724D01*
X136952287Y-101005529D01*
X136926254Y-100990499D01*
X136926253Y-100990498D01*
X136926252Y-100990498D01*
X136829225Y-100964500D01*
X136546100Y-100964500D01*
X136497265Y-100949686D01*
X136446501Y-100915766D01*
X136446498Y-100915765D01*
X136409129Y-100908332D01*
X136372267Y-100901000D01*
X136372265Y-100901000D01*
X135407731Y-100901000D01*
X135333499Y-100915766D01*
X135249317Y-100972015D01*
X135249314Y-100972018D01*
X135193065Y-101056198D01*
X135185860Y-101092425D01*
X135178539Y-101129234D01*
X135178300Y-101130434D01*
X135178300Y-101196431D01*
X135157735Y-101252932D01*
X135105664Y-101282996D01*
X135046452Y-101272556D01*
X135009448Y-101251193D01*
X134997854Y-101244499D01*
X134997851Y-101244498D01*
X134900825Y-101218500D01*
X130555257Y-101218500D01*
X130498756Y-101197935D01*
X130468692Y-101145864D01*
X130479133Y-101086650D01*
X130493098Y-101068449D01*
X130583567Y-100977981D01*
X130694810Y-100811493D01*
X130702618Y-100792642D01*
X130713754Y-100765761D01*
X130754375Y-100721431D01*
X130794962Y-100711500D01*
X141026985Y-100711500D01*
X141083486Y-100732065D01*
G37*
%TD.AperFunction*%
%TA.AperFunction,Conductor*%
G36*
X153697423Y-100375465D02*
G01*
X153727487Y-100427536D01*
X153717046Y-100486750D01*
X153703077Y-100504954D01*
X153292266Y-100915765D01*
X152888276Y-101319755D01*
X152833782Y-101345166D01*
X152826121Y-101345500D01*
X152026400Y-101345500D01*
X151969899Y-101324935D01*
X151939835Y-101272864D01*
X151938500Y-101257600D01*
X151938500Y-101125399D01*
X151900713Y-100984374D01*
X151900712Y-100984373D01*
X151900712Y-100984371D01*
X151827711Y-100857929D01*
X151724471Y-100754689D01*
X151598029Y-100681688D01*
X151598028Y-100681687D01*
X151598025Y-100681686D01*
X151457001Y-100643900D01*
X151310999Y-100643900D01*
X151310997Y-100643900D01*
X151287149Y-100650290D01*
X151258680Y-100647799D01*
X151230134Y-100646331D01*
X151228912Y-100645194D01*
X151227251Y-100645049D01*
X151207037Y-100624834D01*
X151186120Y-100605367D01*
X151185660Y-100603457D01*
X151184735Y-100602532D01*
X151177166Y-100576182D01*
X151176500Y-100570801D01*
X151176500Y-100510999D01*
X151162743Y-100459657D01*
X151161993Y-100453597D01*
X151167442Y-100429886D01*
X151169563Y-100405652D01*
X151174041Y-100401173D01*
X151175461Y-100394998D01*
X151194876Y-100380338D01*
X151212079Y-100363135D01*
X151219979Y-100361383D01*
X151223446Y-100358766D01*
X151230216Y-100359114D01*
X151249227Y-100354900D01*
X153640922Y-100354900D01*
X153697423Y-100375465D01*
G37*
%TD.AperFunction*%
%TA.AperFunction,Conductor*%
G36*
X141359953Y-98491765D02*
G01*
X141390017Y-98543836D01*
X141379576Y-98603050D01*
X141376546Y-98607920D01*
X141362134Y-98629490D01*
X141347774Y-98650981D01*
X141282684Y-98808125D01*
X141282682Y-98808129D01*
X141253619Y-98954242D01*
X141249500Y-98974953D01*
X141249500Y-99145047D01*
X141257739Y-99186468D01*
X141282682Y-99311870D01*
X141282684Y-99311874D01*
X141348331Y-99470362D01*
X141350954Y-99530432D01*
X141314350Y-99578134D01*
X141267122Y-99591900D01*
X138140833Y-99591900D01*
X138084332Y-99571335D01*
X138078678Y-99566155D01*
X137890080Y-99377557D01*
X137864669Y-99323063D01*
X137866023Y-99298262D01*
X137896500Y-99145047D01*
X137896500Y-98974953D01*
X137870955Y-98846529D01*
X137863317Y-98808129D01*
X137863316Y-98808127D01*
X137863316Y-98808126D01*
X137812970Y-98686581D01*
X137798225Y-98650981D01*
X137798224Y-98650979D01*
X137769461Y-98607933D01*
X137755170Y-98549531D01*
X137781764Y-98495605D01*
X137836798Y-98471388D01*
X137842548Y-98471200D01*
X141303452Y-98471200D01*
X141359953Y-98491765D01*
G37*
%TD.AperFunction*%
%TA.AperFunction,Conductor*%
G36*
X154100101Y-96287065D02*
G01*
X154130165Y-96339136D01*
X154131500Y-96354400D01*
X154131500Y-96486600D01*
X154169286Y-96627625D01*
X154169287Y-96627628D01*
X154169288Y-96627629D01*
X154242289Y-96754071D01*
X154345529Y-96857311D01*
X154471971Y-96930312D01*
X154471973Y-96930312D01*
X154471974Y-96930313D01*
X154612999Y-96968100D01*
X154759000Y-96968100D01*
X154759001Y-96968100D01*
X154900029Y-96930312D01*
X155026471Y-96857311D01*
X155062937Y-96820845D01*
X155117431Y-96795434D01*
X155125092Y-96795100D01*
X157206084Y-96795100D01*
X157262585Y-96815665D01*
X157292649Y-96867736D01*
X157282208Y-96926950D01*
X157279261Y-96931416D01*
X157278243Y-96933281D01*
X157228800Y-97065843D01*
X157228798Y-97065853D01*
X157222500Y-97124434D01*
X157222500Y-97693551D01*
X157228800Y-97752159D01*
X157263551Y-97845328D01*
X157278242Y-97884715D01*
X157363026Y-97997974D01*
X157370371Y-98003472D01*
X157416805Y-98038232D01*
X157449713Y-98088555D01*
X157442575Y-98148257D01*
X157398731Y-98189403D01*
X157364129Y-98196500D01*
X157267953Y-98196500D01*
X157232762Y-98203500D01*
X157101129Y-98229682D01*
X157101125Y-98229684D01*
X156943981Y-98294774D01*
X156802553Y-98389274D01*
X156682274Y-98509553D01*
X156587774Y-98650981D01*
X156522684Y-98808125D01*
X156522682Y-98808129D01*
X156493619Y-98954242D01*
X156489500Y-98974953D01*
X156489500Y-99145047D01*
X156497739Y-99186468D01*
X156522682Y-99311870D01*
X156522684Y-99311874D01*
X156588331Y-99470362D01*
X156590954Y-99530432D01*
X156554350Y-99578134D01*
X156507122Y-99591900D01*
X155658878Y-99591900D01*
X155602377Y-99571335D01*
X155572313Y-99519264D01*
X155577669Y-99470362D01*
X155607503Y-99398335D01*
X155643316Y-99311874D01*
X155646026Y-99298253D01*
X155662078Y-99217551D01*
X155676500Y-99145047D01*
X155676500Y-98974953D01*
X155650955Y-98846529D01*
X155643317Y-98808129D01*
X155643316Y-98808127D01*
X155643316Y-98808126D01*
X155592970Y-98686581D01*
X155578225Y-98650981D01*
X155576533Y-98648448D01*
X155483724Y-98509551D01*
X155363449Y-98389276D01*
X155222021Y-98294776D01*
X155222020Y-98294775D01*
X155222018Y-98294774D01*
X155064874Y-98229684D01*
X155064870Y-98229682D01*
X154933238Y-98203500D01*
X154898047Y-98196500D01*
X154727953Y-98196500D01*
X154692762Y-98203500D01*
X154561129Y-98229682D01*
X154561125Y-98229684D01*
X154403981Y-98294774D01*
X154262553Y-98389274D01*
X154142274Y-98509553D01*
X154047774Y-98650981D01*
X153982684Y-98808125D01*
X153982682Y-98808129D01*
X153953619Y-98954242D01*
X153949500Y-98974953D01*
X153949500Y-99145047D01*
X153957739Y-99186468D01*
X153982682Y-99311870D01*
X153982684Y-99311874D01*
X154048331Y-99470362D01*
X154050954Y-99530432D01*
X154014350Y-99578134D01*
X153967122Y-99591900D01*
X153118878Y-99591900D01*
X153062377Y-99571335D01*
X153032313Y-99519264D01*
X153037669Y-99470362D01*
X153067503Y-99398335D01*
X153103316Y-99311874D01*
X153106026Y-99298253D01*
X153122078Y-99217551D01*
X153136500Y-99145047D01*
X153136500Y-98974953D01*
X153110955Y-98846529D01*
X153103317Y-98808129D01*
X153103316Y-98808127D01*
X153103316Y-98808126D01*
X153052970Y-98686581D01*
X153038225Y-98650981D01*
X153036533Y-98648448D01*
X152943724Y-98509551D01*
X152823449Y-98389276D01*
X152682021Y-98294776D01*
X152682020Y-98294775D01*
X152682018Y-98294774D01*
X152524874Y-98229684D01*
X152524870Y-98229682D01*
X152393238Y-98203500D01*
X152358047Y-98196500D01*
X152187953Y-98196500D01*
X152152762Y-98203500D01*
X152021129Y-98229682D01*
X152021125Y-98229684D01*
X151863981Y-98294774D01*
X151722553Y-98389274D01*
X151602274Y-98509553D01*
X151507774Y-98650981D01*
X151442684Y-98808125D01*
X151442682Y-98808129D01*
X151413619Y-98954242D01*
X151409500Y-98974953D01*
X151409500Y-99145047D01*
X151417739Y-99186468D01*
X151442682Y-99311870D01*
X151442684Y-99311874D01*
X151508331Y-99470362D01*
X151510954Y-99530432D01*
X151474350Y-99578134D01*
X151427122Y-99591900D01*
X150578878Y-99591900D01*
X150522377Y-99571335D01*
X150492313Y-99519264D01*
X150497669Y-99470362D01*
X150527503Y-99398335D01*
X150563316Y-99311874D01*
X150566026Y-99298253D01*
X150582078Y-99217551D01*
X150596500Y-99145047D01*
X150596500Y-98974953D01*
X150570955Y-98846529D01*
X150563317Y-98808129D01*
X150563316Y-98808127D01*
X150563316Y-98808126D01*
X150512970Y-98686581D01*
X150498225Y-98650981D01*
X150496533Y-98648448D01*
X150403724Y-98509551D01*
X150283449Y-98389276D01*
X150142021Y-98294776D01*
X150142020Y-98294775D01*
X150142018Y-98294774D01*
X150115301Y-98283708D01*
X150070971Y-98243087D01*
X150063123Y-98183474D01*
X150095429Y-98132763D01*
X150148938Y-98114599D01*
X150230867Y-98114599D01*
X150230869Y-98114599D01*
X150255499Y-98109699D01*
X150305102Y-98099834D01*
X150305104Y-98099832D01*
X150313101Y-98096521D01*
X150313760Y-98098113D01*
X150362563Y-98086168D01*
X150392650Y-98097117D01*
X150392898Y-98096521D01*
X150400895Y-98099833D01*
X150400897Y-98099833D01*
X150400898Y-98099834D01*
X150475132Y-98114600D01*
X150880865Y-98114599D01*
X150880867Y-98114599D01*
X150899360Y-98110920D01*
X150955100Y-98099834D01*
X151039283Y-98043584D01*
X151095533Y-97959401D01*
X151110299Y-97885167D01*
X151110298Y-97539039D01*
X151122074Y-97495090D01*
X151122989Y-97493506D01*
X151194711Y-97369279D01*
X151232499Y-97228251D01*
X151232499Y-97082249D01*
X151194711Y-96941221D01*
X151122073Y-96815409D01*
X151110298Y-96771460D01*
X151110298Y-96425331D01*
X151099600Y-96371548D01*
X151108747Y-96312121D01*
X151153953Y-96272476D01*
X151185811Y-96266500D01*
X154043600Y-96266500D01*
X154100101Y-96287065D01*
G37*
%TD.AperFunction*%
%TA.AperFunction,Conductor*%
G36*
X181358157Y-80210605D02*
G01*
X181730386Y-80228892D01*
X181738938Y-80229734D01*
X182105473Y-80284104D01*
X182113910Y-80285782D01*
X182473327Y-80375812D01*
X182481578Y-80378315D01*
X182830431Y-80503136D01*
X182838393Y-80506433D01*
X183147954Y-80652845D01*
X183173340Y-80664852D01*
X183180947Y-80668919D01*
X183498740Y-80859396D01*
X183505913Y-80864188D01*
X183803507Y-81084900D01*
X183810175Y-81090372D01*
X184084714Y-81339199D01*
X184090800Y-81345285D01*
X184225791Y-81494225D01*
X184339627Y-81619824D01*
X184345099Y-81626492D01*
X184565811Y-81924086D01*
X184570603Y-81931259D01*
X184761080Y-82249052D01*
X184765147Y-82256659D01*
X184923562Y-82591598D01*
X184926863Y-82599568D01*
X185051684Y-82948421D01*
X185054188Y-82956675D01*
X185144214Y-83316078D01*
X185145897Y-83324538D01*
X185200263Y-83691044D01*
X185201108Y-83699629D01*
X185219394Y-84071842D01*
X185219500Y-84076155D01*
X185219500Y-103883844D01*
X185219394Y-103888157D01*
X185201108Y-104260370D01*
X185200263Y-104268955D01*
X185145897Y-104635461D01*
X185144214Y-104643921D01*
X185054188Y-105003324D01*
X185051684Y-105011578D01*
X184926863Y-105360431D01*
X184923562Y-105368401D01*
X184765147Y-105703340D01*
X184761080Y-105710947D01*
X184570603Y-106028740D01*
X184565811Y-106035913D01*
X184345099Y-106333507D01*
X184339627Y-106340175D01*
X184090807Y-106614707D01*
X184084707Y-106620807D01*
X183810175Y-106869627D01*
X183803507Y-106875099D01*
X183505913Y-107095811D01*
X183498740Y-107100603D01*
X183180947Y-107291080D01*
X183173340Y-107295147D01*
X182838401Y-107453562D01*
X182830431Y-107456863D01*
X182481578Y-107581684D01*
X182473324Y-107584188D01*
X182113921Y-107674214D01*
X182105461Y-107675897D01*
X181738955Y-107730263D01*
X181730370Y-107731108D01*
X181358158Y-107749394D01*
X181353845Y-107749500D01*
X120652155Y-107749500D01*
X120647842Y-107749394D01*
X120275629Y-107731108D01*
X120267044Y-107730263D01*
X119900538Y-107675897D01*
X119892078Y-107674214D01*
X119532675Y-107584188D01*
X119524421Y-107581684D01*
X119175568Y-107456863D01*
X119167598Y-107453562D01*
X118832659Y-107295147D01*
X118825052Y-107291080D01*
X118507259Y-107100603D01*
X118500086Y-107095811D01*
X118202492Y-106875099D01*
X118195824Y-106869627D01*
X117996214Y-106688712D01*
X117921285Y-106620800D01*
X117915199Y-106614714D01*
X117709208Y-106387438D01*
X117666372Y-106340175D01*
X117660900Y-106333507D01*
X117524830Y-106150039D01*
X117440185Y-106035908D01*
X117435396Y-106028740D01*
X117244919Y-105710947D01*
X117240852Y-105703340D01*
X117195856Y-105608204D01*
X117082433Y-105368393D01*
X117079136Y-105360431D01*
X117077601Y-105356142D01*
X117006884Y-105158499D01*
X116954315Y-105011578D01*
X116951811Y-105003324D01*
X116948862Y-104991550D01*
X116861782Y-104643910D01*
X116860104Y-104635473D01*
X116805734Y-104268938D01*
X116804892Y-104260386D01*
X116786606Y-103888157D01*
X116786500Y-103883844D01*
X116786500Y-103177999D01*
X127080500Y-103177999D01*
X127080500Y-103324001D01*
X127089676Y-103358247D01*
X127118287Y-103465027D01*
X127189314Y-103588051D01*
X127199754Y-103647264D01*
X127189314Y-103675949D01*
X127118287Y-103798972D01*
X127080500Y-103939999D01*
X127080500Y-104086000D01*
X127118286Y-104227025D01*
X127118287Y-104227028D01*
X127118288Y-104227029D01*
X127191289Y-104353471D01*
X127294529Y-104456711D01*
X127420971Y-104529712D01*
X127420973Y-104529712D01*
X127420974Y-104529713D01*
X127561999Y-104567500D01*
X127707999Y-104567500D01*
X127708001Y-104567500D01*
X127820488Y-104537359D01*
X127880384Y-104542599D01*
X127887186Y-104546140D01*
X127888456Y-104546873D01*
X127888459Y-104546876D01*
X127975452Y-104597101D01*
X127975454Y-104597101D01*
X127975455Y-104597102D01*
X128072481Y-104623100D01*
X128172931Y-104623100D01*
X128932807Y-104623100D01*
X128989308Y-104643665D01*
X129019372Y-104695736D01*
X129008931Y-104754950D01*
X129005893Y-104759834D01*
X128893192Y-104928503D01*
X128893190Y-104928505D01*
X128893190Y-104928507D01*
X128816564Y-105113498D01*
X128816563Y-105113501D01*
X128816561Y-105113506D01*
X128793023Y-105231843D01*
X128777500Y-105309884D01*
X128777500Y-105510116D01*
X128781798Y-105531722D01*
X128816561Y-105706493D01*
X128816563Y-105706498D01*
X128816564Y-105706502D01*
X128893190Y-105891493D01*
X128893191Y-105891495D01*
X128893192Y-105891496D01*
X129004429Y-106057976D01*
X129004430Y-106057977D01*
X129004433Y-106057981D01*
X129146019Y-106199567D01*
X129312507Y-106310810D01*
X129497498Y-106387436D01*
X129497503Y-106387437D01*
X129497506Y-106387438D01*
X129592051Y-106406244D01*
X129693884Y-106426500D01*
X129693886Y-106426500D01*
X129894114Y-106426500D01*
X129894116Y-106426500D01*
X130022694Y-106400923D01*
X130090493Y-106387438D01*
X130090494Y-106387437D01*
X130090502Y-106387436D01*
X130275493Y-106310810D01*
X130441981Y-106199567D01*
X130583567Y-106057981D01*
X130694810Y-105891493D01*
X130771315Y-105706793D01*
X130811934Y-105662466D01*
X130871547Y-105654618D01*
X130922258Y-105686924D01*
X130937426Y-105717683D01*
X130943798Y-105741461D01*
X130962498Y-105811252D01*
X131001726Y-105879199D01*
X131012721Y-105898243D01*
X131012722Y-105898244D01*
X131012724Y-105898247D01*
X131270977Y-106156499D01*
X131520722Y-106406244D01*
X131520722Y-106406245D01*
X131591749Y-106477273D01*
X131591751Y-106477274D01*
X131591753Y-106477276D01*
X131678746Y-106527501D01*
X131678748Y-106527501D01*
X131678749Y-106527502D01*
X131775775Y-106553500D01*
X143832908Y-106553500D01*
X143889409Y-106574065D01*
X143895063Y-106579245D01*
X143931529Y-106615711D01*
X144057971Y-106688712D01*
X144057973Y-106688712D01*
X144057974Y-106688713D01*
X144198999Y-106726500D01*
X144345000Y-106726500D01*
X144345001Y-106726500D01*
X144486029Y-106688712D01*
X144612471Y-106615711D01*
X144715711Y-106512471D01*
X144788712Y-106386029D01*
X144826500Y-106245001D01*
X144826500Y-106098999D01*
X144805065Y-106019000D01*
X144788713Y-105957974D01*
X144788712Y-105957973D01*
X144788712Y-105957971D01*
X144715711Y-105831529D01*
X144662737Y-105778555D01*
X144637326Y-105724061D01*
X144652889Y-105665983D01*
X144702142Y-105631495D01*
X144724892Y-105628500D01*
X145883067Y-105628500D01*
X145939568Y-105649065D01*
X145945222Y-105654245D01*
X146162722Y-105871744D01*
X146162722Y-105871745D01*
X146233749Y-105942773D01*
X146233751Y-105942774D01*
X146233753Y-105942776D01*
X146320746Y-105993001D01*
X146320748Y-105993001D01*
X146320749Y-105993002D01*
X146417775Y-106019000D01*
X146518225Y-106019000D01*
X146780760Y-106019000D01*
X146837261Y-106039565D01*
X146863117Y-106076181D01*
X146900242Y-106175715D01*
X146985026Y-106288974D01*
X147098285Y-106373758D01*
X147230843Y-106423200D01*
X147289443Y-106429500D01*
X147858556Y-106429499D01*
X147917157Y-106423200D01*
X148049715Y-106373758D01*
X148162974Y-106288974D01*
X148247758Y-106175715D01*
X148297200Y-106043157D01*
X148303500Y-105984557D01*
X148303499Y-105891432D01*
X148324063Y-105834932D01*
X148329232Y-105829289D01*
X149012278Y-105146245D01*
X149029669Y-105138134D01*
X149044369Y-105125801D01*
X149063265Y-105122469D01*
X149066772Y-105120834D01*
X149074433Y-105120500D01*
X149108768Y-105120500D01*
X149144273Y-105127990D01*
X149206693Y-105155551D01*
X149232111Y-105158500D01*
X150173888Y-105158499D01*
X150199307Y-105155551D01*
X150303277Y-105109644D01*
X150383644Y-105029277D01*
X150429551Y-104925307D01*
X150432500Y-104899889D01*
X150432499Y-104578112D01*
X150429551Y-104552693D01*
X150417103Y-104524503D01*
X150413094Y-104464513D01*
X150417105Y-104453493D01*
X150429551Y-104425307D01*
X150432500Y-104399889D01*
X150432499Y-104078112D01*
X150429551Y-104052693D01*
X150417103Y-104024503D01*
X150413094Y-103964513D01*
X150417105Y-103953493D01*
X150429551Y-103925307D01*
X150432500Y-103899889D01*
X150432499Y-103705620D01*
X150453063Y-103649120D01*
X150505135Y-103619056D01*
X150520399Y-103617721D01*
X150539403Y-103617721D01*
X150539404Y-103617721D01*
X150636433Y-103591722D01*
X150723426Y-103541497D01*
X150794455Y-103470468D01*
X150814678Y-103450245D01*
X150869172Y-103424834D01*
X150876833Y-103424500D01*
X150928400Y-103424500D01*
X150928401Y-103424500D01*
X151069429Y-103386712D01*
X151195871Y-103313711D01*
X151299111Y-103210471D01*
X151372112Y-103084029D01*
X151409900Y-102943001D01*
X151409900Y-102796999D01*
X151391184Y-102727149D01*
X151396425Y-102667252D01*
X151438941Y-102624735D01*
X151476089Y-102616500D01*
X152067308Y-102616500D01*
X152123809Y-102637065D01*
X152129463Y-102642245D01*
X152186529Y-102699311D01*
X152258178Y-102740677D01*
X152296826Y-102786736D01*
X152296826Y-102846863D01*
X152258176Y-102892923D01*
X152198025Y-102927651D01*
X152186527Y-102934290D01*
X152083290Y-103037527D01*
X152010286Y-103163974D01*
X151972500Y-103304999D01*
X151972500Y-103451000D01*
X152010287Y-103592029D01*
X152010288Y-103592030D01*
X152012350Y-103595601D01*
X152022792Y-103654815D01*
X151992729Y-103706887D01*
X151962643Y-103722549D01*
X151962698Y-103722681D01*
X151961192Y-103723304D01*
X151958983Y-103724455D01*
X151957377Y-103724885D01*
X151957372Y-103724887D01*
X151957371Y-103724888D01*
X151864413Y-103778557D01*
X151830927Y-103797890D01*
X151727690Y-103901127D01*
X151654686Y-104027574D01*
X151623519Y-104143897D01*
X151616900Y-104168599D01*
X151616900Y-104314601D01*
X151621372Y-104331290D01*
X151654686Y-104455625D01*
X151654687Y-104455628D01*
X151654688Y-104455629D01*
X151727689Y-104582071D01*
X151830929Y-104685311D01*
X151957371Y-104758312D01*
X151957373Y-104758312D01*
X151957374Y-104758313D01*
X152098399Y-104796100D01*
X152244400Y-104796100D01*
X152244401Y-104796100D01*
X152385429Y-104758312D01*
X152511871Y-104685311D01*
X152548337Y-104648845D01*
X152602831Y-104623434D01*
X152610492Y-104623100D01*
X152835600Y-104623100D01*
X152892101Y-104643665D01*
X152922165Y-104695736D01*
X152923500Y-104711000D01*
X152923500Y-104899884D01*
X152924715Y-104910354D01*
X152926449Y-104925307D01*
X152926449Y-104925308D01*
X152926450Y-104925310D01*
X152963598Y-105009443D01*
X152972356Y-105029277D01*
X153052723Y-105109644D01*
X153156693Y-105155551D01*
X153182111Y-105158500D01*
X154123888Y-105158499D01*
X154149307Y-105155551D01*
X154211727Y-105127990D01*
X154215510Y-105127191D01*
X154217168Y-105125801D01*
X154247232Y-105120500D01*
X154328567Y-105120500D01*
X154385068Y-105141065D01*
X154390722Y-105146245D01*
X154502553Y-105258076D01*
X154589547Y-105308302D01*
X154589549Y-105308302D01*
X154589550Y-105308303D01*
X154686575Y-105334300D01*
X155984984Y-105334300D01*
X156041485Y-105354865D01*
X156067340Y-105391479D01*
X156104858Y-105492067D01*
X156191796Y-105608204D01*
X156307933Y-105695142D01*
X156443858Y-105745840D01*
X156503945Y-105752300D01*
X157415454Y-105752299D01*
X157475542Y-105745840D01*
X157611467Y-105695142D01*
X157727604Y-105608204D01*
X157814542Y-105492067D01*
X157865240Y-105356142D01*
X157871700Y-105296055D01*
X157871699Y-104609546D01*
X157868746Y-104582071D01*
X157867351Y-104569095D01*
X157881759Y-104510719D01*
X157930319Y-104475263D01*
X157954747Y-104471800D01*
X160182267Y-104471800D01*
X160238768Y-104492365D01*
X160244422Y-104497545D01*
X160476355Y-104729477D01*
X160501765Y-104783971D01*
X160502100Y-104791632D01*
X160502100Y-104848001D01*
X160503136Y-104851868D01*
X160539886Y-104989025D01*
X160539887Y-104989028D01*
X160539888Y-104989029D01*
X160612889Y-105115471D01*
X160716129Y-105218711D01*
X160842571Y-105291712D01*
X160842573Y-105291712D01*
X160842574Y-105291713D01*
X160983599Y-105329500D01*
X161129600Y-105329500D01*
X161129601Y-105329500D01*
X161270629Y-105291712D01*
X161397071Y-105218711D01*
X161500311Y-105115471D01*
X161573312Y-104989029D01*
X161604821Y-104871434D01*
X162175500Y-104871434D01*
X162175500Y-105440551D01*
X162181800Y-105499159D01*
X162189225Y-105519065D01*
X162231242Y-105631715D01*
X162316026Y-105744974D01*
X162429285Y-105829758D01*
X162561843Y-105879200D01*
X162620443Y-105885500D01*
X163214556Y-105885499D01*
X163273157Y-105879200D01*
X163405715Y-105829758D01*
X163518974Y-105744974D01*
X163603758Y-105631715D01*
X163653200Y-105499157D01*
X163659500Y-105440557D01*
X163659499Y-104989931D01*
X163680064Y-104933431D01*
X163685233Y-104927788D01*
X163855504Y-104757517D01*
X163909997Y-104732107D01*
X163968075Y-104747670D01*
X164002563Y-104796923D01*
X164005055Y-104829066D01*
X164000500Y-104871445D01*
X164000500Y-105440551D01*
X164006800Y-105499159D01*
X164014225Y-105519065D01*
X164056242Y-105631715D01*
X164141026Y-105744974D01*
X164254285Y-105829758D01*
X164386843Y-105879200D01*
X164445443Y-105885500D01*
X165039556Y-105885499D01*
X165098157Y-105879200D01*
X165230715Y-105829758D01*
X165343974Y-105744974D01*
X165428758Y-105631715D01*
X165478200Y-105499157D01*
X165478201Y-105499146D01*
X165479466Y-105493799D01*
X165482341Y-105494478D01*
X165504201Y-105449992D01*
X165559201Y-105425697D01*
X165565076Y-105425500D01*
X165789325Y-105425500D01*
X165827930Y-105434431D01*
X165832159Y-105436498D01*
X165832160Y-105436499D01*
X165938450Y-105488461D01*
X166007354Y-105498500D01*
X166569567Y-105498500D01*
X166626068Y-105519065D01*
X166631722Y-105524245D01*
X167005722Y-105898244D01*
X167005722Y-105898245D01*
X167076749Y-105969273D01*
X167076751Y-105969274D01*
X167076753Y-105969276D01*
X167163746Y-106019501D01*
X167163748Y-106019501D01*
X167163749Y-106019502D01*
X167260775Y-106045500D01*
X167361225Y-106045500D01*
X170788275Y-106045500D01*
X170878830Y-106045500D01*
X170888225Y-106046003D01*
X170911443Y-106048500D01*
X171480556Y-106048499D01*
X171539157Y-106042200D01*
X171671715Y-105992758D01*
X171784974Y-105907974D01*
X171869758Y-105794715D01*
X171886228Y-105750556D01*
X171925239Y-105704806D01*
X171984534Y-105694834D01*
X172036366Y-105725309D01*
X172051341Y-105755449D01*
X172052038Y-105755190D01*
X172100642Y-105885500D01*
X172104658Y-105896267D01*
X172191596Y-106012404D01*
X172307733Y-106099342D01*
X172443658Y-106150040D01*
X172503745Y-106156500D01*
X173190254Y-106156499D01*
X173250342Y-106150040D01*
X173386267Y-106099342D01*
X173502404Y-106012404D01*
X173589342Y-105896267D01*
X173640040Y-105760342D01*
X173640594Y-105755190D01*
X173641905Y-105743003D01*
X173649989Y-105726527D01*
X173653177Y-105708450D01*
X173662837Y-105700343D01*
X173668392Y-105689024D01*
X173685176Y-105681599D01*
X173699237Y-105669801D01*
X173720205Y-105666103D01*
X173723379Y-105664700D01*
X173729301Y-105664500D01*
X173858751Y-105664500D01*
X173915252Y-105685065D01*
X173941108Y-105721680D01*
X173958858Y-105769267D01*
X174045796Y-105885404D01*
X174161933Y-105972342D01*
X174297858Y-106023040D01*
X174357945Y-106029500D01*
X175044454Y-106029499D01*
X175104542Y-106023040D01*
X175240467Y-105972342D01*
X175356604Y-105885404D01*
X175443542Y-105769267D01*
X175494240Y-105633342D01*
X175500700Y-105573255D01*
X175500699Y-104661746D01*
X175494240Y-104601658D01*
X175490911Y-104592734D01*
X175470257Y-104537359D01*
X175443542Y-104465733D01*
X175356604Y-104349596D01*
X175240467Y-104262658D01*
X175240465Y-104262657D01*
X175164973Y-104234500D01*
X175104542Y-104211960D01*
X175104539Y-104211959D01*
X175104531Y-104211958D01*
X175044459Y-104205500D01*
X174357950Y-104205500D01*
X174297855Y-104211960D01*
X174161934Y-104262657D01*
X174045798Y-104349594D01*
X174045794Y-104349598D01*
X173958857Y-104465734D01*
X173908160Y-104601658D01*
X173908158Y-104601668D01*
X173901700Y-104661736D01*
X173901700Y-104795367D01*
X173895136Y-104813399D01*
X173893465Y-104832513D01*
X173882457Y-104848234D01*
X173881135Y-104851868D01*
X173875956Y-104857520D01*
X173857724Y-104875753D01*
X173803231Y-104901165D01*
X173795568Y-104901500D01*
X173734399Y-104901500D01*
X173677898Y-104880935D01*
X173647834Y-104828864D01*
X173646499Y-104813600D01*
X173646499Y-104788750D01*
X173646499Y-104788746D01*
X173640040Y-104728658D01*
X173589342Y-104592733D01*
X173502404Y-104476596D01*
X173386267Y-104389658D01*
X173386265Y-104389657D01*
X173300049Y-104357500D01*
X173250342Y-104338960D01*
X173250339Y-104338959D01*
X173250331Y-104338958D01*
X173190259Y-104332500D01*
X172503750Y-104332500D01*
X172443655Y-104338960D01*
X172307734Y-104389657D01*
X172191598Y-104476594D01*
X172191594Y-104476598D01*
X172104657Y-104592734D01*
X172053960Y-104728658D01*
X172053958Y-104728668D01*
X172047956Y-104784496D01*
X172039871Y-104800972D01*
X172036684Y-104819050D01*
X172027024Y-104827155D01*
X172021470Y-104838475D01*
X172004685Y-104845900D01*
X171990624Y-104857699D01*
X171969656Y-104861396D01*
X171966483Y-104862800D01*
X171960560Y-104863000D01*
X171946328Y-104863000D01*
X171889827Y-104842435D01*
X171873923Y-104823018D01*
X171873525Y-104823317D01*
X171849806Y-104791632D01*
X171784974Y-104705026D01*
X171671715Y-104620242D01*
X171539157Y-104570800D01*
X171539154Y-104570799D01*
X171539146Y-104570798D01*
X171480561Y-104564500D01*
X170911448Y-104564500D01*
X170852840Y-104570800D01*
X170720284Y-104620242D01*
X170607028Y-104705024D01*
X170607024Y-104705028D01*
X170522242Y-104818284D01*
X170472800Y-104950843D01*
X170472798Y-104950853D01*
X170466500Y-105009434D01*
X170466500Y-105194600D01*
X170445935Y-105251101D01*
X170393864Y-105281165D01*
X170378600Y-105282500D01*
X167781858Y-105282500D01*
X167725357Y-105261935D01*
X167695293Y-105209864D01*
X167694876Y-105181931D01*
X167695499Y-105177651D01*
X167695500Y-105177642D01*
X167695500Y-104910358D01*
X167695500Y-104910354D01*
X167685461Y-104841450D01*
X167633499Y-104735160D01*
X167549840Y-104651501D01*
X167549838Y-104651500D01*
X167549837Y-104651499D01*
X167491745Y-104623100D01*
X167443550Y-104599539D01*
X167374646Y-104589500D01*
X166007354Y-104589500D01*
X165938450Y-104599539D01*
X165938448Y-104599540D01*
X165827930Y-104653569D01*
X165789325Y-104662500D01*
X165459444Y-104662500D01*
X165402943Y-104641935D01*
X165389076Y-104627276D01*
X165369899Y-104601658D01*
X165343974Y-104567026D01*
X165230715Y-104482242D01*
X165098157Y-104432800D01*
X165098154Y-104432799D01*
X165098146Y-104432798D01*
X165039561Y-104426500D01*
X164445447Y-104426500D01*
X164403065Y-104431056D01*
X164402169Y-104430834D01*
X164401333Y-104431225D01*
X164373080Y-104423654D01*
X164344690Y-104416646D01*
X164344145Y-104415900D01*
X164343255Y-104415662D01*
X164326480Y-104391706D01*
X164309234Y-104368085D01*
X164309296Y-104367164D01*
X164308767Y-104366409D01*
X164311315Y-104337280D01*
X164313288Y-104308095D01*
X164313954Y-104307122D01*
X164314008Y-104306511D01*
X164331514Y-104281507D01*
X164355282Y-104257739D01*
X164409775Y-104232329D01*
X164426830Y-104232498D01*
X164445443Y-104234500D01*
X165039556Y-104234499D01*
X165098157Y-104228200D01*
X165230715Y-104178758D01*
X165278440Y-104143032D01*
X165331116Y-104125500D01*
X165789325Y-104125500D01*
X165827930Y-104134431D01*
X165832159Y-104136498D01*
X165832160Y-104136499D01*
X165938450Y-104188461D01*
X166007354Y-104198500D01*
X166007359Y-104198500D01*
X167374641Y-104198500D01*
X167374646Y-104198500D01*
X167443550Y-104188461D01*
X167549840Y-104136499D01*
X167633499Y-104052840D01*
X167685461Y-103946550D01*
X167695500Y-103877646D01*
X167695500Y-103610354D01*
X168346500Y-103610354D01*
X168346500Y-103877646D01*
X168356539Y-103946550D01*
X168360766Y-103955196D01*
X168408499Y-104052837D01*
X168408500Y-104052838D01*
X168408501Y-104052840D01*
X168492160Y-104136499D01*
X168598450Y-104188461D01*
X168667354Y-104198500D01*
X169005663Y-104198500D01*
X169049612Y-104210276D01*
X169078623Y-104227025D01*
X169136971Y-104260712D01*
X169277999Y-104298500D01*
X169424000Y-104298500D01*
X169424001Y-104298500D01*
X169565029Y-104260712D01*
X169640393Y-104217201D01*
X169652388Y-104210276D01*
X169696337Y-104198500D01*
X170034641Y-104198500D01*
X170034646Y-104198500D01*
X170103550Y-104188461D01*
X170209840Y-104136499D01*
X170209839Y-104136499D01*
X170216384Y-104133300D01*
X170217365Y-104135308D01*
X170233666Y-104128882D01*
X170233160Y-104126991D01*
X170238724Y-104125500D01*
X170238725Y-104125500D01*
X170335754Y-104099501D01*
X170422747Y-104049276D01*
X170441976Y-104030047D01*
X170496469Y-104004635D01*
X170554548Y-104020195D01*
X170574497Y-104039520D01*
X170607026Y-104082974D01*
X170720285Y-104167758D01*
X170852843Y-104217200D01*
X170911443Y-104223500D01*
X171480556Y-104223499D01*
X171539157Y-104217200D01*
X171671715Y-104167758D01*
X171784974Y-104082974D01*
X171869758Y-103969715D01*
X171919200Y-103837157D01*
X171925500Y-103778557D01*
X171925499Y-103184444D01*
X171919200Y-103125843D01*
X171869758Y-102993285D01*
X171784974Y-102880026D01*
X171671715Y-102795242D01*
X171539157Y-102745800D01*
X171539154Y-102745799D01*
X171539146Y-102745798D01*
X171480561Y-102739500D01*
X170911448Y-102739500D01*
X170852840Y-102745800D01*
X170720284Y-102795242D01*
X170607028Y-102880024D01*
X170607024Y-102880028D01*
X170522242Y-102993284D01*
X170503767Y-103042818D01*
X170464753Y-103088570D01*
X170421409Y-103100000D01*
X170400775Y-103100000D01*
X170303747Y-103125998D01*
X170232302Y-103167245D01*
X170232303Y-103167246D01*
X170216752Y-103176224D01*
X170125908Y-103267068D01*
X170071415Y-103292479D01*
X170051084Y-103291895D01*
X170034646Y-103289500D01*
X170034643Y-103289500D01*
X169696337Y-103289500D01*
X169652388Y-103277724D01*
X169582246Y-103237228D01*
X169565029Y-103227288D01*
X169565028Y-103227287D01*
X169565027Y-103227287D01*
X169424001Y-103189500D01*
X169277999Y-103189500D01*
X169136972Y-103227287D01*
X169049612Y-103277724D01*
X169005663Y-103289500D01*
X168667354Y-103289500D01*
X168598450Y-103299539D01*
X168598448Y-103299540D01*
X168492162Y-103351499D01*
X168408499Y-103435162D01*
X168374114Y-103505500D01*
X168356539Y-103541450D01*
X168346500Y-103610354D01*
X167695500Y-103610354D01*
X167685461Y-103541450D01*
X167633499Y-103435160D01*
X167549840Y-103351501D01*
X167549838Y-103351500D01*
X167549837Y-103351499D01*
X167460276Y-103307716D01*
X167443550Y-103299539D01*
X167374646Y-103289500D01*
X166007354Y-103289500D01*
X165938450Y-103299539D01*
X165832177Y-103351493D01*
X165827930Y-103353569D01*
X165789325Y-103362500D01*
X165572399Y-103362500D01*
X165515898Y-103341935D01*
X165485834Y-103289864D01*
X165484499Y-103274600D01*
X165484499Y-103220448D01*
X165484499Y-103220444D01*
X165478200Y-103161843D01*
X165475338Y-103154171D01*
X165464830Y-103125998D01*
X165428758Y-103029285D01*
X165343974Y-102916026D01*
X165230715Y-102831242D01*
X165098157Y-102781800D01*
X165098154Y-102781799D01*
X165098146Y-102781798D01*
X165039561Y-102775500D01*
X164445448Y-102775500D01*
X164386840Y-102781800D01*
X164254284Y-102831242D01*
X164141028Y-102916024D01*
X164141024Y-102916028D01*
X164056242Y-103029284D01*
X164006800Y-103161843D01*
X164006798Y-103161853D01*
X164000500Y-103220434D01*
X164000500Y-103497066D01*
X163979935Y-103553567D01*
X163974755Y-103559221D01*
X163133220Y-104400755D01*
X163078726Y-104426166D01*
X163071065Y-104426500D01*
X162620448Y-104426500D01*
X162561840Y-104432800D01*
X162429284Y-104482242D01*
X162316028Y-104567024D01*
X162316024Y-104567028D01*
X162231242Y-104680284D01*
X162181800Y-104812843D01*
X162181798Y-104812853D01*
X162175500Y-104871434D01*
X161604821Y-104871434D01*
X161611100Y-104848001D01*
X161611100Y-104701999D01*
X161595006Y-104641935D01*
X161573313Y-104560974D01*
X161573312Y-104560973D01*
X161573312Y-104560971D01*
X161500311Y-104434529D01*
X161397071Y-104331289D01*
X161270629Y-104258288D01*
X161270628Y-104258287D01*
X161270625Y-104258286D01*
X161129601Y-104220500D01*
X161082832Y-104220500D01*
X161026331Y-104199935D01*
X161020677Y-104194755D01*
X160825859Y-103999937D01*
X160610947Y-103785024D01*
X160556118Y-103753369D01*
X160556116Y-103753368D01*
X160556116Y-103753367D01*
X160523952Y-103734798D01*
X160426925Y-103708800D01*
X155987240Y-103708800D01*
X155930739Y-103688235D01*
X155904882Y-103651618D01*
X155888640Y-103608072D01*
X155867758Y-103552085D01*
X155782974Y-103438826D01*
X155725569Y-103395853D01*
X155692663Y-103345532D01*
X155699801Y-103285830D01*
X155743645Y-103244684D01*
X155747507Y-103243138D01*
X155758715Y-103238958D01*
X155871974Y-103154174D01*
X155956758Y-103040915D01*
X156006200Y-102908357D01*
X156012500Y-102849757D01*
X156012499Y-102280644D01*
X156006200Y-102222043D01*
X155956758Y-102089485D01*
X155871974Y-101976226D01*
X155806217Y-101927001D01*
X155758713Y-101891440D01*
X155730735Y-101881005D01*
X155684984Y-101841992D01*
X155675013Y-101782697D01*
X155705490Y-101730866D01*
X155708756Y-101728297D01*
X155771974Y-101680974D01*
X155856758Y-101567715D01*
X155906200Y-101435157D01*
X155912500Y-101376557D01*
X155912499Y-100807444D01*
X155912498Y-100807442D01*
X155912373Y-100805096D01*
X155913562Y-100805032D01*
X155919182Y-100782303D01*
X155923917Y-100755450D01*
X155926320Y-100753433D01*
X155927073Y-100750389D01*
X155949093Y-100734324D01*
X155969977Y-100716801D01*
X155974113Y-100716071D01*
X155975648Y-100714952D01*
X156000041Y-100711500D01*
X156165958Y-100711500D01*
X156222459Y-100732065D01*
X156252523Y-100784136D01*
X156253230Y-100805071D01*
X156253626Y-100805093D01*
X156253500Y-100807443D01*
X156253500Y-101376551D01*
X156259800Y-101435159D01*
X156297894Y-101537290D01*
X156309242Y-101567715D01*
X156394026Y-101680974D01*
X156507285Y-101765758D01*
X156639843Y-101815200D01*
X156698443Y-101821500D01*
X157149066Y-101821499D01*
X157205567Y-101842064D01*
X157211221Y-101847244D01*
X157396253Y-102032276D01*
X157483247Y-102082502D01*
X157580275Y-102108501D01*
X157580276Y-102108501D01*
X157686107Y-102108501D01*
X157686123Y-102108500D01*
X159348905Y-102108500D01*
X159405406Y-102129065D01*
X159425026Y-102152447D01*
X159449289Y-102194471D01*
X159552529Y-102297711D01*
X159678971Y-102370712D01*
X159678973Y-102370712D01*
X159678974Y-102370713D01*
X159819999Y-102408500D01*
X159966000Y-102408500D01*
X159966001Y-102408500D01*
X160107029Y-102370712D01*
X160233471Y-102297711D01*
X160336711Y-102194471D01*
X160409712Y-102068029D01*
X160447500Y-101927001D01*
X160447500Y-101907999D01*
X160608500Y-101907999D01*
X160608500Y-102054001D01*
X160616137Y-102082502D01*
X160646286Y-102195025D01*
X160646287Y-102195028D01*
X160646288Y-102195029D01*
X160719289Y-102321471D01*
X160822529Y-102424711D01*
X160948971Y-102497712D01*
X160948973Y-102497712D01*
X160948974Y-102497713D01*
X161089999Y-102535500D01*
X161236000Y-102535500D01*
X161236001Y-102535500D01*
X161377029Y-102497712D01*
X161503471Y-102424711D01*
X161606711Y-102321471D01*
X161630972Y-102279448D01*
X161677031Y-102240801D01*
X161707095Y-102235500D01*
X165232409Y-102235500D01*
X165288910Y-102256065D01*
X165294564Y-102261246D01*
X165394525Y-102361208D01*
X165394527Y-102361209D01*
X165394529Y-102361211D01*
X165520971Y-102434212D01*
X165520973Y-102434212D01*
X165520974Y-102434213D01*
X165661999Y-102472000D01*
X165808000Y-102472000D01*
X165808001Y-102472000D01*
X165949029Y-102434212D01*
X166075471Y-102361211D01*
X166178711Y-102257971D01*
X166251712Y-102131529D01*
X166289500Y-101990501D01*
X166289500Y-101844499D01*
X166268127Y-101764736D01*
X168467500Y-101764736D01*
X168467500Y-102451249D01*
X168473960Y-102511344D01*
X168522345Y-102641067D01*
X168524658Y-102647267D01*
X168611596Y-102763404D01*
X168727733Y-102850342D01*
X168863658Y-102901040D01*
X168923745Y-102907500D01*
X169835254Y-102907499D01*
X169895342Y-102901040D01*
X170031267Y-102850342D01*
X170147404Y-102763404D01*
X170234342Y-102647267D01*
X170285040Y-102511342D01*
X170291500Y-102451255D01*
X170291499Y-101764746D01*
X170285040Y-101704658D01*
X170284598Y-101703474D01*
X170237436Y-101577029D01*
X170234342Y-101568733D01*
X170147404Y-101452596D01*
X170031267Y-101365658D01*
X170031265Y-101365657D01*
X169961642Y-101339689D01*
X169895342Y-101314960D01*
X169895339Y-101314959D01*
X169895331Y-101314958D01*
X169835259Y-101308500D01*
X168923750Y-101308500D01*
X168863655Y-101314960D01*
X168727734Y-101365657D01*
X168611598Y-101452594D01*
X168611594Y-101452598D01*
X168524657Y-101568734D01*
X168473960Y-101704658D01*
X168473958Y-101704668D01*
X168467500Y-101764736D01*
X166268127Y-101764736D01*
X166259052Y-101730866D01*
X166251713Y-101703474D01*
X166251712Y-101703473D01*
X166251712Y-101703471D01*
X166178711Y-101577029D01*
X166075471Y-101473789D01*
X165949029Y-101400788D01*
X165949028Y-101400787D01*
X165949025Y-101400786D01*
X165808001Y-101363000D01*
X165661999Y-101363000D01*
X165520972Y-101400787D01*
X165450173Y-101441663D01*
X165431234Y-101452598D01*
X165417159Y-101460724D01*
X165373209Y-101472500D01*
X161414340Y-101472500D01*
X161380704Y-101465810D01*
X161377029Y-101464287D01*
X161236001Y-101426500D01*
X161089999Y-101426500D01*
X160948974Y-101464286D01*
X160822527Y-101537290D01*
X160719290Y-101640527D01*
X160646286Y-101766974D01*
X160622188Y-101856913D01*
X160608500Y-101907999D01*
X160447500Y-101907999D01*
X160447500Y-101780999D01*
X160427044Y-101704655D01*
X160409713Y-101639974D01*
X160409712Y-101639973D01*
X160409712Y-101639971D01*
X160336711Y-101513529D01*
X160233471Y-101410289D01*
X160107029Y-101337288D01*
X160107028Y-101337287D01*
X160107025Y-101337286D01*
X159966001Y-101299500D01*
X159819999Y-101299500D01*
X159678970Y-101337287D01*
X159675296Y-101338810D01*
X159641660Y-101345500D01*
X157825399Y-101345500D01*
X157768898Y-101324935D01*
X157738834Y-101272864D01*
X157737499Y-101257600D01*
X157737499Y-100807448D01*
X157737499Y-100807444D01*
X157731200Y-100748843D01*
X157681758Y-100616285D01*
X157596974Y-100503026D01*
X157596973Y-100503025D01*
X157593206Y-100497993D01*
X157595021Y-100496633D01*
X157573491Y-100450461D01*
X157589054Y-100392383D01*
X157638307Y-100357895D01*
X157661057Y-100354900D01*
X157905508Y-100354900D01*
X157962009Y-100375465D01*
X157967663Y-100380645D01*
X158004129Y-100417111D01*
X158130571Y-100490112D01*
X158130573Y-100490112D01*
X158130574Y-100490113D01*
X158271599Y-100527900D01*
X158417600Y-100527900D01*
X158417601Y-100527900D01*
X158558629Y-100490112D01*
X158685071Y-100417111D01*
X158721537Y-100380645D01*
X158776031Y-100355234D01*
X158783692Y-100354900D01*
X164109824Y-100354900D01*
X164109825Y-100354900D01*
X164206854Y-100328901D01*
X164257893Y-100299434D01*
X175965500Y-100299434D01*
X175965500Y-100868551D01*
X175971800Y-100927159D01*
X176019930Y-101056198D01*
X176021242Y-101059715D01*
X176106026Y-101172974D01*
X176219285Y-101257758D01*
X176351843Y-101307200D01*
X176410443Y-101313500D01*
X177104556Y-101313499D01*
X177163157Y-101307200D01*
X177295715Y-101257758D01*
X177408974Y-101172974D01*
X177493758Y-101059715D01*
X177543200Y-100927157D01*
X177549500Y-100868557D01*
X177549499Y-100299444D01*
X177543200Y-100240843D01*
X177539112Y-100229884D01*
X177530818Y-100207647D01*
X177493758Y-100108285D01*
X177408974Y-99995026D01*
X177295715Y-99910242D01*
X177163157Y-99860800D01*
X177163154Y-99860799D01*
X177163146Y-99860798D01*
X177104561Y-99854500D01*
X176410448Y-99854500D01*
X176351840Y-99860800D01*
X176219284Y-99910242D01*
X176106028Y-99995024D01*
X176106024Y-99995028D01*
X176021242Y-100108284D01*
X175971800Y-100240843D01*
X175971798Y-100240853D01*
X175965500Y-100299434D01*
X164257893Y-100299434D01*
X164293847Y-100278676D01*
X164364876Y-100207647D01*
X164623278Y-99949243D01*
X164677772Y-99923834D01*
X164685433Y-99923499D01*
X165607068Y-99923499D01*
X165625561Y-99919820D01*
X165681301Y-99908734D01*
X165765484Y-99852484D01*
X165821734Y-99768301D01*
X165836500Y-99694067D01*
X165836500Y-99529400D01*
X165857065Y-99472899D01*
X165909136Y-99442835D01*
X165924400Y-99441500D01*
X168365905Y-99441500D01*
X168422406Y-99462065D01*
X168442026Y-99485447D01*
X168466289Y-99527471D01*
X168569529Y-99630711D01*
X168695971Y-99703712D01*
X168695973Y-99703712D01*
X168695974Y-99703713D01*
X168836999Y-99741500D01*
X168983000Y-99741500D01*
X168983001Y-99741500D01*
X169124029Y-99703712D01*
X169250471Y-99630711D01*
X169353711Y-99527471D01*
X169426712Y-99401029D01*
X169464500Y-99260001D01*
X169464500Y-99113999D01*
X169439320Y-99020025D01*
X169426713Y-98972974D01*
X169426712Y-98972973D01*
X169426712Y-98972971D01*
X169353711Y-98846529D01*
X169250471Y-98743289D01*
X169124029Y-98670288D01*
X169124028Y-98670287D01*
X169124025Y-98670286D01*
X168983001Y-98632500D01*
X168836999Y-98632500D01*
X168695970Y-98670287D01*
X168692296Y-98671810D01*
X168658660Y-98678500D01*
X165924399Y-98678500D01*
X165867898Y-98657935D01*
X165837834Y-98605864D01*
X165836499Y-98590600D01*
X165836499Y-98425931D01*
X165823840Y-98362289D01*
X165821734Y-98351699D01*
X165765484Y-98267516D01*
X165741515Y-98251500D01*
X165681301Y-98211265D01*
X165628192Y-98200702D01*
X165607067Y-98196500D01*
X165607065Y-98196500D01*
X164338931Y-98196500D01*
X164264699Y-98211266D01*
X164180517Y-98267515D01*
X164180514Y-98267518D01*
X164124265Y-98351698D01*
X164116791Y-98389277D01*
X164109501Y-98425931D01*
X164109500Y-98425934D01*
X164109500Y-99347566D01*
X164088935Y-99404067D01*
X164083755Y-99409720D01*
X163927322Y-99566154D01*
X163872828Y-99591565D01*
X163865167Y-99591900D01*
X160738878Y-99591900D01*
X160682377Y-99571335D01*
X160652313Y-99519264D01*
X160657669Y-99470362D01*
X160687503Y-99398335D01*
X160723316Y-99311874D01*
X160726026Y-99298253D01*
X160742078Y-99217551D01*
X160756500Y-99145047D01*
X160756500Y-98974953D01*
X160730955Y-98846529D01*
X160723317Y-98808129D01*
X160723316Y-98808127D01*
X160723316Y-98808126D01*
X160672970Y-98686581D01*
X160658225Y-98650981D01*
X160656533Y-98648448D01*
X160563724Y-98509551D01*
X160443449Y-98389276D01*
X160302021Y-98294776D01*
X160302020Y-98294775D01*
X160302018Y-98294774D01*
X160227572Y-98263938D01*
X160183242Y-98223317D01*
X160175394Y-98163704D01*
X160207700Y-98112993D01*
X160230489Y-98100372D01*
X160277715Y-98082758D01*
X160390974Y-97997974D01*
X160475758Y-97884715D01*
X160525200Y-97752157D01*
X160531500Y-97693557D01*
X160531499Y-97124444D01*
X160525200Y-97065843D01*
X160475758Y-96933285D01*
X160475756Y-96933283D01*
X160475756Y-96933281D01*
X160472745Y-96927766D01*
X160474815Y-96926635D01*
X160460152Y-96878121D01*
X160483821Y-96822848D01*
X160537481Y-96795722D01*
X160547916Y-96795100D01*
X161612908Y-96795100D01*
X161669409Y-96815665D01*
X161675063Y-96820845D01*
X161711529Y-96857311D01*
X161837971Y-96930312D01*
X161837973Y-96930312D01*
X161837974Y-96930313D01*
X161978999Y-96968100D01*
X162125000Y-96968100D01*
X162125001Y-96968100D01*
X162266029Y-96930312D01*
X162392471Y-96857311D01*
X162495711Y-96754071D01*
X162568712Y-96627629D01*
X162606500Y-96486601D01*
X162606500Y-96354400D01*
X162627065Y-96297899D01*
X162679136Y-96267835D01*
X162694400Y-96266500D01*
X170300869Y-96266500D01*
X170357370Y-96287065D01*
X170384393Y-96333868D01*
X170386009Y-96333436D01*
X170425286Y-96480025D01*
X170425287Y-96480028D01*
X170425288Y-96480029D01*
X170498289Y-96606471D01*
X170601529Y-96709711D01*
X170727971Y-96782712D01*
X170727973Y-96782712D01*
X170727974Y-96782713D01*
X170868999Y-96820500D01*
X171014999Y-96820500D01*
X171015001Y-96820500D01*
X171117852Y-96792941D01*
X171177748Y-96798181D01*
X171220264Y-96840697D01*
X171228500Y-96877846D01*
X171228500Y-97348551D01*
X171228501Y-97348556D01*
X171232784Y-97388407D01*
X171218376Y-97446781D01*
X171169816Y-97482238D01*
X171145388Y-97485700D01*
X170895666Y-97485700D01*
X170839165Y-97465135D01*
X170819545Y-97441753D01*
X170750711Y-97322529D01*
X170647471Y-97219289D01*
X170521029Y-97146288D01*
X170521028Y-97146287D01*
X170521025Y-97146286D01*
X170380001Y-97108500D01*
X170233999Y-97108500D01*
X170092974Y-97146286D01*
X169966527Y-97219290D01*
X169863290Y-97322527D01*
X169790286Y-97448974D01*
X169766155Y-97539036D01*
X169752500Y-97589999D01*
X169752500Y-97736001D01*
X169760964Y-97767590D01*
X169790286Y-97877025D01*
X169790287Y-97877028D01*
X169790288Y-97877029D01*
X169863289Y-98003471D01*
X169966529Y-98106711D01*
X170092971Y-98179712D01*
X170092973Y-98179712D01*
X170092974Y-98179713D01*
X170233999Y-98217500D01*
X170333904Y-98217500D01*
X170358085Y-98222310D01*
X170358380Y-98221210D01*
X170460975Y-98248700D01*
X170883908Y-98248700D01*
X170940409Y-98269265D01*
X170970473Y-98321336D01*
X170960032Y-98380550D01*
X170946063Y-98398755D01*
X170879290Y-98465527D01*
X170806286Y-98591974D01*
X170768500Y-98732999D01*
X170768500Y-98879000D01*
X170806286Y-99020025D01*
X170806287Y-99020028D01*
X170806288Y-99020029D01*
X170879289Y-99146471D01*
X170982529Y-99249711D01*
X171108971Y-99322712D01*
X171108973Y-99322712D01*
X171108974Y-99322713D01*
X171249999Y-99360500D01*
X171396000Y-99360500D01*
X171396001Y-99360500D01*
X171537029Y-99322712D01*
X171663471Y-99249711D01*
X171699937Y-99213245D01*
X171754431Y-99187834D01*
X171762092Y-99187500D01*
X172507312Y-99187500D01*
X172563813Y-99208065D01*
X172593877Y-99260136D01*
X172594708Y-99266005D01*
X172595798Y-99276153D01*
X172595800Y-99276158D01*
X172636015Y-99383976D01*
X172645242Y-99408715D01*
X172730026Y-99521974D01*
X172843285Y-99606758D01*
X172975843Y-99656200D01*
X173034443Y-99662500D01*
X173628556Y-99662499D01*
X173687157Y-99656200D01*
X173819715Y-99606758D01*
X173932974Y-99521974D01*
X174017758Y-99408715D01*
X174067200Y-99276157D01*
X174073500Y-99217557D01*
X174073499Y-98648444D01*
X174067200Y-98589843D01*
X174063366Y-98579565D01*
X174036520Y-98507588D01*
X174017758Y-98457285D01*
X174003307Y-98437981D01*
X173966848Y-98389277D01*
X173949450Y-98331721D01*
X173973119Y-98276449D01*
X174026779Y-98249322D01*
X174037215Y-98248700D01*
X174450785Y-98248700D01*
X174507286Y-98269265D01*
X174537350Y-98321336D01*
X174526909Y-98380550D01*
X174521152Y-98389277D01*
X174470242Y-98457283D01*
X174420800Y-98589843D01*
X174420798Y-98589853D01*
X174414500Y-98648434D01*
X174414500Y-99217551D01*
X174420800Y-99276159D01*
X174461015Y-99383976D01*
X174470242Y-99408715D01*
X174555026Y-99521974D01*
X174668285Y-99606758D01*
X174800843Y-99656200D01*
X174859443Y-99662500D01*
X175453556Y-99662499D01*
X175512157Y-99656200D01*
X175644715Y-99606758D01*
X175757974Y-99521974D01*
X175842758Y-99408715D01*
X175892200Y-99276157D01*
X175898500Y-99217557D01*
X175898499Y-98648444D01*
X175898498Y-98648434D01*
X176145500Y-98648434D01*
X176145500Y-99217551D01*
X176151800Y-99276159D01*
X176192015Y-99383976D01*
X176201242Y-99408715D01*
X176286026Y-99521974D01*
X176399285Y-99606758D01*
X176531843Y-99656200D01*
X176590443Y-99662500D01*
X177284556Y-99662499D01*
X177343157Y-99656200D01*
X177475715Y-99606758D01*
X177588974Y-99521974D01*
X177673758Y-99408715D01*
X177723200Y-99276157D01*
X177729500Y-99217557D01*
X177729499Y-98648444D01*
X177723200Y-98589843D01*
X177719366Y-98579565D01*
X177692520Y-98507588D01*
X177673758Y-98457285D01*
X177588974Y-98344026D01*
X177475715Y-98259242D01*
X177343157Y-98209800D01*
X177343154Y-98209799D01*
X177343146Y-98209798D01*
X177284561Y-98203500D01*
X176590448Y-98203500D01*
X176531840Y-98209800D01*
X176399284Y-98259242D01*
X176286028Y-98344024D01*
X176286024Y-98344028D01*
X176201242Y-98457284D01*
X176151800Y-98589843D01*
X176151798Y-98589853D01*
X176145500Y-98648434D01*
X175898498Y-98648434D01*
X175892200Y-98589843D01*
X175888366Y-98579565D01*
X175861520Y-98507588D01*
X175842758Y-98457285D01*
X175757974Y-98344026D01*
X175669401Y-98277721D01*
X175636494Y-98227400D01*
X175643632Y-98167698D01*
X175659924Y-98145200D01*
X175703677Y-98101447D01*
X175807153Y-97997971D01*
X175911480Y-97893643D01*
X175965973Y-97868234D01*
X176007270Y-97874589D01*
X176013897Y-97877334D01*
X176024460Y-97879435D01*
X176088132Y-97892100D01*
X176493865Y-97892099D01*
X176493867Y-97892099D01*
X176528717Y-97885167D01*
X176568100Y-97877334D01*
X176568102Y-97877332D01*
X176576102Y-97874020D01*
X176576761Y-97875612D01*
X176625560Y-97863667D01*
X176655654Y-97874617D01*
X176655902Y-97874021D01*
X176663895Y-97877331D01*
X176663899Y-97877334D01*
X176738133Y-97892100D01*
X177143866Y-97892099D01*
X177143868Y-97892099D01*
X177178718Y-97885167D01*
X177218101Y-97877334D01*
X177218103Y-97877332D01*
X177226103Y-97874020D01*
X177226762Y-97875612D01*
X177275563Y-97863668D01*
X177305650Y-97874617D01*
X177305898Y-97874021D01*
X177313895Y-97877333D01*
X177313897Y-97877333D01*
X177313898Y-97877334D01*
X177388132Y-97892100D01*
X177793865Y-97892099D01*
X177793867Y-97892099D01*
X177812360Y-97888420D01*
X177868100Y-97877334D01*
X177952283Y-97821084D01*
X178008533Y-97736901D01*
X178023299Y-97662667D01*
X178023299Y-97393900D01*
X178043864Y-97337399D01*
X178095935Y-97307335D01*
X178111199Y-97306000D01*
X178422409Y-97306000D01*
X178478910Y-97326565D01*
X178504766Y-97363181D01*
X178523242Y-97412715D01*
X178608026Y-97525974D01*
X178721285Y-97610758D01*
X178853843Y-97660200D01*
X178912443Y-97666500D01*
X179481556Y-97666499D01*
X179540157Y-97660200D01*
X179672715Y-97610758D01*
X179785974Y-97525974D01*
X179870758Y-97412715D01*
X179920200Y-97280157D01*
X179926500Y-97221557D01*
X179926499Y-96627444D01*
X179920200Y-96568843D01*
X179870758Y-96436285D01*
X179785974Y-96323026D01*
X179672715Y-96238242D01*
X179540157Y-96188800D01*
X179540154Y-96188799D01*
X179540146Y-96188798D01*
X179481561Y-96182500D01*
X178912448Y-96182500D01*
X178853840Y-96188800D01*
X178721284Y-96238242D01*
X178608028Y-96323024D01*
X178608024Y-96323028D01*
X178523242Y-96436284D01*
X178504767Y-96485818D01*
X178465753Y-96531570D01*
X178422409Y-96543000D01*
X178111198Y-96543000D01*
X178054697Y-96522435D01*
X178024633Y-96470364D01*
X178023298Y-96455100D01*
X178023298Y-96139331D01*
X178017779Y-96111590D01*
X178008533Y-96065099D01*
X177952283Y-95980916D01*
X177951897Y-95980658D01*
X177868100Y-95924665D01*
X177808229Y-95912757D01*
X177793866Y-95909900D01*
X177793864Y-95909900D01*
X177388130Y-95909900D01*
X177313897Y-95924666D01*
X177305897Y-95927980D01*
X177305238Y-95926390D01*
X177256422Y-95938331D01*
X177226348Y-95927382D01*
X177226101Y-95927979D01*
X177218103Y-95924666D01*
X177180984Y-95917283D01*
X177143867Y-95909900D01*
X177143865Y-95909900D01*
X176738131Y-95909900D01*
X176663898Y-95924666D01*
X176655901Y-95927979D01*
X176655242Y-95926390D01*
X176606419Y-95938331D01*
X176594958Y-95936300D01*
X176579988Y-95932609D01*
X176568100Y-95924666D01*
X176493866Y-95909900D01*
X176487874Y-95909900D01*
X176477750Y-95907404D01*
X176458822Y-95894709D01*
X176436636Y-95884214D01*
X176393921Y-95841499D01*
X176348244Y-95795821D01*
X176322834Y-95741329D01*
X176322500Y-95733668D01*
X176322500Y-95682099D01*
X176295068Y-95579722D01*
X176284712Y-95541071D01*
X176274800Y-95523904D01*
X176264360Y-95464692D01*
X176294424Y-95412620D01*
X176328175Y-95395051D01*
X176363025Y-95385713D01*
X176363024Y-95385713D01*
X176363029Y-95385712D01*
X176489471Y-95312711D01*
X176592711Y-95209471D01*
X176665712Y-95083029D01*
X176703500Y-94942001D01*
X176703500Y-94802434D01*
X178467500Y-94802434D01*
X178467500Y-95396551D01*
X178473800Y-95455159D01*
X178507870Y-95546502D01*
X178523242Y-95587715D01*
X178608026Y-95700974D01*
X178721285Y-95785758D01*
X178853843Y-95835200D01*
X178912443Y-95841500D01*
X179481556Y-95841499D01*
X179540157Y-95835200D01*
X179672715Y-95785758D01*
X179785974Y-95700974D01*
X179870758Y-95587715D01*
X179920200Y-95455157D01*
X179926500Y-95396557D01*
X179926499Y-94802444D01*
X179920200Y-94743843D01*
X179870758Y-94611285D01*
X179785974Y-94498026D01*
X179672715Y-94413242D01*
X179540157Y-94363800D01*
X179540154Y-94363799D01*
X179540146Y-94363798D01*
X179481561Y-94357500D01*
X178912448Y-94357500D01*
X178853840Y-94363800D01*
X178721284Y-94413242D01*
X178608028Y-94498024D01*
X178608024Y-94498028D01*
X178523242Y-94611284D01*
X178473800Y-94743843D01*
X178473798Y-94743853D01*
X178467500Y-94802434D01*
X176703500Y-94802434D01*
X176703500Y-94795999D01*
X176701308Y-94787818D01*
X176665713Y-94654974D01*
X176665712Y-94654973D01*
X176665712Y-94654971D01*
X176592711Y-94528529D01*
X176489471Y-94425289D01*
X176363029Y-94352288D01*
X176363028Y-94352287D01*
X176363025Y-94352286D01*
X176222001Y-94314500D01*
X176075999Y-94314500D01*
X175934974Y-94352286D01*
X175808527Y-94425290D01*
X175705290Y-94528527D01*
X175632286Y-94654974D01*
X175598827Y-94779850D01*
X175564340Y-94829103D01*
X175513922Y-94845000D01*
X172732591Y-94845000D01*
X172676090Y-94824435D01*
X172650233Y-94787818D01*
X172634747Y-94746300D01*
X172631758Y-94738285D01*
X172546974Y-94625026D01*
X172433715Y-94540242D01*
X172301157Y-94490800D01*
X172301154Y-94490799D01*
X172301146Y-94490798D01*
X172242561Y-94484500D01*
X171673448Y-94484500D01*
X171614840Y-94490800D01*
X171482284Y-94540242D01*
X171369028Y-94625024D01*
X171369024Y-94625028D01*
X171284242Y-94738284D01*
X171234800Y-94870843D01*
X171234798Y-94870853D01*
X171228500Y-94929434D01*
X171228500Y-95523551D01*
X171234800Y-95582159D01*
X171253220Y-95631543D01*
X171253697Y-95691668D01*
X171215415Y-95738033D01*
X171156286Y-95748944D01*
X171148112Y-95747166D01*
X171015001Y-95711500D01*
X170963433Y-95711500D01*
X170906932Y-95690935D01*
X170901278Y-95685755D01*
X170795245Y-95579722D01*
X170744631Y-95550500D01*
X170744631Y-95550501D01*
X170728297Y-95541071D01*
X170708254Y-95529499D01*
X170708251Y-95529498D01*
X170611225Y-95503500D01*
X152119901Y-95503500D01*
X152063400Y-95482935D01*
X152033336Y-95430864D01*
X152034996Y-95392851D01*
X152036908Y-95385713D01*
X152040100Y-95373801D01*
X152040100Y-95227799D01*
X152013896Y-95130004D01*
X152002313Y-95086774D01*
X152002312Y-95086773D01*
X152002312Y-95086771D01*
X151929311Y-94960329D01*
X151826071Y-94857089D01*
X151699629Y-94784088D01*
X151699628Y-94784087D01*
X151699625Y-94784086D01*
X151558601Y-94746300D01*
X151507033Y-94746300D01*
X151450532Y-94725735D01*
X151444878Y-94720555D01*
X151211847Y-94487524D01*
X151178152Y-94468070D01*
X151178152Y-94468069D01*
X151124852Y-94437298D01*
X151027825Y-94411300D01*
X149936775Y-94411300D01*
X149839749Y-94437297D01*
X149752751Y-94487525D01*
X149681722Y-94558553D01*
X149681722Y-94558554D01*
X149558177Y-94682100D01*
X149473722Y-94766555D01*
X149419228Y-94791966D01*
X149411567Y-94792300D01*
X143607633Y-94792300D01*
X143551132Y-94771735D01*
X143545478Y-94766555D01*
X142947245Y-94168322D01*
X142939134Y-94150930D01*
X142926801Y-94136231D01*
X142923469Y-94117334D01*
X142921834Y-94113828D01*
X142921500Y-94106167D01*
X142921500Y-94068400D01*
X142942065Y-94011899D01*
X142994136Y-93981835D01*
X143009400Y-93980500D01*
X148031775Y-93980500D01*
X148109655Y-93980500D01*
X148166156Y-94001065D01*
X148194560Y-94045652D01*
X148200286Y-94067024D01*
X148200287Y-94067025D01*
X148200288Y-94067029D01*
X148273289Y-94193471D01*
X148376529Y-94296711D01*
X148502971Y-94369712D01*
X148502973Y-94369712D01*
X148502974Y-94369713D01*
X148643999Y-94407500D01*
X148790000Y-94407500D01*
X148790001Y-94407500D01*
X148931029Y-94369712D01*
X149057471Y-94296711D01*
X149160711Y-94193471D01*
X149233712Y-94067029D01*
X149271500Y-93926001D01*
X149271500Y-93779999D01*
X149233712Y-93638971D01*
X149160711Y-93512529D01*
X149057471Y-93409289D01*
X148931029Y-93336288D01*
X148931028Y-93336287D01*
X148931025Y-93336286D01*
X148790001Y-93298500D01*
X148729072Y-93298500D01*
X148720009Y-93296071D01*
X148713809Y-93297165D01*
X148685122Y-93286724D01*
X148634021Y-93257221D01*
X148634020Y-93257220D01*
X148634019Y-93257220D01*
X148610252Y-93243498D01*
X148610254Y-93243498D01*
X148513225Y-93217500D01*
X148132225Y-93217500D01*
X130877433Y-93217500D01*
X130859400Y-93210936D01*
X130840285Y-93209264D01*
X130824564Y-93198257D01*
X130820932Y-93196935D01*
X130815278Y-93191755D01*
X130771547Y-93148024D01*
X130746136Y-93093530D01*
X130752494Y-93052230D01*
X130771434Y-93006506D01*
X130771436Y-93006502D01*
X130810500Y-92810116D01*
X130810500Y-92609884D01*
X130789140Y-92502500D01*
X130771438Y-92413506D01*
X130771437Y-92413503D01*
X130771436Y-92413498D01*
X130694810Y-92228507D01*
X130583567Y-92062019D01*
X130441981Y-91920433D01*
X130441977Y-91920430D01*
X130441976Y-91920429D01*
X130275496Y-91809192D01*
X130275495Y-91809191D01*
X130275493Y-91809190D01*
X130090502Y-91732564D01*
X130090498Y-91732563D01*
X130090493Y-91732561D01*
X129942711Y-91703166D01*
X129894116Y-91693500D01*
X129693884Y-91693500D01*
X129650639Y-91702101D01*
X129497506Y-91732561D01*
X129497501Y-91732563D01*
X129497499Y-91732563D01*
X129497498Y-91732564D01*
X129312507Y-91809190D01*
X129312505Y-91809190D01*
X129312503Y-91809192D01*
X129146023Y-91920429D01*
X129004429Y-92062023D01*
X128893192Y-92228503D01*
X128893190Y-92228505D01*
X128893190Y-92228507D01*
X128816564Y-92413498D01*
X128816563Y-92413501D01*
X128816561Y-92413506D01*
X128777500Y-92609885D01*
X128777500Y-92810114D01*
X128816561Y-93006493D01*
X128816563Y-93006498D01*
X128816564Y-93006502D01*
X128893190Y-93191493D01*
X128893191Y-93191495D01*
X128893192Y-93191496D01*
X129004429Y-93357976D01*
X129004430Y-93357977D01*
X129004433Y-93357981D01*
X129146019Y-93499567D01*
X129312507Y-93610810D01*
X129497498Y-93687436D01*
X129497503Y-93687437D01*
X129497506Y-93687438D01*
X129597017Y-93707231D01*
X129693884Y-93726500D01*
X129693886Y-93726500D01*
X129894114Y-93726500D01*
X129894116Y-93726500D01*
X130022694Y-93700923D01*
X130090493Y-93687438D01*
X130090494Y-93687437D01*
X130090502Y-93687436D01*
X130136231Y-93668493D01*
X130196299Y-93665870D01*
X130232024Y-93687547D01*
X130448753Y-93904276D01*
X130535747Y-93954502D01*
X130535749Y-93954502D01*
X130535750Y-93954503D01*
X130632775Y-93980500D01*
X141724600Y-93980500D01*
X141781101Y-94001065D01*
X141811165Y-94053136D01*
X141812500Y-94068400D01*
X141812500Y-94200600D01*
X141850286Y-94341625D01*
X141850287Y-94341628D01*
X141850288Y-94341629D01*
X141923289Y-94468071D01*
X142026529Y-94571311D01*
X142152971Y-94644312D01*
X142152973Y-94644312D01*
X142152974Y-94644313D01*
X142293999Y-94682100D01*
X142345567Y-94682100D01*
X142402068Y-94702665D01*
X142407722Y-94707845D01*
X142697722Y-94997845D01*
X142723133Y-95052339D01*
X142707570Y-95110417D01*
X142658317Y-95144905D01*
X142635567Y-95147900D01*
X138381387Y-95147900D01*
X138366955Y-95142707D01*
X138351929Y-95142817D01*
X138331653Y-95130004D01*
X138325380Y-95127747D01*
X138322171Y-95125094D01*
X138248201Y-95051124D01*
X138203179Y-95025131D01*
X138196798Y-95021447D01*
X138196797Y-95021446D01*
X138161206Y-95000898D01*
X138064179Y-94974900D01*
X130839034Y-94974900D01*
X130782533Y-94954335D01*
X130757825Y-94920638D01*
X130731502Y-94857090D01*
X130694810Y-94768507D01*
X130598940Y-94625026D01*
X130583570Y-94602023D01*
X130583569Y-94602022D01*
X130583567Y-94602019D01*
X130441981Y-94460433D01*
X130441977Y-94460430D01*
X130441976Y-94460429D01*
X130275496Y-94349192D01*
X130275495Y-94349191D01*
X130275493Y-94349190D01*
X130090502Y-94272564D01*
X130090498Y-94272563D01*
X130090493Y-94272561D01*
X129942711Y-94243166D01*
X129894116Y-94233500D01*
X129693884Y-94233500D01*
X129650639Y-94242101D01*
X129497506Y-94272561D01*
X129497501Y-94272563D01*
X129497499Y-94272563D01*
X129497498Y-94272564D01*
X129312507Y-94349190D01*
X129312505Y-94349190D01*
X129312503Y-94349192D01*
X129146023Y-94460429D01*
X129004429Y-94602023D01*
X128893192Y-94768503D01*
X128893190Y-94768505D01*
X128893190Y-94768507D01*
X128856498Y-94857089D01*
X128816563Y-94953501D01*
X128816561Y-94953506D01*
X128782333Y-95125586D01*
X128777500Y-95149884D01*
X128777500Y-95350116D01*
X128784581Y-95385712D01*
X128816561Y-95546493D01*
X128816563Y-95546498D01*
X128816564Y-95546502D01*
X128893190Y-95731493D01*
X128893191Y-95731495D01*
X128893192Y-95731496D01*
X129004429Y-95897976D01*
X129004430Y-95897977D01*
X129004433Y-95897981D01*
X129146019Y-96039567D01*
X129146022Y-96039569D01*
X129146023Y-96039570D01*
X129229263Y-96095188D01*
X129312507Y-96150810D01*
X129497498Y-96227436D01*
X129497503Y-96227437D01*
X129497506Y-96227438D01*
X129597017Y-96247231D01*
X129693884Y-96266500D01*
X129693886Y-96266500D01*
X129894114Y-96266500D01*
X129894116Y-96266500D01*
X130036177Y-96238242D01*
X130090493Y-96227438D01*
X130090494Y-96227437D01*
X130090502Y-96227436D01*
X130275493Y-96150810D01*
X130441981Y-96039567D01*
X130583567Y-95897981D01*
X130664426Y-95776965D01*
X130712915Y-95741412D01*
X130737512Y-95737900D01*
X137152600Y-95737900D01*
X137209101Y-95758465D01*
X137239165Y-95810536D01*
X137240500Y-95825800D01*
X137240500Y-95958001D01*
X137246640Y-95980915D01*
X137278286Y-96099025D01*
X137278287Y-96099028D01*
X137278288Y-96099029D01*
X137351289Y-96225471D01*
X137454529Y-96328711D01*
X137580971Y-96401712D01*
X137580973Y-96401712D01*
X137580974Y-96401713D01*
X137721999Y-96439500D01*
X137868000Y-96439500D01*
X137868001Y-96439500D01*
X138009029Y-96401712D01*
X138135471Y-96328711D01*
X138171937Y-96292245D01*
X138226431Y-96266834D01*
X138234092Y-96266500D01*
X148220188Y-96266500D01*
X148276689Y-96287065D01*
X148306753Y-96339136D01*
X148306399Y-96371547D01*
X148295701Y-96425333D01*
X148295701Y-96771461D01*
X148283925Y-96815410D01*
X148211288Y-96941222D01*
X148173501Y-97082249D01*
X148173501Y-97228250D01*
X148211287Y-97369275D01*
X148211288Y-97369277D01*
X148211289Y-97369279D01*
X148283925Y-97495090D01*
X148286353Y-97504149D01*
X148290400Y-97508972D01*
X148295701Y-97539036D01*
X148295701Y-97589999D01*
X148295702Y-97620299D01*
X148275138Y-97676800D01*
X148223067Y-97706864D01*
X148207802Y-97708200D01*
X130886281Y-97708200D01*
X130829780Y-97687635D01*
X130800070Y-97637448D01*
X130771438Y-97493506D01*
X130771437Y-97493503D01*
X130771436Y-97493498D01*
X130694810Y-97308507D01*
X130636712Y-97221557D01*
X130583570Y-97142023D01*
X130583569Y-97142022D01*
X130583567Y-97142019D01*
X130441981Y-97000433D01*
X130441977Y-97000430D01*
X130441976Y-97000429D01*
X130275496Y-96889192D01*
X130275495Y-96889191D01*
X130275493Y-96889190D01*
X130090502Y-96812564D01*
X130090498Y-96812563D01*
X130090493Y-96812561D01*
X129940427Y-96782712D01*
X129894116Y-96773500D01*
X129693884Y-96773500D01*
X129650639Y-96782101D01*
X129497506Y-96812561D01*
X129497501Y-96812563D01*
X129497499Y-96812563D01*
X129497498Y-96812564D01*
X129312507Y-96889190D01*
X129312505Y-96889190D01*
X129312503Y-96889192D01*
X129146023Y-97000429D01*
X129004429Y-97142023D01*
X128893192Y-97308503D01*
X128893190Y-97308505D01*
X128893190Y-97308507D01*
X128821228Y-97482238D01*
X128816563Y-97493501D01*
X128816561Y-97493506D01*
X128793239Y-97610757D01*
X128777500Y-97689884D01*
X128777500Y-97890116D01*
X128777895Y-97892100D01*
X128816561Y-98086493D01*
X128816563Y-98086498D01*
X128816564Y-98086502D01*
X128893190Y-98271493D01*
X128893191Y-98271495D01*
X128893192Y-98271496D01*
X129004429Y-98437976D01*
X129004430Y-98437977D01*
X129004433Y-98437981D01*
X129146019Y-98579567D01*
X129146022Y-98579569D01*
X129146023Y-98579570D01*
X129176120Y-98599680D01*
X129312507Y-98690810D01*
X129497498Y-98767436D01*
X129497503Y-98767437D01*
X129497506Y-98767438D01*
X129597017Y-98787231D01*
X129693884Y-98806500D01*
X129693886Y-98806500D01*
X129894114Y-98806500D01*
X129894116Y-98806500D01*
X130022694Y-98780923D01*
X130090493Y-98767438D01*
X130090494Y-98767437D01*
X130090502Y-98767436D01*
X130275493Y-98690810D01*
X130441981Y-98579567D01*
X130501325Y-98520223D01*
X130524604Y-98496945D01*
X130579098Y-98471534D01*
X130586758Y-98471200D01*
X136223452Y-98471200D01*
X136279953Y-98491765D01*
X136310017Y-98543836D01*
X136299576Y-98603050D01*
X136296546Y-98607920D01*
X136282134Y-98629490D01*
X136267774Y-98650981D01*
X136202684Y-98808125D01*
X136202682Y-98808129D01*
X136173619Y-98954242D01*
X136169500Y-98974953D01*
X136169500Y-99145047D01*
X136177739Y-99186468D01*
X136202682Y-99311870D01*
X136202684Y-99311874D01*
X136267774Y-99469018D01*
X136267775Y-99469020D01*
X136267776Y-99469021D01*
X136362276Y-99610449D01*
X136482551Y-99730724D01*
X136567543Y-99787514D01*
X136603096Y-99836003D01*
X136599164Y-99896002D01*
X136557585Y-99939435D01*
X136518708Y-99948500D01*
X130794962Y-99948500D01*
X130738461Y-99927935D01*
X130713754Y-99894239D01*
X130694811Y-99848510D01*
X130694810Y-99848507D01*
X130654056Y-99787514D01*
X130583570Y-99682023D01*
X130583569Y-99682022D01*
X130583567Y-99682019D01*
X130441981Y-99540433D01*
X130441977Y-99540430D01*
X130441976Y-99540429D01*
X130275496Y-99429192D01*
X130275495Y-99429191D01*
X130275493Y-99429190D01*
X130090502Y-99352564D01*
X130090498Y-99352563D01*
X130090493Y-99352561D01*
X129940427Y-99322712D01*
X129894116Y-99313500D01*
X129693884Y-99313500D01*
X129650639Y-99322101D01*
X129497506Y-99352561D01*
X129497501Y-99352563D01*
X129497499Y-99352563D01*
X129497498Y-99352564D01*
X129312507Y-99429190D01*
X129312505Y-99429190D01*
X129312503Y-99429192D01*
X129146023Y-99540429D01*
X129004429Y-99682023D01*
X128893192Y-99848503D01*
X128893192Y-99848504D01*
X128893190Y-99848507D01*
X128832500Y-99995026D01*
X128816563Y-100033501D01*
X128816561Y-100033506D01*
X128777500Y-100229885D01*
X128777500Y-100430114D01*
X128816561Y-100626493D01*
X128816563Y-100626498D01*
X128816564Y-100626502D01*
X128893190Y-100811493D01*
X128893191Y-100811495D01*
X128893192Y-100811496D01*
X129004429Y-100977976D01*
X129004430Y-100977977D01*
X129004433Y-100977981D01*
X129094898Y-101068446D01*
X129106080Y-101092425D01*
X129119308Y-101115336D01*
X129118609Y-101119295D01*
X129120309Y-101122939D01*
X129113461Y-101148491D01*
X129108867Y-101174550D01*
X129105786Y-101177135D01*
X129104746Y-101181017D01*
X129083079Y-101196188D01*
X129062807Y-101213199D01*
X129057433Y-101214146D01*
X129055493Y-101215505D01*
X129032743Y-101218500D01*
X128881145Y-101218500D01*
X128824644Y-101197935D01*
X128796240Y-101153348D01*
X128790513Y-101131975D01*
X128790512Y-101131971D01*
X128717511Y-101005529D01*
X128614271Y-100902289D01*
X128487829Y-100829288D01*
X128487828Y-100829287D01*
X128487825Y-100829286D01*
X128346801Y-100791500D01*
X128200799Y-100791500D01*
X128059774Y-100829286D01*
X127933327Y-100902290D01*
X127830090Y-101005527D01*
X127757086Y-101131974D01*
X127726937Y-101244498D01*
X127719300Y-101272999D01*
X127719300Y-101419001D01*
X127727764Y-101450590D01*
X127757086Y-101560025D01*
X127757087Y-101560028D01*
X127757088Y-101560029D01*
X127830089Y-101686471D01*
X127933329Y-101789711D01*
X128059771Y-101862712D01*
X128059773Y-101862712D01*
X128059774Y-101862713D01*
X128200799Y-101900500D01*
X128257929Y-101900500D01*
X128301876Y-101912275D01*
X128376746Y-101955501D01*
X128376748Y-101955501D01*
X128376749Y-101955502D01*
X128473775Y-101981500D01*
X128574225Y-101981500D01*
X129032743Y-101981500D01*
X129089244Y-102002065D01*
X129119308Y-102054136D01*
X129108867Y-102113350D01*
X129094901Y-102131550D01*
X129049614Y-102176838D01*
X129004430Y-102222022D01*
X129004429Y-102222023D01*
X128893192Y-102388503D01*
X128893190Y-102388505D01*
X128893190Y-102388507D01*
X128816564Y-102573498D01*
X128816563Y-102573501D01*
X128816561Y-102573506D01*
X128783544Y-102739500D01*
X128777500Y-102769884D01*
X128777500Y-102970116D01*
X128782109Y-102993285D01*
X128816561Y-103166493D01*
X128816563Y-103166498D01*
X128816564Y-103166502D01*
X128893190Y-103351493D01*
X128904063Y-103367766D01*
X128918355Y-103426169D01*
X128891761Y-103480096D01*
X128836726Y-103504312D01*
X128830977Y-103504500D01*
X128464433Y-103504500D01*
X128407932Y-103483935D01*
X128402278Y-103478755D01*
X128215245Y-103291722D01*
X128189834Y-103237228D01*
X128189500Y-103229567D01*
X128189500Y-103177999D01*
X128151713Y-103036974D01*
X128151712Y-103036973D01*
X128151712Y-103036971D01*
X128078711Y-102910529D01*
X127975471Y-102807289D01*
X127849029Y-102734288D01*
X127849028Y-102734287D01*
X127849025Y-102734286D01*
X127708001Y-102696500D01*
X127561999Y-102696500D01*
X127420974Y-102734286D01*
X127294527Y-102807290D01*
X127191290Y-102910527D01*
X127118286Y-103036974D01*
X127083381Y-103167245D01*
X127080500Y-103177999D01*
X116786500Y-103177999D01*
X116786500Y-90731999D01*
X126551900Y-90731999D01*
X126551900Y-90878001D01*
X126560364Y-90909590D01*
X126589686Y-91019025D01*
X126589687Y-91019028D01*
X126589688Y-91019029D01*
X126662689Y-91145471D01*
X126765929Y-91248711D01*
X126892371Y-91321712D01*
X126892373Y-91321712D01*
X126892374Y-91321713D01*
X127033399Y-91359500D01*
X127179400Y-91359500D01*
X127179401Y-91359500D01*
X127320429Y-91321712D01*
X127446871Y-91248711D01*
X127550111Y-91145471D01*
X127623112Y-91019029D01*
X127660900Y-90878001D01*
X127660900Y-90826433D01*
X127681465Y-90769932D01*
X127686645Y-90764278D01*
X127873678Y-90577245D01*
X127928172Y-90551834D01*
X127935833Y-90551500D01*
X128793038Y-90551500D01*
X128849539Y-90572065D01*
X128874246Y-90605761D01*
X128893188Y-90651489D01*
X128893191Y-90651495D01*
X129004429Y-90817976D01*
X129004430Y-90817977D01*
X129004433Y-90817981D01*
X129146019Y-90959567D01*
X129146022Y-90959569D01*
X129146023Y-90959570D01*
X129193230Y-90991112D01*
X129312507Y-91070810D01*
X129497498Y-91147436D01*
X129497503Y-91147437D01*
X129497506Y-91147438D01*
X129597017Y-91167231D01*
X129693884Y-91186500D01*
X129693886Y-91186500D01*
X129894114Y-91186500D01*
X129894116Y-91186500D01*
X130058936Y-91153715D01*
X130090493Y-91147438D01*
X130090494Y-91147437D01*
X130090502Y-91147436D01*
X130275493Y-91070810D01*
X130441981Y-90959567D01*
X130583567Y-90817981D01*
X130694810Y-90651493D01*
X130771436Y-90466502D01*
X130771829Y-90464529D01*
X130784386Y-90401399D01*
X135639900Y-90401399D01*
X135639900Y-90547401D01*
X135641088Y-90551834D01*
X135677686Y-90688425D01*
X135677687Y-90688428D01*
X135677688Y-90688429D01*
X135750689Y-90814871D01*
X135853929Y-90918111D01*
X135980371Y-90991112D01*
X135980373Y-90991112D01*
X135980374Y-90991113D01*
X136121399Y-91028900D01*
X136172967Y-91028900D01*
X136229468Y-91049465D01*
X136235122Y-91054645D01*
X136444253Y-91263776D01*
X136531247Y-91314002D01*
X136628275Y-91340001D01*
X136628276Y-91340001D01*
X136734107Y-91340001D01*
X136734123Y-91340000D01*
X143986760Y-91340000D01*
X144043261Y-91360565D01*
X144069117Y-91397181D01*
X144106242Y-91496715D01*
X144191026Y-91609974D01*
X144304285Y-91694758D01*
X144436843Y-91744200D01*
X144495443Y-91750500D01*
X145064556Y-91750499D01*
X145123157Y-91744200D01*
X145255715Y-91694758D01*
X145368974Y-91609974D01*
X145453758Y-91496715D01*
X145490882Y-91397181D01*
X145529895Y-91351430D01*
X145573240Y-91340000D01*
X145764760Y-91340000D01*
X145821261Y-91360565D01*
X145847117Y-91397181D01*
X145884242Y-91496715D01*
X145969026Y-91609974D01*
X146082285Y-91694758D01*
X146214843Y-91744200D01*
X146273443Y-91750500D01*
X146842556Y-91750499D01*
X146901157Y-91744200D01*
X147033715Y-91694758D01*
X147146974Y-91609974D01*
X147231758Y-91496715D01*
X147268882Y-91397181D01*
X147307895Y-91351430D01*
X147351240Y-91340000D01*
X147557802Y-91340000D01*
X147614303Y-91360565D01*
X147644367Y-91412636D01*
X147645702Y-91427900D01*
X147645702Y-91979668D01*
X147656775Y-92035333D01*
X147660468Y-92053901D01*
X147716718Y-92138084D01*
X147744907Y-92156919D01*
X147800900Y-92194334D01*
X147811463Y-92196435D01*
X147875135Y-92209100D01*
X148280868Y-92209099D01*
X148280870Y-92209099D01*
X148299363Y-92205420D01*
X148355103Y-92194334D01*
X148439286Y-92138084D01*
X148495536Y-92053901D01*
X148510302Y-91979667D01*
X148510301Y-90519834D01*
X148510301Y-90519833D01*
X148510301Y-90519831D01*
X148504243Y-90489377D01*
X148495536Y-90445599D01*
X148439286Y-90361416D01*
X148438900Y-90361158D01*
X148355103Y-90305165D01*
X148301994Y-90294602D01*
X148280869Y-90290400D01*
X148280867Y-90290400D01*
X147875133Y-90290400D01*
X147800901Y-90305166D01*
X147716719Y-90361415D01*
X147716716Y-90361418D01*
X147660467Y-90445598D01*
X147648404Y-90506248D01*
X147617212Y-90557652D01*
X147562193Y-90577000D01*
X147351240Y-90577000D01*
X147294739Y-90556435D01*
X147268882Y-90519818D01*
X147231758Y-90420285D01*
X147146974Y-90307026D01*
X147033715Y-90222242D01*
X146901157Y-90172800D01*
X146901154Y-90172799D01*
X146901146Y-90172798D01*
X146842561Y-90166500D01*
X146273448Y-90166500D01*
X146214840Y-90172800D01*
X146082284Y-90222242D01*
X145969028Y-90307024D01*
X145969024Y-90307028D01*
X145884242Y-90420284D01*
X145872052Y-90452967D01*
X145848870Y-90515122D01*
X145847118Y-90519818D01*
X145808105Y-90565570D01*
X145764760Y-90577000D01*
X145573240Y-90577000D01*
X145516739Y-90556435D01*
X145490882Y-90519818D01*
X145453758Y-90420285D01*
X145368974Y-90307026D01*
X145255715Y-90222242D01*
X145123157Y-90172800D01*
X145123154Y-90172799D01*
X145123146Y-90172798D01*
X145064561Y-90166500D01*
X144495448Y-90166500D01*
X144436840Y-90172800D01*
X144304284Y-90222242D01*
X144191028Y-90307024D01*
X144191024Y-90307028D01*
X144106242Y-90420284D01*
X144094052Y-90452967D01*
X144070870Y-90515122D01*
X144069118Y-90519818D01*
X144030105Y-90565570D01*
X143986760Y-90577000D01*
X136872933Y-90577000D01*
X136854900Y-90570436D01*
X136835785Y-90568764D01*
X136820064Y-90557757D01*
X136816432Y-90556435D01*
X136810778Y-90551255D01*
X136774645Y-90515122D01*
X136749234Y-90460628D01*
X136748900Y-90452967D01*
X136748900Y-90401399D01*
X136711113Y-90260374D01*
X136711112Y-90260373D01*
X136711112Y-90260371D01*
X136638111Y-90133929D01*
X136534871Y-90030689D01*
X136408429Y-89957688D01*
X136408428Y-89957687D01*
X136408425Y-89957686D01*
X136267401Y-89919900D01*
X136121399Y-89919900D01*
X135980374Y-89957686D01*
X135853927Y-90030690D01*
X135750690Y-90133927D01*
X135677686Y-90260374D01*
X135642030Y-90393448D01*
X135639900Y-90401399D01*
X130784386Y-90401399D01*
X130788943Y-90378490D01*
X130801413Y-90315800D01*
X130810500Y-90270116D01*
X130810500Y-90069884D01*
X130784717Y-89940264D01*
X130771438Y-89873506D01*
X130771437Y-89873503D01*
X130771436Y-89873498D01*
X130694810Y-89688507D01*
X130616111Y-89570725D01*
X130583570Y-89522023D01*
X130583569Y-89522022D01*
X130583567Y-89522019D01*
X130441981Y-89380433D01*
X130441977Y-89380430D01*
X130441976Y-89380429D01*
X130275496Y-89269192D01*
X130275495Y-89269191D01*
X130275493Y-89269190D01*
X130090502Y-89192564D01*
X130090498Y-89192563D01*
X130090493Y-89192561D01*
X129942711Y-89163166D01*
X129894116Y-89153500D01*
X129693884Y-89153500D01*
X129650639Y-89162101D01*
X129497506Y-89192561D01*
X129497501Y-89192563D01*
X129497499Y-89192563D01*
X129497498Y-89192564D01*
X129312507Y-89269190D01*
X129312505Y-89269190D01*
X129312503Y-89269192D01*
X129146023Y-89380429D01*
X129004429Y-89522023D01*
X128893191Y-89688504D01*
X128893188Y-89688510D01*
X128874246Y-89734239D01*
X128833625Y-89778569D01*
X128793038Y-89788500D01*
X127797023Y-89788500D01*
X127797007Y-89788499D01*
X127791625Y-89788499D01*
X127691175Y-89788499D01*
X127670671Y-89793993D01*
X127594147Y-89814497D01*
X127507151Y-89864725D01*
X127147122Y-90224755D01*
X127092628Y-90250166D01*
X127084967Y-90250500D01*
X127033399Y-90250500D01*
X126892374Y-90288286D01*
X126765927Y-90361290D01*
X126662690Y-90464527D01*
X126589686Y-90590974D01*
X126563574Y-90688429D01*
X126551900Y-90731999D01*
X116786500Y-90731999D01*
X116786500Y-88814954D01*
X136169500Y-88814954D01*
X136169500Y-88985045D01*
X136202682Y-89151870D01*
X136202684Y-89151874D01*
X136267774Y-89309018D01*
X136267775Y-89309020D01*
X136267776Y-89309021D01*
X136362276Y-89450449D01*
X136482551Y-89570724D01*
X136623979Y-89665224D01*
X136623980Y-89665224D01*
X136623981Y-89665225D01*
X136659581Y-89679970D01*
X136781126Y-89730316D01*
X136781127Y-89730316D01*
X136781129Y-89730317D01*
X136865108Y-89747021D01*
X136947953Y-89763500D01*
X136947955Y-89763500D01*
X137118045Y-89763500D01*
X137118047Y-89763500D01*
X137265152Y-89734239D01*
X137284870Y-89730317D01*
X137284870Y-89730316D01*
X137284874Y-89730316D01*
X137442021Y-89665224D01*
X137583449Y-89570724D01*
X137703724Y-89450449D01*
X137798224Y-89309021D01*
X137863316Y-89151874D01*
X137863888Y-89149001D01*
X137896500Y-88985045D01*
X137896500Y-88814954D01*
X138709500Y-88814954D01*
X138709500Y-88985045D01*
X138742682Y-89151870D01*
X138742684Y-89151874D01*
X138807774Y-89309018D01*
X138807775Y-89309020D01*
X138807776Y-89309021D01*
X138902276Y-89450449D01*
X139022551Y-89570724D01*
X139163979Y-89665224D01*
X139163980Y-89665224D01*
X139163981Y-89665225D01*
X139199581Y-89679970D01*
X139321126Y-89730316D01*
X139321127Y-89730316D01*
X139321129Y-89730317D01*
X139405108Y-89747021D01*
X139487953Y-89763500D01*
X139487955Y-89763500D01*
X139658045Y-89763500D01*
X139658047Y-89763500D01*
X139805152Y-89734239D01*
X139824870Y-89730317D01*
X139824870Y-89730316D01*
X139824874Y-89730316D01*
X139982021Y-89665224D01*
X140123449Y-89570724D01*
X140243724Y-89450449D01*
X140338224Y-89309021D01*
X140403316Y-89151874D01*
X140403888Y-89149001D01*
X140436500Y-88985045D01*
X140436500Y-88814954D01*
X141249500Y-88814954D01*
X141249500Y-88985045D01*
X141282682Y-89151870D01*
X141282684Y-89151874D01*
X141347774Y-89309018D01*
X141347775Y-89309020D01*
X141347776Y-89309021D01*
X141442276Y-89450449D01*
X141562551Y-89570724D01*
X141703979Y-89665224D01*
X141703980Y-89665224D01*
X141703981Y-89665225D01*
X141739581Y-89679970D01*
X141861126Y-89730316D01*
X141861127Y-89730316D01*
X141861129Y-89730317D01*
X141945108Y-89747021D01*
X142027953Y-89763500D01*
X142027955Y-89763500D01*
X142198045Y-89763500D01*
X142198047Y-89763500D01*
X142345152Y-89734239D01*
X142364870Y-89730317D01*
X142364870Y-89730316D01*
X142364874Y-89730316D01*
X142522021Y-89665224D01*
X142663449Y-89570724D01*
X142783724Y-89450449D01*
X142878224Y-89309021D01*
X142943316Y-89151874D01*
X142943888Y-89149001D01*
X142976500Y-88985045D01*
X142976500Y-88814954D01*
X143789500Y-88814954D01*
X143789500Y-88985045D01*
X143822682Y-89151870D01*
X143822684Y-89151874D01*
X143887774Y-89309018D01*
X143887775Y-89309020D01*
X143887776Y-89309021D01*
X143982276Y-89450449D01*
X144102551Y-89570724D01*
X144243979Y-89665224D01*
X144243980Y-89665224D01*
X144243981Y-89665225D01*
X144279581Y-89679970D01*
X144401126Y-89730316D01*
X144401127Y-89730316D01*
X144401129Y-89730317D01*
X144485108Y-89747021D01*
X144567953Y-89763500D01*
X144567955Y-89763500D01*
X144738045Y-89763500D01*
X144738047Y-89763500D01*
X144885152Y-89734239D01*
X144904870Y-89730317D01*
X144904870Y-89730316D01*
X144904874Y-89730316D01*
X145062021Y-89665224D01*
X145203449Y-89570724D01*
X145323724Y-89450449D01*
X145418224Y-89309021D01*
X145483316Y-89151874D01*
X145483888Y-89149001D01*
X145516500Y-88985045D01*
X145516500Y-88814954D01*
X146329500Y-88814954D01*
X146329500Y-88985045D01*
X146362682Y-89151870D01*
X146362684Y-89151874D01*
X146427774Y-89309018D01*
X146427775Y-89309020D01*
X146427776Y-89309021D01*
X146522276Y-89450449D01*
X146642551Y-89570724D01*
X146783979Y-89665224D01*
X146783980Y-89665224D01*
X146783981Y-89665225D01*
X146819581Y-89679970D01*
X146941126Y-89730316D01*
X146941127Y-89730316D01*
X146941129Y-89730317D01*
X147025108Y-89747021D01*
X147107953Y-89763500D01*
X147107955Y-89763500D01*
X147278045Y-89763500D01*
X147278047Y-89763500D01*
X147425152Y-89734239D01*
X147444870Y-89730317D01*
X147444870Y-89730316D01*
X147444874Y-89730316D01*
X147602021Y-89665224D01*
X147743449Y-89570724D01*
X147863724Y-89450449D01*
X147958224Y-89309021D01*
X148023316Y-89151874D01*
X148023888Y-89149001D01*
X148056500Y-88985045D01*
X148056500Y-88814954D01*
X148869500Y-88814954D01*
X148869500Y-88985045D01*
X148902682Y-89151870D01*
X148902684Y-89151874D01*
X148967774Y-89309018D01*
X148967775Y-89309020D01*
X148967776Y-89309021D01*
X149062276Y-89450449D01*
X149182551Y-89570724D01*
X149323979Y-89665224D01*
X149323980Y-89665224D01*
X149323981Y-89665225D01*
X149367051Y-89683065D01*
X149467589Y-89724709D01*
X149481131Y-89730318D01*
X149482682Y-89730789D01*
X149483193Y-89731172D01*
X149485116Y-89731969D01*
X149484911Y-89732461D01*
X149530780Y-89766871D01*
X149544432Y-89825427D01*
X149519319Y-89877058D01*
X149385878Y-90010499D01*
X149143755Y-90252622D01*
X149143755Y-90252623D01*
X149077825Y-90318553D01*
X149064506Y-90329483D01*
X149016719Y-90361414D01*
X148960467Y-90445598D01*
X148951760Y-90489377D01*
X148945703Y-90519831D01*
X148945702Y-90519834D01*
X148945702Y-91979668D01*
X148956775Y-92035333D01*
X148960468Y-92053901D01*
X149016718Y-92138084D01*
X149044907Y-92156919D01*
X149100900Y-92194334D01*
X149111463Y-92196435D01*
X149175135Y-92209100D01*
X149580868Y-92209099D01*
X149580870Y-92209099D01*
X149610562Y-92203193D01*
X149655103Y-92194334D01*
X149655107Y-92194330D01*
X149661731Y-92191588D01*
X149721801Y-92188967D01*
X149757520Y-92210641D01*
X150181155Y-92634276D01*
X150268149Y-92684502D01*
X150365177Y-92710501D01*
X150365178Y-92710501D01*
X150471009Y-92710501D01*
X150471025Y-92710500D01*
X157040908Y-92710500D01*
X157097409Y-92731065D01*
X157103063Y-92736245D01*
X157139529Y-92772711D01*
X157265971Y-92845712D01*
X157265973Y-92845712D01*
X157265974Y-92845713D01*
X157406999Y-92883500D01*
X157553000Y-92883500D01*
X157553001Y-92883500D01*
X157694029Y-92845712D01*
X157820471Y-92772711D01*
X157923711Y-92669471D01*
X157996712Y-92543029D01*
X158034500Y-92402001D01*
X158034500Y-92255999D01*
X157996712Y-92114971D01*
X157923711Y-91988529D01*
X157820471Y-91885289D01*
X157694029Y-91812288D01*
X157694028Y-91812287D01*
X157694025Y-91812286D01*
X157553001Y-91774500D01*
X157406999Y-91774500D01*
X157265974Y-91812286D01*
X157139527Y-91885290D01*
X157103063Y-91921755D01*
X157048569Y-91947166D01*
X157040908Y-91947500D01*
X151848201Y-91947500D01*
X151791700Y-91926935D01*
X151761636Y-91874864D01*
X151760301Y-91859600D01*
X151760300Y-90519831D01*
X151754242Y-90489377D01*
X151745535Y-90445599D01*
X151691436Y-90364635D01*
X151677144Y-90306231D01*
X151703738Y-90252304D01*
X151758773Y-90228088D01*
X151764522Y-90227900D01*
X158859600Y-90227900D01*
X158916101Y-90248465D01*
X158946165Y-90300536D01*
X158947500Y-90315800D01*
X158947500Y-90835551D01*
X158953800Y-90894159D01*
X158991894Y-90996290D01*
X159003242Y-91026715D01*
X159088026Y-91139974D01*
X159201285Y-91224758D01*
X159333843Y-91274200D01*
X159392443Y-91280500D01*
X160086556Y-91280499D01*
X160145157Y-91274200D01*
X160277715Y-91224758D01*
X160390974Y-91139974D01*
X160475758Y-91026715D01*
X160525200Y-90894157D01*
X160531500Y-90835557D01*
X160531499Y-90315799D01*
X160552064Y-90259299D01*
X160604135Y-90229235D01*
X160619399Y-90227900D01*
X162018467Y-90227900D01*
X162074968Y-90248465D01*
X162080622Y-90253645D01*
X162276755Y-90449778D01*
X162302166Y-90504272D01*
X162302500Y-90511933D01*
X162302500Y-90962551D01*
X162308800Y-91021159D01*
X162338031Y-91099529D01*
X162358242Y-91153715D01*
X162443026Y-91266974D01*
X162556285Y-91351758D01*
X162688843Y-91401200D01*
X162747443Y-91407500D01*
X163341556Y-91407499D01*
X163400157Y-91401200D01*
X163532715Y-91351758D01*
X163645974Y-91266974D01*
X163730758Y-91153715D01*
X163780200Y-91021157D01*
X163786500Y-90962557D01*
X163786499Y-90393444D01*
X163786498Y-90393434D01*
X164127500Y-90393434D01*
X164127500Y-90962551D01*
X164133800Y-91021159D01*
X164163031Y-91099529D01*
X164183242Y-91153715D01*
X164268026Y-91266974D01*
X164381285Y-91351758D01*
X164513843Y-91401200D01*
X164572443Y-91407500D01*
X165166556Y-91407499D01*
X165225157Y-91401200D01*
X165316853Y-91366999D01*
X167466500Y-91366999D01*
X167466500Y-91513000D01*
X167504286Y-91654025D01*
X167504287Y-91654028D01*
X167504288Y-91654029D01*
X167577289Y-91780471D01*
X167680529Y-91883711D01*
X167806971Y-91956712D01*
X167806973Y-91956712D01*
X167806974Y-91956713D01*
X167947999Y-91994500D01*
X168094000Y-91994500D01*
X168094001Y-91994500D01*
X168235029Y-91956712D01*
X168361471Y-91883711D01*
X168464711Y-91780471D01*
X168537712Y-91654029D01*
X168575500Y-91513001D01*
X168575500Y-91513000D01*
X168576991Y-91507436D01*
X168579565Y-91508125D01*
X168602742Y-91463598D01*
X168658291Y-91440584D01*
X168662131Y-91440500D01*
X173170802Y-91440500D01*
X173227303Y-91461065D01*
X173257367Y-91513136D01*
X173258702Y-91528400D01*
X173258702Y-91820666D01*
X173273467Y-91894901D01*
X173329717Y-91979084D01*
X173352788Y-91994500D01*
X173413899Y-92035334D01*
X173424462Y-92037435D01*
X173488134Y-92050100D01*
X173893867Y-92050099D01*
X173893869Y-92050099D01*
X173918499Y-92045199D01*
X173968102Y-92035334D01*
X173968104Y-92035332D01*
X173976104Y-92032020D01*
X173976763Y-92033612D01*
X174025564Y-92021668D01*
X174055651Y-92032617D01*
X174055899Y-92032021D01*
X174063896Y-92035333D01*
X174063898Y-92035333D01*
X174063899Y-92035334D01*
X174138133Y-92050100D01*
X174543866Y-92050099D01*
X174543868Y-92050099D01*
X174568498Y-92045199D01*
X174618101Y-92035334D01*
X174618103Y-92035332D01*
X174626103Y-92032020D01*
X174626762Y-92033612D01*
X174675561Y-92021667D01*
X174705655Y-92032617D01*
X174705903Y-92032021D01*
X174713896Y-92035331D01*
X174713900Y-92035334D01*
X174788134Y-92050100D01*
X175193867Y-92050099D01*
X175193869Y-92050099D01*
X175212362Y-92046420D01*
X175268102Y-92035334D01*
X175352285Y-91979084D01*
X175408535Y-91894901D01*
X175423301Y-91820667D01*
X175423300Y-91442789D01*
X175435076Y-91398840D01*
X175435078Y-91398837D01*
X175507713Y-91273029D01*
X175545501Y-91132001D01*
X175545501Y-90985999D01*
X175736501Y-90985999D01*
X175736501Y-91132001D01*
X175738638Y-91139975D01*
X175774287Y-91273025D01*
X175774288Y-91273027D01*
X175774289Y-91273029D01*
X175846925Y-91398840D01*
X175858701Y-91442787D01*
X175858701Y-91820668D01*
X175871241Y-91883709D01*
X175873467Y-91894901D01*
X175929717Y-91979084D01*
X175952788Y-91994500D01*
X176013899Y-92035334D01*
X176024462Y-92037435D01*
X176088134Y-92050100D01*
X176493867Y-92050099D01*
X176493869Y-92050099D01*
X176523561Y-92044193D01*
X176568102Y-92035334D01*
X176568106Y-92035330D01*
X176574730Y-92032588D01*
X176634800Y-92029967D01*
X176670519Y-92051641D01*
X176949354Y-92330476D01*
X177036348Y-92380702D01*
X177133376Y-92406701D01*
X177133377Y-92406701D01*
X177239208Y-92406701D01*
X177239224Y-92406700D01*
X178604938Y-92406700D01*
X178648887Y-92418476D01*
X178681438Y-92437269D01*
X178728971Y-92464712D01*
X178869999Y-92502500D01*
X179016000Y-92502500D01*
X179016001Y-92502500D01*
X179157029Y-92464712D01*
X179283471Y-92391711D01*
X179386711Y-92288471D01*
X179459712Y-92162029D01*
X179497500Y-92021001D01*
X179497500Y-91874999D01*
X179459712Y-91733971D01*
X179386711Y-91607529D01*
X179283471Y-91504289D01*
X179157029Y-91431288D01*
X179157028Y-91431287D01*
X179157025Y-91431286D01*
X179016001Y-91393500D01*
X178869999Y-91393500D01*
X178728974Y-91431286D01*
X178602527Y-91504290D01*
X178499288Y-91607529D01*
X178497928Y-91609303D01*
X178496789Y-91610028D01*
X178495215Y-91611603D01*
X178494866Y-91611254D01*
X178447221Y-91641614D01*
X178428187Y-91643700D01*
X178111201Y-91643700D01*
X178089741Y-91635889D01*
X178067252Y-91631924D01*
X178062153Y-91625847D01*
X178054700Y-91623135D01*
X178043281Y-91603357D01*
X178028602Y-91585864D01*
X178026588Y-91574446D01*
X178024636Y-91571064D01*
X178023301Y-91555801D01*
X178023300Y-91442791D01*
X178023301Y-91442787D01*
X178035076Y-91398840D01*
X178035078Y-91398837D01*
X178107713Y-91273029D01*
X178145501Y-91132001D01*
X178145501Y-90985999D01*
X178107713Y-90844971D01*
X178035075Y-90719159D01*
X178023300Y-90675210D01*
X178023300Y-90297331D01*
X178014407Y-90252622D01*
X178008535Y-90223099D01*
X177952285Y-90138916D01*
X177944819Y-90133927D01*
X177868102Y-90082665D01*
X177814993Y-90072102D01*
X177793868Y-90067900D01*
X177793866Y-90067900D01*
X177615672Y-90067900D01*
X177559171Y-90047335D01*
X177529107Y-89995264D01*
X177539548Y-89936050D01*
X177562994Y-89909633D01*
X177615974Y-89869974D01*
X177700758Y-89756715D01*
X177750200Y-89624157D01*
X177756500Y-89565557D01*
X177756499Y-88996444D01*
X177756498Y-88996434D01*
X178097500Y-88996434D01*
X178097500Y-89565551D01*
X178103800Y-89624159D01*
X178143396Y-89730317D01*
X178153242Y-89756715D01*
X178238026Y-89869974D01*
X178351285Y-89954758D01*
X178483843Y-90004200D01*
X178542443Y-90010500D01*
X179136556Y-90010499D01*
X179195157Y-90004200D01*
X179327715Y-89954758D01*
X179440974Y-89869974D01*
X179525758Y-89756715D01*
X179575200Y-89624157D01*
X179581500Y-89565557D01*
X179581499Y-88996444D01*
X179575200Y-88937843D01*
X179525758Y-88805285D01*
X179440974Y-88692026D01*
X179327715Y-88607242D01*
X179195157Y-88557800D01*
X179195154Y-88557799D01*
X179195146Y-88557798D01*
X179136561Y-88551500D01*
X178542448Y-88551500D01*
X178483840Y-88557800D01*
X178351284Y-88607242D01*
X178238028Y-88692024D01*
X178238024Y-88692028D01*
X178153242Y-88805284D01*
X178103800Y-88937843D01*
X178103798Y-88937853D01*
X178097500Y-88996434D01*
X177756498Y-88996434D01*
X177750200Y-88937843D01*
X177700758Y-88805285D01*
X177615974Y-88692026D01*
X177502715Y-88607242D01*
X177370157Y-88557800D01*
X177370154Y-88557799D01*
X177370146Y-88557798D01*
X177311561Y-88551500D01*
X176717448Y-88551500D01*
X176658840Y-88557800D01*
X176526284Y-88607242D01*
X176413028Y-88692024D01*
X176413024Y-88692028D01*
X176328242Y-88805284D01*
X176278800Y-88937843D01*
X176278798Y-88937853D01*
X176272500Y-88996434D01*
X176272500Y-89565551D01*
X176278800Y-89624159D01*
X176318396Y-89730317D01*
X176328242Y-89756715D01*
X176413026Y-89869974D01*
X176466004Y-89909633D01*
X176498912Y-89959955D01*
X176491774Y-90019657D01*
X176447930Y-90060803D01*
X176413328Y-90067900D01*
X176088132Y-90067900D01*
X176013900Y-90082666D01*
X175929718Y-90138915D01*
X175929715Y-90138918D01*
X175873466Y-90223098D01*
X175860802Y-90286770D01*
X175858702Y-90297331D01*
X175858701Y-90297334D01*
X175858701Y-90675211D01*
X175846925Y-90719160D01*
X175774288Y-90844972D01*
X175742784Y-90962551D01*
X175736501Y-90985999D01*
X175545501Y-90985999D01*
X175507713Y-90844971D01*
X175435075Y-90719159D01*
X175423300Y-90675210D01*
X175423300Y-90297331D01*
X175414407Y-90252622D01*
X175408535Y-90223099D01*
X175352285Y-90138916D01*
X175344819Y-90133927D01*
X175268102Y-90082665D01*
X175214993Y-90072102D01*
X175193868Y-90067900D01*
X175193866Y-90067900D01*
X174788132Y-90067900D01*
X174713899Y-90082666D01*
X174705902Y-90085979D01*
X174705243Y-90084390D01*
X174656420Y-90096331D01*
X174626346Y-90085382D01*
X174626100Y-90085979D01*
X174618102Y-90082666D01*
X174593356Y-90077744D01*
X174543867Y-90067900D01*
X174543865Y-90067900D01*
X174138131Y-90067900D01*
X174063898Y-90082666D01*
X174055898Y-90085980D01*
X174055239Y-90084390D01*
X174006423Y-90096331D01*
X173976349Y-90085382D01*
X173976102Y-90085979D01*
X173968104Y-90082666D01*
X173930985Y-90075283D01*
X173893868Y-90067900D01*
X173893866Y-90067900D01*
X173488132Y-90067900D01*
X173413900Y-90082666D01*
X173329718Y-90138915D01*
X173329715Y-90138918D01*
X173273466Y-90223098D01*
X173260802Y-90286770D01*
X173258702Y-90297331D01*
X173258701Y-90297334D01*
X173258701Y-90589600D01*
X173238136Y-90646101D01*
X173186065Y-90676165D01*
X173170801Y-90677500D01*
X168351775Y-90677500D01*
X168254749Y-90703497D01*
X168167751Y-90753725D01*
X168101732Y-90819745D01*
X168101731Y-90819744D01*
X168061723Y-90859754D01*
X168007230Y-90885165D01*
X167999568Y-90885500D01*
X167947999Y-90885500D01*
X167806974Y-90923286D01*
X167680527Y-90996290D01*
X167577290Y-91099527D01*
X167504286Y-91225974D01*
X167466500Y-91366999D01*
X165316853Y-91366999D01*
X165357715Y-91351758D01*
X165470974Y-91266974D01*
X165555758Y-91153715D01*
X165605200Y-91021157D01*
X165611500Y-90962557D01*
X165611499Y-90393444D01*
X165605200Y-90334843D01*
X165555758Y-90202285D01*
X165470974Y-90089026D01*
X165357715Y-90004242D01*
X165225157Y-89954800D01*
X165225154Y-89954799D01*
X165225146Y-89954798D01*
X165166561Y-89948500D01*
X164572448Y-89948500D01*
X164513840Y-89954800D01*
X164381284Y-90004242D01*
X164268028Y-90089024D01*
X164268024Y-90089028D01*
X164183242Y-90202284D01*
X164133800Y-90334843D01*
X164133798Y-90334853D01*
X164127500Y-90393434D01*
X163786498Y-90393434D01*
X163780200Y-90334843D01*
X163730758Y-90202285D01*
X163645974Y-90089026D01*
X163532715Y-90004242D01*
X163400157Y-89954800D01*
X163400154Y-89954799D01*
X163400146Y-89954798D01*
X163341565Y-89948500D01*
X163341557Y-89948500D01*
X162890933Y-89948500D01*
X162872900Y-89941936D01*
X162853785Y-89940264D01*
X162838064Y-89929257D01*
X162834432Y-89927935D01*
X162828778Y-89922755D01*
X162743576Y-89837553D01*
X162718165Y-89783059D01*
X162733728Y-89724981D01*
X162772094Y-89694189D01*
X162806663Y-89679869D01*
X162842016Y-89665226D01*
X162842017Y-89665226D01*
X162842018Y-89665225D01*
X162842021Y-89665224D01*
X162983449Y-89570724D01*
X163103724Y-89450449D01*
X163198224Y-89309021D01*
X163263316Y-89151874D01*
X163263888Y-89149001D01*
X163296500Y-88985045D01*
X163296500Y-88814954D01*
X164109500Y-88814954D01*
X164109500Y-88985045D01*
X164142682Y-89151870D01*
X164142684Y-89151874D01*
X164207774Y-89309018D01*
X164207775Y-89309020D01*
X164207776Y-89309021D01*
X164302276Y-89450449D01*
X164422551Y-89570724D01*
X164563979Y-89665224D01*
X164563980Y-89665224D01*
X164563981Y-89665225D01*
X164599581Y-89679970D01*
X164721126Y-89730316D01*
X164721127Y-89730316D01*
X164721129Y-89730317D01*
X164805108Y-89747021D01*
X164887953Y-89763500D01*
X164887955Y-89763500D01*
X165058045Y-89763500D01*
X165058047Y-89763500D01*
X165205152Y-89734239D01*
X165224870Y-89730317D01*
X165224870Y-89730316D01*
X165224874Y-89730316D01*
X165382021Y-89665224D01*
X165523449Y-89570724D01*
X165643724Y-89450449D01*
X165738224Y-89309021D01*
X165803316Y-89151874D01*
X165803888Y-89149001D01*
X165836500Y-88985045D01*
X165836500Y-88814954D01*
X165803317Y-88648129D01*
X165803316Y-88648127D01*
X165803316Y-88648126D01*
X165738224Y-88490979D01*
X165643724Y-88349551D01*
X165523449Y-88229276D01*
X165405308Y-88150336D01*
X168798500Y-88150336D01*
X168798500Y-88836849D01*
X168804960Y-88896944D01*
X168842074Y-88996448D01*
X168855658Y-89032867D01*
X168942596Y-89149004D01*
X169058733Y-89235942D01*
X169194658Y-89286640D01*
X169254745Y-89293100D01*
X170035666Y-89293099D01*
X170092167Y-89313664D01*
X170097821Y-89318844D01*
X170365253Y-89586276D01*
X170452247Y-89636502D01*
X170549275Y-89662501D01*
X170549276Y-89662501D01*
X170655107Y-89662501D01*
X170655123Y-89662500D01*
X174693908Y-89662500D01*
X174750409Y-89683065D01*
X174756063Y-89688245D01*
X174792529Y-89724711D01*
X174918971Y-89797712D01*
X174918973Y-89797712D01*
X174918974Y-89797713D01*
X175059999Y-89835500D01*
X175206000Y-89835500D01*
X175206001Y-89835500D01*
X175347029Y-89797712D01*
X175473471Y-89724711D01*
X175576711Y-89621471D01*
X175649712Y-89495029D01*
X175687500Y-89354001D01*
X175687500Y-89207999D01*
X175672897Y-89153500D01*
X175649713Y-89066974D01*
X175649712Y-89066973D01*
X175649712Y-89066971D01*
X175576711Y-88940529D01*
X175473471Y-88837289D01*
X175347029Y-88764288D01*
X175347028Y-88764287D01*
X175347025Y-88764286D01*
X175206001Y-88726500D01*
X175059999Y-88726500D01*
X174918974Y-88764286D01*
X174792527Y-88837290D01*
X174756063Y-88873755D01*
X174701569Y-88899166D01*
X174693908Y-88899500D01*
X170793933Y-88899500D01*
X170775900Y-88892936D01*
X170756785Y-88891264D01*
X170741064Y-88880257D01*
X170737432Y-88878935D01*
X170731778Y-88873755D01*
X170648244Y-88790221D01*
X170622833Y-88735727D01*
X170622499Y-88728066D01*
X170622499Y-88150350D01*
X170622499Y-88150346D01*
X170616040Y-88090258D01*
X170608365Y-88069682D01*
X170565342Y-87954334D01*
X170565342Y-87954333D01*
X170478404Y-87838196D01*
X170362267Y-87751258D01*
X170362265Y-87751257D01*
X170305578Y-87730114D01*
X170226342Y-87700560D01*
X170226339Y-87700559D01*
X170226331Y-87700558D01*
X170166259Y-87694100D01*
X169254750Y-87694100D01*
X169194655Y-87700560D01*
X169058734Y-87751257D01*
X168942598Y-87838194D01*
X168942594Y-87838198D01*
X168855657Y-87954334D01*
X168804960Y-88090258D01*
X168804958Y-88090268D01*
X168798500Y-88150336D01*
X165405308Y-88150336D01*
X165382021Y-88134776D01*
X165382020Y-88134775D01*
X165382018Y-88134774D01*
X165224874Y-88069684D01*
X165224870Y-88069682D01*
X165099468Y-88044739D01*
X165058047Y-88036500D01*
X164887953Y-88036500D01*
X164855783Y-88042899D01*
X164721129Y-88069682D01*
X164721125Y-88069684D01*
X164563981Y-88134774D01*
X164422553Y-88229274D01*
X164302274Y-88349553D01*
X164207774Y-88490981D01*
X164142684Y-88648125D01*
X164142682Y-88648129D01*
X164109500Y-88814954D01*
X163296500Y-88814954D01*
X163263317Y-88648129D01*
X163263316Y-88648127D01*
X163263316Y-88648126D01*
X163198224Y-88490979D01*
X163103724Y-88349551D01*
X162983449Y-88229276D01*
X162842021Y-88134776D01*
X162842020Y-88134775D01*
X162842018Y-88134774D01*
X162684874Y-88069684D01*
X162684870Y-88069682D01*
X162559468Y-88044739D01*
X162518047Y-88036500D01*
X162347953Y-88036500D01*
X162315783Y-88042899D01*
X162181129Y-88069682D01*
X162181125Y-88069684D01*
X162023981Y-88134774D01*
X161882553Y-88229274D01*
X161762274Y-88349553D01*
X161667774Y-88490981D01*
X161602684Y-88648125D01*
X161602682Y-88648129D01*
X161569500Y-88814954D01*
X161569500Y-88985045D01*
X161602682Y-89151870D01*
X161602684Y-89151874D01*
X161667774Y-89309018D01*
X161680568Y-89328165D01*
X161694860Y-89386570D01*
X161668266Y-89440496D01*
X161613231Y-89464712D01*
X161607482Y-89464900D01*
X160718518Y-89464900D01*
X160662017Y-89444335D01*
X160631953Y-89392264D01*
X160642394Y-89333050D01*
X160645432Y-89328165D01*
X160651660Y-89318844D01*
X160658224Y-89309021D01*
X160723316Y-89151874D01*
X160723888Y-89149001D01*
X160756500Y-88985045D01*
X160756500Y-88814954D01*
X160723317Y-88648129D01*
X160723316Y-88648127D01*
X160723316Y-88648126D01*
X160658224Y-88490979D01*
X160563724Y-88349551D01*
X160443449Y-88229276D01*
X160302021Y-88134776D01*
X160302020Y-88134775D01*
X160302018Y-88134774D01*
X160144874Y-88069684D01*
X160144870Y-88069682D01*
X160019468Y-88044739D01*
X159978047Y-88036500D01*
X159807953Y-88036500D01*
X159775783Y-88042899D01*
X159641129Y-88069682D01*
X159641125Y-88069684D01*
X159483981Y-88134774D01*
X159342553Y-88229274D01*
X159222274Y-88349553D01*
X159127774Y-88490981D01*
X159062684Y-88648125D01*
X159062682Y-88648129D01*
X159029500Y-88814954D01*
X159029500Y-88985045D01*
X159062682Y-89151870D01*
X159062684Y-89151874D01*
X159127774Y-89309018D01*
X159140568Y-89328165D01*
X159154860Y-89386570D01*
X159128266Y-89440496D01*
X159073231Y-89464712D01*
X159067482Y-89464900D01*
X158178518Y-89464900D01*
X158122017Y-89444335D01*
X158091953Y-89392264D01*
X158102394Y-89333050D01*
X158105432Y-89328165D01*
X158111660Y-89318844D01*
X158118224Y-89309021D01*
X158183316Y-89151874D01*
X158183888Y-89149001D01*
X158216500Y-88985045D01*
X158216500Y-88814954D01*
X158183317Y-88648129D01*
X158183316Y-88648127D01*
X158183316Y-88648126D01*
X158118224Y-88490979D01*
X158023724Y-88349551D01*
X157903449Y-88229276D01*
X157762021Y-88134776D01*
X157762020Y-88134775D01*
X157762018Y-88134774D01*
X157604874Y-88069684D01*
X157604870Y-88069682D01*
X157479468Y-88044739D01*
X157438047Y-88036500D01*
X157267953Y-88036500D01*
X157235783Y-88042899D01*
X157101129Y-88069682D01*
X157101125Y-88069684D01*
X156943981Y-88134774D01*
X156802553Y-88229274D01*
X156682274Y-88349553D01*
X156587774Y-88490981D01*
X156522684Y-88648125D01*
X156522682Y-88648129D01*
X156489500Y-88814954D01*
X156489500Y-88985045D01*
X156522682Y-89151870D01*
X156522684Y-89151874D01*
X156587774Y-89309018D01*
X156600568Y-89328165D01*
X156614860Y-89386570D01*
X156588266Y-89440496D01*
X156533231Y-89464712D01*
X156527482Y-89464900D01*
X155638518Y-89464900D01*
X155582017Y-89444335D01*
X155551953Y-89392264D01*
X155562394Y-89333050D01*
X155565432Y-89328165D01*
X155571660Y-89318844D01*
X155578224Y-89309021D01*
X155643316Y-89151874D01*
X155643888Y-89149001D01*
X155676500Y-88985045D01*
X155676500Y-88814954D01*
X155643317Y-88648129D01*
X155643316Y-88648127D01*
X155643316Y-88648126D01*
X155578224Y-88490979D01*
X155483724Y-88349551D01*
X155363449Y-88229276D01*
X155222021Y-88134776D01*
X155222020Y-88134775D01*
X155222018Y-88134774D01*
X155064874Y-88069684D01*
X155064870Y-88069682D01*
X154939468Y-88044739D01*
X154898047Y-88036500D01*
X154727953Y-88036500D01*
X154695783Y-88042899D01*
X154561129Y-88069682D01*
X154561125Y-88069684D01*
X154403981Y-88134774D01*
X154262553Y-88229274D01*
X154142274Y-88349553D01*
X154047774Y-88490981D01*
X153982684Y-88648125D01*
X153982682Y-88648129D01*
X153949500Y-88814954D01*
X153949500Y-88985045D01*
X153982682Y-89151870D01*
X153982684Y-89151874D01*
X154047774Y-89309018D01*
X154060568Y-89328165D01*
X154074860Y-89386570D01*
X154048266Y-89440496D01*
X153993231Y-89464712D01*
X153987482Y-89464900D01*
X153098518Y-89464900D01*
X153042017Y-89444335D01*
X153011953Y-89392264D01*
X153022394Y-89333050D01*
X153025432Y-89328165D01*
X153031660Y-89318844D01*
X153038224Y-89309021D01*
X153103316Y-89151874D01*
X153103888Y-89149001D01*
X153136500Y-88985045D01*
X153136500Y-88814954D01*
X153103317Y-88648129D01*
X153103316Y-88648127D01*
X153103316Y-88648126D01*
X153038224Y-88490979D01*
X152943724Y-88349551D01*
X152823449Y-88229276D01*
X152682021Y-88134776D01*
X152682020Y-88134775D01*
X152682018Y-88134774D01*
X152524874Y-88069684D01*
X152524870Y-88069682D01*
X152399468Y-88044739D01*
X152358047Y-88036500D01*
X152187953Y-88036500D01*
X152155783Y-88042899D01*
X152021129Y-88069682D01*
X152021125Y-88069684D01*
X151863981Y-88134774D01*
X151722553Y-88229274D01*
X151602274Y-88349553D01*
X151507774Y-88490981D01*
X151442684Y-88648125D01*
X151442682Y-88648129D01*
X151409500Y-88814954D01*
X151409500Y-88985045D01*
X151442682Y-89151870D01*
X151442684Y-89151874D01*
X151507774Y-89309018D01*
X151520568Y-89328165D01*
X151534860Y-89386570D01*
X151508266Y-89440496D01*
X151453231Y-89464712D01*
X151447482Y-89464900D01*
X150558518Y-89464900D01*
X150502017Y-89444335D01*
X150471953Y-89392264D01*
X150482394Y-89333050D01*
X150485432Y-89328165D01*
X150491660Y-89318844D01*
X150498224Y-89309021D01*
X150563316Y-89151874D01*
X150563888Y-89149001D01*
X150596500Y-88985045D01*
X150596500Y-88814954D01*
X150563317Y-88648129D01*
X150563316Y-88648127D01*
X150563316Y-88648126D01*
X150498224Y-88490979D01*
X150403724Y-88349551D01*
X150283449Y-88229276D01*
X150142021Y-88134776D01*
X150142020Y-88134775D01*
X150142018Y-88134774D01*
X149984874Y-88069684D01*
X149984870Y-88069682D01*
X149859468Y-88044739D01*
X149818047Y-88036500D01*
X149647953Y-88036500D01*
X149615783Y-88042899D01*
X149481129Y-88069682D01*
X149481125Y-88069684D01*
X149323981Y-88134774D01*
X149182553Y-88229274D01*
X149062274Y-88349553D01*
X148967774Y-88490981D01*
X148902684Y-88648125D01*
X148902682Y-88648129D01*
X148869500Y-88814954D01*
X148056500Y-88814954D01*
X148023317Y-88648129D01*
X148023316Y-88648127D01*
X148023316Y-88648126D01*
X147958224Y-88490979D01*
X147863724Y-88349551D01*
X147743449Y-88229276D01*
X147602021Y-88134776D01*
X147602020Y-88134775D01*
X147602018Y-88134774D01*
X147444874Y-88069684D01*
X147444870Y-88069682D01*
X147319468Y-88044739D01*
X147278047Y-88036500D01*
X147107953Y-88036500D01*
X147075783Y-88042899D01*
X146941129Y-88069682D01*
X146941125Y-88069684D01*
X146783981Y-88134774D01*
X146642553Y-88229274D01*
X146522274Y-88349553D01*
X146427774Y-88490981D01*
X146362684Y-88648125D01*
X146362682Y-88648129D01*
X146329500Y-88814954D01*
X145516500Y-88814954D01*
X145483317Y-88648129D01*
X145483316Y-88648127D01*
X145483316Y-88648126D01*
X145418224Y-88490979D01*
X145323724Y-88349551D01*
X145203449Y-88229276D01*
X145062021Y-88134776D01*
X145062020Y-88134775D01*
X145062018Y-88134774D01*
X144904874Y-88069684D01*
X144904870Y-88069682D01*
X144779468Y-88044739D01*
X144738047Y-88036500D01*
X144567953Y-88036500D01*
X144535783Y-88042899D01*
X144401129Y-88069682D01*
X144401125Y-88069684D01*
X144243981Y-88134774D01*
X144102553Y-88229274D01*
X143982274Y-88349553D01*
X143887774Y-88490981D01*
X143822684Y-88648125D01*
X143822682Y-88648129D01*
X143789500Y-88814954D01*
X142976500Y-88814954D01*
X142943317Y-88648129D01*
X142943316Y-88648127D01*
X142943316Y-88648126D01*
X142878224Y-88490979D01*
X142783724Y-88349551D01*
X142663449Y-88229276D01*
X142522021Y-88134776D01*
X142522020Y-88134775D01*
X142522018Y-88134774D01*
X142364874Y-88069684D01*
X142364870Y-88069682D01*
X142239468Y-88044739D01*
X142198047Y-88036500D01*
X142027953Y-88036500D01*
X141995783Y-88042899D01*
X141861129Y-88069682D01*
X141861125Y-88069684D01*
X141703981Y-88134774D01*
X141562553Y-88229274D01*
X141442274Y-88349553D01*
X141347774Y-88490981D01*
X141282684Y-88648125D01*
X141282682Y-88648129D01*
X141249500Y-88814954D01*
X140436500Y-88814954D01*
X140403317Y-88648129D01*
X140403316Y-88648127D01*
X140403316Y-88648126D01*
X140338224Y-88490979D01*
X140243724Y-88349551D01*
X140123449Y-88229276D01*
X139982021Y-88134776D01*
X139982020Y-88134775D01*
X139982018Y-88134774D01*
X139824874Y-88069684D01*
X139824870Y-88069682D01*
X139699468Y-88044739D01*
X139658047Y-88036500D01*
X139487953Y-88036500D01*
X139455783Y-88042899D01*
X139321129Y-88069682D01*
X139321125Y-88069684D01*
X139163981Y-88134774D01*
X139022553Y-88229274D01*
X138902274Y-88349553D01*
X138807774Y-88490981D01*
X138742684Y-88648125D01*
X138742682Y-88648129D01*
X138709500Y-88814954D01*
X137896500Y-88814954D01*
X137863317Y-88648129D01*
X137863316Y-88648127D01*
X137863316Y-88648126D01*
X137798224Y-88490979D01*
X137703724Y-88349551D01*
X137583449Y-88229276D01*
X137442021Y-88134776D01*
X137442020Y-88134775D01*
X137442018Y-88134774D01*
X137284874Y-88069684D01*
X137284870Y-88069682D01*
X137159468Y-88044739D01*
X137118047Y-88036500D01*
X136947953Y-88036500D01*
X136915783Y-88042899D01*
X136781129Y-88069682D01*
X136781125Y-88069684D01*
X136623981Y-88134774D01*
X136482553Y-88229274D01*
X136362274Y-88349553D01*
X136267774Y-88490981D01*
X136202684Y-88648125D01*
X136202682Y-88648129D01*
X136169500Y-88814954D01*
X116786500Y-88814954D01*
X116786500Y-87955602D01*
X127186900Y-87955602D01*
X127186900Y-88101603D01*
X127224686Y-88242628D01*
X127224687Y-88242631D01*
X127224688Y-88242632D01*
X127297689Y-88369074D01*
X127400929Y-88472314D01*
X127527371Y-88545315D01*
X127527373Y-88545315D01*
X127527374Y-88545316D01*
X127668399Y-88583103D01*
X127814400Y-88583103D01*
X127814401Y-88583103D01*
X127955429Y-88545315D01*
X128081871Y-88472314D01*
X128185111Y-88369074D01*
X128258112Y-88242632D01*
X128295900Y-88101604D01*
X128295900Y-88099400D01*
X128296354Y-88098151D01*
X128296652Y-88095892D01*
X128297152Y-88095957D01*
X128316465Y-88042899D01*
X128368536Y-88012835D01*
X128383800Y-88011500D01*
X128793038Y-88011500D01*
X128849539Y-88032065D01*
X128874246Y-88065761D01*
X128893188Y-88111489D01*
X128893191Y-88111495D01*
X129004429Y-88277976D01*
X129004430Y-88277977D01*
X129004433Y-88277981D01*
X129146019Y-88419567D01*
X129312507Y-88530810D01*
X129497498Y-88607436D01*
X129497503Y-88607437D01*
X129497506Y-88607438D01*
X129597017Y-88627231D01*
X129693884Y-88646500D01*
X129693886Y-88646500D01*
X129894114Y-88646500D01*
X129894116Y-88646500D01*
X130022694Y-88620923D01*
X130090493Y-88607438D01*
X130090494Y-88607437D01*
X130090502Y-88607436D01*
X130275493Y-88530810D01*
X130441981Y-88419567D01*
X130583567Y-88277981D01*
X130694810Y-88111493D01*
X130771436Y-87926502D01*
X130810500Y-87730116D01*
X130810500Y-87529884D01*
X130771436Y-87333498D01*
X130694810Y-87148507D01*
X130583567Y-86982019D01*
X130441981Y-86840433D01*
X130441977Y-86840430D01*
X130441976Y-86840429D01*
X130275496Y-86729192D01*
X130275495Y-86729191D01*
X130275493Y-86729190D01*
X130090502Y-86652564D01*
X130090498Y-86652563D01*
X130090493Y-86652561D01*
X129942711Y-86623166D01*
X129894116Y-86613500D01*
X129693884Y-86613500D01*
X129650639Y-86622101D01*
X129497506Y-86652561D01*
X129497501Y-86652563D01*
X129497499Y-86652563D01*
X129497498Y-86652564D01*
X129312507Y-86729190D01*
X129312505Y-86729190D01*
X129312503Y-86729192D01*
X129146023Y-86840429D01*
X129004429Y-86982023D01*
X128893191Y-87148504D01*
X128893188Y-87148510D01*
X128874246Y-87194239D01*
X128833625Y-87238569D01*
X128793038Y-87248500D01*
X128195626Y-87248500D01*
X128195610Y-87248499D01*
X128190228Y-87248499D01*
X128089778Y-87248499D01*
X128069274Y-87253993D01*
X127992750Y-87274497D01*
X127905754Y-87324725D01*
X127782122Y-87448358D01*
X127727628Y-87473769D01*
X127719967Y-87474103D01*
X127668399Y-87474103D01*
X127527374Y-87511889D01*
X127400927Y-87584893D01*
X127297690Y-87688130D01*
X127224686Y-87814577D01*
X127186900Y-87955602D01*
X116786500Y-87955602D01*
X116786500Y-85651999D01*
X127719300Y-85651999D01*
X127719300Y-85798000D01*
X127757086Y-85939025D01*
X127757087Y-85939028D01*
X127757088Y-85939029D01*
X127830089Y-86065471D01*
X127933329Y-86168711D01*
X128059771Y-86241712D01*
X128059773Y-86241712D01*
X128059774Y-86241713D01*
X128200799Y-86279500D01*
X128346800Y-86279500D01*
X128346801Y-86279500D01*
X128487829Y-86241712D01*
X128614271Y-86168711D01*
X128616548Y-86166434D01*
X133534900Y-86166434D01*
X133534900Y-86760551D01*
X133541200Y-86819159D01*
X133589944Y-86949844D01*
X133590642Y-86951715D01*
X133675426Y-87064974D01*
X133788685Y-87149758D01*
X133921243Y-87199200D01*
X133979843Y-87205500D01*
X134548956Y-87205499D01*
X134607557Y-87199200D01*
X134740115Y-87149758D01*
X134853374Y-87064974D01*
X134938158Y-86951715D01*
X134987600Y-86819157D01*
X134993900Y-86760557D01*
X134993899Y-86511231D01*
X135014463Y-86454731D01*
X135019632Y-86449089D01*
X135687276Y-85781447D01*
X135737502Y-85694453D01*
X135763500Y-85597425D01*
X135763500Y-85496975D01*
X135763500Y-85305399D01*
X135784065Y-85248898D01*
X135836136Y-85218834D01*
X135851400Y-85217499D01*
X135864268Y-85217499D01*
X135882761Y-85213820D01*
X135938501Y-85202734D01*
X136022684Y-85146484D01*
X136078934Y-85062301D01*
X136079504Y-85059434D01*
X165071100Y-85059434D01*
X165071100Y-85628551D01*
X165077400Y-85687159D01*
X165118743Y-85798000D01*
X165126842Y-85819715D01*
X165211626Y-85932974D01*
X165324885Y-86017758D01*
X165324886Y-86017758D01*
X165324887Y-86017759D01*
X165374417Y-86036232D01*
X165420169Y-86075244D01*
X165431600Y-86118590D01*
X165431600Y-86310525D01*
X165441116Y-86346039D01*
X165454999Y-86397853D01*
X165457599Y-86407554D01*
X165481572Y-86449077D01*
X165500207Y-86481353D01*
X165500207Y-86481354D01*
X165507821Y-86494543D01*
X165507822Y-86494544D01*
X165507824Y-86494547D01*
X165742468Y-86729190D01*
X165963122Y-86949844D01*
X165963122Y-86949845D01*
X166034149Y-87020873D01*
X166034151Y-87020874D01*
X166034153Y-87020876D01*
X166121146Y-87071101D01*
X166121148Y-87071101D01*
X166121149Y-87071102D01*
X166218175Y-87097100D01*
X168856598Y-87097100D01*
X168913099Y-87117665D01*
X168938955Y-87154281D01*
X168962242Y-87216715D01*
X169047026Y-87329974D01*
X169160285Y-87414758D01*
X169292843Y-87464200D01*
X169351443Y-87470500D01*
X169945556Y-87470499D01*
X170004157Y-87464200D01*
X170136715Y-87414758D01*
X170249974Y-87329974D01*
X170334758Y-87216715D01*
X170384200Y-87084157D01*
X170390500Y-87025557D01*
X170390499Y-86456444D01*
X170390498Y-86456434D01*
X170731500Y-86456434D01*
X170731500Y-87025551D01*
X170737800Y-87084159D01*
X170783059Y-87205499D01*
X170787242Y-87216715D01*
X170872026Y-87329974D01*
X170985285Y-87414758D01*
X171117843Y-87464200D01*
X171176443Y-87470500D01*
X171770556Y-87470499D01*
X171829157Y-87464200D01*
X171961715Y-87414758D01*
X172074974Y-87329974D01*
X172159758Y-87216715D01*
X172173571Y-87179682D01*
X172212585Y-87133930D01*
X172255929Y-87122500D01*
X172993509Y-87122500D01*
X173050010Y-87143065D01*
X173075867Y-87179681D01*
X173122858Y-87305667D01*
X173209796Y-87421804D01*
X173325933Y-87508742D01*
X173461858Y-87559440D01*
X173521945Y-87565900D01*
X174433454Y-87565899D01*
X174493542Y-87559440D01*
X174629467Y-87508742D01*
X174745604Y-87421804D01*
X174832542Y-87305667D01*
X174883240Y-87169742D01*
X174889700Y-87109655D01*
X174889699Y-86423146D01*
X174883240Y-86363058D01*
X174874242Y-86338935D01*
X174851111Y-86276919D01*
X174832542Y-86227133D01*
X174745604Y-86110996D01*
X174629467Y-86024058D01*
X174629465Y-86024057D01*
X174574396Y-86003517D01*
X174493542Y-85973360D01*
X174493539Y-85973359D01*
X174493531Y-85973358D01*
X174437704Y-85967356D01*
X174383725Y-85940870D01*
X174359400Y-85885883D01*
X174359200Y-85879960D01*
X174359200Y-84322217D01*
X174359201Y-84322204D01*
X174359201Y-84214675D01*
X174333202Y-84117647D01*
X174323937Y-84101599D01*
X174282976Y-84030653D01*
X173752047Y-83499724D01*
X173725927Y-83484644D01*
X173665054Y-83449499D01*
X173665053Y-83449498D01*
X173665052Y-83449498D01*
X173568025Y-83423500D01*
X173173675Y-83423500D01*
X173135070Y-83414569D01*
X173111812Y-83403199D01*
X173024550Y-83360539D01*
X172955646Y-83350500D01*
X171588354Y-83350500D01*
X171519450Y-83360539D01*
X171519448Y-83360540D01*
X171413162Y-83412499D01*
X171329499Y-83496162D01*
X171278647Y-83600182D01*
X171277539Y-83602450D01*
X171267500Y-83671354D01*
X171267500Y-83938646D01*
X171277539Y-84007550D01*
X171291235Y-84035565D01*
X171329499Y-84113837D01*
X171329500Y-84113838D01*
X171329501Y-84113840D01*
X171413160Y-84197499D01*
X171519450Y-84249461D01*
X171588354Y-84259500D01*
X171588359Y-84259500D01*
X172955641Y-84259500D01*
X172955646Y-84259500D01*
X173024550Y-84249461D01*
X173130840Y-84197499D01*
X173130840Y-84197498D01*
X173135070Y-84195431D01*
X173140889Y-84194084D01*
X173143611Y-84191801D01*
X173173675Y-84186500D01*
X173323367Y-84186500D01*
X173379868Y-84207065D01*
X173385522Y-84212245D01*
X173570455Y-84397178D01*
X173595866Y-84451672D01*
X173596200Y-84459333D01*
X173596200Y-85879961D01*
X173575635Y-85936462D01*
X173523564Y-85966526D01*
X173517695Y-85967357D01*
X173461861Y-85973358D01*
X173461856Y-85973360D01*
X173325934Y-86024057D01*
X173209798Y-86110994D01*
X173209794Y-86110998D01*
X173122857Y-86227134D01*
X173094815Y-86302318D01*
X173055801Y-86348070D01*
X173012457Y-86359500D01*
X172255929Y-86359500D01*
X172199428Y-86338935D01*
X172173571Y-86302318D01*
X172159758Y-86265285D01*
X172142112Y-86241713D01*
X172074974Y-86152026D01*
X171961715Y-86067242D01*
X171829157Y-86017800D01*
X171829154Y-86017799D01*
X171829146Y-86017798D01*
X171770561Y-86011500D01*
X171176448Y-86011500D01*
X171117840Y-86017800D01*
X170985284Y-86067242D01*
X170872028Y-86152024D01*
X170872024Y-86152028D01*
X170787242Y-86265284D01*
X170737800Y-86397843D01*
X170737798Y-86397853D01*
X170731500Y-86456434D01*
X170390498Y-86456434D01*
X170384200Y-86397843D01*
X170334758Y-86265285D01*
X170249974Y-86152026D01*
X170136715Y-86067242D01*
X170087181Y-86048766D01*
X170041430Y-86009753D01*
X170030000Y-85966409D01*
X170030000Y-85647400D01*
X170050565Y-85590899D01*
X170102636Y-85560835D01*
X170117900Y-85559500D01*
X170295641Y-85559500D01*
X170295646Y-85559500D01*
X170364550Y-85549461D01*
X170470840Y-85497499D01*
X170554499Y-85413840D01*
X170606461Y-85307550D01*
X170616500Y-85238646D01*
X170616500Y-84971354D01*
X170606461Y-84902450D01*
X170554499Y-84796160D01*
X170470840Y-84712501D01*
X170470838Y-84712500D01*
X170470837Y-84712499D01*
X170416561Y-84685965D01*
X170364550Y-84660539D01*
X170295646Y-84650500D01*
X168928354Y-84650500D01*
X168859450Y-84660539D01*
X168859448Y-84660540D01*
X168753162Y-84712499D01*
X168669499Y-84796162D01*
X168634241Y-84868285D01*
X168617539Y-84902450D01*
X168607500Y-84971354D01*
X168607500Y-85238646D01*
X168617539Y-85307550D01*
X168639644Y-85352766D01*
X168669499Y-85413837D01*
X168669500Y-85413838D01*
X168669501Y-85413840D01*
X168753160Y-85497499D01*
X168859450Y-85549461D01*
X168928354Y-85559500D01*
X169179100Y-85559500D01*
X169235601Y-85580065D01*
X169265665Y-85632136D01*
X169267000Y-85647400D01*
X169267000Y-85966409D01*
X169246435Y-86022910D01*
X169209818Y-86048767D01*
X169160284Y-86067242D01*
X169047028Y-86152024D01*
X169047024Y-86152028D01*
X168962240Y-86265286D01*
X168957902Y-86276919D01*
X168918889Y-86322670D01*
X168875545Y-86334100D01*
X166462832Y-86334100D01*
X166406331Y-86313535D01*
X166400677Y-86308354D01*
X166258745Y-86166421D01*
X166233334Y-86111928D01*
X166248897Y-86053849D01*
X166290183Y-86021909D01*
X166301315Y-86017758D01*
X166414574Y-85932974D01*
X166499358Y-85819715D01*
X166548800Y-85687157D01*
X166555100Y-85628557D01*
X166555099Y-85059444D01*
X166548800Y-85000843D01*
X166544712Y-84989884D01*
X166512100Y-84902448D01*
X166499358Y-84868285D01*
X166414574Y-84755026D01*
X166301315Y-84670242D01*
X166168757Y-84620800D01*
X166168754Y-84620799D01*
X166168746Y-84620798D01*
X166110161Y-84614500D01*
X165516048Y-84614500D01*
X165457440Y-84620800D01*
X165324884Y-84670242D01*
X165211628Y-84755024D01*
X165211624Y-84755028D01*
X165126842Y-84868284D01*
X165077400Y-85000843D01*
X165077398Y-85000853D01*
X165071100Y-85059434D01*
X136079504Y-85059434D01*
X136093700Y-84988067D01*
X136093699Y-84429934D01*
X136093699Y-84429933D01*
X136093699Y-84429931D01*
X136087184Y-84397178D01*
X136078934Y-84355699D01*
X136022684Y-84271516D01*
X135990834Y-84250234D01*
X135938501Y-84215265D01*
X135885392Y-84204702D01*
X135864267Y-84200500D01*
X135864265Y-84200500D01*
X134899731Y-84200500D01*
X134825499Y-84215266D01*
X134741317Y-84271515D01*
X134741314Y-84271518D01*
X134685065Y-84355698D01*
X134676815Y-84397178D01*
X134670301Y-84429931D01*
X134670300Y-84429934D01*
X134670300Y-84988068D01*
X134680618Y-85039939D01*
X134685066Y-85062301D01*
X134741316Y-85146484D01*
X134825499Y-85202734D01*
X134899733Y-85217500D01*
X134912597Y-85217499D01*
X134934056Y-85225308D01*
X134956550Y-85229275D01*
X134961646Y-85235348D01*
X134969097Y-85238060D01*
X134980518Y-85257838D01*
X134995199Y-85275335D01*
X134997211Y-85286748D01*
X134999164Y-85290130D01*
X135000500Y-85305399D01*
X135000500Y-85352766D01*
X134979935Y-85409267D01*
X134974755Y-85414921D01*
X134686156Y-85703519D01*
X134631662Y-85728930D01*
X134613110Y-85727587D01*
X134613025Y-85728387D01*
X134548961Y-85721500D01*
X133979848Y-85721500D01*
X133921240Y-85727800D01*
X133788684Y-85777242D01*
X133675428Y-85862024D01*
X133675424Y-85862028D01*
X133590642Y-85975284D01*
X133541200Y-86107843D01*
X133541198Y-86107853D01*
X133534900Y-86166434D01*
X128616548Y-86166434D01*
X128717511Y-86065471D01*
X128790512Y-85939029D01*
X128828300Y-85798001D01*
X128828300Y-85764146D01*
X128848865Y-85707645D01*
X128900936Y-85677581D01*
X128960150Y-85688022D01*
X128989284Y-85715309D01*
X129004433Y-85737981D01*
X129146019Y-85879567D01*
X129146022Y-85879569D01*
X129146023Y-85879570D01*
X129225944Y-85932971D01*
X129312507Y-85990810D01*
X129497498Y-86067436D01*
X129497503Y-86067437D01*
X129497506Y-86067438D01*
X129597017Y-86087231D01*
X129693884Y-86106500D01*
X129693886Y-86106500D01*
X129894114Y-86106500D01*
X129894116Y-86106500D01*
X129967026Y-86091997D01*
X130038009Y-86077878D01*
X130090493Y-86067438D01*
X130090494Y-86067437D01*
X130090502Y-86067436D01*
X130275493Y-85990810D01*
X130441981Y-85879567D01*
X130583567Y-85737981D01*
X130694810Y-85571493D01*
X130771436Y-85386502D01*
X130771829Y-85384529D01*
X130790606Y-85290130D01*
X130810500Y-85190116D01*
X130810500Y-84989884D01*
X130771436Y-84793498D01*
X130694810Y-84608507D01*
X130612844Y-84485835D01*
X130583570Y-84442023D01*
X130583569Y-84442022D01*
X130583567Y-84442019D01*
X130441981Y-84300433D01*
X130441977Y-84300430D01*
X130441976Y-84300429D01*
X130306767Y-84210086D01*
X130271213Y-84161597D01*
X130275145Y-84101599D01*
X130316724Y-84058165D01*
X130355601Y-84049100D01*
X132569191Y-84049100D01*
X132625692Y-84069665D01*
X132650402Y-84103367D01*
X132653065Y-84109798D01*
X132653066Y-84109801D01*
X132709316Y-84193984D01*
X132728893Y-84207065D01*
X132793498Y-84250234D01*
X132804061Y-84252335D01*
X132867733Y-84265000D01*
X133832266Y-84264999D01*
X133832268Y-84264999D01*
X133850761Y-84261320D01*
X133906501Y-84250234D01*
X133990684Y-84193984D01*
X134046934Y-84109801D01*
X134061700Y-84035567D01*
X134061699Y-83477434D01*
X134061699Y-83477431D01*
X134056143Y-83449498D01*
X134046934Y-83403199D01*
X133990684Y-83319016D01*
X133958834Y-83297734D01*
X133906501Y-83262765D01*
X133853392Y-83252202D01*
X133832267Y-83248000D01*
X133832265Y-83248000D01*
X132867731Y-83248000D01*
X132793497Y-83262766D01*
X132780749Y-83271285D01*
X132731913Y-83286100D01*
X129105540Y-83286100D01*
X129071904Y-83279410D01*
X129068229Y-83277887D01*
X128927201Y-83240100D01*
X128781199Y-83240100D01*
X128640174Y-83277886D01*
X128513727Y-83350890D01*
X128410490Y-83454127D01*
X128337486Y-83580574D01*
X128299700Y-83721599D01*
X128299700Y-83867600D01*
X128337486Y-84008625D01*
X128337487Y-84008628D01*
X128337488Y-84008629D01*
X128410489Y-84135071D01*
X128513729Y-84238311D01*
X128640171Y-84311312D01*
X128640173Y-84311312D01*
X128640174Y-84311313D01*
X128781199Y-84349100D01*
X128902071Y-84349100D01*
X128958572Y-84369665D01*
X128988636Y-84421736D01*
X128978195Y-84480950D01*
X128975166Y-84485819D01*
X128936432Y-84543790D01*
X128893188Y-84608509D01*
X128893188Y-84608510D01*
X128867509Y-84670502D01*
X128826887Y-84714832D01*
X128809053Y-84721768D01*
X128761548Y-84734497D01*
X128674551Y-84784725D01*
X128314522Y-85144755D01*
X128260028Y-85170166D01*
X128252367Y-85170500D01*
X128200799Y-85170500D01*
X128059774Y-85208286D01*
X127933327Y-85281290D01*
X127830090Y-85384527D01*
X127757086Y-85510974D01*
X127719300Y-85651999D01*
X116786500Y-85651999D01*
X116786500Y-84076155D01*
X116786606Y-84071842D01*
X116787278Y-84058165D01*
X116804892Y-83699611D01*
X116805734Y-83691062D01*
X116860104Y-83324523D01*
X116861781Y-83316093D01*
X116951813Y-82956666D01*
X116954315Y-82948421D01*
X116974502Y-82892001D01*
X117079139Y-82599558D01*
X117082438Y-82591598D01*
X117104634Y-82544669D01*
X117113968Y-82524934D01*
X134670300Y-82524934D01*
X134670300Y-83083068D01*
X134683226Y-83148053D01*
X134685066Y-83157301D01*
X134741316Y-83241484D01*
X134762966Y-83255950D01*
X134825498Y-83297734D01*
X134836061Y-83299835D01*
X134899733Y-83312500D01*
X135864266Y-83312499D01*
X135864268Y-83312499D01*
X135882761Y-83308820D01*
X135938501Y-83297734D01*
X136022684Y-83241484D01*
X136031293Y-83228598D01*
X136079780Y-83193045D01*
X136139778Y-83196976D01*
X136183213Y-83238554D01*
X136186737Y-83246714D01*
X136232242Y-83368716D01*
X136273253Y-83423500D01*
X136317026Y-83481974D01*
X136430285Y-83566758D01*
X136562843Y-83616200D01*
X136621443Y-83622500D01*
X137190556Y-83622499D01*
X137249157Y-83616200D01*
X137381715Y-83566758D01*
X137494974Y-83481974D01*
X137579758Y-83368715D01*
X137585642Y-83352938D01*
X137624654Y-83307187D01*
X137683949Y-83297215D01*
X137735781Y-83327690D01*
X137750358Y-83352939D01*
X137756241Y-83368714D01*
X137790568Y-83414569D01*
X137841026Y-83481974D01*
X137954285Y-83566758D01*
X138086843Y-83616200D01*
X138145443Y-83622500D01*
X138714556Y-83622499D01*
X138773157Y-83616200D01*
X138905715Y-83566758D01*
X139018974Y-83481974D01*
X139103758Y-83368715D01*
X139140882Y-83269181D01*
X139145799Y-83263414D01*
X139147116Y-83255950D01*
X139164863Y-83241058D01*
X139179895Y-83223430D01*
X139188610Y-83221131D01*
X139193176Y-83217301D01*
X139223240Y-83212000D01*
X139311708Y-83212000D01*
X139368209Y-83232565D01*
X139373863Y-83237745D01*
X139410329Y-83274211D01*
X139536771Y-83347212D01*
X139536773Y-83347212D01*
X139536774Y-83347213D01*
X139677799Y-83385000D01*
X139823800Y-83385000D01*
X139823801Y-83385000D01*
X139964829Y-83347212D01*
X140091271Y-83274211D01*
X140127737Y-83237745D01*
X140182231Y-83212334D01*
X140189892Y-83212000D01*
X141911054Y-83212000D01*
X141967555Y-83232565D01*
X141997265Y-83282752D01*
X141997500Y-83283933D01*
X141997500Y-83283935D01*
X141999400Y-83293485D01*
X142036101Y-83477998D01*
X142036103Y-83478002D01*
X142111822Y-83660806D01*
X142111823Y-83660808D01*
X142111824Y-83660809D01*
X142221754Y-83825331D01*
X142361669Y-83965246D01*
X142526191Y-84075176D01*
X142526193Y-84075177D01*
X142526192Y-84075177D01*
X142594250Y-84103367D01*
X142708998Y-84150897D01*
X142708999Y-84150897D01*
X142709001Y-84150898D01*
X142806690Y-84170329D01*
X142903065Y-84189500D01*
X142903067Y-84189500D01*
X143100933Y-84189500D01*
X143100935Y-84189500D01*
X143238531Y-84162130D01*
X143294998Y-84150898D01*
X143294998Y-84150897D01*
X143295002Y-84150897D01*
X143477809Y-84075176D01*
X143642331Y-83965246D01*
X143782246Y-83825331D01*
X143892176Y-83660809D01*
X143965150Y-83484634D01*
X166896100Y-83484634D01*
X166896100Y-84053751D01*
X166902400Y-84112359D01*
X166940563Y-84214675D01*
X166951842Y-84244915D01*
X167036626Y-84358174D01*
X167149885Y-84442958D01*
X167149886Y-84442958D01*
X167149887Y-84442959D01*
X167199417Y-84461432D01*
X167205184Y-84466349D01*
X167212650Y-84467666D01*
X167227542Y-84485414D01*
X167245169Y-84500444D01*
X167247467Y-84509159D01*
X167251299Y-84513726D01*
X167256600Y-84543790D01*
X167256600Y-84569409D01*
X167236035Y-84625910D01*
X167199418Y-84651767D01*
X167149884Y-84670242D01*
X167036628Y-84755024D01*
X167036624Y-84755028D01*
X166951842Y-84868284D01*
X166902400Y-85000843D01*
X166902398Y-85000853D01*
X166896100Y-85059434D01*
X166896100Y-85628551D01*
X166902400Y-85687159D01*
X166943743Y-85798000D01*
X166951842Y-85819715D01*
X167036626Y-85932974D01*
X167149885Y-86017758D01*
X167282443Y-86067200D01*
X167341043Y-86073500D01*
X167935156Y-86073499D01*
X167993757Y-86067200D01*
X168126315Y-86017758D01*
X168239574Y-85932974D01*
X168324358Y-85819715D01*
X168373800Y-85687157D01*
X168380100Y-85628557D01*
X168380099Y-85059444D01*
X168373800Y-85000843D01*
X168369712Y-84989884D01*
X168337100Y-84902448D01*
X168324358Y-84868285D01*
X168239574Y-84755026D01*
X168126315Y-84670242D01*
X168076781Y-84651766D01*
X168071014Y-84646849D01*
X168063550Y-84645533D01*
X168048656Y-84627783D01*
X168031030Y-84612753D01*
X168028731Y-84604038D01*
X168024901Y-84599473D01*
X168019600Y-84569409D01*
X168019600Y-84543790D01*
X168040165Y-84487289D01*
X168076783Y-84461432D01*
X168126312Y-84442959D01*
X168126311Y-84442959D01*
X168126315Y-84442958D01*
X168239574Y-84358174D01*
X168324358Y-84244915D01*
X168335637Y-84214675D01*
X168338171Y-84207882D01*
X168377185Y-84162130D01*
X168420529Y-84150700D01*
X168669951Y-84150700D01*
X168726452Y-84171265D01*
X168732105Y-84176444D01*
X168753161Y-84197500D01*
X168778907Y-84210086D01*
X168859450Y-84249461D01*
X168928354Y-84259500D01*
X168928359Y-84259500D01*
X170295641Y-84259500D01*
X170295646Y-84259500D01*
X170364550Y-84249461D01*
X170470840Y-84197499D01*
X170554499Y-84113840D01*
X170606461Y-84007550D01*
X170616500Y-83938646D01*
X170616500Y-83671354D01*
X170606461Y-83602450D01*
X170554499Y-83496160D01*
X170470840Y-83412501D01*
X170470838Y-83412500D01*
X170470837Y-83412499D01*
X170378042Y-83367135D01*
X170364550Y-83360539D01*
X170295646Y-83350500D01*
X168928354Y-83350500D01*
X168859450Y-83360539D01*
X168859448Y-83360540D01*
X168822160Y-83378769D01*
X168783555Y-83387700D01*
X168420529Y-83387700D01*
X168364028Y-83367135D01*
X168338171Y-83330518D01*
X168324358Y-83293485D01*
X168317209Y-83283935D01*
X168239574Y-83180226D01*
X168126315Y-83095442D01*
X167993757Y-83046000D01*
X167993754Y-83045999D01*
X167993746Y-83045998D01*
X167935161Y-83039700D01*
X167341048Y-83039700D01*
X167282440Y-83046000D01*
X167149884Y-83095442D01*
X167036628Y-83180224D01*
X167036624Y-83180228D01*
X166951842Y-83293484D01*
X166902400Y-83426043D01*
X166902398Y-83426053D01*
X166896100Y-83484634D01*
X143965150Y-83484634D01*
X143967897Y-83478002D01*
X143969235Y-83471275D01*
X143970456Y-83465140D01*
X143970456Y-83465139D01*
X143992774Y-83352939D01*
X144006500Y-83283935D01*
X144006500Y-83086065D01*
X143979929Y-82952485D01*
X143967898Y-82892001D01*
X143967897Y-82891999D01*
X143967897Y-82891998D01*
X143892176Y-82709191D01*
X143782246Y-82544669D01*
X143642331Y-82404754D01*
X143477809Y-82294824D01*
X143477806Y-82294822D01*
X143477807Y-82294822D01*
X143295002Y-82219103D01*
X143294998Y-82219101D01*
X143149120Y-82190084D01*
X143100935Y-82180500D01*
X142903065Y-82180500D01*
X142860200Y-82189026D01*
X142709001Y-82219101D01*
X142708997Y-82219103D01*
X142526193Y-82294822D01*
X142361671Y-82404752D01*
X142361669Y-82404753D01*
X142361669Y-82404754D01*
X142343167Y-82423255D01*
X142288675Y-82448666D01*
X142281014Y-82449000D01*
X140189892Y-82449000D01*
X140133391Y-82428435D01*
X140127737Y-82423255D01*
X140091272Y-82386790D01*
X140091271Y-82386789D01*
X139964829Y-82313788D01*
X139964828Y-82313787D01*
X139964825Y-82313786D01*
X139823801Y-82276000D01*
X139677799Y-82276000D01*
X139536774Y-82313786D01*
X139410327Y-82386790D01*
X139373863Y-82423255D01*
X139356471Y-82431365D01*
X139341772Y-82443699D01*
X139322875Y-82447030D01*
X139319369Y-82448666D01*
X139311708Y-82449000D01*
X139223240Y-82449000D01*
X139166739Y-82428435D01*
X139140882Y-82391818D01*
X139131446Y-82366519D01*
X139103758Y-82292285D01*
X139018974Y-82179026D01*
X138905715Y-82094242D01*
X138773157Y-82044800D01*
X138773154Y-82044799D01*
X138773146Y-82044798D01*
X138714561Y-82038500D01*
X138145448Y-82038500D01*
X138086840Y-82044800D01*
X137954284Y-82094242D01*
X137841028Y-82179024D01*
X137841024Y-82179028D01*
X137756242Y-82292284D01*
X137750358Y-82308061D01*
X137711345Y-82353813D01*
X137652050Y-82363784D01*
X137600219Y-82333308D01*
X137585642Y-82308061D01*
X137579758Y-82292285D01*
X137494974Y-82179026D01*
X137381715Y-82094242D01*
X137249157Y-82044800D01*
X137249154Y-82044799D01*
X137249146Y-82044798D01*
X137190561Y-82038500D01*
X136621448Y-82038500D01*
X136562840Y-82044800D01*
X136430284Y-82094242D01*
X136317028Y-82179024D01*
X136317024Y-82179028D01*
X136232242Y-82292284D01*
X136205002Y-82365318D01*
X136200084Y-82371085D01*
X136198768Y-82378550D01*
X136181020Y-82393441D01*
X136165989Y-82411070D01*
X136157273Y-82413368D01*
X136152708Y-82417199D01*
X136122644Y-82422500D01*
X136107075Y-82422500D01*
X136050574Y-82401935D01*
X136033990Y-82383436D01*
X136022686Y-82366519D01*
X136022685Y-82366518D01*
X136022684Y-82366516D01*
X136003673Y-82353813D01*
X135938501Y-82310265D01*
X135885392Y-82299702D01*
X135864267Y-82295500D01*
X135864265Y-82295500D01*
X134899731Y-82295500D01*
X134825499Y-82310266D01*
X134741317Y-82366515D01*
X134741314Y-82366518D01*
X134685065Y-82450698D01*
X134670300Y-82524934D01*
X117113968Y-82524934D01*
X117240855Y-82256651D01*
X117244919Y-82249052D01*
X117337708Y-82094242D01*
X117435399Y-81931254D01*
X117440178Y-81924100D01*
X117660904Y-81626486D01*
X117666372Y-81619824D01*
X117915209Y-81345274D01*
X117921274Y-81339209D01*
X118195829Y-81090367D01*
X118202486Y-81084904D01*
X118500100Y-80864178D01*
X118507254Y-80859399D01*
X118825052Y-80668919D01*
X118832651Y-80664855D01*
X119167613Y-80506430D01*
X119175558Y-80503139D01*
X119524423Y-80378314D01*
X119532666Y-80375813D01*
X119892093Y-80285781D01*
X119900523Y-80284104D01*
X120267062Y-80229734D01*
X120275611Y-80228892D01*
X120647842Y-80210605D01*
X120652155Y-80210500D01*
X120689882Y-80210500D01*
X181316118Y-80210500D01*
X181353845Y-80210500D01*
X181358157Y-80210605D01*
G37*
%TD.AperFunction*%
%TD*%
M02*
