M48
; DRILL file {KiCad 9.0.8-9.0.8~ubuntu22.04.1} date 2026-03-23T14:46:34-0500
; FORMAT={-:-/ absolute / inch / decimal}
; #@! TF.CreationDate,2026-03-23T14:46:34-05:00
; #@! TF.GenerationSoftware,Kicad,Pcbnew,9.0.8-9.0.8~ubuntu22.04.1
; #@! TF.FileFunction,Plated,1,2,PTH
FMAT,2
INCH
; #@! TA.AperFunction,Plated,PTH,ViaDrill
T1C0.0118
; #@! TA.AperFunction,Plated,PTH,ComponentDrill
T2C0.0197
; #@! TA.AperFunction,Plated,PTH,ComponentDrill
T3C0.0280
; #@! TA.AperFunction,Plated,PTH,ComponentDrill
T4C0.0354
; #@! TA.AperFunction,Plated,PTH,ComponentDrill
T5C0.1160
%
G90
G05
T1
X4.62Y-3.4
X4.62Y-3.6
X4.62Y-3.8
X4.62Y-4.0
X4.73Y-3.675
X4.73Y-3.88
X4.735Y-3.53
X4.735Y-3.735
X4.855Y-3.53
X4.855Y-3.675
X4.855Y-3.735
X4.855Y-3.88
X4.86Y-3.17
X4.86Y-4.224
X5.0042Y-3.575
X5.025Y-4.065
X5.025Y-4.095
X5.0292Y-3.4657
X5.0501Y-3.375
X5.0501Y-3.99
X5.06Y-3.17
X5.06Y-4.224
X5.073Y-3.299
X5.18Y-3.25
X5.18Y-3.334
X5.1875Y-4.0425
X5.215Y-4.145
X5.23Y-3.978
X5.26Y-3.17
X5.26Y-4.224
X5.265Y-3.585
X5.265Y-3.805
X5.285Y-3.915
X5.288Y-3.518
X5.31Y-4.075
X5.3359Y-4.15
X5.362Y-3.562
X5.395Y-4.0
X5.395Y-4.14
X5.425Y-3.775
X5.426Y-4.086
X5.45Y-3.654
X5.45Y-3.712
X5.45Y-3.802
X5.45Y-3.9
X5.46Y-3.17
X5.46Y-4.224
X5.466Y-3.992
X5.498Y-4.086
X5.502Y-3.261
X5.542Y-3.9
X5.554Y-3.656
X5.554Y-3.714
X5.554Y-3.804
X5.568Y-4.086
X5.605Y-3.7058
X5.66Y-3.17
X5.66Y-4.224
X5.662Y-4.086
X5.68Y-4.18
X5.7Y-3.649
X5.7Y-3.716
X5.734Y-4.088
X5.768Y-3.716
X5.77Y-3.649
X5.785Y-3.365
X5.79Y-3.22
X5.8Y-3.806
X5.81Y-4.091
X5.85Y-4.0657
X5.855Y-3.695
X5.8554Y-3.825
X5.86Y-3.17
X5.86Y-3.65
X5.86Y-4.224
X5.9046Y-3.825
X5.91Y-3.22
X5.91Y-3.365
X5.93Y-3.96
X5.9318Y-3.7542
X5.9322Y-3.825
X5.9322Y-3.5925
X5.936Y-4.124
X5.9392Y-4.05
X5.948Y-3.884
X5.96Y-3.9842
X5.964Y-3.752
X5.991Y-4.104
X6.005Y-4.0258
X6.005Y-4.07
X6.008Y-3.968
X6.009Y-3.5925
X6.01Y-3.812
X6.025Y-3.69
X6.044Y-3.888
X6.045Y-3.58
X6.05Y-3.365
X6.055Y-3.22
X6.058Y-4.014
X6.06Y-3.17
X6.06Y-4.224
X6.09Y-3.7958
X6.098Y-3.84
X6.1091Y-3.98
X6.11Y-4.166
X6.111Y-4.038
X6.14Y-3.57
X6.145Y-3.69
X6.15Y-3.84
X6.152Y-3.748
X6.175Y-3.22
X6.175Y-3.365
X6.179Y-4.038
X6.1795Y-4.132
X6.2Y-3.635
X6.22Y-3.835
X6.221Y-3.565
X6.234Y-3.936
X6.255Y-4.06
X6.2565Y-4.132
X6.26Y-3.17
X6.26Y-3.616
X6.26Y-3.748
X6.26Y-4.224
X6.268Y-3.97
X6.27Y-3.365
X6.275Y-3.22
X6.289Y-3.565
X6.2909Y-3.835
X6.295Y-4.01
X6.3408Y-4.125
X6.345Y-4.015
X6.348Y-3.826
X6.35Y-3.895
X6.354Y-3.748
X6.358Y-3.568
X6.37Y-4.15
X6.378Y-4.04
X6.38Y-3.7958
X6.395Y-3.22
X6.395Y-3.365
X6.425Y-3.685
X6.44Y-3.895
X6.44Y-3.98
X6.442Y-3.746
X6.442Y-3.804
X6.46Y-3.17
X6.46Y-4.224
X6.4909Y-3.57
X6.524Y-3.258
X6.525Y-4.0125
X6.544Y-3.748
X6.544Y-3.806
X6.545Y-3.685
X6.55Y-3.93
X6.612Y-4.11
X6.615Y-3.515
X6.615Y-3.6
X6.615Y-3.985
X6.616Y-3.928
X6.618Y-3.87
X6.65Y-3.905
X6.654Y-3.746
X6.654Y-3.802
X6.655Y-3.66
X6.66Y-3.17
X6.66Y-4.224
X6.6674Y-4.0844
X6.6674Y-4.1356
X6.67Y-4.02
X6.68Y-3.415
X6.6815Y-3.48
X6.702Y-3.896
X6.705Y-3.845
X6.73Y-3.79
X6.732Y-3.328
X6.745Y-3.89
X6.7509Y-3.415
X6.77Y-3.66
X6.794Y-3.382
X6.795Y-4.01
X6.796Y-3.96
X6.805Y-3.47
X6.86Y-3.17
X6.86Y-4.224
X6.874Y-3.72
X6.878Y-4.1385
X6.885Y-3.635
X6.8874Y-3.815
X6.8894Y-3.585
X6.89Y-4.006
X6.895Y-3.515
X6.895Y-3.895
X6.915Y-3.815
X6.92Y-3.7699
X6.935Y-3.735
X6.9406Y-3.585
X6.959Y-3.96
X6.96Y-3.68
X6.965Y-3.895
X6.965Y-3.895
X6.974Y-3.414
X6.982Y-3.23
X6.9918Y-3.585
X7.04Y-3.515
X7.045Y-3.62
X7.055Y-3.74
X7.06Y-3.17
X7.06Y-4.224
X7.085Y-3.905
X7.12Y-3.635
X7.12Y-3.87
X7.125Y-3.49
X7.125Y-3.725
X7.27Y-3.4
X7.27Y-3.6
X7.27Y-3.8
X7.27Y-4.0
T2
X4.6555Y-3.31
X4.6555Y-4.09
X4.6832Y-3.2432
X4.6832Y-3.3768
X4.6832Y-4.0232
X4.6832Y-4.1568
X4.75Y-3.2155
X4.75Y-3.4045
X4.75Y-3.9955
X4.75Y-4.1845
X4.8168Y-3.2432
X4.8168Y-3.3768
X4.8168Y-4.0232
X4.8168Y-4.1568
X4.8445Y-3.31
X4.8445Y-4.09
X7.0455Y-3.31
X7.0455Y-4.09
X7.0732Y-3.2432
X7.0732Y-3.3768
X7.0732Y-4.0232
X7.0732Y-4.1568
X7.14Y-3.2155
X7.14Y-3.4045
X7.14Y-3.9955
X7.14Y-4.1845
X7.2068Y-3.2432
X7.2068Y-3.3768
X7.2068Y-4.0232
X7.2068Y-4.1568
X7.2345Y-3.31
X7.2345Y-4.09
T3
X5.395Y-3.5
X5.395Y-3.9
X5.495Y-3.5
X5.495Y-3.9
X5.595Y-3.5
X5.595Y-3.9
X5.695Y-3.5
X5.695Y-3.9
X5.795Y-3.5
X5.795Y-3.9
X5.895Y-3.5
X5.895Y-3.9
X5.995Y-3.5
X5.995Y-3.9
X6.095Y-3.5
X6.095Y-3.9
X6.195Y-3.5
X6.195Y-3.9
X6.295Y-3.5
X6.295Y-3.9
X6.395Y-3.5
X6.395Y-3.9
X6.495Y-3.5
X6.495Y-3.9
T4
X5.11Y-3.25
X5.11Y-3.35
X5.11Y-3.45
X5.11Y-3.55
X5.11Y-3.65
X5.11Y-3.75
X5.11Y-3.85
X5.11Y-3.95
X5.11Y-4.05
X5.11Y-4.15
T5
X4.75Y-3.31
X4.75Y-4.09
X7.14Y-3.31
X7.14Y-4.09
M30
