%TF.GenerationSoftware,KiCad,Pcbnew,9.0.8-9.0.8~ubuntu22.04.1*%
%TF.CreationDate,2026-03-23T14:46:36-05:00*%
%TF.ProjectId,CCD_Breakout,4343445f-4272-4656-916b-6f75742e6b69,rev?*%
%TF.SameCoordinates,Original*%
%TF.FileFunction,Legend,Bot*%
%TF.FilePolarity,Positive*%
%FSLAX46Y46*%
G04 Gerber Fmt 4.6, Leading zero omitted, Abs format (unit mm)*
G04 Created by KiCad (PCBNEW 9.0.8-9.0.8~ubuntu22.04.1) date 2026-03-23 14:46:36*
%MOMM*%
%LPD*%
G01*
G04 APERTURE LIST*
%ADD10C,0.150000*%
%ADD11C,0.127000*%
%ADD12C,0.100000*%
%ADD13C,0.200000*%
G04 APERTURE END LIST*
D10*
X166732819Y-96413095D02*
X167542342Y-96413095D01*
X167542342Y-96413095D02*
X167637580Y-96460714D01*
X167637580Y-96460714D02*
X167685200Y-96508333D01*
X167685200Y-96508333D02*
X167732819Y-96603571D01*
X167732819Y-96603571D02*
X167732819Y-96794047D01*
X167732819Y-96794047D02*
X167685200Y-96889285D01*
X167685200Y-96889285D02*
X167637580Y-96936904D01*
X167637580Y-96936904D02*
X167542342Y-96984523D01*
X167542342Y-96984523D02*
X166732819Y-96984523D01*
X167732819Y-97984523D02*
X167732819Y-97413095D01*
X167732819Y-97698809D02*
X166732819Y-97698809D01*
X166732819Y-97698809D02*
X166875676Y-97603571D01*
X166875676Y-97603571D02*
X166970914Y-97508333D01*
X166970914Y-97508333D02*
X167018533Y-97413095D01*
D11*
%TO.C,U1*%
X135763000Y-87630000D02*
X135763000Y-100330000D01*
X135763000Y-100330000D02*
X166243000Y-100330000D01*
X166243000Y-87630000D02*
X135763000Y-87630000D01*
X166243000Y-100330000D02*
X166243000Y-87630000D01*
D12*
X166243000Y-97790000D02*
X165735000Y-97790000D01*
X165735000Y-90170000D01*
X166243000Y-90170000D01*
X166243000Y-97790000D01*
D13*
X165603000Y-100850000D02*
G75*
G02*
X165403000Y-100850000I-100000J0D01*
G01*
X165403000Y-100850000D02*
G75*
G02*
X165603000Y-100850000I100000J0D01*
G01*
%TD*%
M02*
