M48
; DRILL file {KiCad 8.0.8} date 2025-03-19T11:41:20-0500
; FORMAT={-:-/ absolute / metric / decimal}
; #@! TF.CreationDate,2025-03-19T11:41:20-05:00
; #@! TF.GenerationSoftware,Kicad,Pcbnew,8.0.8
; #@! TF.FileFunction,Plated,1,2,PTH
FMAT,2
METRIC
; #@! TA.AperFunction,Plated,PTH,ViaDrill
T1C0.400
; #@! TA.AperFunction,Plated,PTH,ComponentDrill
T2C0.762
; #@! TA.AperFunction,Plated,PTH,ComponentDrill
T3C0.900
%
G90
G05
T1
X65.024Y-54.102
X65.278Y-90.932
X65.837Y-48.692
X67.183Y-55.372
X67.183Y-58.674
X68.834Y-44.196
X70.002Y-51.054
X71.171Y-45.009
X71.247Y-39.215
X71.374Y-58.674
X71.374Y-91.186
X71.399Y-55.372
X76.2Y-55.372
X76.2Y-58.674
X77.216Y-91.186
X77.343Y-51.054
X77.876Y-52.121
T2
X66.24Y-61.012
X66.24Y-63.552
X66.24Y-66.092
X66.24Y-68.632
X66.24Y-71.172
X66.24Y-73.712
X66.24Y-76.252
X66.24Y-78.792
X66.24Y-81.332
X66.24Y-83.872
X66.24Y-86.412
X76.24Y-61.012
X76.24Y-63.552
X76.24Y-66.092
X76.24Y-68.632
X76.24Y-71.172
X76.24Y-73.712
X76.24Y-76.252
X76.24Y-78.792
X76.24Y-81.332
X76.24Y-83.872
X76.24Y-86.412
T3
X66.25Y-41.529
X68.79Y-41.529
X71.33Y-41.529
X73.87Y-41.529
X76.41Y-41.529
M30
