%TF.GenerationSoftware,KiCad,Pcbnew,8.0.8*%
%TF.CreationDate,2025-03-19T11:41:23-05:00*%
%TF.ProjectId,CCD_Breakout,4343445f-4272-4656-916b-6f75742e6b69,rev?*%
%TF.SameCoordinates,Original*%
%TF.FileFunction,Soldermask,Top*%
%TF.FilePolarity,Negative*%
%FSLAX46Y46*%
G04 Gerber Fmt 4.6, Leading zero omitted, Abs format (unit mm)*
G04 Created by KiCad (PCBNEW 8.0.8) date 2025-03-19 11:41:23*
%MOMM*%
%LPD*%
G01*
G04 APERTURE LIST*
G04 Aperture macros list*
%AMRoundRect*
0 Rectangle with rounded corners*
0 $1 Rounding radius*
0 $2 $3 $4 $5 $6 $7 $8 $9 X,Y pos of 4 corners*
0 Add a 4 corners polygon primitive as box body*
4,1,4,$2,$3,$4,$5,$6,$7,$8,$9,$2,$3,0*
0 Add four circle primitives for the rounded corners*
1,1,$1+$1,$2,$3*
1,1,$1+$1,$4,$5*
1,1,$1+$1,$6,$7*
1,1,$1+$1,$8,$9*
0 Add four rect primitives between the rounded corners*
20,1,$1+$1,$2,$3,$4,$5,0*
20,1,$1+$1,$4,$5,$6,$7,0*
20,1,$1+$1,$6,$7,$8,$9,0*
20,1,$1+$1,$8,$9,$2,$3,0*%
G04 Aperture macros list end*
%ADD10RoundRect,0.237500X-0.300000X-0.237500X0.300000X-0.237500X0.300000X0.237500X-0.300000X0.237500X0*%
%ADD11RoundRect,0.150000X-0.150000X0.587500X-0.150000X-0.587500X0.150000X-0.587500X0.150000X0.587500X0*%
%ADD12C,1.524000*%
%ADD13C,2.946400*%
%ADD14RoundRect,0.237500X0.250000X0.237500X-0.250000X0.237500X-0.250000X-0.237500X0.250000X-0.237500X0*%
%ADD15RoundRect,0.237500X0.300000X0.237500X-0.300000X0.237500X-0.300000X-0.237500X0.300000X-0.237500X0*%
%ADD16RoundRect,0.237500X-0.250000X-0.237500X0.250000X-0.237500X0.250000X0.237500X-0.250000X0.237500X0*%
G04 APERTURE END LIST*
D10*
%TO.C,C3*%
X71527500Y-51054000D03*
X73252500Y-51054000D03*
%TD*%
D11*
%TO.C,Q1*%
X77338000Y-47371000D03*
X75438000Y-47371000D03*
X76388000Y-49246000D03*
%TD*%
D12*
%TO.C,U1*%
X66240000Y-61012000D03*
X66240000Y-63552000D03*
X66240000Y-66092000D03*
X66240000Y-68632000D03*
X66240000Y-71172000D03*
X66240000Y-73712000D03*
X66240000Y-76252000D03*
X66240000Y-78792000D03*
X66240000Y-81332000D03*
X66240000Y-83872000D03*
X66240000Y-86412000D03*
X76240000Y-86412000D03*
X76240000Y-83872000D03*
X76240000Y-81332000D03*
X76240000Y-78792000D03*
X76240000Y-76252000D03*
X76240000Y-73712000D03*
X76240000Y-71172000D03*
X76240000Y-68632000D03*
X76240000Y-66092000D03*
X76240000Y-63552000D03*
X76240000Y-61012000D03*
%TD*%
D13*
%TO.C,H1*%
X71248000Y-32656000D03*
%TD*%
D14*
%TO.C,R3*%
X76858500Y-45212000D03*
X75033500Y-45212000D03*
%TD*%
D13*
%TO.C,H2*%
X71248000Y-100156000D03*
%TD*%
D15*
%TO.C,C1*%
X66902500Y-50800000D03*
X65177500Y-50800000D03*
%TD*%
D16*
%TO.C,R1*%
X71604500Y-48895000D03*
X73429500Y-48895000D03*
%TD*%
D15*
%TO.C,C2*%
X67272500Y-46537000D03*
X65547500Y-46537000D03*
%TD*%
D12*
%TO.C,Conn1*%
X76410000Y-41529000D03*
X73870000Y-41529000D03*
X71330000Y-41529000D03*
X68790000Y-41529000D03*
X66250000Y-41529000D03*
%TD*%
D14*
%TO.C,R2*%
X73429500Y-47117000D03*
X71604500Y-47117000D03*
%TD*%
M02*
