M48
; DRILL file {KiCad 8.0.5} date 2025-03-17T22:38:08-0500
; FORMAT={-:-/ absolute / inch / decimal}
; #@! TF.CreationDate,2025-03-17T22:38:08-05:00
; #@! TF.GenerationSoftware,Kicad,Pcbnew,8.0.5
; #@! TF.FileFunction,Plated,1,2,PTH
FMAT,2
INCH
; #@! TA.AperFunction,Plated,PTH,ViaDrill
T1C0.0157
; #@! TA.AperFunction,Plated,PTH,ComponentDrill
T2C0.0300
; #@! TA.AperFunction,Plated,PTH,ComponentDrill
T3C0.0354
%
G90
G05
T1
X2.56Y-2.13
X2.57Y-3.58
X2.592Y-1.917
X2.645Y-2.18
X2.645Y-2.31
X2.756Y-2.01
X2.802Y-1.772
X2.81Y-2.31
X2.81Y-3.59
X2.811Y-2.18
X3.0Y-2.18
X3.0Y-2.31
X3.03Y-1.99
X3.04Y-3.59
X3.066Y-2.052
T2
X2.6079Y-2.402
X2.6079Y-2.502
X2.6079Y-2.602
X2.6079Y-2.702
X2.6079Y-2.802
X2.6079Y-2.902
X2.6079Y-3.002
X2.6079Y-3.102
X2.6079Y-3.202
X2.6079Y-3.302
X2.6079Y-3.402
X3.0016Y-2.402
X3.0016Y-2.502
X3.0016Y-2.602
X3.0016Y-2.702
X3.0016Y-2.802
X3.0016Y-2.902
X3.0016Y-3.002
X3.0016Y-3.102
X3.0016Y-3.202
X3.0016Y-3.302
X3.0016Y-3.402
T3
X2.6083Y-1.6353
X2.7083Y-1.6353
X2.8083Y-1.6353
X2.9083Y-1.6353
X3.0083Y-1.6353
M30
