M48
; DRILL file {KiCad 7.0.7} date Thu Nov  2 23:28:58 2023
; FORMAT={-:-/ absolute / inch / decimal}
; #@! TF.CreationDate,2023-11-02T23:28:58-05:00
; #@! TF.GenerationSoftware,Kicad,Pcbnew,7.0.7
; #@! TF.FileFunction,Plated,1,2,PTH
FMAT,2
INCH
; #@! TA.AperFunction,Plated,PTH,ViaDrill
T1C0.0157
; #@! TA.AperFunction,Plated,PTH,ComponentDrill
T2C0.0300
; #@! TA.AperFunction,Plated,PTH,ComponentDrill
T3C0.0354
; #@! TA.AperFunction,Plated,PTH,ComponentDrill
T4C0.0394
%
G90
G05
T1
X2.46Y-1.12
X2.56Y-1.19
X3.15Y-0.97
T2
X2.19Y-0.8663
X2.19Y-1.26
X2.29Y-0.8663
X2.29Y-1.26
X2.39Y-0.8663
X2.39Y-1.26
X2.49Y-0.8663
X2.49Y-1.26
X2.59Y-0.8663
X2.59Y-1.26
X2.69Y-0.8663
X2.69Y-1.26
X2.79Y-0.8663
X2.79Y-1.26
X2.89Y-0.8663
X2.89Y-1.26
X2.99Y-0.8663
X2.99Y-1.26
X3.09Y-0.8663
X3.09Y-1.26
X3.19Y-0.8663
X3.19Y-1.26
T3
X2.24Y-1.04
X2.34Y-1.04
X2.44Y-1.04
X2.54Y-1.04
X2.64Y-1.04
T4
X2.89Y-1.08
X2.99Y-1.08
X3.09Y-1.08
T0
M30
