%TF.GenerationSoftware,KiCad,Pcbnew,7.0.7*%
%TF.CreationDate,2023-11-02T23:28:56-05:00*%
%TF.ProjectId,CCD_Breakout,4343445f-4272-4656-916b-6f75742e6b69,rev?*%
%TF.SameCoordinates,Original*%
%TF.FileFunction,Copper,L2,Bot*%
%TF.FilePolarity,Positive*%
%FSLAX46Y46*%
G04 Gerber Fmt 4.6, Leading zero omitted, Abs format (unit mm)*
G04 Created by KiCad (PCBNEW 7.0.7) date 2023-11-02 23:28:56*
%MOMM*%
%LPD*%
G01*
G04 APERTURE LIST*
G04 Aperture macros list*
%AMRoundRect*
0 Rectangle with rounded corners*
0 $1 Rounding radius*
0 $2 $3 $4 $5 $6 $7 $8 $9 X,Y pos of 4 corners*
0 Add a 4 corners polygon primitive as box body*
4,1,4,$2,$3,$4,$5,$6,$7,$8,$9,$2,$3,0*
0 Add four circle primitives for the rounded corners*
1,1,$1+$1,$2,$3*
1,1,$1+$1,$4,$5*
1,1,$1+$1,$6,$7*
1,1,$1+$1,$8,$9*
0 Add four rect primitives between the rounded corners*
20,1,$1+$1,$2,$3,$4,$5,0*
20,1,$1+$1,$4,$5,$6,$7,0*
20,1,$1+$1,$6,$7,$8,$9,0*
20,1,$1+$1,$8,$9,$2,$3,0*%
G04 Aperture macros list end*
%TA.AperFunction,ComponentPad*%
%ADD10C,1.524000*%
%TD*%
%TA.AperFunction,SMDPad,CuDef*%
%ADD11RoundRect,0.237500X0.300000X0.237500X-0.300000X0.237500X-0.300000X-0.237500X0.300000X-0.237500X0*%
%TD*%
%TA.AperFunction,ComponentPad*%
%ADD12R,1.700000X1.700000*%
%TD*%
%TA.AperFunction,ComponentPad*%
%ADD13O,1.700000X1.700000*%
%TD*%
%TA.AperFunction,ViaPad*%
%ADD14C,0.800000*%
%TD*%
%TA.AperFunction,Conductor*%
%ADD15C,0.254000*%
%TD*%
G04 APERTURE END LIST*
D10*
%TO.P,U1,1,Vout*%
%TO.N,Vout*%
X55626000Y-32004000D03*
%TO.P,U1,2,GND*%
%TO.N,GND*%
X58166000Y-32004000D03*
%TO.P,U1,3,GND*%
X60706000Y-32004000D03*
%TO.P,U1,4,SHSW*%
%TO.N,SHSW*%
X63246000Y-32004000D03*
%TO.P,U1,5,\u00F8CLK*%
%TO.N,\u00F8CLK*%
X65786000Y-32004000D03*
%TO.P,U1,6,VDD*%
%TO.N,+5V*%
X68326000Y-32004000D03*
%TO.P,U1,7,NC*%
%TO.N,unconnected-(U1-NC-Pad7)*%
X70866000Y-32004000D03*
%TO.P,U1,8,NC*%
%TO.N,unconnected-(U1-NC-Pad8)*%
X73406000Y-32004000D03*
%TO.P,U1,9,VDD*%
%TO.N,+5V*%
X75946000Y-32004000D03*
%TO.P,U1,10,NC*%
%TO.N,unconnected-(U1-NC-Pad10)*%
X78486000Y-32004000D03*
%TO.P,U1,11,\u00F8ROG*%
%TO.N,\u00F8ROG*%
X81026000Y-32004000D03*
%TO.P,U1,12,GND*%
%TO.N,GND*%
X81026000Y-22004000D03*
%TO.P,U1,13,NC*%
%TO.N,unconnected-(U1-NC-Pad13)*%
X78486000Y-22004000D03*
%TO.P,U1,14,NC*%
%TO.N,unconnected-(U1-NC-Pad14)*%
X75946000Y-22004000D03*
%TO.P,U1,15,VDD*%
%TO.N,+5V*%
X73406000Y-22004000D03*
%TO.P,U1,16,GND*%
%TO.N,GND*%
X70866000Y-22004000D03*
%TO.P,U1,17,GND*%
X68326000Y-22004000D03*
%TO.P,U1,18,VGG*%
%TO.N,Net-(U1-VGG)*%
X65786000Y-22004000D03*
%TO.P,U1,19,GND*%
%TO.N,GND*%
X63246000Y-22004000D03*
%TO.P,U1,20,VDD*%
%TO.N,+5V*%
X60706000Y-22004000D03*
%TO.P,U1,21,VDD*%
X58166000Y-22004000D03*
%TO.P,U1,22,VDD*%
X55626000Y-22004000D03*
%TD*%
D11*
%TO.P,C3,1*%
%TO.N,GND*%
X85090000Y-26924000D03*
%TO.P,C3,2*%
%TO.N,+5V*%
X83365000Y-26924000D03*
%TD*%
%TO.P,C2,1*%
%TO.N,GND*%
X85090000Y-29210000D03*
%TO.P,C2,2*%
%TO.N,+5V*%
X83365000Y-29210000D03*
%TD*%
D10*
%TO.P,Conn1,1*%
%TO.N,+5V*%
X56896000Y-26416000D03*
%TO.P,Conn1,2*%
%TO.N,\u00F8CLK*%
X59436000Y-26416000D03*
%TO.P,Conn1,3*%
%TO.N,\u00F8ROG*%
X61976000Y-26416000D03*
%TO.P,Conn1,4*%
%TO.N,Vout*%
X64516000Y-26416000D03*
%TO.P,Conn1,5*%
%TO.N,GND*%
X67056000Y-26416000D03*
%TD*%
D11*
%TO.P,C1,1*%
%TO.N,GND*%
X85090000Y-24638000D03*
%TO.P,C1,2*%
%TO.N,Net-(U1-VGG)*%
X83365000Y-24638000D03*
%TD*%
D12*
%TO.P,J1,1,Pin_1*%
%TO.N,+5V*%
X73406000Y-27432000D03*
D13*
%TO.P,J1,2,Pin_2*%
%TO.N,SHSW*%
X75946000Y-27432000D03*
%TO.P,J1,3,Pin_3*%
%TO.N,GND*%
X78486000Y-27432000D03*
%TD*%
D14*
%TO.N,Net-(U1-VGG)*%
X80010000Y-24638000D03*
%TO.N,SHSW*%
X65024000Y-30226000D03*
%TO.N,Vout*%
X62484000Y-28448000D03*
%TD*%
D15*
%TO.N,Net-(U1-VGG)*%
X83365000Y-24638000D02*
X80010000Y-24638000D01*
%TO.N,+5V*%
X80772000Y-26162000D02*
X80772000Y-27940000D01*
X80772000Y-27940000D02*
X80772000Y-28956000D01*
X80264000Y-25654000D02*
X80772000Y-26162000D01*
X58166000Y-22004000D02*
X58166000Y-23114000D01*
X75946000Y-32004000D02*
X77470000Y-30480000D01*
X57404000Y-23876000D02*
X59944000Y-23876000D01*
X60706000Y-23114000D02*
X59944000Y-23876000D01*
X73406000Y-27432000D02*
X71628000Y-25654000D01*
X80264000Y-25654000D02*
X82095000Y-25654000D01*
X77470000Y-30480000D02*
X69850000Y-30480000D01*
X79248000Y-30480000D02*
X77470000Y-30480000D01*
X55626000Y-24892000D02*
X56642000Y-23876000D01*
X73406000Y-24384000D02*
X72136000Y-25654000D01*
X82095000Y-25654000D02*
X83365000Y-26924000D01*
X80772000Y-28956000D02*
X79248000Y-30480000D01*
X82042000Y-29210000D02*
X83365000Y-29210000D01*
X68326000Y-25654000D02*
X71628000Y-25654000D01*
X56642000Y-23876000D02*
X57404000Y-23876000D01*
X58166000Y-23114000D02*
X57404000Y-23876000D01*
X55626000Y-24892000D02*
X55626000Y-25654000D01*
X80772000Y-27940000D02*
X82042000Y-29210000D01*
X55626000Y-22004000D02*
X55626000Y-24892000D01*
X66548000Y-23876000D02*
X68326000Y-25654000D01*
X73406000Y-22004000D02*
X73406000Y-24384000D01*
X69850000Y-30480000D02*
X68326000Y-32004000D01*
X60706000Y-22004000D02*
X60706000Y-23114000D01*
X55626000Y-25654000D02*
X56896000Y-26924000D01*
X59944000Y-23876000D02*
X66548000Y-23876000D01*
X72136000Y-25654000D02*
X80264000Y-25654000D01*
X71628000Y-25654000D02*
X72136000Y-25654000D01*
%TO.N,SHSW*%
X65024000Y-30226000D02*
X65532000Y-29718000D01*
X73660000Y-29718000D02*
X75946000Y-27432000D01*
X65532000Y-29718000D02*
X73660000Y-29718000D01*
%TO.N,Vout*%
X62484000Y-28448000D02*
X64516000Y-26416000D01*
%TO.N,\u00F8CLK*%
X63429000Y-30917000D02*
X64699000Y-30917000D01*
X64699000Y-30917000D02*
X65786000Y-32004000D01*
X59436000Y-26924000D02*
X63429000Y-30917000D01*
%TD*%
%TA.AperFunction,Conductor*%
%TO.N,GND*%
G36*
X57336681Y-24505227D02*
G01*
X57336708Y-24504946D01*
X57344475Y-24505680D01*
X57344476Y-24505679D01*
X57344477Y-24505680D01*
X57413860Y-24503500D01*
X59861033Y-24503500D01*
X59876681Y-24505227D01*
X59876708Y-24504946D01*
X59884475Y-24505680D01*
X59884476Y-24505679D01*
X59884477Y-24505680D01*
X59953860Y-24503500D01*
X66236719Y-24503500D01*
X66303758Y-24523185D01*
X66324400Y-24539819D01*
X67823624Y-26039043D01*
X67833471Y-26051333D01*
X67833689Y-26051154D01*
X67838657Y-26057160D01*
X67889257Y-26104677D01*
X67910201Y-26125620D01*
X67910207Y-26125626D01*
X67915697Y-26129883D01*
X67920148Y-26133684D01*
X67954235Y-26165695D01*
X67954237Y-26165696D01*
X67971867Y-26175387D01*
X67988135Y-26186072D01*
X68004038Y-26198408D01*
X68046945Y-26216975D01*
X68052181Y-26219539D01*
X68076867Y-26233111D01*
X68093158Y-26242068D01*
X68093160Y-26242069D01*
X68093166Y-26242072D01*
X68112240Y-26246969D01*
X68112660Y-26247077D01*
X68131064Y-26253377D01*
X68149542Y-26261374D01*
X68193038Y-26268262D01*
X68195724Y-26268688D01*
X68201429Y-26269869D01*
X68246728Y-26281500D01*
X68266858Y-26281500D01*
X68286257Y-26283027D01*
X68306133Y-26286175D01*
X68348779Y-26282143D01*
X68352679Y-26281775D01*
X68358517Y-26281500D01*
X71316719Y-26281500D01*
X71383758Y-26301185D01*
X71404400Y-26317819D01*
X72019181Y-26932600D01*
X72052666Y-26993923D01*
X72055500Y-27020281D01*
X72055500Y-28329870D01*
X72055501Y-28329876D01*
X72061908Y-28389483D01*
X72112202Y-28524328D01*
X72112206Y-28524335D01*
X72198452Y-28639544D01*
X72198455Y-28639547D01*
X72313664Y-28725793D01*
X72313671Y-28725797D01*
X72448517Y-28776091D01*
X72448516Y-28776091D01*
X72455444Y-28776835D01*
X72508127Y-28782500D01*
X73408719Y-28782499D01*
X73475758Y-28802183D01*
X73521513Y-28854987D01*
X73531457Y-28924146D01*
X73502432Y-28987702D01*
X73496405Y-28994175D01*
X73436398Y-29054182D01*
X73375078Y-29087666D01*
X73348719Y-29090500D01*
X65614966Y-29090500D01*
X65599318Y-29088772D01*
X65599292Y-29089054D01*
X65591524Y-29088319D01*
X65522154Y-29090500D01*
X65492521Y-29090500D01*
X65485607Y-29091373D01*
X65479790Y-29091830D01*
X65433058Y-29093299D01*
X65433054Y-29093300D01*
X65413722Y-29098916D01*
X65394682Y-29102859D01*
X65374708Y-29105383D01*
X65374701Y-29105385D01*
X65331239Y-29122592D01*
X65325712Y-29124485D01*
X65280809Y-29137531D01*
X65280808Y-29137531D01*
X65263474Y-29147782D01*
X65246012Y-29156336D01*
X65227300Y-29163745D01*
X65227295Y-29163748D01*
X65189473Y-29191226D01*
X65184591Y-29194433D01*
X65144341Y-29218238D01*
X65130107Y-29232472D01*
X65115318Y-29245104D01*
X65099031Y-29256937D01*
X65099031Y-29256938D01*
X65079505Y-29280541D01*
X65021605Y-29319648D01*
X64983962Y-29325500D01*
X64929354Y-29325500D01*
X64896897Y-29332398D01*
X64744197Y-29364855D01*
X64744192Y-29364857D01*
X64571270Y-29441848D01*
X64571265Y-29441851D01*
X64418129Y-29553111D01*
X64291466Y-29693785D01*
X64196821Y-29857715D01*
X64196818Y-29857722D01*
X64138327Y-30037740D01*
X64138326Y-30037744D01*
X64123536Y-30178462D01*
X64096953Y-30243076D01*
X64039655Y-30283061D01*
X64000216Y-30289500D01*
X63740281Y-30289500D01*
X63673242Y-30269815D01*
X63652600Y-30253181D01*
X62853156Y-29453737D01*
X62819671Y-29392414D01*
X62824655Y-29322722D01*
X62866527Y-29266789D01*
X62890393Y-29252781D01*
X62936730Y-29232151D01*
X63089871Y-29120888D01*
X63216533Y-28980216D01*
X63311179Y-28816284D01*
X63369674Y-28636256D01*
X63386989Y-28471505D01*
X63413572Y-28406894D01*
X63422619Y-28396798D01*
X64134435Y-27684982D01*
X64195756Y-27651499D01*
X64254207Y-27652890D01*
X64269635Y-27657023D01*
X64295932Y-27664070D01*
X64453123Y-27677822D01*
X64515998Y-27683323D01*
X64516000Y-27683323D01*
X64516002Y-27683323D01*
X64571017Y-27678509D01*
X64736068Y-27664070D01*
X64949450Y-27606894D01*
X65149662Y-27513534D01*
X65330620Y-27386826D01*
X65486826Y-27230620D01*
X65613534Y-27049662D01*
X65706894Y-26849450D01*
X65764070Y-26636068D01*
X65781936Y-26431858D01*
X65783323Y-26416002D01*
X65783323Y-26415997D01*
X65771965Y-26286174D01*
X65764070Y-26195932D01*
X65706894Y-25982550D01*
X65613534Y-25782339D01*
X65495533Y-25613815D01*
X65486827Y-25601381D01*
X65434352Y-25548906D01*
X65330620Y-25445174D01*
X65330616Y-25445171D01*
X65330615Y-25445170D01*
X65149666Y-25318468D01*
X65149662Y-25318466D01*
X65083542Y-25287634D01*
X64949450Y-25225106D01*
X64949447Y-25225105D01*
X64949445Y-25225104D01*
X64736070Y-25167930D01*
X64736062Y-25167929D01*
X64516002Y-25148677D01*
X64515998Y-25148677D01*
X64295937Y-25167929D01*
X64295929Y-25167930D01*
X64082554Y-25225104D01*
X64082548Y-25225107D01*
X63882340Y-25318465D01*
X63882338Y-25318466D01*
X63701377Y-25445175D01*
X63545175Y-25601377D01*
X63418466Y-25782338D01*
X63418465Y-25782340D01*
X63358382Y-25911189D01*
X63312209Y-25963628D01*
X63245016Y-25982780D01*
X63178135Y-25962564D01*
X63133618Y-25911189D01*
X63087035Y-25811293D01*
X63073534Y-25782339D01*
X62955533Y-25613815D01*
X62946827Y-25601381D01*
X62894352Y-25548906D01*
X62790620Y-25445174D01*
X62790616Y-25445171D01*
X62790615Y-25445170D01*
X62609666Y-25318468D01*
X62609662Y-25318466D01*
X62543542Y-25287634D01*
X62409450Y-25225106D01*
X62409447Y-25225105D01*
X62409445Y-25225104D01*
X62196070Y-25167930D01*
X62196062Y-25167929D01*
X61976002Y-25148677D01*
X61975998Y-25148677D01*
X61755937Y-25167929D01*
X61755929Y-25167930D01*
X61542554Y-25225104D01*
X61542548Y-25225107D01*
X61342340Y-25318465D01*
X61342338Y-25318466D01*
X61161377Y-25445175D01*
X61005175Y-25601377D01*
X60878466Y-25782338D01*
X60878465Y-25782340D01*
X60818382Y-25911189D01*
X60772209Y-25963628D01*
X60705016Y-25982780D01*
X60638135Y-25962564D01*
X60593618Y-25911189D01*
X60547035Y-25811293D01*
X60533534Y-25782339D01*
X60415533Y-25613815D01*
X60406827Y-25601381D01*
X60354352Y-25548906D01*
X60250620Y-25445174D01*
X60250616Y-25445171D01*
X60250615Y-25445170D01*
X60069666Y-25318468D01*
X60069662Y-25318466D01*
X60003542Y-25287634D01*
X59869450Y-25225106D01*
X59869447Y-25225105D01*
X59869445Y-25225104D01*
X59656070Y-25167930D01*
X59656062Y-25167929D01*
X59436002Y-25148677D01*
X59435998Y-25148677D01*
X59215937Y-25167929D01*
X59215929Y-25167930D01*
X59002554Y-25225104D01*
X59002548Y-25225107D01*
X58802340Y-25318465D01*
X58802338Y-25318466D01*
X58621377Y-25445175D01*
X58465175Y-25601377D01*
X58338466Y-25782338D01*
X58338465Y-25782340D01*
X58278382Y-25911189D01*
X58232209Y-25963628D01*
X58165016Y-25982780D01*
X58098135Y-25962564D01*
X58053618Y-25911189D01*
X58007035Y-25811293D01*
X57993534Y-25782339D01*
X57875533Y-25613815D01*
X57866827Y-25601381D01*
X57814352Y-25548906D01*
X57710620Y-25445174D01*
X57710616Y-25445171D01*
X57710615Y-25445170D01*
X57529666Y-25318468D01*
X57529662Y-25318466D01*
X57463542Y-25287634D01*
X57329450Y-25225106D01*
X57329447Y-25225105D01*
X57329445Y-25225104D01*
X57116070Y-25167930D01*
X57116062Y-25167929D01*
X56896002Y-25148677D01*
X56895998Y-25148677D01*
X56675937Y-25167929D01*
X56675926Y-25167931D01*
X56524012Y-25208636D01*
X56454162Y-25206973D01*
X56396300Y-25167810D01*
X56368796Y-25103581D01*
X56380383Y-25034679D01*
X56404235Y-25001183D01*
X56865599Y-24539818D01*
X56926923Y-24506334D01*
X56953281Y-24503500D01*
X57321033Y-24503500D01*
X57336681Y-24505227D01*
G37*
%TD.AperFunction*%
%TA.AperFunction,Conductor*%
G36*
X80019757Y-26301185D02*
G01*
X80040399Y-26317818D01*
X80108181Y-26385599D01*
X80141666Y-26446922D01*
X80144500Y-26473281D01*
X80144500Y-27857032D01*
X80142772Y-27872681D01*
X80143054Y-27872708D01*
X80142319Y-27880475D01*
X80144500Y-27949859D01*
X80144500Y-28644719D01*
X80124815Y-28711758D01*
X80108181Y-28732400D01*
X79024400Y-29816181D01*
X78963077Y-29849666D01*
X78936719Y-29852500D01*
X77552965Y-29852500D01*
X77537314Y-29850772D01*
X77537288Y-29851054D01*
X77529525Y-29850319D01*
X77460154Y-29852500D01*
X74712281Y-29852500D01*
X74645242Y-29832815D01*
X74599487Y-29780011D01*
X74589543Y-29710853D01*
X74618568Y-29647297D01*
X74624600Y-29640819D01*
X74841322Y-29424097D01*
X75492584Y-28772833D01*
X75553905Y-28739350D01*
X75612356Y-28740741D01*
X75654107Y-28751928D01*
X75710592Y-28767063D01*
X75887034Y-28782500D01*
X75945999Y-28787659D01*
X75946000Y-28787659D01*
X75946001Y-28787659D01*
X76004966Y-28782500D01*
X76181408Y-28767063D01*
X76409663Y-28705903D01*
X76623830Y-28606035D01*
X76817401Y-28470495D01*
X76984495Y-28303401D01*
X77120035Y-28109830D01*
X77219903Y-27895663D01*
X77281063Y-27667408D01*
X77301659Y-27432000D01*
X77300497Y-27418724D01*
X77297539Y-27384918D01*
X77281063Y-27196592D01*
X77219903Y-26968337D01*
X77120035Y-26754171D01*
X77114974Y-26746942D01*
X76984494Y-26560597D01*
X76917078Y-26493181D01*
X76883593Y-26431858D01*
X76888577Y-26362166D01*
X76930449Y-26306233D01*
X76995913Y-26281816D01*
X77004759Y-26281500D01*
X79952718Y-26281500D01*
X80019757Y-26301185D01*
G37*
%TD.AperFunction*%
%TA.AperFunction,Conductor*%
G36*
X94944139Y-19304501D02*
G01*
X94994470Y-19304501D01*
X94997512Y-19304576D01*
X95087439Y-19308993D01*
X95148505Y-19311993D01*
X95374018Y-19323811D01*
X95379836Y-19324393D01*
X95559435Y-19351034D01*
X95756128Y-19382187D01*
X95761436Y-19383269D01*
X95942900Y-19428724D01*
X96084614Y-19466697D01*
X96130274Y-19478932D01*
X96135116Y-19480444D01*
X96135122Y-19480446D01*
X96313454Y-19544254D01*
X96492735Y-19613074D01*
X96497000Y-19614899D01*
X96497011Y-19614904D01*
X96669387Y-19696432D01*
X96839704Y-19783213D01*
X96843404Y-19785261D01*
X96937542Y-19841685D01*
X97007693Y-19883732D01*
X97167633Y-19987598D01*
X97170799Y-19989797D01*
X97325089Y-20104226D01*
X97325103Y-20104237D01*
X97473227Y-20224185D01*
X97475832Y-20226418D01*
X97617294Y-20354631D01*
X97619498Y-20356730D01*
X97753268Y-20490500D01*
X97755367Y-20492704D01*
X97883580Y-20634166D01*
X97885819Y-20636778D01*
X97915438Y-20673355D01*
X98005773Y-20784910D01*
X98120201Y-20939199D01*
X98122400Y-20942365D01*
X98226267Y-21102306D01*
X98324728Y-21266578D01*
X98326792Y-21270306D01*
X98413566Y-21440610D01*
X98495096Y-21612991D01*
X98496932Y-21617282D01*
X98565755Y-21796572D01*
X98629554Y-21974882D01*
X98631066Y-21979724D01*
X98681282Y-22167126D01*
X98726722Y-22348532D01*
X98727817Y-22353900D01*
X98758965Y-22550561D01*
X98785602Y-22730141D01*
X98786188Y-22735996D01*
X98798007Y-22961511D01*
X98805424Y-23112488D01*
X98805499Y-23115531D01*
X98805499Y-30732468D01*
X98805424Y-30735511D01*
X98798007Y-30886488D01*
X98786188Y-31112002D01*
X98785602Y-31117857D01*
X98758965Y-31297438D01*
X98727817Y-31494098D01*
X98726722Y-31499466D01*
X98681282Y-31680873D01*
X98631066Y-31868274D01*
X98629554Y-31873116D01*
X98565755Y-32051427D01*
X98496931Y-32230716D01*
X98495096Y-32235006D01*
X98413566Y-32407389D01*
X98326791Y-32577692D01*
X98324728Y-32581420D01*
X98226267Y-32745693D01*
X98122400Y-32905633D01*
X98120201Y-32908799D01*
X98005773Y-33063089D01*
X97885825Y-33211213D01*
X97883580Y-33213832D01*
X97755367Y-33355294D01*
X97753268Y-33357498D01*
X97619498Y-33491268D01*
X97617294Y-33493367D01*
X97475832Y-33621580D01*
X97473213Y-33623825D01*
X97325089Y-33743773D01*
X97170799Y-33858201D01*
X97167633Y-33860400D01*
X97007693Y-33964267D01*
X96843420Y-34062728D01*
X96839692Y-34064791D01*
X96669389Y-34151566D01*
X96497006Y-34233096D01*
X96492716Y-34234931D01*
X96313427Y-34303755D01*
X96135116Y-34367554D01*
X96130274Y-34369066D01*
X95942873Y-34419282D01*
X95761466Y-34464722D01*
X95756098Y-34465817D01*
X95559438Y-34496965D01*
X95379857Y-34523602D01*
X95374002Y-34524188D01*
X95148488Y-34536007D01*
X94997512Y-34543424D01*
X94994469Y-34543499D01*
X41657531Y-34543499D01*
X41654488Y-34543424D01*
X41503511Y-34536007D01*
X41277996Y-34524188D01*
X41272141Y-34523602D01*
X41092561Y-34496965D01*
X40895900Y-34465817D01*
X40890532Y-34464722D01*
X40709126Y-34419282D01*
X40521724Y-34369066D01*
X40516882Y-34367554D01*
X40338572Y-34303755D01*
X40159282Y-34234932D01*
X40154991Y-34233096D01*
X39982610Y-34151566D01*
X39812306Y-34064792D01*
X39808578Y-34062728D01*
X39644306Y-33964267D01*
X39484365Y-33860400D01*
X39481199Y-33858201D01*
X39326910Y-33743773D01*
X39178785Y-33623825D01*
X39176166Y-33621580D01*
X39034704Y-33493367D01*
X39032500Y-33491268D01*
X38898730Y-33357498D01*
X38896631Y-33355294D01*
X38768418Y-33213832D01*
X38766185Y-33211227D01*
X38677355Y-33101531D01*
X38646226Y-33063089D01*
X38531797Y-32908799D01*
X38529598Y-32905633D01*
X38425732Y-32745693D01*
X38410413Y-32720135D01*
X38327261Y-32581404D01*
X38325213Y-32577704D01*
X38238433Y-32407389D01*
X38156902Y-32235007D01*
X38155074Y-32230735D01*
X38086244Y-32051427D01*
X38069275Y-32004002D01*
X54358677Y-32004002D01*
X54377929Y-32224062D01*
X54377930Y-32224070D01*
X54435104Y-32437445D01*
X54435105Y-32437447D01*
X54435106Y-32437450D01*
X54500502Y-32577692D01*
X54528466Y-32637662D01*
X54528468Y-32637666D01*
X54655170Y-32818615D01*
X54655175Y-32818621D01*
X54811378Y-32974824D01*
X54811384Y-32974829D01*
X54992333Y-33101531D01*
X54992335Y-33101532D01*
X54992338Y-33101534D01*
X55192550Y-33194894D01*
X55405932Y-33252070D01*
X55563123Y-33265822D01*
X55625998Y-33271323D01*
X55626000Y-33271323D01*
X55626002Y-33271323D01*
X55681016Y-33266509D01*
X55846068Y-33252070D01*
X56059450Y-33194894D01*
X56259662Y-33101534D01*
X56440620Y-32974826D01*
X56596826Y-32818620D01*
X56723534Y-32637662D01*
X56816894Y-32437450D01*
X56874070Y-32224068D01*
X56889175Y-32051415D01*
X56893323Y-32004002D01*
X56893323Y-32003997D01*
X56874070Y-31783937D01*
X56874070Y-31783932D01*
X56816894Y-31570550D01*
X56723534Y-31370339D01*
X56638675Y-31249147D01*
X56596827Y-31189381D01*
X56519448Y-31112002D01*
X56440620Y-31033174D01*
X56440616Y-31033171D01*
X56440615Y-31033170D01*
X56259666Y-30906468D01*
X56259662Y-30906466D01*
X56216557Y-30886366D01*
X56059450Y-30813106D01*
X56059447Y-30813105D01*
X56059445Y-30813104D01*
X55846070Y-30755930D01*
X55846062Y-30755929D01*
X55626002Y-30736677D01*
X55625998Y-30736677D01*
X55405937Y-30755929D01*
X55405929Y-30755930D01*
X55192554Y-30813104D01*
X55192548Y-30813107D01*
X54992340Y-30906465D01*
X54992338Y-30906466D01*
X54811377Y-31033175D01*
X54655175Y-31189377D01*
X54528466Y-31370338D01*
X54528465Y-31370340D01*
X54435107Y-31570548D01*
X54435104Y-31570554D01*
X54377930Y-31783929D01*
X54377929Y-31783937D01*
X54358677Y-32003997D01*
X54358677Y-32004002D01*
X38069275Y-32004002D01*
X38022444Y-31873116D01*
X38020932Y-31868274D01*
X38008697Y-31822614D01*
X37970724Y-31680900D01*
X37925269Y-31499436D01*
X37924187Y-31494128D01*
X37893034Y-31297435D01*
X37866393Y-31117836D01*
X37865811Y-31112018D01*
X37853986Y-30886366D01*
X37853814Y-30882875D01*
X37846574Y-30735497D01*
X37846500Y-30732510D01*
X37846500Y-27023187D01*
X38948590Y-27023187D01*
X38978230Y-27418711D01*
X38978231Y-27418724D01*
X39047108Y-27809339D01*
X39154530Y-28191137D01*
X39154534Y-28191151D01*
X39299435Y-28560353D01*
X39299440Y-28560365D01*
X39480386Y-28913314D01*
X39480397Y-28913333D01*
X39486850Y-28923324D01*
X39695586Y-29246509D01*
X39940093Y-29553112D01*
X39942895Y-29556625D01*
X40219823Y-29840544D01*
X40219833Y-29840554D01*
X40523676Y-30095508D01*
X40851394Y-30318942D01*
X41199730Y-30508636D01*
X41565223Y-30662704D01*
X41565232Y-30662706D01*
X41565238Y-30662709D01*
X41944235Y-30779614D01*
X41944248Y-30779617D01*
X42332999Y-30858205D01*
X42333014Y-30858208D01*
X42671299Y-30892058D01*
X42727680Y-30897700D01*
X42727681Y-30897700D01*
X43025103Y-30897700D01*
X43252197Y-30886366D01*
X43322145Y-30882875D01*
X43714353Y-30823759D01*
X44098726Y-30725886D01*
X44471445Y-30590228D01*
X44828803Y-30418133D01*
X44835148Y-30414256D01*
X45167246Y-30211315D01*
X45167245Y-30211315D01*
X45167251Y-30211312D01*
X45483424Y-29971820D01*
X45774181Y-29702037D01*
X46036631Y-29404645D01*
X46268166Y-29082600D01*
X46466485Y-28739101D01*
X46629617Y-28377563D01*
X46755941Y-28001578D01*
X46844201Y-27614885D01*
X46893521Y-27221325D01*
X46898462Y-27023173D01*
X46903409Y-26824826D01*
X46903409Y-26824810D01*
X46896836Y-26737100D01*
X46873769Y-26429280D01*
X46804893Y-26038668D01*
X46797697Y-26013093D01*
X46724502Y-25752942D01*
X46697467Y-25656854D01*
X46690158Y-25638232D01*
X46552564Y-25287646D01*
X46552559Y-25287634D01*
X46491191Y-25167931D01*
X46371609Y-24934677D01*
X46156414Y-24601491D01*
X45909114Y-24291386D01*
X45909111Y-24291383D01*
X45909104Y-24291374D01*
X45632176Y-24007455D01*
X45632173Y-24007452D01*
X45632172Y-24007451D01*
X45632167Y-24007446D01*
X45328324Y-23752492D01*
X45196330Y-23662500D01*
X45000605Y-23529057D01*
X44884493Y-23465826D01*
X44652270Y-23339364D01*
X44652262Y-23339360D01*
X44652259Y-23339359D01*
X44286777Y-23185296D01*
X44286761Y-23185290D01*
X43907764Y-23068385D01*
X43907751Y-23068382D01*
X43519000Y-22989794D01*
X43518979Y-22989791D01*
X43124320Y-22950300D01*
X43124319Y-22950300D01*
X42826899Y-22950300D01*
X42826897Y-22950300D01*
X42529855Y-22965124D01*
X42137647Y-23024241D01*
X41753272Y-23122114D01*
X41380549Y-23257774D01*
X41023191Y-23429869D01*
X40684753Y-23636684D01*
X40684742Y-23636692D01*
X40368575Y-23876180D01*
X40368572Y-23876182D01*
X40077813Y-24145968D01*
X39815365Y-24443359D01*
X39583839Y-24765393D01*
X39583826Y-24765413D01*
X39385516Y-25108896D01*
X39222382Y-25470437D01*
X39096059Y-25846419D01*
X39007799Y-26233111D01*
X38958478Y-26626681D01*
X38948590Y-27023173D01*
X38948590Y-27023187D01*
X37846500Y-27023187D01*
X37846500Y-23115526D01*
X37846575Y-23112485D01*
X37853985Y-22961636D01*
X37861480Y-22818621D01*
X37865812Y-22735960D01*
X37866392Y-22730162D01*
X37893020Y-22550647D01*
X37907784Y-22457435D01*
X37924190Y-22353852D01*
X37925269Y-22348559D01*
X37970717Y-22167126D01*
X38014426Y-22004002D01*
X54358677Y-22004002D01*
X54377929Y-22224062D01*
X54377930Y-22224070D01*
X54435104Y-22437445D01*
X54435105Y-22437447D01*
X54435106Y-22437450D01*
X54489552Y-22554210D01*
X54528466Y-22637662D01*
X54528468Y-22637666D01*
X54600547Y-22740605D01*
X54655174Y-22818620D01*
X54811380Y-22974826D01*
X54811382Y-22974827D01*
X54811384Y-22974829D01*
X54836988Y-22992757D01*
X54945624Y-23068824D01*
X54989248Y-23123399D01*
X54998500Y-23170398D01*
X54998500Y-24832858D01*
X54996973Y-24852257D01*
X54993951Y-24871340D01*
X54993825Y-24872133D01*
X54998225Y-24918677D01*
X54998500Y-24924515D01*
X54998500Y-25571032D01*
X54996772Y-25586681D01*
X54997054Y-25586708D01*
X54996319Y-25594475D01*
X54998500Y-25663859D01*
X54998500Y-25693477D01*
X54999371Y-25700380D01*
X54999829Y-25706199D01*
X55001298Y-25752942D01*
X55006916Y-25772275D01*
X55010862Y-25791329D01*
X55013383Y-25811287D01*
X55013386Y-25811299D01*
X55030595Y-25854765D01*
X55032487Y-25860293D01*
X55045530Y-25905187D01*
X55045530Y-25905188D01*
X55055777Y-25922515D01*
X55064335Y-25939985D01*
X55071745Y-25958701D01*
X55099229Y-25996529D01*
X55102437Y-26001413D01*
X55126234Y-26041652D01*
X55126240Y-26041660D01*
X55140469Y-26055888D01*
X55153109Y-26070687D01*
X55164934Y-26086964D01*
X55164936Y-26086965D01*
X55164937Y-26086967D01*
X55185117Y-26103661D01*
X55200957Y-26116765D01*
X55205268Y-26120687D01*
X55423042Y-26338461D01*
X55609044Y-26524463D01*
X55642529Y-26585786D01*
X55644891Y-26601335D01*
X55647929Y-26636063D01*
X55647930Y-26636070D01*
X55705104Y-26849445D01*
X55705105Y-26849447D01*
X55705106Y-26849450D01*
X55786114Y-27023173D01*
X55798466Y-27049662D01*
X55798468Y-27049666D01*
X55925170Y-27230615D01*
X55925175Y-27230621D01*
X56081378Y-27386824D01*
X56081384Y-27386829D01*
X56262333Y-27513531D01*
X56262335Y-27513532D01*
X56262338Y-27513534D01*
X56462550Y-27606894D01*
X56675932Y-27664070D01*
X56833123Y-27677822D01*
X56895998Y-27683323D01*
X56896000Y-27683323D01*
X56896002Y-27683323D01*
X56951017Y-27678509D01*
X57116068Y-27664070D01*
X57329450Y-27606894D01*
X57529662Y-27513534D01*
X57710620Y-27386826D01*
X57866826Y-27230620D01*
X57993534Y-27049662D01*
X58053617Y-26920811D01*
X58099790Y-26868371D01*
X58166983Y-26849219D01*
X58233865Y-26869435D01*
X58278382Y-26920811D01*
X58338464Y-27049658D01*
X58338468Y-27049666D01*
X58465170Y-27230615D01*
X58465175Y-27230621D01*
X58621378Y-27386824D01*
X58621384Y-27386829D01*
X58802333Y-27513531D01*
X58802335Y-27513532D01*
X58802338Y-27513534D01*
X59002550Y-27606894D01*
X59215932Y-27664070D01*
X59250660Y-27667107D01*
X59315727Y-27692557D01*
X59327535Y-27702954D01*
X62460031Y-30835450D01*
X62493516Y-30896773D01*
X62488532Y-30966465D01*
X62446660Y-31022398D01*
X62443475Y-31024705D01*
X62431382Y-31033172D01*
X62275172Y-31189381D01*
X62148466Y-31370338D01*
X62148465Y-31370340D01*
X62055107Y-31570548D01*
X62055104Y-31570554D01*
X61997930Y-31783929D01*
X61997929Y-31783937D01*
X61978677Y-32003997D01*
X61978677Y-32004002D01*
X61997929Y-32224062D01*
X61997930Y-32224070D01*
X62055104Y-32437445D01*
X62055105Y-32437447D01*
X62055106Y-32437450D01*
X62120502Y-32577692D01*
X62148466Y-32637662D01*
X62148468Y-32637666D01*
X62275170Y-32818615D01*
X62275175Y-32818621D01*
X62431378Y-32974824D01*
X62431384Y-32974829D01*
X62612333Y-33101531D01*
X62612335Y-33101532D01*
X62612338Y-33101534D01*
X62812550Y-33194894D01*
X63025932Y-33252070D01*
X63183123Y-33265822D01*
X63245998Y-33271323D01*
X63246000Y-33271323D01*
X63246002Y-33271323D01*
X63301016Y-33266509D01*
X63466068Y-33252070D01*
X63679450Y-33194894D01*
X63879662Y-33101534D01*
X64060620Y-32974826D01*
X64216826Y-32818620D01*
X64343534Y-32637662D01*
X64403617Y-32508811D01*
X64449790Y-32456371D01*
X64516983Y-32437219D01*
X64583865Y-32457435D01*
X64628382Y-32508811D01*
X64688464Y-32637658D01*
X64688468Y-32637666D01*
X64815170Y-32818615D01*
X64815175Y-32818621D01*
X64971378Y-32974824D01*
X64971384Y-32974829D01*
X65152333Y-33101531D01*
X65152335Y-33101532D01*
X65152338Y-33101534D01*
X65352550Y-33194894D01*
X65565932Y-33252070D01*
X65723123Y-33265822D01*
X65785998Y-33271323D01*
X65786000Y-33271323D01*
X65786002Y-33271323D01*
X65841016Y-33266509D01*
X66006068Y-33252070D01*
X66219450Y-33194894D01*
X66419662Y-33101534D01*
X66600620Y-32974826D01*
X66756826Y-32818620D01*
X66883534Y-32637662D01*
X66943617Y-32508811D01*
X66989790Y-32456371D01*
X67056983Y-32437219D01*
X67123865Y-32457435D01*
X67168382Y-32508811D01*
X67228464Y-32637658D01*
X67228468Y-32637666D01*
X67355170Y-32818615D01*
X67355175Y-32818621D01*
X67511378Y-32974824D01*
X67511384Y-32974829D01*
X67692333Y-33101531D01*
X67692335Y-33101532D01*
X67692338Y-33101534D01*
X67892550Y-33194894D01*
X68105932Y-33252070D01*
X68263123Y-33265822D01*
X68325998Y-33271323D01*
X68326000Y-33271323D01*
X68326002Y-33271323D01*
X68381016Y-33266509D01*
X68546068Y-33252070D01*
X68759450Y-33194894D01*
X68959662Y-33101534D01*
X69140620Y-32974826D01*
X69296826Y-32818620D01*
X69423534Y-32637662D01*
X69483617Y-32508811D01*
X69529790Y-32456371D01*
X69596983Y-32437219D01*
X69663865Y-32457435D01*
X69708382Y-32508811D01*
X69768464Y-32637658D01*
X69768468Y-32637666D01*
X69895170Y-32818615D01*
X69895175Y-32818621D01*
X70051378Y-32974824D01*
X70051384Y-32974829D01*
X70232333Y-33101531D01*
X70232335Y-33101532D01*
X70232338Y-33101534D01*
X70432550Y-33194894D01*
X70645932Y-33252070D01*
X70803123Y-33265822D01*
X70865998Y-33271323D01*
X70866000Y-33271323D01*
X70866002Y-33271323D01*
X70921016Y-33266509D01*
X71086068Y-33252070D01*
X71299450Y-33194894D01*
X71499662Y-33101534D01*
X71680620Y-32974826D01*
X71836826Y-32818620D01*
X71963534Y-32637662D01*
X72023617Y-32508811D01*
X72069790Y-32456371D01*
X72136983Y-32437219D01*
X72203865Y-32457435D01*
X72248382Y-32508811D01*
X72308464Y-32637658D01*
X72308468Y-32637666D01*
X72435170Y-32818615D01*
X72435175Y-32818621D01*
X72591378Y-32974824D01*
X72591384Y-32974829D01*
X72772333Y-33101531D01*
X72772335Y-33101532D01*
X72772338Y-33101534D01*
X72972550Y-33194894D01*
X73185932Y-33252070D01*
X73343123Y-33265822D01*
X73405998Y-33271323D01*
X73406000Y-33271323D01*
X73406002Y-33271323D01*
X73461016Y-33266509D01*
X73626068Y-33252070D01*
X73839450Y-33194894D01*
X74039662Y-33101534D01*
X74220620Y-32974826D01*
X74376826Y-32818620D01*
X74503534Y-32637662D01*
X74563617Y-32508811D01*
X74609790Y-32456371D01*
X74676983Y-32437219D01*
X74743865Y-32457435D01*
X74788382Y-32508811D01*
X74848464Y-32637658D01*
X74848468Y-32637666D01*
X74975170Y-32818615D01*
X74975175Y-32818621D01*
X75131378Y-32974824D01*
X75131384Y-32974829D01*
X75312333Y-33101531D01*
X75312335Y-33101532D01*
X75312338Y-33101534D01*
X75512550Y-33194894D01*
X75725932Y-33252070D01*
X75883123Y-33265822D01*
X75945998Y-33271323D01*
X75946000Y-33271323D01*
X75946002Y-33271323D01*
X76001016Y-33266509D01*
X76166068Y-33252070D01*
X76379450Y-33194894D01*
X76579662Y-33101534D01*
X76760620Y-32974826D01*
X76916826Y-32818620D01*
X77043534Y-32637662D01*
X77103617Y-32508811D01*
X77149790Y-32456371D01*
X77216983Y-32437219D01*
X77283865Y-32457435D01*
X77328382Y-32508811D01*
X77388464Y-32637658D01*
X77388468Y-32637666D01*
X77515170Y-32818615D01*
X77515175Y-32818621D01*
X77671378Y-32974824D01*
X77671384Y-32974829D01*
X77852333Y-33101531D01*
X77852335Y-33101532D01*
X77852338Y-33101534D01*
X78052550Y-33194894D01*
X78265932Y-33252070D01*
X78423123Y-33265822D01*
X78485998Y-33271323D01*
X78486000Y-33271323D01*
X78486002Y-33271323D01*
X78541016Y-33266509D01*
X78706068Y-33252070D01*
X78919450Y-33194894D01*
X79119662Y-33101534D01*
X79300620Y-32974826D01*
X79456826Y-32818620D01*
X79583534Y-32637662D01*
X79643617Y-32508811D01*
X79689790Y-32456371D01*
X79756983Y-32437219D01*
X79823865Y-32457435D01*
X79868382Y-32508811D01*
X79928464Y-32637658D01*
X79928468Y-32637666D01*
X80055170Y-32818615D01*
X80055175Y-32818621D01*
X80211378Y-32974824D01*
X80211384Y-32974829D01*
X80392333Y-33101531D01*
X80392335Y-33101532D01*
X80392338Y-33101534D01*
X80592550Y-33194894D01*
X80805932Y-33252070D01*
X80963123Y-33265822D01*
X81025998Y-33271323D01*
X81026000Y-33271323D01*
X81026002Y-33271323D01*
X81081016Y-33266509D01*
X81246068Y-33252070D01*
X81459450Y-33194894D01*
X81659662Y-33101534D01*
X81840620Y-32974826D01*
X81996826Y-32818620D01*
X82123534Y-32637662D01*
X82216894Y-32437450D01*
X82274070Y-32224068D01*
X82289175Y-32051415D01*
X82293323Y-32004002D01*
X82293323Y-32003997D01*
X82274070Y-31783937D01*
X82274070Y-31783932D01*
X82216894Y-31570550D01*
X82123534Y-31370339D01*
X82038675Y-31249147D01*
X81996827Y-31189381D01*
X81919448Y-31112002D01*
X81840620Y-31033174D01*
X81840616Y-31033171D01*
X81840615Y-31033170D01*
X81659666Y-30906468D01*
X81659662Y-30906466D01*
X81616557Y-30886366D01*
X81459450Y-30813106D01*
X81459447Y-30813105D01*
X81459445Y-30813104D01*
X81246070Y-30755930D01*
X81246062Y-30755929D01*
X81026002Y-30736677D01*
X81025998Y-30736677D01*
X80805937Y-30755929D01*
X80805929Y-30755930D01*
X80592554Y-30813104D01*
X80592548Y-30813107D01*
X80392340Y-30906465D01*
X80392338Y-30906466D01*
X80211377Y-31033175D01*
X80055175Y-31189377D01*
X79928466Y-31370338D01*
X79928465Y-31370340D01*
X79868382Y-31499189D01*
X79822209Y-31551628D01*
X79755016Y-31570780D01*
X79688135Y-31550564D01*
X79643618Y-31499189D01*
X79583534Y-31370340D01*
X79583533Y-31370338D01*
X79536119Y-31302623D01*
X79482648Y-31226258D01*
X79460322Y-31160054D01*
X79477332Y-31092287D01*
X79528280Y-31044474D01*
X79538566Y-31039849D01*
X79552703Y-31034253D01*
X79590542Y-31006759D01*
X79595391Y-31003574D01*
X79635656Y-30979763D01*
X79649897Y-30965520D01*
X79664678Y-30952897D01*
X79680967Y-30941063D01*
X79680969Y-30941059D01*
X79680971Y-30941059D01*
X79697401Y-30921197D01*
X79710776Y-30905028D01*
X79714689Y-30900728D01*
X81157043Y-29458374D01*
X81169325Y-29448537D01*
X81169144Y-29448318D01*
X81175152Y-29443346D01*
X81175162Y-29443340D01*
X81190605Y-29426894D01*
X81250845Y-29391500D01*
X81320659Y-29394292D01*
X81368678Y-29424097D01*
X81539624Y-29595043D01*
X81549471Y-29607333D01*
X81549689Y-29607154D01*
X81554657Y-29613160D01*
X81605257Y-29660677D01*
X81626201Y-29681620D01*
X81626207Y-29681626D01*
X81631697Y-29685883D01*
X81636148Y-29689684D01*
X81670235Y-29721695D01*
X81670237Y-29721696D01*
X81687867Y-29731387D01*
X81704135Y-29742072D01*
X81720038Y-29754408D01*
X81720040Y-29754409D01*
X81720042Y-29754410D01*
X81736457Y-29761513D01*
X81762943Y-29772974D01*
X81768190Y-29775545D01*
X81776314Y-29780011D01*
X81809166Y-29798072D01*
X81828667Y-29803079D01*
X81847061Y-29809376D01*
X81865541Y-29817373D01*
X81911716Y-29824685D01*
X81917419Y-29825866D01*
X81962728Y-29837500D01*
X81982859Y-29837500D01*
X82002256Y-29839026D01*
X82022133Y-29842175D01*
X82065064Y-29838116D01*
X82068679Y-29837775D01*
X82074517Y-29837500D01*
X82369253Y-29837500D01*
X82436292Y-29857185D01*
X82474790Y-29896402D01*
X82482160Y-29908350D01*
X82604150Y-30030340D01*
X82750984Y-30120908D01*
X82914747Y-30175174D01*
X83015823Y-30185500D01*
X83714176Y-30185499D01*
X83714184Y-30185498D01*
X83714187Y-30185498D01*
X83769530Y-30179844D01*
X83815253Y-30175174D01*
X83979016Y-30120908D01*
X84125850Y-30030340D01*
X84247840Y-29908350D01*
X84338408Y-29761516D01*
X84392674Y-29597753D01*
X84403000Y-29496677D01*
X84402999Y-28923324D01*
X84401978Y-28913333D01*
X84392674Y-28822247D01*
X84386025Y-28802183D01*
X84338408Y-28658484D01*
X84247840Y-28511650D01*
X84125850Y-28389660D01*
X83986002Y-28303401D01*
X83979018Y-28299093D01*
X83979013Y-28299091D01*
X83977569Y-28298612D01*
X83815253Y-28244826D01*
X83815251Y-28244825D01*
X83714178Y-28234500D01*
X83015830Y-28234500D01*
X83015812Y-28234501D01*
X82914747Y-28244825D01*
X82750984Y-28299092D01*
X82750981Y-28299093D01*
X82604148Y-28389661D01*
X82482161Y-28511648D01*
X82482159Y-28511650D01*
X82482160Y-28511650D01*
X82474791Y-28523596D01*
X82422846Y-28570320D01*
X82369253Y-28582500D01*
X82353281Y-28582500D01*
X82286242Y-28562815D01*
X82265600Y-28546181D01*
X81435819Y-27716400D01*
X81402334Y-27655077D01*
X81399500Y-27628719D01*
X81399500Y-26405500D01*
X81419185Y-26338461D01*
X81471989Y-26292706D01*
X81523500Y-26281500D01*
X81783719Y-26281500D01*
X81850758Y-26301185D01*
X81871400Y-26317819D01*
X82290681Y-26737100D01*
X82324166Y-26798423D01*
X82327000Y-26824781D01*
X82327000Y-27210669D01*
X82327001Y-27210687D01*
X82337325Y-27311752D01*
X82362202Y-27386824D01*
X82391592Y-27475516D01*
X82482160Y-27622350D01*
X82604150Y-27744340D01*
X82750984Y-27834908D01*
X82914747Y-27889174D01*
X83015823Y-27899500D01*
X83714176Y-27899499D01*
X83714184Y-27899498D01*
X83714187Y-27899498D01*
X83769530Y-27893844D01*
X83815253Y-27889174D01*
X83979016Y-27834908D01*
X84125850Y-27744340D01*
X84247840Y-27622350D01*
X84338408Y-27475516D01*
X84392674Y-27311753D01*
X84403000Y-27210677D01*
X84403000Y-27023187D01*
X89748590Y-27023187D01*
X89778230Y-27418711D01*
X89778231Y-27418724D01*
X89847108Y-27809339D01*
X89954530Y-28191137D01*
X89954534Y-28191151D01*
X90099435Y-28560353D01*
X90099440Y-28560365D01*
X90280386Y-28913314D01*
X90280397Y-28913333D01*
X90286850Y-28923324D01*
X90495586Y-29246509D01*
X90740093Y-29553112D01*
X90742895Y-29556625D01*
X91019823Y-29840544D01*
X91019833Y-29840554D01*
X91323676Y-30095508D01*
X91651394Y-30318942D01*
X91999730Y-30508636D01*
X92365223Y-30662704D01*
X92365232Y-30662706D01*
X92365238Y-30662709D01*
X92744235Y-30779614D01*
X92744248Y-30779617D01*
X93132999Y-30858205D01*
X93133014Y-30858208D01*
X93471299Y-30892058D01*
X93527680Y-30897700D01*
X93527681Y-30897700D01*
X93825103Y-30897700D01*
X94052197Y-30886366D01*
X94122145Y-30882875D01*
X94514353Y-30823759D01*
X94898726Y-30725886D01*
X95271445Y-30590228D01*
X95628803Y-30418133D01*
X95635148Y-30414256D01*
X95967246Y-30211315D01*
X95967245Y-30211315D01*
X95967251Y-30211312D01*
X96283424Y-29971820D01*
X96574181Y-29702037D01*
X96836631Y-29404645D01*
X97068166Y-29082600D01*
X97266485Y-28739101D01*
X97429617Y-28377563D01*
X97555941Y-28001578D01*
X97644201Y-27614885D01*
X97693521Y-27221325D01*
X97698462Y-27023173D01*
X97703409Y-26824826D01*
X97703409Y-26824810D01*
X97696836Y-26737100D01*
X97673769Y-26429280D01*
X97604893Y-26038668D01*
X97597697Y-26013093D01*
X97524502Y-25752942D01*
X97497467Y-25656854D01*
X97490158Y-25638232D01*
X97352564Y-25287646D01*
X97352559Y-25287634D01*
X97291191Y-25167931D01*
X97171609Y-24934677D01*
X96956414Y-24601491D01*
X96709114Y-24291386D01*
X96709111Y-24291383D01*
X96709104Y-24291374D01*
X96432176Y-24007455D01*
X96432173Y-24007452D01*
X96432172Y-24007451D01*
X96432167Y-24007446D01*
X96128324Y-23752492D01*
X95996330Y-23662500D01*
X95800605Y-23529057D01*
X95684493Y-23465826D01*
X95452270Y-23339364D01*
X95452262Y-23339360D01*
X95452259Y-23339359D01*
X95086777Y-23185296D01*
X95086761Y-23185290D01*
X94707764Y-23068385D01*
X94707751Y-23068382D01*
X94319000Y-22989794D01*
X94318979Y-22989791D01*
X93924320Y-22950300D01*
X93924319Y-22950300D01*
X93626899Y-22950300D01*
X93626897Y-22950300D01*
X93329855Y-22965124D01*
X92937647Y-23024241D01*
X92553272Y-23122114D01*
X92180549Y-23257774D01*
X91823191Y-23429869D01*
X91484753Y-23636684D01*
X91484742Y-23636692D01*
X91168575Y-23876180D01*
X91168572Y-23876182D01*
X90877813Y-24145968D01*
X90615365Y-24443359D01*
X90383839Y-24765393D01*
X90383826Y-24765413D01*
X90185516Y-25108896D01*
X90022382Y-25470437D01*
X89896059Y-25846419D01*
X89807799Y-26233111D01*
X89758478Y-26626681D01*
X89748590Y-27023173D01*
X89748590Y-27023187D01*
X84403000Y-27023187D01*
X84402999Y-26637324D01*
X84397734Y-26585786D01*
X84392674Y-26536247D01*
X84378403Y-26493181D01*
X84338408Y-26372484D01*
X84247840Y-26225650D01*
X84125850Y-26103660D01*
X83979016Y-26013092D01*
X83815253Y-25958826D01*
X83815251Y-25958825D01*
X83714184Y-25948500D01*
X83714177Y-25948500D01*
X83328281Y-25948500D01*
X83261242Y-25928815D01*
X83240600Y-25912181D01*
X83153599Y-25825180D01*
X83120114Y-25763857D01*
X83125098Y-25694165D01*
X83166970Y-25638232D01*
X83232434Y-25613815D01*
X83241261Y-25613499D01*
X83714176Y-25613499D01*
X83714184Y-25613498D01*
X83714187Y-25613498D01*
X83796496Y-25605090D01*
X83815253Y-25603174D01*
X83979016Y-25548908D01*
X84125850Y-25458340D01*
X84247840Y-25336350D01*
X84338408Y-25189516D01*
X84392674Y-25025753D01*
X84403000Y-24924677D01*
X84402999Y-24351324D01*
X84392674Y-24250247D01*
X84338408Y-24086484D01*
X84247840Y-23939650D01*
X84125850Y-23817660D01*
X84020196Y-23752492D01*
X83979018Y-23727093D01*
X83979013Y-23727091D01*
X83977569Y-23726612D01*
X83815253Y-23672826D01*
X83815251Y-23672825D01*
X83714178Y-23662500D01*
X83015830Y-23662500D01*
X83015812Y-23662501D01*
X82914747Y-23672825D01*
X82750984Y-23727092D01*
X82750981Y-23727093D01*
X82604148Y-23817661D01*
X82482161Y-23939648D01*
X82482159Y-23939650D01*
X82482160Y-23939650D01*
X82474791Y-23951596D01*
X82422846Y-23998320D01*
X82369253Y-24010500D01*
X80711947Y-24010500D01*
X80644908Y-23990815D01*
X80619800Y-23969476D01*
X80615871Y-23965112D01*
X80615869Y-23965111D01*
X80615867Y-23965108D01*
X80615864Y-23965106D01*
X80462734Y-23853851D01*
X80462729Y-23853848D01*
X80289807Y-23776857D01*
X80289802Y-23776855D01*
X80144000Y-23745865D01*
X80104646Y-23737500D01*
X79915354Y-23737500D01*
X79882897Y-23744398D01*
X79730197Y-23776855D01*
X79730192Y-23776857D01*
X79557270Y-23853848D01*
X79557265Y-23853851D01*
X79404129Y-23965111D01*
X79277466Y-24105785D01*
X79182821Y-24269715D01*
X79182818Y-24269722D01*
X79124327Y-24449740D01*
X79124326Y-24449744D01*
X79104540Y-24638000D01*
X79124326Y-24826256D01*
X79124327Y-24826259D01*
X79136649Y-24864182D01*
X79138644Y-24934023D01*
X79102564Y-24993856D01*
X79039863Y-25024684D01*
X79018718Y-25026500D01*
X73950281Y-25026500D01*
X73883242Y-25006815D01*
X73837487Y-24954011D01*
X73827543Y-24884853D01*
X73856568Y-24821297D01*
X73862602Y-24814816D01*
X73864690Y-24812728D01*
X73877623Y-24799796D01*
X73881892Y-24794290D01*
X73885676Y-24789859D01*
X73917693Y-24755767D01*
X73927389Y-24738128D01*
X73938073Y-24721861D01*
X73950408Y-24705962D01*
X73968978Y-24663046D01*
X73971534Y-24657827D01*
X73994072Y-24616834D01*
X73999081Y-24597322D01*
X74005378Y-24578932D01*
X74013373Y-24560459D01*
X74020689Y-24514257D01*
X74021864Y-24508583D01*
X74033500Y-24463272D01*
X74033500Y-24443140D01*
X74035027Y-24423741D01*
X74038175Y-24403867D01*
X74033775Y-24357321D01*
X74033500Y-24351483D01*
X74033500Y-23170398D01*
X74053185Y-23103359D01*
X74086374Y-23068825D01*
X74220620Y-22974826D01*
X74376826Y-22818620D01*
X74503534Y-22637662D01*
X74563617Y-22508811D01*
X74609790Y-22456371D01*
X74676983Y-22437219D01*
X74743865Y-22457435D01*
X74788382Y-22508811D01*
X74848464Y-22637658D01*
X74848468Y-22637666D01*
X74920547Y-22740605D01*
X74975174Y-22818620D01*
X75131380Y-22974826D01*
X75131382Y-22974827D01*
X75131384Y-22974829D01*
X75312333Y-23101531D01*
X75312335Y-23101532D01*
X75312338Y-23101534D01*
X75512550Y-23194894D01*
X75725932Y-23252070D01*
X75855278Y-23263386D01*
X75945998Y-23271323D01*
X75946000Y-23271323D01*
X75946002Y-23271323D01*
X76001016Y-23266509D01*
X76166068Y-23252070D01*
X76379450Y-23194894D01*
X76579662Y-23101534D01*
X76760620Y-22974826D01*
X76916826Y-22818620D01*
X77043534Y-22637662D01*
X77103617Y-22508811D01*
X77149790Y-22456371D01*
X77216983Y-22437219D01*
X77283865Y-22457435D01*
X77328382Y-22508811D01*
X77388464Y-22637658D01*
X77388468Y-22637666D01*
X77460547Y-22740605D01*
X77515174Y-22818620D01*
X77671380Y-22974826D01*
X77671382Y-22974827D01*
X77671384Y-22974829D01*
X77852333Y-23101531D01*
X77852335Y-23101532D01*
X77852338Y-23101534D01*
X78052550Y-23194894D01*
X78265932Y-23252070D01*
X78395278Y-23263386D01*
X78485998Y-23271323D01*
X78486000Y-23271323D01*
X78486002Y-23271323D01*
X78541016Y-23266509D01*
X78706068Y-23252070D01*
X78919450Y-23194894D01*
X79119662Y-23101534D01*
X79300620Y-22974826D01*
X79456826Y-22818620D01*
X79583534Y-22637662D01*
X79676894Y-22437450D01*
X79734070Y-22224068D01*
X79753323Y-22004000D01*
X79734070Y-21783932D01*
X79676894Y-21570550D01*
X79583534Y-21370339D01*
X79456826Y-21189380D01*
X79300620Y-21033174D01*
X79300616Y-21033171D01*
X79300615Y-21033170D01*
X79119666Y-20906468D01*
X79119662Y-20906466D01*
X79119662Y-20906465D01*
X78919450Y-20813106D01*
X78919447Y-20813105D01*
X78919445Y-20813104D01*
X78706070Y-20755930D01*
X78706062Y-20755929D01*
X78486002Y-20736677D01*
X78485998Y-20736677D01*
X78265937Y-20755929D01*
X78265929Y-20755930D01*
X78052554Y-20813104D01*
X78052548Y-20813107D01*
X77852340Y-20906465D01*
X77852338Y-20906466D01*
X77671377Y-21033175D01*
X77515175Y-21189377D01*
X77388466Y-21370338D01*
X77388465Y-21370340D01*
X77328382Y-21499189D01*
X77282209Y-21551628D01*
X77215016Y-21570780D01*
X77148135Y-21550564D01*
X77103618Y-21499189D01*
X77043534Y-21370340D01*
X77043533Y-21370338D01*
X76916827Y-21189381D01*
X76880095Y-21152649D01*
X76760620Y-21033174D01*
X76760616Y-21033171D01*
X76760615Y-21033170D01*
X76579666Y-20906468D01*
X76579662Y-20906466D01*
X76579662Y-20906465D01*
X76379450Y-20813106D01*
X76379447Y-20813105D01*
X76379445Y-20813104D01*
X76166070Y-20755930D01*
X76166062Y-20755929D01*
X75946002Y-20736677D01*
X75945998Y-20736677D01*
X75725937Y-20755929D01*
X75725929Y-20755930D01*
X75512554Y-20813104D01*
X75512548Y-20813107D01*
X75312340Y-20906465D01*
X75312338Y-20906466D01*
X75131377Y-21033175D01*
X74975175Y-21189377D01*
X74848466Y-21370338D01*
X74848465Y-21370340D01*
X74788382Y-21499189D01*
X74742209Y-21551628D01*
X74675016Y-21570780D01*
X74608135Y-21550564D01*
X74563618Y-21499189D01*
X74503534Y-21370340D01*
X74503533Y-21370338D01*
X74376827Y-21189381D01*
X74340095Y-21152649D01*
X74220620Y-21033174D01*
X74220616Y-21033171D01*
X74220615Y-21033170D01*
X74039666Y-20906468D01*
X74039662Y-20906466D01*
X74039662Y-20906465D01*
X73839450Y-20813106D01*
X73839447Y-20813105D01*
X73839445Y-20813104D01*
X73626070Y-20755930D01*
X73626062Y-20755929D01*
X73406002Y-20736677D01*
X73405998Y-20736677D01*
X73185937Y-20755929D01*
X73185929Y-20755930D01*
X72972554Y-20813104D01*
X72972548Y-20813107D01*
X72772340Y-20906465D01*
X72772338Y-20906466D01*
X72591377Y-21033175D01*
X72435175Y-21189377D01*
X72308466Y-21370338D01*
X72308465Y-21370340D01*
X72215107Y-21570548D01*
X72215104Y-21570554D01*
X72157930Y-21783929D01*
X72157929Y-21783937D01*
X72138677Y-22003997D01*
X72138677Y-22004002D01*
X72157929Y-22224062D01*
X72157930Y-22224070D01*
X72215104Y-22437445D01*
X72215105Y-22437447D01*
X72215106Y-22437450D01*
X72269552Y-22554210D01*
X72308466Y-22637662D01*
X72308468Y-22637666D01*
X72380547Y-22740605D01*
X72435174Y-22818620D01*
X72591380Y-22974826D01*
X72591382Y-22974827D01*
X72591384Y-22974829D01*
X72616988Y-22992757D01*
X72725624Y-23068824D01*
X72769248Y-23123399D01*
X72778500Y-23170398D01*
X72778500Y-24072718D01*
X72758815Y-24139757D01*
X72742181Y-24160399D01*
X71912400Y-24990181D01*
X71851077Y-25023666D01*
X71824719Y-25026500D01*
X71687142Y-25026500D01*
X71667743Y-25024973D01*
X71647868Y-25021825D01*
X71647867Y-25021825D01*
X71601321Y-25026225D01*
X71595483Y-25026500D01*
X68637281Y-25026500D01*
X68570242Y-25006815D01*
X68549600Y-24990181D01*
X67050376Y-23490957D01*
X67040531Y-23478668D01*
X67040313Y-23478849D01*
X67035340Y-23472838D01*
X67035340Y-23472837D01*
X66984741Y-23425322D01*
X66974268Y-23414849D01*
X66963797Y-23404377D01*
X66958296Y-23400111D01*
X66953848Y-23396312D01*
X66919768Y-23364308D01*
X66919763Y-23364304D01*
X66902122Y-23354606D01*
X66885857Y-23343922D01*
X66869963Y-23331593D01*
X66869962Y-23331592D01*
X66847212Y-23321747D01*
X66827054Y-23313023D01*
X66821807Y-23310453D01*
X66780837Y-23287929D01*
X66780828Y-23287926D01*
X66761334Y-23282920D01*
X66742933Y-23276620D01*
X66724459Y-23268626D01*
X66724452Y-23268624D01*
X66678287Y-23261313D01*
X66672563Y-23260128D01*
X66627279Y-23248500D01*
X66627272Y-23248500D01*
X66607142Y-23248500D01*
X66587733Y-23246971D01*
X66584389Y-23246441D01*
X66521260Y-23216503D01*
X66484337Y-23157187D01*
X66485344Y-23087324D01*
X66523962Y-23029097D01*
X66532669Y-23022405D01*
X66600620Y-22974826D01*
X66756826Y-22818620D01*
X66883534Y-22637662D01*
X66976894Y-22437450D01*
X67034070Y-22224068D01*
X67053323Y-22004000D01*
X67034070Y-21783932D01*
X66976894Y-21570550D01*
X66883534Y-21370339D01*
X66756826Y-21189380D01*
X66600620Y-21033174D01*
X66600616Y-21033171D01*
X66600615Y-21033170D01*
X66419666Y-20906468D01*
X66419662Y-20906466D01*
X66419662Y-20906465D01*
X66219450Y-20813106D01*
X66219447Y-20813105D01*
X66219445Y-20813104D01*
X66006070Y-20755930D01*
X66006062Y-20755929D01*
X65786002Y-20736677D01*
X65785998Y-20736677D01*
X65565937Y-20755929D01*
X65565929Y-20755930D01*
X65352554Y-20813104D01*
X65352548Y-20813107D01*
X65152340Y-20906465D01*
X65152338Y-20906466D01*
X64971377Y-21033175D01*
X64815175Y-21189377D01*
X64688466Y-21370338D01*
X64688465Y-21370340D01*
X64595107Y-21570548D01*
X64595104Y-21570554D01*
X64537930Y-21783929D01*
X64537929Y-21783937D01*
X64518677Y-22003997D01*
X64518677Y-22004002D01*
X64537929Y-22224062D01*
X64537930Y-22224070D01*
X64595104Y-22437445D01*
X64595105Y-22437447D01*
X64595106Y-22437450D01*
X64649552Y-22554210D01*
X64688466Y-22637662D01*
X64688468Y-22637666D01*
X64760547Y-22740605D01*
X64815174Y-22818620D01*
X64971380Y-22974826D01*
X64971382Y-22974827D01*
X64971384Y-22974829D01*
X65040072Y-23022925D01*
X65083697Y-23077502D01*
X65090891Y-23147000D01*
X65059368Y-23209355D01*
X64999138Y-23244769D01*
X64968949Y-23248500D01*
X61523051Y-23248500D01*
X61456012Y-23228815D01*
X61410257Y-23176011D01*
X61400313Y-23106853D01*
X61429338Y-23043297D01*
X61451928Y-23022925D01*
X61499246Y-22989792D01*
X61520620Y-22974826D01*
X61676826Y-22818620D01*
X61803534Y-22637662D01*
X61896894Y-22437450D01*
X61954070Y-22224068D01*
X61973323Y-22004000D01*
X61954070Y-21783932D01*
X61896894Y-21570550D01*
X61803534Y-21370339D01*
X61676826Y-21189380D01*
X61520620Y-21033174D01*
X61520616Y-21033171D01*
X61520615Y-21033170D01*
X61339666Y-20906468D01*
X61339662Y-20906466D01*
X61339662Y-20906465D01*
X61139450Y-20813106D01*
X61139447Y-20813105D01*
X61139445Y-20813104D01*
X60926070Y-20755930D01*
X60926062Y-20755929D01*
X60706002Y-20736677D01*
X60705998Y-20736677D01*
X60485937Y-20755929D01*
X60485929Y-20755930D01*
X60272554Y-20813104D01*
X60272548Y-20813107D01*
X60072340Y-20906465D01*
X60072338Y-20906466D01*
X59891377Y-21033175D01*
X59735175Y-21189377D01*
X59608466Y-21370338D01*
X59608465Y-21370340D01*
X59548382Y-21499189D01*
X59502209Y-21551628D01*
X59435016Y-21570780D01*
X59368135Y-21550564D01*
X59323618Y-21499189D01*
X59263534Y-21370340D01*
X59263533Y-21370338D01*
X59136827Y-21189381D01*
X59100095Y-21152649D01*
X58980620Y-21033174D01*
X58980616Y-21033171D01*
X58980615Y-21033170D01*
X58799666Y-20906468D01*
X58799662Y-20906466D01*
X58799661Y-20906465D01*
X58599450Y-20813106D01*
X58599447Y-20813105D01*
X58599445Y-20813104D01*
X58386070Y-20755930D01*
X58386062Y-20755929D01*
X58166002Y-20736677D01*
X58165998Y-20736677D01*
X57945937Y-20755929D01*
X57945929Y-20755930D01*
X57732554Y-20813104D01*
X57732548Y-20813107D01*
X57532340Y-20906465D01*
X57532338Y-20906466D01*
X57351377Y-21033175D01*
X57195175Y-21189377D01*
X57068466Y-21370338D01*
X57068465Y-21370340D01*
X57008382Y-21499189D01*
X56962209Y-21551628D01*
X56895016Y-21570780D01*
X56828135Y-21550564D01*
X56783618Y-21499189D01*
X56723534Y-21370340D01*
X56723533Y-21370338D01*
X56596827Y-21189381D01*
X56560095Y-21152649D01*
X56440620Y-21033174D01*
X56440616Y-21033171D01*
X56440615Y-21033170D01*
X56259666Y-20906468D01*
X56259662Y-20906466D01*
X56259661Y-20906465D01*
X56059450Y-20813106D01*
X56059447Y-20813105D01*
X56059445Y-20813104D01*
X55846070Y-20755930D01*
X55846062Y-20755929D01*
X55626002Y-20736677D01*
X55625998Y-20736677D01*
X55405937Y-20755929D01*
X55405929Y-20755930D01*
X55192554Y-20813104D01*
X55192548Y-20813107D01*
X54992340Y-20906465D01*
X54992338Y-20906466D01*
X54811377Y-21033175D01*
X54655175Y-21189377D01*
X54528466Y-21370338D01*
X54528465Y-21370340D01*
X54435107Y-21570548D01*
X54435104Y-21570554D01*
X54377930Y-21783929D01*
X54377929Y-21783937D01*
X54358677Y-22003997D01*
X54358677Y-22004002D01*
X38014426Y-22004002D01*
X38020936Y-21979705D01*
X38022443Y-21974882D01*
X38086246Y-21796564D01*
X38155086Y-21617231D01*
X38156885Y-21613026D01*
X38238437Y-21440597D01*
X38325223Y-21270271D01*
X38327237Y-21266632D01*
X38425737Y-21102295D01*
X38529607Y-20942349D01*
X38531789Y-20939209D01*
X38531797Y-20939199D01*
X38646239Y-20784890D01*
X38766193Y-20636759D01*
X38768381Y-20634207D01*
X38896694Y-20492636D01*
X38898707Y-20490522D01*
X39032522Y-20356707D01*
X39034636Y-20354694D01*
X39176207Y-20226381D01*
X39178759Y-20224193D01*
X39326882Y-20104246D01*
X39481216Y-19989783D01*
X39484349Y-19987607D01*
X39644267Y-19883754D01*
X39808632Y-19785237D01*
X39812271Y-19783223D01*
X39982600Y-19696436D01*
X40155026Y-19614885D01*
X40159231Y-19613086D01*
X40338564Y-19544246D01*
X40516886Y-19480441D01*
X40521705Y-19478936D01*
X40709132Y-19428715D01*
X40890559Y-19383269D01*
X40895852Y-19382190D01*
X41092637Y-19351022D01*
X41272162Y-19324392D01*
X41277960Y-19323812D01*
X41503449Y-19311994D01*
X41587525Y-19307863D01*
X41654486Y-19304575D01*
X41657528Y-19304500D01*
X94944136Y-19304500D01*
X94944139Y-19304501D01*
G37*
%TD.AperFunction*%
%TD*%
M02*
