%TF.GenerationSoftware,KiCad,Pcbnew,9.0.4*%
%TF.CreationDate,2026-03-21T13:08:42-05:00*%
%TF.ProjectId,CCD_Breakout,4343445f-4272-4656-916b-6f75742e6b69,rev?*%
%TF.SameCoordinates,Original*%
%TF.FileFunction,Paste,Top*%
%TF.FilePolarity,Positive*%
%FSLAX46Y46*%
G04 Gerber Fmt 4.6, Leading zero omitted, Abs format (unit mm)*
G04 Created by KiCad (PCBNEW 9.0.4) date 2026-03-21 13:08:42*
%MOMM*%
%LPD*%
G01*
G04 APERTURE LIST*
G04 Aperture macros list*
%AMRoundRect*
0 Rectangle with rounded corners*
0 $1 Rounding radius*
0 $2 $3 $4 $5 $6 $7 $8 $9 X,Y pos of 4 corners*
0 Add a 4 corners polygon primitive as box body*
4,1,4,$2,$3,$4,$5,$6,$7,$8,$9,$2,$3,0*
0 Add four circle primitives for the rounded corners*
1,1,$1+$1,$2,$3*
1,1,$1+$1,$4,$5*
1,1,$1+$1,$6,$7*
1,1,$1+$1,$8,$9*
0 Add four rect primitives between the rounded corners*
20,1,$1+$1,$2,$3,$4,$5,0*
20,1,$1+$1,$4,$5,$6,$7,0*
20,1,$1+$1,$6,$7,$8,$9,0*
20,1,$1+$1,$8,$9,$2,$3,0*%
G04 Aperture macros list end*
%ADD10RoundRect,0.237500X-0.237500X0.250000X-0.237500X-0.250000X0.237500X-0.250000X0.237500X0.250000X0*%
%ADD11RoundRect,0.237500X0.250000X0.237500X-0.250000X0.237500X-0.250000X-0.237500X0.250000X-0.237500X0*%
%ADD12R,0.355600X1.473200*%
%ADD13RoundRect,0.237500X-0.250000X-0.237500X0.250000X-0.237500X0.250000X0.237500X-0.250000X0.237500X0*%
%ADD14RoundRect,0.237500X-0.237500X0.300000X-0.237500X-0.300000X0.237500X-0.300000X0.237500X0.300000X0*%
%ADD15RoundRect,0.237500X-0.300000X-0.237500X0.300000X-0.237500X0.300000X0.237500X-0.300000X0.237500X0*%
%ADD16R,0.914400X0.508000*%
%ADD17RoundRect,0.250000X0.407500X0.295000X-0.407500X0.295000X-0.407500X-0.295000X0.407500X-0.295000X0*%
%ADD18RoundRect,0.100000X0.650000X0.100000X-0.650000X0.100000X-0.650000X-0.100000X0.650000X-0.100000X0*%
%ADD19RoundRect,0.237500X0.300000X0.237500X-0.300000X0.237500X-0.300000X-0.237500X0.300000X-0.237500X0*%
%ADD20RoundRect,0.250000X-0.407500X-0.295000X0.407500X-0.295000X0.407500X0.295000X-0.407500X0.295000X0*%
%ADD21RoundRect,0.237500X0.237500X-0.250000X0.237500X0.250000X-0.237500X0.250000X-0.237500X-0.250000X0*%
%ADD22R,0.355600X1.409700*%
%ADD23RoundRect,0.250000X0.295000X-0.407500X0.295000X0.407500X-0.295000X0.407500X-0.295000X-0.407500X0*%
%ADD24RoundRect,0.049500X0.425500X-0.115500X0.425500X0.115500X-0.425500X0.115500X-0.425500X-0.115500X0*%
%ADD25RoundRect,0.237500X0.237500X-0.300000X0.237500X0.300000X-0.237500X0.300000X-0.237500X-0.300000X0*%
G04 APERTURE END LIST*
D10*
%TO.C,R8*%
X171958000Y-95226500D03*
X171958000Y-97051500D03*
%TD*%
D11*
%TO.C,R4*%
X159789500Y-97409000D03*
X157964500Y-97409000D03*
%TD*%
D12*
%TO.C,U8*%
X173690999Y-96901000D03*
X174341000Y-96901000D03*
X174991001Y-96901000D03*
X175641000Y-96901000D03*
X176290999Y-96901000D03*
X176941000Y-96901000D03*
X177590999Y-96901000D03*
X177591001Y-91059000D03*
X176941000Y-91059000D03*
X176291001Y-91059000D03*
X175641000Y-91059000D03*
X174991001Y-91059000D03*
X174341000Y-91059000D03*
X173691001Y-91059000D03*
%TD*%
D13*
%TO.C,R16*%
X162917500Y-105156000D03*
X164742500Y-105156000D03*
%TD*%
D14*
%TO.C,C9*%
X144780000Y-90958500D03*
X144780000Y-92683500D03*
%TD*%
D11*
%TO.C,R6*%
X167638100Y-85344000D03*
X165813100Y-85344000D03*
%TD*%
%TO.C,R1*%
X175156500Y-98933000D03*
X173331500Y-98933000D03*
%TD*%
D15*
%TO.C,C11*%
X176937500Y-98933000D03*
X178662500Y-98933000D03*
%TD*%
D16*
%TO.C,Q1*%
X135890000Y-103314500D03*
X135890000Y-101409500D03*
X133858000Y-102362000D03*
%TD*%
D13*
%TO.C,R13*%
X177014500Y-89281000D03*
X178839500Y-89281000D03*
%TD*%
%TO.C,R15*%
X162917500Y-103505000D03*
X164742500Y-103505000D03*
%TD*%
D10*
%TO.C,R14*%
X171196000Y-103481500D03*
X171196000Y-105306500D03*
%TD*%
D17*
%TO.C,C13*%
X169379500Y-102108000D03*
X167424500Y-102108000D03*
%TD*%
D14*
%TO.C,C2*%
X136906000Y-82830500D03*
X136906000Y-84555500D03*
%TD*%
D18*
%TO.C,U2*%
X172272000Y-85105000D03*
X172272000Y-84455000D03*
X172272000Y-83805000D03*
X169612000Y-83805000D03*
X169612000Y-85105000D03*
%TD*%
D13*
%TO.C,R3*%
X163044500Y-90678000D03*
X164869500Y-90678000D03*
%TD*%
D19*
%TO.C,C12*%
X176757500Y-100584000D03*
X175032500Y-100584000D03*
%TD*%
D18*
%TO.C,U4*%
X169351000Y-105044000D03*
X169351000Y-104394000D03*
X169351000Y-103744000D03*
X166691000Y-103744000D03*
X166691000Y-105044000D03*
%TD*%
D20*
%TO.C,C4*%
X156959700Y-104952800D03*
X158914700Y-104952800D03*
%TD*%
%TO.C,C7*%
X169710500Y-88493600D03*
X171665500Y-88493600D03*
%TD*%
D14*
%TO.C,C8*%
X146558000Y-90958500D03*
X146558000Y-92683500D03*
%TD*%
D20*
%TO.C,C10*%
X173977700Y-86766400D03*
X175932700Y-86766400D03*
%TD*%
D15*
%TO.C,C16*%
X155220500Y-102565200D03*
X156945500Y-102565200D03*
%TD*%
D21*
%TO.C,R12*%
X179197000Y-96924500D03*
X179197000Y-95099500D03*
%TD*%
D22*
%TO.C,U5*%
X148078000Y-97155250D03*
X148728001Y-97155250D03*
X149377999Y-97155250D03*
X150028001Y-97155250D03*
X150677999Y-97155250D03*
X151327998Y-97155250D03*
X151977999Y-97155250D03*
X152627998Y-97155250D03*
X153277999Y-97155250D03*
X153927998Y-97155250D03*
X153928000Y-91249750D03*
X153278002Y-91249750D03*
X152628001Y-91249750D03*
X151978002Y-91249750D03*
X151328001Y-91249750D03*
X150678002Y-91249750D03*
X150028001Y-91249750D03*
X149378002Y-91249750D03*
X148728001Y-91249750D03*
X148078002Y-91249750D03*
%TD*%
D14*
%TO.C,C3*%
X138430000Y-82830500D03*
X138430000Y-84555500D03*
%TD*%
D23*
%TO.C,C14*%
X172847000Y-105244500D03*
X172847000Y-103289500D03*
%TD*%
D11*
%TO.C,R7*%
X156995500Y-101092000D03*
X155170500Y-101092000D03*
%TD*%
%TO.C,R5*%
X171473500Y-86741000D03*
X169648500Y-86741000D03*
%TD*%
D10*
%TO.C,R10*%
X134264400Y-86463500D03*
X134264400Y-88288500D03*
%TD*%
D16*
%TO.C,Q2*%
X135382000Y-84709000D03*
X135382000Y-82804000D03*
X133350000Y-83756500D03*
%TD*%
D24*
%TO.C,U3*%
X153653000Y-104739000D03*
X153653000Y-104239000D03*
X153653000Y-103739000D03*
X153649203Y-103236221D03*
X153653000Y-102739000D03*
X149703000Y-102739000D03*
X149703000Y-103236221D03*
X149703000Y-103739000D03*
X149703000Y-104239000D03*
X149703000Y-104739000D03*
%TD*%
D11*
%TO.C,R11*%
X135532500Y-105410000D03*
X133707500Y-105410000D03*
%TD*%
D25*
%TO.C,C6*%
X147574000Y-105637500D03*
X147574000Y-103912500D03*
%TD*%
D19*
%TO.C,C1*%
X159739500Y-90551000D03*
X158014500Y-90551000D03*
%TD*%
D14*
%TO.C,C5*%
X155194000Y-104090300D03*
X155194000Y-105815300D03*
%TD*%
D13*
%TO.C,R9*%
X165813100Y-83769200D03*
X167638100Y-83769200D03*
%TD*%
M02*
