%TF.GenerationSoftware,KiCad,Pcbnew,9.0.4*%
%TF.CreationDate,2026-03-21T13:08:43-05:00*%
%TF.ProjectId,CCD_Breakout,4343445f-4272-4656-916b-6f75742e6b69,rev?*%
%TF.SameCoordinates,Original*%
%TF.FileFunction,Soldermask,Top*%
%TF.FilePolarity,Negative*%
%FSLAX46Y46*%
G04 Gerber Fmt 4.6, Leading zero omitted, Abs format (unit mm)*
G04 Created by KiCad (PCBNEW 9.0.4) date 2026-03-21 13:08:43*
%MOMM*%
%LPD*%
G01*
G04 APERTURE LIST*
G04 Aperture macros list*
%AMRoundRect*
0 Rectangle with rounded corners*
0 $1 Rounding radius*
0 $2 $3 $4 $5 $6 $7 $8 $9 X,Y pos of 4 corners*
0 Add a 4 corners polygon primitive as box body*
4,1,4,$2,$3,$4,$5,$6,$7,$8,$9,$2,$3,0*
0 Add four circle primitives for the rounded corners*
1,1,$1+$1,$2,$3*
1,1,$1+$1,$4,$5*
1,1,$1+$1,$6,$7*
1,1,$1+$1,$8,$9*
0 Add four rect primitives between the rounded corners*
20,1,$1+$1,$2,$3,$4,$5,0*
20,1,$1+$1,$4,$5,$6,$7,0*
20,1,$1+$1,$6,$7,$8,$9,0*
20,1,$1+$1,$8,$9,$2,$3,0*%
G04 Aperture macros list end*
%ADD10RoundRect,0.237500X-0.237500X0.250000X-0.237500X-0.250000X0.237500X-0.250000X0.237500X0.250000X0*%
%ADD11RoundRect,0.237500X0.250000X0.237500X-0.250000X0.237500X-0.250000X-0.237500X0.250000X-0.237500X0*%
%ADD12R,0.355600X1.473200*%
%ADD13RoundRect,0.237500X-0.250000X-0.237500X0.250000X-0.237500X0.250000X0.237500X-0.250000X0.237500X0*%
%ADD14RoundRect,0.237500X-0.237500X0.300000X-0.237500X-0.300000X0.237500X-0.300000X0.237500X0.300000X0*%
%ADD15C,0.800000*%
%ADD16C,6.400000*%
%ADD17RoundRect,0.237500X-0.300000X-0.237500X0.300000X-0.237500X0.300000X0.237500X-0.300000X0.237500X0*%
%ADD18C,1.524000*%
%ADD19R,0.914400X0.508000*%
%ADD20RoundRect,0.250000X0.407500X0.295000X-0.407500X0.295000X-0.407500X-0.295000X0.407500X-0.295000X0*%
%ADD21RoundRect,0.100000X0.650000X0.100000X-0.650000X0.100000X-0.650000X-0.100000X0.650000X-0.100000X0*%
%ADD22C,1.500000*%
%ADD23RoundRect,0.237500X0.300000X0.237500X-0.300000X0.237500X-0.300000X-0.237500X0.300000X-0.237500X0*%
%ADD24RoundRect,0.250000X-0.407500X-0.295000X0.407500X-0.295000X0.407500X0.295000X-0.407500X0.295000X0*%
%ADD25RoundRect,0.237500X0.237500X-0.250000X0.237500X0.250000X-0.237500X0.250000X-0.237500X-0.250000X0*%
%ADD26R,0.355600X1.409700*%
%ADD27RoundRect,0.250000X0.295000X-0.407500X0.295000X0.407500X-0.295000X0.407500X-0.295000X-0.407500X0*%
%ADD28RoundRect,0.049500X0.425500X-0.115500X0.425500X0.115500X-0.425500X0.115500X-0.425500X-0.115500X0*%
%ADD29RoundRect,0.237500X0.237500X-0.300000X0.237500X0.300000X-0.237500X0.300000X-0.237500X-0.300000X0*%
%ADD30RoundRect,0.102000X0.609000X-0.609000X0.609000X0.609000X-0.609000X0.609000X-0.609000X-0.609000X0*%
%ADD31C,1.422000*%
G04 APERTURE END LIST*
D10*
%TO.C,R8*%
X171958000Y-95226500D03*
X171958000Y-97051500D03*
%TD*%
D11*
%TO.C,R4*%
X159789500Y-97409000D03*
X157964500Y-97409000D03*
%TD*%
D12*
%TO.C,U8*%
X173690999Y-96901000D03*
X174341000Y-96901000D03*
X174991001Y-96901000D03*
X175641000Y-96901000D03*
X176290999Y-96901000D03*
X176941000Y-96901000D03*
X177590999Y-96901000D03*
X177591001Y-91059000D03*
X176941000Y-91059000D03*
X176291001Y-91059000D03*
X175641000Y-91059000D03*
X174991001Y-91059000D03*
X174341000Y-91059000D03*
X173691001Y-91059000D03*
%TD*%
D13*
%TO.C,R16*%
X162917500Y-105156000D03*
X164742500Y-105156000D03*
%TD*%
D14*
%TO.C,C9*%
X144780000Y-90958500D03*
X144780000Y-92683500D03*
%TD*%
D11*
%TO.C,R6*%
X167638100Y-85344000D03*
X165813100Y-85344000D03*
%TD*%
D15*
%TO.C,H1*%
X118250000Y-84074000D03*
X118952944Y-82376944D03*
X118952944Y-85771056D03*
X120650000Y-81674000D03*
D16*
X120650000Y-84074000D03*
D15*
X120650000Y-86474000D03*
X122347056Y-82376944D03*
X122347056Y-85771056D03*
X123050000Y-84074000D03*
%TD*%
D11*
%TO.C,R1*%
X175156500Y-98933000D03*
X173331500Y-98933000D03*
%TD*%
D17*
%TO.C,C11*%
X176937500Y-98933000D03*
X178662500Y-98933000D03*
%TD*%
D18*
%TO.C,Conn1*%
X129794000Y-105410000D03*
X129794000Y-102870000D03*
X129794000Y-100330000D03*
X129794000Y-97790000D03*
X129794000Y-95250000D03*
X129794000Y-92710000D03*
X129794000Y-90170000D03*
X129794000Y-87630000D03*
X129794000Y-85090000D03*
X129794000Y-82550000D03*
%TD*%
D19*
%TO.C,Q1*%
X135890000Y-103314500D03*
X135890000Y-101409500D03*
X133858000Y-102362000D03*
%TD*%
D13*
%TO.C,R13*%
X177014500Y-89281000D03*
X178839500Y-89281000D03*
%TD*%
D15*
%TO.C,H2*%
X178956000Y-84074000D03*
X179658944Y-82376944D03*
X179658944Y-85771056D03*
X181356000Y-81674000D03*
D16*
X181356000Y-84074000D03*
D15*
X181356000Y-86474000D03*
X183053056Y-82376944D03*
X183053056Y-85771056D03*
X183756000Y-84074000D03*
%TD*%
D13*
%TO.C,R15*%
X162917500Y-103505000D03*
X164742500Y-103505000D03*
%TD*%
D10*
%TO.C,R14*%
X171196000Y-103481500D03*
X171196000Y-105306500D03*
%TD*%
D20*
%TO.C,C13*%
X169379500Y-102108000D03*
X167424500Y-102108000D03*
%TD*%
D14*
%TO.C,C2*%
X136906000Y-82830500D03*
X136906000Y-84555500D03*
%TD*%
D21*
%TO.C,U2*%
X172272000Y-85105000D03*
X172272000Y-84455000D03*
X172272000Y-83805000D03*
X169612000Y-83805000D03*
X169612000Y-85105000D03*
%TD*%
D13*
%TO.C,R3*%
X163044500Y-90678000D03*
X164869500Y-90678000D03*
%TD*%
D22*
%TO.C,TP1*%
X141605000Y-101727000D03*
%TD*%
D23*
%TO.C,C12*%
X176757500Y-100584000D03*
X175032500Y-100584000D03*
%TD*%
D21*
%TO.C,U4*%
X169351000Y-105044000D03*
X169351000Y-104394000D03*
X169351000Y-103744000D03*
X166691000Y-103744000D03*
X166691000Y-105044000D03*
%TD*%
D22*
%TO.C,TP5*%
X146685000Y-101727000D03*
%TD*%
D24*
%TO.C,C4*%
X156959700Y-104952800D03*
X158914700Y-104952800D03*
%TD*%
%TO.C,C7*%
X169710500Y-88493600D03*
X171665500Y-88493600D03*
%TD*%
D14*
%TO.C,C8*%
X146558000Y-90958500D03*
X146558000Y-92683500D03*
%TD*%
D24*
%TO.C,C10*%
X173977700Y-86766400D03*
X175932700Y-86766400D03*
%TD*%
D17*
%TO.C,C16*%
X155220500Y-102565200D03*
X156945500Y-102565200D03*
%TD*%
D25*
%TO.C,R12*%
X179197000Y-96924500D03*
X179197000Y-95099500D03*
%TD*%
D26*
%TO.C,U5*%
X148078000Y-97155250D03*
X148728001Y-97155250D03*
X149377999Y-97155250D03*
X150028001Y-97155250D03*
X150677999Y-97155250D03*
X151327998Y-97155250D03*
X151977999Y-97155250D03*
X152627998Y-97155250D03*
X153277999Y-97155250D03*
X153927998Y-97155250D03*
X153928000Y-91249750D03*
X153278002Y-91249750D03*
X152628001Y-91249750D03*
X151978002Y-91249750D03*
X151328001Y-91249750D03*
X150678002Y-91249750D03*
X150028001Y-91249750D03*
X149378002Y-91249750D03*
X148728001Y-91249750D03*
X148078002Y-91249750D03*
%TD*%
D14*
%TO.C,C3*%
X138430000Y-82830500D03*
X138430000Y-84555500D03*
%TD*%
D27*
%TO.C,C14*%
X172847000Y-105244500D03*
X172847000Y-103289500D03*
%TD*%
D11*
%TO.C,R7*%
X156995500Y-101092000D03*
X155170500Y-101092000D03*
%TD*%
%TO.C,R5*%
X171473500Y-86741000D03*
X169648500Y-86741000D03*
%TD*%
D10*
%TO.C,R10*%
X134264400Y-86463500D03*
X134264400Y-88288500D03*
%TD*%
D19*
%TO.C,Q2*%
X135382000Y-84709000D03*
X135382000Y-82804000D03*
X133350000Y-83756500D03*
%TD*%
D22*
%TO.C,TP4*%
X144145000Y-101727000D03*
%TD*%
D15*
%TO.C,H3*%
X118250000Y-103886000D03*
X118952944Y-102188944D03*
X118952944Y-105583056D03*
X120650000Y-101486000D03*
D16*
X120650000Y-103886000D03*
D15*
X120650000Y-106286000D03*
X122347056Y-102188944D03*
X122347056Y-105583056D03*
X123050000Y-103886000D03*
%TD*%
D28*
%TO.C,U3*%
X153653000Y-104739000D03*
X153653000Y-104239000D03*
X153653000Y-103739000D03*
X153649203Y-103236221D03*
X153653000Y-102739000D03*
X149703000Y-102739000D03*
X149703000Y-103236221D03*
X149703000Y-103739000D03*
X149703000Y-104239000D03*
X149703000Y-104739000D03*
%TD*%
D22*
%TO.C,TP3*%
X143002000Y-83185000D03*
%TD*%
D11*
%TO.C,R11*%
X135532500Y-105410000D03*
X133707500Y-105410000D03*
%TD*%
D15*
%TO.C,H4*%
X178956000Y-103886000D03*
X179658944Y-102188944D03*
X179658944Y-105583056D03*
X181356000Y-101486000D03*
D16*
X181356000Y-103886000D03*
D15*
X181356000Y-106286000D03*
X183053056Y-102188944D03*
X183053056Y-105583056D03*
X183756000Y-103886000D03*
%TD*%
D29*
%TO.C,C6*%
X147574000Y-105637500D03*
X147574000Y-103912500D03*
%TD*%
D23*
%TO.C,C1*%
X159739500Y-90551000D03*
X158014500Y-90551000D03*
%TD*%
D14*
%TO.C,C5*%
X155194000Y-104090300D03*
X155194000Y-105815300D03*
%TD*%
D13*
%TO.C,R9*%
X165813100Y-83769200D03*
X167638100Y-83769200D03*
%TD*%
D30*
%TO.C,U1*%
X164973000Y-99060000D03*
D31*
X162433000Y-99060000D03*
X159893000Y-99060000D03*
X157353000Y-99060000D03*
X154813000Y-99060000D03*
X152273000Y-99060000D03*
X149733000Y-99060000D03*
X147193000Y-99060000D03*
X144653000Y-99060000D03*
X142113000Y-99060000D03*
X139573000Y-99060000D03*
X137033000Y-99060000D03*
X137033000Y-88900000D03*
X139573000Y-88900000D03*
X142113000Y-88900000D03*
X144653000Y-88900000D03*
X147193000Y-88900000D03*
X149733000Y-88900000D03*
X152273000Y-88900000D03*
X154813000Y-88900000D03*
X157353000Y-88900000D03*
X159893000Y-88900000D03*
X162433000Y-88900000D03*
X164973000Y-88900000D03*
%TD*%
G36*
X181356734Y-80010009D02*
G01*
X181550204Y-80012382D01*
X181560837Y-80012970D01*
X181946614Y-80050966D01*
X181958651Y-80052752D01*
X182338085Y-80128226D01*
X182349889Y-80131182D01*
X182720118Y-80243490D01*
X182731576Y-80247590D01*
X183089007Y-80395642D01*
X183100007Y-80400845D01*
X183441198Y-80583216D01*
X183451636Y-80589472D01*
X183773317Y-80804412D01*
X183783091Y-80811661D01*
X184082154Y-81057096D01*
X184091170Y-81065268D01*
X184364731Y-81338829D01*
X184372903Y-81347845D01*
X184618338Y-81646908D01*
X184625587Y-81656682D01*
X184840527Y-81978363D01*
X184846783Y-81988801D01*
X185029154Y-82329992D01*
X185034357Y-82340992D01*
X185182409Y-82698423D01*
X185186509Y-82709881D01*
X185298817Y-83080110D01*
X185301773Y-83091914D01*
X185377247Y-83471348D01*
X185379033Y-83483385D01*
X185417029Y-83869162D01*
X185417617Y-83879795D01*
X185419991Y-84073266D01*
X185420000Y-84074787D01*
X185420000Y-103885212D01*
X185419991Y-103886733D01*
X185417617Y-104080204D01*
X185417029Y-104090837D01*
X185379033Y-104476614D01*
X185377247Y-104488651D01*
X185301773Y-104868085D01*
X185298817Y-104879889D01*
X185186509Y-105250118D01*
X185182409Y-105261576D01*
X185034357Y-105619007D01*
X185029154Y-105630007D01*
X184846783Y-105971198D01*
X184840527Y-105981636D01*
X184625587Y-106303317D01*
X184618338Y-106313091D01*
X184372903Y-106612154D01*
X184364731Y-106621170D01*
X184091170Y-106894731D01*
X184082154Y-106902903D01*
X183783091Y-107148338D01*
X183773317Y-107155587D01*
X183451636Y-107370527D01*
X183441198Y-107376783D01*
X183100007Y-107559154D01*
X183089007Y-107564357D01*
X182731576Y-107712409D01*
X182720118Y-107716509D01*
X182349889Y-107828817D01*
X182338085Y-107831773D01*
X181958651Y-107907247D01*
X181946614Y-107909033D01*
X181560837Y-107947029D01*
X181550204Y-107947617D01*
X181356734Y-107949991D01*
X181355213Y-107950000D01*
X120650787Y-107950000D01*
X120649266Y-107949991D01*
X120455795Y-107947617D01*
X120445162Y-107947029D01*
X120059385Y-107909033D01*
X120047348Y-107907247D01*
X119667914Y-107831773D01*
X119656110Y-107828817D01*
X119285881Y-107716509D01*
X119274423Y-107712409D01*
X118916992Y-107564357D01*
X118905992Y-107559154D01*
X118564801Y-107376783D01*
X118554363Y-107370527D01*
X118232682Y-107155587D01*
X118222908Y-107148338D01*
X117923845Y-106902903D01*
X117914829Y-106894731D01*
X117641268Y-106621170D01*
X117633096Y-106612154D01*
X117387661Y-106313091D01*
X117380412Y-106303317D01*
X117165472Y-105981636D01*
X117159216Y-105971198D01*
X116976845Y-105630007D01*
X116971642Y-105619007D01*
X116823590Y-105261576D01*
X116819490Y-105250118D01*
X116707182Y-104879889D01*
X116704226Y-104868085D01*
X116628752Y-104488651D01*
X116626966Y-104476614D01*
X116588970Y-104090837D01*
X116588382Y-104080204D01*
X116586009Y-103886733D01*
X116586000Y-103885212D01*
X116586000Y-84074787D01*
X116586009Y-84073266D01*
X116587570Y-83945982D01*
X117881000Y-83945982D01*
X117881000Y-104014016D01*
X117904622Y-104268953D01*
X117951671Y-104520646D01*
X118021737Y-104766897D01*
X118114232Y-105005657D01*
X118228354Y-105234844D01*
X118363144Y-105452539D01*
X118517433Y-105656848D01*
X118517440Y-105656858D01*
X118689929Y-105846069D01*
X118879140Y-106018558D01*
X118879150Y-106018565D01*
X119083459Y-106172854D01*
X119301154Y-106307644D01*
X119530341Y-106421766D01*
X119769101Y-106514261D01*
X120015352Y-106584327D01*
X120267043Y-106631375D01*
X120267044Y-106631376D01*
X120521984Y-106655000D01*
X181484016Y-106655000D01*
X181738954Y-106631376D01*
X181738955Y-106631375D01*
X181990646Y-106584327D01*
X182236897Y-106514261D01*
X182475657Y-106421766D01*
X182704844Y-106307644D01*
X182922539Y-106172854D01*
X183126848Y-106018565D01*
X183126858Y-106018558D01*
X183316069Y-105846069D01*
X183488558Y-105656858D01*
X183488565Y-105656848D01*
X183642854Y-105452539D01*
X183777644Y-105234844D01*
X183891766Y-105005657D01*
X183984261Y-104766897D01*
X184054327Y-104520646D01*
X184101375Y-104268955D01*
X184101376Y-104268954D01*
X184125000Y-104014015D01*
X184125000Y-83945983D01*
X184101376Y-83691044D01*
X184101375Y-83691043D01*
X184054327Y-83439352D01*
X183984261Y-83193101D01*
X183891766Y-82954341D01*
X183777644Y-82725154D01*
X183642854Y-82507459D01*
X183488565Y-82303150D01*
X183488558Y-82303140D01*
X183316069Y-82113929D01*
X183126858Y-81941440D01*
X183126848Y-81941433D01*
X182922539Y-81787144D01*
X182704844Y-81652354D01*
X182475657Y-81538232D01*
X182236897Y-81445737D01*
X181990646Y-81375671D01*
X181738953Y-81328622D01*
X181484016Y-81305000D01*
X120521984Y-81305000D01*
X120267045Y-81328622D01*
X120015352Y-81375671D01*
X119769101Y-81445737D01*
X119530341Y-81538232D01*
X119301154Y-81652354D01*
X119083459Y-81787144D01*
X118879150Y-81941433D01*
X118879140Y-81941440D01*
X118689929Y-82113929D01*
X118517440Y-82303140D01*
X118517433Y-82303150D01*
X118363144Y-82507459D01*
X118228354Y-82725154D01*
X118114232Y-82954341D01*
X118021737Y-83193101D01*
X117951671Y-83439352D01*
X117904622Y-83691045D01*
X117881000Y-83945982D01*
X116587570Y-83945982D01*
X116588382Y-83879795D01*
X116588970Y-83869162D01*
X116626966Y-83483385D01*
X116628752Y-83471348D01*
X116704226Y-83091914D01*
X116707182Y-83080110D01*
X116819490Y-82709881D01*
X116823590Y-82698423D01*
X116971642Y-82340992D01*
X116976845Y-82329992D01*
X117159216Y-81988801D01*
X117165472Y-81978363D01*
X117380412Y-81656682D01*
X117387661Y-81646908D01*
X117633096Y-81347845D01*
X117641268Y-81338829D01*
X117914829Y-81065268D01*
X117923845Y-81057096D01*
X118222908Y-80811661D01*
X118232682Y-80804412D01*
X118554363Y-80589472D01*
X118564801Y-80583216D01*
X118905992Y-80400845D01*
X118916992Y-80395642D01*
X119274423Y-80247590D01*
X119285881Y-80243490D01*
X119656110Y-80131182D01*
X119667914Y-80128226D01*
X120047348Y-80052752D01*
X120059385Y-80050966D01*
X120445162Y-80012970D01*
X120455795Y-80012382D01*
X120649266Y-80010009D01*
X120650787Y-80010000D01*
X181355213Y-80010000D01*
X181356734Y-80010009D01*
G37*
M02*
