%TF.GenerationSoftware,KiCad,Pcbnew,9.0.4*%
%TF.CreationDate,2026-03-21T13:08:43-05:00*%
%TF.ProjectId,CCD_Breakout,4343445f-4272-4656-916b-6f75742e6b69,rev?*%
%TF.SameCoordinates,Original*%
%TF.FileFunction,Soldermask,Bot*%
%TF.FilePolarity,Negative*%
%FSLAX46Y46*%
G04 Gerber Fmt 4.6, Leading zero omitted, Abs format (unit mm)*
G04 Created by KiCad (PCBNEW 9.0.4) date 2026-03-21 13:08:43*
%MOMM*%
%LPD*%
G01*
G04 APERTURE LIST*
G04 Aperture macros list*
%AMRoundRect*
0 Rectangle with rounded corners*
0 $1 Rounding radius*
0 $2 $3 $4 $5 $6 $7 $8 $9 X,Y pos of 4 corners*
0 Add a 4 corners polygon primitive as box body*
4,1,4,$2,$3,$4,$5,$6,$7,$8,$9,$2,$3,0*
0 Add four circle primitives for the rounded corners*
1,1,$1+$1,$2,$3*
1,1,$1+$1,$4,$5*
1,1,$1+$1,$6,$7*
1,1,$1+$1,$8,$9*
0 Add four rect primitives between the rounded corners*
20,1,$1+$1,$2,$3,$4,$5,0*
20,1,$1+$1,$4,$5,$6,$7,0*
20,1,$1+$1,$6,$7,$8,$9,0*
20,1,$1+$1,$8,$9,$2,$3,0*%
G04 Aperture macros list end*
%ADD10C,0.800000*%
%ADD11C,6.400000*%
%ADD12C,1.524000*%
%ADD13RoundRect,0.102000X0.609000X-0.609000X0.609000X0.609000X-0.609000X0.609000X-0.609000X-0.609000X0*%
%ADD14C,1.422000*%
G04 APERTURE END LIST*
D10*
%TO.C,H1*%
X118250000Y-84074000D03*
X118952944Y-82376944D03*
X118952944Y-85771056D03*
X120650000Y-81674000D03*
D11*
X120650000Y-84074000D03*
D10*
X120650000Y-86474000D03*
X122347056Y-82376944D03*
X122347056Y-85771056D03*
X123050000Y-84074000D03*
%TD*%
D12*
%TO.C,Conn1*%
X129794000Y-105410000D03*
X129794000Y-102870000D03*
X129794000Y-100330000D03*
X129794000Y-97790000D03*
X129794000Y-95250000D03*
X129794000Y-92710000D03*
X129794000Y-90170000D03*
X129794000Y-87630000D03*
X129794000Y-85090000D03*
X129794000Y-82550000D03*
%TD*%
D10*
%TO.C,H2*%
X178956000Y-84074000D03*
X179658944Y-82376944D03*
X179658944Y-85771056D03*
X181356000Y-81674000D03*
D11*
X181356000Y-84074000D03*
D10*
X181356000Y-86474000D03*
X183053056Y-82376944D03*
X183053056Y-85771056D03*
X183756000Y-84074000D03*
%TD*%
%TO.C,H3*%
X118250000Y-103886000D03*
X118952944Y-102188944D03*
X118952944Y-105583056D03*
X120650000Y-101486000D03*
D11*
X120650000Y-103886000D03*
D10*
X120650000Y-106286000D03*
X122347056Y-102188944D03*
X122347056Y-105583056D03*
X123050000Y-103886000D03*
%TD*%
%TO.C,H4*%
X178956000Y-103886000D03*
X179658944Y-102188944D03*
X179658944Y-105583056D03*
X181356000Y-101486000D03*
D11*
X181356000Y-103886000D03*
D10*
X181356000Y-106286000D03*
X183053056Y-102188944D03*
X183053056Y-105583056D03*
X183756000Y-103886000D03*
%TD*%
D13*
%TO.C,U1*%
X164973000Y-99060000D03*
D14*
X162433000Y-99060000D03*
X159893000Y-99060000D03*
X157353000Y-99060000D03*
X154813000Y-99060000D03*
X152273000Y-99060000D03*
X149733000Y-99060000D03*
X147193000Y-99060000D03*
X144653000Y-99060000D03*
X142113000Y-99060000D03*
X139573000Y-99060000D03*
X137033000Y-99060000D03*
X137033000Y-88900000D03*
X139573000Y-88900000D03*
X142113000Y-88900000D03*
X144653000Y-88900000D03*
X147193000Y-88900000D03*
X149733000Y-88900000D03*
X152273000Y-88900000D03*
X154813000Y-88900000D03*
X157353000Y-88900000D03*
X159893000Y-88900000D03*
X162433000Y-88900000D03*
X164973000Y-88900000D03*
%TD*%
G36*
X181356734Y-80010009D02*
G01*
X181550204Y-80012382D01*
X181560837Y-80012970D01*
X181946614Y-80050966D01*
X181958651Y-80052752D01*
X182338085Y-80128226D01*
X182349889Y-80131182D01*
X182720118Y-80243490D01*
X182731576Y-80247590D01*
X183089007Y-80395642D01*
X183100007Y-80400845D01*
X183441198Y-80583216D01*
X183451636Y-80589472D01*
X183773317Y-80804412D01*
X183783091Y-80811661D01*
X184082154Y-81057096D01*
X184091170Y-81065268D01*
X184364731Y-81338829D01*
X184372903Y-81347845D01*
X184618338Y-81646908D01*
X184625587Y-81656682D01*
X184840527Y-81978363D01*
X184846783Y-81988801D01*
X185029154Y-82329992D01*
X185034357Y-82340992D01*
X185182409Y-82698423D01*
X185186509Y-82709881D01*
X185298817Y-83080110D01*
X185301773Y-83091914D01*
X185377247Y-83471348D01*
X185379033Y-83483385D01*
X185417029Y-83869162D01*
X185417617Y-83879795D01*
X185419991Y-84073266D01*
X185420000Y-84074787D01*
X185420000Y-103885212D01*
X185419991Y-103886733D01*
X185417617Y-104080204D01*
X185417029Y-104090837D01*
X185379033Y-104476614D01*
X185377247Y-104488651D01*
X185301773Y-104868085D01*
X185298817Y-104879889D01*
X185186509Y-105250118D01*
X185182409Y-105261576D01*
X185034357Y-105619007D01*
X185029154Y-105630007D01*
X184846783Y-105971198D01*
X184840527Y-105981636D01*
X184625587Y-106303317D01*
X184618338Y-106313091D01*
X184372903Y-106612154D01*
X184364731Y-106621170D01*
X184091170Y-106894731D01*
X184082154Y-106902903D01*
X183783091Y-107148338D01*
X183773317Y-107155587D01*
X183451636Y-107370527D01*
X183441198Y-107376783D01*
X183100007Y-107559154D01*
X183089007Y-107564357D01*
X182731576Y-107712409D01*
X182720118Y-107716509D01*
X182349889Y-107828817D01*
X182338085Y-107831773D01*
X181958651Y-107907247D01*
X181946614Y-107909033D01*
X181560837Y-107947029D01*
X181550204Y-107947617D01*
X181356734Y-107949991D01*
X181355213Y-107950000D01*
X120650787Y-107950000D01*
X120649266Y-107949991D01*
X120455795Y-107947617D01*
X120445162Y-107947029D01*
X120059385Y-107909033D01*
X120047348Y-107907247D01*
X119667914Y-107831773D01*
X119656110Y-107828817D01*
X119285881Y-107716509D01*
X119274423Y-107712409D01*
X118916992Y-107564357D01*
X118905992Y-107559154D01*
X118564801Y-107376783D01*
X118554363Y-107370527D01*
X118232682Y-107155587D01*
X118222908Y-107148338D01*
X117923845Y-106902903D01*
X117914829Y-106894731D01*
X117641268Y-106621170D01*
X117633096Y-106612154D01*
X117387661Y-106313091D01*
X117380412Y-106303317D01*
X117165472Y-105981636D01*
X117159216Y-105971198D01*
X116976845Y-105630007D01*
X116971642Y-105619007D01*
X116823590Y-105261576D01*
X116819490Y-105250118D01*
X116707182Y-104879889D01*
X116704226Y-104868085D01*
X116628752Y-104488651D01*
X116626966Y-104476614D01*
X116588970Y-104090837D01*
X116588382Y-104080204D01*
X116586009Y-103886733D01*
X116586000Y-103885212D01*
X116586000Y-84074787D01*
X116586009Y-84073266D01*
X116587570Y-83945982D01*
X117881000Y-83945982D01*
X117881000Y-104014016D01*
X117904622Y-104268953D01*
X117951671Y-104520646D01*
X118021737Y-104766897D01*
X118114232Y-105005657D01*
X118228354Y-105234844D01*
X118363144Y-105452539D01*
X118517433Y-105656848D01*
X118517440Y-105656858D01*
X118689929Y-105846069D01*
X118879140Y-106018558D01*
X118879150Y-106018565D01*
X119083459Y-106172854D01*
X119301154Y-106307644D01*
X119530341Y-106421766D01*
X119769101Y-106514261D01*
X120015352Y-106584327D01*
X120267043Y-106631375D01*
X120267044Y-106631376D01*
X120521984Y-106655000D01*
X181484016Y-106655000D01*
X181738954Y-106631376D01*
X181738955Y-106631375D01*
X181990646Y-106584327D01*
X182236897Y-106514261D01*
X182475657Y-106421766D01*
X182704844Y-106307644D01*
X182922539Y-106172854D01*
X183126848Y-106018565D01*
X183126858Y-106018558D01*
X183316069Y-105846069D01*
X183488558Y-105656858D01*
X183488565Y-105656848D01*
X183642854Y-105452539D01*
X183777644Y-105234844D01*
X183891766Y-105005657D01*
X183984261Y-104766897D01*
X184054327Y-104520646D01*
X184101375Y-104268955D01*
X184101376Y-104268954D01*
X184125000Y-104014015D01*
X184125000Y-83945983D01*
X184101376Y-83691044D01*
X184101375Y-83691043D01*
X184054327Y-83439352D01*
X183984261Y-83193101D01*
X183891766Y-82954341D01*
X183777644Y-82725154D01*
X183642854Y-82507459D01*
X183488565Y-82303150D01*
X183488558Y-82303140D01*
X183316069Y-82113929D01*
X183126858Y-81941440D01*
X183126848Y-81941433D01*
X182922539Y-81787144D01*
X182704844Y-81652354D01*
X182475657Y-81538232D01*
X182236897Y-81445737D01*
X181990646Y-81375671D01*
X181738953Y-81328622D01*
X181484016Y-81305000D01*
X120521984Y-81305000D01*
X120267045Y-81328622D01*
X120015352Y-81375671D01*
X119769101Y-81445737D01*
X119530341Y-81538232D01*
X119301154Y-81652354D01*
X119083459Y-81787144D01*
X118879150Y-81941433D01*
X118879140Y-81941440D01*
X118689929Y-82113929D01*
X118517440Y-82303140D01*
X118517433Y-82303150D01*
X118363144Y-82507459D01*
X118228354Y-82725154D01*
X118114232Y-82954341D01*
X118021737Y-83193101D01*
X117951671Y-83439352D01*
X117904622Y-83691045D01*
X117881000Y-83945982D01*
X116587570Y-83945982D01*
X116588382Y-83879795D01*
X116588970Y-83869162D01*
X116626966Y-83483385D01*
X116628752Y-83471348D01*
X116704226Y-83091914D01*
X116707182Y-83080110D01*
X116819490Y-82709881D01*
X116823590Y-82698423D01*
X116971642Y-82340992D01*
X116976845Y-82329992D01*
X117159216Y-81988801D01*
X117165472Y-81978363D01*
X117380412Y-81656682D01*
X117387661Y-81646908D01*
X117633096Y-81347845D01*
X117641268Y-81338829D01*
X117914829Y-81065268D01*
X117923845Y-81057096D01*
X118222908Y-80811661D01*
X118232682Y-80804412D01*
X118554363Y-80589472D01*
X118564801Y-80583216D01*
X118905992Y-80400845D01*
X118916992Y-80395642D01*
X119274423Y-80247590D01*
X119285881Y-80243490D01*
X119656110Y-80131182D01*
X119667914Y-80128226D01*
X120047348Y-80052752D01*
X120059385Y-80050966D01*
X120445162Y-80012970D01*
X120455795Y-80012382D01*
X120649266Y-80010009D01*
X120650787Y-80010000D01*
X181355213Y-80010000D01*
X181356734Y-80010009D01*
G37*
M02*
