M48
; DRILL file {KiCad 9.0.4} date 2026-03-21T13:08:30-0500
; FORMAT={-:-/ absolute / metric / decimal}
; #@! TF.CreationDate,2026-03-21T13:08:30-05:00
; #@! TF.GenerationSoftware,Kicad,Pcbnew,9.0.4
; #@! TF.FileFunction,MixedPlating,1,2
FMAT,2
METRIC
; #@! TA.AperFunction,Plated,PTH,ViaDrill
T1C0.300
; #@! TA.AperFunction,Plated,PTH,ComponentDrill
T2C0.500
; #@! TA.AperFunction,Plated,PTH,ComponentDrill
T3C0.710
; #@! TA.AperFunction,Plated,PTH,ComponentDrill
T4C0.900
; #@! TA.AperFunction,Plated,PTH,ComponentDrill
T5C2.946
%
G90
G05
T1
X117.348Y-86.36
X117.348Y-91.44
X117.348Y-96.52
X117.348Y-101.6
X120.142Y-93.345
X120.142Y-98.552
X120.269Y-89.662
X120.269Y-94.869
X123.317Y-89.662
X123.317Y-93.345
X123.317Y-94.869
X123.317Y-98.552
X123.444Y-80.518
X123.444Y-107.29
X127.106Y-90.805
X127.635Y-103.251
X127.635Y-104.013
X127.741Y-88.029
X128.274Y-85.725
X128.274Y-101.346
X128.524Y-80.518
X128.524Y-107.29
X128.854Y-83.795
X131.572Y-82.55
X131.572Y-84.684
X131.762Y-102.679
X132.461Y-105.283
X132.842Y-101.041
X133.604Y-80.518
X133.604Y-107.29
X133.731Y-91.059
X133.731Y-96.647
X134.239Y-99.441
X134.315Y-89.357
X134.874Y-103.505
X135.532Y-105.41
X136.194Y-90.474
X137.033Y-101.6
X137.033Y-105.156
X137.795Y-95.885
X137.82Y-103.784
X138.43Y-92.812
X138.43Y-94.285
X138.43Y-96.571
X138.43Y-99.06
X138.684Y-80.518
X138.684Y-107.29
X138.836Y-101.397
X139.649Y-103.784
X139.751Y-82.831
X140.767Y-99.06
X141.072Y-92.862
X141.072Y-94.336
X141.072Y-96.622
X141.427Y-103.784
X142.367Y-94.128
X143.764Y-80.518
X143.764Y-107.29
X143.815Y-103.784
X144.272Y-106.172
X144.78Y-92.683
X144.78Y-94.386
X145.644Y-103.835
X146.507Y-94.386
X146.558Y-92.683
X146.939Y-85.471
X147.066Y-81.788
X147.32Y-96.672
X147.574Y-103.912
X148.59Y-103.268
X148.717Y-93.853
X148.728Y-97.155
X148.844Y-80.518
X148.844Y-92.71
X148.844Y-107.29
X149.976Y-97.155
X150.114Y-81.788
X150.114Y-85.471
X150.622Y-100.584
X150.668Y-95.356
X150.678Y-97.155
X150.678Y-91.25
X150.774Y-104.75
X150.855Y-102.87
X151.079Y-98.654
X151.384Y-101.198
X151.486Y-95.301
X152.171Y-104.242
X152.527Y-102.256
X152.527Y-103.378
X152.603Y-100.787
X152.628Y-91.25
X152.654Y-96.825
X153.035Y-93.726
X153.518Y-98.755
X153.543Y-90.932
X153.67Y-85.471
X153.797Y-81.788
X153.873Y-101.956
X153.924Y-80.518
X153.924Y-107.29
X154.686Y-96.414
X154.889Y-97.536
X155.171Y-101.092
X155.194Y-105.815
X155.22Y-102.565
X155.956Y-90.678
X156.083Y-93.726
X156.21Y-97.536
X156.261Y-95.199
X156.845Y-81.788
X156.845Y-85.471
X156.945Y-102.565
X156.96Y-104.953
X157.48Y-92.329
X157.988Y-97.409
X158.014Y-90.551
X158.345Y-99.973
X158.877Y-103.124
X158.915Y-104.953
X159.004Y-80.518
X159.004Y-91.846
X159.004Y-95.199
X159.004Y-107.29
X159.207Y-100.838
X159.258Y-85.471
X159.385Y-81.788
X159.739Y-90.551
X159.79Y-97.409
X159.893Y-101.854
X161.057Y-104.775
X161.163Y-101.981
X161.239Y-97.18
X161.29Y-98.933
X161.392Y-95.199
X161.493Y-90.627
X161.798Y-105.41
X162.001Y-102.616
X162.052Y-96.414
X162.433Y-81.788
X162.433Y-85.471
X163.195Y-93.599
X163.576Y-98.933
X163.576Y-101.092
X163.627Y-95.148
X163.627Y-96.622
X164.084Y-80.518
X164.084Y-107.29
X164.869Y-90.678
X165.71Y-82.753
X165.735Y-101.917
X166.218Y-95.199
X166.218Y-96.672
X166.243Y-93.599
X166.37Y-99.822
X167.945Y-104.394
X168.021Y-89.281
X168.021Y-91.44
X168.021Y-101.219
X168.046Y-99.771
X168.097Y-98.298
X168.91Y-99.187
X169.012Y-95.148
X169.012Y-96.571
X169.037Y-92.964
X169.164Y-80.518
X169.164Y-107.29
X169.351Y-103.744
X169.351Y-105.044
X169.418Y-102.108
X169.672Y-86.741
X169.71Y-88.392
X170.231Y-98.958
X170.307Y-97.663
X170.942Y-96.266
X170.993Y-84.531
X171.323Y-98.806
X171.474Y-86.741
X171.958Y-92.964
X172.568Y-85.903
X172.593Y-101.854
X172.618Y-100.584
X172.847Y-88.138
X174.117Y-105.283
X174.244Y-80.518
X174.244Y-107.29
X174.498Y-103.226
X174.6Y-94.488
X174.6Y-105.867
X174.879Y-92.329
X174.939Y-96.901
X174.991Y-91.059
X175.006Y-101.752
X175.133Y-89.281
X175.133Y-98.933
X175.641Y-96.901
X175.717Y-105.105
X175.768Y-95.755
X176.149Y-94.869
X176.291Y-91.059
X176.757Y-100.584
X176.784Y-93.472
X176.886Y-105.867
X176.911Y-98.933
X176.911Y-98.933
X177.14Y-86.716
X177.343Y-82.042
X177.591Y-91.059
X178.816Y-89.281
X178.943Y-91.948
X179.197Y-94.996
X179.324Y-80.518
X179.324Y-107.29
X179.959Y-99.187
X180.848Y-92.329
X180.848Y-98.298
X180.975Y-88.646
X180.975Y-94.615
X184.658Y-86.36
X184.658Y-91.44
X184.658Y-96.52
X184.658Y-101.6
T2
X118.25Y-84.074
X118.25Y-103.886
X118.953Y-82.377
X118.953Y-85.771
X118.953Y-102.189
X118.953Y-105.583
X120.65Y-81.674
X120.65Y-86.474
X120.65Y-101.486
X120.65Y-106.286
X122.347Y-82.377
X122.347Y-85.771
X122.347Y-102.189
X122.347Y-105.583
X123.05Y-84.074
X123.05Y-103.886
X178.956Y-84.074
X178.956Y-103.886
X179.659Y-82.377
X179.659Y-85.771
X179.659Y-102.189
X179.659Y-105.583
X181.356Y-81.674
X181.356Y-86.474
X181.356Y-101.486
X181.356Y-106.286
X183.053Y-82.377
X183.053Y-85.771
X183.053Y-102.189
X183.053Y-105.583
X183.756Y-84.074
X183.756Y-103.886
T3
X137.033Y-88.9
X137.033Y-99.06
X139.573Y-88.9
X139.573Y-99.06
X142.113Y-88.9
X142.113Y-99.06
X144.653Y-88.9
X144.653Y-99.06
X147.193Y-88.9
X147.193Y-99.06
X149.733Y-88.9
X149.733Y-99.06
X152.273Y-88.9
X152.273Y-99.06
X154.813Y-88.9
X154.813Y-99.06
X157.353Y-88.9
X157.353Y-99.06
X159.893Y-88.9
X159.893Y-99.06
X162.433Y-88.9
X162.433Y-99.06
X164.973Y-88.9
X164.973Y-99.06
T4
X129.794Y-82.55
X129.794Y-85.09
X129.794Y-87.63
X129.794Y-90.17
X129.794Y-92.71
X129.794Y-95.25
X129.794Y-97.79
X129.794Y-100.33
X129.794Y-102.87
X129.794Y-105.41
T5
X120.65Y-84.074
X120.65Y-103.886
X181.356Y-84.074
X181.356Y-103.886
M30
