M48
; DRILL file {KiCad 7.0.7} date Mon Oct 30 23:08:12 2023
; FORMAT={-:-/ absolute / inch / decimal}
; #@! TF.CreationDate,2023-10-30T23:08:12-05:00
; #@! TF.GenerationSoftware,Kicad,Pcbnew,7.0.7
; #@! TF.FileFunction,Plated,1,2,PTH
FMAT,2
INCH
; #@! TA.AperFunction,Plated,PTH,ViaDrill
T1C0.0157
; #@! TA.AperFunction,Plated,PTH,ComponentDrill
T2C0.0276
; #@! TA.AperFunction,Plated,PTH,ComponentDrill
T3C0.0315
; #@! TA.AperFunction,Plated,PTH,ComponentDrill
T4C0.0350
; #@! TA.AperFunction,Plated,PTH,ComponentDrill
T5C0.0354
; #@! TA.AperFunction,Plated,PTH,ComponentDrill
T6C0.0402
; #@! TA.AperFunction,Plated,PTH,ComponentDrill
T7C0.0630
; #@! TA.AperFunction,Plated,PTH,ComponentDrill
T8C0.0787
; #@! TA.AperFunction,Plated,PTH,ComponentDrill
T9C0.1280
%
G90
G05
T1
X1.89Y-1.8
X1.95Y-1.84
X2.15Y-2.2
X2.1629Y-2.2771
X2.33Y-2.23
X2.33Y-2.53
X2.38Y-1.8
X2.38Y-1.84
X2.68Y-2.4464
X2.9241Y-2.4785
X3.03Y-2.2204
X3.04Y-2.3404
X3.1Y-2.3104
X3.18Y-2.54
X3.2Y-2.48
X3.2366Y-2.443
X3.52Y-2.21
X3.67Y-2.48
T2
X2.5906Y-1.6065
X2.5906Y-1.6852
X2.5906Y-1.7639
X2.6694Y-1.6065
X2.6694Y-1.6852
X2.6694Y-1.7639
T3
X2.08Y-1.51
X2.08Y-2.11
X2.18Y-1.51
X2.18Y-2.11
X2.28Y-1.51
X2.28Y-2.11
X2.38Y-1.51
X2.38Y-2.11
X2.48Y-1.51
X2.48Y-2.11
X2.58Y-1.51
X2.58Y-2.11
X2.68Y-1.51
X2.68Y-2.11
X2.78Y-1.51
X2.78Y-2.11
X2.88Y-1.51
X2.88Y-2.11
X2.98Y-1.51
X2.98Y-2.11
X3.08Y-1.51
X3.08Y-2.11
X3.18Y-1.51
X3.18Y-2.11
X3.28Y-1.51
X3.28Y-2.11
X3.38Y-1.51
X3.38Y-2.11
X3.48Y-1.51
X3.48Y-2.11
X3.58Y-1.51
X3.58Y-2.11
X3.68Y-1.51
X3.68Y-2.11
X3.78Y-1.51
X3.78Y-2.11
X3.88Y-1.51
X3.88Y-2.11
X3.98Y-1.51
X3.98Y-2.11
X4.08Y-1.51
X4.08Y-2.11
X4.18Y-1.51
X4.18Y-2.11
X4.28Y-1.51
X4.28Y-2.11
X4.38Y-1.51
X4.38Y-2.11
T4
X3.83Y-2.285
X3.93Y-2.285
X4.03Y-2.285
T5
X1.568Y-1.845
X1.568Y-1.945
X1.568Y-2.045
X1.568Y-2.145
X1.668Y-1.895
X1.668Y-1.995
X1.668Y-2.095
X1.668Y-2.195
X2.18Y-2.6
X2.18Y-2.6
X2.28Y-2.6
X2.38Y-2.6
X2.48Y-2.6
X2.83Y-2.6
X2.93Y-2.6
X3.03Y-2.6
X3.13Y-2.6
X3.23Y-2.6
T6
X1.118Y-1.771
X1.118Y-2.169
X1.1884Y-1.871
X1.1884Y-2.269
T7
X1.4381Y-1.71
X1.4381Y-2.33
T9
X1.318Y-1.795
X1.318Y-2.245
T8
G00X4.3026Y-2.3963
M15
G01X4.3026Y-2.3137
M16
G05
G00X4.3026Y-2.7063
M15
G01X4.3026Y-2.6237
M16
G05
T0
M30
