M48
; DRILL file {KiCad 9.0.2} date 2026-02-10T20:05:36-0600
; FORMAT={-:-/ absolute / metric / decimal}
; #@! TF.CreationDate,2026-02-10T20:05:36-06:00
; #@! TF.GenerationSoftware,Kicad,Pcbnew,9.0.2
; #@! TF.FileFunction,Plated,1,2,PTH
FMAT,2
METRIC
; #@! TA.AperFunction,Plated,PTH,ComponentDrill
T1C0.710
%
G90
G05
T1
X129.438Y-78.638
X129.438Y-88.798
X131.978Y-78.638
X131.978Y-88.798
X134.518Y-78.638
X134.518Y-88.798
X137.058Y-78.638
X137.058Y-88.798
X139.598Y-78.638
X139.598Y-88.798
X142.138Y-78.638
X142.138Y-88.798
X144.678Y-78.638
X144.678Y-88.798
X147.218Y-78.638
X147.218Y-88.798
X149.758Y-78.638
X149.758Y-88.798
X152.298Y-78.638
X152.298Y-88.798
X154.838Y-78.638
X154.838Y-88.798
X157.378Y-78.638
X157.378Y-88.798
M30
