%TF.GenerationSoftware,KiCad,Pcbnew,9.0.2*%
%TF.CreationDate,2026-02-10T20:05:31-06:00*%
%TF.ProjectId,CCD_Breakout,4343445f-4272-4656-916b-6f75742e6b69,rev?*%
%TF.SameCoordinates,Original*%
%TF.FileFunction,Legend,Top*%
%TF.FilePolarity,Positive*%
%FSLAX46Y46*%
G04 Gerber Fmt 4.6, Leading zero omitted, Abs format (unit mm)*
G04 Created by KiCad (PCBNEW 9.0.2) date 2026-02-10 20:05:31*
%MOMM*%
%LPD*%
G01*
G04 APERTURE LIST*
%ADD10C,0.100000*%
%ADD11C,0.150000*%
%ADD12C,0.120000*%
%ADD13C,0.152400*%
%ADD14C,0.000000*%
G04 APERTURE END LIST*
D10*
X138001000Y-96166000D02*
X154257000Y-96166000D01*
X154257000Y-102716000D01*
X138001000Y-102716000D01*
X138001000Y-96166000D01*
X147066669Y-90755130D02*
X147236003Y-91263130D01*
X147236003Y-91263130D02*
X147405336Y-90755130D01*
X147937527Y-91238940D02*
X148010099Y-91263130D01*
X148010099Y-91263130D02*
X148131051Y-91263130D01*
X148131051Y-91263130D02*
X148179432Y-91238940D01*
X148179432Y-91238940D02*
X148203623Y-91214749D01*
X148203623Y-91214749D02*
X148227813Y-91166368D01*
X148227813Y-91166368D02*
X148227813Y-91117987D01*
X148227813Y-91117987D02*
X148203623Y-91069606D01*
X148203623Y-91069606D02*
X148179432Y-91045416D01*
X148179432Y-91045416D02*
X148131051Y-91021225D01*
X148131051Y-91021225D02*
X148034289Y-90997035D01*
X148034289Y-90997035D02*
X147985908Y-90972844D01*
X147985908Y-90972844D02*
X147961718Y-90948654D01*
X147961718Y-90948654D02*
X147937527Y-90900273D01*
X147937527Y-90900273D02*
X147937527Y-90851892D01*
X147937527Y-90851892D02*
X147961718Y-90803511D01*
X147961718Y-90803511D02*
X147985908Y-90779320D01*
X147985908Y-90779320D02*
X148034289Y-90755130D01*
X148034289Y-90755130D02*
X148155242Y-90755130D01*
X148155242Y-90755130D02*
X148227813Y-90779320D01*
X148445528Y-91263130D02*
X148445528Y-90755130D01*
X148663242Y-91263130D02*
X148663242Y-90997035D01*
X148663242Y-90997035D02*
X148639052Y-90948654D01*
X148639052Y-90948654D02*
X148590671Y-90924463D01*
X148590671Y-90924463D02*
X148518099Y-90924463D01*
X148518099Y-90924463D02*
X148469718Y-90948654D01*
X148469718Y-90948654D02*
X148445528Y-90972844D01*
X148905147Y-91263130D02*
X148905147Y-90924463D01*
X148905147Y-90755130D02*
X148880956Y-90779320D01*
X148880956Y-90779320D02*
X148905147Y-90803511D01*
X148905147Y-90803511D02*
X148929337Y-90779320D01*
X148929337Y-90779320D02*
X148905147Y-90755130D01*
X148905147Y-90755130D02*
X148905147Y-90803511D01*
X149074480Y-90924463D02*
X149268004Y-90924463D01*
X149147052Y-91263130D02*
X149147052Y-90827701D01*
X149147052Y-90827701D02*
X149171242Y-90779320D01*
X149171242Y-90779320D02*
X149219623Y-90755130D01*
X149219623Y-90755130D02*
X149268004Y-90755130D01*
X149364766Y-90924463D02*
X149558290Y-90924463D01*
X149437338Y-90755130D02*
X149437338Y-91190559D01*
X149437338Y-91190559D02*
X149461528Y-91238940D01*
X149461528Y-91238940D02*
X149509909Y-91263130D01*
X149509909Y-91263130D02*
X149558290Y-91263130D01*
X149921148Y-91238940D02*
X149872767Y-91263130D01*
X149872767Y-91263130D02*
X149776005Y-91263130D01*
X149776005Y-91263130D02*
X149727624Y-91238940D01*
X149727624Y-91238940D02*
X149703433Y-91190559D01*
X149703433Y-91190559D02*
X149703433Y-90997035D01*
X149703433Y-90997035D02*
X149727624Y-90948654D01*
X149727624Y-90948654D02*
X149776005Y-90924463D01*
X149776005Y-90924463D02*
X149872767Y-90924463D01*
X149872767Y-90924463D02*
X149921148Y-90948654D01*
X149921148Y-90948654D02*
X149945338Y-90997035D01*
X149945338Y-90997035D02*
X149945338Y-91045416D01*
X149945338Y-91045416D02*
X149703433Y-91093797D01*
X150163053Y-91263130D02*
X150163053Y-90924463D01*
X150163053Y-91021225D02*
X150187243Y-90972844D01*
X150187243Y-90972844D02*
X150211434Y-90948654D01*
X150211434Y-90948654D02*
X150259815Y-90924463D01*
X150259815Y-90924463D02*
X150308196Y-90924463D01*
X113821312Y-90218680D02*
X113773693Y-90266300D01*
X113773693Y-90266300D02*
X113630836Y-90313919D01*
X113630836Y-90313919D02*
X113535598Y-90313919D01*
X113535598Y-90313919D02*
X113392741Y-90266300D01*
X113392741Y-90266300D02*
X113297503Y-90171061D01*
X113297503Y-90171061D02*
X113249884Y-90075823D01*
X113249884Y-90075823D02*
X113202265Y-89885347D01*
X113202265Y-89885347D02*
X113202265Y-89742490D01*
X113202265Y-89742490D02*
X113249884Y-89552014D01*
X113249884Y-89552014D02*
X113297503Y-89456776D01*
X113297503Y-89456776D02*
X113392741Y-89361538D01*
X113392741Y-89361538D02*
X113535598Y-89313919D01*
X113535598Y-89313919D02*
X113630836Y-89313919D01*
X113630836Y-89313919D02*
X113773693Y-89361538D01*
X113773693Y-89361538D02*
X113821312Y-89409157D01*
X114821312Y-90218680D02*
X114773693Y-90266300D01*
X114773693Y-90266300D02*
X114630836Y-90313919D01*
X114630836Y-90313919D02*
X114535598Y-90313919D01*
X114535598Y-90313919D02*
X114392741Y-90266300D01*
X114392741Y-90266300D02*
X114297503Y-90171061D01*
X114297503Y-90171061D02*
X114249884Y-90075823D01*
X114249884Y-90075823D02*
X114202265Y-89885347D01*
X114202265Y-89885347D02*
X114202265Y-89742490D01*
X114202265Y-89742490D02*
X114249884Y-89552014D01*
X114249884Y-89552014D02*
X114297503Y-89456776D01*
X114297503Y-89456776D02*
X114392741Y-89361538D01*
X114392741Y-89361538D02*
X114535598Y-89313919D01*
X114535598Y-89313919D02*
X114630836Y-89313919D01*
X114630836Y-89313919D02*
X114773693Y-89361538D01*
X114773693Y-89361538D02*
X114821312Y-89409157D01*
X115249884Y-90313919D02*
X115249884Y-89313919D01*
X115249884Y-89313919D02*
X115487979Y-89313919D01*
X115487979Y-89313919D02*
X115630836Y-89361538D01*
X115630836Y-89361538D02*
X115726074Y-89456776D01*
X115726074Y-89456776D02*
X115773693Y-89552014D01*
X115773693Y-89552014D02*
X115821312Y-89742490D01*
X115821312Y-89742490D02*
X115821312Y-89885347D01*
X115821312Y-89885347D02*
X115773693Y-90075823D01*
X115773693Y-90075823D02*
X115726074Y-90171061D01*
X115726074Y-90171061D02*
X115630836Y-90266300D01*
X115630836Y-90266300D02*
X115487979Y-90313919D01*
X115487979Y-90313919D02*
X115249884Y-90313919D01*
X120507504Y-101723130D02*
X120604266Y-101723130D01*
X120604266Y-101723130D02*
X120652647Y-101747320D01*
X120652647Y-101747320D02*
X120701028Y-101795701D01*
X120701028Y-101795701D02*
X120725218Y-101892463D01*
X120725218Y-101892463D02*
X120725218Y-102061797D01*
X120725218Y-102061797D02*
X120701028Y-102158559D01*
X120701028Y-102158559D02*
X120652647Y-102206940D01*
X120652647Y-102206940D02*
X120604266Y-102231130D01*
X120604266Y-102231130D02*
X120507504Y-102231130D01*
X120507504Y-102231130D02*
X120459123Y-102206940D01*
X120459123Y-102206940D02*
X120410742Y-102158559D01*
X120410742Y-102158559D02*
X120386551Y-102061797D01*
X120386551Y-102061797D02*
X120386551Y-101892463D01*
X120386551Y-101892463D02*
X120410742Y-101795701D01*
X120410742Y-101795701D02*
X120459123Y-101747320D01*
X120459123Y-101747320D02*
X120507504Y-101723130D01*
X121160646Y-102206940D02*
X121112265Y-102231130D01*
X121112265Y-102231130D02*
X121015503Y-102231130D01*
X121015503Y-102231130D02*
X120967122Y-102206940D01*
X120967122Y-102206940D02*
X120942932Y-102182749D01*
X120942932Y-102182749D02*
X120918741Y-102134368D01*
X120918741Y-102134368D02*
X120918741Y-101989225D01*
X120918741Y-101989225D02*
X120942932Y-101940844D01*
X120942932Y-101940844D02*
X120967122Y-101916654D01*
X120967122Y-101916654D02*
X121015503Y-101892463D01*
X121015503Y-101892463D02*
X121112265Y-101892463D01*
X121112265Y-101892463D02*
X121160646Y-101916654D01*
X121305789Y-101892463D02*
X121499313Y-101892463D01*
X121378361Y-101723130D02*
X121378361Y-102158559D01*
X121378361Y-102158559D02*
X121402551Y-102206940D01*
X121402551Y-102206940D02*
X121450932Y-102231130D01*
X121450932Y-102231130D02*
X121499313Y-102231130D01*
X121886361Y-102231130D02*
X121886361Y-101965035D01*
X121886361Y-101965035D02*
X121862171Y-101916654D01*
X121862171Y-101916654D02*
X121813790Y-101892463D01*
X121813790Y-101892463D02*
X121717028Y-101892463D01*
X121717028Y-101892463D02*
X121668647Y-101916654D01*
X121886361Y-102206940D02*
X121837980Y-102231130D01*
X121837980Y-102231130D02*
X121717028Y-102231130D01*
X121717028Y-102231130D02*
X121668647Y-102206940D01*
X121668647Y-102206940D02*
X121644456Y-102158559D01*
X121644456Y-102158559D02*
X121644456Y-102110178D01*
X121644456Y-102110178D02*
X121668647Y-102061797D01*
X121668647Y-102061797D02*
X121717028Y-102037606D01*
X121717028Y-102037606D02*
X121837980Y-102037606D01*
X121837980Y-102037606D02*
X121886361Y-102013416D01*
X122200837Y-102231130D02*
X122152456Y-102206940D01*
X122152456Y-102206940D02*
X122128266Y-102158559D01*
X122128266Y-102158559D02*
X122128266Y-101723130D01*
X122950742Y-101965035D02*
X123023314Y-101989225D01*
X123023314Y-101989225D02*
X123047504Y-102013416D01*
X123047504Y-102013416D02*
X123071695Y-102061797D01*
X123071695Y-102061797D02*
X123071695Y-102134368D01*
X123071695Y-102134368D02*
X123047504Y-102182749D01*
X123047504Y-102182749D02*
X123023314Y-102206940D01*
X123023314Y-102206940D02*
X122974933Y-102231130D01*
X122974933Y-102231130D02*
X122781409Y-102231130D01*
X122781409Y-102231130D02*
X122781409Y-101723130D01*
X122781409Y-101723130D02*
X122950742Y-101723130D01*
X122950742Y-101723130D02*
X122999123Y-101747320D01*
X122999123Y-101747320D02*
X123023314Y-101771511D01*
X123023314Y-101771511D02*
X123047504Y-101819892D01*
X123047504Y-101819892D02*
X123047504Y-101868273D01*
X123047504Y-101868273D02*
X123023314Y-101916654D01*
X123023314Y-101916654D02*
X122999123Y-101940844D01*
X122999123Y-101940844D02*
X122950742Y-101965035D01*
X122950742Y-101965035D02*
X122781409Y-101965035D01*
X123507123Y-101892463D02*
X123507123Y-102231130D01*
X123289409Y-101892463D02*
X123289409Y-102158559D01*
X123289409Y-102158559D02*
X123313599Y-102206940D01*
X123313599Y-102206940D02*
X123361980Y-102231130D01*
X123361980Y-102231130D02*
X123434552Y-102231130D01*
X123434552Y-102231130D02*
X123482933Y-102206940D01*
X123482933Y-102206940D02*
X123507123Y-102182749D01*
X123676456Y-101892463D02*
X123869980Y-101892463D01*
X123749028Y-102231130D02*
X123749028Y-101795701D01*
X123749028Y-101795701D02*
X123773218Y-101747320D01*
X123773218Y-101747320D02*
X123821599Y-101723130D01*
X123821599Y-101723130D02*
X123869980Y-101723130D01*
X123966742Y-101892463D02*
X124160266Y-101892463D01*
X124039314Y-102231130D02*
X124039314Y-101795701D01*
X124039314Y-101795701D02*
X124063504Y-101747320D01*
X124063504Y-101747320D02*
X124111885Y-101723130D01*
X124111885Y-101723130D02*
X124160266Y-101723130D01*
X124523124Y-102206940D02*
X124474743Y-102231130D01*
X124474743Y-102231130D02*
X124377981Y-102231130D01*
X124377981Y-102231130D02*
X124329600Y-102206940D01*
X124329600Y-102206940D02*
X124305409Y-102158559D01*
X124305409Y-102158559D02*
X124305409Y-101965035D01*
X124305409Y-101965035D02*
X124329600Y-101916654D01*
X124329600Y-101916654D02*
X124377981Y-101892463D01*
X124377981Y-101892463D02*
X124474743Y-101892463D01*
X124474743Y-101892463D02*
X124523124Y-101916654D01*
X124523124Y-101916654D02*
X124547314Y-101965035D01*
X124547314Y-101965035D02*
X124547314Y-102013416D01*
X124547314Y-102013416D02*
X124305409Y-102061797D01*
X124765029Y-102231130D02*
X124765029Y-101892463D01*
X124765029Y-101989225D02*
X124789219Y-101940844D01*
X124789219Y-101940844D02*
X124813410Y-101916654D01*
X124813410Y-101916654D02*
X124861791Y-101892463D01*
X124861791Y-101892463D02*
X124910172Y-101892463D01*
X110249884Y-93903919D02*
X110249884Y-93237252D01*
X110249884Y-93427728D02*
X110297503Y-93332490D01*
X110297503Y-93332490D02*
X110345122Y-93284871D01*
X110345122Y-93284871D02*
X110440360Y-93237252D01*
X110440360Y-93237252D02*
X110535598Y-93237252D01*
X110868932Y-93808680D02*
X110916551Y-93856300D01*
X110916551Y-93856300D02*
X110868932Y-93903919D01*
X110868932Y-93903919D02*
X110821313Y-93856300D01*
X110821313Y-93856300D02*
X110868932Y-93808680D01*
X110868932Y-93808680D02*
X110868932Y-93903919D01*
X110868932Y-93284871D02*
X110916551Y-93332490D01*
X110916551Y-93332490D02*
X110868932Y-93380109D01*
X110868932Y-93380109D02*
X110821313Y-93332490D01*
X110821313Y-93332490D02*
X110868932Y-93284871D01*
X110868932Y-93284871D02*
X110868932Y-93380109D01*
X112583217Y-92903919D02*
X112107027Y-92903919D01*
X112107027Y-92903919D02*
X112059408Y-93380109D01*
X112059408Y-93380109D02*
X112107027Y-93332490D01*
X112107027Y-93332490D02*
X112202265Y-93284871D01*
X112202265Y-93284871D02*
X112440360Y-93284871D01*
X112440360Y-93284871D02*
X112535598Y-93332490D01*
X112535598Y-93332490D02*
X112583217Y-93380109D01*
X112583217Y-93380109D02*
X112630836Y-93475347D01*
X112630836Y-93475347D02*
X112630836Y-93713442D01*
X112630836Y-93713442D02*
X112583217Y-93808680D01*
X112583217Y-93808680D02*
X112535598Y-93856300D01*
X112535598Y-93856300D02*
X112440360Y-93903919D01*
X112440360Y-93903919D02*
X112202265Y-93903919D01*
X112202265Y-93903919D02*
X112107027Y-93856300D01*
X112107027Y-93856300D02*
X112059408Y-93808680D01*
X113249884Y-92903919D02*
X113345122Y-92903919D01*
X113345122Y-92903919D02*
X113440360Y-92951538D01*
X113440360Y-92951538D02*
X113487979Y-92999157D01*
X113487979Y-92999157D02*
X113535598Y-93094395D01*
X113535598Y-93094395D02*
X113583217Y-93284871D01*
X113583217Y-93284871D02*
X113583217Y-93522966D01*
X113583217Y-93522966D02*
X113535598Y-93713442D01*
X113535598Y-93713442D02*
X113487979Y-93808680D01*
X113487979Y-93808680D02*
X113440360Y-93856300D01*
X113440360Y-93856300D02*
X113345122Y-93903919D01*
X113345122Y-93903919D02*
X113249884Y-93903919D01*
X113249884Y-93903919D02*
X113154646Y-93856300D01*
X113154646Y-93856300D02*
X113107027Y-93808680D01*
X113107027Y-93808680D02*
X113059408Y-93713442D01*
X113059408Y-93713442D02*
X113011789Y-93522966D01*
X113011789Y-93522966D02*
X113011789Y-93284871D01*
X113011789Y-93284871D02*
X113059408Y-93094395D01*
X113059408Y-93094395D02*
X113107027Y-92999157D01*
X113107027Y-92999157D02*
X113154646Y-92951538D01*
X113154646Y-92951538D02*
X113249884Y-92903919D01*
X114202265Y-92903919D02*
X114297503Y-92903919D01*
X114297503Y-92903919D02*
X114392741Y-92951538D01*
X114392741Y-92951538D02*
X114440360Y-92999157D01*
X114440360Y-92999157D02*
X114487979Y-93094395D01*
X114487979Y-93094395D02*
X114535598Y-93284871D01*
X114535598Y-93284871D02*
X114535598Y-93522966D01*
X114535598Y-93522966D02*
X114487979Y-93713442D01*
X114487979Y-93713442D02*
X114440360Y-93808680D01*
X114440360Y-93808680D02*
X114392741Y-93856300D01*
X114392741Y-93856300D02*
X114297503Y-93903919D01*
X114297503Y-93903919D02*
X114202265Y-93903919D01*
X114202265Y-93903919D02*
X114107027Y-93856300D01*
X114107027Y-93856300D02*
X114059408Y-93808680D01*
X114059408Y-93808680D02*
X114011789Y-93713442D01*
X114011789Y-93713442D02*
X113964170Y-93522966D01*
X113964170Y-93522966D02*
X113964170Y-93284871D01*
X113964170Y-93284871D02*
X114011789Y-93094395D01*
X114011789Y-93094395D02*
X114059408Y-92999157D01*
X114059408Y-92999157D02*
X114107027Y-92951538D01*
X114107027Y-92951538D02*
X114202265Y-92903919D01*
X114759169Y-93950546D02*
X114759169Y-93537879D01*
X114759169Y-93596831D02*
X114788646Y-93567355D01*
X114788646Y-93567355D02*
X114847598Y-93537879D01*
X114847598Y-93537879D02*
X114936027Y-93537879D01*
X114936027Y-93537879D02*
X114994979Y-93567355D01*
X114994979Y-93567355D02*
X115024455Y-93626308D01*
X115024455Y-93626308D02*
X115024455Y-93950546D01*
X115024455Y-93626308D02*
X115053931Y-93567355D01*
X115053931Y-93567355D02*
X115112884Y-93537879D01*
X115112884Y-93537879D02*
X115201312Y-93537879D01*
X115201312Y-93537879D02*
X115260265Y-93567355D01*
X115260265Y-93567355D02*
X115289741Y-93626308D01*
X115289741Y-93626308D02*
X115289741Y-93950546D01*
X115584502Y-93950546D02*
X115584502Y-93537879D01*
X115584502Y-93331546D02*
X115555026Y-93361022D01*
X115555026Y-93361022D02*
X115584502Y-93390498D01*
X115584502Y-93390498D02*
X115613979Y-93361022D01*
X115613979Y-93361022D02*
X115584502Y-93331546D01*
X115584502Y-93331546D02*
X115584502Y-93390498D01*
X115967693Y-93950546D02*
X115908741Y-93921070D01*
X115908741Y-93921070D02*
X115879264Y-93862117D01*
X115879264Y-93862117D02*
X115879264Y-93331546D01*
X116174026Y-93921070D02*
X116232979Y-93950546D01*
X116232979Y-93950546D02*
X116350883Y-93950546D01*
X116350883Y-93950546D02*
X116409836Y-93921070D01*
X116409836Y-93921070D02*
X116439312Y-93862117D01*
X116439312Y-93862117D02*
X116439312Y-93832641D01*
X116439312Y-93832641D02*
X116409836Y-93773689D01*
X116409836Y-93773689D02*
X116350883Y-93744212D01*
X116350883Y-93744212D02*
X116262455Y-93744212D01*
X116262455Y-93744212D02*
X116203502Y-93714736D01*
X116203502Y-93714736D02*
X116174026Y-93655784D01*
X116174026Y-93655784D02*
X116174026Y-93626308D01*
X116174026Y-93626308D02*
X116203502Y-93567355D01*
X116203502Y-93567355D02*
X116262455Y-93537879D01*
X116262455Y-93537879D02*
X116350883Y-93537879D01*
X116350883Y-93537879D02*
X116409836Y-93567355D01*
X111602265Y-91299157D02*
X111649884Y-91251538D01*
X111649884Y-91251538D02*
X111745122Y-91203919D01*
X111745122Y-91203919D02*
X111983217Y-91203919D01*
X111983217Y-91203919D02*
X112078455Y-91251538D01*
X112078455Y-91251538D02*
X112126074Y-91299157D01*
X112126074Y-91299157D02*
X112173693Y-91394395D01*
X112173693Y-91394395D02*
X112173693Y-91489633D01*
X112173693Y-91489633D02*
X112126074Y-91632490D01*
X112126074Y-91632490D02*
X111554646Y-92203919D01*
X111554646Y-92203919D02*
X112173693Y-92203919D01*
X112507027Y-91203919D02*
X113173693Y-91203919D01*
X113173693Y-91203919D02*
X112745122Y-92203919D01*
X114078455Y-92203919D02*
X113507027Y-92203919D01*
X113792741Y-92203919D02*
X113792741Y-91203919D01*
X113792741Y-91203919D02*
X113697503Y-91346776D01*
X113697503Y-91346776D02*
X113602265Y-91442014D01*
X113602265Y-91442014D02*
X113507027Y-91489633D01*
X114697503Y-91203919D02*
X114792741Y-91203919D01*
X114792741Y-91203919D02*
X114887979Y-91251538D01*
X114887979Y-91251538D02*
X114935598Y-91299157D01*
X114935598Y-91299157D02*
X114983217Y-91394395D01*
X114983217Y-91394395D02*
X115030836Y-91584871D01*
X115030836Y-91584871D02*
X115030836Y-91822966D01*
X115030836Y-91822966D02*
X114983217Y-92013442D01*
X114983217Y-92013442D02*
X114935598Y-92108680D01*
X114935598Y-92108680D02*
X114887979Y-92156300D01*
X114887979Y-92156300D02*
X114792741Y-92203919D01*
X114792741Y-92203919D02*
X114697503Y-92203919D01*
X114697503Y-92203919D02*
X114602265Y-92156300D01*
X114602265Y-92156300D02*
X114554646Y-92108680D01*
X114554646Y-92108680D02*
X114507027Y-92013442D01*
X114507027Y-92013442D02*
X114459408Y-91822966D01*
X114459408Y-91822966D02*
X114459408Y-91584871D01*
X114459408Y-91584871D02*
X114507027Y-91394395D01*
X114507027Y-91394395D02*
X114554646Y-91299157D01*
X114554646Y-91299157D02*
X114602265Y-91251538D01*
X114602265Y-91251538D02*
X114697503Y-91203919D01*
X138253550Y-96797987D02*
X138495455Y-96797987D01*
X138205169Y-96943130D02*
X138374503Y-96435130D01*
X138374503Y-96435130D02*
X138543836Y-96943130D01*
X138713170Y-96943130D02*
X138713170Y-96435130D01*
X138713170Y-96435130D02*
X138834122Y-96435130D01*
X138834122Y-96435130D02*
X138906694Y-96459320D01*
X138906694Y-96459320D02*
X138955075Y-96507701D01*
X138955075Y-96507701D02*
X138979265Y-96556082D01*
X138979265Y-96556082D02*
X139003456Y-96652844D01*
X139003456Y-96652844D02*
X139003456Y-96725416D01*
X139003456Y-96725416D02*
X138979265Y-96822178D01*
X138979265Y-96822178D02*
X138955075Y-96870559D01*
X138955075Y-96870559D02*
X138906694Y-96918940D01*
X138906694Y-96918940D02*
X138834122Y-96943130D01*
X138834122Y-96943130D02*
X138713170Y-96943130D01*
X139511456Y-96894749D02*
X139487265Y-96918940D01*
X139487265Y-96918940D02*
X139414694Y-96943130D01*
X139414694Y-96943130D02*
X139366313Y-96943130D01*
X139366313Y-96943130D02*
X139293741Y-96918940D01*
X139293741Y-96918940D02*
X139245360Y-96870559D01*
X139245360Y-96870559D02*
X139221170Y-96822178D01*
X139221170Y-96822178D02*
X139196979Y-96725416D01*
X139196979Y-96725416D02*
X139196979Y-96652844D01*
X139196979Y-96652844D02*
X139221170Y-96556082D01*
X139221170Y-96556082D02*
X139245360Y-96507701D01*
X139245360Y-96507701D02*
X139293741Y-96459320D01*
X139293741Y-96459320D02*
X139366313Y-96435130D01*
X139366313Y-96435130D02*
X139414694Y-96435130D01*
X139414694Y-96435130D02*
X139487265Y-96459320D01*
X139487265Y-96459320D02*
X139511456Y-96483511D01*
D11*
X124144305Y-107023619D02*
X124715733Y-107023619D01*
X124430019Y-108023619D02*
X124430019Y-107023619D01*
X125049067Y-108023619D02*
X125049067Y-107023619D01*
X125049067Y-107023619D02*
X125430019Y-107023619D01*
X125430019Y-107023619D02*
X125525257Y-107071238D01*
X125525257Y-107071238D02*
X125572876Y-107118857D01*
X125572876Y-107118857D02*
X125620495Y-107214095D01*
X125620495Y-107214095D02*
X125620495Y-107356952D01*
X125620495Y-107356952D02*
X125572876Y-107452190D01*
X125572876Y-107452190D02*
X125525257Y-107499809D01*
X125525257Y-107499809D02*
X125430019Y-107547428D01*
X125430019Y-107547428D02*
X125049067Y-107547428D01*
X126572876Y-108023619D02*
X126001448Y-108023619D01*
X126287162Y-108023619D02*
X126287162Y-107023619D01*
X126287162Y-107023619D02*
X126191924Y-107166476D01*
X126191924Y-107166476D02*
X126096686Y-107261714D01*
X126096686Y-107261714D02*
X126001448Y-107309333D01*
X127525257Y-108023619D02*
X126953829Y-108023619D01*
X127239543Y-108023619D02*
X127239543Y-107023619D01*
X127239543Y-107023619D02*
X127144305Y-107166476D01*
X127144305Y-107166476D02*
X127049067Y-107261714D01*
X127049067Y-107261714D02*
X126953829Y-107309333D01*
X169745819Y-94527666D02*
X169269628Y-94860999D01*
X169745819Y-95099094D02*
X168745819Y-95099094D01*
X168745819Y-95099094D02*
X168745819Y-94718142D01*
X168745819Y-94718142D02*
X168793438Y-94622904D01*
X168793438Y-94622904D02*
X168841057Y-94575285D01*
X168841057Y-94575285D02*
X168936295Y-94527666D01*
X168936295Y-94527666D02*
X169079152Y-94527666D01*
X169079152Y-94527666D02*
X169174390Y-94575285D01*
X169174390Y-94575285D02*
X169222009Y-94622904D01*
X169222009Y-94622904D02*
X169269628Y-94718142D01*
X169269628Y-94718142D02*
X169269628Y-95099094D01*
X169174390Y-93956237D02*
X169126771Y-94051475D01*
X169126771Y-94051475D02*
X169079152Y-94099094D01*
X169079152Y-94099094D02*
X168983914Y-94146713D01*
X168983914Y-94146713D02*
X168936295Y-94146713D01*
X168936295Y-94146713D02*
X168841057Y-94099094D01*
X168841057Y-94099094D02*
X168793438Y-94051475D01*
X168793438Y-94051475D02*
X168745819Y-93956237D01*
X168745819Y-93956237D02*
X168745819Y-93765761D01*
X168745819Y-93765761D02*
X168793438Y-93670523D01*
X168793438Y-93670523D02*
X168841057Y-93622904D01*
X168841057Y-93622904D02*
X168936295Y-93575285D01*
X168936295Y-93575285D02*
X168983914Y-93575285D01*
X168983914Y-93575285D02*
X169079152Y-93622904D01*
X169079152Y-93622904D02*
X169126771Y-93670523D01*
X169126771Y-93670523D02*
X169174390Y-93765761D01*
X169174390Y-93765761D02*
X169174390Y-93956237D01*
X169174390Y-93956237D02*
X169222009Y-94051475D01*
X169222009Y-94051475D02*
X169269628Y-94099094D01*
X169269628Y-94099094D02*
X169364866Y-94146713D01*
X169364866Y-94146713D02*
X169555342Y-94146713D01*
X169555342Y-94146713D02*
X169650580Y-94099094D01*
X169650580Y-94099094D02*
X169698200Y-94051475D01*
X169698200Y-94051475D02*
X169745819Y-93956237D01*
X169745819Y-93956237D02*
X169745819Y-93765761D01*
X169745819Y-93765761D02*
X169698200Y-93670523D01*
X169698200Y-93670523D02*
X169650580Y-93622904D01*
X169650580Y-93622904D02*
X169555342Y-93575285D01*
X169555342Y-93575285D02*
X169364866Y-93575285D01*
X169364866Y-93575285D02*
X169269628Y-93622904D01*
X169269628Y-93622904D02*
X169222009Y-93670523D01*
X169222009Y-93670523D02*
X169174390Y-93765761D01*
X135787933Y-98862319D02*
X135454600Y-98386128D01*
X135216505Y-98862319D02*
X135216505Y-97862319D01*
X135216505Y-97862319D02*
X135597457Y-97862319D01*
X135597457Y-97862319D02*
X135692695Y-97909938D01*
X135692695Y-97909938D02*
X135740314Y-97957557D01*
X135740314Y-97957557D02*
X135787933Y-98052795D01*
X135787933Y-98052795D02*
X135787933Y-98195652D01*
X135787933Y-98195652D02*
X135740314Y-98290890D01*
X135740314Y-98290890D02*
X135692695Y-98338509D01*
X135692695Y-98338509D02*
X135597457Y-98386128D01*
X135597457Y-98386128D02*
X135216505Y-98386128D01*
X136645076Y-98195652D02*
X136645076Y-98862319D01*
X136406981Y-97814700D02*
X136168886Y-98528985D01*
X136168886Y-98528985D02*
X136787933Y-98528985D01*
X164539180Y-98061595D02*
X163729657Y-98061595D01*
X163729657Y-98061595D02*
X163634419Y-98109214D01*
X163634419Y-98109214D02*
X163586800Y-98156833D01*
X163586800Y-98156833D02*
X163539180Y-98252071D01*
X163539180Y-98252071D02*
X163539180Y-98442547D01*
X163539180Y-98442547D02*
X163586800Y-98537785D01*
X163586800Y-98537785D02*
X163634419Y-98585404D01*
X163634419Y-98585404D02*
X163729657Y-98633023D01*
X163729657Y-98633023D02*
X164539180Y-98633023D01*
X164110609Y-99252071D02*
X164158228Y-99156833D01*
X164158228Y-99156833D02*
X164205847Y-99109214D01*
X164205847Y-99109214D02*
X164301085Y-99061595D01*
X164301085Y-99061595D02*
X164348704Y-99061595D01*
X164348704Y-99061595D02*
X164443942Y-99109214D01*
X164443942Y-99109214D02*
X164491561Y-99156833D01*
X164491561Y-99156833D02*
X164539180Y-99252071D01*
X164539180Y-99252071D02*
X164539180Y-99442547D01*
X164539180Y-99442547D02*
X164491561Y-99537785D01*
X164491561Y-99537785D02*
X164443942Y-99585404D01*
X164443942Y-99585404D02*
X164348704Y-99633023D01*
X164348704Y-99633023D02*
X164301085Y-99633023D01*
X164301085Y-99633023D02*
X164205847Y-99585404D01*
X164205847Y-99585404D02*
X164158228Y-99537785D01*
X164158228Y-99537785D02*
X164110609Y-99442547D01*
X164110609Y-99442547D02*
X164110609Y-99252071D01*
X164110609Y-99252071D02*
X164062990Y-99156833D01*
X164062990Y-99156833D02*
X164015371Y-99109214D01*
X164015371Y-99109214D02*
X163920133Y-99061595D01*
X163920133Y-99061595D02*
X163729657Y-99061595D01*
X163729657Y-99061595D02*
X163634419Y-99109214D01*
X163634419Y-99109214D02*
X163586800Y-99156833D01*
X163586800Y-99156833D02*
X163539180Y-99252071D01*
X163539180Y-99252071D02*
X163539180Y-99442547D01*
X163539180Y-99442547D02*
X163586800Y-99537785D01*
X163586800Y-99537785D02*
X163634419Y-99585404D01*
X163634419Y-99585404D02*
X163729657Y-99633023D01*
X163729657Y-99633023D02*
X163920133Y-99633023D01*
X163920133Y-99633023D02*
X164015371Y-99585404D01*
X164015371Y-99585404D02*
X164062990Y-99537785D01*
X164062990Y-99537785D02*
X164110609Y-99442547D01*
X165951819Y-94487999D02*
X166189914Y-94487999D01*
X166094676Y-94726094D02*
X166189914Y-94487999D01*
X166189914Y-94487999D02*
X166094676Y-94249904D01*
X166380390Y-94630856D02*
X166189914Y-94487999D01*
X166189914Y-94487999D02*
X166380390Y-94345142D01*
X166407180Y-94488000D02*
X166169085Y-94488000D01*
X166264323Y-94249905D02*
X166169085Y-94488000D01*
X166169085Y-94488000D02*
X166264323Y-94726095D01*
X165978609Y-94345143D02*
X166169085Y-94488000D01*
X166169085Y-94488000D02*
X165978609Y-94630857D01*
X124901581Y-103481166D02*
X124949201Y-103528785D01*
X124949201Y-103528785D02*
X124996820Y-103671642D01*
X124996820Y-103671642D02*
X124996820Y-103766880D01*
X124996820Y-103766880D02*
X124949201Y-103909737D01*
X124949201Y-103909737D02*
X124853962Y-104004975D01*
X124853962Y-104004975D02*
X124758724Y-104052594D01*
X124758724Y-104052594D02*
X124568248Y-104100213D01*
X124568248Y-104100213D02*
X124425391Y-104100213D01*
X124425391Y-104100213D02*
X124234915Y-104052594D01*
X124234915Y-104052594D02*
X124139677Y-104004975D01*
X124139677Y-104004975D02*
X124044439Y-103909737D01*
X124044439Y-103909737D02*
X123996820Y-103766880D01*
X123996820Y-103766880D02*
X123996820Y-103671642D01*
X123996820Y-103671642D02*
X124044439Y-103528785D01*
X124044439Y-103528785D02*
X124092058Y-103481166D01*
X124996820Y-103004975D02*
X124996820Y-102814499D01*
X124996820Y-102814499D02*
X124949201Y-102719261D01*
X124949201Y-102719261D02*
X124901581Y-102671642D01*
X124901581Y-102671642D02*
X124758724Y-102576404D01*
X124758724Y-102576404D02*
X124568248Y-102528785D01*
X124568248Y-102528785D02*
X124187296Y-102528785D01*
X124187296Y-102528785D02*
X124092058Y-102576404D01*
X124092058Y-102576404D02*
X124044439Y-102624023D01*
X124044439Y-102624023D02*
X123996820Y-102719261D01*
X123996820Y-102719261D02*
X123996820Y-102909737D01*
X123996820Y-102909737D02*
X124044439Y-103004975D01*
X124044439Y-103004975D02*
X124092058Y-103052594D01*
X124092058Y-103052594D02*
X124187296Y-103100213D01*
X124187296Y-103100213D02*
X124425391Y-103100213D01*
X124425391Y-103100213D02*
X124520629Y-103052594D01*
X124520629Y-103052594D02*
X124568248Y-103004975D01*
X124568248Y-103004975D02*
X124615867Y-102909737D01*
X124615867Y-102909737D02*
X124615867Y-102719261D01*
X124615867Y-102719261D02*
X124568248Y-102624023D01*
X124568248Y-102624023D02*
X124520629Y-102576404D01*
X124520629Y-102576404D02*
X124425391Y-102528785D01*
X156297333Y-92039619D02*
X155964000Y-91563428D01*
X155725905Y-92039619D02*
X155725905Y-91039619D01*
X155725905Y-91039619D02*
X156106857Y-91039619D01*
X156106857Y-91039619D02*
X156202095Y-91087238D01*
X156202095Y-91087238D02*
X156249714Y-91134857D01*
X156249714Y-91134857D02*
X156297333Y-91230095D01*
X156297333Y-91230095D02*
X156297333Y-91372952D01*
X156297333Y-91372952D02*
X156249714Y-91468190D01*
X156249714Y-91468190D02*
X156202095Y-91515809D01*
X156202095Y-91515809D02*
X156106857Y-91563428D01*
X156106857Y-91563428D02*
X155725905Y-91563428D01*
X157154476Y-91039619D02*
X156964000Y-91039619D01*
X156964000Y-91039619D02*
X156868762Y-91087238D01*
X156868762Y-91087238D02*
X156821143Y-91134857D01*
X156821143Y-91134857D02*
X156725905Y-91277714D01*
X156725905Y-91277714D02*
X156678286Y-91468190D01*
X156678286Y-91468190D02*
X156678286Y-91849142D01*
X156678286Y-91849142D02*
X156725905Y-91944380D01*
X156725905Y-91944380D02*
X156773524Y-91992000D01*
X156773524Y-91992000D02*
X156868762Y-92039619D01*
X156868762Y-92039619D02*
X157059238Y-92039619D01*
X157059238Y-92039619D02*
X157154476Y-91992000D01*
X157154476Y-91992000D02*
X157202095Y-91944380D01*
X157202095Y-91944380D02*
X157249714Y-91849142D01*
X157249714Y-91849142D02*
X157249714Y-91611047D01*
X157249714Y-91611047D02*
X157202095Y-91515809D01*
X157202095Y-91515809D02*
X157154476Y-91468190D01*
X157154476Y-91468190D02*
X157059238Y-91420571D01*
X157059238Y-91420571D02*
X156868762Y-91420571D01*
X156868762Y-91420571D02*
X156773524Y-91468190D01*
X156773524Y-91468190D02*
X156725905Y-91515809D01*
X156725905Y-91515809D02*
X156678286Y-91611047D01*
X161021733Y-87729219D02*
X160688400Y-87253028D01*
X160450305Y-87729219D02*
X160450305Y-86729219D01*
X160450305Y-86729219D02*
X160831257Y-86729219D01*
X160831257Y-86729219D02*
X160926495Y-86776838D01*
X160926495Y-86776838D02*
X160974114Y-86824457D01*
X160974114Y-86824457D02*
X161021733Y-86919695D01*
X161021733Y-86919695D02*
X161021733Y-87062552D01*
X161021733Y-87062552D02*
X160974114Y-87157790D01*
X160974114Y-87157790D02*
X160926495Y-87205409D01*
X160926495Y-87205409D02*
X160831257Y-87253028D01*
X160831257Y-87253028D02*
X160450305Y-87253028D01*
X161974114Y-87729219D02*
X161402686Y-87729219D01*
X161688400Y-87729219D02*
X161688400Y-86729219D01*
X161688400Y-86729219D02*
X161593162Y-86872076D01*
X161593162Y-86872076D02*
X161497924Y-86967314D01*
X161497924Y-86967314D02*
X161402686Y-87014933D01*
X153373295Y-96609619D02*
X153944723Y-96609619D01*
X153659009Y-97609619D02*
X153659009Y-96609619D01*
X154278057Y-97609619D02*
X154278057Y-96609619D01*
X154278057Y-96609619D02*
X154659009Y-96609619D01*
X154659009Y-96609619D02*
X154754247Y-96657238D01*
X154754247Y-96657238D02*
X154801866Y-96704857D01*
X154801866Y-96704857D02*
X154849485Y-96800095D01*
X154849485Y-96800095D02*
X154849485Y-96942952D01*
X154849485Y-96942952D02*
X154801866Y-97038190D01*
X154801866Y-97038190D02*
X154754247Y-97085809D01*
X154754247Y-97085809D02*
X154659009Y-97133428D01*
X154659009Y-97133428D02*
X154278057Y-97133428D01*
X155754247Y-96609619D02*
X155278057Y-96609619D01*
X155278057Y-96609619D02*
X155230438Y-97085809D01*
X155230438Y-97085809D02*
X155278057Y-97038190D01*
X155278057Y-97038190D02*
X155373295Y-96990571D01*
X155373295Y-96990571D02*
X155611390Y-96990571D01*
X155611390Y-96990571D02*
X155706628Y-97038190D01*
X155706628Y-97038190D02*
X155754247Y-97085809D01*
X155754247Y-97085809D02*
X155801866Y-97181047D01*
X155801866Y-97181047D02*
X155801866Y-97419142D01*
X155801866Y-97419142D02*
X155754247Y-97514380D01*
X155754247Y-97514380D02*
X155706628Y-97562000D01*
X155706628Y-97562000D02*
X155611390Y-97609619D01*
X155611390Y-97609619D02*
X155373295Y-97609619D01*
X155373295Y-97609619D02*
X155278057Y-97562000D01*
X155278057Y-97562000D02*
X155230438Y-97514380D01*
X166844980Y-91710857D02*
X166892600Y-91758476D01*
X166892600Y-91758476D02*
X166940219Y-91901333D01*
X166940219Y-91901333D02*
X166940219Y-91996571D01*
X166940219Y-91996571D02*
X166892600Y-92139428D01*
X166892600Y-92139428D02*
X166797361Y-92234666D01*
X166797361Y-92234666D02*
X166702123Y-92282285D01*
X166702123Y-92282285D02*
X166511647Y-92329904D01*
X166511647Y-92329904D02*
X166368790Y-92329904D01*
X166368790Y-92329904D02*
X166178314Y-92282285D01*
X166178314Y-92282285D02*
X166083076Y-92234666D01*
X166083076Y-92234666D02*
X165987838Y-92139428D01*
X165987838Y-92139428D02*
X165940219Y-91996571D01*
X165940219Y-91996571D02*
X165940219Y-91901333D01*
X165940219Y-91901333D02*
X165987838Y-91758476D01*
X165987838Y-91758476D02*
X166035457Y-91710857D01*
X166940219Y-90758476D02*
X166940219Y-91329904D01*
X166940219Y-91044190D02*
X165940219Y-91044190D01*
X165940219Y-91044190D02*
X166083076Y-91139428D01*
X166083076Y-91139428D02*
X166178314Y-91234666D01*
X166178314Y-91234666D02*
X166225933Y-91329904D01*
X166940219Y-89806095D02*
X166940219Y-90377523D01*
X166940219Y-90091809D02*
X165940219Y-90091809D01*
X165940219Y-90091809D02*
X166083076Y-90187047D01*
X166083076Y-90187047D02*
X166178314Y-90282285D01*
X166178314Y-90282285D02*
X166225933Y-90377523D01*
X153100305Y-104991619D02*
X153671733Y-104991619D01*
X153386019Y-105991619D02*
X153386019Y-104991619D01*
X154005067Y-105991619D02*
X154005067Y-104991619D01*
X154005067Y-104991619D02*
X154386019Y-104991619D01*
X154386019Y-104991619D02*
X154481257Y-105039238D01*
X154481257Y-105039238D02*
X154528876Y-105086857D01*
X154528876Y-105086857D02*
X154576495Y-105182095D01*
X154576495Y-105182095D02*
X154576495Y-105324952D01*
X154576495Y-105324952D02*
X154528876Y-105420190D01*
X154528876Y-105420190D02*
X154481257Y-105467809D01*
X154481257Y-105467809D02*
X154386019Y-105515428D01*
X154386019Y-105515428D02*
X154005067Y-105515428D01*
X155528876Y-105991619D02*
X154957448Y-105991619D01*
X155243162Y-105991619D02*
X155243162Y-104991619D01*
X155243162Y-104991619D02*
X155147924Y-105134476D01*
X155147924Y-105134476D02*
X155052686Y-105229714D01*
X155052686Y-105229714D02*
X154957448Y-105277333D01*
X155862210Y-104991619D02*
X156481257Y-104991619D01*
X156481257Y-104991619D02*
X156147924Y-105372571D01*
X156147924Y-105372571D02*
X156290781Y-105372571D01*
X156290781Y-105372571D02*
X156386019Y-105420190D01*
X156386019Y-105420190D02*
X156433638Y-105467809D01*
X156433638Y-105467809D02*
X156481257Y-105563047D01*
X156481257Y-105563047D02*
X156481257Y-105801142D01*
X156481257Y-105801142D02*
X156433638Y-105896380D01*
X156433638Y-105896380D02*
X156386019Y-105944000D01*
X156386019Y-105944000D02*
X156290781Y-105991619D01*
X156290781Y-105991619D02*
X156005067Y-105991619D01*
X156005067Y-105991619D02*
X155909829Y-105944000D01*
X155909829Y-105944000D02*
X155862210Y-105896380D01*
X162057219Y-100414057D02*
X161581028Y-100747390D01*
X162057219Y-100985485D02*
X161057219Y-100985485D01*
X161057219Y-100985485D02*
X161057219Y-100604533D01*
X161057219Y-100604533D02*
X161104838Y-100509295D01*
X161104838Y-100509295D02*
X161152457Y-100461676D01*
X161152457Y-100461676D02*
X161247695Y-100414057D01*
X161247695Y-100414057D02*
X161390552Y-100414057D01*
X161390552Y-100414057D02*
X161485790Y-100461676D01*
X161485790Y-100461676D02*
X161533409Y-100509295D01*
X161533409Y-100509295D02*
X161581028Y-100604533D01*
X161581028Y-100604533D02*
X161581028Y-100985485D01*
X162057219Y-99461676D02*
X162057219Y-100033104D01*
X162057219Y-99747390D02*
X161057219Y-99747390D01*
X161057219Y-99747390D02*
X161200076Y-99842628D01*
X161200076Y-99842628D02*
X161295314Y-99937866D01*
X161295314Y-99937866D02*
X161342933Y-100033104D01*
X161057219Y-99128342D02*
X161057219Y-98509295D01*
X161057219Y-98509295D02*
X161438171Y-98842628D01*
X161438171Y-98842628D02*
X161438171Y-98699771D01*
X161438171Y-98699771D02*
X161485790Y-98604533D01*
X161485790Y-98604533D02*
X161533409Y-98556914D01*
X161533409Y-98556914D02*
X161628647Y-98509295D01*
X161628647Y-98509295D02*
X161866742Y-98509295D01*
X161866742Y-98509295D02*
X161961980Y-98556914D01*
X161961980Y-98556914D02*
X162009600Y-98604533D01*
X162009600Y-98604533D02*
X162057219Y-98699771D01*
X162057219Y-98699771D02*
X162057219Y-98985485D01*
X162057219Y-98985485D02*
X162009600Y-99080723D01*
X162009600Y-99080723D02*
X161961980Y-99128342D01*
X160567905Y-102299219D02*
X161139333Y-102299219D01*
X160853619Y-103299219D02*
X160853619Y-102299219D01*
X161472667Y-103299219D02*
X161472667Y-102299219D01*
X161472667Y-102299219D02*
X161853619Y-102299219D01*
X161853619Y-102299219D02*
X161948857Y-102346838D01*
X161948857Y-102346838D02*
X161996476Y-102394457D01*
X161996476Y-102394457D02*
X162044095Y-102489695D01*
X162044095Y-102489695D02*
X162044095Y-102632552D01*
X162044095Y-102632552D02*
X161996476Y-102727790D01*
X161996476Y-102727790D02*
X161948857Y-102775409D01*
X161948857Y-102775409D02*
X161853619Y-102823028D01*
X161853619Y-102823028D02*
X161472667Y-102823028D01*
X162996476Y-103299219D02*
X162425048Y-103299219D01*
X162710762Y-103299219D02*
X162710762Y-102299219D01*
X162710762Y-102299219D02*
X162615524Y-102442076D01*
X162615524Y-102442076D02*
X162520286Y-102537314D01*
X162520286Y-102537314D02*
X162425048Y-102584933D01*
X163853619Y-102632552D02*
X163853619Y-103299219D01*
X163615524Y-102251600D02*
X163377429Y-102965885D01*
X163377429Y-102965885D02*
X163996476Y-102965885D01*
X168221819Y-102395257D02*
X167745628Y-102728590D01*
X168221819Y-102966685D02*
X167221819Y-102966685D01*
X167221819Y-102966685D02*
X167221819Y-102585733D01*
X167221819Y-102585733D02*
X167269438Y-102490495D01*
X167269438Y-102490495D02*
X167317057Y-102442876D01*
X167317057Y-102442876D02*
X167412295Y-102395257D01*
X167412295Y-102395257D02*
X167555152Y-102395257D01*
X167555152Y-102395257D02*
X167650390Y-102442876D01*
X167650390Y-102442876D02*
X167698009Y-102490495D01*
X167698009Y-102490495D02*
X167745628Y-102585733D01*
X167745628Y-102585733D02*
X167745628Y-102966685D01*
X168221819Y-101442876D02*
X168221819Y-102014304D01*
X168221819Y-101728590D02*
X167221819Y-101728590D01*
X167221819Y-101728590D02*
X167364676Y-101823828D01*
X167364676Y-101823828D02*
X167459914Y-101919066D01*
X167459914Y-101919066D02*
X167507533Y-102014304D01*
X167221819Y-100538114D02*
X167221819Y-101014304D01*
X167221819Y-101014304D02*
X167698009Y-101061923D01*
X167698009Y-101061923D02*
X167650390Y-101014304D01*
X167650390Y-101014304D02*
X167602771Y-100919066D01*
X167602771Y-100919066D02*
X167602771Y-100680971D01*
X167602771Y-100680971D02*
X167650390Y-100585733D01*
X167650390Y-100585733D02*
X167698009Y-100538114D01*
X167698009Y-100538114D02*
X167793247Y-100490495D01*
X167793247Y-100490495D02*
X168031342Y-100490495D01*
X168031342Y-100490495D02*
X168126580Y-100538114D01*
X168126580Y-100538114D02*
X168174200Y-100585733D01*
X168174200Y-100585733D02*
X168221819Y-100680971D01*
X168221819Y-100680971D02*
X168221819Y-100919066D01*
X168221819Y-100919066D02*
X168174200Y-101014304D01*
X168174200Y-101014304D02*
X168126580Y-101061923D01*
X137574495Y-99505219D02*
X138145923Y-99505219D01*
X137860209Y-100505219D02*
X137860209Y-99505219D01*
X138479257Y-100505219D02*
X138479257Y-99505219D01*
X138479257Y-99505219D02*
X138860209Y-99505219D01*
X138860209Y-99505219D02*
X138955447Y-99552838D01*
X138955447Y-99552838D02*
X139003066Y-99600457D01*
X139003066Y-99600457D02*
X139050685Y-99695695D01*
X139050685Y-99695695D02*
X139050685Y-99838552D01*
X139050685Y-99838552D02*
X139003066Y-99933790D01*
X139003066Y-99933790D02*
X138955447Y-99981409D01*
X138955447Y-99981409D02*
X138860209Y-100029028D01*
X138860209Y-100029028D02*
X138479257Y-100029028D01*
X139907828Y-99505219D02*
X139717352Y-99505219D01*
X139717352Y-99505219D02*
X139622114Y-99552838D01*
X139622114Y-99552838D02*
X139574495Y-99600457D01*
X139574495Y-99600457D02*
X139479257Y-99743314D01*
X139479257Y-99743314D02*
X139431638Y-99933790D01*
X139431638Y-99933790D02*
X139431638Y-100314742D01*
X139431638Y-100314742D02*
X139479257Y-100409980D01*
X139479257Y-100409980D02*
X139526876Y-100457600D01*
X139526876Y-100457600D02*
X139622114Y-100505219D01*
X139622114Y-100505219D02*
X139812590Y-100505219D01*
X139812590Y-100505219D02*
X139907828Y-100457600D01*
X139907828Y-100457600D02*
X139955447Y-100409980D01*
X139955447Y-100409980D02*
X140003066Y-100314742D01*
X140003066Y-100314742D02*
X140003066Y-100076647D01*
X140003066Y-100076647D02*
X139955447Y-99981409D01*
X139955447Y-99981409D02*
X139907828Y-99933790D01*
X139907828Y-99933790D02*
X139812590Y-99886171D01*
X139812590Y-99886171D02*
X139622114Y-99886171D01*
X139622114Y-99886171D02*
X139526876Y-99933790D01*
X139526876Y-99933790D02*
X139479257Y-99981409D01*
X139479257Y-99981409D02*
X139431638Y-100076647D01*
X157040342Y-100589219D02*
X156707009Y-100113028D01*
X156468914Y-100589219D02*
X156468914Y-99589219D01*
X156468914Y-99589219D02*
X156849866Y-99589219D01*
X156849866Y-99589219D02*
X156945104Y-99636838D01*
X156945104Y-99636838D02*
X156992723Y-99684457D01*
X156992723Y-99684457D02*
X157040342Y-99779695D01*
X157040342Y-99779695D02*
X157040342Y-99922552D01*
X157040342Y-99922552D02*
X156992723Y-100017790D01*
X156992723Y-100017790D02*
X156945104Y-100065409D01*
X156945104Y-100065409D02*
X156849866Y-100113028D01*
X156849866Y-100113028D02*
X156468914Y-100113028D01*
X157992723Y-100589219D02*
X157421295Y-100589219D01*
X157707009Y-100589219D02*
X157707009Y-99589219D01*
X157707009Y-99589219D02*
X157611771Y-99732076D01*
X157611771Y-99732076D02*
X157516533Y-99827314D01*
X157516533Y-99827314D02*
X157421295Y-99874933D01*
X158849866Y-99922552D02*
X158849866Y-100589219D01*
X158611771Y-99541600D02*
X158373676Y-100255885D01*
X158373676Y-100255885D02*
X158992723Y-100255885D01*
X121743450Y-109765131D02*
X121791070Y-109812750D01*
X121791070Y-109812750D02*
X121838689Y-109955607D01*
X121838689Y-109955607D02*
X121838689Y-110050845D01*
X121838689Y-110050845D02*
X121791070Y-110193702D01*
X121791070Y-110193702D02*
X121695831Y-110288940D01*
X121695831Y-110288940D02*
X121600593Y-110336559D01*
X121600593Y-110336559D02*
X121410117Y-110384178D01*
X121410117Y-110384178D02*
X121267260Y-110384178D01*
X121267260Y-110384178D02*
X121076784Y-110336559D01*
X121076784Y-110336559D02*
X120981546Y-110288940D01*
X120981546Y-110288940D02*
X120886308Y-110193702D01*
X120886308Y-110193702D02*
X120838689Y-110050845D01*
X120838689Y-110050845D02*
X120838689Y-109955607D01*
X120838689Y-109955607D02*
X120886308Y-109812750D01*
X120886308Y-109812750D02*
X120933927Y-109765131D01*
X120933927Y-109384178D02*
X120886308Y-109336559D01*
X120886308Y-109336559D02*
X120838689Y-109241321D01*
X120838689Y-109241321D02*
X120838689Y-109003226D01*
X120838689Y-109003226D02*
X120886308Y-108907988D01*
X120886308Y-108907988D02*
X120933927Y-108860369D01*
X120933927Y-108860369D02*
X121029165Y-108812750D01*
X121029165Y-108812750D02*
X121124403Y-108812750D01*
X121124403Y-108812750D02*
X121267260Y-108860369D01*
X121267260Y-108860369D02*
X121838689Y-109431797D01*
X121838689Y-109431797D02*
X121838689Y-108812750D01*
X132323105Y-98336819D02*
X132894533Y-98336819D01*
X132608819Y-99336819D02*
X132608819Y-98336819D01*
X133227867Y-99336819D02*
X133227867Y-98336819D01*
X133227867Y-98336819D02*
X133608819Y-98336819D01*
X133608819Y-98336819D02*
X133704057Y-98384438D01*
X133704057Y-98384438D02*
X133751676Y-98432057D01*
X133751676Y-98432057D02*
X133799295Y-98527295D01*
X133799295Y-98527295D02*
X133799295Y-98670152D01*
X133799295Y-98670152D02*
X133751676Y-98765390D01*
X133751676Y-98765390D02*
X133704057Y-98813009D01*
X133704057Y-98813009D02*
X133608819Y-98860628D01*
X133608819Y-98860628D02*
X133227867Y-98860628D01*
X134751676Y-99336819D02*
X134180248Y-99336819D01*
X134465962Y-99336819D02*
X134465962Y-98336819D01*
X134465962Y-98336819D02*
X134370724Y-98479676D01*
X134370724Y-98479676D02*
X134275486Y-98574914D01*
X134275486Y-98574914D02*
X134180248Y-98622533D01*
X135370724Y-98336819D02*
X135465962Y-98336819D01*
X135465962Y-98336819D02*
X135561200Y-98384438D01*
X135561200Y-98384438D02*
X135608819Y-98432057D01*
X135608819Y-98432057D02*
X135656438Y-98527295D01*
X135656438Y-98527295D02*
X135704057Y-98717771D01*
X135704057Y-98717771D02*
X135704057Y-98955866D01*
X135704057Y-98955866D02*
X135656438Y-99146342D01*
X135656438Y-99146342D02*
X135608819Y-99241580D01*
X135608819Y-99241580D02*
X135561200Y-99289200D01*
X135561200Y-99289200D02*
X135465962Y-99336819D01*
X135465962Y-99336819D02*
X135370724Y-99336819D01*
X135370724Y-99336819D02*
X135275486Y-99289200D01*
X135275486Y-99289200D02*
X135227867Y-99241580D01*
X135227867Y-99241580D02*
X135180248Y-99146342D01*
X135180248Y-99146342D02*
X135132629Y-98955866D01*
X135132629Y-98955866D02*
X135132629Y-98717771D01*
X135132629Y-98717771D02*
X135180248Y-98527295D01*
X135180248Y-98527295D02*
X135227867Y-98432057D01*
X135227867Y-98432057D02*
X135275486Y-98384438D01*
X135275486Y-98384438D02*
X135370724Y-98336819D01*
X147946395Y-93354569D02*
X147946395Y-94164092D01*
X147946395Y-94164092D02*
X147994014Y-94259330D01*
X147994014Y-94259330D02*
X148041633Y-94306950D01*
X148041633Y-94306950D02*
X148136871Y-94354569D01*
X148136871Y-94354569D02*
X148327347Y-94354569D01*
X148327347Y-94354569D02*
X148422585Y-94306950D01*
X148422585Y-94306950D02*
X148470204Y-94259330D01*
X148470204Y-94259330D02*
X148517823Y-94164092D01*
X148517823Y-94164092D02*
X148517823Y-93354569D01*
X148946395Y-93449807D02*
X148994014Y-93402188D01*
X148994014Y-93402188D02*
X149089252Y-93354569D01*
X149089252Y-93354569D02*
X149327347Y-93354569D01*
X149327347Y-93354569D02*
X149422585Y-93402188D01*
X149422585Y-93402188D02*
X149470204Y-93449807D01*
X149470204Y-93449807D02*
X149517823Y-93545045D01*
X149517823Y-93545045D02*
X149517823Y-93640283D01*
X149517823Y-93640283D02*
X149470204Y-93783140D01*
X149470204Y-93783140D02*
X148898776Y-94354569D01*
X148898776Y-94354569D02*
X149517823Y-94354569D01*
X136761695Y-102756419D02*
X137333123Y-102756419D01*
X137047409Y-103756419D02*
X137047409Y-102756419D01*
X137666457Y-103756419D02*
X137666457Y-102756419D01*
X137666457Y-102756419D02*
X138047409Y-102756419D01*
X138047409Y-102756419D02*
X138142647Y-102804038D01*
X138142647Y-102804038D02*
X138190266Y-102851657D01*
X138190266Y-102851657D02*
X138237885Y-102946895D01*
X138237885Y-102946895D02*
X138237885Y-103089752D01*
X138237885Y-103089752D02*
X138190266Y-103184990D01*
X138190266Y-103184990D02*
X138142647Y-103232609D01*
X138142647Y-103232609D02*
X138047409Y-103280228D01*
X138047409Y-103280228D02*
X137666457Y-103280228D01*
X138571219Y-102756419D02*
X139190266Y-102756419D01*
X139190266Y-102756419D02*
X138856933Y-103137371D01*
X138856933Y-103137371D02*
X138999790Y-103137371D01*
X138999790Y-103137371D02*
X139095028Y-103184990D01*
X139095028Y-103184990D02*
X139142647Y-103232609D01*
X139142647Y-103232609D02*
X139190266Y-103327847D01*
X139190266Y-103327847D02*
X139190266Y-103565942D01*
X139190266Y-103565942D02*
X139142647Y-103661180D01*
X139142647Y-103661180D02*
X139095028Y-103708800D01*
X139095028Y-103708800D02*
X138999790Y-103756419D01*
X138999790Y-103756419D02*
X138714076Y-103756419D01*
X138714076Y-103756419D02*
X138618838Y-103708800D01*
X138618838Y-103708800D02*
X138571219Y-103661180D01*
X130186133Y-92766019D02*
X129852800Y-92289828D01*
X129614705Y-92766019D02*
X129614705Y-91766019D01*
X129614705Y-91766019D02*
X129995657Y-91766019D01*
X129995657Y-91766019D02*
X130090895Y-91813638D01*
X130090895Y-91813638D02*
X130138514Y-91861257D01*
X130138514Y-91861257D02*
X130186133Y-91956495D01*
X130186133Y-91956495D02*
X130186133Y-92099352D01*
X130186133Y-92099352D02*
X130138514Y-92194590D01*
X130138514Y-92194590D02*
X130090895Y-92242209D01*
X130090895Y-92242209D02*
X129995657Y-92289828D01*
X129995657Y-92289828D02*
X129614705Y-92289828D01*
X130519467Y-91766019D02*
X131138514Y-91766019D01*
X131138514Y-91766019D02*
X130805181Y-92146971D01*
X130805181Y-92146971D02*
X130948038Y-92146971D01*
X130948038Y-92146971D02*
X131043276Y-92194590D01*
X131043276Y-92194590D02*
X131090895Y-92242209D01*
X131090895Y-92242209D02*
X131138514Y-92337447D01*
X131138514Y-92337447D02*
X131138514Y-92575542D01*
X131138514Y-92575542D02*
X131090895Y-92670780D01*
X131090895Y-92670780D02*
X131043276Y-92718400D01*
X131043276Y-92718400D02*
X130948038Y-92766019D01*
X130948038Y-92766019D02*
X130662324Y-92766019D01*
X130662324Y-92766019D02*
X130567086Y-92718400D01*
X130567086Y-92718400D02*
X130519467Y-92670780D01*
X162309980Y-92236357D02*
X162357600Y-92283976D01*
X162357600Y-92283976D02*
X162405219Y-92426833D01*
X162405219Y-92426833D02*
X162405219Y-92522071D01*
X162405219Y-92522071D02*
X162357600Y-92664928D01*
X162357600Y-92664928D02*
X162262361Y-92760166D01*
X162262361Y-92760166D02*
X162167123Y-92807785D01*
X162167123Y-92807785D02*
X161976647Y-92855404D01*
X161976647Y-92855404D02*
X161833790Y-92855404D01*
X161833790Y-92855404D02*
X161643314Y-92807785D01*
X161643314Y-92807785D02*
X161548076Y-92760166D01*
X161548076Y-92760166D02*
X161452838Y-92664928D01*
X161452838Y-92664928D02*
X161405219Y-92522071D01*
X161405219Y-92522071D02*
X161405219Y-92426833D01*
X161405219Y-92426833D02*
X161452838Y-92283976D01*
X161452838Y-92283976D02*
X161500457Y-92236357D01*
X162405219Y-91283976D02*
X162405219Y-91855404D01*
X162405219Y-91569690D02*
X161405219Y-91569690D01*
X161405219Y-91569690D02*
X161548076Y-91664928D01*
X161548076Y-91664928D02*
X161643314Y-91760166D01*
X161643314Y-91760166D02*
X161690933Y-91855404D01*
X161500457Y-90903023D02*
X161452838Y-90855404D01*
X161452838Y-90855404D02*
X161405219Y-90760166D01*
X161405219Y-90760166D02*
X161405219Y-90522071D01*
X161405219Y-90522071D02*
X161452838Y-90426833D01*
X161452838Y-90426833D02*
X161500457Y-90379214D01*
X161500457Y-90379214D02*
X161595695Y-90331595D01*
X161595695Y-90331595D02*
X161690933Y-90331595D01*
X161690933Y-90331595D02*
X161833790Y-90379214D01*
X161833790Y-90379214D02*
X162405219Y-90950642D01*
X162405219Y-90950642D02*
X162405219Y-90331595D01*
X165709819Y-102791494D02*
X164709819Y-102791494D01*
X164709819Y-102791494D02*
X164709819Y-102553399D01*
X164709819Y-102553399D02*
X164757438Y-102410542D01*
X164757438Y-102410542D02*
X164852676Y-102315304D01*
X164852676Y-102315304D02*
X164947914Y-102267685D01*
X164947914Y-102267685D02*
X165138390Y-102220066D01*
X165138390Y-102220066D02*
X165281247Y-102220066D01*
X165281247Y-102220066D02*
X165471723Y-102267685D01*
X165471723Y-102267685D02*
X165566961Y-102315304D01*
X165566961Y-102315304D02*
X165662200Y-102410542D01*
X165662200Y-102410542D02*
X165709819Y-102553399D01*
X165709819Y-102553399D02*
X165709819Y-102791494D01*
X165709819Y-101267685D02*
X165709819Y-101839113D01*
X165709819Y-101553399D02*
X164709819Y-101553399D01*
X164709819Y-101553399D02*
X164852676Y-101648637D01*
X164852676Y-101648637D02*
X164947914Y-101743875D01*
X164947914Y-101743875D02*
X164995533Y-101839113D01*
X151932033Y-102246880D02*
X151884414Y-102294500D01*
X151884414Y-102294500D02*
X151741557Y-102342119D01*
X151741557Y-102342119D02*
X151646319Y-102342119D01*
X151646319Y-102342119D02*
X151503462Y-102294500D01*
X151503462Y-102294500D02*
X151408224Y-102199261D01*
X151408224Y-102199261D02*
X151360605Y-102104023D01*
X151360605Y-102104023D02*
X151312986Y-101913547D01*
X151312986Y-101913547D02*
X151312986Y-101770690D01*
X151312986Y-101770690D02*
X151360605Y-101580214D01*
X151360605Y-101580214D02*
X151408224Y-101484976D01*
X151408224Y-101484976D02*
X151503462Y-101389738D01*
X151503462Y-101389738D02*
X151646319Y-101342119D01*
X151646319Y-101342119D02*
X151741557Y-101342119D01*
X151741557Y-101342119D02*
X151884414Y-101389738D01*
X151884414Y-101389738D02*
X151932033Y-101437357D01*
X152789176Y-101675452D02*
X152789176Y-102342119D01*
X152551081Y-101294500D02*
X152312986Y-102008785D01*
X152312986Y-102008785D02*
X152932033Y-102008785D01*
X159130533Y-91578880D02*
X159082914Y-91626500D01*
X159082914Y-91626500D02*
X158940057Y-91674119D01*
X158940057Y-91674119D02*
X158844819Y-91674119D01*
X158844819Y-91674119D02*
X158701962Y-91626500D01*
X158701962Y-91626500D02*
X158606724Y-91531261D01*
X158606724Y-91531261D02*
X158559105Y-91436023D01*
X158559105Y-91436023D02*
X158511486Y-91245547D01*
X158511486Y-91245547D02*
X158511486Y-91102690D01*
X158511486Y-91102690D02*
X158559105Y-90912214D01*
X158559105Y-90912214D02*
X158606724Y-90816976D01*
X158606724Y-90816976D02*
X158701962Y-90721738D01*
X158701962Y-90721738D02*
X158844819Y-90674119D01*
X158844819Y-90674119D02*
X158940057Y-90674119D01*
X158940057Y-90674119D02*
X159082914Y-90721738D01*
X159082914Y-90721738D02*
X159130533Y-90769357D01*
X159463867Y-90674119D02*
X160130533Y-90674119D01*
X160130533Y-90674119D02*
X159701962Y-91674119D01*
X127677334Y-106214080D02*
X127629715Y-106261700D01*
X127629715Y-106261700D02*
X127486858Y-106309319D01*
X127486858Y-106309319D02*
X127391620Y-106309319D01*
X127391620Y-106309319D02*
X127248763Y-106261700D01*
X127248763Y-106261700D02*
X127153525Y-106166461D01*
X127153525Y-106166461D02*
X127105906Y-106071223D01*
X127105906Y-106071223D02*
X127058287Y-105880747D01*
X127058287Y-105880747D02*
X127058287Y-105737890D01*
X127058287Y-105737890D02*
X127105906Y-105547414D01*
X127105906Y-105547414D02*
X127153525Y-105452176D01*
X127153525Y-105452176D02*
X127248763Y-105356938D01*
X127248763Y-105356938D02*
X127391620Y-105309319D01*
X127391620Y-105309319D02*
X127486858Y-105309319D01*
X127486858Y-105309319D02*
X127629715Y-105356938D01*
X127629715Y-105356938D02*
X127677334Y-105404557D01*
X128248763Y-105737890D02*
X128153525Y-105690271D01*
X128153525Y-105690271D02*
X128105906Y-105642652D01*
X128105906Y-105642652D02*
X128058287Y-105547414D01*
X128058287Y-105547414D02*
X128058287Y-105499795D01*
X128058287Y-105499795D02*
X128105906Y-105404557D01*
X128105906Y-105404557D02*
X128153525Y-105356938D01*
X128153525Y-105356938D02*
X128248763Y-105309319D01*
X128248763Y-105309319D02*
X128439239Y-105309319D01*
X128439239Y-105309319D02*
X128534477Y-105356938D01*
X128534477Y-105356938D02*
X128582096Y-105404557D01*
X128582096Y-105404557D02*
X128629715Y-105499795D01*
X128629715Y-105499795D02*
X128629715Y-105547414D01*
X128629715Y-105547414D02*
X128582096Y-105642652D01*
X128582096Y-105642652D02*
X128534477Y-105690271D01*
X128534477Y-105690271D02*
X128439239Y-105737890D01*
X128439239Y-105737890D02*
X128248763Y-105737890D01*
X128248763Y-105737890D02*
X128153525Y-105785509D01*
X128153525Y-105785509D02*
X128105906Y-105833128D01*
X128105906Y-105833128D02*
X128058287Y-105928366D01*
X128058287Y-105928366D02*
X128058287Y-106118842D01*
X128058287Y-106118842D02*
X128105906Y-106214080D01*
X128105906Y-106214080D02*
X128153525Y-106261700D01*
X128153525Y-106261700D02*
X128248763Y-106309319D01*
X128248763Y-106309319D02*
X128439239Y-106309319D01*
X128439239Y-106309319D02*
X128534477Y-106261700D01*
X128534477Y-106261700D02*
X128582096Y-106214080D01*
X128582096Y-106214080D02*
X128629715Y-106118842D01*
X128629715Y-106118842D02*
X128629715Y-105928366D01*
X128629715Y-105928366D02*
X128582096Y-105833128D01*
X128582096Y-105833128D02*
X128534477Y-105785509D01*
X128534477Y-105785509D02*
X128439239Y-105737890D01*
X150025642Y-94964730D02*
X149978023Y-95012350D01*
X149978023Y-95012350D02*
X149835166Y-95059969D01*
X149835166Y-95059969D02*
X149739928Y-95059969D01*
X149739928Y-95059969D02*
X149597071Y-95012350D01*
X149597071Y-95012350D02*
X149501833Y-94917111D01*
X149501833Y-94917111D02*
X149454214Y-94821873D01*
X149454214Y-94821873D02*
X149406595Y-94631397D01*
X149406595Y-94631397D02*
X149406595Y-94488540D01*
X149406595Y-94488540D02*
X149454214Y-94298064D01*
X149454214Y-94298064D02*
X149501833Y-94202826D01*
X149501833Y-94202826D02*
X149597071Y-94107588D01*
X149597071Y-94107588D02*
X149739928Y-94059969D01*
X149739928Y-94059969D02*
X149835166Y-94059969D01*
X149835166Y-94059969D02*
X149978023Y-94107588D01*
X149978023Y-94107588D02*
X150025642Y-94155207D01*
X150978023Y-95059969D02*
X150406595Y-95059969D01*
X150692309Y-95059969D02*
X150692309Y-94059969D01*
X150692309Y-94059969D02*
X150597071Y-94202826D01*
X150597071Y-94202826D02*
X150501833Y-94298064D01*
X150501833Y-94298064D02*
X150406595Y-94345683D01*
X151597071Y-94059969D02*
X151692309Y-94059969D01*
X151692309Y-94059969D02*
X151787547Y-94107588D01*
X151787547Y-94107588D02*
X151835166Y-94155207D01*
X151835166Y-94155207D02*
X151882785Y-94250445D01*
X151882785Y-94250445D02*
X151930404Y-94440921D01*
X151930404Y-94440921D02*
X151930404Y-94679016D01*
X151930404Y-94679016D02*
X151882785Y-94869492D01*
X151882785Y-94869492D02*
X151835166Y-94964730D01*
X151835166Y-94964730D02*
X151787547Y-95012350D01*
X151787547Y-95012350D02*
X151692309Y-95059969D01*
X151692309Y-95059969D02*
X151597071Y-95059969D01*
X151597071Y-95059969D02*
X151501833Y-95012350D01*
X151501833Y-95012350D02*
X151454214Y-94964730D01*
X151454214Y-94964730D02*
X151406595Y-94869492D01*
X151406595Y-94869492D02*
X151358976Y-94679016D01*
X151358976Y-94679016D02*
X151358976Y-94440921D01*
X151358976Y-94440921D02*
X151406595Y-94250445D01*
X151406595Y-94250445D02*
X151454214Y-94155207D01*
X151454214Y-94155207D02*
X151501833Y-94107588D01*
X151501833Y-94107588D02*
X151597071Y-94059969D01*
X149790580Y-98178857D02*
X149838200Y-98226476D01*
X149838200Y-98226476D02*
X149885819Y-98369333D01*
X149885819Y-98369333D02*
X149885819Y-98464571D01*
X149885819Y-98464571D02*
X149838200Y-98607428D01*
X149838200Y-98607428D02*
X149742961Y-98702666D01*
X149742961Y-98702666D02*
X149647723Y-98750285D01*
X149647723Y-98750285D02*
X149457247Y-98797904D01*
X149457247Y-98797904D02*
X149314390Y-98797904D01*
X149314390Y-98797904D02*
X149123914Y-98750285D01*
X149123914Y-98750285D02*
X149028676Y-98702666D01*
X149028676Y-98702666D02*
X148933438Y-98607428D01*
X148933438Y-98607428D02*
X148885819Y-98464571D01*
X148885819Y-98464571D02*
X148885819Y-98369333D01*
X148885819Y-98369333D02*
X148933438Y-98226476D01*
X148933438Y-98226476D02*
X148981057Y-98178857D01*
X149885819Y-97226476D02*
X149885819Y-97797904D01*
X149885819Y-97512190D02*
X148885819Y-97512190D01*
X148885819Y-97512190D02*
X149028676Y-97607428D01*
X149028676Y-97607428D02*
X149123914Y-97702666D01*
X149123914Y-97702666D02*
X149171533Y-97797904D01*
X148885819Y-96369333D02*
X148885819Y-96559809D01*
X148885819Y-96559809D02*
X148933438Y-96655047D01*
X148933438Y-96655047D02*
X148981057Y-96702666D01*
X148981057Y-96702666D02*
X149123914Y-96797904D01*
X149123914Y-96797904D02*
X149314390Y-96845523D01*
X149314390Y-96845523D02*
X149695342Y-96845523D01*
X149695342Y-96845523D02*
X149790580Y-96797904D01*
X149790580Y-96797904D02*
X149838200Y-96750285D01*
X149838200Y-96750285D02*
X149885819Y-96655047D01*
X149885819Y-96655047D02*
X149885819Y-96464571D01*
X149885819Y-96464571D02*
X149838200Y-96369333D01*
X149838200Y-96369333D02*
X149790580Y-96321714D01*
X149790580Y-96321714D02*
X149695342Y-96274095D01*
X149695342Y-96274095D02*
X149457247Y-96274095D01*
X149457247Y-96274095D02*
X149362009Y-96321714D01*
X149362009Y-96321714D02*
X149314390Y-96369333D01*
X149314390Y-96369333D02*
X149266771Y-96464571D01*
X149266771Y-96464571D02*
X149266771Y-96655047D01*
X149266771Y-96655047D02*
X149314390Y-96750285D01*
X149314390Y-96750285D02*
X149362009Y-96797904D01*
X149362009Y-96797904D02*
X149457247Y-96845523D01*
X160627219Y-93909757D02*
X160151028Y-94243090D01*
X160627219Y-94481185D02*
X159627219Y-94481185D01*
X159627219Y-94481185D02*
X159627219Y-94100233D01*
X159627219Y-94100233D02*
X159674838Y-94004995D01*
X159674838Y-94004995D02*
X159722457Y-93957376D01*
X159722457Y-93957376D02*
X159817695Y-93909757D01*
X159817695Y-93909757D02*
X159960552Y-93909757D01*
X159960552Y-93909757D02*
X160055790Y-93957376D01*
X160055790Y-93957376D02*
X160103409Y-94004995D01*
X160103409Y-94004995D02*
X160151028Y-94100233D01*
X160151028Y-94100233D02*
X160151028Y-94481185D01*
X160627219Y-92957376D02*
X160627219Y-93528804D01*
X160627219Y-93243090D02*
X159627219Y-93243090D01*
X159627219Y-93243090D02*
X159770076Y-93338328D01*
X159770076Y-93338328D02*
X159865314Y-93433566D01*
X159865314Y-93433566D02*
X159912933Y-93528804D01*
X159722457Y-92576423D02*
X159674838Y-92528804D01*
X159674838Y-92528804D02*
X159627219Y-92433566D01*
X159627219Y-92433566D02*
X159627219Y-92195471D01*
X159627219Y-92195471D02*
X159674838Y-92100233D01*
X159674838Y-92100233D02*
X159722457Y-92052614D01*
X159722457Y-92052614D02*
X159817695Y-92004995D01*
X159817695Y-92004995D02*
X159912933Y-92004995D01*
X159912933Y-92004995D02*
X160055790Y-92052614D01*
X160055790Y-92052614D02*
X160627219Y-92624042D01*
X160627219Y-92624042D02*
X160627219Y-92004995D01*
X121877295Y-99048019D02*
X122448723Y-99048019D01*
X122163009Y-100048019D02*
X122163009Y-99048019D01*
X122782057Y-100048019D02*
X122782057Y-99048019D01*
X122782057Y-99048019D02*
X123163009Y-99048019D01*
X123163009Y-99048019D02*
X123258247Y-99095638D01*
X123258247Y-99095638D02*
X123305866Y-99143257D01*
X123305866Y-99143257D02*
X123353485Y-99238495D01*
X123353485Y-99238495D02*
X123353485Y-99381352D01*
X123353485Y-99381352D02*
X123305866Y-99476590D01*
X123305866Y-99476590D02*
X123258247Y-99524209D01*
X123258247Y-99524209D02*
X123163009Y-99571828D01*
X123163009Y-99571828D02*
X122782057Y-99571828D01*
X123734438Y-99143257D02*
X123782057Y-99095638D01*
X123782057Y-99095638D02*
X123877295Y-99048019D01*
X123877295Y-99048019D02*
X124115390Y-99048019D01*
X124115390Y-99048019D02*
X124210628Y-99095638D01*
X124210628Y-99095638D02*
X124258247Y-99143257D01*
X124258247Y-99143257D02*
X124305866Y-99238495D01*
X124305866Y-99238495D02*
X124305866Y-99333733D01*
X124305866Y-99333733D02*
X124258247Y-99476590D01*
X124258247Y-99476590D02*
X123686819Y-100048019D01*
X123686819Y-100048019D02*
X124305866Y-100048019D01*
X120099295Y-101791219D02*
X120670723Y-101791219D01*
X120385009Y-102791219D02*
X120385009Y-101791219D01*
X121004057Y-102791219D02*
X121004057Y-101791219D01*
X121004057Y-101791219D02*
X121385009Y-101791219D01*
X121385009Y-101791219D02*
X121480247Y-101838838D01*
X121480247Y-101838838D02*
X121527866Y-101886457D01*
X121527866Y-101886457D02*
X121575485Y-101981695D01*
X121575485Y-101981695D02*
X121575485Y-102124552D01*
X121575485Y-102124552D02*
X121527866Y-102219790D01*
X121527866Y-102219790D02*
X121480247Y-102267409D01*
X121480247Y-102267409D02*
X121385009Y-102315028D01*
X121385009Y-102315028D02*
X121004057Y-102315028D01*
X121908819Y-101791219D02*
X122575485Y-101791219D01*
X122575485Y-101791219D02*
X122146914Y-102791219D01*
X132001818Y-106521154D02*
X132811341Y-106521154D01*
X132811341Y-106521154D02*
X132906579Y-106473535D01*
X132906579Y-106473535D02*
X132954199Y-106425916D01*
X132954199Y-106425916D02*
X133001818Y-106330678D01*
X133001818Y-106330678D02*
X133001818Y-106140202D01*
X133001818Y-106140202D02*
X132954199Y-106044964D01*
X132954199Y-106044964D02*
X132906579Y-105997345D01*
X132906579Y-105997345D02*
X132811341Y-105949726D01*
X132811341Y-105949726D02*
X132001818Y-105949726D01*
X132001818Y-104997345D02*
X132001818Y-105473535D01*
X132001818Y-105473535D02*
X132478008Y-105521154D01*
X132478008Y-105521154D02*
X132430389Y-105473535D01*
X132430389Y-105473535D02*
X132382770Y-105378297D01*
X132382770Y-105378297D02*
X132382770Y-105140202D01*
X132382770Y-105140202D02*
X132430389Y-105044964D01*
X132430389Y-105044964D02*
X132478008Y-104997345D01*
X132478008Y-104997345D02*
X132573246Y-104949726D01*
X132573246Y-104949726D02*
X132811341Y-104949726D01*
X132811341Y-104949726D02*
X132906579Y-104997345D01*
X132906579Y-104997345D02*
X132954199Y-105044964D01*
X132954199Y-105044964D02*
X133001818Y-105140202D01*
X133001818Y-105140202D02*
X133001818Y-105378297D01*
X133001818Y-105378297D02*
X132954199Y-105473535D01*
X132954199Y-105473535D02*
X132906579Y-105521154D01*
X127578217Y-108965999D02*
X127816312Y-108965999D01*
X127721074Y-109204094D02*
X127816312Y-108965999D01*
X127816312Y-108965999D02*
X127721074Y-108727904D01*
X128006788Y-109108856D02*
X127816312Y-108965999D01*
X127816312Y-108965999D02*
X128006788Y-108823142D01*
X127578217Y-108965999D02*
X127816312Y-108965999D01*
X127721074Y-109204094D02*
X127816312Y-108965999D01*
X127816312Y-108965999D02*
X127721074Y-108727904D01*
X128006788Y-109108856D02*
X127816312Y-108965999D01*
X127816312Y-108965999D02*
X128006788Y-108823142D01*
X152150295Y-100114069D02*
X152721723Y-100114069D01*
X152436009Y-101114069D02*
X152436009Y-100114069D01*
X153055057Y-101114069D02*
X153055057Y-100114069D01*
X153055057Y-100114069D02*
X153436009Y-100114069D01*
X153436009Y-100114069D02*
X153531247Y-100161688D01*
X153531247Y-100161688D02*
X153578866Y-100209307D01*
X153578866Y-100209307D02*
X153626485Y-100304545D01*
X153626485Y-100304545D02*
X153626485Y-100447402D01*
X153626485Y-100447402D02*
X153578866Y-100542640D01*
X153578866Y-100542640D02*
X153531247Y-100590259D01*
X153531247Y-100590259D02*
X153436009Y-100637878D01*
X153436009Y-100637878D02*
X153055057Y-100637878D01*
X154483628Y-100447402D02*
X154483628Y-101114069D01*
X154245533Y-100066450D02*
X154007438Y-100780735D01*
X154007438Y-100780735D02*
X154626485Y-100780735D01*
X137523695Y-97219219D02*
X138095123Y-97219219D01*
X137809409Y-98219219D02*
X137809409Y-97219219D01*
X138428457Y-98219219D02*
X138428457Y-97219219D01*
X138428457Y-97219219D02*
X138809409Y-97219219D01*
X138809409Y-97219219D02*
X138904647Y-97266838D01*
X138904647Y-97266838D02*
X138952266Y-97314457D01*
X138952266Y-97314457D02*
X138999885Y-97409695D01*
X138999885Y-97409695D02*
X138999885Y-97552552D01*
X138999885Y-97552552D02*
X138952266Y-97647790D01*
X138952266Y-97647790D02*
X138904647Y-97695409D01*
X138904647Y-97695409D02*
X138809409Y-97743028D01*
X138809409Y-97743028D02*
X138428457Y-97743028D01*
X139571314Y-97647790D02*
X139476076Y-97600171D01*
X139476076Y-97600171D02*
X139428457Y-97552552D01*
X139428457Y-97552552D02*
X139380838Y-97457314D01*
X139380838Y-97457314D02*
X139380838Y-97409695D01*
X139380838Y-97409695D02*
X139428457Y-97314457D01*
X139428457Y-97314457D02*
X139476076Y-97266838D01*
X139476076Y-97266838D02*
X139571314Y-97219219D01*
X139571314Y-97219219D02*
X139761790Y-97219219D01*
X139761790Y-97219219D02*
X139857028Y-97266838D01*
X139857028Y-97266838D02*
X139904647Y-97314457D01*
X139904647Y-97314457D02*
X139952266Y-97409695D01*
X139952266Y-97409695D02*
X139952266Y-97457314D01*
X139952266Y-97457314D02*
X139904647Y-97552552D01*
X139904647Y-97552552D02*
X139857028Y-97600171D01*
X139857028Y-97600171D02*
X139761790Y-97647790D01*
X139761790Y-97647790D02*
X139571314Y-97647790D01*
X139571314Y-97647790D02*
X139476076Y-97695409D01*
X139476076Y-97695409D02*
X139428457Y-97743028D01*
X139428457Y-97743028D02*
X139380838Y-97838266D01*
X139380838Y-97838266D02*
X139380838Y-98028742D01*
X139380838Y-98028742D02*
X139428457Y-98123980D01*
X139428457Y-98123980D02*
X139476076Y-98171600D01*
X139476076Y-98171600D02*
X139571314Y-98219219D01*
X139571314Y-98219219D02*
X139761790Y-98219219D01*
X139761790Y-98219219D02*
X139857028Y-98171600D01*
X139857028Y-98171600D02*
X139904647Y-98123980D01*
X139904647Y-98123980D02*
X139952266Y-98028742D01*
X139952266Y-98028742D02*
X139952266Y-97838266D01*
X139952266Y-97838266D02*
X139904647Y-97743028D01*
X139904647Y-97743028D02*
X139857028Y-97695409D01*
X139857028Y-97695409D02*
X139761790Y-97647790D01*
X123521450Y-109892131D02*
X123569070Y-109939750D01*
X123569070Y-109939750D02*
X123616689Y-110082607D01*
X123616689Y-110082607D02*
X123616689Y-110177845D01*
X123616689Y-110177845D02*
X123569070Y-110320702D01*
X123569070Y-110320702D02*
X123473831Y-110415940D01*
X123473831Y-110415940D02*
X123378593Y-110463559D01*
X123378593Y-110463559D02*
X123188117Y-110511178D01*
X123188117Y-110511178D02*
X123045260Y-110511178D01*
X123045260Y-110511178D02*
X122854784Y-110463559D01*
X122854784Y-110463559D02*
X122759546Y-110415940D01*
X122759546Y-110415940D02*
X122664308Y-110320702D01*
X122664308Y-110320702D02*
X122616689Y-110177845D01*
X122616689Y-110177845D02*
X122616689Y-110082607D01*
X122616689Y-110082607D02*
X122664308Y-109939750D01*
X122664308Y-109939750D02*
X122711927Y-109892131D01*
X122616689Y-109558797D02*
X122616689Y-108939750D01*
X122616689Y-108939750D02*
X122997641Y-109273083D01*
X122997641Y-109273083D02*
X122997641Y-109130226D01*
X122997641Y-109130226D02*
X123045260Y-109034988D01*
X123045260Y-109034988D02*
X123092879Y-108987369D01*
X123092879Y-108987369D02*
X123188117Y-108939750D01*
X123188117Y-108939750D02*
X123426212Y-108939750D01*
X123426212Y-108939750D02*
X123521450Y-108987369D01*
X123521450Y-108987369D02*
X123569070Y-109034988D01*
X123569070Y-109034988D02*
X123616689Y-109130226D01*
X123616689Y-109130226D02*
X123616689Y-109415940D01*
X123616689Y-109415940D02*
X123569070Y-109511178D01*
X123569070Y-109511178D02*
X123521450Y-109558797D01*
X150878333Y-98862319D02*
X150545000Y-98386128D01*
X150306905Y-98862319D02*
X150306905Y-97862319D01*
X150306905Y-97862319D02*
X150687857Y-97862319D01*
X150687857Y-97862319D02*
X150783095Y-97909938D01*
X150783095Y-97909938D02*
X150830714Y-97957557D01*
X150830714Y-97957557D02*
X150878333Y-98052795D01*
X150878333Y-98052795D02*
X150878333Y-98195652D01*
X150878333Y-98195652D02*
X150830714Y-98290890D01*
X150830714Y-98290890D02*
X150783095Y-98338509D01*
X150783095Y-98338509D02*
X150687857Y-98386128D01*
X150687857Y-98386128D02*
X150306905Y-98386128D01*
X151211667Y-97862319D02*
X151878333Y-97862319D01*
X151878333Y-97862319D02*
X151449762Y-98862319D01*
X155332133Y-92044569D02*
X154998800Y-91568378D01*
X154760705Y-92044569D02*
X154760705Y-91044569D01*
X154760705Y-91044569D02*
X155141657Y-91044569D01*
X155141657Y-91044569D02*
X155236895Y-91092188D01*
X155236895Y-91092188D02*
X155284514Y-91139807D01*
X155284514Y-91139807D02*
X155332133Y-91235045D01*
X155332133Y-91235045D02*
X155332133Y-91377902D01*
X155332133Y-91377902D02*
X155284514Y-91473140D01*
X155284514Y-91473140D02*
X155236895Y-91520759D01*
X155236895Y-91520759D02*
X155141657Y-91568378D01*
X155141657Y-91568378D02*
X154760705Y-91568378D01*
X156236895Y-91044569D02*
X155760705Y-91044569D01*
X155760705Y-91044569D02*
X155713086Y-91520759D01*
X155713086Y-91520759D02*
X155760705Y-91473140D01*
X155760705Y-91473140D02*
X155855943Y-91425521D01*
X155855943Y-91425521D02*
X156094038Y-91425521D01*
X156094038Y-91425521D02*
X156189276Y-91473140D01*
X156189276Y-91473140D02*
X156236895Y-91520759D01*
X156236895Y-91520759D02*
X156284514Y-91615997D01*
X156284514Y-91615997D02*
X156284514Y-91854092D01*
X156284514Y-91854092D02*
X156236895Y-91949330D01*
X156236895Y-91949330D02*
X156189276Y-91996950D01*
X156189276Y-91996950D02*
X156094038Y-92044569D01*
X156094038Y-92044569D02*
X155855943Y-92044569D01*
X155855943Y-92044569D02*
X155760705Y-91996950D01*
X155760705Y-91996950D02*
X155713086Y-91949330D01*
X149156895Y-102451619D02*
X149728323Y-102451619D01*
X149442609Y-103451619D02*
X149442609Y-102451619D01*
X150061657Y-103451619D02*
X150061657Y-102451619D01*
X150061657Y-102451619D02*
X150442609Y-102451619D01*
X150442609Y-102451619D02*
X150537847Y-102499238D01*
X150537847Y-102499238D02*
X150585466Y-102546857D01*
X150585466Y-102546857D02*
X150633085Y-102642095D01*
X150633085Y-102642095D02*
X150633085Y-102784952D01*
X150633085Y-102784952D02*
X150585466Y-102880190D01*
X150585466Y-102880190D02*
X150537847Y-102927809D01*
X150537847Y-102927809D02*
X150442609Y-102975428D01*
X150442609Y-102975428D02*
X150061657Y-102975428D01*
X151585466Y-103451619D02*
X151014038Y-103451619D01*
X151299752Y-103451619D02*
X151299752Y-102451619D01*
X151299752Y-102451619D02*
X151204514Y-102594476D01*
X151204514Y-102594476D02*
X151109276Y-102689714D01*
X151109276Y-102689714D02*
X151014038Y-102737333D01*
X135066305Y-97879619D02*
X135637733Y-97879619D01*
X135352019Y-98879619D02*
X135352019Y-97879619D01*
X135971067Y-98879619D02*
X135971067Y-97879619D01*
X135971067Y-97879619D02*
X136352019Y-97879619D01*
X136352019Y-97879619D02*
X136447257Y-97927238D01*
X136447257Y-97927238D02*
X136494876Y-97974857D01*
X136494876Y-97974857D02*
X136542495Y-98070095D01*
X136542495Y-98070095D02*
X136542495Y-98212952D01*
X136542495Y-98212952D02*
X136494876Y-98308190D01*
X136494876Y-98308190D02*
X136447257Y-98355809D01*
X136447257Y-98355809D02*
X136352019Y-98403428D01*
X136352019Y-98403428D02*
X135971067Y-98403428D01*
X137494876Y-98879619D02*
X136923448Y-98879619D01*
X137209162Y-98879619D02*
X137209162Y-97879619D01*
X137209162Y-97879619D02*
X137113924Y-98022476D01*
X137113924Y-98022476D02*
X137018686Y-98117714D01*
X137018686Y-98117714D02*
X136923448Y-98165333D01*
X137875829Y-97974857D02*
X137923448Y-97927238D01*
X137923448Y-97927238D02*
X138018686Y-97879619D01*
X138018686Y-97879619D02*
X138256781Y-97879619D01*
X138256781Y-97879619D02*
X138352019Y-97927238D01*
X138352019Y-97927238D02*
X138399638Y-97974857D01*
X138399638Y-97974857D02*
X138447257Y-98070095D01*
X138447257Y-98070095D02*
X138447257Y-98165333D01*
X138447257Y-98165333D02*
X138399638Y-98308190D01*
X138399638Y-98308190D02*
X137828210Y-98879619D01*
X137828210Y-98879619D02*
X138447257Y-98879619D01*
X124620495Y-104636019D02*
X125191923Y-104636019D01*
X124906209Y-105636019D02*
X124906209Y-104636019D01*
X125525257Y-105636019D02*
X125525257Y-104636019D01*
X125525257Y-104636019D02*
X125906209Y-104636019D01*
X125906209Y-104636019D02*
X126001447Y-104683638D01*
X126001447Y-104683638D02*
X126049066Y-104731257D01*
X126049066Y-104731257D02*
X126096685Y-104826495D01*
X126096685Y-104826495D02*
X126096685Y-104969352D01*
X126096685Y-104969352D02*
X126049066Y-105064590D01*
X126049066Y-105064590D02*
X126001447Y-105112209D01*
X126001447Y-105112209D02*
X125906209Y-105159828D01*
X125906209Y-105159828D02*
X125525257Y-105159828D01*
X126572876Y-105636019D02*
X126763352Y-105636019D01*
X126763352Y-105636019D02*
X126858590Y-105588400D01*
X126858590Y-105588400D02*
X126906209Y-105540780D01*
X126906209Y-105540780D02*
X127001447Y-105397923D01*
X127001447Y-105397923D02*
X127049066Y-105207447D01*
X127049066Y-105207447D02*
X127049066Y-104826495D01*
X127049066Y-104826495D02*
X127001447Y-104731257D01*
X127001447Y-104731257D02*
X126953828Y-104683638D01*
X126953828Y-104683638D02*
X126858590Y-104636019D01*
X126858590Y-104636019D02*
X126668114Y-104636019D01*
X126668114Y-104636019D02*
X126572876Y-104683638D01*
X126572876Y-104683638D02*
X126525257Y-104731257D01*
X126525257Y-104731257D02*
X126477638Y-104826495D01*
X126477638Y-104826495D02*
X126477638Y-105064590D01*
X126477638Y-105064590D02*
X126525257Y-105159828D01*
X126525257Y-105159828D02*
X126572876Y-105207447D01*
X126572876Y-105207447D02*
X126668114Y-105255066D01*
X126668114Y-105255066D02*
X126858590Y-105255066D01*
X126858590Y-105255066D02*
X126953828Y-105207447D01*
X126953828Y-105207447D02*
X127001447Y-105159828D01*
X127001447Y-105159828D02*
X127049066Y-105064590D01*
D10*
X143716095Y-96591418D02*
X143716095Y-97400941D01*
X143716095Y-97400941D02*
X143763714Y-97496179D01*
X143763714Y-97496179D02*
X143811333Y-97543799D01*
X143811333Y-97543799D02*
X143906571Y-97591418D01*
X143906571Y-97591418D02*
X144097047Y-97591418D01*
X144097047Y-97591418D02*
X144192285Y-97543799D01*
X144192285Y-97543799D02*
X144239904Y-97496179D01*
X144239904Y-97496179D02*
X144287523Y-97400941D01*
X144287523Y-97400941D02*
X144287523Y-96591418D01*
X144668476Y-96591418D02*
X145287523Y-96591418D01*
X145287523Y-96591418D02*
X144954190Y-96972370D01*
X144954190Y-96972370D02*
X145097047Y-96972370D01*
X145097047Y-96972370D02*
X145192285Y-97019989D01*
X145192285Y-97019989D02*
X145239904Y-97067608D01*
X145239904Y-97067608D02*
X145287523Y-97162846D01*
X145287523Y-97162846D02*
X145287523Y-97400941D01*
X145287523Y-97400941D02*
X145239904Y-97496179D01*
X145239904Y-97496179D02*
X145192285Y-97543799D01*
X145192285Y-97543799D02*
X145097047Y-97591418D01*
X145097047Y-97591418D02*
X144811333Y-97591418D01*
X144811333Y-97591418D02*
X144716095Y-97543799D01*
X144716095Y-97543799D02*
X144668476Y-97496179D01*
D11*
X150407905Y-96101619D02*
X150979333Y-96101619D01*
X150693619Y-97101619D02*
X150693619Y-96101619D01*
X151312667Y-97101619D02*
X151312667Y-96101619D01*
X151312667Y-96101619D02*
X151693619Y-96101619D01*
X151693619Y-96101619D02*
X151788857Y-96149238D01*
X151788857Y-96149238D02*
X151836476Y-96196857D01*
X151836476Y-96196857D02*
X151884095Y-96292095D01*
X151884095Y-96292095D02*
X151884095Y-96434952D01*
X151884095Y-96434952D02*
X151836476Y-96530190D01*
X151836476Y-96530190D02*
X151788857Y-96577809D01*
X151788857Y-96577809D02*
X151693619Y-96625428D01*
X151693619Y-96625428D02*
X151312667Y-96625428D01*
X152836476Y-97101619D02*
X152265048Y-97101619D01*
X152550762Y-97101619D02*
X152550762Y-96101619D01*
X152550762Y-96101619D02*
X152455524Y-96244476D01*
X152455524Y-96244476D02*
X152360286Y-96339714D01*
X152360286Y-96339714D02*
X152265048Y-96387333D01*
X153741238Y-96101619D02*
X153265048Y-96101619D01*
X153265048Y-96101619D02*
X153217429Y-96577809D01*
X153217429Y-96577809D02*
X153265048Y-96530190D01*
X153265048Y-96530190D02*
X153360286Y-96482571D01*
X153360286Y-96482571D02*
X153598381Y-96482571D01*
X153598381Y-96482571D02*
X153693619Y-96530190D01*
X153693619Y-96530190D02*
X153741238Y-96577809D01*
X153741238Y-96577809D02*
X153788857Y-96673047D01*
X153788857Y-96673047D02*
X153788857Y-96911142D01*
X153788857Y-96911142D02*
X153741238Y-97006380D01*
X153741238Y-97006380D02*
X153693619Y-97054000D01*
X153693619Y-97054000D02*
X153598381Y-97101619D01*
X153598381Y-97101619D02*
X153360286Y-97101619D01*
X153360286Y-97101619D02*
X153265048Y-97054000D01*
X153265048Y-97054000D02*
X153217429Y-97006380D01*
X140690133Y-101865880D02*
X140642514Y-101913500D01*
X140642514Y-101913500D02*
X140499657Y-101961119D01*
X140499657Y-101961119D02*
X140404419Y-101961119D01*
X140404419Y-101961119D02*
X140261562Y-101913500D01*
X140261562Y-101913500D02*
X140166324Y-101818261D01*
X140166324Y-101818261D02*
X140118705Y-101723023D01*
X140118705Y-101723023D02*
X140071086Y-101532547D01*
X140071086Y-101532547D02*
X140071086Y-101389690D01*
X140071086Y-101389690D02*
X140118705Y-101199214D01*
X140118705Y-101199214D02*
X140166324Y-101103976D01*
X140166324Y-101103976D02*
X140261562Y-101008738D01*
X140261562Y-101008738D02*
X140404419Y-100961119D01*
X140404419Y-100961119D02*
X140499657Y-100961119D01*
X140499657Y-100961119D02*
X140642514Y-101008738D01*
X140642514Y-101008738D02*
X140690133Y-101056357D01*
X141547276Y-100961119D02*
X141356800Y-100961119D01*
X141356800Y-100961119D02*
X141261562Y-101008738D01*
X141261562Y-101008738D02*
X141213943Y-101056357D01*
X141213943Y-101056357D02*
X141118705Y-101199214D01*
X141118705Y-101199214D02*
X141071086Y-101389690D01*
X141071086Y-101389690D02*
X141071086Y-101770642D01*
X141071086Y-101770642D02*
X141118705Y-101865880D01*
X141118705Y-101865880D02*
X141166324Y-101913500D01*
X141166324Y-101913500D02*
X141261562Y-101961119D01*
X141261562Y-101961119D02*
X141452038Y-101961119D01*
X141452038Y-101961119D02*
X141547276Y-101913500D01*
X141547276Y-101913500D02*
X141594895Y-101865880D01*
X141594895Y-101865880D02*
X141642514Y-101770642D01*
X141642514Y-101770642D02*
X141642514Y-101532547D01*
X141642514Y-101532547D02*
X141594895Y-101437309D01*
X141594895Y-101437309D02*
X141547276Y-101389690D01*
X141547276Y-101389690D02*
X141452038Y-101342071D01*
X141452038Y-101342071D02*
X141261562Y-101342071D01*
X141261562Y-101342071D02*
X141166324Y-101389690D01*
X141166324Y-101389690D02*
X141118705Y-101437309D01*
X141118705Y-101437309D02*
X141071086Y-101532547D01*
X133386533Y-85398780D02*
X133338914Y-85446400D01*
X133338914Y-85446400D02*
X133196057Y-85494019D01*
X133196057Y-85494019D02*
X133100819Y-85494019D01*
X133100819Y-85494019D02*
X132957962Y-85446400D01*
X132957962Y-85446400D02*
X132862724Y-85351161D01*
X132862724Y-85351161D02*
X132815105Y-85255923D01*
X132815105Y-85255923D02*
X132767486Y-85065447D01*
X132767486Y-85065447D02*
X132767486Y-84922590D01*
X132767486Y-84922590D02*
X132815105Y-84732114D01*
X132815105Y-84732114D02*
X132862724Y-84636876D01*
X132862724Y-84636876D02*
X132957962Y-84541638D01*
X132957962Y-84541638D02*
X133100819Y-84494019D01*
X133100819Y-84494019D02*
X133196057Y-84494019D01*
X133196057Y-84494019D02*
X133338914Y-84541638D01*
X133338914Y-84541638D02*
X133386533Y-84589257D01*
X134338914Y-85494019D02*
X133767486Y-85494019D01*
X134053200Y-85494019D02*
X134053200Y-84494019D01*
X134053200Y-84494019D02*
X133957962Y-84636876D01*
X133957962Y-84636876D02*
X133862724Y-84732114D01*
X133862724Y-84732114D02*
X133767486Y-84779733D01*
X164894419Y-101969866D02*
X164418228Y-102303199D01*
X164894419Y-102541294D02*
X163894419Y-102541294D01*
X163894419Y-102541294D02*
X163894419Y-102160342D01*
X163894419Y-102160342D02*
X163942038Y-102065104D01*
X163942038Y-102065104D02*
X163989657Y-102017485D01*
X163989657Y-102017485D02*
X164084895Y-101969866D01*
X164084895Y-101969866D02*
X164227752Y-101969866D01*
X164227752Y-101969866D02*
X164322990Y-102017485D01*
X164322990Y-102017485D02*
X164370609Y-102065104D01*
X164370609Y-102065104D02*
X164418228Y-102160342D01*
X164418228Y-102160342D02*
X164418228Y-102541294D01*
X163989657Y-101588913D02*
X163942038Y-101541294D01*
X163942038Y-101541294D02*
X163894419Y-101446056D01*
X163894419Y-101446056D02*
X163894419Y-101207961D01*
X163894419Y-101207961D02*
X163942038Y-101112723D01*
X163942038Y-101112723D02*
X163989657Y-101065104D01*
X163989657Y-101065104D02*
X164084895Y-101017485D01*
X164084895Y-101017485D02*
X164180133Y-101017485D01*
X164180133Y-101017485D02*
X164322990Y-101065104D01*
X164322990Y-101065104D02*
X164894419Y-101636532D01*
X164894419Y-101636532D02*
X164894419Y-101017485D01*
X167102680Y-104625266D02*
X167150300Y-104672885D01*
X167150300Y-104672885D02*
X167197919Y-104815742D01*
X167197919Y-104815742D02*
X167197919Y-104910980D01*
X167197919Y-104910980D02*
X167150300Y-105053837D01*
X167150300Y-105053837D02*
X167055061Y-105149075D01*
X167055061Y-105149075D02*
X166959823Y-105196694D01*
X166959823Y-105196694D02*
X166769347Y-105244313D01*
X166769347Y-105244313D02*
X166626490Y-105244313D01*
X166626490Y-105244313D02*
X166436014Y-105196694D01*
X166436014Y-105196694D02*
X166340776Y-105149075D01*
X166340776Y-105149075D02*
X166245538Y-105053837D01*
X166245538Y-105053837D02*
X166197919Y-104910980D01*
X166197919Y-104910980D02*
X166197919Y-104815742D01*
X166197919Y-104815742D02*
X166245538Y-104672885D01*
X166245538Y-104672885D02*
X166293157Y-104625266D01*
X166197919Y-103720504D02*
X166197919Y-104196694D01*
X166197919Y-104196694D02*
X166674109Y-104244313D01*
X166674109Y-104244313D02*
X166626490Y-104196694D01*
X166626490Y-104196694D02*
X166578871Y-104101456D01*
X166578871Y-104101456D02*
X166578871Y-103863361D01*
X166578871Y-103863361D02*
X166626490Y-103768123D01*
X166626490Y-103768123D02*
X166674109Y-103720504D01*
X166674109Y-103720504D02*
X166769347Y-103672885D01*
X166769347Y-103672885D02*
X167007442Y-103672885D01*
X167007442Y-103672885D02*
X167102680Y-103720504D01*
X167102680Y-103720504D02*
X167150300Y-103768123D01*
X167150300Y-103768123D02*
X167197919Y-103863361D01*
X167197919Y-103863361D02*
X167197919Y-104101456D01*
X167197919Y-104101456D02*
X167150300Y-104196694D01*
X167150300Y-104196694D02*
X167102680Y-104244313D01*
X155773633Y-93816569D02*
X155440300Y-93340378D01*
X155202205Y-93816569D02*
X155202205Y-92816569D01*
X155202205Y-92816569D02*
X155583157Y-92816569D01*
X155583157Y-92816569D02*
X155678395Y-92864188D01*
X155678395Y-92864188D02*
X155726014Y-92911807D01*
X155726014Y-92911807D02*
X155773633Y-93007045D01*
X155773633Y-93007045D02*
X155773633Y-93149902D01*
X155773633Y-93149902D02*
X155726014Y-93245140D01*
X155726014Y-93245140D02*
X155678395Y-93292759D01*
X155678395Y-93292759D02*
X155583157Y-93340378D01*
X155583157Y-93340378D02*
X155202205Y-93340378D01*
X156249824Y-93816569D02*
X156440300Y-93816569D01*
X156440300Y-93816569D02*
X156535538Y-93768950D01*
X156535538Y-93768950D02*
X156583157Y-93721330D01*
X156583157Y-93721330D02*
X156678395Y-93578473D01*
X156678395Y-93578473D02*
X156726014Y-93387997D01*
X156726014Y-93387997D02*
X156726014Y-93007045D01*
X156726014Y-93007045D02*
X156678395Y-92911807D01*
X156678395Y-92911807D02*
X156630776Y-92864188D01*
X156630776Y-92864188D02*
X156535538Y-92816569D01*
X156535538Y-92816569D02*
X156345062Y-92816569D01*
X156345062Y-92816569D02*
X156249824Y-92864188D01*
X156249824Y-92864188D02*
X156202205Y-92911807D01*
X156202205Y-92911807D02*
X156154586Y-93007045D01*
X156154586Y-93007045D02*
X156154586Y-93245140D01*
X156154586Y-93245140D02*
X156202205Y-93340378D01*
X156202205Y-93340378D02*
X156249824Y-93387997D01*
X156249824Y-93387997D02*
X156345062Y-93435616D01*
X156345062Y-93435616D02*
X156535538Y-93435616D01*
X156535538Y-93435616D02*
X156630776Y-93387997D01*
X156630776Y-93387997D02*
X156678395Y-93340378D01*
X156678395Y-93340378D02*
X156726014Y-93245140D01*
D12*
%TO.C,TP11*%
X126582400Y-109016800D02*
G75*
G02*
X125182400Y-109016800I-700000J0D01*
G01*
X125182400Y-109016800D02*
G75*
G02*
X126582400Y-109016800I700000J0D01*
G01*
%TO.C,R8*%
X167281500Y-95418724D02*
X167281500Y-94909276D01*
X168326500Y-95418724D02*
X168326500Y-94909276D01*
%TO.C,R4*%
X135230324Y-96505500D02*
X134720876Y-96505500D01*
X135230324Y-97550500D02*
X134720876Y-97550500D01*
D13*
%TO.C,U8*%
X161314300Y-96448600D02*
X161314300Y-101198400D01*
X166673700Y-101198400D02*
X166673700Y-96448600D01*
D14*
G36*
X163534501Y-102989100D02*
G01*
X163153501Y-102989100D01*
X163153501Y-102735100D01*
X163534501Y-102735100D01*
X163534501Y-102989100D01*
G37*
D12*
%TO.C,C9*%
X125556001Y-103168233D02*
X125556001Y-103460767D01*
X126576001Y-103168233D02*
X126576001Y-103460767D01*
%TO.C,R6*%
X156209276Y-92492300D02*
X156718724Y-92492300D01*
X156209276Y-93537300D02*
X156718724Y-93537300D01*
%TO.C,R1*%
X161189124Y-88275900D02*
X160679676Y-88275900D01*
X161189124Y-89320900D02*
X160679676Y-89320900D01*
%TO.C,TP5*%
X155335200Y-98602800D02*
G75*
G02*
X153935200Y-98602800I-700000J0D01*
G01*
X153935200Y-98602800D02*
G75*
G02*
X155335200Y-98602800I700000J0D01*
G01*
%TO.C,C11*%
X164488400Y-91586267D02*
X164488400Y-91293733D01*
X165508400Y-91586267D02*
X165508400Y-91293733D01*
%TO.C,TP13*%
X155538400Y-106984800D02*
G75*
G02*
X154138400Y-106984800I-700000J0D01*
G01*
X154138400Y-106984800D02*
G75*
G02*
X155538400Y-106984800I700000J0D01*
G01*
%TO.C,R13*%
X159649900Y-99516476D02*
X159649900Y-100025924D01*
X160694900Y-99516476D02*
X160694900Y-100025924D01*
%TO.C,TP14*%
X163006000Y-104292400D02*
G75*
G02*
X161606000Y-104292400I-700000J0D01*
G01*
X161606000Y-104292400D02*
G75*
G02*
X163006000Y-104292400I700000J0D01*
G01*
%TO.C,R15*%
X167281500Y-98465276D02*
X167281500Y-98974724D01*
X168326500Y-98465276D02*
X168326500Y-98974724D01*
%TO.C,TP6*%
X139536400Y-101498400D02*
G75*
G02*
X138136400Y-101498400I-700000J0D01*
G01*
X138136400Y-101498400D02*
G75*
G02*
X139536400Y-101498400I700000J0D01*
G01*
%TO.C,R14*%
X157937924Y-98181900D02*
X157428476Y-98181900D01*
X157937924Y-99226900D02*
X157428476Y-99226900D01*
%TO.C,C2*%
X120873870Y-106785198D02*
X120873870Y-107077732D01*
X121893870Y-106785198D02*
X121893870Y-107077732D01*
%TO.C,TP10*%
X134761200Y-100330000D02*
G75*
G02*
X133361200Y-100330000I-700000J0D01*
G01*
X133361200Y-100330000D02*
G75*
G02*
X134761200Y-100330000I700000J0D01*
G01*
%TO.C,U2*%
X151360300Y-92851750D02*
X152770300Y-92851750D01*
X151370300Y-95171750D02*
X152770300Y-95171750D01*
X150990300Y-92901750D02*
X150750300Y-92571750D01*
X151230300Y-92571750D01*
X150990300Y-92901750D01*
G36*
X150990300Y-92901750D02*
G01*
X150750300Y-92571750D01*
X151230300Y-92571750D01*
X150990300Y-92901750D01*
G37*
%TO.C,TP3*%
X138723600Y-104749600D02*
G75*
G02*
X137323600Y-104749600I-700000J0D01*
G01*
X137323600Y-104749600D02*
G75*
G02*
X138723600Y-104749600I700000J0D01*
G01*
%TO.C,R3*%
X130607524Y-90358700D02*
X130098076Y-90358700D01*
X130607524Y-91403700D02*
X130098076Y-91403700D01*
%TO.C,C12*%
X162710400Y-91586267D02*
X162710400Y-91293733D01*
X163730400Y-91586267D02*
X163730400Y-91293733D01*
%TO.C,D1*%
X165520000Y-103044400D02*
X165520000Y-106304400D01*
X167220000Y-103044400D02*
X165520000Y-103044400D01*
X167220000Y-103044400D02*
X167220000Y-106304400D01*
%TO.C,C4*%
X147406200Y-101099800D02*
X147406200Y-102709800D01*
X147406200Y-102709800D02*
X150301200Y-102709800D01*
X150301200Y-101099800D02*
X147406200Y-101099800D01*
%TO.C,C7*%
X154772200Y-90431800D02*
X154772200Y-92041800D01*
X154772200Y-92041800D02*
X157667200Y-92041800D01*
X157667200Y-90431800D02*
X154772200Y-90431800D01*
%TO.C,C8*%
X127334001Y-103168233D02*
X127334001Y-103460767D01*
X128354001Y-103168233D02*
X128354001Y-103460767D01*
%TO.C,C10*%
X146015200Y-95191400D02*
X148910200Y-95191400D01*
X148910200Y-93581400D02*
X146015200Y-93581400D01*
X148910200Y-95191400D02*
X148910200Y-93581400D01*
%TO.C,C16*%
X147397000Y-98952267D02*
X147397000Y-98659733D01*
X148417000Y-98952267D02*
X148417000Y-98659733D01*
%TO.C,R12*%
X159649900Y-96060176D02*
X159649900Y-96569624D01*
X160694900Y-96060176D02*
X160694900Y-96569624D01*
%TO.C,TP2*%
X123839200Y-101041200D02*
G75*
G02*
X122439200Y-101041200I-700000J0D01*
G01*
X122439200Y-101041200D02*
G75*
G02*
X123839200Y-101041200I700000J0D01*
G01*
%TO.C,TP7*%
X122061200Y-103784400D02*
G75*
G02*
X120661200Y-103784400I-700000J0D01*
G01*
X120661200Y-103784400D02*
G75*
G02*
X122061200Y-103784400I700000J0D01*
G01*
D13*
%TO.C,U5*%
X129117999Y-103576986D02*
X129117999Y-107941501D01*
X135975999Y-107941514D02*
X135975999Y-103576999D01*
D14*
G36*
X129812501Y-101847650D02*
G01*
X129431501Y-101847650D01*
X129431501Y-101593650D01*
X129812501Y-101593650D01*
X129812501Y-101847650D01*
G37*
G36*
X135662497Y-109924850D02*
G01*
X135281497Y-109924850D01*
X135281497Y-109670850D01*
X135662497Y-109670850D01*
X135662497Y-109924850D01*
G37*
D12*
%TO.C,TP4*%
X153760400Y-101854000D02*
G75*
G02*
X152360400Y-101854000I-700000J0D01*
G01*
X152360400Y-101854000D02*
G75*
G02*
X153760400Y-101854000I700000J0D01*
G01*
%TO.C,TP8*%
X139485600Y-99212400D02*
G75*
G02*
X138085600Y-99212400I-700000J0D01*
G01*
X138085600Y-99212400D02*
G75*
G02*
X139485600Y-99212400I700000J0D01*
G01*
%TO.C,C3*%
X122651870Y-106785198D02*
X122651870Y-107077732D01*
X123671870Y-106785198D02*
X123671870Y-107077732D01*
%TO.C,R7*%
X150701724Y-99299500D02*
X150192276Y-99299500D01*
X150701724Y-100344500D02*
X150192276Y-100344500D01*
%TO.C,R5*%
X152600576Y-91170750D02*
X153110024Y-91170750D01*
X152600576Y-92215750D02*
X153110024Y-92215750D01*
%TO.C,TP1*%
X151118800Y-104444800D02*
G75*
G02*
X149718800Y-104444800I-700000J0D01*
G01*
X149718800Y-104444800D02*
G75*
G02*
X151118800Y-104444800I700000J0D01*
G01*
%TO.C,TP12*%
X137504400Y-99872800D02*
G75*
G02*
X136104400Y-99872800I-700000J0D01*
G01*
X136104400Y-99872800D02*
G75*
G02*
X137504400Y-99872800I700000J0D01*
G01*
%TO.C,TP9*%
X126582400Y-106629200D02*
G75*
G02*
X125182400Y-106629200I-700000J0D01*
G01*
X125182400Y-106629200D02*
G75*
G02*
X126582400Y-106629200I700000J0D01*
G01*
D14*
%TO.C,G\u002A\u002A\u002A*%
G36*
X124497192Y-83993717D02*
G01*
X124485853Y-84005057D01*
X124474514Y-83993717D01*
X124485853Y-83982378D01*
X124497192Y-83993717D01*
G37*
G36*
X124950764Y-83653539D02*
G01*
X124939425Y-83664878D01*
X124928085Y-83653539D01*
X124939425Y-83642200D01*
X124950764Y-83653539D01*
G37*
G36*
X126084692Y-81771217D02*
G01*
X126073353Y-81782557D01*
X126062014Y-81771217D01*
X126073353Y-81759878D01*
X126084692Y-81771217D01*
G37*
G36*
X121677490Y-85713509D02*
G01*
X121680204Y-85740423D01*
X121677490Y-85743747D01*
X121664008Y-85740634D01*
X121662371Y-85728628D01*
X121670669Y-85709961D01*
X121677490Y-85713509D01*
G37*
G36*
X124988561Y-82470473D02*
G01*
X124991276Y-82497387D01*
X124988561Y-82500711D01*
X124975079Y-82497598D01*
X124973442Y-82485592D01*
X124981740Y-82466925D01*
X124988561Y-82470473D01*
G37*
G36*
X126190526Y-81744759D02*
G01*
X126187413Y-81758241D01*
X126175407Y-81759878D01*
X126156740Y-81751580D01*
X126160288Y-81744759D01*
X126187202Y-81742045D01*
X126190526Y-81744759D01*
G37*
G36*
X121846551Y-85858396D02*
G01*
X121847620Y-85859448D01*
X121863607Y-85898653D01*
X121861665Y-85913157D01*
X121849980Y-85918422D01*
X121837704Y-85889196D01*
X121832552Y-85854187D01*
X121846551Y-85858396D01*
G37*
G36*
X124282861Y-83579247D02*
G01*
X124294824Y-83589509D01*
X124301739Y-83618721D01*
X124285541Y-83674218D01*
X124249140Y-83752795D01*
X124212713Y-83822080D01*
X124183777Y-83871848D01*
X124168424Y-83891642D01*
X124168221Y-83891664D01*
X124170207Y-83872319D01*
X124185535Y-83821351D01*
X124210981Y-83749360D01*
X124213905Y-83741553D01*
X124241843Y-83665594D01*
X124262042Y-83607368D01*
X124270374Y-83578802D01*
X124270407Y-83578267D01*
X124282861Y-83579247D01*
G37*
G36*
X124860433Y-83710315D02*
G01*
X124822856Y-83754003D01*
X124764872Y-83815809D01*
X124700619Y-83881001D01*
X124629249Y-83949119D01*
X124571228Y-83999095D01*
X124532733Y-84025978D01*
X124519871Y-84025868D01*
X124533650Y-83979474D01*
X124548219Y-83956982D01*
X124582980Y-83921312D01*
X124637045Y-83872284D01*
X124701115Y-83817537D01*
X124765886Y-83764710D01*
X124822058Y-83721441D01*
X124860330Y-83695368D01*
X124871531Y-83691478D01*
X124860433Y-83710315D01*
G37*
G36*
X124529601Y-84136058D02*
G01*
X124555864Y-84258346D01*
X124568760Y-84408365D01*
X124567667Y-84570319D01*
X124552676Y-84723731D01*
X124490291Y-84996511D01*
X124389507Y-85246192D01*
X124252154Y-85470622D01*
X124080066Y-85667645D01*
X123875074Y-85835110D01*
X123639010Y-85970861D01*
X123416625Y-86059272D01*
X123316509Y-86090960D01*
X123252299Y-86108408D01*
X123217317Y-86112997D01*
X123204885Y-86106108D01*
X123204514Y-86103139D01*
X123215279Y-86080088D01*
X123244214Y-86027152D01*
X123286275Y-85953414D01*
X123314693Y-85904701D01*
X123362178Y-85823953D01*
X123401486Y-85757189D01*
X123438452Y-85694537D01*
X123478908Y-85626129D01*
X123528688Y-85542094D01*
X123593625Y-85432561D01*
X123622570Y-85383749D01*
X123687291Y-85279540D01*
X123761492Y-85167413D01*
X123830216Y-85069900D01*
X123836790Y-85061045D01*
X123895196Y-84978624D01*
X123966007Y-84872313D01*
X124039091Y-84757582D01*
X124088463Y-84676722D01*
X124164006Y-84555729D01*
X124241977Y-84440577D01*
X124318254Y-84336318D01*
X124388713Y-84248006D01*
X124449232Y-84180694D01*
X124495688Y-84139435D01*
X124523958Y-84129282D01*
X124529601Y-84136058D01*
G37*
G36*
X126015797Y-81796802D02*
G01*
X125975109Y-81832325D01*
X125923965Y-81870539D01*
X125802550Y-81972391D01*
X125669143Y-82112775D01*
X125522948Y-82292683D01*
X125363171Y-82513107D01*
X125189017Y-82775035D01*
X125153339Y-82830992D01*
X125089979Y-82931263D01*
X125033986Y-83020383D01*
X124990567Y-83090028D01*
X124964928Y-83131875D01*
X124961829Y-83137153D01*
X124939756Y-83175171D01*
X124901964Y-83239719D01*
X124855793Y-83318264D01*
X124845323Y-83336039D01*
X124794186Y-83423234D01*
X124745929Y-83506233D01*
X124710078Y-83568642D01*
X124706952Y-83574164D01*
X124658860Y-83658263D01*
X124608535Y-83744513D01*
X124561273Y-83824063D01*
X124522370Y-83888060D01*
X124497120Y-83927651D01*
X124490436Y-83936113D01*
X124479528Y-83916668D01*
X124454710Y-83865919D01*
X124420840Y-83793856D01*
X124412007Y-83774726D01*
X124338161Y-83614246D01*
X124563142Y-83203000D01*
X124661319Y-83024654D01*
X124748091Y-82869252D01*
X124821706Y-82739810D01*
X124880414Y-82639341D01*
X124922462Y-82570860D01*
X124946099Y-82537380D01*
X124950764Y-82536003D01*
X124941608Y-82560722D01*
X124916692Y-82617795D01*
X124879845Y-82698666D01*
X124835901Y-82792655D01*
X124766009Y-82941917D01*
X124700513Y-83084502D01*
X124641914Y-83214708D01*
X124592714Y-83326831D01*
X124555415Y-83415166D01*
X124532520Y-83474012D01*
X124526531Y-83497663D01*
X124526580Y-83497718D01*
X124541370Y-83482791D01*
X124577245Y-83436856D01*
X124629495Y-83366213D01*
X124693409Y-83277160D01*
X124725280Y-83231962D01*
X124924784Y-82951054D01*
X125103810Y-82706811D01*
X125264587Y-82496632D01*
X125409343Y-82317918D01*
X125540306Y-82168069D01*
X125659706Y-82044485D01*
X125769769Y-81944566D01*
X125872726Y-81865713D01*
X125925942Y-81831102D01*
X125991314Y-81794183D01*
X126021232Y-81783419D01*
X126015797Y-81796802D01*
G37*
G36*
X123070184Y-82885473D02*
G01*
X123172893Y-82887773D01*
X123250744Y-82893271D01*
X123313982Y-82903128D01*
X123372853Y-82918505D01*
X123437600Y-82940563D01*
X123445185Y-82943324D01*
X123648412Y-83028005D01*
X123823382Y-83126084D01*
X123987102Y-83248061D01*
X124094815Y-83344447D01*
X124156392Y-83400934D01*
X124204088Y-83441338D01*
X124229711Y-83458828D01*
X124231799Y-83458713D01*
X124243987Y-83436032D01*
X124272441Y-83381120D01*
X124312924Y-83302203D01*
X124361199Y-83207509D01*
X124361474Y-83206968D01*
X124414084Y-83105932D01*
X124455277Y-83031499D01*
X124483200Y-82986181D01*
X124495998Y-82972490D01*
X124491817Y-82992938D01*
X124468802Y-83050038D01*
X124456155Y-83078697D01*
X124426352Y-83149052D01*
X124388761Y-83243082D01*
X124350960Y-83341788D01*
X124346860Y-83352802D01*
X124309172Y-83446878D01*
X124278858Y-83507551D01*
X124257871Y-83531800D01*
X124248164Y-83516605D01*
X124247728Y-83506128D01*
X124239784Y-83479919D01*
X124216718Y-83494493D01*
X124179682Y-83548293D01*
X124129828Y-83639764D01*
X124092417Y-83715905D01*
X124050291Y-83803563D01*
X123992498Y-83922744D01*
X123923493Y-84064320D01*
X123847729Y-84219163D01*
X123769660Y-84378146D01*
X123725804Y-84467187D01*
X123469950Y-84986014D01*
X123229509Y-85227392D01*
X123125458Y-85333145D01*
X123003681Y-85458961D01*
X122877055Y-85591421D01*
X122758453Y-85717109D01*
X122719730Y-85758622D01*
X122622089Y-85863205D01*
X122549663Y-85938694D01*
X122497043Y-85989454D01*
X122458822Y-86019849D01*
X122429591Y-86034244D01*
X122403942Y-86037003D01*
X122379551Y-86033167D01*
X122257735Y-85991416D01*
X122119989Y-85918201D01*
X121975562Y-85819787D01*
X121833706Y-85702433D01*
X121711314Y-85580824D01*
X121594335Y-85452830D01*
X121594645Y-85573720D01*
X121598687Y-85672536D01*
X121609307Y-85744459D01*
X121625091Y-85782789D01*
X121639351Y-85785535D01*
X121649774Y-85798287D01*
X121654410Y-85843151D01*
X121654310Y-85859693D01*
X121666467Y-85940684D01*
X121701320Y-86037188D01*
X121751151Y-86131066D01*
X121794909Y-86190191D01*
X121834093Y-86224473D01*
X121885594Y-86258619D01*
X121934575Y-86284085D01*
X121966195Y-86292327D01*
X121969581Y-86290764D01*
X121966408Y-86267117D01*
X121950470Y-86212298D01*
X121925082Y-86137548D01*
X121921384Y-86127293D01*
X121894848Y-86051084D01*
X121876991Y-85993701D01*
X121871233Y-85966250D01*
X121871544Y-85965467D01*
X121884081Y-85981249D01*
X121912454Y-86029011D01*
X121951817Y-86100364D01*
X121978135Y-86149943D01*
X122022989Y-86232300D01*
X122061384Y-86296824D01*
X122087891Y-86334684D01*
X122095584Y-86340950D01*
X122119786Y-86327682D01*
X122170510Y-86292045D01*
X122239085Y-86240285D01*
X122282271Y-86206413D01*
X122451571Y-86071876D01*
X122561569Y-86107039D01*
X122648419Y-86125874D01*
X122767799Y-86139026D01*
X122907087Y-86145121D01*
X122912332Y-86145192D01*
X123153096Y-86148182D01*
X123061122Y-86284253D01*
X122974980Y-86399538D01*
X122879378Y-86507422D01*
X122783207Y-86599140D01*
X122695356Y-86665928D01*
X122648350Y-86691231D01*
X122525301Y-86722711D01*
X122403522Y-86717961D01*
X122297371Y-86677893D01*
X122231662Y-86647064D01*
X122143007Y-86616956D01*
X122071134Y-86598716D01*
X122040399Y-86590414D01*
X122410764Y-86590414D01*
X122429160Y-86609472D01*
X122475302Y-86610608D01*
X122535620Y-86594614D01*
X122565024Y-86581396D01*
X122626518Y-86540729D01*
X122669593Y-86501881D01*
X122690916Y-86476386D01*
X122687618Y-86470712D01*
X122654226Y-86485635D01*
X122605974Y-86510898D01*
X122536754Y-86543444D01*
X122477612Y-86564010D01*
X122454921Y-86567735D01*
X122418726Y-86577463D01*
X122410764Y-86590414D01*
X122040399Y-86590414D01*
X121971924Y-86571918D01*
X121867933Y-86534061D01*
X121771914Y-86490791D01*
X121717221Y-86459531D01*
X122195317Y-86459531D01*
X122196746Y-86472795D01*
X122240012Y-86473698D01*
X122271769Y-86470337D01*
X122336770Y-86458604D01*
X122382043Y-86443913D01*
X122390240Y-86438580D01*
X122382619Y-86428676D01*
X122340799Y-86426125D01*
X122313789Y-86427774D01*
X122248761Y-86438272D01*
X122202831Y-86454115D01*
X122195317Y-86459531D01*
X121717221Y-86459531D01*
X121696619Y-86447756D01*
X121658908Y-86416151D01*
X121633090Y-86367090D01*
X121603993Y-86283131D01*
X121573849Y-86174399D01*
X121563225Y-86129136D01*
X121639789Y-86129136D01*
X121654696Y-86179829D01*
X121693037Y-86244226D01*
X121745008Y-86310585D01*
X121800805Y-86367163D01*
X121850623Y-86402217D01*
X121872675Y-86408064D01*
X121900505Y-86404869D01*
X121900214Y-86391677D01*
X121868789Y-86360838D01*
X121846496Y-86341563D01*
X121785925Y-86280853D01*
X121724471Y-86205899D01*
X121704852Y-86178065D01*
X121666969Y-86124501D01*
X121646848Y-86107052D01*
X121639973Y-86122321D01*
X121639789Y-86129136D01*
X121563225Y-86129136D01*
X121544888Y-86051016D01*
X121519339Y-85923107D01*
X121499433Y-85800795D01*
X121487401Y-85694204D01*
X121484953Y-85626575D01*
X121486501Y-85568737D01*
X121488709Y-85548472D01*
X121492796Y-85568036D01*
X121499984Y-85629686D01*
X121503346Y-85660592D01*
X121517611Y-85761838D01*
X121536413Y-85853601D01*
X121557261Y-85927277D01*
X121577668Y-85974261D01*
X121595145Y-85985948D01*
X121597029Y-85984470D01*
X121603487Y-85953085D01*
X121597949Y-85896395D01*
X121593762Y-85876019D01*
X121583378Y-85808147D01*
X121575696Y-85714227D01*
X121572248Y-85613552D01*
X121572198Y-85604743D01*
X121569986Y-85511548D01*
X121561079Y-85439970D01*
X121541082Y-85372425D01*
X121505602Y-85291330D01*
X121481513Y-85241886D01*
X121378212Y-84984289D01*
X121318724Y-84721310D01*
X121302505Y-84457034D01*
X121329009Y-84195549D01*
X121397693Y-83940943D01*
X121508012Y-83697301D01*
X121659421Y-83468713D01*
X121728851Y-83385249D01*
X121851722Y-83268390D01*
X122008008Y-83154168D01*
X122186024Y-83050051D01*
X122374086Y-82963507D01*
X122410764Y-82949378D01*
X122479370Y-82924928D01*
X122539176Y-82907686D01*
X122600539Y-82896378D01*
X122673821Y-82889728D01*
X122769380Y-82886464D01*
X122897577Y-82885310D01*
X122932371Y-82885210D01*
X123070184Y-82885473D01*
G37*
%TO.C,U3*%
D10*
X142624000Y-101422000D02*
X145899000Y-101422000D01*
X145899000Y-98172000D01*
X142624000Y-98172000D01*
X142624000Y-101422000D01*
D14*
%TO.C,G\u002A\u002A\u002A*%
G36*
X168918189Y-78060256D02*
G01*
X168939610Y-78068924D01*
X168931448Y-78084115D01*
X168916962Y-78122670D01*
X168907742Y-78201153D01*
X168904361Y-78314582D01*
X168904355Y-78320060D01*
X168905662Y-78421806D01*
X168910622Y-78487594D01*
X168920794Y-78526575D01*
X168937737Y-78547896D01*
X168943866Y-78551924D01*
X168957826Y-78565480D01*
X168936756Y-78572319D01*
X168875824Y-78573887D01*
X168870488Y-78573842D01*
X168812367Y-78571282D01*
X168783793Y-78565879D01*
X168785822Y-78561358D01*
X168800013Y-78538814D01*
X168809058Y-78482030D01*
X168813442Y-78386791D01*
X168814044Y-78316666D01*
X168812010Y-78198533D01*
X168805582Y-78121169D01*
X168794275Y-78080359D01*
X168785822Y-78071975D01*
X168788399Y-78064981D01*
X168826721Y-78060019D01*
X168858071Y-78058804D01*
X168918189Y-78060256D01*
G37*
G36*
X169273149Y-78068038D02*
G01*
X169306238Y-78096322D01*
X169310755Y-78117273D01*
X169304733Y-78142723D01*
X169283662Y-78129271D01*
X169235810Y-78105879D01*
X169176357Y-78104744D01*
X169126377Y-78124345D01*
X169111400Y-78141688D01*
X169098934Y-78192875D01*
X169123875Y-78234126D01*
X169189995Y-78271471D01*
X169193464Y-78272933D01*
X169287130Y-78322498D01*
X169339869Y-78377545D01*
X169355911Y-78440408D01*
X169335639Y-78513478D01*
X169279590Y-78567049D01*
X169194913Y-78595637D01*
X169149374Y-78598888D01*
X169084690Y-78595814D01*
X169040630Y-78588059D01*
X169032296Y-78583837D01*
X169018258Y-78549712D01*
X169017244Y-78537401D01*
X169023801Y-78519125D01*
X169050259Y-78529626D01*
X169067423Y-78541164D01*
X169143204Y-78573259D01*
X169213308Y-78562420D01*
X169255507Y-78529833D01*
X169281431Y-78483937D01*
X169269809Y-78440666D01*
X169218196Y-78396175D01*
X169145515Y-78356658D01*
X169062545Y-78302355D01*
X169024008Y-78240751D01*
X169029984Y-78172032D01*
X169048451Y-78136935D01*
X169093551Y-78094274D01*
X169154342Y-78067948D01*
X169218362Y-78058892D01*
X169273149Y-78068038D01*
G37*
G36*
X169679549Y-78068038D02*
G01*
X169712638Y-78096322D01*
X169717155Y-78117273D01*
X169711133Y-78142723D01*
X169690062Y-78129271D01*
X169640430Y-78106141D01*
X169576930Y-78105614D01*
X169523481Y-78126810D01*
X169514194Y-78135756D01*
X169496242Y-78183927D01*
X169522202Y-78229898D01*
X169590832Y-78271614D01*
X169598304Y-78274778D01*
X169691033Y-78322198D01*
X169743901Y-78373506D01*
X169762181Y-78434027D01*
X169762311Y-78440408D01*
X169742106Y-78513728D01*
X169685895Y-78567108D01*
X169600284Y-78595553D01*
X169552805Y-78598888D01*
X169481351Y-78593972D01*
X169440735Y-78576064D01*
X169423644Y-78553733D01*
X169411590Y-78517438D01*
X169429710Y-78513027D01*
X169475783Y-78540927D01*
X169478759Y-78543162D01*
X169550132Y-78573695D01*
X169620064Y-78561996D01*
X169661907Y-78529833D01*
X169687831Y-78483937D01*
X169676209Y-78440666D01*
X169624596Y-78396175D01*
X169551915Y-78356658D01*
X169468945Y-78302355D01*
X169430408Y-78240751D01*
X169436384Y-78172032D01*
X169454851Y-78136935D01*
X169499951Y-78094274D01*
X169560742Y-78067948D01*
X169624762Y-78058892D01*
X169679549Y-78068038D01*
G37*
G36*
X170157936Y-78072716D02*
G01*
X170207282Y-78091822D01*
X170254025Y-78134465D01*
X170260874Y-78142045D01*
X170303153Y-78198703D01*
X170322506Y-78257424D01*
X170326755Y-78330569D01*
X170322482Y-78405963D01*
X170303809Y-78458460D01*
X170261958Y-78509970D01*
X170249991Y-78522124D01*
X170196785Y-78569212D01*
X170147126Y-78591904D01*
X170079613Y-78598685D01*
X170056343Y-78598888D01*
X169978894Y-78594448D01*
X169926187Y-78576407D01*
X169878280Y-78537687D01*
X169875123Y-78534552D01*
X169813115Y-78443201D01*
X169794548Y-78349340D01*
X169895097Y-78349340D01*
X169906139Y-78420680D01*
X169934065Y-78477899D01*
X169956229Y-78506845D01*
X170024266Y-78562788D01*
X170094470Y-78576158D01*
X170160714Y-78546693D01*
X170189650Y-78516821D01*
X170226819Y-78438785D01*
X170236561Y-78345420D01*
X170221217Y-78250797D01*
X170183131Y-78168986D01*
X170124647Y-78114059D01*
X170122376Y-78112857D01*
X170042884Y-78092524D01*
X169972875Y-78111847D01*
X169921434Y-78165331D01*
X169897641Y-78247478D01*
X169897539Y-78248933D01*
X169895097Y-78349340D01*
X169794548Y-78349340D01*
X169792555Y-78339264D01*
X169815041Y-78231761D01*
X169873346Y-78142417D01*
X169959443Y-78088178D01*
X170074362Y-78068420D01*
X170084903Y-78068311D01*
X170157936Y-78072716D01*
G37*
G36*
X168293853Y-78181796D02*
G01*
X168334977Y-78268884D01*
X168370065Y-78336544D01*
X168394795Y-78376838D01*
X168404055Y-78384226D01*
X168417888Y-78359148D01*
X168444578Y-78302272D01*
X168479578Y-78223469D01*
X168500539Y-78174785D01*
X168540066Y-78083434D01*
X168568750Y-78025624D01*
X168593351Y-77993314D01*
X168620632Y-77978462D01*
X168657351Y-77973027D01*
X168670984Y-77972047D01*
X168724194Y-77969996D01*
X168738883Y-77976349D01*
X168721405Y-77994487D01*
X168718088Y-77997114D01*
X168700356Y-78017514D01*
X168688746Y-78051144D01*
X168682058Y-78106563D01*
X168679088Y-78192331D01*
X168678577Y-78278522D01*
X168679502Y-78390610D01*
X168683078Y-78465880D01*
X168690507Y-78512645D01*
X168702989Y-78539221D01*
X168718088Y-78551924D01*
X168730749Y-78565031D01*
X168708333Y-78571729D01*
X168646228Y-78573168D01*
X168633422Y-78573005D01*
X168573471Y-78570385D01*
X168544243Y-78565553D01*
X168548755Y-78560747D01*
X168567043Y-78550539D01*
X168578719Y-78525862D01*
X168585195Y-78478342D01*
X168587882Y-78399604D01*
X168588266Y-78326300D01*
X168587443Y-78231899D01*
X168585224Y-78157126D01*
X168581985Y-78111575D01*
X168579469Y-78102177D01*
X168567620Y-78121594D01*
X168542289Y-78174199D01*
X168507425Y-78251521D01*
X168474266Y-78327955D01*
X168433915Y-78419392D01*
X168398919Y-78493054D01*
X168373478Y-78540441D01*
X168362685Y-78553733D01*
X168347514Y-78534579D01*
X168318191Y-78482725D01*
X168279246Y-78406580D01*
X168244101Y-78333600D01*
X168140692Y-78113466D01*
X168138701Y-78323038D01*
X168138483Y-78421791D01*
X168141437Y-78484822D01*
X168149562Y-78521547D01*
X168164855Y-78541383D01*
X168187511Y-78553029D01*
X168210898Y-78565325D01*
X168198625Y-78571435D01*
X168146254Y-78573112D01*
X168136711Y-78573097D01*
X168082907Y-78570753D01*
X168059768Y-78565180D01*
X168063333Y-78561358D01*
X168076523Y-78540756D01*
X168085316Y-78488456D01*
X168090172Y-78399900D01*
X168091555Y-78280918D01*
X168090697Y-78164569D01*
X168087542Y-78086425D01*
X168081217Y-78039558D01*
X168070851Y-78017041D01*
X168057688Y-78011866D01*
X168027643Y-77999675D01*
X168023822Y-77989288D01*
X168043790Y-77974882D01*
X168093411Y-77967136D01*
X168110065Y-77966711D01*
X168196307Y-77966711D01*
X168293853Y-78181796D01*
G37*
G36*
X171522362Y-79041050D02*
G01*
X171536487Y-79157419D01*
X171537040Y-79232084D01*
X171522787Y-79266779D01*
X171492499Y-79263237D01*
X171444943Y-79223191D01*
X171415520Y-79191399D01*
X171343923Y-79121150D01*
X171271213Y-79078068D01*
X171183097Y-79056411D01*
X171065281Y-79050435D01*
X171064707Y-79050435D01*
X170925066Y-79050426D01*
X170932821Y-79812217D01*
X170935268Y-79994691D01*
X170938663Y-80163786D01*
X170942807Y-80313938D01*
X170947502Y-80439583D01*
X170952548Y-80535157D01*
X170957748Y-80595094D01*
X170961427Y-80612971D01*
X170995464Y-80643383D01*
X171054215Y-80670658D01*
X171072206Y-80676147D01*
X171134709Y-80699949D01*
X171160338Y-80730481D01*
X171162133Y-80744648D01*
X171160215Y-80759553D01*
X171150627Y-80770677D01*
X171127619Y-80778572D01*
X171085438Y-80783789D01*
X171018334Y-80786881D01*
X170920557Y-80788399D01*
X170786354Y-80788895D01*
X170700621Y-80788933D01*
X170526608Y-80787769D01*
X170389940Y-80784348D01*
X170292757Y-80778777D01*
X170237202Y-80771160D01*
X170224544Y-80765366D01*
X170224113Y-80729464D01*
X170254412Y-80695642D01*
X170302350Y-80676870D01*
X170314731Y-80676044D01*
X170365407Y-80667855D01*
X170400905Y-80639317D01*
X170423555Y-80584474D01*
X170435681Y-80497370D01*
X170439612Y-80372049D01*
X170439644Y-80356296D01*
X170440959Y-80257022D01*
X170444511Y-80175203D01*
X170449714Y-80120948D01*
X170454282Y-80104487D01*
X170480468Y-80106263D01*
X170532417Y-80126328D01*
X170577196Y-80148780D01*
X170660867Y-80186400D01*
X170717970Y-80191336D01*
X170753803Y-80162901D01*
X170768797Y-80123855D01*
X170770658Y-80029204D01*
X170734893Y-79931799D01*
X170667235Y-79841486D01*
X170573421Y-79768111D01*
X170555920Y-79758365D01*
X170457708Y-79706568D01*
X170461002Y-79378506D01*
X170464297Y-79050444D01*
X170327067Y-79050444D01*
X170195267Y-79060868D01*
X170091848Y-79095535D01*
X170004300Y-79159536D01*
X169969732Y-79195841D01*
X169916904Y-79244288D01*
X169871484Y-79266268D01*
X169841593Y-79260644D01*
X169835350Y-79226282D01*
X169838099Y-79214244D01*
X169847093Y-79173052D01*
X169860206Y-79102114D01*
X169874695Y-79016318D01*
X169875562Y-79010933D01*
X169901857Y-78847244D01*
X170697693Y-78847244D01*
X171493529Y-78847244D01*
X171522362Y-79041050D01*
G37*
G36*
X168944900Y-78809586D02*
G01*
X169050808Y-78816002D01*
X169150525Y-78825143D01*
X169233277Y-78836087D01*
X169288292Y-78847915D01*
X169303707Y-78855247D01*
X169308089Y-78878967D01*
X169314507Y-78936986D01*
X169321827Y-79018560D01*
X169324670Y-79054277D01*
X169330252Y-79166973D01*
X169324894Y-79237331D01*
X169306458Y-79267301D01*
X169272807Y-79258835D01*
X169221803Y-79213883D01*
X169188955Y-79178141D01*
X169089048Y-79086040D01*
X168979319Y-79029971D01*
X168848104Y-79004938D01*
X168779133Y-79002466D01*
X168642727Y-79014161D01*
X168542566Y-79050386D01*
X168475930Y-79112853D01*
X168440098Y-79203272D01*
X168437535Y-79217325D01*
X168431698Y-79260840D01*
X168432383Y-79297920D01*
X168443643Y-79331577D01*
X168469532Y-79364826D01*
X168514104Y-79400677D01*
X168581412Y-79442146D01*
X168675509Y-79492244D01*
X168800450Y-79553985D01*
X168960287Y-79630381D01*
X169051111Y-79673385D01*
X169130178Y-79715247D01*
X169203659Y-79761346D01*
X169231733Y-79782204D01*
X169274249Y-79821766D01*
X169284606Y-79850705D01*
X169271531Y-79878659D01*
X169213555Y-79972346D01*
X169180810Y-80052196D01*
X169166995Y-80136696D01*
X169165188Y-80190622D01*
X169170925Y-80289148D01*
X169193834Y-80370318D01*
X169228125Y-80438977D01*
X169291768Y-80551866D01*
X169197801Y-80635607D01*
X169081818Y-80719443D01*
X168947780Y-80777284D01*
X168787584Y-80811791D01*
X168622133Y-80824856D01*
X168514164Y-80825968D01*
X168412747Y-80822742D01*
X168333230Y-80815843D01*
X168306044Y-80811124D01*
X168223103Y-80790627D01*
X168141610Y-80768978D01*
X168134730Y-80767048D01*
X168053727Y-80744160D01*
X168025342Y-80553370D01*
X168014034Y-80463729D01*
X168008541Y-80390476D01*
X168009620Y-80345557D01*
X168011722Y-80338689D01*
X168044605Y-80315027D01*
X168083718Y-80331786D01*
X168122970Y-80385944D01*
X168128180Y-80396446D01*
X168197973Y-80493712D01*
X168299049Y-80568672D01*
X168422173Y-80618955D01*
X168558112Y-80642186D01*
X168697629Y-80635993D01*
X168831491Y-80598004D01*
X168860395Y-80584577D01*
X168938584Y-80524912D01*
X168982472Y-80439723D01*
X168994666Y-80338047D01*
X168989688Y-80277192D01*
X168971511Y-80224888D01*
X168935272Y-80177390D01*
X168876107Y-80130952D01*
X168789153Y-80081832D01*
X168669544Y-80026284D01*
X168512419Y-79960563D01*
X168495431Y-79953681D01*
X168325102Y-79869770D01*
X168196709Y-79771831D01*
X168108678Y-79657917D01*
X168059434Y-79526081D01*
X168046895Y-79398916D01*
X168063539Y-79252948D01*
X168115268Y-79128753D01*
X168206553Y-79016658D01*
X168236323Y-78989177D01*
X168338081Y-78913448D01*
X168449570Y-78860790D01*
X168581890Y-78827356D01*
X168746143Y-78809302D01*
X168757600Y-78808604D01*
X168843573Y-78806813D01*
X168944900Y-78809586D01*
G37*
G36*
X169876161Y-79403794D02*
G01*
X169959122Y-79443697D01*
X169996363Y-79483983D01*
X170010633Y-79524374D01*
X169988320Y-79539540D01*
X169930671Y-79528913D01*
X169911872Y-79522518D01*
X169843230Y-79505593D01*
X169787546Y-79514570D01*
X169774715Y-79519961D01*
X169725786Y-79561363D01*
X169716149Y-79623378D01*
X169745870Y-79706421D01*
X169815014Y-79810907D01*
X169822086Y-79819995D01*
X169873441Y-79883963D01*
X169913478Y-79931222D01*
X169934728Y-79953013D01*
X169935960Y-79953555D01*
X169956733Y-79939791D01*
X169996141Y-79905979D01*
X170003585Y-79899143D01*
X170099812Y-79837432D01*
X170213869Y-79806579D01*
X170334895Y-79805189D01*
X170452029Y-79831870D01*
X170554409Y-79885227D01*
X170631175Y-79963867D01*
X170641662Y-79981005D01*
X170663821Y-80033684D01*
X170653628Y-80054914D01*
X170611214Y-80044612D01*
X170572312Y-80024394D01*
X170500032Y-79990151D01*
X170427450Y-79966279D01*
X170422711Y-79965238D01*
X170349333Y-79949967D01*
X170349025Y-80205761D01*
X170347722Y-80313697D01*
X170344431Y-80409031D01*
X170339678Y-80480236D01*
X170335038Y-80512602D01*
X170302119Y-80559061D01*
X170244318Y-80580175D01*
X170176670Y-80571710D01*
X170156763Y-80562802D01*
X170105550Y-80546223D01*
X170041211Y-80550780D01*
X170006102Y-80558759D01*
X169869647Y-80587130D01*
X169754243Y-80595276D01*
X169641602Y-80584573D01*
X169523600Y-80548917D01*
X169418409Y-80487817D01*
X169339465Y-80409912D01*
X169318768Y-80376985D01*
X169285822Y-80274838D01*
X169284045Y-80165892D01*
X169296016Y-80118319D01*
X169549531Y-80118319D01*
X169567196Y-80247151D01*
X169619734Y-80347706D01*
X169706813Y-80419403D01*
X169728444Y-80430275D01*
X169819232Y-80463809D01*
X169897234Y-80470135D01*
X169960944Y-80458331D01*
X169981806Y-80449949D01*
X169986743Y-80435507D01*
X169972021Y-80408905D01*
X169933903Y-80364041D01*
X169868652Y-80294812D01*
X169847075Y-80272373D01*
X169772210Y-80192957D01*
X169704427Y-80118017D01*
X169653090Y-80058057D01*
X169633347Y-80032619D01*
X169620850Y-80018442D01*
X169988088Y-80018442D01*
X170002742Y-80039675D01*
X170041168Y-80083273D01*
X170095063Y-80139817D01*
X170095333Y-80140092D01*
X170202577Y-80249157D01*
X170209447Y-80120643D01*
X170209753Y-80046835D01*
X170203338Y-79991246D01*
X170195290Y-79971104D01*
X170165558Y-79965509D01*
X170112944Y-79971360D01*
X170054475Y-79984765D01*
X170007182Y-80001835D01*
X169988088Y-80018442D01*
X169620850Y-80018442D01*
X169595347Y-79989510D01*
X169569570Y-79986736D01*
X169554736Y-80025604D01*
X169549566Y-80107424D01*
X169549531Y-80118319D01*
X169296016Y-80118319D01*
X169310255Y-80061735D01*
X169361270Y-79973956D01*
X169433908Y-79914144D01*
X169447599Y-79907829D01*
X169495109Y-79879903D01*
X169503157Y-79848887D01*
X169501110Y-79843084D01*
X169489486Y-79799130D01*
X169478262Y-79731594D01*
X169474841Y-79703294D01*
X169480605Y-79585809D01*
X169523160Y-79492638D01*
X169599192Y-79427342D01*
X169705390Y-79393482D01*
X169766834Y-79389443D01*
X169876161Y-79403794D01*
G37*
G36*
X170492271Y-78059611D02*
G01*
X170518537Y-78067667D01*
X170512203Y-78083803D01*
X170511893Y-78084115D01*
X170495284Y-78124426D01*
X170486095Y-78195157D01*
X170484055Y-78282233D01*
X170488894Y-78371578D01*
X170500342Y-78449117D01*
X170518128Y-78500775D01*
X170519946Y-78503554D01*
X170573275Y-78544169D01*
X170644195Y-78551614D01*
X170718596Y-78524868D01*
X170728131Y-78518586D01*
X170752369Y-78497452D01*
X170767279Y-78468634D01*
X170775080Y-78421728D01*
X170777990Y-78346327D01*
X170778311Y-78283175D01*
X170777139Y-78185590D01*
X170772516Y-78124282D01*
X170762784Y-78090408D01*
X170746284Y-78075127D01*
X170738800Y-78072585D01*
X170742385Y-78068008D01*
X170783613Y-78063914D01*
X170854969Y-78060850D01*
X170916377Y-78059641D01*
X171021560Y-78059646D01*
X171092678Y-78063873D01*
X171140754Y-78074082D01*
X171176811Y-78092035D01*
X171192955Y-78103816D01*
X171241395Y-78162604D01*
X171249301Y-78224623D01*
X171216480Y-78280340D01*
X171196826Y-78295623D01*
X171159909Y-78323759D01*
X171155620Y-78350134D01*
X171178416Y-78392099D01*
X171234285Y-78471501D01*
X171287292Y-78527852D01*
X171329628Y-78553109D01*
X171335402Y-78553733D01*
X171349808Y-78542572D01*
X171359043Y-78504917D01*
X171363939Y-78434511D01*
X171365333Y-78329077D01*
X171364198Y-78223329D01*
X171359857Y-78153894D01*
X171350906Y-78111963D01*
X171335938Y-78088729D01*
X171325822Y-78081408D01*
X171311862Y-78067853D01*
X171332932Y-78061013D01*
X171393864Y-78059446D01*
X171399200Y-78059491D01*
X171457321Y-78062050D01*
X171485895Y-78067453D01*
X171483866Y-78071975D01*
X171469682Y-78094504D01*
X171460639Y-78151254D01*
X171456250Y-78246444D01*
X171455644Y-78316892D01*
X171456534Y-78423324D01*
X171460091Y-78492829D01*
X171467644Y-78533613D01*
X171480524Y-78553886D01*
X171495155Y-78560747D01*
X171493806Y-78565865D01*
X171455140Y-78570289D01*
X171386996Y-78573243D01*
X171364355Y-78573692D01*
X171194043Y-78576311D01*
X171127288Y-78463870D01*
X171076674Y-78388293D01*
X171039725Y-78355558D01*
X171015988Y-78365618D01*
X171005009Y-78418421D01*
X171004088Y-78450477D01*
X171008900Y-78518012D01*
X171025918Y-78551980D01*
X171043600Y-78560747D01*
X171046501Y-78566835D01*
X171012100Y-78571567D01*
X170970222Y-78573346D01*
X170909356Y-78571595D01*
X170882733Y-78564143D01*
X170886418Y-78557166D01*
X170900623Y-78533359D01*
X170908459Y-78480285D01*
X170910478Y-78392014D01*
X170908996Y-78315062D01*
X170904950Y-78211068D01*
X170904437Y-78205277D01*
X171004088Y-78205277D01*
X171005931Y-78268082D01*
X171016131Y-78296994D01*
X171041696Y-78303256D01*
X171063900Y-78301233D01*
X171117856Y-78282409D01*
X171147345Y-78256331D01*
X171158965Y-78201276D01*
X171138015Y-78146621D01*
X171093961Y-78109262D01*
X171061017Y-78102177D01*
X171026085Y-78106237D01*
X171009411Y-78126439D01*
X171004350Y-78174817D01*
X171004088Y-78205277D01*
X170904437Y-78205277D01*
X170899009Y-78144031D01*
X170889542Y-78105750D01*
X170874916Y-78088028D01*
X170862977Y-78083850D01*
X170842734Y-78085006D01*
X170830818Y-78103876D01*
X170825108Y-78149144D01*
X170823488Y-78229495D01*
X170823466Y-78245808D01*
X170819350Y-78367834D01*
X170804840Y-78453697D01*
X170776693Y-78511820D01*
X170731667Y-78550626D01*
X170700157Y-78566114D01*
X170630659Y-78591134D01*
X170577815Y-78594768D01*
X170518544Y-78577077D01*
X170493823Y-78566649D01*
X170449212Y-78542903D01*
X170420287Y-78511970D01*
X170403733Y-78464355D01*
X170396238Y-78390566D01*
X170394488Y-78282075D01*
X170392678Y-78188432D01*
X170385945Y-78129931D01*
X170372338Y-78096655D01*
X170354977Y-78081408D01*
X170340675Y-78067672D01*
X170361108Y-78060331D01*
X170421259Y-78057753D01*
X170427226Y-78057708D01*
X170492271Y-78059611D01*
G37*
D12*
%TO.C,TP15*%
X152846000Y-98094800D02*
G75*
G02*
X151446000Y-98094800I-700000J0D01*
G01*
X151446000Y-98094800D02*
G75*
G02*
X152846000Y-98094800I700000J0D01*
G01*
%TO.C,C6*%
X141421067Y-102410800D02*
X141128533Y-102410800D01*
X141421067Y-103430800D02*
X141128533Y-103430800D01*
%TO.C,C1*%
X133699467Y-85799200D02*
X133406933Y-85799200D01*
X133699467Y-86819200D02*
X133406933Y-86819200D01*
%TO.C,R2*%
X163917100Y-104851924D02*
X163917100Y-104342476D01*
X164962100Y-104851924D02*
X164962100Y-104342476D01*
%TO.C,C5*%
X167739600Y-104349333D02*
X167739600Y-104641867D01*
X168759600Y-104349333D02*
X168759600Y-104641867D01*
%TO.C,R9*%
X156703024Y-94109250D02*
X156193576Y-94109250D01*
X156703024Y-95154250D02*
X156193576Y-95154250D01*
%TD*%
M02*
