%TF.GenerationSoftware,KiCad,Pcbnew,9.0.2*%
%TF.CreationDate,2026-02-10T20:05:31-06:00*%
%TF.ProjectId,CCD_Breakout,4343445f-4272-4656-916b-6f75742e6b69,rev?*%
%TF.SameCoordinates,Original*%
%TF.FileFunction,Copper,L1,Top*%
%TF.FilePolarity,Positive*%
%FSLAX46Y46*%
G04 Gerber Fmt 4.6, Leading zero omitted, Abs format (unit mm)*
G04 Created by KiCad (PCBNEW 9.0.2) date 2026-02-10 20:05:31*
%MOMM*%
%LPD*%
G01*
G04 APERTURE LIST*
G04 Aperture macros list*
%AMRoundRect*
0 Rectangle with rounded corners*
0 $1 Rounding radius*
0 $2 $3 $4 $5 $6 $7 $8 $9 X,Y pos of 4 corners*
0 Add a 4 corners polygon primitive as box body*
4,1,4,$2,$3,$4,$5,$6,$7,$8,$9,$2,$3,0*
0 Add four circle primitives for the rounded corners*
1,1,$1+$1,$2,$3*
1,1,$1+$1,$4,$5*
1,1,$1+$1,$6,$7*
1,1,$1+$1,$8,$9*
0 Add four rect primitives between the rounded corners*
20,1,$1+$1,$2,$3,$4,$5,0*
20,1,$1+$1,$4,$5,$6,$7,0*
20,1,$1+$1,$6,$7,$8,$9,0*
20,1,$1+$1,$8,$9,$2,$3,0*%
G04 Aperture macros list end*
%TA.AperFunction,SMDPad,CuDef*%
%ADD10C,1.000000*%
%TD*%
%TA.AperFunction,SMDPad,CuDef*%
%ADD11RoundRect,0.237500X0.237500X-0.250000X0.237500X0.250000X-0.237500X0.250000X-0.237500X-0.250000X0*%
%TD*%
%TA.AperFunction,SMDPad,CuDef*%
%ADD12RoundRect,0.237500X0.250000X0.237500X-0.250000X0.237500X-0.250000X-0.237500X0.250000X-0.237500X0*%
%TD*%
%TA.AperFunction,SMDPad,CuDef*%
%ADD13R,0.355600X1.473200*%
%TD*%
%TA.AperFunction,SMDPad,CuDef*%
%ADD14RoundRect,0.237500X-0.237500X0.300000X-0.237500X-0.300000X0.237500X-0.300000X0.237500X0.300000X0*%
%TD*%
%TA.AperFunction,SMDPad,CuDef*%
%ADD15RoundRect,0.237500X-0.250000X-0.237500X0.250000X-0.237500X0.250000X0.237500X-0.250000X0.237500X0*%
%TD*%
%TA.AperFunction,SMDPad,CuDef*%
%ADD16RoundRect,0.237500X0.237500X-0.300000X0.237500X0.300000X-0.237500X0.300000X-0.237500X-0.300000X0*%
%TD*%
%TA.AperFunction,SMDPad,CuDef*%
%ADD17RoundRect,0.237500X-0.237500X0.250000X-0.237500X-0.250000X0.237500X-0.250000X0.237500X0.250000X0*%
%TD*%
%TA.AperFunction,SMDPad,CuDef*%
%ADD18RoundRect,0.100000X-0.650000X-0.100000X0.650000X-0.100000X0.650000X0.100000X-0.650000X0.100000X0*%
%TD*%
%TA.AperFunction,SMDPad,CuDef*%
%ADD19RoundRect,0.250000X-0.250000X0.250000X-0.250000X-0.250000X0.250000X-0.250000X0.250000X0.250000X0*%
%TD*%
%TA.AperFunction,SMDPad,CuDef*%
%ADD20RoundRect,0.250000X-0.407500X-0.295000X0.407500X-0.295000X0.407500X0.295000X-0.407500X0.295000X0*%
%TD*%
%TA.AperFunction,SMDPad,CuDef*%
%ADD21RoundRect,0.250000X0.407500X0.295000X-0.407500X0.295000X-0.407500X-0.295000X0.407500X-0.295000X0*%
%TD*%
%TA.AperFunction,SMDPad,CuDef*%
%ADD22R,0.355600X1.409700*%
%TD*%
%TA.AperFunction,SMDPad,CuDef*%
%ADD23RoundRect,0.049500X0.425500X-0.115500X0.425500X0.115500X-0.425500X0.115500X-0.425500X-0.115500X0*%
%TD*%
%TA.AperFunction,SMDPad,CuDef*%
%ADD24RoundRect,0.237500X0.300000X0.237500X-0.300000X0.237500X-0.300000X-0.237500X0.300000X-0.237500X0*%
%TD*%
%TA.AperFunction,ComponentPad*%
%ADD25R,1.218000X1.218000*%
%TD*%
%TA.AperFunction,ComponentPad*%
%ADD26C,1.218000*%
%TD*%
%TA.AperFunction,Conductor*%
%ADD27C,0.177800*%
%TD*%
%TA.AperFunction,Conductor*%
%ADD28C,0.254000*%
%TD*%
G04 APERTURE END LIST*
D10*
%TO.P,TP11,1,1*%
%TO.N,/CCD/ST*%
X125882400Y-109016800D03*
%TD*%
D11*
%TO.P,R8,1*%
%TO.N,/CCD/Videob*%
X167804000Y-96076500D03*
%TO.P,R8,2*%
%TO.N,/CCD/opINA-*%
X167804000Y-94251500D03*
%TD*%
D12*
%TO.P,R4,1*%
%TO.N,Net-(U1-CLK)*%
X135888100Y-97028000D03*
%TO.P,R4,2*%
%TO.N,/CCD/CLKb*%
X134063100Y-97028000D03*
%TD*%
D13*
%TO.P,U8,1,OUTA*%
%TO.N,/CCD/opINA-*%
X165944001Y-95902500D03*
%TO.P,U8,2,INA-*%
X165294000Y-95902500D03*
%TO.P,U8,3,INA+*%
%TO.N,/CCD/opINA+*%
X164643999Y-95902500D03*
%TO.P,U8,4,V+*%
%TO.N,+5V*%
X163994000Y-95902500D03*
%TO.P,U8,5,INB+*%
%TO.N,/CCD/opINB+*%
X163344001Y-95902500D03*
%TO.P,U8,6,INB-*%
%TO.N,/CCD/opINB-*%
X162694000Y-95902500D03*
%TO.P,U8,7,OUTB*%
X162044001Y-95902500D03*
%TO.P,U8,8,OUTC*%
%TO.N,/ADC/Video*%
X162043999Y-101744500D03*
%TO.P,U8,9,INC-*%
%TO.N,/CCD/opINC-*%
X162694000Y-101744500D03*
%TO.P,U8,10,INC+*%
%TO.N,/CCD/opINC+*%
X163343999Y-101744500D03*
%TO.P,U8,11,V-*%
%TO.N,GND*%
X163994000Y-101744500D03*
%TO.P,U8,12,IND+*%
%TO.N,/ADC/opIND+*%
X164643999Y-101744500D03*
%TO.P,U8,13,IND-*%
%TO.N,+1V8*%
X165294000Y-101744500D03*
%TO.P,U8,14,OUTD*%
X165943999Y-101744500D03*
%TD*%
D14*
%TO.P,C9,1*%
%TO.N,+5V*%
X126066001Y-102452000D03*
%TO.P,C9,2*%
%TO.N,GND*%
X126066001Y-104177000D03*
%TD*%
D15*
%TO.P,R6,1*%
%TO.N,Net-(R6-Pad1)*%
X155551500Y-93014800D03*
%TO.P,R6,2*%
%TO.N,/CCD/opINB+*%
X157376500Y-93014800D03*
%TD*%
D12*
%TO.P,R1,1*%
%TO.N,/CCD/opINA+*%
X161846900Y-88798400D03*
%TO.P,R1,2*%
%TO.N,Net-(U1-Video)*%
X160021900Y-88798400D03*
%TD*%
D10*
%TO.P,TP5,1,1*%
%TO.N,/ADC/Video*%
X154635200Y-98602800D03*
%TD*%
D16*
%TO.P,C11,1*%
%TO.N,+5V*%
X164998400Y-92302500D03*
%TO.P,C11,2*%
%TO.N,GND*%
X164998400Y-90577500D03*
%TD*%
D10*
%TO.P,TP13,1,1*%
%TO.N,GND*%
X154838400Y-106984800D03*
%TD*%
D17*
%TO.P,R13,1*%
%TO.N,/CCD/opINC+*%
X160172400Y-98858700D03*
%TO.P,R13,2*%
%TO.N,GND*%
X160172400Y-100683700D03*
%TD*%
D10*
%TO.P,TP14,1,1*%
%TO.N,GND*%
X162306000Y-104292400D03*
%TD*%
D17*
%TO.P,R15,1*%
%TO.N,/CCD/Videob*%
X167804000Y-97807500D03*
%TO.P,R15,2*%
%TO.N,/CCD/opINC-*%
X167804000Y-99632500D03*
%TD*%
D10*
%TO.P,TP6,1,1*%
%TO.N,Net-(U3-SDI)*%
X138836400Y-101498400D03*
%TD*%
D12*
%TO.P,R14,1*%
%TO.N,/CCD/opINC-*%
X158595700Y-98704400D03*
%TO.P,R14,2*%
%TO.N,/ADC/Video*%
X156770700Y-98704400D03*
%TD*%
D14*
%TO.P,C2,1*%
%TO.N,+5V*%
X121383870Y-106068965D03*
%TO.P,C2,2*%
%TO.N,GND*%
X121383870Y-107793965D03*
%TD*%
D10*
%TO.P,TP10,1,1*%
%TO.N,/CCD/EOS*%
X134061200Y-100330000D03*
%TD*%
D18*
%TO.P,U2,1*%
%TO.N,GND*%
X150740300Y-93361750D03*
%TO.P,U2,2*%
X150740300Y-94011750D03*
%TO.P,U2,3,IN*%
%TO.N,+5V*%
X150740300Y-94661750D03*
%TO.P,U2,4*%
%TO.N,Net-(R6-Pad1)*%
X153400300Y-94661750D03*
%TO.P,U2,5*%
%TO.N,/CCD/opINB+*%
X153400300Y-93361750D03*
%TD*%
D10*
%TO.P,TP3,1,1*%
%TO.N,+3V3*%
X138023600Y-104749600D03*
%TD*%
D12*
%TO.P,R3,1*%
%TO.N,/CCD/STb*%
X131265300Y-90881200D03*
%TO.P,R3,2*%
%TO.N,Net-(U1-ST)*%
X129440300Y-90881200D03*
%TD*%
D16*
%TO.P,C12,1*%
%TO.N,+5V*%
X163220400Y-92302500D03*
%TO.P,C12,2*%
%TO.N,GND*%
X163220400Y-90577500D03*
%TD*%
D19*
%TO.P,D1,1,K*%
%TO.N,/ADC/opIND+*%
X166370000Y-103804400D03*
%TO.P,D1,2,A*%
%TO.N,GND*%
X166370000Y-106304400D03*
%TD*%
D20*
%TO.P,C4,1*%
%TO.N,+5V*%
X148323700Y-101904800D03*
%TO.P,C4,2*%
%TO.N,GND*%
X150278700Y-101904800D03*
%TD*%
%TO.P,C7,1*%
%TO.N,/CCD/opINB+*%
X155689700Y-91236800D03*
%TO.P,C7,2*%
%TO.N,GND*%
X157644700Y-91236800D03*
%TD*%
D14*
%TO.P,C8,1*%
%TO.N,+5V*%
X127844001Y-102452000D03*
%TO.P,C8,2*%
%TO.N,GND*%
X127844001Y-104177000D03*
%TD*%
D21*
%TO.P,C10,1*%
%TO.N,+5V*%
X147992700Y-94386400D03*
%TO.P,C10,2*%
%TO.N,GND*%
X146037700Y-94386400D03*
%TD*%
D16*
%TO.P,C16,1*%
%TO.N,Net-(U3-AIN+)*%
X147907000Y-99668500D03*
%TO.P,C16,2*%
%TO.N,GND*%
X147907000Y-97943500D03*
%TD*%
D17*
%TO.P,R12,1*%
%TO.N,/CCD/opINB-*%
X160172400Y-95402400D03*
%TO.P,R12,2*%
%TO.N,/CCD/opINC+*%
X160172400Y-97227400D03*
%TD*%
D10*
%TO.P,TP2,1,1*%
%TO.N,+5V*%
X123139200Y-101041200D03*
%TD*%
%TO.P,TP7,1,1*%
%TO.N,+5V*%
X121361200Y-103784400D03*
%TD*%
D22*
%TO.P,U5,1,OE1*%
%TO.N,GND*%
X129621999Y-108712000D03*
%TO.P,U5,2,A0*%
%TO.N,/CCD/ST*%
X130272000Y-108712000D03*
%TO.P,U5,3,A1*%
%TO.N,/CCD/CLK*%
X130921998Y-108712000D03*
%TO.P,U5,4,A2*%
%TO.N,/CCD/Trigb*%
X131572000Y-108712000D03*
%TO.P,U5,5,A3*%
%TO.N,/CCD/EOSb*%
X132221998Y-108712000D03*
%TO.P,U5,6,A4*%
%TO.N,GND*%
X132871997Y-108712000D03*
%TO.P,U5,7,A5*%
X133521998Y-108712000D03*
%TO.P,U5,8,A6*%
X134171997Y-108712000D03*
%TO.P,U5,9,A7*%
X134821998Y-108712000D03*
%TO.P,U5,10,GND*%
X135471997Y-108712000D03*
%TO.P,U5,11,Y7*%
X135471999Y-102806500D03*
%TO.P,U5,12,Y6*%
X134822001Y-102806500D03*
%TO.P,U5,13,Y5*%
X134172000Y-102806500D03*
%TO.P,U5,14,Y4*%
X133522001Y-102806500D03*
%TO.P,U5,15,Y3*%
%TO.N,/CCD/EOS*%
X132872000Y-102806500D03*
%TO.P,U5,16,Y2*%
%TO.N,/ADC/TRIG*%
X132222001Y-102806500D03*
%TO.P,U5,17,Y1*%
%TO.N,/CCD/CLKb*%
X131572000Y-102806500D03*
%TO.P,U5,18,Y0*%
%TO.N,/CCD/STb*%
X130922001Y-102806500D03*
%TO.P,U5,19,OE2*%
%TO.N,GND*%
X130272000Y-102806500D03*
%TO.P,U5,20,VCC*%
%TO.N,+5V*%
X129622001Y-102806500D03*
%TD*%
D10*
%TO.P,TP4,1,1*%
%TO.N,Net-(U3-AIN+)*%
X153060400Y-101854000D03*
%TD*%
%TO.P,TP8,1,1*%
%TO.N,/ADC/OUT*%
X138785600Y-99212400D03*
%TD*%
D14*
%TO.P,C3,1*%
%TO.N,+5V*%
X123161870Y-106068965D03*
%TO.P,C3,2*%
%TO.N,GND*%
X123161870Y-107793965D03*
%TD*%
D12*
%TO.P,R7,1*%
%TO.N,/ADC/Video*%
X151359500Y-99822000D03*
%TO.P,R7,2*%
%TO.N,Net-(U3-AIN+)*%
X149534500Y-99822000D03*
%TD*%
D15*
%TO.P,R5,1*%
%TO.N,+5V*%
X151942800Y-91693250D03*
%TO.P,R5,2*%
%TO.N,/CCD/opINB+*%
X153767800Y-91693250D03*
%TD*%
D10*
%TO.P,TP1,1,1*%
%TO.N,+1V8*%
X150418800Y-104444800D03*
%TD*%
%TO.P,TP12,1,1*%
%TO.N,/ADC/CLK2*%
X136804400Y-99872800D03*
%TD*%
%TO.P,TP9,1,1*%
%TO.N,/CCD/CLK*%
X125882400Y-106629200D03*
%TD*%
D23*
%TO.P,U3,1,VREF*%
%TO.N,+5V*%
X146239000Y-100802000D03*
%TO.P,U3,2,AVDD*%
%TO.N,+1V8*%
X146239000Y-100302000D03*
%TO.P,U3,3,AIN+*%
%TO.N,Net-(U3-AIN+)*%
X146239000Y-99802000D03*
%TO.P,U3,4,AIN-*%
%TO.N,GND*%
X146235203Y-99299221D03*
%TO.P,U3,5,GND*%
X146239000Y-98802000D03*
%TO.P,U3,6,CNVST*%
%TO.N,/ADC/TRIG*%
X142289000Y-98802000D03*
%TO.P,U3,7,SDO*%
%TO.N,/ADC/OUT*%
X142289000Y-99299221D03*
%TO.P,U3,8,SCLK*%
%TO.N,/ADC/CLK2*%
X142289000Y-99802000D03*
%TO.P,U3,9,SDI*%
%TO.N,Net-(U3-SDI)*%
X142289000Y-100302000D03*
%TO.P,U3,10,DVIO*%
%TO.N,+3V3*%
X142289000Y-100802000D03*
%TD*%
D10*
%TO.P,TP15,1,1*%
%TO.N,GND*%
X152146000Y-98094800D03*
%TD*%
D24*
%TO.P,C6,1*%
%TO.N,+3V3*%
X142137300Y-102920800D03*
%TO.P,C6,2*%
%TO.N,GND*%
X140412300Y-102920800D03*
%TD*%
%TO.P,C1,1*%
%TO.N,Net-(U1-VIcp)*%
X134415700Y-86309200D03*
%TO.P,C1,2*%
%TO.N,GND*%
X132690700Y-86309200D03*
%TD*%
D11*
%TO.P,R2,1*%
%TO.N,+5V*%
X164439600Y-105509700D03*
%TO.P,R2,2*%
%TO.N,/ADC/opIND+*%
X164439600Y-103684700D03*
%TD*%
D14*
%TO.P,C5,1*%
%TO.N,+1V8*%
X168249600Y-103633100D03*
%TO.P,C5,2*%
%TO.N,GND*%
X168249600Y-105358100D03*
%TD*%
D12*
%TO.P,R9,1*%
%TO.N,GND*%
X157360800Y-94631750D03*
%TO.P,R9,2*%
%TO.N,Net-(R6-Pad1)*%
X155535800Y-94631750D03*
%TD*%
D25*
%TO.P,U1,1,Vdd*%
%TO.N,+5V*%
X129438400Y-78638400D03*
D26*
%TO.P,U1,2,Vss*%
%TO.N,GND*%
X131978400Y-78638400D03*
%TO.P,U1,3,CLK*%
%TO.N,Net-(U1-CLK)*%
X134518400Y-78638400D03*
%TO.P,U1,4,NC*%
%TO.N,unconnected-(U1-NC-Pad4)*%
X137058400Y-78638400D03*
%TO.P,U1,5,NC*%
%TO.N,unconnected-(U1-NC-Pad5)*%
X139598400Y-78638400D03*
%TO.P,U1,6,NC*%
%TO.N,unconnected-(U1-NC-Pad6)*%
X142138400Y-78638400D03*
%TO.P,U1,7,NC*%
%TO.N,unconnected-(U1-NC-Pad7)*%
X144678400Y-78638400D03*
%TO.P,U1,8,NC*%
%TO.N,unconnected-(U1-NC-Pad8)*%
X147218400Y-78638400D03*
%TO.P,U1,9,NC*%
%TO.N,unconnected-(U1-NC-Pad9)*%
X149758400Y-78638400D03*
%TO.P,U1,10,NC*%
%TO.N,unconnected-(U1-NC-Pad10)*%
X152298400Y-78638400D03*
%TO.P,U1,11,Vss*%
%TO.N,GND*%
X154838400Y-78638400D03*
%TO.P,U1,12,Vdd*%
%TO.N,+5V*%
X157378400Y-78638400D03*
%TO.P,U1,13,Video*%
%TO.N,Net-(U1-Video)*%
X157378400Y-88798400D03*
%TO.P,U1,14,NC*%
%TO.N,unconnected-(U1-NC-Pad14)*%
X154838400Y-88798400D03*
%TO.P,U1,15,EOS*%
%TO.N,/CCD/EOSb*%
X152298400Y-88798400D03*
%TO.P,U1,16,NC*%
%TO.N,unconnected-(U1-NC-Pad16)*%
X149758400Y-88798400D03*
%TO.P,U1,17,NC*%
%TO.N,unconnected-(U1-NC-Pad17)*%
X147218400Y-88798400D03*
%TO.P,U1,18,NC*%
%TO.N,unconnected-(U1-NC-Pad18)*%
X144678400Y-88798400D03*
%TO.P,U1,19,NC*%
%TO.N,unconnected-(U1-NC-Pad19)*%
X142138400Y-88798400D03*
%TO.P,U1,20,NC*%
%TO.N,unconnected-(U1-NC-Pad20)*%
X139598400Y-88798400D03*
%TO.P,U1,21,NC*%
%TO.N,unconnected-(U1-NC-Pad21)*%
X137058400Y-88798400D03*
%TO.P,U1,22,VIcp*%
%TO.N,Net-(U1-VIcp)*%
X134518400Y-88798400D03*
%TO.P,U1,23,Trig*%
%TO.N,/CCD/Trigb*%
X131978400Y-88798400D03*
%TO.P,U1,24,ST*%
%TO.N,Net-(U1-ST)*%
X129438400Y-88798400D03*
%TD*%
D27*
%TO.N,/CCD/opINC-*%
X168618900Y-99632500D02*
X167804000Y-99632500D01*
X169011600Y-100025200D02*
X168618900Y-99632500D01*
X169011600Y-104021878D02*
X169011600Y-100025200D01*
X168671378Y-104362100D02*
X169011600Y-104021878D01*
X166943602Y-104362100D02*
X168671378Y-104362100D01*
X166809802Y-104495900D02*
X166943602Y-104362100D01*
X165797998Y-104363700D02*
X165930198Y-104495900D01*
X163758700Y-104363700D02*
X165797998Y-104363700D01*
X161137600Y-103581200D02*
X161137600Y-105054400D01*
X161493200Y-105410000D02*
X162712400Y-105410000D01*
X161544000Y-103174800D02*
X161137600Y-103581200D01*
X162306000Y-103174800D02*
X161544000Y-103174800D01*
X162694000Y-102786800D02*
X162306000Y-103174800D01*
X162712400Y-105410000D02*
X163758700Y-104363700D01*
X162694000Y-101744500D02*
X162694000Y-102786800D01*
X161137600Y-105054400D02*
X161493200Y-105410000D01*
X165930198Y-104495900D02*
X166809802Y-104495900D01*
D28*
%TO.N,Net-(U3-AIN+)*%
X150520400Y-100888800D02*
X151231600Y-100888800D01*
X149534500Y-99902900D02*
X150520400Y-100888800D01*
X147773500Y-99802000D02*
X147907000Y-99668500D01*
X146239000Y-99802000D02*
X147773500Y-99802000D01*
X152196800Y-101854000D02*
X153060400Y-101854000D01*
X149381000Y-99668500D02*
X149534500Y-99822000D01*
X151231600Y-100888800D02*
X152196800Y-101854000D01*
X149534500Y-99822000D02*
X149534500Y-99902900D01*
X147907000Y-99668500D02*
X149381000Y-99668500D01*
%TO.N,Net-(U1-VIcp)*%
X134415700Y-88695700D02*
X134518400Y-88798400D01*
X134415700Y-86309200D02*
X134415700Y-88695700D01*
%TO.N,+5V*%
X127844001Y-102452000D02*
X127844001Y-99263200D01*
D27*
X160700900Y-91612900D02*
X160700900Y-79471700D01*
X160700900Y-79471700D02*
X159867600Y-78638400D01*
D28*
X146239000Y-101193600D02*
X146239000Y-106897400D01*
X146950200Y-101904800D02*
X146239000Y-101193600D01*
X129622001Y-102806500D02*
X129622001Y-101021601D01*
X144373600Y-108762800D02*
X152806400Y-108762800D01*
X147992700Y-95542500D02*
X147992700Y-94386400D01*
X151790400Y-94361649D02*
X151490299Y-94661750D01*
X145353600Y-100802000D02*
X144817100Y-100265500D01*
X151790400Y-91845650D02*
X151790400Y-94361649D01*
X142392400Y-110744000D02*
X144373600Y-108762800D01*
X146222873Y-96150700D02*
X147384500Y-96150700D01*
X127844001Y-99263200D02*
X127844001Y-80264000D01*
X147384500Y-96150700D02*
X147992700Y-95542500D01*
X151790400Y-91845650D02*
X151942800Y-91693250D01*
X144817100Y-100265500D02*
X144817100Y-97556472D01*
X152095200Y-108762800D02*
X152806400Y-108762800D01*
X127812800Y-80264000D02*
X129438400Y-78638400D01*
X123161870Y-105280270D02*
X123139200Y-105257600D01*
X127863600Y-99263200D02*
X127844001Y-99263200D01*
X147992700Y-94386400D02*
X148268050Y-94661750D01*
X121361200Y-103784400D02*
X120396000Y-104749600D01*
X121281170Y-105966265D02*
X121383870Y-106068965D01*
X169214800Y-108762800D02*
X170484800Y-107492800D01*
X163994000Y-98055600D02*
X163994000Y-95902500D01*
X146239000Y-100802000D02*
X146239000Y-101193600D01*
D27*
X159867600Y-78638400D02*
X157378400Y-78638400D01*
D28*
X148323700Y-101904800D02*
X146950200Y-101904800D01*
X121383870Y-103807070D02*
X121361200Y-103784400D01*
X151490299Y-94661750D02*
X150740300Y-94661750D01*
D27*
X161390500Y-92302500D02*
X160700900Y-91612900D01*
D28*
X121383870Y-106068965D02*
X123161870Y-106068965D01*
X123139200Y-105257600D02*
X123139200Y-103378000D01*
X126066001Y-102452000D02*
X127844001Y-102452000D01*
X170484800Y-107492800D02*
X170484800Y-99466400D01*
X148268050Y-94661750D02*
X150740300Y-94661750D01*
X152806400Y-108762800D02*
X163423600Y-108762800D01*
X123161870Y-106068965D02*
X123161870Y-105280270D01*
X121383870Y-106068965D02*
X121383870Y-103807070D01*
X164439600Y-107746800D02*
X164439600Y-105509700D01*
X144817100Y-97556472D02*
X146222873Y-96150700D01*
X123912800Y-102452000D02*
X123139200Y-103225600D01*
X170484800Y-99466400D02*
X169722800Y-98704400D01*
X127844001Y-80264000D02*
X127812800Y-80264000D01*
X123912800Y-102452000D02*
X126066001Y-102452000D01*
X121310400Y-110744000D02*
X142392400Y-110744000D01*
X146239000Y-106897400D02*
X144373600Y-108762800D01*
X129622001Y-101021601D02*
X127863600Y-99263200D01*
X123139200Y-103225600D02*
X123139200Y-103378000D01*
X163423600Y-108762800D02*
X169214800Y-108762800D01*
X120396000Y-109829600D02*
X121310400Y-110744000D01*
X164642800Y-98704400D02*
X163994000Y-98055600D01*
D27*
X163220400Y-92302500D02*
X161390500Y-92302500D01*
D28*
X169722800Y-98704400D02*
X164642800Y-98704400D01*
X123139200Y-102971600D02*
X123139200Y-101041200D01*
X146239000Y-100802000D02*
X145353600Y-100802000D01*
X123139200Y-103378000D02*
X123139200Y-102971600D01*
X120396000Y-104749600D02*
X120396000Y-109829600D01*
X163423600Y-108762800D02*
X164439600Y-107746800D01*
%TO.N,+3V3*%
X141325600Y-105613200D02*
X142138400Y-104800400D01*
X138023600Y-104749600D02*
X138887200Y-105613200D01*
X142138400Y-104800400D02*
X142138400Y-102921900D01*
X142290800Y-100803800D02*
X142289000Y-100802000D01*
X138887200Y-105613200D02*
X141325600Y-105613200D01*
X142290800Y-102767300D02*
X142290800Y-100803800D01*
X142137300Y-102920800D02*
X142290800Y-102767300D01*
X142138400Y-102921900D02*
X142137300Y-102920800D01*
%TO.N,+1V8*%
X148996400Y-100838000D02*
X149391600Y-101233200D01*
D27*
X165943999Y-101744500D02*
X165943999Y-102748799D01*
X154450371Y-97708100D02*
X153770271Y-97028000D01*
D28*
X147871840Y-100838000D02*
X148996400Y-100838000D01*
D27*
X165294000Y-99863600D02*
X165294000Y-101744500D01*
X165943999Y-100513599D02*
X165943999Y-101744500D01*
X165294000Y-99863600D02*
X162261000Y-96830600D01*
X161003800Y-96081400D02*
X159733800Y-96081400D01*
X145514000Y-100302000D02*
X146239000Y-100302000D01*
X161753000Y-96830600D02*
X161003800Y-96081400D01*
X146050000Y-97028000D02*
X145338800Y-97739200D01*
X162261000Y-96830600D02*
X161753000Y-96830600D01*
X168249600Y-103581200D02*
X168249600Y-103633100D01*
X165294000Y-99863600D02*
X165943999Y-100513599D01*
X166217600Y-103022400D02*
X167690800Y-103022400D01*
X158107100Y-97708100D02*
X154450371Y-97708100D01*
X153770271Y-97028000D02*
X146050000Y-97028000D01*
X167690800Y-103022400D02*
X168249600Y-103581200D01*
X145338800Y-97739200D02*
X145338800Y-100126800D01*
D28*
X149391600Y-101233200D02*
X149391600Y-103417600D01*
D27*
X165943999Y-102748799D02*
X166217600Y-103022400D01*
D28*
X146239000Y-100302000D02*
X147335840Y-100302000D01*
X147335840Y-100302000D02*
X147871840Y-100838000D01*
D27*
X159733800Y-96081400D02*
X158107100Y-97708100D01*
D28*
X149391600Y-103417600D02*
X150418800Y-104444800D01*
D27*
X145338800Y-100126800D02*
X145514000Y-100302000D01*
D28*
%TO.N,/CCD/opINB+*%
X155689700Y-91328000D02*
X157376500Y-93014800D01*
X154330400Y-91236800D02*
X155689700Y-91236800D01*
X153767800Y-91693250D02*
X153873950Y-91693250D01*
X162102800Y-93014800D02*
X163344001Y-94256001D01*
X153400300Y-92060750D02*
X153767800Y-91693250D01*
X163344001Y-94256001D02*
X163344001Y-95902500D01*
X153400300Y-93361750D02*
X153400300Y-92060750D01*
X157376500Y-93014800D02*
X162102800Y-93014800D01*
X153873950Y-91693250D02*
X154330400Y-91236800D01*
X155689700Y-91236800D02*
X155689700Y-91328000D01*
%TO.N,/ADC/opIND+*%
X164559300Y-103804400D02*
X164439600Y-103684700D01*
X164439600Y-103684700D02*
X164643999Y-103480301D01*
X164643999Y-103480301D02*
X164643999Y-101744500D01*
X166370000Y-103804400D02*
X164559300Y-103804400D01*
%TO.N,Net-(U1-Video)*%
X160021900Y-88798400D02*
X157378400Y-88798400D01*
%TO.N,/CCD/opINA+*%
X165862000Y-88798400D02*
X161846900Y-88798400D01*
X166217600Y-92913200D02*
X166217600Y-89154000D01*
X164643999Y-95902500D02*
X164643999Y-94486801D01*
X166217600Y-89154000D02*
X165862000Y-88798400D01*
X164643999Y-94486801D02*
X166217600Y-92913200D01*
%TO.N,Net-(U1-ST)*%
X129440300Y-88800300D02*
X129438400Y-88798400D01*
X129440300Y-90881200D02*
X129440300Y-88800300D01*
%TO.N,/CCD/STb*%
X131265300Y-92275502D02*
X131265300Y-90881200D01*
X130922001Y-92618801D02*
X131265300Y-92275502D01*
X130922001Y-102806500D02*
X130922001Y-92618801D01*
%TO.N,Net-(U1-CLK)*%
X135888100Y-97028000D02*
X135888100Y-80008100D01*
X135888100Y-80008100D02*
X134518400Y-78638400D01*
%TO.N,/CCD/CLKb*%
X131572000Y-99009200D02*
X133553200Y-97028000D01*
X133553200Y-97028000D02*
X134063100Y-97028000D01*
X131572000Y-102806500D02*
X131572000Y-99009200D01*
%TO.N,/ADC/Video*%
X156770700Y-98704400D02*
X156768800Y-98702500D01*
D27*
X155828000Y-99848400D02*
X156770700Y-98905700D01*
X162043999Y-101744500D02*
X162043999Y-100169599D01*
X153389600Y-99848400D02*
X154635200Y-98602800D01*
D28*
X154838400Y-98602800D02*
X154889200Y-98552000D01*
D27*
X162043999Y-100169599D02*
X161722800Y-99848400D01*
X154635200Y-98602800D02*
X154635200Y-98653600D01*
X156770700Y-98905700D02*
X156770700Y-98704400D01*
X151385900Y-99848400D02*
X151359500Y-99822000D01*
X153060400Y-99848400D02*
X153389600Y-99848400D01*
X155752800Y-99848400D02*
X153060400Y-99848400D01*
X153060400Y-99848400D02*
X151385900Y-99848400D01*
D28*
X156618300Y-98552000D02*
X156770700Y-98704400D01*
D27*
X161722800Y-99848400D02*
X155752800Y-99848400D01*
X155752800Y-99848400D02*
X155828000Y-99848400D01*
D28*
%TO.N,/CCD/opINA-*%
X165294000Y-94548000D02*
X165811200Y-94030800D01*
X165944001Y-95902500D02*
X165944001Y-94558399D01*
X167583300Y-94030800D02*
X167804000Y-94251500D01*
X165944001Y-94558399D02*
X166471600Y-94030800D01*
X165811200Y-94030800D02*
X166471600Y-94030800D01*
X166471600Y-94030800D02*
X167583300Y-94030800D01*
X165294000Y-95902500D02*
X165294000Y-94548000D01*
%TO.N,/CCD/Videob*%
X167804000Y-97807500D02*
X167804000Y-96076500D01*
%TO.N,/CCD/opINB-*%
X162102800Y-93726000D02*
X161493200Y-93726000D01*
X160172400Y-94234000D02*
X160172400Y-95402400D01*
X162694000Y-95902500D02*
X162694000Y-94317200D01*
X162044001Y-94276801D02*
X161493200Y-93726000D01*
X160680400Y-93726000D02*
X160172400Y-94234000D01*
X162694000Y-94317200D02*
X162102800Y-93726000D01*
X161493200Y-93726000D02*
X160680400Y-93726000D01*
X162044001Y-95902500D02*
X162044001Y-94276801D01*
%TO.N,/CCD/opINC+*%
X163343999Y-100402799D02*
X163343999Y-101744500D01*
X160172400Y-97227400D02*
X160172400Y-98858700D01*
X160172400Y-98858700D02*
X161799900Y-98858700D01*
X161799900Y-98858700D02*
X163343999Y-100402799D01*
D27*
%TO.N,/CCD/opINC-*%
X158595700Y-98854900D02*
X159308800Y-99568000D01*
X162694000Y-100210000D02*
X162694000Y-101744500D01*
X162052000Y-99568000D02*
X162694000Y-100210000D01*
X159308800Y-99568000D02*
X162052000Y-99568000D01*
X158595700Y-98704400D02*
X158595700Y-98854900D01*
D28*
%TO.N,/CCD/Trigb*%
X134975600Y-91795600D02*
X131978400Y-88798400D01*
X131572000Y-108712000D02*
X131572000Y-107319050D01*
X143357600Y-98348800D02*
X142900400Y-97891600D01*
X131572000Y-107319050D02*
X132820650Y-106070400D01*
X134975600Y-97586800D02*
X134975600Y-91795600D01*
X142900400Y-97891600D02*
X135280400Y-97891600D01*
X135280400Y-97891600D02*
X134975600Y-97586800D01*
X132820650Y-106070400D02*
X142036800Y-106070400D01*
X143357600Y-104749600D02*
X143357600Y-98348800D01*
X142036800Y-106070400D02*
X143357600Y-104749600D01*
%TO.N,/CCD/EOSb*%
X150774400Y-90728800D02*
X150774400Y-90322400D01*
X147320000Y-93421200D02*
X148082000Y-93421200D01*
X132221998Y-107554002D02*
X133146800Y-106629200D01*
X146572700Y-95794100D02*
X147015200Y-95351600D01*
X133146800Y-106629200D02*
X142443200Y-106629200D01*
X132221998Y-108712000D02*
X132221998Y-107554002D01*
X146075165Y-95794100D02*
X146572700Y-95794100D01*
X147015200Y-95351600D02*
X147015200Y-93726000D01*
X147015200Y-93726000D02*
X147320000Y-93421200D01*
X150774400Y-90322400D02*
X152298400Y-88798400D01*
X143967200Y-105105200D02*
X143967200Y-97902063D01*
X143967200Y-97902063D02*
X146075165Y-95794100D01*
X142443200Y-106629200D02*
X143967200Y-105105200D01*
X148082000Y-93421200D02*
X150774400Y-90728800D01*
%TO.N,/ADC/TRIG*%
X141270800Y-98802000D02*
X142289000Y-98802000D01*
X140817600Y-98348800D02*
X141270800Y-98802000D01*
X132222001Y-102806500D02*
X132222001Y-99476799D01*
X132222001Y-99476799D02*
X133350000Y-98348800D01*
X133350000Y-98348800D02*
X140817600Y-98348800D01*
%TO.N,/ADC/CLK2*%
X141193200Y-99802000D02*
X140766800Y-100228400D01*
X140766800Y-100228400D02*
X137160000Y-100228400D01*
X142289000Y-99802000D02*
X141193200Y-99802000D01*
X137160000Y-100228400D02*
X136804400Y-99872800D01*
%TO.N,/ADC/OUT*%
X138785600Y-99212400D02*
X138872421Y-99299221D01*
X138872421Y-99299221D02*
X142289000Y-99299221D01*
%TO.N,/CCD/ST*%
X130272000Y-107666000D02*
X129895600Y-107289600D01*
X129895600Y-107289600D02*
X127609600Y-107289600D01*
X127609600Y-107289600D02*
X125882400Y-109016800D01*
X130272000Y-108712000D02*
X130272000Y-107666000D01*
%TO.N,/CCD/EOS*%
X132872000Y-101519200D02*
X134061200Y-100330000D01*
X132872000Y-102806500D02*
X132872000Y-101519200D01*
%TO.N,/CCD/CLK*%
X130403600Y-106629200D02*
X130921998Y-107147598D01*
X130921998Y-107147598D02*
X130921998Y-108712000D01*
X125882400Y-106629200D02*
X130403600Y-106629200D01*
%TO.N,Net-(U3-SDI)*%
X140258800Y-101498400D02*
X141455200Y-100302000D01*
X138836400Y-101498400D02*
X140258800Y-101498400D01*
X141455200Y-100302000D02*
X142289000Y-100302000D01*
%TO.N,Net-(R6-Pad1)*%
X155535800Y-94631750D02*
X155535800Y-93030500D01*
X155505800Y-94661750D02*
X155535800Y-94631750D01*
X153400300Y-94661750D02*
X155505800Y-94661750D01*
X155535800Y-93030500D02*
X155551500Y-93014800D01*
%TD*%
%TA.AperFunction,Conductor*%
%TO.N,+5V*%
G36*
X165705103Y-91562165D02*
G01*
X165735167Y-91614236D01*
X165736489Y-91627985D01*
X165758465Y-92902635D01*
X165751977Y-92921462D01*
X165750242Y-92941298D01*
X165740201Y-92955638D01*
X165738877Y-92959482D01*
X165732733Y-92966305D01*
X165618164Y-93080874D01*
X165595319Y-93097339D01*
X164338000Y-93725999D01*
X164338000Y-95010167D01*
X164323187Y-95059001D01*
X164298243Y-95096331D01*
X164287899Y-95148340D01*
X164287899Y-96656660D01*
X164290345Y-96668955D01*
X164281196Y-96728382D01*
X164235988Y-96768025D01*
X164204133Y-96774000D01*
X163783867Y-96774000D01*
X163727366Y-96753435D01*
X163697302Y-96701364D01*
X163697656Y-96668953D01*
X163697701Y-96668724D01*
X163700101Y-96656661D01*
X163700100Y-95148340D01*
X163700100Y-95148339D01*
X163700100Y-95148336D01*
X163700099Y-95148334D01*
X163689758Y-95096337D01*
X163686444Y-95088337D01*
X163688520Y-95087476D01*
X163677600Y-95051475D01*
X163677600Y-93725999D01*
X162694797Y-93170502D01*
X162675894Y-93156135D01*
X162538622Y-93018863D01*
X162513211Y-92964369D01*
X162512926Y-92953802D01*
X162546958Y-91932850D01*
X162557168Y-91626572D01*
X162579603Y-91570787D01*
X162632648Y-91542475D01*
X162645019Y-91541600D01*
X165648602Y-91541600D01*
X165705103Y-91562165D01*
G37*
%TD.AperFunction*%
%TD*%
%TA.AperFunction,Conductor*%
%TO.N,GND*%
G36*
X172188101Y-76721065D02*
G01*
X172218165Y-76773136D01*
X172219500Y-76788400D01*
X172219500Y-111171600D01*
X172198935Y-111228101D01*
X172146864Y-111258165D01*
X172131600Y-111259500D01*
X120120800Y-111259500D01*
X120064299Y-111238935D01*
X120034235Y-111186864D01*
X120032900Y-111171600D01*
X120032900Y-110110469D01*
X120053465Y-110053968D01*
X120105536Y-110023904D01*
X120164750Y-110034345D01*
X120182954Y-110048313D01*
X121122941Y-110988301D01*
X121192559Y-111028494D01*
X121270207Y-111049300D01*
X121270208Y-111049300D01*
X142432592Y-111049300D01*
X142432593Y-111049300D01*
X142510241Y-111028494D01*
X142579859Y-110988300D01*
X144474315Y-109093845D01*
X144528809Y-109068434D01*
X144536470Y-109068100D01*
X169254992Y-109068100D01*
X169254993Y-109068100D01*
X169332641Y-109047294D01*
X169402259Y-109007100D01*
X170729100Y-107680259D01*
X170769294Y-107610642D01*
X170779087Y-107574094D01*
X170790100Y-107532993D01*
X170790100Y-99426207D01*
X170769294Y-99348559D01*
X170764014Y-99339414D01*
X170729101Y-99278941D01*
X169910259Y-98460100D01*
X169840641Y-98419906D01*
X169840640Y-98419905D01*
X169840639Y-98419905D01*
X169823604Y-98415341D01*
X169823603Y-98415340D01*
X169762993Y-98399100D01*
X168477549Y-98399100D01*
X168421048Y-98378535D01*
X168390984Y-98326464D01*
X168399230Y-98271294D01*
X168441879Y-98187591D01*
X168441879Y-98187590D01*
X168444600Y-98170409D01*
X168457300Y-98090225D01*
X168457299Y-97524776D01*
X168441879Y-97427409D01*
X168425666Y-97395589D01*
X168382084Y-97310055D01*
X168382083Y-97310054D01*
X168382082Y-97310052D01*
X168288948Y-97216918D01*
X168288945Y-97216916D01*
X168288944Y-97216915D01*
X168171594Y-97157122D01*
X168170033Y-97156615D01*
X168168973Y-97155786D01*
X168165427Y-97153980D01*
X168165778Y-97153290D01*
X168122654Y-97119594D01*
X168109300Y-97073018D01*
X168109300Y-96810981D01*
X168129865Y-96754480D01*
X168165606Y-96730373D01*
X168165427Y-96730020D01*
X168168302Y-96728554D01*
X168170043Y-96727381D01*
X168171584Y-96726879D01*
X168171591Y-96726879D01*
X168288948Y-96667082D01*
X168382082Y-96573948D01*
X168441879Y-96456591D01*
X168457300Y-96359225D01*
X168457299Y-95793776D01*
X168441879Y-95696409D01*
X168441337Y-95695345D01*
X168382084Y-95579055D01*
X168382083Y-95579054D01*
X168382082Y-95579052D01*
X168288948Y-95485918D01*
X168288945Y-95485916D01*
X168288944Y-95485915D01*
X168171591Y-95426120D01*
X168097646Y-95414409D01*
X168074225Y-95410700D01*
X168074223Y-95410700D01*
X167533777Y-95410700D01*
X167533775Y-95410701D01*
X167436411Y-95426120D01*
X167436405Y-95426122D01*
X167319055Y-95485915D01*
X167225915Y-95579055D01*
X167166120Y-95696408D01*
X167166120Y-95696409D01*
X167150700Y-95793776D01*
X167150700Y-96359222D01*
X167150701Y-96359224D01*
X167166120Y-96456588D01*
X167166122Y-96456594D01*
X167225915Y-96573944D01*
X167225916Y-96573945D01*
X167225918Y-96573948D01*
X167319052Y-96667082D01*
X167319054Y-96667083D01*
X167319055Y-96667084D01*
X167436402Y-96726876D01*
X167436405Y-96726876D01*
X167436409Y-96726879D01*
X167436413Y-96726879D01*
X167437957Y-96727381D01*
X167439013Y-96728206D01*
X167442573Y-96730020D01*
X167442220Y-96730711D01*
X167485340Y-96764396D01*
X167498700Y-96810981D01*
X167498700Y-97073018D01*
X167478135Y-97129519D01*
X167442393Y-97153628D01*
X167442573Y-97153980D01*
X167439712Y-97155437D01*
X167437967Y-97156615D01*
X167436405Y-97157122D01*
X167319055Y-97216915D01*
X167225915Y-97310055D01*
X167166120Y-97427408D01*
X167166120Y-97427409D01*
X167150700Y-97524776D01*
X167150700Y-98090222D01*
X167150701Y-98090224D01*
X167166120Y-98187588D01*
X167166122Y-98187594D01*
X167208770Y-98271294D01*
X167216098Y-98330973D01*
X167183351Y-98381400D01*
X167130451Y-98399100D01*
X164805670Y-98399100D01*
X164749169Y-98378535D01*
X164743515Y-98373355D01*
X164325045Y-97954885D01*
X164299634Y-97900391D01*
X164299300Y-97892730D01*
X164299300Y-96989112D01*
X164319865Y-96932611D01*
X164330172Y-96922223D01*
X164337822Y-96915700D01*
X164356840Y-96905842D01*
X164402048Y-96866199D01*
X164424420Y-96841868D01*
X164428477Y-96838410D01*
X164451942Y-96829659D01*
X164474179Y-96818132D01*
X164484678Y-96817452D01*
X164484814Y-96817402D01*
X164484913Y-96817437D01*
X164485490Y-96817399D01*
X164839359Y-96817399D01*
X164839363Y-96817399D01*
X164839364Y-96817398D01*
X164891364Y-96807056D01*
X164891364Y-96807055D01*
X164891368Y-96807055D01*
X164920164Y-96787813D01*
X164978567Y-96773521D01*
X165017832Y-96787812D01*
X165046631Y-96807055D01*
X165098639Y-96817400D01*
X165489360Y-96817399D01*
X165489363Y-96817399D01*
X165489365Y-96817398D01*
X165541365Y-96807056D01*
X165541365Y-96807055D01*
X165541369Y-96807055D01*
X165570165Y-96787813D01*
X165628568Y-96773521D01*
X165667833Y-96787812D01*
X165696632Y-96807055D01*
X165748640Y-96817400D01*
X166139361Y-96817399D01*
X166139364Y-96817399D01*
X166139366Y-96817398D01*
X166191366Y-96807056D01*
X166191367Y-96807056D01*
X166191367Y-96807055D01*
X166191370Y-96807055D01*
X166250348Y-96767647D01*
X166289756Y-96708669D01*
X166300101Y-96656661D01*
X166300100Y-95148340D01*
X166300100Y-95148339D01*
X166300100Y-95148336D01*
X166300099Y-95148334D01*
X166289757Y-95096334D01*
X166289757Y-95096333D01*
X166281154Y-95083458D01*
X166264114Y-95057955D01*
X166249301Y-95009121D01*
X166249301Y-94721268D01*
X166269866Y-94664767D01*
X166275046Y-94659113D01*
X166572315Y-94361845D01*
X166626809Y-94336434D01*
X166634470Y-94336100D01*
X167062801Y-94336100D01*
X167119302Y-94356665D01*
X167149366Y-94408736D01*
X167150701Y-94424000D01*
X167150701Y-94534224D01*
X167166120Y-94631588D01*
X167166122Y-94631594D01*
X167225915Y-94748944D01*
X167225916Y-94748945D01*
X167225918Y-94748948D01*
X167319052Y-94842082D01*
X167319054Y-94842083D01*
X167319055Y-94842084D01*
X167436408Y-94901879D01*
X167448119Y-94903733D01*
X167533775Y-94917300D01*
X168074224Y-94917299D01*
X168171591Y-94901879D01*
X168288948Y-94842082D01*
X168382082Y-94748948D01*
X168441879Y-94631591D01*
X168457300Y-94534225D01*
X168457299Y-93968776D01*
X168441879Y-93871409D01*
X168425510Y-93839283D01*
X168382084Y-93754055D01*
X168382083Y-93754054D01*
X168382082Y-93754052D01*
X168288948Y-93660918D01*
X168288945Y-93660916D01*
X168288944Y-93660915D01*
X168171591Y-93601120D01*
X168097646Y-93589409D01*
X168074225Y-93585700D01*
X168074223Y-93585700D01*
X167533777Y-93585700D01*
X167533775Y-93585701D01*
X167436411Y-93601120D01*
X167436405Y-93601122D01*
X167319055Y-93660915D01*
X167319051Y-93660918D01*
X167280214Y-93699755D01*
X167225720Y-93725166D01*
X167218060Y-93725500D01*
X166049270Y-93725500D01*
X165992769Y-93704935D01*
X165962705Y-93652864D01*
X165973146Y-93593650D01*
X165987115Y-93575445D01*
X166221895Y-93340665D01*
X166461901Y-93100659D01*
X166502094Y-93031041D01*
X166502862Y-93028175D01*
X166504769Y-93021061D01*
X166517665Y-92972926D01*
X166522900Y-92953393D01*
X166522900Y-89113807D01*
X166502094Y-89036159D01*
X166502094Y-89036158D01*
X166502093Y-89036157D01*
X166502093Y-89036155D01*
X166461902Y-88966544D01*
X166461901Y-88966543D01*
X166461900Y-88966541D01*
X166049459Y-88554100D01*
X165979841Y-88513906D01*
X165979840Y-88513905D01*
X165979839Y-88513905D01*
X165930613Y-88500715D01*
X165902193Y-88493100D01*
X165902192Y-88493100D01*
X162581382Y-88493100D01*
X162524881Y-88472535D01*
X162500771Y-88436793D01*
X162500420Y-88436973D01*
X162498962Y-88434112D01*
X162497785Y-88432367D01*
X162497279Y-88430813D01*
X162497279Y-88430809D01*
X162494559Y-88425471D01*
X162437484Y-88313455D01*
X162437483Y-88313454D01*
X162437482Y-88313452D01*
X162344348Y-88220318D01*
X162344345Y-88220316D01*
X162344344Y-88220315D01*
X162226991Y-88160520D01*
X162153046Y-88148809D01*
X162129625Y-88145100D01*
X162129623Y-88145100D01*
X161564177Y-88145100D01*
X161564175Y-88145101D01*
X161466811Y-88160520D01*
X161466805Y-88160522D01*
X161349455Y-88220315D01*
X161256315Y-88313455D01*
X161196520Y-88430808D01*
X161196520Y-88430809D01*
X161181100Y-88528176D01*
X161181100Y-89068622D01*
X161181101Y-89068624D01*
X161196520Y-89165988D01*
X161196522Y-89165994D01*
X161256315Y-89283344D01*
X161256316Y-89283345D01*
X161256318Y-89283348D01*
X161349452Y-89376482D01*
X161349454Y-89376483D01*
X161349455Y-89376484D01*
X161466808Y-89436279D01*
X161478519Y-89438133D01*
X161564175Y-89451700D01*
X162129624Y-89451699D01*
X162226991Y-89436279D01*
X162344348Y-89376482D01*
X162437482Y-89283348D01*
X162497279Y-89165991D01*
X162497279Y-89165984D01*
X162497785Y-89164433D01*
X162498613Y-89163373D01*
X162500420Y-89159827D01*
X162501109Y-89160178D01*
X162534806Y-89117054D01*
X162581382Y-89103700D01*
X165699131Y-89103700D01*
X165717163Y-89110263D01*
X165736279Y-89111936D01*
X165751999Y-89122942D01*
X165755632Y-89124265D01*
X165761286Y-89129445D01*
X165886555Y-89254714D01*
X165911966Y-89309208D01*
X165912300Y-89316869D01*
X165912300Y-91322044D01*
X165891735Y-91378545D01*
X165839664Y-91408609D01*
X165780450Y-91398168D01*
X165775455Y-91395056D01*
X165767796Y-91389920D01*
X165711295Y-91369355D01*
X165711282Y-91369352D01*
X165648614Y-91358301D01*
X165648604Y-91358300D01*
X165648602Y-91358300D01*
X162645019Y-91358300D01*
X162645018Y-91358300D01*
X162641786Y-91358414D01*
X162632087Y-91358757D01*
X162624664Y-91359282D01*
X162619714Y-91359632D01*
X162546343Y-91380765D01*
X162493292Y-91409079D01*
X162460806Y-91431193D01*
X162460803Y-91431195D01*
X162409543Y-91502390D01*
X162409540Y-91502394D01*
X162387106Y-91558176D01*
X162387105Y-91558179D01*
X162373970Y-91620463D01*
X162362974Y-91950329D01*
X162340538Y-92006113D01*
X162287494Y-92034425D01*
X162275123Y-92035300D01*
X161537588Y-92035300D01*
X161481087Y-92014735D01*
X161475433Y-92009555D01*
X160993845Y-91527967D01*
X160968434Y-91473473D01*
X160968100Y-91465812D01*
X160968100Y-79418552D01*
X160968100Y-79418551D01*
X160927421Y-79320343D01*
X160924046Y-79316968D01*
X160852257Y-79245178D01*
X160852257Y-79245179D01*
X160018957Y-78411879D01*
X160018955Y-78411878D01*
X160018956Y-78411878D01*
X159961427Y-78388049D01*
X159920749Y-78371200D01*
X159920748Y-78371200D01*
X158178622Y-78371200D01*
X158122121Y-78350635D01*
X158097413Y-78316937D01*
X158076098Y-78265479D01*
X158076095Y-78265472D01*
X157989939Y-78136530D01*
X157989938Y-78136529D01*
X157989936Y-78136526D01*
X157880274Y-78026864D01*
X157880270Y-78026861D01*
X157880269Y-78026860D01*
X157751327Y-77940704D01*
X157751324Y-77940702D01*
X157608047Y-77881356D01*
X157608043Y-77881354D01*
X157493708Y-77858612D01*
X157455942Y-77851100D01*
X157300858Y-77851100D01*
X157267262Y-77857782D01*
X157148756Y-77881354D01*
X157148752Y-77881356D01*
X157005475Y-77940702D01*
X157005472Y-77940704D01*
X156876530Y-78026860D01*
X156766860Y-78136530D01*
X156680704Y-78265472D01*
X156680702Y-78265475D01*
X156621356Y-78408752D01*
X156621354Y-78408756D01*
X156591100Y-78560859D01*
X156591100Y-78715940D01*
X156621354Y-78868043D01*
X156621356Y-78868047D01*
X156680702Y-79011324D01*
X156680704Y-79011327D01*
X156766860Y-79140269D01*
X156766861Y-79140270D01*
X156766864Y-79140274D01*
X156876526Y-79249936D01*
X156876529Y-79249938D01*
X156876530Y-79249939D01*
X157005472Y-79336095D01*
X157005475Y-79336097D01*
X157077113Y-79365770D01*
X157148753Y-79395444D01*
X157148754Y-79395444D01*
X157148756Y-79395445D01*
X157225322Y-79410674D01*
X157300858Y-79425700D01*
X157300860Y-79425700D01*
X157455940Y-79425700D01*
X157455942Y-79425700D01*
X157556428Y-79405711D01*
X157608043Y-79395445D01*
X157608043Y-79395444D01*
X157608047Y-79395444D01*
X157751326Y-79336096D01*
X157880274Y-79249936D01*
X157989936Y-79140274D01*
X158076096Y-79011326D01*
X158097413Y-78959863D01*
X158138034Y-78915532D01*
X158178622Y-78905600D01*
X159720512Y-78905600D01*
X159777013Y-78926165D01*
X159782667Y-78931345D01*
X160407955Y-79556633D01*
X160433366Y-79611127D01*
X160433700Y-79618788D01*
X160433700Y-88062625D01*
X160413135Y-88119126D01*
X160361064Y-88149190D01*
X160332052Y-88149443D01*
X160304626Y-88145100D01*
X159739177Y-88145100D01*
X159739175Y-88145101D01*
X159641811Y-88160520D01*
X159641805Y-88160522D01*
X159524455Y-88220315D01*
X159431315Y-88313455D01*
X159371522Y-88430805D01*
X159371015Y-88432367D01*
X159370186Y-88433426D01*
X159368380Y-88436973D01*
X159367690Y-88436621D01*
X159333994Y-88479746D01*
X159287418Y-88493100D01*
X158162840Y-88493100D01*
X158106339Y-88472535D01*
X158081631Y-88438837D01*
X158080784Y-88436793D01*
X158076096Y-88425474D01*
X157989936Y-88296526D01*
X157880274Y-88186864D01*
X157880270Y-88186861D01*
X157880269Y-88186860D01*
X157751327Y-88100704D01*
X157751324Y-88100702D01*
X157608047Y-88041356D01*
X157608043Y-88041354D01*
X157493708Y-88018612D01*
X157455942Y-88011100D01*
X157300858Y-88011100D01*
X157267262Y-88017782D01*
X157148756Y-88041354D01*
X157148752Y-88041356D01*
X157005475Y-88100702D01*
X157005472Y-88100704D01*
X156876530Y-88186860D01*
X156766860Y-88296530D01*
X156680704Y-88425472D01*
X156680702Y-88425475D01*
X156621356Y-88568752D01*
X156621354Y-88568756D01*
X156591100Y-88720859D01*
X156591100Y-88875940D01*
X156621354Y-89028043D01*
X156621356Y-89028047D01*
X156680702Y-89171324D01*
X156680704Y-89171327D01*
X156766860Y-89300269D01*
X156766861Y-89300270D01*
X156766864Y-89300274D01*
X156876526Y-89409936D01*
X156876529Y-89409938D01*
X156876530Y-89409939D01*
X157005472Y-89496095D01*
X157005475Y-89496097D01*
X157071199Y-89523320D01*
X157148753Y-89555444D01*
X157148754Y-89555444D01*
X157148756Y-89555445D01*
X157225322Y-89570674D01*
X157300858Y-89585700D01*
X157300860Y-89585700D01*
X157455940Y-89585700D01*
X157455942Y-89585700D01*
X157556428Y-89565711D01*
X157608043Y-89555445D01*
X157608043Y-89555444D01*
X157608047Y-89555444D01*
X157751326Y-89496096D01*
X157880274Y-89409936D01*
X157989936Y-89300274D01*
X158076096Y-89171326D01*
X158081631Y-89157962D01*
X158122251Y-89113632D01*
X158162840Y-89103700D01*
X159287418Y-89103700D01*
X159343919Y-89124265D01*
X159368028Y-89160006D01*
X159368380Y-89159827D01*
X159369837Y-89162687D01*
X159371015Y-89164433D01*
X159371522Y-89165994D01*
X159431315Y-89283344D01*
X159431316Y-89283345D01*
X159431318Y-89283348D01*
X159524452Y-89376482D01*
X159524454Y-89376483D01*
X159524455Y-89376484D01*
X159641808Y-89436279D01*
X159653519Y-89438133D01*
X159739175Y-89451700D01*
X160304624Y-89451699D01*
X160332051Y-89447355D01*
X160391072Y-89458828D01*
X160428911Y-89505556D01*
X160433700Y-89534173D01*
X160433700Y-91559751D01*
X160433700Y-91666049D01*
X160474379Y-91764257D01*
X161163979Y-92453857D01*
X161163978Y-92453857D01*
X161239141Y-92529019D01*
X161239143Y-92529021D01*
X161266593Y-92540391D01*
X161310923Y-92581012D01*
X161318771Y-92640625D01*
X161286465Y-92691336D01*
X161232955Y-92709500D01*
X158110982Y-92709500D01*
X158054481Y-92688935D01*
X158030371Y-92653193D01*
X158030020Y-92653373D01*
X158028562Y-92650512D01*
X158027385Y-92648767D01*
X158026879Y-92647211D01*
X158026879Y-92647209D01*
X157967082Y-92529852D01*
X157873948Y-92436718D01*
X157873945Y-92436716D01*
X157873944Y-92436715D01*
X157756591Y-92376920D01*
X157672536Y-92363608D01*
X157659225Y-92361500D01*
X157659224Y-92361500D01*
X157191369Y-92361500D01*
X157134868Y-92340935D01*
X157129214Y-92335755D01*
X156531512Y-91738053D01*
X156506101Y-91683559D01*
X156510699Y-91646868D01*
X156522787Y-91612325D01*
X156525500Y-91583393D01*
X156525499Y-90890208D01*
X156522787Y-90861275D01*
X156503230Y-90805386D01*
X156480145Y-90739409D01*
X156480144Y-90739408D01*
X156403477Y-90635527D01*
X156403472Y-90635522D01*
X156299591Y-90558855D01*
X156299590Y-90558854D01*
X156177728Y-90516213D01*
X156177723Y-90516212D01*
X156148794Y-90513500D01*
X155230610Y-90513500D01*
X155230599Y-90513501D01*
X155201681Y-90516212D01*
X155201677Y-90516212D01*
X155201675Y-90516213D01*
X155201671Y-90516214D01*
X155201668Y-90516215D01*
X155079809Y-90558854D01*
X155079808Y-90558855D01*
X154975927Y-90635522D01*
X154975922Y-90635527D01*
X154899255Y-90739408D01*
X154899254Y-90739409D01*
X154856614Y-90861269D01*
X154856376Y-90862360D01*
X154856055Y-90862866D01*
X154854846Y-90866323D01*
X154854045Y-90866042D01*
X154824227Y-90913170D01*
X154770501Y-90931500D01*
X154290207Y-90931500D01*
X154273798Y-90935896D01*
X154212559Y-90952305D01*
X154142939Y-90992500D01*
X154120861Y-91014578D01*
X154066367Y-91039988D01*
X154051816Y-91040051D01*
X154050531Y-91039950D01*
X153485077Y-91039950D01*
X153485075Y-91039951D01*
X153387711Y-91055370D01*
X153387705Y-91055372D01*
X153270355Y-91115165D01*
X153177215Y-91208305D01*
X153117420Y-91325658D01*
X153117420Y-91325659D01*
X153102000Y-91423026D01*
X153102000Y-91963471D01*
X153102001Y-91963478D01*
X153102162Y-91964493D01*
X153102129Y-91965107D01*
X153102272Y-91966914D01*
X153102033Y-91966932D01*
X153100247Y-92000972D01*
X153095000Y-92020557D01*
X153095000Y-92895550D01*
X153074435Y-92952051D01*
X153022364Y-92982115D01*
X153007100Y-92983450D01*
X152708744Y-92983450D01*
X152708738Y-92983450D01*
X152708732Y-92983451D01*
X152685478Y-92986149D01*
X152685475Y-92986150D01*
X152590299Y-93028175D01*
X152516725Y-93101749D01*
X152474700Y-93196925D01*
X152474699Y-93196928D01*
X152472001Y-93220182D01*
X152472000Y-93220201D01*
X152472000Y-93503298D01*
X152472001Y-93503317D01*
X152474699Y-93526571D01*
X152474700Y-93526574D01*
X152507616Y-93601120D01*
X152516726Y-93621752D01*
X152590298Y-93695324D01*
X152685479Y-93737351D01*
X152708744Y-93740050D01*
X152708751Y-93740050D01*
X154091849Y-93740050D01*
X154091856Y-93740050D01*
X154115121Y-93737351D01*
X154210302Y-93695324D01*
X154283874Y-93621752D01*
X154325901Y-93526571D01*
X154328600Y-93503306D01*
X154328600Y-93220194D01*
X154325901Y-93196929D01*
X154283874Y-93101748D01*
X154210302Y-93028176D01*
X154194200Y-93021066D01*
X154115124Y-92986150D01*
X154115121Y-92986149D01*
X154091867Y-92983451D01*
X154091862Y-92983450D01*
X154091856Y-92983450D01*
X154091849Y-92983450D01*
X153793500Y-92983450D01*
X153736999Y-92962885D01*
X153706935Y-92910814D01*
X153705600Y-92895550D01*
X153705600Y-92434449D01*
X153726165Y-92377948D01*
X153778236Y-92347884D01*
X153793500Y-92346549D01*
X154050523Y-92346549D01*
X154050524Y-92346549D01*
X154147891Y-92331129D01*
X154265248Y-92271332D01*
X154358382Y-92178198D01*
X154418179Y-92060841D01*
X154433600Y-91963475D01*
X154433599Y-91629999D01*
X154454164Y-91573499D01*
X154506235Y-91543435D01*
X154521499Y-91542100D01*
X154770502Y-91542100D01*
X154827003Y-91562665D01*
X154854127Y-91607527D01*
X154854846Y-91607276D01*
X154856041Y-91610693D01*
X154856379Y-91611251D01*
X154856614Y-91612330D01*
X154899254Y-91734190D01*
X154899255Y-91734191D01*
X154975922Y-91838072D01*
X154975927Y-91838077D01*
X155079808Y-91914744D01*
X155079809Y-91914745D01*
X155201671Y-91957386D01*
X155201673Y-91957386D01*
X155201675Y-91957387D01*
X155230607Y-91960100D01*
X155853630Y-91960099D01*
X155910131Y-91980664D01*
X155915785Y-91985844D01*
X156684955Y-92755014D01*
X156710366Y-92809508D01*
X156710700Y-92817169D01*
X156710700Y-93285022D01*
X156710701Y-93285024D01*
X156726120Y-93382388D01*
X156726122Y-93382394D01*
X156785915Y-93499744D01*
X156785916Y-93499745D01*
X156785918Y-93499748D01*
X156879052Y-93592882D01*
X156879054Y-93592883D01*
X156879055Y-93592884D01*
X156996408Y-93652679D01*
X157008119Y-93654533D01*
X157093775Y-93668100D01*
X157659224Y-93668099D01*
X157756591Y-93652679D01*
X157873948Y-93592882D01*
X157967082Y-93499748D01*
X158026879Y-93382391D01*
X158026879Y-93382384D01*
X158027385Y-93380833D01*
X158028213Y-93379773D01*
X158030020Y-93376227D01*
X158030709Y-93376578D01*
X158064406Y-93333454D01*
X158110982Y-93320100D01*
X160444794Y-93320100D01*
X160501295Y-93340665D01*
X160531359Y-93392736D01*
X160520918Y-93451950D01*
X160496274Y-93476587D01*
X160497508Y-93478196D01*
X160492941Y-93481699D01*
X159928100Y-94046540D01*
X159908146Y-94081100D01*
X159908147Y-94081101D01*
X159887905Y-94116160D01*
X159867100Y-94193807D01*
X159867100Y-94667918D01*
X159846535Y-94724419D01*
X159810793Y-94748528D01*
X159810973Y-94748880D01*
X159808112Y-94750337D01*
X159806367Y-94751515D01*
X159804805Y-94752022D01*
X159687455Y-94811815D01*
X159594315Y-94904955D01*
X159534520Y-95022308D01*
X159534520Y-95022309D01*
X159519100Y-95119676D01*
X159519100Y-95685122D01*
X159519101Y-95685124D01*
X159534520Y-95782488D01*
X159534520Y-95782489D01*
X159534521Y-95782491D01*
X159546137Y-95805288D01*
X159553464Y-95864967D01*
X159529972Y-95907348D01*
X158022167Y-97415155D01*
X157967673Y-97440566D01*
X157960012Y-97440900D01*
X154597459Y-97440900D01*
X154540958Y-97420335D01*
X154535304Y-97415155D01*
X154238514Y-97118365D01*
X153921628Y-96801479D01*
X153921626Y-96801478D01*
X153921627Y-96801478D01*
X153839945Y-96767645D01*
X153823420Y-96760800D01*
X153823419Y-96760800D01*
X146256743Y-96760800D01*
X146200242Y-96740235D01*
X146170178Y-96688164D01*
X146180619Y-96628950D01*
X146194588Y-96610745D01*
X146323588Y-96481745D01*
X146378082Y-96456334D01*
X146385743Y-96456000D01*
X147424692Y-96456000D01*
X147424693Y-96456000D01*
X147502341Y-96435194D01*
X147571959Y-96395000D01*
X148237001Y-95729959D01*
X148277194Y-95660341D01*
X148283691Y-95636094D01*
X148298000Y-95582693D01*
X148298000Y-95197599D01*
X148318565Y-95141098D01*
X148370636Y-95111034D01*
X148385900Y-95109699D01*
X148451790Y-95109699D01*
X148451792Y-95109699D01*
X148480725Y-95106987D01*
X148572125Y-95075004D01*
X148602590Y-95064345D01*
X148602590Y-95064344D01*
X148602592Y-95064344D01*
X148677417Y-95009121D01*
X148711149Y-94984226D01*
X148763346Y-94967050D01*
X149865615Y-94967050D01*
X149922116Y-94987615D01*
X149927758Y-94992784D01*
X149930298Y-94995324D01*
X150025479Y-95037351D01*
X150048744Y-95040050D01*
X150048751Y-95040050D01*
X151431849Y-95040050D01*
X151431856Y-95040050D01*
X151455121Y-95037351D01*
X151550302Y-94995324D01*
X151580826Y-94964798D01*
X151599680Y-94950459D01*
X151606216Y-94946759D01*
X151608140Y-94946244D01*
X151658272Y-94917300D01*
X151677758Y-94906050D01*
X152034701Y-94549108D01*
X152051390Y-94520201D01*
X152472000Y-94520201D01*
X152472000Y-94803298D01*
X152472001Y-94803317D01*
X152474699Y-94826571D01*
X152474700Y-94826574D01*
X152509308Y-94904952D01*
X152516726Y-94921752D01*
X152590298Y-94995324D01*
X152685479Y-95037351D01*
X152708744Y-95040050D01*
X152708751Y-95040050D01*
X154091849Y-95040050D01*
X154091856Y-95040050D01*
X154115121Y-95037351D01*
X154210302Y-94995324D01*
X154212831Y-94992794D01*
X154216473Y-94991095D01*
X154217021Y-94990721D01*
X154217083Y-94990811D01*
X154267324Y-94967384D01*
X154274985Y-94967050D01*
X154815103Y-94967050D01*
X154871604Y-94987615D01*
X154893422Y-95015044D01*
X154945215Y-95116694D01*
X154945216Y-95116695D01*
X154945218Y-95116698D01*
X155038352Y-95209832D01*
X155038354Y-95209833D01*
X155038355Y-95209834D01*
X155155708Y-95269629D01*
X155167419Y-95271483D01*
X155253075Y-95285050D01*
X155818524Y-95285049D01*
X155915891Y-95269629D01*
X156033248Y-95209832D01*
X156126382Y-95116698D01*
X156186179Y-94999341D01*
X156201600Y-94901975D01*
X156201599Y-94361526D01*
X156186179Y-94264159D01*
X156151221Y-94195550D01*
X156126384Y-94146805D01*
X156126383Y-94146804D01*
X156126382Y-94146802D01*
X156033248Y-94053668D01*
X156033245Y-94053666D01*
X156033244Y-94053665D01*
X155915894Y-93993872D01*
X155915891Y-93993871D01*
X155915889Y-93993870D01*
X155915887Y-93993870D01*
X155915249Y-93993769D01*
X155914785Y-93993511D01*
X155909308Y-93991732D01*
X155909653Y-93990667D01*
X155901044Y-93985895D01*
X155885050Y-93983075D01*
X155875565Y-93971771D01*
X155862660Y-93964618D01*
X155856839Y-93949455D01*
X155846401Y-93937015D01*
X155841588Y-93909723D01*
X155841113Y-93908484D01*
X155841100Y-93906951D01*
X155841100Y-93742084D01*
X155861665Y-93685583D01*
X155913736Y-93655519D01*
X155915111Y-93655288D01*
X155931591Y-93652679D01*
X156048948Y-93592882D01*
X156142082Y-93499748D01*
X156201879Y-93382391D01*
X156217300Y-93285025D01*
X156217299Y-92744576D01*
X156201879Y-92647209D01*
X156142082Y-92529852D01*
X156048948Y-92436718D01*
X156048945Y-92436716D01*
X156048944Y-92436715D01*
X155931591Y-92376920D01*
X155857646Y-92365209D01*
X155834225Y-92361500D01*
X155834223Y-92361500D01*
X155268777Y-92361500D01*
X155268775Y-92361501D01*
X155171411Y-92376920D01*
X155171405Y-92376922D01*
X155054055Y-92436715D01*
X154960915Y-92529855D01*
X154901120Y-92647208D01*
X154901120Y-92647209D01*
X154885700Y-92744576D01*
X154885700Y-93285022D01*
X154885701Y-93285024D01*
X154901120Y-93382388D01*
X154901122Y-93382394D01*
X154960915Y-93499744D01*
X154960916Y-93499745D01*
X154960918Y-93499748D01*
X155054052Y-93592882D01*
X155054054Y-93592883D01*
X155054055Y-93592884D01*
X155177573Y-93655820D01*
X155176687Y-93657557D01*
X155177217Y-93657971D01*
X155186550Y-93659617D01*
X155200291Y-93675993D01*
X155217136Y-93689150D01*
X155220150Y-93699660D01*
X155225199Y-93705677D01*
X155230500Y-93735741D01*
X155230500Y-93906951D01*
X155209935Y-93963452D01*
X155162079Y-93991081D01*
X155162291Y-93991732D01*
X155159232Y-93992725D01*
X155157864Y-93993516D01*
X155156353Y-93993768D01*
X155155713Y-93993869D01*
X155155708Y-93993870D01*
X155038355Y-94053665D01*
X154945215Y-94146805D01*
X154885420Y-94264158D01*
X154885420Y-94264159D01*
X154882548Y-94282299D01*
X154853399Y-94334888D01*
X154797266Y-94356437D01*
X154795730Y-94356450D01*
X154274985Y-94356450D01*
X154218484Y-94335885D01*
X154212841Y-94330715D01*
X154210302Y-94328176D01*
X154210300Y-94328175D01*
X154115124Y-94286150D01*
X154115121Y-94286149D01*
X154091867Y-94283451D01*
X154091862Y-94283450D01*
X154091856Y-94283450D01*
X152708744Y-94283450D01*
X152708738Y-94283450D01*
X152708732Y-94283451D01*
X152685478Y-94286149D01*
X152685475Y-94286150D01*
X152590299Y-94328175D01*
X152516725Y-94401749D01*
X152474700Y-94496925D01*
X152474699Y-94496928D01*
X152472001Y-94520182D01*
X152472000Y-94520201D01*
X152051390Y-94520201D01*
X152074894Y-94479490D01*
X152078975Y-94464260D01*
X152095700Y-94401842D01*
X152095700Y-92434449D01*
X152116265Y-92377948D01*
X152168336Y-92347884D01*
X152183600Y-92346549D01*
X152225523Y-92346549D01*
X152225524Y-92346549D01*
X152322891Y-92331129D01*
X152440248Y-92271332D01*
X152533382Y-92178198D01*
X152593179Y-92060841D01*
X152608600Y-91963475D01*
X152608599Y-91423026D01*
X152593179Y-91325659D01*
X152554014Y-91248794D01*
X152533384Y-91208305D01*
X152533383Y-91208304D01*
X152533382Y-91208302D01*
X152440248Y-91115168D01*
X152440245Y-91115166D01*
X152440244Y-91115165D01*
X152322891Y-91055370D01*
X152248946Y-91043659D01*
X152225525Y-91039950D01*
X152225523Y-91039950D01*
X151660077Y-91039950D01*
X151660075Y-91039951D01*
X151562711Y-91055370D01*
X151562705Y-91055372D01*
X151445355Y-91115165D01*
X151352215Y-91208305D01*
X151292420Y-91325658D01*
X151292420Y-91325659D01*
X151277000Y-91423026D01*
X151277000Y-91963472D01*
X151277001Y-91963474D01*
X151292420Y-92060838D01*
X151292422Y-92060844D01*
X151352215Y-92178194D01*
X151352218Y-92178198D01*
X151445347Y-92271328D01*
X151445350Y-92271330D01*
X151445352Y-92271332D01*
X151445353Y-92271332D01*
X151448859Y-92273879D01*
X151482487Y-92323723D01*
X151485100Y-92344997D01*
X151485100Y-94195550D01*
X151464535Y-94252051D01*
X151412464Y-94282115D01*
X151397200Y-94283450D01*
X150048744Y-94283450D01*
X150048738Y-94283450D01*
X150048732Y-94283451D01*
X150025478Y-94286149D01*
X150025475Y-94286150D01*
X149930299Y-94328175D01*
X149930298Y-94328175D01*
X149930298Y-94328176D01*
X149927768Y-94330705D01*
X149924126Y-94332404D01*
X149923579Y-94332779D01*
X149923516Y-94332688D01*
X149873276Y-94356116D01*
X149865615Y-94356450D01*
X148916399Y-94356450D01*
X148859898Y-94335885D01*
X148829834Y-94283814D01*
X148828499Y-94268550D01*
X148828499Y-94039810D01*
X148828498Y-94039799D01*
X148827733Y-94031634D01*
X148825787Y-94010875D01*
X148804295Y-93949455D01*
X148783145Y-93889009D01*
X148783144Y-93889008D01*
X148706477Y-93785127D01*
X148706472Y-93785122D01*
X148602591Y-93708455D01*
X148602590Y-93708454D01*
X148480728Y-93665813D01*
X148480723Y-93665812D01*
X148473446Y-93665130D01*
X148419112Y-93639380D01*
X148394041Y-93584728D01*
X148409966Y-93526748D01*
X148419491Y-93515466D01*
X151018701Y-90916259D01*
X151058894Y-90846641D01*
X151060404Y-90841007D01*
X151079700Y-90768993D01*
X151079700Y-90485268D01*
X151100265Y-90428767D01*
X151105434Y-90423124D01*
X151959596Y-89568961D01*
X152014089Y-89543551D01*
X152055389Y-89549909D01*
X152068747Y-89555442D01*
X152068756Y-89555445D01*
X152145322Y-89570674D01*
X152220858Y-89585700D01*
X152220860Y-89585700D01*
X152375940Y-89585700D01*
X152375942Y-89585700D01*
X152476428Y-89565711D01*
X152528043Y-89555445D01*
X152528043Y-89555444D01*
X152528047Y-89555444D01*
X152671326Y-89496096D01*
X152800274Y-89409936D01*
X152909936Y-89300274D01*
X152996096Y-89171326D01*
X153055444Y-89028047D01*
X153085700Y-88875942D01*
X153085700Y-88720859D01*
X154051100Y-88720859D01*
X154051100Y-88875940D01*
X154081354Y-89028043D01*
X154081356Y-89028047D01*
X154140702Y-89171324D01*
X154140704Y-89171327D01*
X154226860Y-89300269D01*
X154226861Y-89300270D01*
X154226864Y-89300274D01*
X154336526Y-89409936D01*
X154336529Y-89409938D01*
X154336530Y-89409939D01*
X154465472Y-89496095D01*
X154465475Y-89496097D01*
X154531199Y-89523320D01*
X154608753Y-89555444D01*
X154608754Y-89555444D01*
X154608756Y-89555445D01*
X154685322Y-89570674D01*
X154760858Y-89585700D01*
X154760860Y-89585700D01*
X154915940Y-89585700D01*
X154915942Y-89585700D01*
X155016428Y-89565711D01*
X155068043Y-89555445D01*
X155068043Y-89555444D01*
X155068047Y-89555444D01*
X155211326Y-89496096D01*
X155340274Y-89409936D01*
X155449936Y-89300274D01*
X155536096Y-89171326D01*
X155595444Y-89028047D01*
X155625700Y-88875942D01*
X155625700Y-88720858D01*
X155595444Y-88568753D01*
X155554181Y-88469135D01*
X155536097Y-88425475D01*
X155536095Y-88425472D01*
X155449939Y-88296530D01*
X155449938Y-88296529D01*
X155449936Y-88296526D01*
X155340274Y-88186864D01*
X155340270Y-88186861D01*
X155340269Y-88186860D01*
X155211327Y-88100704D01*
X155211324Y-88100702D01*
X155068047Y-88041356D01*
X155068043Y-88041354D01*
X154953708Y-88018612D01*
X154915942Y-88011100D01*
X154760858Y-88011100D01*
X154727262Y-88017782D01*
X154608756Y-88041354D01*
X154608752Y-88041356D01*
X154465475Y-88100702D01*
X154465472Y-88100704D01*
X154336530Y-88186860D01*
X154226860Y-88296530D01*
X154140704Y-88425472D01*
X154140702Y-88425475D01*
X154081356Y-88568752D01*
X154081354Y-88568756D01*
X154051100Y-88720859D01*
X153085700Y-88720859D01*
X153085700Y-88720858D01*
X153055444Y-88568753D01*
X153014181Y-88469135D01*
X152996097Y-88425475D01*
X152996095Y-88425472D01*
X152909939Y-88296530D01*
X152909938Y-88296529D01*
X152909936Y-88296526D01*
X152800274Y-88186864D01*
X152800270Y-88186861D01*
X152800269Y-88186860D01*
X152671327Y-88100704D01*
X152671324Y-88100702D01*
X152528047Y-88041356D01*
X152528043Y-88041354D01*
X152413708Y-88018612D01*
X152375942Y-88011100D01*
X152220858Y-88011100D01*
X152187262Y-88017782D01*
X152068756Y-88041354D01*
X152068752Y-88041356D01*
X151925475Y-88100702D01*
X151925472Y-88100704D01*
X151796530Y-88186860D01*
X151686860Y-88296530D01*
X151600704Y-88425472D01*
X151600702Y-88425475D01*
X151541356Y-88568752D01*
X151541354Y-88568756D01*
X151511100Y-88720859D01*
X151511100Y-88875940D01*
X151541354Y-89028043D01*
X151541358Y-89028055D01*
X151546891Y-89041414D01*
X151549512Y-89101484D01*
X151527836Y-89137203D01*
X150530101Y-90134939D01*
X150489905Y-90204560D01*
X150469100Y-90282207D01*
X150469100Y-90565930D01*
X150448535Y-90622431D01*
X150443355Y-90628085D01*
X147981286Y-93090155D01*
X147926792Y-93115566D01*
X147919131Y-93115900D01*
X147279807Y-93115900D01*
X147222964Y-93131131D01*
X147202159Y-93136705D01*
X147132543Y-93176898D01*
X146770901Y-93538539D01*
X146770900Y-93538541D01*
X146744235Y-93584728D01*
X146743674Y-93585699D01*
X146743673Y-93585700D01*
X146730705Y-93608160D01*
X146709900Y-93685807D01*
X146709900Y-95188730D01*
X146689335Y-95245231D01*
X146684155Y-95250885D01*
X146471986Y-95463055D01*
X146417492Y-95488465D01*
X146409831Y-95488800D01*
X146034972Y-95488800D01*
X145984567Y-95502306D01*
X145957324Y-95509605D01*
X145887708Y-95549798D01*
X143722897Y-97714607D01*
X143682705Y-97784220D01*
X143680635Y-97791949D01*
X143680635Y-97791950D01*
X143661900Y-97861870D01*
X143661900Y-98009131D01*
X143641335Y-98065632D01*
X143589264Y-98095696D01*
X143530050Y-98085255D01*
X143511845Y-98071286D01*
X143087857Y-97647298D01*
X143018246Y-97607107D01*
X143018242Y-97607106D01*
X143014419Y-97606082D01*
X143014418Y-97606081D01*
X142940593Y-97586300D01*
X136584748Y-97586300D01*
X136528247Y-97565735D01*
X136498183Y-97513664D01*
X136506428Y-97458495D01*
X136517286Y-97437182D01*
X136538479Y-97395591D01*
X136553900Y-97298225D01*
X136553899Y-96757776D01*
X136538479Y-96660409D01*
X136513174Y-96610745D01*
X136478684Y-96543055D01*
X136478683Y-96543054D01*
X136478682Y-96543052D01*
X136385548Y-96449918D01*
X136385545Y-96449916D01*
X136385544Y-96449915D01*
X136268194Y-96390122D01*
X136268191Y-96390121D01*
X136268189Y-96390120D01*
X136268187Y-96390120D01*
X136267549Y-96390019D01*
X136267085Y-96389761D01*
X136261608Y-96387982D01*
X136261953Y-96386917D01*
X136214960Y-96360868D01*
X136193413Y-96304734D01*
X136193400Y-96303201D01*
X136193400Y-89209239D01*
X136213965Y-89152738D01*
X136266036Y-89122674D01*
X136325250Y-89133115D01*
X136358819Y-89167799D01*
X136360707Y-89171331D01*
X136446860Y-89300269D01*
X136446861Y-89300270D01*
X136446864Y-89300274D01*
X136556526Y-89409936D01*
X136556529Y-89409938D01*
X136556530Y-89409939D01*
X136685472Y-89496095D01*
X136685475Y-89496097D01*
X136751199Y-89523320D01*
X136828753Y-89555444D01*
X136828754Y-89555444D01*
X136828756Y-89555445D01*
X136905322Y-89570674D01*
X136980858Y-89585700D01*
X136980860Y-89585700D01*
X137135940Y-89585700D01*
X137135942Y-89585700D01*
X137236428Y-89565711D01*
X137288043Y-89555445D01*
X137288043Y-89555444D01*
X137288047Y-89555444D01*
X137431326Y-89496096D01*
X137560274Y-89409936D01*
X137669936Y-89300274D01*
X137756096Y-89171326D01*
X137815444Y-89028047D01*
X137845700Y-88875942D01*
X137845700Y-88720859D01*
X138811100Y-88720859D01*
X138811100Y-88875940D01*
X138841354Y-89028043D01*
X138841356Y-89028047D01*
X138900702Y-89171324D01*
X138900704Y-89171327D01*
X138986860Y-89300269D01*
X138986861Y-89300270D01*
X138986864Y-89300274D01*
X139096526Y-89409936D01*
X139096529Y-89409938D01*
X139096530Y-89409939D01*
X139225472Y-89496095D01*
X139225475Y-89496097D01*
X139291199Y-89523320D01*
X139368753Y-89555444D01*
X139368754Y-89555444D01*
X139368756Y-89555445D01*
X139445322Y-89570674D01*
X139520858Y-89585700D01*
X139520860Y-89585700D01*
X139675940Y-89585700D01*
X139675942Y-89585700D01*
X139776428Y-89565711D01*
X139828043Y-89555445D01*
X139828043Y-89555444D01*
X139828047Y-89555444D01*
X139971326Y-89496096D01*
X140100274Y-89409936D01*
X140209936Y-89300274D01*
X140296096Y-89171326D01*
X140355444Y-89028047D01*
X140385700Y-88875942D01*
X140385700Y-88720859D01*
X141351100Y-88720859D01*
X141351100Y-88875940D01*
X141381354Y-89028043D01*
X141381356Y-89028047D01*
X141440702Y-89171324D01*
X141440704Y-89171327D01*
X141526860Y-89300269D01*
X141526861Y-89300270D01*
X141526864Y-89300274D01*
X141636526Y-89409936D01*
X141636529Y-89409938D01*
X141636530Y-89409939D01*
X141765472Y-89496095D01*
X141765475Y-89496097D01*
X141831199Y-89523320D01*
X141908753Y-89555444D01*
X141908754Y-89555444D01*
X141908756Y-89555445D01*
X141985322Y-89570674D01*
X142060858Y-89585700D01*
X142060860Y-89585700D01*
X142215940Y-89585700D01*
X142215942Y-89585700D01*
X142316428Y-89565711D01*
X142368043Y-89555445D01*
X142368043Y-89555444D01*
X142368047Y-89555444D01*
X142511326Y-89496096D01*
X142640274Y-89409936D01*
X142749936Y-89300274D01*
X142836096Y-89171326D01*
X142895444Y-89028047D01*
X142925700Y-88875942D01*
X142925700Y-88720859D01*
X143891100Y-88720859D01*
X143891100Y-88875940D01*
X143921354Y-89028043D01*
X143921356Y-89028047D01*
X143980702Y-89171324D01*
X143980704Y-89171327D01*
X144066860Y-89300269D01*
X144066861Y-89300270D01*
X144066864Y-89300274D01*
X144176526Y-89409936D01*
X144176529Y-89409938D01*
X144176530Y-89409939D01*
X144305472Y-89496095D01*
X144305475Y-89496097D01*
X144371199Y-89523320D01*
X144448753Y-89555444D01*
X144448754Y-89555444D01*
X144448756Y-89555445D01*
X144525322Y-89570674D01*
X144600858Y-89585700D01*
X144600860Y-89585700D01*
X144755940Y-89585700D01*
X144755942Y-89585700D01*
X144856428Y-89565711D01*
X144908043Y-89555445D01*
X144908043Y-89555444D01*
X144908047Y-89555444D01*
X145051326Y-89496096D01*
X145180274Y-89409936D01*
X145289936Y-89300274D01*
X145376096Y-89171326D01*
X145435444Y-89028047D01*
X145465700Y-88875942D01*
X145465700Y-88720859D01*
X146431100Y-88720859D01*
X146431100Y-88875940D01*
X146461354Y-89028043D01*
X146461356Y-89028047D01*
X146520702Y-89171324D01*
X146520704Y-89171327D01*
X146606860Y-89300269D01*
X146606861Y-89300270D01*
X146606864Y-89300274D01*
X146716526Y-89409936D01*
X146716529Y-89409938D01*
X146716530Y-89409939D01*
X146845472Y-89496095D01*
X146845475Y-89496097D01*
X146911199Y-89523320D01*
X146988753Y-89555444D01*
X146988754Y-89555444D01*
X146988756Y-89555445D01*
X147065322Y-89570674D01*
X147140858Y-89585700D01*
X147140860Y-89585700D01*
X147295940Y-89585700D01*
X147295942Y-89585700D01*
X147396428Y-89565711D01*
X147448043Y-89555445D01*
X147448043Y-89555444D01*
X147448047Y-89555444D01*
X147591326Y-89496096D01*
X147720274Y-89409936D01*
X147829936Y-89300274D01*
X147916096Y-89171326D01*
X147975444Y-89028047D01*
X148005700Y-88875942D01*
X148005700Y-88720859D01*
X148971100Y-88720859D01*
X148971100Y-88875940D01*
X149001354Y-89028043D01*
X149001356Y-89028047D01*
X149060702Y-89171324D01*
X149060704Y-89171327D01*
X149146860Y-89300269D01*
X149146861Y-89300270D01*
X149146864Y-89300274D01*
X149256526Y-89409936D01*
X149256529Y-89409938D01*
X149256530Y-89409939D01*
X149385472Y-89496095D01*
X149385475Y-89496097D01*
X149451199Y-89523320D01*
X149528753Y-89555444D01*
X149528754Y-89555444D01*
X149528756Y-89555445D01*
X149605322Y-89570674D01*
X149680858Y-89585700D01*
X149680860Y-89585700D01*
X149835940Y-89585700D01*
X149835942Y-89585700D01*
X149936428Y-89565711D01*
X149988043Y-89555445D01*
X149988043Y-89555444D01*
X149988047Y-89555444D01*
X150131326Y-89496096D01*
X150260274Y-89409936D01*
X150369936Y-89300274D01*
X150456096Y-89171326D01*
X150515444Y-89028047D01*
X150545700Y-88875942D01*
X150545700Y-88720858D01*
X150515444Y-88568753D01*
X150474181Y-88469135D01*
X150456097Y-88425475D01*
X150456095Y-88425472D01*
X150369939Y-88296530D01*
X150369938Y-88296529D01*
X150369936Y-88296526D01*
X150260274Y-88186864D01*
X150260270Y-88186861D01*
X150260269Y-88186860D01*
X150131327Y-88100704D01*
X150131324Y-88100702D01*
X149988047Y-88041356D01*
X149988043Y-88041354D01*
X149873708Y-88018612D01*
X149835942Y-88011100D01*
X149680858Y-88011100D01*
X149647262Y-88017782D01*
X149528756Y-88041354D01*
X149528752Y-88041356D01*
X149385475Y-88100702D01*
X149385472Y-88100704D01*
X149256530Y-88186860D01*
X149146860Y-88296530D01*
X149060704Y-88425472D01*
X149060702Y-88425475D01*
X149001356Y-88568752D01*
X149001354Y-88568756D01*
X148971100Y-88720859D01*
X148005700Y-88720859D01*
X148005700Y-88720858D01*
X147975444Y-88568753D01*
X147934181Y-88469135D01*
X147916097Y-88425475D01*
X147916095Y-88425472D01*
X147829939Y-88296530D01*
X147829938Y-88296529D01*
X147829936Y-88296526D01*
X147720274Y-88186864D01*
X147720270Y-88186861D01*
X147720269Y-88186860D01*
X147591327Y-88100704D01*
X147591324Y-88100702D01*
X147448047Y-88041356D01*
X147448043Y-88041354D01*
X147333708Y-88018612D01*
X147295942Y-88011100D01*
X147140858Y-88011100D01*
X147107262Y-88017782D01*
X146988756Y-88041354D01*
X146988752Y-88041356D01*
X146845475Y-88100702D01*
X146845472Y-88100704D01*
X146716530Y-88186860D01*
X146606860Y-88296530D01*
X146520704Y-88425472D01*
X146520702Y-88425475D01*
X146461356Y-88568752D01*
X146461354Y-88568756D01*
X146431100Y-88720859D01*
X145465700Y-88720859D01*
X145465700Y-88720858D01*
X145435444Y-88568753D01*
X145394181Y-88469135D01*
X145376097Y-88425475D01*
X145376095Y-88425472D01*
X145289939Y-88296530D01*
X145289938Y-88296529D01*
X145289936Y-88296526D01*
X145180274Y-88186864D01*
X145180270Y-88186861D01*
X145180269Y-88186860D01*
X145051327Y-88100704D01*
X145051324Y-88100702D01*
X144908047Y-88041356D01*
X144908043Y-88041354D01*
X144793708Y-88018612D01*
X144755942Y-88011100D01*
X144600858Y-88011100D01*
X144567262Y-88017782D01*
X144448756Y-88041354D01*
X144448752Y-88041356D01*
X144305475Y-88100702D01*
X144305472Y-88100704D01*
X144176530Y-88186860D01*
X144066860Y-88296530D01*
X143980704Y-88425472D01*
X143980702Y-88425475D01*
X143921356Y-88568752D01*
X143921354Y-88568756D01*
X143891100Y-88720859D01*
X142925700Y-88720859D01*
X142925700Y-88720858D01*
X142895444Y-88568753D01*
X142854181Y-88469135D01*
X142836097Y-88425475D01*
X142836095Y-88425472D01*
X142749939Y-88296530D01*
X142749938Y-88296529D01*
X142749936Y-88296526D01*
X142640274Y-88186864D01*
X142640270Y-88186861D01*
X142640269Y-88186860D01*
X142511327Y-88100704D01*
X142511324Y-88100702D01*
X142368047Y-88041356D01*
X142368043Y-88041354D01*
X142253708Y-88018612D01*
X142215942Y-88011100D01*
X142060858Y-88011100D01*
X142027262Y-88017782D01*
X141908756Y-88041354D01*
X141908752Y-88041356D01*
X141765475Y-88100702D01*
X141765472Y-88100704D01*
X141636530Y-88186860D01*
X141526860Y-88296530D01*
X141440704Y-88425472D01*
X141440702Y-88425475D01*
X141381356Y-88568752D01*
X141381354Y-88568756D01*
X141351100Y-88720859D01*
X140385700Y-88720859D01*
X140385700Y-88720858D01*
X140355444Y-88568753D01*
X140314181Y-88469135D01*
X140296097Y-88425475D01*
X140296095Y-88425472D01*
X140209939Y-88296530D01*
X140209938Y-88296529D01*
X140209936Y-88296526D01*
X140100274Y-88186864D01*
X140100270Y-88186861D01*
X140100269Y-88186860D01*
X139971327Y-88100704D01*
X139971324Y-88100702D01*
X139828047Y-88041356D01*
X139828043Y-88041354D01*
X139713708Y-88018612D01*
X139675942Y-88011100D01*
X139520858Y-88011100D01*
X139487262Y-88017782D01*
X139368756Y-88041354D01*
X139368752Y-88041356D01*
X139225475Y-88100702D01*
X139225472Y-88100704D01*
X139096530Y-88186860D01*
X138986860Y-88296530D01*
X138900704Y-88425472D01*
X138900702Y-88425475D01*
X138841356Y-88568752D01*
X138841354Y-88568756D01*
X138811100Y-88720859D01*
X137845700Y-88720859D01*
X137845700Y-88720858D01*
X137815444Y-88568753D01*
X137774181Y-88469135D01*
X137756097Y-88425475D01*
X137756095Y-88425472D01*
X137669939Y-88296530D01*
X137669938Y-88296529D01*
X137669936Y-88296526D01*
X137560274Y-88186864D01*
X137560270Y-88186861D01*
X137560269Y-88186860D01*
X137431327Y-88100704D01*
X137431324Y-88100702D01*
X137288047Y-88041356D01*
X137288043Y-88041354D01*
X137173708Y-88018612D01*
X137135942Y-88011100D01*
X136980858Y-88011100D01*
X136947262Y-88017782D01*
X136828756Y-88041354D01*
X136828752Y-88041356D01*
X136685475Y-88100702D01*
X136685472Y-88100704D01*
X136556530Y-88186860D01*
X136446860Y-88296530D01*
X136360701Y-88425477D01*
X136358816Y-88429004D01*
X136314041Y-88469135D01*
X136253946Y-88471095D01*
X136206650Y-88433969D01*
X136193400Y-88387560D01*
X136193400Y-79967907D01*
X136172594Y-79890259D01*
X136172593Y-79890255D01*
X136132402Y-79820644D01*
X136132401Y-79820643D01*
X136132400Y-79820641D01*
X135288962Y-78977203D01*
X135263551Y-78922709D01*
X135269908Y-78881410D01*
X135275444Y-78868047D01*
X135305700Y-78715942D01*
X135305700Y-78560859D01*
X136271100Y-78560859D01*
X136271100Y-78715940D01*
X136301354Y-78868043D01*
X136301356Y-78868047D01*
X136360702Y-79011324D01*
X136360704Y-79011327D01*
X136446860Y-79140269D01*
X136446861Y-79140270D01*
X136446864Y-79140274D01*
X136556526Y-79249936D01*
X136556529Y-79249938D01*
X136556530Y-79249939D01*
X136685472Y-79336095D01*
X136685475Y-79336097D01*
X136757113Y-79365770D01*
X136828753Y-79395444D01*
X136828754Y-79395444D01*
X136828756Y-79395445D01*
X136905322Y-79410674D01*
X136980858Y-79425700D01*
X136980860Y-79425700D01*
X137135940Y-79425700D01*
X137135942Y-79425700D01*
X137236428Y-79405711D01*
X137288043Y-79395445D01*
X137288043Y-79395444D01*
X137288047Y-79395444D01*
X137431326Y-79336096D01*
X137560274Y-79249936D01*
X137669936Y-79140274D01*
X137756096Y-79011326D01*
X137756099Y-79011320D01*
X137770230Y-78977203D01*
X137815444Y-78868047D01*
X137845700Y-78715942D01*
X137845700Y-78560859D01*
X138811100Y-78560859D01*
X138811100Y-78715940D01*
X138841354Y-78868043D01*
X138841356Y-78868047D01*
X138900702Y-79011324D01*
X138900704Y-79011327D01*
X138986860Y-79140269D01*
X138986861Y-79140270D01*
X138986864Y-79140274D01*
X139096526Y-79249936D01*
X139096529Y-79249938D01*
X139096530Y-79249939D01*
X139225472Y-79336095D01*
X139225475Y-79336097D01*
X139297113Y-79365770D01*
X139368753Y-79395444D01*
X139368754Y-79395444D01*
X139368756Y-79395445D01*
X139445322Y-79410674D01*
X139520858Y-79425700D01*
X139520860Y-79425700D01*
X139675940Y-79425700D01*
X139675942Y-79425700D01*
X139776428Y-79405711D01*
X139828043Y-79395445D01*
X139828043Y-79395444D01*
X139828047Y-79395444D01*
X139971326Y-79336096D01*
X140100274Y-79249936D01*
X140209936Y-79140274D01*
X140296096Y-79011326D01*
X140296099Y-79011320D01*
X140310230Y-78977203D01*
X140355444Y-78868047D01*
X140385700Y-78715942D01*
X140385700Y-78560859D01*
X141351100Y-78560859D01*
X141351100Y-78715940D01*
X141381354Y-78868043D01*
X141381356Y-78868047D01*
X141440702Y-79011324D01*
X141440704Y-79011327D01*
X141526860Y-79140269D01*
X141526861Y-79140270D01*
X141526864Y-79140274D01*
X141636526Y-79249936D01*
X141636529Y-79249938D01*
X141636530Y-79249939D01*
X141765472Y-79336095D01*
X141765475Y-79336097D01*
X141837113Y-79365770D01*
X141908753Y-79395444D01*
X141908754Y-79395444D01*
X141908756Y-79395445D01*
X141985322Y-79410674D01*
X142060858Y-79425700D01*
X142060860Y-79425700D01*
X142215940Y-79425700D01*
X142215942Y-79425700D01*
X142316428Y-79405711D01*
X142368043Y-79395445D01*
X142368043Y-79395444D01*
X142368047Y-79395444D01*
X142511326Y-79336096D01*
X142640274Y-79249936D01*
X142749936Y-79140274D01*
X142836096Y-79011326D01*
X142836099Y-79011320D01*
X142850230Y-78977203D01*
X142895444Y-78868047D01*
X142925700Y-78715942D01*
X142925700Y-78560859D01*
X143891100Y-78560859D01*
X143891100Y-78715940D01*
X143921354Y-78868043D01*
X143921356Y-78868047D01*
X143980702Y-79011324D01*
X143980704Y-79011327D01*
X144066860Y-79140269D01*
X144066861Y-79140270D01*
X144066864Y-79140274D01*
X144176526Y-79249936D01*
X144176529Y-79249938D01*
X144176530Y-79249939D01*
X144305472Y-79336095D01*
X144305475Y-79336097D01*
X144377113Y-79365770D01*
X144448753Y-79395444D01*
X144448754Y-79395444D01*
X144448756Y-79395445D01*
X144525322Y-79410674D01*
X144600858Y-79425700D01*
X144600860Y-79425700D01*
X144755940Y-79425700D01*
X144755942Y-79425700D01*
X144856428Y-79405711D01*
X144908043Y-79395445D01*
X144908043Y-79395444D01*
X144908047Y-79395444D01*
X145051326Y-79336096D01*
X145180274Y-79249936D01*
X145289936Y-79140274D01*
X145376096Y-79011326D01*
X145376099Y-79011320D01*
X145390230Y-78977203D01*
X145435444Y-78868047D01*
X145465700Y-78715942D01*
X145465700Y-78560859D01*
X146431100Y-78560859D01*
X146431100Y-78715940D01*
X146461354Y-78868043D01*
X146461356Y-78868047D01*
X146520702Y-79011324D01*
X146520704Y-79011327D01*
X146606860Y-79140269D01*
X146606861Y-79140270D01*
X146606864Y-79140274D01*
X146716526Y-79249936D01*
X146716529Y-79249938D01*
X146716530Y-79249939D01*
X146845472Y-79336095D01*
X146845475Y-79336097D01*
X146917113Y-79365770D01*
X146988753Y-79395444D01*
X146988754Y-79395444D01*
X146988756Y-79395445D01*
X147065322Y-79410674D01*
X147140858Y-79425700D01*
X147140860Y-79425700D01*
X147295940Y-79425700D01*
X147295942Y-79425700D01*
X147396428Y-79405711D01*
X147448043Y-79395445D01*
X147448043Y-79395444D01*
X147448047Y-79395444D01*
X147591326Y-79336096D01*
X147720274Y-79249936D01*
X147829936Y-79140274D01*
X147916096Y-79011326D01*
X147916099Y-79011320D01*
X147930230Y-78977203D01*
X147975444Y-78868047D01*
X148005700Y-78715942D01*
X148005700Y-78560859D01*
X148971100Y-78560859D01*
X148971100Y-78715940D01*
X149001354Y-78868043D01*
X149001356Y-78868047D01*
X149060702Y-79011324D01*
X149060704Y-79011327D01*
X149146860Y-79140269D01*
X149146861Y-79140270D01*
X149146864Y-79140274D01*
X149256526Y-79249936D01*
X149256529Y-79249938D01*
X149256530Y-79249939D01*
X149385472Y-79336095D01*
X149385475Y-79336097D01*
X149457113Y-79365770D01*
X149528753Y-79395444D01*
X149528754Y-79395444D01*
X149528756Y-79395445D01*
X149605322Y-79410674D01*
X149680858Y-79425700D01*
X149680860Y-79425700D01*
X149835940Y-79425700D01*
X149835942Y-79425700D01*
X149936428Y-79405711D01*
X149988043Y-79395445D01*
X149988043Y-79395444D01*
X149988047Y-79395444D01*
X150131326Y-79336096D01*
X150260274Y-79249936D01*
X150369936Y-79140274D01*
X150456096Y-79011326D01*
X150456099Y-79011320D01*
X150470230Y-78977203D01*
X150515444Y-78868047D01*
X150545700Y-78715942D01*
X150545700Y-78560859D01*
X151511100Y-78560859D01*
X151511100Y-78715940D01*
X151541354Y-78868043D01*
X151541356Y-78868047D01*
X151600702Y-79011324D01*
X151600704Y-79011327D01*
X151686860Y-79140269D01*
X151686861Y-79140270D01*
X151686864Y-79140274D01*
X151796526Y-79249936D01*
X151796529Y-79249938D01*
X151796530Y-79249939D01*
X151925472Y-79336095D01*
X151925475Y-79336097D01*
X151997113Y-79365770D01*
X152068753Y-79395444D01*
X152068754Y-79395444D01*
X152068756Y-79395445D01*
X152145322Y-79410674D01*
X152220858Y-79425700D01*
X152220860Y-79425700D01*
X152375940Y-79425700D01*
X152375942Y-79425700D01*
X152476428Y-79405711D01*
X152528043Y-79395445D01*
X152528043Y-79395444D01*
X152528047Y-79395444D01*
X152671326Y-79336096D01*
X152800274Y-79249936D01*
X152909936Y-79140274D01*
X152996096Y-79011326D01*
X152996099Y-79011320D01*
X153010230Y-78977203D01*
X153055444Y-78868047D01*
X153085700Y-78715942D01*
X153085700Y-78560858D01*
X153055444Y-78408753D01*
X153017413Y-78316937D01*
X152996097Y-78265475D01*
X152996095Y-78265472D01*
X152909939Y-78136530D01*
X152909938Y-78136529D01*
X152909936Y-78136526D01*
X152800274Y-78026864D01*
X152800270Y-78026861D01*
X152800269Y-78026860D01*
X152671327Y-77940704D01*
X152671324Y-77940702D01*
X152528047Y-77881356D01*
X152528043Y-77881354D01*
X152413708Y-77858612D01*
X152375942Y-77851100D01*
X152220858Y-77851100D01*
X152187262Y-77857782D01*
X152068756Y-77881354D01*
X152068752Y-77881356D01*
X151925475Y-77940702D01*
X151925472Y-77940704D01*
X151796530Y-78026860D01*
X151686860Y-78136530D01*
X151600704Y-78265472D01*
X151600702Y-78265475D01*
X151541356Y-78408752D01*
X151541354Y-78408756D01*
X151511100Y-78560859D01*
X150545700Y-78560859D01*
X150545700Y-78560858D01*
X150515444Y-78408753D01*
X150477413Y-78316937D01*
X150456097Y-78265475D01*
X150456095Y-78265472D01*
X150369939Y-78136530D01*
X150369938Y-78136529D01*
X150369936Y-78136526D01*
X150260274Y-78026864D01*
X150260270Y-78026861D01*
X150260269Y-78026860D01*
X150131327Y-77940704D01*
X150131324Y-77940702D01*
X149988047Y-77881356D01*
X149988043Y-77881354D01*
X149873708Y-77858612D01*
X149835942Y-77851100D01*
X149680858Y-77851100D01*
X149647262Y-77857782D01*
X149528756Y-77881354D01*
X149528752Y-77881356D01*
X149385475Y-77940702D01*
X149385472Y-77940704D01*
X149256530Y-78026860D01*
X149146860Y-78136530D01*
X149060704Y-78265472D01*
X149060702Y-78265475D01*
X149001356Y-78408752D01*
X149001354Y-78408756D01*
X148971100Y-78560859D01*
X148005700Y-78560859D01*
X148005700Y-78560858D01*
X147975444Y-78408753D01*
X147937413Y-78316937D01*
X147916097Y-78265475D01*
X147916095Y-78265472D01*
X147829939Y-78136530D01*
X147829938Y-78136529D01*
X147829936Y-78136526D01*
X147720274Y-78026864D01*
X147720270Y-78026861D01*
X147720269Y-78026860D01*
X147591327Y-77940704D01*
X147591324Y-77940702D01*
X147448047Y-77881356D01*
X147448043Y-77881354D01*
X147333708Y-77858612D01*
X147295942Y-77851100D01*
X147140858Y-77851100D01*
X147107262Y-77857782D01*
X146988756Y-77881354D01*
X146988752Y-77881356D01*
X146845475Y-77940702D01*
X146845472Y-77940704D01*
X146716530Y-78026860D01*
X146606860Y-78136530D01*
X146520704Y-78265472D01*
X146520702Y-78265475D01*
X146461356Y-78408752D01*
X146461354Y-78408756D01*
X146431100Y-78560859D01*
X145465700Y-78560859D01*
X145465700Y-78560858D01*
X145435444Y-78408753D01*
X145397413Y-78316937D01*
X145376097Y-78265475D01*
X145376095Y-78265472D01*
X145289939Y-78136530D01*
X145289938Y-78136529D01*
X145289936Y-78136526D01*
X145180274Y-78026864D01*
X145180270Y-78026861D01*
X145180269Y-78026860D01*
X145051327Y-77940704D01*
X145051324Y-77940702D01*
X144908047Y-77881356D01*
X144908043Y-77881354D01*
X144793708Y-77858612D01*
X144755942Y-77851100D01*
X144600858Y-77851100D01*
X144567262Y-77857782D01*
X144448756Y-77881354D01*
X144448752Y-77881356D01*
X144305475Y-77940702D01*
X144305472Y-77940704D01*
X144176530Y-78026860D01*
X144066860Y-78136530D01*
X143980704Y-78265472D01*
X143980702Y-78265475D01*
X143921356Y-78408752D01*
X143921354Y-78408756D01*
X143891100Y-78560859D01*
X142925700Y-78560859D01*
X142925700Y-78560858D01*
X142895444Y-78408753D01*
X142857413Y-78316937D01*
X142836097Y-78265475D01*
X142836095Y-78265472D01*
X142749939Y-78136530D01*
X142749938Y-78136529D01*
X142749936Y-78136526D01*
X142640274Y-78026864D01*
X142640270Y-78026861D01*
X142640269Y-78026860D01*
X142511327Y-77940704D01*
X142511324Y-77940702D01*
X142368047Y-77881356D01*
X142368043Y-77881354D01*
X142253708Y-77858612D01*
X142215942Y-77851100D01*
X142060858Y-77851100D01*
X142027262Y-77857782D01*
X141908756Y-77881354D01*
X141908752Y-77881356D01*
X141765475Y-77940702D01*
X141765472Y-77940704D01*
X141636530Y-78026860D01*
X141526860Y-78136530D01*
X141440704Y-78265472D01*
X141440702Y-78265475D01*
X141381356Y-78408752D01*
X141381354Y-78408756D01*
X141351100Y-78560859D01*
X140385700Y-78560859D01*
X140385700Y-78560858D01*
X140355444Y-78408753D01*
X140317413Y-78316937D01*
X140296097Y-78265475D01*
X140296095Y-78265472D01*
X140209939Y-78136530D01*
X140209938Y-78136529D01*
X140209936Y-78136526D01*
X140100274Y-78026864D01*
X140100270Y-78026861D01*
X140100269Y-78026860D01*
X139971327Y-77940704D01*
X139971324Y-77940702D01*
X139828047Y-77881356D01*
X139828043Y-77881354D01*
X139713708Y-77858612D01*
X139675942Y-77851100D01*
X139520858Y-77851100D01*
X139487262Y-77857782D01*
X139368756Y-77881354D01*
X139368752Y-77881356D01*
X139225475Y-77940702D01*
X139225472Y-77940704D01*
X139096530Y-78026860D01*
X138986860Y-78136530D01*
X138900704Y-78265472D01*
X138900702Y-78265475D01*
X138841356Y-78408752D01*
X138841354Y-78408756D01*
X138811100Y-78560859D01*
X137845700Y-78560859D01*
X137845700Y-78560858D01*
X137815444Y-78408753D01*
X137777413Y-78316937D01*
X137756097Y-78265475D01*
X137756095Y-78265472D01*
X137669939Y-78136530D01*
X137669938Y-78136529D01*
X137669936Y-78136526D01*
X137560274Y-78026864D01*
X137560270Y-78026861D01*
X137560269Y-78026860D01*
X137431327Y-77940704D01*
X137431324Y-77940702D01*
X137288047Y-77881356D01*
X137288043Y-77881354D01*
X137173708Y-77858612D01*
X137135942Y-77851100D01*
X136980858Y-77851100D01*
X136947262Y-77857782D01*
X136828756Y-77881354D01*
X136828752Y-77881356D01*
X136685475Y-77940702D01*
X136685472Y-77940704D01*
X136556530Y-78026860D01*
X136446860Y-78136530D01*
X136360704Y-78265472D01*
X136360702Y-78265475D01*
X136301356Y-78408752D01*
X136301354Y-78408756D01*
X136271100Y-78560859D01*
X135305700Y-78560859D01*
X135305700Y-78560858D01*
X135275444Y-78408753D01*
X135237413Y-78316937D01*
X135216097Y-78265475D01*
X135216095Y-78265472D01*
X135129939Y-78136530D01*
X135129938Y-78136529D01*
X135129936Y-78136526D01*
X135020274Y-78026864D01*
X135020270Y-78026861D01*
X135020269Y-78026860D01*
X134891327Y-77940704D01*
X134891324Y-77940702D01*
X134748047Y-77881356D01*
X134748043Y-77881354D01*
X134633708Y-77858612D01*
X134595942Y-77851100D01*
X134440858Y-77851100D01*
X134407262Y-77857782D01*
X134288756Y-77881354D01*
X134288752Y-77881356D01*
X134145475Y-77940702D01*
X134145472Y-77940704D01*
X134016530Y-78026860D01*
X133906860Y-78136530D01*
X133820704Y-78265472D01*
X133820702Y-78265475D01*
X133761356Y-78408752D01*
X133761354Y-78408756D01*
X133731100Y-78560859D01*
X133731100Y-78715940D01*
X133761354Y-78868043D01*
X133761356Y-78868047D01*
X133820702Y-79011324D01*
X133820704Y-79011327D01*
X133906860Y-79140269D01*
X133906861Y-79140270D01*
X133906864Y-79140274D01*
X134016526Y-79249936D01*
X134016529Y-79249938D01*
X134016530Y-79249939D01*
X134145472Y-79336095D01*
X134145475Y-79336097D01*
X134217113Y-79365770D01*
X134288753Y-79395444D01*
X134288754Y-79395444D01*
X134288756Y-79395445D01*
X134365322Y-79410674D01*
X134440858Y-79425700D01*
X134440860Y-79425700D01*
X134595940Y-79425700D01*
X134595942Y-79425700D01*
X134695528Y-79405890D01*
X134748038Y-79395446D01*
X134748039Y-79395445D01*
X134748047Y-79395444D01*
X134761409Y-79389908D01*
X134821478Y-79387285D01*
X134857203Y-79408962D01*
X135557055Y-80108814D01*
X135582466Y-80163308D01*
X135582800Y-80170969D01*
X135582800Y-96303201D01*
X135562235Y-96359702D01*
X135532254Y-96382769D01*
X135520963Y-96388069D01*
X135508009Y-96390121D01*
X135407457Y-96441354D01*
X135406154Y-96441967D01*
X135377556Y-96444543D01*
X135349027Y-96448046D01*
X135347766Y-96447227D01*
X135346269Y-96447362D01*
X135322689Y-96430941D01*
X135298600Y-96415298D01*
X135298106Y-96413823D01*
X135296927Y-96413002D01*
X135293092Y-96398838D01*
X135280900Y-96362399D01*
X135280900Y-91755407D01*
X135260094Y-91677758D01*
X135248799Y-91658195D01*
X135248797Y-91658192D01*
X135219901Y-91608141D01*
X132748961Y-89137202D01*
X132723551Y-89082709D01*
X132729908Y-89041410D01*
X132735444Y-89028047D01*
X132765700Y-88875942D01*
X132765700Y-88720858D01*
X132735444Y-88568753D01*
X132694181Y-88469135D01*
X132676097Y-88425475D01*
X132676095Y-88425472D01*
X132589939Y-88296530D01*
X132589938Y-88296529D01*
X132589936Y-88296526D01*
X132480274Y-88186864D01*
X132480270Y-88186861D01*
X132480269Y-88186860D01*
X132351327Y-88100704D01*
X132351324Y-88100702D01*
X132208047Y-88041356D01*
X132208043Y-88041354D01*
X132093708Y-88018612D01*
X132055942Y-88011100D01*
X131900858Y-88011100D01*
X131867262Y-88017782D01*
X131748756Y-88041354D01*
X131748752Y-88041356D01*
X131605475Y-88100702D01*
X131605472Y-88100704D01*
X131476530Y-88186860D01*
X131366860Y-88296530D01*
X131280704Y-88425472D01*
X131280702Y-88425475D01*
X131221356Y-88568752D01*
X131221354Y-88568756D01*
X131191100Y-88720859D01*
X131191100Y-88875940D01*
X131221354Y-89028043D01*
X131221356Y-89028047D01*
X131280702Y-89171324D01*
X131280704Y-89171327D01*
X131366860Y-89300269D01*
X131366861Y-89300270D01*
X131366864Y-89300274D01*
X131476526Y-89409936D01*
X131476529Y-89409938D01*
X131476530Y-89409939D01*
X131605472Y-89496095D01*
X131605475Y-89496097D01*
X131671199Y-89523320D01*
X131748753Y-89555444D01*
X131748754Y-89555444D01*
X131748756Y-89555445D01*
X131825322Y-89570674D01*
X131900858Y-89585700D01*
X131900860Y-89585700D01*
X132055940Y-89585700D01*
X132055942Y-89585700D01*
X132155528Y-89565890D01*
X132208038Y-89555446D01*
X132208039Y-89555445D01*
X132208047Y-89555444D01*
X132221409Y-89549908D01*
X132281478Y-89547285D01*
X132317203Y-89568962D01*
X134644555Y-91896314D01*
X134669966Y-91950808D01*
X134670300Y-91958469D01*
X134670300Y-96362399D01*
X134649735Y-96418900D01*
X134597664Y-96448964D01*
X134542494Y-96440719D01*
X134489708Y-96413823D01*
X134443191Y-96390121D01*
X134443189Y-96390120D01*
X134443188Y-96390120D01*
X134368403Y-96378276D01*
X134345825Y-96374700D01*
X134345823Y-96374700D01*
X133780377Y-96374700D01*
X133780375Y-96374701D01*
X133683011Y-96390120D01*
X133683005Y-96390122D01*
X133565655Y-96449915D01*
X133472515Y-96543055D01*
X133412720Y-96660408D01*
X133412720Y-96660409D01*
X133402478Y-96725081D01*
X133373328Y-96777670D01*
X133369178Y-96781061D01*
X133365745Y-96783695D01*
X133365741Y-96783698D01*
X133365741Y-96783699D01*
X132357491Y-97791950D01*
X131377356Y-98772085D01*
X131322862Y-98797496D01*
X131264784Y-98781933D01*
X131230296Y-98732680D01*
X131227301Y-98709930D01*
X131227301Y-92781669D01*
X131247866Y-92725168D01*
X131253035Y-92719525D01*
X131509600Y-92462961D01*
X131549794Y-92393344D01*
X131554843Y-92374501D01*
X131570600Y-92315695D01*
X131570600Y-91605998D01*
X131591165Y-91549497D01*
X131639021Y-91521866D01*
X131638810Y-91521217D01*
X131641865Y-91520224D01*
X131643236Y-91519433D01*
X131644692Y-91519189D01*
X131645391Y-91519079D01*
X131762748Y-91459282D01*
X131855882Y-91366148D01*
X131915679Y-91248791D01*
X131931100Y-91151425D01*
X131931099Y-90610976D01*
X131915679Y-90513609D01*
X131915623Y-90513500D01*
X131855884Y-90396255D01*
X131855883Y-90396254D01*
X131855882Y-90396252D01*
X131762748Y-90303118D01*
X131762745Y-90303116D01*
X131762744Y-90303115D01*
X131645391Y-90243320D01*
X131570597Y-90231475D01*
X131548025Y-90227900D01*
X131548023Y-90227900D01*
X130982577Y-90227900D01*
X130982575Y-90227901D01*
X130885211Y-90243320D01*
X130885205Y-90243322D01*
X130767855Y-90303115D01*
X130674715Y-90396255D01*
X130614920Y-90513608D01*
X130614920Y-90513609D01*
X130599500Y-90610976D01*
X130599500Y-91151422D01*
X130599501Y-91151424D01*
X130614920Y-91248788D01*
X130614922Y-91248794D01*
X130674715Y-91366144D01*
X130674716Y-91366145D01*
X130674718Y-91366148D01*
X130767852Y-91459282D01*
X130767854Y-91459283D01*
X130767855Y-91459284D01*
X130852455Y-91502390D01*
X130885209Y-91519079D01*
X130885842Y-91519179D01*
X130886303Y-91519434D01*
X130891791Y-91521218D01*
X130891444Y-91522283D01*
X130938433Y-91548324D01*
X130959986Y-91604455D01*
X130960000Y-91605998D01*
X130960000Y-92112633D01*
X130939435Y-92169134D01*
X130934255Y-92174788D01*
X130677701Y-92431341D01*
X130659445Y-92462960D01*
X130659446Y-92462961D01*
X130637506Y-92500961D01*
X130616701Y-92578608D01*
X130616701Y-101944871D01*
X130601888Y-101993705D01*
X130576245Y-102032081D01*
X130565901Y-102084090D01*
X130565901Y-103528913D01*
X130565902Y-103528915D01*
X130576244Y-103580915D01*
X130576244Y-103580916D01*
X130576245Y-103580918D01*
X130576246Y-103580919D01*
X130615654Y-103639897D01*
X130674632Y-103679305D01*
X130726640Y-103689650D01*
X131117361Y-103689649D01*
X131117364Y-103689649D01*
X131117366Y-103689648D01*
X131169366Y-103679306D01*
X131169367Y-103679306D01*
X131169367Y-103679305D01*
X131169370Y-103679305D01*
X131198166Y-103660063D01*
X131256568Y-103645772D01*
X131295834Y-103660064D01*
X131324629Y-103679304D01*
X131324631Y-103679305D01*
X131376639Y-103689650D01*
X131767360Y-103689649D01*
X131767363Y-103689649D01*
X131767365Y-103689648D01*
X131819365Y-103679306D01*
X131819365Y-103679305D01*
X131819369Y-103679305D01*
X131848165Y-103660063D01*
X131906568Y-103645771D01*
X131945833Y-103660062D01*
X131974632Y-103679305D01*
X132026640Y-103689650D01*
X132417361Y-103689649D01*
X132417364Y-103689649D01*
X132417366Y-103689648D01*
X132469366Y-103679306D01*
X132469367Y-103679306D01*
X132469367Y-103679305D01*
X132469370Y-103679305D01*
X132498166Y-103660063D01*
X132556568Y-103645772D01*
X132595834Y-103660064D01*
X132624629Y-103679304D01*
X132624631Y-103679305D01*
X132676639Y-103689650D01*
X133067360Y-103689649D01*
X133067363Y-103689649D01*
X133067365Y-103689648D01*
X133119365Y-103679306D01*
X133119366Y-103679306D01*
X133119366Y-103679305D01*
X133119369Y-103679305D01*
X133178347Y-103639897D01*
X133217755Y-103580919D01*
X133228100Y-103528911D01*
X133228099Y-102084090D01*
X133228099Y-102084089D01*
X133228099Y-102084086D01*
X133228098Y-102084084D01*
X133217756Y-102032084D01*
X133217756Y-102032083D01*
X133213204Y-102025271D01*
X133192113Y-101993705D01*
X133177300Y-101944871D01*
X133177300Y-101682068D01*
X133197865Y-101625567D01*
X133203034Y-101619924D01*
X133811257Y-101011700D01*
X133865750Y-100986290D01*
X133890552Y-100987644D01*
X133994393Y-101008300D01*
X133994396Y-101008300D01*
X134128005Y-101008300D01*
X134128007Y-101008300D01*
X134218327Y-100990334D01*
X134259049Y-100982234D01*
X134259050Y-100982233D01*
X134259053Y-100982233D01*
X134382491Y-100931104D01*
X134382492Y-100931104D01*
X134382493Y-100931103D01*
X134382496Y-100931102D01*
X134493591Y-100856870D01*
X134588070Y-100762391D01*
X134662302Y-100651296D01*
X134713433Y-100527853D01*
X134713995Y-100525031D01*
X134728330Y-100452960D01*
X134739500Y-100396807D01*
X134739500Y-100263193D01*
X134725755Y-100194092D01*
X134713434Y-100132150D01*
X134713431Y-100132142D01*
X134662304Y-100008709D01*
X134662304Y-100008707D01*
X134625649Y-99953849D01*
X134588070Y-99897609D01*
X134493591Y-99803130D01*
X134382496Y-99728898D01*
X134382494Y-99728897D01*
X134382491Y-99728895D01*
X134259057Y-99677768D01*
X134259049Y-99677765D01*
X134160544Y-99658172D01*
X134128007Y-99651700D01*
X133994393Y-99651700D01*
X133965449Y-99657457D01*
X133863350Y-99677765D01*
X133863342Y-99677768D01*
X133739909Y-99728895D01*
X133739907Y-99728895D01*
X133628811Y-99803128D01*
X133534328Y-99897611D01*
X133460095Y-100008707D01*
X133460095Y-100008709D01*
X133408968Y-100132142D01*
X133408965Y-100132150D01*
X133390878Y-100223084D01*
X133382900Y-100263193D01*
X133382900Y-100396807D01*
X133386973Y-100417281D01*
X133403553Y-100500639D01*
X133394406Y-100560067D01*
X133379497Y-100579942D01*
X132677356Y-101282084D01*
X132622862Y-101307495D01*
X132564784Y-101291933D01*
X132530296Y-101242679D01*
X132527301Y-101219929D01*
X132527301Y-99639668D01*
X132547866Y-99583167D01*
X132553046Y-99577513D01*
X133450714Y-98679845D01*
X133505208Y-98654434D01*
X133512869Y-98654100D01*
X138178410Y-98654100D01*
X138234911Y-98674665D01*
X138264975Y-98726736D01*
X138254534Y-98785950D01*
X138251496Y-98790835D01*
X138184495Y-98891107D01*
X138184495Y-98891109D01*
X138133368Y-99014542D01*
X138133365Y-99014550D01*
X138112181Y-99121055D01*
X138107300Y-99145593D01*
X138107300Y-99279207D01*
X138109977Y-99292664D01*
X138133365Y-99410249D01*
X138133368Y-99410257D01*
X138184495Y-99533690D01*
X138184495Y-99533692D01*
X138243239Y-99621608D01*
X138258730Y-99644791D01*
X138353209Y-99739270D01*
X138353212Y-99739272D01*
X138353213Y-99739273D01*
X138387397Y-99762114D01*
X138422951Y-99810603D01*
X138419019Y-99870601D01*
X138377440Y-99914035D01*
X138338563Y-99923100D01*
X137570600Y-99923100D01*
X137514099Y-99902535D01*
X137484035Y-99850464D01*
X137482700Y-99835200D01*
X137482700Y-99805994D01*
X137482130Y-99803130D01*
X137472472Y-99754575D01*
X137456634Y-99674950D01*
X137456631Y-99674942D01*
X137409284Y-99560635D01*
X137405504Y-99551508D01*
X137405504Y-99551507D01*
X137376810Y-99508564D01*
X137331270Y-99440409D01*
X137236791Y-99345930D01*
X137125696Y-99271698D01*
X137125694Y-99271697D01*
X137125691Y-99271695D01*
X137002257Y-99220568D01*
X137002249Y-99220565D01*
X136903744Y-99200972D01*
X136871207Y-99194500D01*
X136737593Y-99194500D01*
X136708649Y-99200257D01*
X136606550Y-99220565D01*
X136606542Y-99220568D01*
X136483109Y-99271695D01*
X136483107Y-99271695D01*
X136372011Y-99345928D01*
X136277528Y-99440411D01*
X136203295Y-99551507D01*
X136203295Y-99551509D01*
X136152168Y-99674942D01*
X136152165Y-99674950D01*
X136134828Y-99762114D01*
X136126670Y-99803130D01*
X136126100Y-99805994D01*
X136126100Y-99939605D01*
X136152165Y-100070649D01*
X136152168Y-100070657D01*
X136203295Y-100194090D01*
X136203295Y-100194092D01*
X136249468Y-100263194D01*
X136277530Y-100305191D01*
X136372009Y-100399670D01*
X136483104Y-100473902D01*
X136483106Y-100473903D01*
X136483108Y-100473904D01*
X136606542Y-100525031D01*
X136606550Y-100525034D01*
X136650118Y-100533700D01*
X136737593Y-100551100D01*
X136737595Y-100551100D01*
X136871204Y-100551100D01*
X136871207Y-100551100D01*
X137002253Y-100525033D01*
X137008148Y-100522590D01*
X137064540Y-100518891D01*
X137119807Y-100533700D01*
X140579531Y-100533700D01*
X140636032Y-100554265D01*
X140666096Y-100606336D01*
X140655655Y-100665550D01*
X140641686Y-100683755D01*
X140158086Y-101167355D01*
X140103592Y-101192766D01*
X140095931Y-101193100D01*
X139495174Y-101193100D01*
X139438673Y-101172535D01*
X139422088Y-101154035D01*
X139363271Y-101066011D01*
X139363270Y-101066009D01*
X139268791Y-100971530D01*
X139157696Y-100897298D01*
X139157694Y-100897297D01*
X139157691Y-100897295D01*
X139034257Y-100846168D01*
X139034249Y-100846165D01*
X138935744Y-100826572D01*
X138903207Y-100820100D01*
X138769593Y-100820100D01*
X138740649Y-100825857D01*
X138638550Y-100846165D01*
X138638542Y-100846168D01*
X138515109Y-100897295D01*
X138515107Y-100897295D01*
X138404011Y-100971528D01*
X138309528Y-101066011D01*
X138235295Y-101177107D01*
X138235295Y-101177109D01*
X138184168Y-101300542D01*
X138184165Y-101300550D01*
X138161336Y-101415324D01*
X138158100Y-101431593D01*
X138158100Y-101565207D01*
X138160831Y-101578935D01*
X138184165Y-101696249D01*
X138184168Y-101696257D01*
X138235295Y-101819690D01*
X138235295Y-101819692D01*
X138302859Y-101920807D01*
X138309530Y-101930791D01*
X138404009Y-102025270D01*
X138515104Y-102099502D01*
X138515106Y-102099503D01*
X138515108Y-102099504D01*
X138638542Y-102150631D01*
X138638550Y-102150634D01*
X138682118Y-102159300D01*
X138769593Y-102176700D01*
X138769595Y-102176700D01*
X138903205Y-102176700D01*
X138903207Y-102176700D01*
X138990682Y-102159300D01*
X139034249Y-102150634D01*
X139034250Y-102150633D01*
X139034253Y-102150633D01*
X139157691Y-102099504D01*
X139157692Y-102099504D01*
X139157693Y-102099503D01*
X139157696Y-102099502D01*
X139268791Y-102025270D01*
X139363270Y-101930791D01*
X139422088Y-101842765D01*
X139470578Y-101807211D01*
X139495174Y-101803700D01*
X140298992Y-101803700D01*
X140298993Y-101803700D01*
X140376641Y-101782894D01*
X140430807Y-101751621D01*
X140446259Y-101742700D01*
X141485646Y-100703312D01*
X141540139Y-100677902D01*
X141598217Y-100693465D01*
X141632705Y-100742718D01*
X141635700Y-100765468D01*
X141635700Y-100939938D01*
X141645190Y-100987645D01*
X141648917Y-101006383D01*
X141699265Y-101081735D01*
X141774617Y-101132083D01*
X141841063Y-101145300D01*
X141897600Y-101145299D01*
X141954100Y-101165863D01*
X141984164Y-101217934D01*
X141985500Y-101233199D01*
X141985500Y-102179600D01*
X141964935Y-102236101D01*
X141912864Y-102266165D01*
X141897601Y-102267500D01*
X141804577Y-102267500D01*
X141804574Y-102267501D01*
X141707211Y-102282920D01*
X141707205Y-102282922D01*
X141589855Y-102342715D01*
X141496715Y-102435855D01*
X141436920Y-102553208D01*
X141436920Y-102553209D01*
X141425490Y-102625384D01*
X141422165Y-102646380D01*
X141421500Y-102650576D01*
X141421500Y-103191022D01*
X141421501Y-103191024D01*
X141436920Y-103288388D01*
X141436922Y-103288394D01*
X141496715Y-103405744D01*
X141496716Y-103405745D01*
X141496718Y-103405748D01*
X141589852Y-103498882D01*
X141589854Y-103498883D01*
X141589855Y-103498884D01*
X141707208Y-103558679D01*
X141717063Y-103560239D01*
X141758950Y-103566873D01*
X141811538Y-103596022D01*
X141833087Y-103652155D01*
X141833100Y-103653691D01*
X141833100Y-104637530D01*
X141812535Y-104694031D01*
X141807355Y-104699685D01*
X141224886Y-105282155D01*
X141170392Y-105307566D01*
X141162731Y-105307900D01*
X139050070Y-105307900D01*
X138993569Y-105287335D01*
X138987915Y-105282155D01*
X138705301Y-104999542D01*
X138679890Y-104945048D01*
X138681244Y-104920248D01*
X138701900Y-104816407D01*
X138701900Y-104682793D01*
X138675833Y-104551747D01*
X138624704Y-104428308D01*
X138624704Y-104428307D01*
X138593122Y-104381042D01*
X138550470Y-104317209D01*
X138455991Y-104222730D01*
X138344896Y-104148498D01*
X138344894Y-104148497D01*
X138344891Y-104148495D01*
X138221457Y-104097368D01*
X138221449Y-104097365D01*
X138122944Y-104077772D01*
X138090407Y-104071300D01*
X137956793Y-104071300D01*
X137927849Y-104077057D01*
X137825750Y-104097365D01*
X137825742Y-104097368D01*
X137702309Y-104148495D01*
X137702307Y-104148495D01*
X137591211Y-104222728D01*
X137496728Y-104317211D01*
X137422495Y-104428307D01*
X137422495Y-104428309D01*
X137371368Y-104551742D01*
X137371365Y-104551750D01*
X137345300Y-104682794D01*
X137345300Y-104816405D01*
X137371365Y-104947449D01*
X137371368Y-104947457D01*
X137422495Y-105070890D01*
X137422495Y-105070892D01*
X137472275Y-105145392D01*
X137496730Y-105181991D01*
X137591209Y-105276470D01*
X137702304Y-105350702D01*
X137702306Y-105350703D01*
X137702308Y-105350704D01*
X137825742Y-105401831D01*
X137825750Y-105401834D01*
X137885888Y-105413796D01*
X137956793Y-105427900D01*
X137956795Y-105427900D01*
X138090404Y-105427900D01*
X138090407Y-105427900D01*
X138194242Y-105407245D01*
X138253665Y-105416391D01*
X138273542Y-105431301D01*
X138457285Y-105615045D01*
X138482696Y-105669539D01*
X138467133Y-105727618D01*
X138417880Y-105762105D01*
X138395130Y-105765100D01*
X132780457Y-105765100D01*
X132764048Y-105769496D01*
X132702809Y-105785905D01*
X132633189Y-105826100D01*
X131361282Y-107098009D01*
X131306788Y-107123420D01*
X131248710Y-107107857D01*
X131218900Y-107071771D01*
X131216035Y-107065371D01*
X131206492Y-107029757D01*
X131180247Y-106984300D01*
X131166298Y-106960139D01*
X130591059Y-106384900D01*
X130521441Y-106344706D01*
X130521440Y-106344705D01*
X130521439Y-106344705D01*
X130472213Y-106331515D01*
X130443793Y-106323900D01*
X130443792Y-106323900D01*
X126541174Y-106323900D01*
X126484673Y-106303335D01*
X126468088Y-106284835D01*
X126409271Y-106196811D01*
X126409270Y-106196809D01*
X126314791Y-106102330D01*
X126203696Y-106028098D01*
X126203694Y-106028097D01*
X126203691Y-106028095D01*
X126080257Y-105976968D01*
X126080249Y-105976965D01*
X125981744Y-105957372D01*
X125949207Y-105950900D01*
X125815593Y-105950900D01*
X125786649Y-105956657D01*
X125684550Y-105976965D01*
X125684542Y-105976968D01*
X125561109Y-106028095D01*
X125561107Y-106028095D01*
X125450011Y-106102328D01*
X125355528Y-106196811D01*
X125281295Y-106307907D01*
X125281295Y-106307909D01*
X125230168Y-106431342D01*
X125230165Y-106431350D01*
X125207336Y-106546124D01*
X125204100Y-106562393D01*
X125204100Y-106696007D01*
X125206794Y-106709549D01*
X125230165Y-106827049D01*
X125230168Y-106827057D01*
X125281295Y-106950490D01*
X125281295Y-106950492D01*
X125334259Y-107029757D01*
X125355530Y-107061591D01*
X125450009Y-107156070D01*
X125561104Y-107230302D01*
X125561106Y-107230303D01*
X125561108Y-107230304D01*
X125684542Y-107281431D01*
X125684550Y-107281434D01*
X125750516Y-107294555D01*
X125815593Y-107307500D01*
X125815595Y-107307500D01*
X125949205Y-107307500D01*
X125949207Y-107307500D01*
X126035780Y-107290279D01*
X126080249Y-107281434D01*
X126080250Y-107281433D01*
X126080253Y-107281433D01*
X126203691Y-107230304D01*
X126203692Y-107230304D01*
X126203693Y-107230303D01*
X126203696Y-107230302D01*
X126314791Y-107156070D01*
X126409270Y-107061591D01*
X126460915Y-106984300D01*
X126468088Y-106973565D01*
X126516578Y-106938011D01*
X126541174Y-106934500D01*
X127320730Y-106934500D01*
X127377231Y-106955065D01*
X127407295Y-107007136D01*
X127396854Y-107066350D01*
X127382885Y-107084555D01*
X126132342Y-108335097D01*
X126077848Y-108360508D01*
X126053039Y-108359153D01*
X125985820Y-108345783D01*
X125949207Y-108338500D01*
X125815593Y-108338500D01*
X125786649Y-108344257D01*
X125684550Y-108364565D01*
X125684542Y-108364568D01*
X125561109Y-108415695D01*
X125561107Y-108415695D01*
X125450011Y-108489928D01*
X125355528Y-108584411D01*
X125281295Y-108695507D01*
X125281295Y-108695509D01*
X125230168Y-108818942D01*
X125230165Y-108818950D01*
X125207336Y-108933724D01*
X125204100Y-108949993D01*
X125204100Y-109083607D01*
X125210572Y-109116144D01*
X125230165Y-109214649D01*
X125230168Y-109214657D01*
X125281295Y-109338090D01*
X125281295Y-109338092D01*
X125281298Y-109338096D01*
X125355530Y-109449191D01*
X125450009Y-109543670D01*
X125561104Y-109617902D01*
X125561106Y-109617903D01*
X125561108Y-109617904D01*
X125684542Y-109669031D01*
X125684550Y-109669034D01*
X125750516Y-109682155D01*
X125815593Y-109695100D01*
X125815595Y-109695100D01*
X125949205Y-109695100D01*
X125949207Y-109695100D01*
X126053317Y-109674391D01*
X126080249Y-109669034D01*
X126080250Y-109669033D01*
X126080253Y-109669033D01*
X126203691Y-109617904D01*
X126203692Y-109617904D01*
X126203693Y-109617903D01*
X126203696Y-109617902D01*
X126314791Y-109543670D01*
X126409270Y-109449191D01*
X126483502Y-109338096D01*
X126534633Y-109214653D01*
X126560700Y-109083607D01*
X126560700Y-108949993D01*
X126540045Y-108846156D01*
X126549191Y-108786733D01*
X126564097Y-108766860D01*
X127710315Y-107620645D01*
X127764809Y-107595234D01*
X127772470Y-107594900D01*
X129732731Y-107594900D01*
X129789232Y-107615465D01*
X129794886Y-107620645D01*
X129940955Y-107766714D01*
X129949065Y-107784105D01*
X129961399Y-107798805D01*
X129964730Y-107817701D01*
X129966366Y-107821208D01*
X129966700Y-107828869D01*
X129966700Y-107850371D01*
X129951887Y-107899205D01*
X129926244Y-107937581D01*
X129915900Y-107989590D01*
X129915900Y-109434413D01*
X129915901Y-109434415D01*
X129926243Y-109486415D01*
X129926243Y-109486416D01*
X129926244Y-109486418D01*
X129926245Y-109486419D01*
X129965653Y-109545397D01*
X130024631Y-109584805D01*
X130076639Y-109595150D01*
X130467360Y-109595149D01*
X130467363Y-109595149D01*
X130467365Y-109595148D01*
X130519365Y-109584806D01*
X130519366Y-109584806D01*
X130519366Y-109584805D01*
X130519369Y-109584805D01*
X130548165Y-109565563D01*
X130606567Y-109551272D01*
X130645831Y-109565563D01*
X130674629Y-109584805D01*
X130726637Y-109595150D01*
X131117358Y-109595149D01*
X131117361Y-109595149D01*
X131117363Y-109595148D01*
X131169363Y-109584806D01*
X131169364Y-109584806D01*
X131169364Y-109584805D01*
X131169367Y-109584805D01*
X131198164Y-109565562D01*
X131256568Y-109551271D01*
X131295832Y-109565562D01*
X131324631Y-109584805D01*
X131376639Y-109595150D01*
X131767360Y-109595149D01*
X131767363Y-109595149D01*
X131767365Y-109595148D01*
X131819365Y-109584806D01*
X131819366Y-109584806D01*
X131819366Y-109584805D01*
X131819369Y-109584805D01*
X131848165Y-109565563D01*
X131906567Y-109551272D01*
X131945831Y-109565563D01*
X131974629Y-109584805D01*
X132026637Y-109595150D01*
X132417358Y-109595149D01*
X132417361Y-109595149D01*
X132417363Y-109595148D01*
X132469363Y-109584806D01*
X132469364Y-109584806D01*
X132469364Y-109584805D01*
X132469367Y-109584805D01*
X132528345Y-109545397D01*
X132567753Y-109486419D01*
X132578098Y-109434411D01*
X132578097Y-107989590D01*
X132578097Y-107989589D01*
X132578097Y-107989586D01*
X132578096Y-107989584D01*
X132567754Y-107937584D01*
X132567754Y-107937583D01*
X132542111Y-107899205D01*
X132538579Y-107887562D01*
X132532599Y-107880435D01*
X132527298Y-107850371D01*
X132527298Y-107716871D01*
X132547863Y-107660370D01*
X132553043Y-107654716D01*
X133247515Y-106960245D01*
X133302009Y-106934834D01*
X133309670Y-106934500D01*
X142483392Y-106934500D01*
X142483393Y-106934500D01*
X142528222Y-106922487D01*
X142561038Y-106913695D01*
X142561038Y-106913694D01*
X142561041Y-106913694D01*
X142579047Y-106903298D01*
X142630659Y-106873500D01*
X144211500Y-105292659D01*
X144241858Y-105240077D01*
X144249422Y-105226977D01*
X144251694Y-105223041D01*
X144267935Y-105162428D01*
X144272500Y-105145393D01*
X144272500Y-98064933D01*
X144279063Y-98046900D01*
X144280736Y-98027785D01*
X144291742Y-98012064D01*
X144293065Y-98008432D01*
X144298245Y-98002778D01*
X144361745Y-97939278D01*
X144416239Y-97913867D01*
X144474317Y-97929430D01*
X144508805Y-97978683D01*
X144511800Y-98001433D01*
X144511800Y-100305693D01*
X144512693Y-100309026D01*
X144527050Y-100362606D01*
X144532419Y-100382645D01*
X144532606Y-100383341D01*
X144572800Y-100452959D01*
X145166141Y-101046301D01*
X145227516Y-101081735D01*
X145235759Y-101086494D01*
X145313407Y-101107300D01*
X145660862Y-101107300D01*
X145709695Y-101122112D01*
X145724617Y-101132083D01*
X145791063Y-101145300D01*
X145845800Y-101145299D01*
X145902300Y-101165863D01*
X145932364Y-101217934D01*
X145933700Y-101233199D01*
X145933700Y-106734530D01*
X145913135Y-106791031D01*
X145907955Y-106796685D01*
X144186141Y-108518499D01*
X142291686Y-110412955D01*
X142237192Y-110438366D01*
X142229531Y-110438700D01*
X121473270Y-110438700D01*
X121416769Y-110418135D01*
X121411115Y-110412955D01*
X120727045Y-109728885D01*
X120701634Y-109674391D01*
X120701300Y-109666730D01*
X120701300Y-106724134D01*
X120721865Y-106667633D01*
X120773936Y-106637569D01*
X120833150Y-106648010D01*
X120851350Y-106661975D01*
X120898922Y-106709547D01*
X120898924Y-106709548D01*
X120898925Y-106709549D01*
X121016278Y-106769344D01*
X121026362Y-106770941D01*
X121113645Y-106784765D01*
X121654094Y-106784764D01*
X121751461Y-106769344D01*
X121868818Y-106709547D01*
X121961952Y-106616413D01*
X122021749Y-106499056D01*
X122028269Y-106457887D01*
X122029770Y-106448414D01*
X122058920Y-106395826D01*
X122115054Y-106374278D01*
X122116588Y-106374265D01*
X122429153Y-106374265D01*
X122485654Y-106394830D01*
X122515718Y-106446901D01*
X122515971Y-106448416D01*
X122523990Y-106499053D01*
X122523992Y-106499059D01*
X122583785Y-106616409D01*
X122583786Y-106616410D01*
X122583788Y-106616413D01*
X122676922Y-106709547D01*
X122676924Y-106709548D01*
X122676925Y-106709549D01*
X122794278Y-106769344D01*
X122804362Y-106770941D01*
X122891645Y-106784765D01*
X123432094Y-106784764D01*
X123529461Y-106769344D01*
X123646818Y-106709547D01*
X123739952Y-106616413D01*
X123799749Y-106499056D01*
X123815170Y-106401690D01*
X123815169Y-105736241D01*
X123799749Y-105638874D01*
X123796883Y-105633250D01*
X123739954Y-105521520D01*
X123739953Y-105521519D01*
X123739952Y-105521517D01*
X123646818Y-105428383D01*
X123646815Y-105428381D01*
X123646814Y-105428380D01*
X123529464Y-105368587D01*
X123527903Y-105368080D01*
X123526843Y-105367251D01*
X123523297Y-105365445D01*
X123523648Y-105364755D01*
X123480524Y-105331059D01*
X123468291Y-105298477D01*
X123467170Y-105291525D01*
X123467170Y-105240077D01*
X123446364Y-105162429D01*
X123446364Y-105162428D01*
X123446347Y-105162399D01*
X123445621Y-105157893D01*
X123446048Y-105155660D01*
X123444500Y-105143899D01*
X123444500Y-103388469D01*
X123465065Y-103331968D01*
X123470245Y-103326314D01*
X124013515Y-102783045D01*
X124068009Y-102757634D01*
X124075670Y-102757300D01*
X125333284Y-102757300D01*
X125389785Y-102777865D01*
X125419849Y-102829936D01*
X125420102Y-102831451D01*
X125428121Y-102882088D01*
X125428123Y-102882094D01*
X125487916Y-102999444D01*
X125487917Y-102999445D01*
X125487919Y-102999448D01*
X125581053Y-103092582D01*
X125581055Y-103092583D01*
X125581056Y-103092584D01*
X125698409Y-103152379D01*
X125710120Y-103154233D01*
X125795776Y-103167800D01*
X126336225Y-103167799D01*
X126433592Y-103152379D01*
X126550949Y-103092582D01*
X126644083Y-102999448D01*
X126703880Y-102882091D01*
X126710555Y-102839948D01*
X126711901Y-102831449D01*
X126741051Y-102778861D01*
X126797185Y-102757313D01*
X126798719Y-102757300D01*
X127111284Y-102757300D01*
X127167785Y-102777865D01*
X127197849Y-102829936D01*
X127198102Y-102831451D01*
X127206121Y-102882088D01*
X127206123Y-102882094D01*
X127265916Y-102999444D01*
X127265917Y-102999445D01*
X127265919Y-102999448D01*
X127359053Y-103092582D01*
X127359055Y-103092583D01*
X127359056Y-103092584D01*
X127476409Y-103152379D01*
X127488120Y-103154233D01*
X127573776Y-103167800D01*
X128114225Y-103167799D01*
X128211592Y-103152379D01*
X128328949Y-103092582D01*
X128422083Y-102999448D01*
X128481880Y-102882091D01*
X128497301Y-102784725D01*
X128497300Y-102119276D01*
X128481880Y-102021909D01*
X128471236Y-102001019D01*
X128422085Y-101904555D01*
X128422084Y-101904554D01*
X128422083Y-101904552D01*
X128328949Y-101811418D01*
X128328946Y-101811416D01*
X128328945Y-101811415D01*
X128211595Y-101751622D01*
X128210034Y-101751115D01*
X128208974Y-101750286D01*
X128205428Y-101748480D01*
X128205779Y-101747790D01*
X128162655Y-101714094D01*
X128149301Y-101667518D01*
X128149301Y-100192870D01*
X128169866Y-100136369D01*
X128221937Y-100106305D01*
X128281151Y-100116746D01*
X128299356Y-100130715D01*
X129290956Y-101122315D01*
X129316367Y-101176809D01*
X129316701Y-101184470D01*
X129316701Y-101944871D01*
X129301888Y-101993705D01*
X129276245Y-102032081D01*
X129265901Y-102084090D01*
X129265901Y-103528913D01*
X129265902Y-103528915D01*
X129276244Y-103580915D01*
X129276244Y-103580916D01*
X129276245Y-103580918D01*
X129276246Y-103580919D01*
X129315654Y-103639897D01*
X129374632Y-103679305D01*
X129426640Y-103689650D01*
X129817361Y-103689649D01*
X129817364Y-103689649D01*
X129817366Y-103689648D01*
X129869366Y-103679306D01*
X129869367Y-103679306D01*
X129869367Y-103679305D01*
X129869370Y-103679305D01*
X129928348Y-103639897D01*
X129967756Y-103580919D01*
X129978101Y-103528911D01*
X129978100Y-102084090D01*
X129978100Y-102084089D01*
X129978100Y-102084086D01*
X129978099Y-102084084D01*
X129967757Y-102032084D01*
X129967757Y-102032083D01*
X129963205Y-102025271D01*
X129942114Y-101993705D01*
X129927301Y-101944871D01*
X129927301Y-100981408D01*
X129906495Y-100903761D01*
X129906495Y-100903760D01*
X129897569Y-100888300D01*
X129866302Y-100834142D01*
X128175046Y-99142886D01*
X128149635Y-99088392D01*
X128149301Y-99080731D01*
X128149301Y-88720859D01*
X128651100Y-88720859D01*
X128651100Y-88875940D01*
X128681354Y-89028043D01*
X128681356Y-89028047D01*
X128740702Y-89171324D01*
X128740704Y-89171327D01*
X128826860Y-89300269D01*
X128826861Y-89300270D01*
X128826864Y-89300274D01*
X128936526Y-89409936D01*
X128936529Y-89409938D01*
X128936530Y-89409939D01*
X129065472Y-89496095D01*
X129065476Y-89496097D01*
X129080735Y-89502417D01*
X129125067Y-89543036D01*
X129135000Y-89583627D01*
X129135000Y-90156401D01*
X129114435Y-90212902D01*
X129066579Y-90240531D01*
X129066791Y-90241182D01*
X129063732Y-90242175D01*
X129062364Y-90242966D01*
X129060853Y-90243218D01*
X129060213Y-90243319D01*
X129060208Y-90243320D01*
X128942855Y-90303115D01*
X128849715Y-90396255D01*
X128789920Y-90513608D01*
X128789920Y-90513609D01*
X128774500Y-90610976D01*
X128774500Y-91151422D01*
X128774501Y-91151424D01*
X128789920Y-91248788D01*
X128789922Y-91248794D01*
X128849715Y-91366144D01*
X128849716Y-91366145D01*
X128849718Y-91366148D01*
X128942852Y-91459282D01*
X128942854Y-91459283D01*
X128942855Y-91459284D01*
X129060208Y-91519079D01*
X129062450Y-91519434D01*
X129157575Y-91534500D01*
X129723024Y-91534499D01*
X129820391Y-91519079D01*
X129937748Y-91459282D01*
X130030882Y-91366148D01*
X130090679Y-91248791D01*
X130106100Y-91151425D01*
X130106099Y-90610976D01*
X130090679Y-90513609D01*
X130090623Y-90513500D01*
X130030884Y-90396255D01*
X130030883Y-90396254D01*
X130030882Y-90396252D01*
X129937748Y-90303118D01*
X129937745Y-90303116D01*
X129937744Y-90303115D01*
X129820394Y-90243322D01*
X129820391Y-90243321D01*
X129820389Y-90243320D01*
X129820387Y-90243320D01*
X129819749Y-90243219D01*
X129819285Y-90242961D01*
X129813808Y-90241182D01*
X129814153Y-90240117D01*
X129767160Y-90214068D01*
X129745613Y-90157934D01*
X129745600Y-90156401D01*
X129745600Y-89582053D01*
X129766165Y-89525552D01*
X129799863Y-89500843D01*
X129811326Y-89496096D01*
X129940274Y-89409936D01*
X130049936Y-89300274D01*
X130136096Y-89171326D01*
X130195444Y-89028047D01*
X130225700Y-88875942D01*
X130225700Y-88720858D01*
X130195444Y-88568753D01*
X130154181Y-88469135D01*
X130136097Y-88425475D01*
X130136095Y-88425472D01*
X130049939Y-88296530D01*
X130049938Y-88296529D01*
X130049936Y-88296526D01*
X129940274Y-88186864D01*
X129940270Y-88186861D01*
X129940269Y-88186860D01*
X129811327Y-88100704D01*
X129811324Y-88100702D01*
X129668047Y-88041356D01*
X129668043Y-88041354D01*
X129553708Y-88018612D01*
X129515942Y-88011100D01*
X129360858Y-88011100D01*
X129327262Y-88017782D01*
X129208756Y-88041354D01*
X129208752Y-88041356D01*
X129065475Y-88100702D01*
X129065472Y-88100704D01*
X128936530Y-88186860D01*
X128826860Y-88296530D01*
X128740704Y-88425472D01*
X128740702Y-88425475D01*
X128681356Y-88568752D01*
X128681354Y-88568756D01*
X128651100Y-88720859D01*
X128149301Y-88720859D01*
X128149301Y-86038976D01*
X133699900Y-86038976D01*
X133699900Y-86579422D01*
X133699901Y-86579424D01*
X133715320Y-86676788D01*
X133715322Y-86676794D01*
X133775115Y-86794144D01*
X133775116Y-86794145D01*
X133775118Y-86794148D01*
X133868252Y-86887282D01*
X133868254Y-86887283D01*
X133868255Y-86887284D01*
X133985605Y-86947077D01*
X133985609Y-86947079D01*
X134036250Y-86955099D01*
X134088838Y-86984248D01*
X134110387Y-87040381D01*
X134110400Y-87041917D01*
X134110400Y-88077155D01*
X134089835Y-88133656D01*
X134071336Y-88150241D01*
X134016526Y-88186864D01*
X133906860Y-88296530D01*
X133820704Y-88425472D01*
X133820702Y-88425475D01*
X133761356Y-88568752D01*
X133761354Y-88568756D01*
X133731100Y-88720859D01*
X133731100Y-88875940D01*
X133761354Y-89028043D01*
X133761356Y-89028047D01*
X133820702Y-89171324D01*
X133820704Y-89171327D01*
X133906860Y-89300269D01*
X133906861Y-89300270D01*
X133906864Y-89300274D01*
X134016526Y-89409936D01*
X134016529Y-89409938D01*
X134016530Y-89409939D01*
X134145472Y-89496095D01*
X134145475Y-89496097D01*
X134211199Y-89523320D01*
X134288753Y-89555444D01*
X134288754Y-89555444D01*
X134288756Y-89555445D01*
X134365322Y-89570674D01*
X134440858Y-89585700D01*
X134440860Y-89585700D01*
X134595940Y-89585700D01*
X134595942Y-89585700D01*
X134696428Y-89565711D01*
X134748043Y-89555445D01*
X134748043Y-89555444D01*
X134748047Y-89555444D01*
X134891326Y-89496096D01*
X135020274Y-89409936D01*
X135129936Y-89300274D01*
X135216096Y-89171326D01*
X135275444Y-89028047D01*
X135305700Y-88875942D01*
X135305700Y-88720858D01*
X135275444Y-88568753D01*
X135234181Y-88469135D01*
X135216097Y-88425475D01*
X135216095Y-88425472D01*
X135129939Y-88296530D01*
X135129938Y-88296529D01*
X135129936Y-88296526D01*
X135020274Y-88186864D01*
X135020270Y-88186861D01*
X135020269Y-88186860D01*
X134891327Y-88100704D01*
X134891323Y-88100702D01*
X134775262Y-88052628D01*
X134730932Y-88012006D01*
X134721000Y-87971419D01*
X134721000Y-87041916D01*
X134741565Y-86985415D01*
X134793636Y-86955351D01*
X134795070Y-86955111D01*
X134845791Y-86947079D01*
X134963148Y-86887282D01*
X135056282Y-86794148D01*
X135116079Y-86676791D01*
X135131500Y-86579425D01*
X135131499Y-86038976D01*
X135116079Y-85941609D01*
X135056282Y-85824252D01*
X134963148Y-85731118D01*
X134963145Y-85731116D01*
X134963144Y-85731115D01*
X134845791Y-85671320D01*
X134771846Y-85659609D01*
X134748425Y-85655900D01*
X134748423Y-85655900D01*
X134082977Y-85655900D01*
X134082975Y-85655901D01*
X133985611Y-85671320D01*
X133985605Y-85671322D01*
X133868255Y-85731115D01*
X133775115Y-85824255D01*
X133715320Y-85941608D01*
X133715320Y-85941609D01*
X133699900Y-86038976D01*
X128149301Y-86038976D01*
X128149301Y-80395667D01*
X128169866Y-80339166D01*
X128175035Y-80333523D01*
X129057114Y-79451443D01*
X129111608Y-79426033D01*
X129119269Y-79425699D01*
X130064964Y-79425699D01*
X130064965Y-79425698D01*
X130116965Y-79415356D01*
X130116966Y-79415356D01*
X130116966Y-79415355D01*
X130116969Y-79415355D01*
X130175947Y-79375947D01*
X130215355Y-79316969D01*
X130225700Y-79264961D01*
X130225699Y-78011840D01*
X130225699Y-78011839D01*
X130225699Y-78011836D01*
X130225698Y-78011834D01*
X130215356Y-77959834D01*
X130215356Y-77959833D01*
X130215355Y-77959831D01*
X130175947Y-77900853D01*
X130116969Y-77861445D01*
X130064961Y-77851100D01*
X130064959Y-77851100D01*
X128811836Y-77851100D01*
X128811834Y-77851101D01*
X128759834Y-77861443D01*
X128759833Y-77861443D01*
X128700854Y-77900852D01*
X128700852Y-77900854D01*
X128661445Y-77959831D01*
X128651100Y-78011840D01*
X128651100Y-78957529D01*
X128630535Y-79014030D01*
X128625355Y-79019684D01*
X127568500Y-80076540D01*
X127539978Y-80125942D01*
X127528305Y-80146158D01*
X127507500Y-80223807D01*
X127507500Y-80304192D01*
X127528305Y-80381842D01*
X127530510Y-80387163D01*
X127529142Y-80387729D01*
X127538701Y-80423399D01*
X127538701Y-101667518D01*
X127518136Y-101724019D01*
X127482394Y-101748128D01*
X127482574Y-101748480D01*
X127479713Y-101749937D01*
X127477968Y-101751115D01*
X127476406Y-101751622D01*
X127359056Y-101811415D01*
X127265916Y-101904555D01*
X127206122Y-102021908D01*
X127198101Y-102072551D01*
X127168951Y-102125139D01*
X127112817Y-102146687D01*
X127111283Y-102146700D01*
X126798718Y-102146700D01*
X126742217Y-102126135D01*
X126712153Y-102074064D01*
X126711900Y-102072549D01*
X126703880Y-102021911D01*
X126703880Y-102021909D01*
X126693236Y-102001019D01*
X126644085Y-101904555D01*
X126644084Y-101904554D01*
X126644083Y-101904552D01*
X126550949Y-101811418D01*
X126550946Y-101811416D01*
X126550945Y-101811415D01*
X126433592Y-101751620D01*
X126359647Y-101739909D01*
X126336226Y-101736200D01*
X126336224Y-101736200D01*
X125795778Y-101736200D01*
X125795776Y-101736201D01*
X125698412Y-101751620D01*
X125698406Y-101751622D01*
X125581056Y-101811415D01*
X125487916Y-101904555D01*
X125428122Y-102021908D01*
X125420101Y-102072551D01*
X125390951Y-102125139D01*
X125334817Y-102146687D01*
X125333283Y-102146700D01*
X123872607Y-102146700D01*
X123857937Y-102150631D01*
X123794959Y-102167505D01*
X123725339Y-102207700D01*
X123594555Y-102338485D01*
X123540061Y-102363896D01*
X123481983Y-102348333D01*
X123447495Y-102299080D01*
X123444500Y-102276330D01*
X123444500Y-101699974D01*
X123465065Y-101643473D01*
X123483565Y-101626888D01*
X123524553Y-101599500D01*
X123571591Y-101568070D01*
X123666070Y-101473591D01*
X123740302Y-101362496D01*
X123791433Y-101239053D01*
X123792598Y-101233199D01*
X123803755Y-101177107D01*
X123817500Y-101108007D01*
X123817500Y-100974393D01*
X123800374Y-100888297D01*
X123791434Y-100843350D01*
X123791431Y-100843342D01*
X123740304Y-100719909D01*
X123740304Y-100719907D01*
X123703983Y-100665550D01*
X123666070Y-100608809D01*
X123571591Y-100514330D01*
X123460496Y-100440098D01*
X123460494Y-100440097D01*
X123460491Y-100440095D01*
X123337057Y-100388968D01*
X123337049Y-100388965D01*
X123236065Y-100368879D01*
X123206007Y-100362900D01*
X123072393Y-100362900D01*
X123043449Y-100368657D01*
X122941350Y-100388965D01*
X122941342Y-100388968D01*
X122817909Y-100440095D01*
X122817907Y-100440095D01*
X122706811Y-100514328D01*
X122612328Y-100608811D01*
X122538095Y-100719907D01*
X122538095Y-100719909D01*
X122486968Y-100843342D01*
X122486965Y-100843350D01*
X122464136Y-100958124D01*
X122460900Y-100974393D01*
X122460900Y-101108007D01*
X122463274Y-101119942D01*
X122486965Y-101239049D01*
X122486968Y-101239057D01*
X122538095Y-101362490D01*
X122538095Y-101362492D01*
X122584268Y-101431594D01*
X122612330Y-101473591D01*
X122706809Y-101568070D01*
X122749504Y-101596598D01*
X122794835Y-101626888D01*
X122830389Y-101675378D01*
X122833900Y-101699974D01*
X122833900Y-105294532D01*
X122813335Y-105351033D01*
X122785906Y-105372851D01*
X122676925Y-105428380D01*
X122583785Y-105521520D01*
X122523991Y-105638873D01*
X122515970Y-105689516D01*
X122486820Y-105742104D01*
X122430686Y-105763652D01*
X122429152Y-105763665D01*
X122116587Y-105763665D01*
X122060086Y-105743100D01*
X122030022Y-105691029D01*
X122029769Y-105689514D01*
X122021749Y-105638876D01*
X122021749Y-105638874D01*
X122018883Y-105633250D01*
X121961954Y-105521520D01*
X121961953Y-105521519D01*
X121961952Y-105521517D01*
X121868818Y-105428383D01*
X121868815Y-105428381D01*
X121868814Y-105428380D01*
X121751464Y-105368587D01*
X121749903Y-105368080D01*
X121748843Y-105367251D01*
X121745297Y-105365445D01*
X121745648Y-105364755D01*
X121702524Y-105331059D01*
X121689170Y-105284483D01*
X121689170Y-104428025D01*
X121709735Y-104371524D01*
X121728236Y-104354939D01*
X121744286Y-104344214D01*
X121793591Y-104311270D01*
X121888070Y-104216791D01*
X121962302Y-104105696D01*
X122013433Y-103982253D01*
X122039500Y-103851207D01*
X122039500Y-103717593D01*
X122026720Y-103653342D01*
X122013434Y-103586550D01*
X122013431Y-103586542D01*
X121986073Y-103520494D01*
X121962304Y-103463108D01*
X121962304Y-103463107D01*
X121947019Y-103440231D01*
X121888070Y-103352009D01*
X121793591Y-103257530D01*
X121682496Y-103183298D01*
X121682494Y-103183297D01*
X121682491Y-103183295D01*
X121559057Y-103132168D01*
X121559049Y-103132165D01*
X121460544Y-103112572D01*
X121428007Y-103106100D01*
X121294393Y-103106100D01*
X121265449Y-103111857D01*
X121163350Y-103132165D01*
X121163342Y-103132168D01*
X121039909Y-103183295D01*
X121039907Y-103183295D01*
X120928811Y-103257528D01*
X120834328Y-103352011D01*
X120760095Y-103463107D01*
X120760095Y-103463109D01*
X120708968Y-103586542D01*
X120708965Y-103586550D01*
X120682900Y-103717594D01*
X120682900Y-103851205D01*
X120703553Y-103955039D01*
X120694406Y-104014467D01*
X120679497Y-104034342D01*
X120182955Y-104530885D01*
X120128461Y-104556296D01*
X120070383Y-104540734D01*
X120035895Y-104491480D01*
X120032900Y-104468730D01*
X120032900Y-76788400D01*
X120053465Y-76731899D01*
X120105536Y-76701835D01*
X120120800Y-76700500D01*
X172131600Y-76700500D01*
X172188101Y-76721065D01*
G37*
%TD.AperFunction*%
%TA.AperFunction,Conductor*%
G36*
X169616432Y-99030265D02*
G01*
X169622086Y-99035445D01*
X170153755Y-99567114D01*
X170179166Y-99621608D01*
X170179500Y-99629269D01*
X170179500Y-107329931D01*
X170158935Y-107386432D01*
X170153755Y-107392086D01*
X169114086Y-108431755D01*
X169059592Y-108457166D01*
X169051931Y-108457500D01*
X164372869Y-108457500D01*
X164316368Y-108436935D01*
X164286304Y-108384864D01*
X164296745Y-108325650D01*
X164310714Y-108307445D01*
X164683900Y-107934259D01*
X164724094Y-107864641D01*
X164730912Y-107839195D01*
X164744900Y-107786993D01*
X164744900Y-106244181D01*
X164765465Y-106187680D01*
X164801206Y-106163573D01*
X164801027Y-106163220D01*
X164803902Y-106161754D01*
X164805643Y-106160581D01*
X164807184Y-106160079D01*
X164807191Y-106160079D01*
X164924548Y-106100282D01*
X165017682Y-106007148D01*
X165077479Y-105889791D01*
X165092900Y-105792425D01*
X165092899Y-105226976D01*
X165077479Y-105129609D01*
X165077477Y-105129605D01*
X165017684Y-105012255D01*
X165017683Y-105012254D01*
X165017682Y-105012252D01*
X164924548Y-104919118D01*
X164924545Y-104919116D01*
X164924544Y-104919115D01*
X164807191Y-104859320D01*
X164733246Y-104847609D01*
X164709825Y-104843900D01*
X164709823Y-104843900D01*
X164169377Y-104843900D01*
X164169375Y-104843901D01*
X164072011Y-104859320D01*
X164072005Y-104859322D01*
X163954655Y-104919115D01*
X163861515Y-105012255D01*
X163801720Y-105129608D01*
X163801720Y-105129609D01*
X163786300Y-105226976D01*
X163786300Y-105792422D01*
X163786301Y-105792424D01*
X163801720Y-105889788D01*
X163801722Y-105889794D01*
X163861515Y-106007144D01*
X163861516Y-106007145D01*
X163861518Y-106007148D01*
X163954652Y-106100282D01*
X163954654Y-106100283D01*
X163954655Y-106100284D01*
X164072002Y-106160076D01*
X164072005Y-106160076D01*
X164072009Y-106160079D01*
X164072013Y-106160079D01*
X164073557Y-106160581D01*
X164074613Y-106161406D01*
X164078173Y-106163220D01*
X164077820Y-106163911D01*
X164120940Y-106197596D01*
X164134300Y-106244181D01*
X164134300Y-107583931D01*
X164113735Y-107640432D01*
X164108555Y-107646086D01*
X163322886Y-108431755D01*
X163268392Y-108457166D01*
X163260731Y-108457500D01*
X145322869Y-108457500D01*
X145266368Y-108436935D01*
X145236304Y-108384864D01*
X145246745Y-108325650D01*
X145260714Y-108307445D01*
X145851288Y-107716871D01*
X146483300Y-107084859D01*
X146523494Y-107015241D01*
X146544300Y-106937593D01*
X146544300Y-102142869D01*
X146564865Y-102086368D01*
X146616936Y-102056304D01*
X146676150Y-102066745D01*
X146694355Y-102080715D01*
X146762737Y-102149098D01*
X146762739Y-102149099D01*
X146762741Y-102149101D01*
X146832359Y-102189294D01*
X146910007Y-102210100D01*
X147404502Y-102210100D01*
X147461003Y-102230665D01*
X147488127Y-102275527D01*
X147488846Y-102275276D01*
X147490041Y-102278693D01*
X147490379Y-102279251D01*
X147490614Y-102280330D01*
X147533254Y-102402190D01*
X147533255Y-102402191D01*
X147609922Y-102506072D01*
X147609927Y-102506077D01*
X147713808Y-102582744D01*
X147713809Y-102582745D01*
X147835671Y-102625386D01*
X147835673Y-102625386D01*
X147835675Y-102625387D01*
X147864607Y-102628100D01*
X148782792Y-102628099D01*
X148811725Y-102625387D01*
X148912284Y-102590200D01*
X148933590Y-102582745D01*
X148933590Y-102582744D01*
X148933592Y-102582744D01*
X148946203Y-102573437D01*
X149003875Y-102556432D01*
X149058986Y-102580476D01*
X149085747Y-102634319D01*
X149086300Y-102644161D01*
X149086300Y-103457793D01*
X149103101Y-103520494D01*
X149107106Y-103535441D01*
X149142555Y-103596841D01*
X149147301Y-103605060D01*
X149737097Y-104194856D01*
X149762508Y-104249350D01*
X149761153Y-104274158D01*
X149740500Y-104377993D01*
X149740500Y-104511605D01*
X149766565Y-104642649D01*
X149766568Y-104642657D01*
X149817695Y-104766090D01*
X149817695Y-104766092D01*
X149879990Y-104859322D01*
X149891930Y-104877191D01*
X149986409Y-104971670D01*
X150097504Y-105045902D01*
X150097506Y-105045903D01*
X150097508Y-105045904D01*
X150220942Y-105097031D01*
X150220950Y-105097034D01*
X150286916Y-105110155D01*
X150351993Y-105123100D01*
X150351995Y-105123100D01*
X150485605Y-105123100D01*
X150485607Y-105123100D01*
X150572180Y-105105879D01*
X150616649Y-105097034D01*
X150616650Y-105097033D01*
X150616653Y-105097033D01*
X150740091Y-105045904D01*
X150740092Y-105045904D01*
X150740093Y-105045903D01*
X150740096Y-105045902D01*
X150851191Y-104971670D01*
X150945670Y-104877191D01*
X151019902Y-104766096D01*
X151071033Y-104642653D01*
X151071761Y-104638996D01*
X151089115Y-104551750D01*
X151097100Y-104511607D01*
X151097100Y-104377993D01*
X151085009Y-104317209D01*
X151071034Y-104246950D01*
X151071031Y-104246942D01*
X151019904Y-104123509D01*
X151019904Y-104123507D01*
X150997856Y-104090510D01*
X150945670Y-104012409D01*
X150851191Y-103917930D01*
X150740096Y-103843698D01*
X150740094Y-103843697D01*
X150740091Y-103843695D01*
X150616657Y-103792568D01*
X150616649Y-103792565D01*
X150518144Y-103772972D01*
X150485607Y-103766500D01*
X150351993Y-103766500D01*
X150338458Y-103769192D01*
X150248158Y-103787153D01*
X150188731Y-103778006D01*
X150168856Y-103763097D01*
X149722645Y-103316886D01*
X149697234Y-103262392D01*
X149696900Y-103254731D01*
X149696900Y-101193007D01*
X149684117Y-101145300D01*
X149676094Y-101115359D01*
X149676094Y-101115358D01*
X149676093Y-101115357D01*
X149676093Y-101115355D01*
X149635902Y-101045744D01*
X149635901Y-101045743D01*
X149635900Y-101045741D01*
X149215513Y-100625354D01*
X149190102Y-100570860D01*
X149205665Y-100512782D01*
X149254918Y-100478294D01*
X149277660Y-100475299D01*
X149638730Y-100475299D01*
X149695231Y-100495864D01*
X149700885Y-100501044D01*
X150332941Y-101133100D01*
X150402558Y-101173294D01*
X150411533Y-101175698D01*
X150411537Y-101175701D01*
X150411538Y-101175700D01*
X150480207Y-101194100D01*
X151068731Y-101194100D01*
X151125232Y-101214665D01*
X151130886Y-101219845D01*
X152009341Y-102098300D01*
X152078959Y-102138494D01*
X152156607Y-102159300D01*
X152401626Y-102159300D01*
X152458127Y-102179865D01*
X152474712Y-102198365D01*
X152496295Y-102230665D01*
X152533530Y-102286391D01*
X152628009Y-102380870D01*
X152739104Y-102455102D01*
X152739106Y-102455103D01*
X152739108Y-102455104D01*
X152862542Y-102506231D01*
X152862550Y-102506234D01*
X152928516Y-102519355D01*
X152993593Y-102532300D01*
X152993595Y-102532300D01*
X153127205Y-102532300D01*
X153127207Y-102532300D01*
X153213780Y-102515079D01*
X153258249Y-102506234D01*
X153258250Y-102506233D01*
X153258253Y-102506233D01*
X153381691Y-102455104D01*
X153381692Y-102455104D01*
X153381693Y-102455103D01*
X153381696Y-102455102D01*
X153492791Y-102380870D01*
X153587270Y-102286391D01*
X153661502Y-102175296D01*
X153712633Y-102051853D01*
X153738700Y-101920807D01*
X153738700Y-101787193D01*
X153721351Y-101699974D01*
X153712634Y-101656150D01*
X153712631Y-101656142D01*
X153674964Y-101565205D01*
X153661504Y-101532708D01*
X153661504Y-101532707D01*
X153625622Y-101479007D01*
X153587270Y-101421609D01*
X153492791Y-101327130D01*
X153381696Y-101252898D01*
X153381694Y-101252897D01*
X153381691Y-101252895D01*
X153258257Y-101201768D01*
X153258249Y-101201765D01*
X153156365Y-101181500D01*
X153127207Y-101175700D01*
X152993593Y-101175700D01*
X152964649Y-101181457D01*
X152862550Y-101201765D01*
X152862542Y-101201768D01*
X152739109Y-101252895D01*
X152739107Y-101252895D01*
X152628011Y-101327128D01*
X152533528Y-101421611D01*
X152474712Y-101509635D01*
X152452650Y-101525810D01*
X152431690Y-101543399D01*
X152427704Y-101544101D01*
X152426222Y-101545189D01*
X152401626Y-101548700D01*
X152359669Y-101548700D01*
X152303168Y-101528135D01*
X152297514Y-101522955D01*
X151419060Y-100644501D01*
X151419059Y-100644500D01*
X151410089Y-100639321D01*
X151371442Y-100593263D01*
X151371442Y-100533136D01*
X151410091Y-100487076D01*
X151454039Y-100475299D01*
X151642224Y-100475299D01*
X151739591Y-100459879D01*
X151856948Y-100400082D01*
X151950082Y-100306948D01*
X152009879Y-100189591D01*
X152012018Y-100183009D01*
X152013350Y-100183442D01*
X152039004Y-100137162D01*
X152095137Y-100115613D01*
X152096672Y-100115600D01*
X153007251Y-100115600D01*
X153336451Y-100115600D01*
X153442749Y-100115600D01*
X155699651Y-100115600D01*
X155774851Y-100115600D01*
X155881149Y-100115600D01*
X161575712Y-100115600D01*
X161593744Y-100122163D01*
X161612860Y-100123836D01*
X161628580Y-100134842D01*
X161632213Y-100136165D01*
X161637867Y-100141345D01*
X161751054Y-100254532D01*
X161776465Y-100309026D01*
X161776799Y-100316687D01*
X161776799Y-100806211D01*
X161756234Y-100862712D01*
X161737741Y-100879293D01*
X161737653Y-100879351D01*
X161725663Y-100897295D01*
X161698244Y-100938331D01*
X161688705Y-100986290D01*
X161687899Y-100990340D01*
X161687899Y-102498663D01*
X161687900Y-102498665D01*
X161698242Y-102550665D01*
X161698242Y-102550666D01*
X161698243Y-102550668D01*
X161698244Y-102550669D01*
X161737652Y-102609647D01*
X161796630Y-102649055D01*
X161848638Y-102659400D01*
X162231312Y-102659399D01*
X162256173Y-102668447D01*
X162281729Y-102675295D01*
X162284035Y-102678589D01*
X162287813Y-102679964D01*
X162301040Y-102702874D01*
X162316217Y-102724548D01*
X162315866Y-102728553D01*
X162317877Y-102732035D01*
X162313282Y-102758090D01*
X162310977Y-102784447D01*
X162307847Y-102788916D01*
X162307436Y-102791249D01*
X162293467Y-102809453D01*
X162221067Y-102881854D01*
X162166574Y-102907265D01*
X162158912Y-102907600D01*
X161597149Y-102907600D01*
X161490851Y-102907600D01*
X161450173Y-102924449D01*
X161392644Y-102948278D01*
X160986243Y-103354679D01*
X160986242Y-103354678D01*
X160911080Y-103429841D01*
X160911078Y-103429843D01*
X160880856Y-103502808D01*
X160870400Y-103528051D01*
X160870400Y-105001251D01*
X160870400Y-105107549D01*
X160911079Y-105205757D01*
X161341843Y-105636521D01*
X161440051Y-105677200D01*
X161440052Y-105677200D01*
X162765548Y-105677200D01*
X162765549Y-105677200D01*
X162863757Y-105636521D01*
X163843633Y-104656645D01*
X163898127Y-104631234D01*
X163905788Y-104630900D01*
X165650910Y-104630900D01*
X165707411Y-104651465D01*
X165713064Y-104656645D01*
X165750451Y-104694031D01*
X165778841Y-104722421D01*
X165877049Y-104763100D01*
X165877050Y-104763100D01*
X166862950Y-104763100D01*
X166862951Y-104763100D01*
X166961159Y-104722421D01*
X167009640Y-104673940D01*
X167028536Y-104655045D01*
X167083030Y-104629634D01*
X167090690Y-104629300D01*
X168724526Y-104629300D01*
X168724527Y-104629300D01*
X168822735Y-104588621D01*
X169238121Y-104173235D01*
X169278800Y-104075027D01*
X169278800Y-103968729D01*
X169278800Y-99972051D01*
X169238121Y-99873843D01*
X169214742Y-99850464D01*
X169162957Y-99798678D01*
X169162957Y-99798679D01*
X168770257Y-99405979D01*
X168770255Y-99405978D01*
X168770256Y-99405978D01*
X168700153Y-99376941D01*
X168672049Y-99365300D01*
X168672048Y-99365300D01*
X168534832Y-99365300D01*
X168478331Y-99344735D01*
X168448267Y-99292664D01*
X168448014Y-99291149D01*
X168441879Y-99252409D01*
X168412373Y-99194500D01*
X168383333Y-99137506D01*
X168376005Y-99077827D01*
X168408752Y-99027400D01*
X168461652Y-99009700D01*
X169559931Y-99009700D01*
X169616432Y-99030265D01*
G37*
%TD.AperFunction*%
%TA.AperFunction,Conductor*%
G36*
X160913213Y-96369165D02*
G01*
X160918867Y-96374345D01*
X161526479Y-96981957D01*
X161526478Y-96981957D01*
X161601641Y-97057119D01*
X161601643Y-97057121D01*
X161699851Y-97097800D01*
X162113912Y-97097800D01*
X162170413Y-97118365D01*
X162176067Y-97123545D01*
X165001055Y-99948533D01*
X165026466Y-100003027D01*
X165026800Y-100010688D01*
X165026800Y-100765988D01*
X165006235Y-100822489D01*
X164954164Y-100852553D01*
X164899508Y-100842915D01*
X164899367Y-100843258D01*
X164897823Y-100842618D01*
X164894950Y-100842112D01*
X164891656Y-100840064D01*
X164891369Y-100839945D01*
X164862194Y-100834142D01*
X164839360Y-100829600D01*
X164839358Y-100829600D01*
X164448635Y-100829600D01*
X164448633Y-100829601D01*
X164396633Y-100839943D01*
X164396632Y-100839943D01*
X164337653Y-100879352D01*
X164337651Y-100879354D01*
X164325663Y-100897295D01*
X164298244Y-100938331D01*
X164288705Y-100986290D01*
X164287899Y-100990340D01*
X164287899Y-102498663D01*
X164287900Y-102498665D01*
X164298242Y-102550665D01*
X164298242Y-102550667D01*
X164323885Y-102589043D01*
X164338699Y-102637878D01*
X164338699Y-102931000D01*
X164318134Y-102987501D01*
X164266063Y-103017565D01*
X164250800Y-103018900D01*
X164169378Y-103018900D01*
X164169374Y-103018901D01*
X164072011Y-103034320D01*
X164072005Y-103034322D01*
X163954655Y-103094115D01*
X163861515Y-103187255D01*
X163801720Y-103304608D01*
X163801720Y-103304609D01*
X163786300Y-103401976D01*
X163786300Y-103967422D01*
X163788649Y-103982249D01*
X163790644Y-103994851D01*
X163779172Y-104053872D01*
X163732444Y-104091711D01*
X163714039Y-104094791D01*
X163714043Y-104094811D01*
X163705551Y-104096500D01*
X163607344Y-104137178D01*
X162627467Y-105117055D01*
X162572973Y-105142466D01*
X162565312Y-105142800D01*
X161640288Y-105142800D01*
X161583787Y-105122235D01*
X161578133Y-105117055D01*
X161430545Y-104969467D01*
X161405134Y-104914973D01*
X161404800Y-104907312D01*
X161404800Y-103728288D01*
X161425365Y-103671787D01*
X161430545Y-103666133D01*
X161628933Y-103467745D01*
X161683427Y-103442334D01*
X161691088Y-103442000D01*
X162359148Y-103442000D01*
X162359149Y-103442000D01*
X162457357Y-103401321D01*
X162920521Y-102938157D01*
X162961200Y-102839949D01*
X162961200Y-102733651D01*
X162961200Y-102723012D01*
X162981765Y-102666511D01*
X163033836Y-102636447D01*
X163088489Y-102646083D01*
X163088631Y-102645742D01*
X163090173Y-102646380D01*
X163093050Y-102646888D01*
X163096344Y-102648936D01*
X163096628Y-102649054D01*
X163096630Y-102649055D01*
X163148638Y-102659400D01*
X163539359Y-102659399D01*
X163539362Y-102659399D01*
X163539364Y-102659398D01*
X163591364Y-102649056D01*
X163591365Y-102649056D01*
X163591365Y-102649055D01*
X163591368Y-102649055D01*
X163650346Y-102609647D01*
X163689754Y-102550669D01*
X163700099Y-102498661D01*
X163700098Y-100990340D01*
X163700098Y-100990339D01*
X163700098Y-100990336D01*
X163700097Y-100990334D01*
X163689755Y-100938334D01*
X163689755Y-100938333D01*
X163684923Y-100931102D01*
X163664112Y-100899955D01*
X163649299Y-100851121D01*
X163649299Y-100362606D01*
X163638064Y-100320678D01*
X163628493Y-100284958D01*
X163627293Y-100282879D01*
X163588300Y-100215340D01*
X161987359Y-98614400D01*
X161917741Y-98574206D01*
X161917740Y-98574205D01*
X161917739Y-98574205D01*
X161868513Y-98561015D01*
X161840093Y-98553400D01*
X161840092Y-98553400D01*
X160897199Y-98553400D01*
X160840698Y-98532835D01*
X160813068Y-98484979D01*
X160812418Y-98485191D01*
X160811424Y-98482132D01*
X160810634Y-98480764D01*
X160810382Y-98479253D01*
X160810280Y-98478613D01*
X160810279Y-98478608D01*
X160750484Y-98361255D01*
X160750483Y-98361254D01*
X160750482Y-98361252D01*
X160657348Y-98268118D01*
X160657345Y-98268116D01*
X160657344Y-98268115D01*
X160539994Y-98208322D01*
X160538433Y-98207815D01*
X160537373Y-98206986D01*
X160533827Y-98205180D01*
X160534178Y-98204490D01*
X160530972Y-98201985D01*
X160521650Y-98200342D01*
X160507904Y-98183960D01*
X160491054Y-98170794D01*
X160488042Y-98160290D01*
X160483001Y-98154282D01*
X160477700Y-98124218D01*
X160477700Y-97961881D01*
X160498265Y-97905380D01*
X160534006Y-97881273D01*
X160533827Y-97880920D01*
X160536702Y-97879454D01*
X160538443Y-97878281D01*
X160539984Y-97877779D01*
X160539991Y-97877779D01*
X160657348Y-97817982D01*
X160750482Y-97724848D01*
X160810279Y-97607491D01*
X160825700Y-97510125D01*
X160825699Y-96944676D01*
X160810279Y-96847309D01*
X160805745Y-96838410D01*
X160750484Y-96729955D01*
X160750483Y-96729954D01*
X160750482Y-96729952D01*
X160657348Y-96636818D01*
X160657345Y-96636816D01*
X160657344Y-96636815D01*
X160539991Y-96577020D01*
X160466046Y-96565309D01*
X160442625Y-96561600D01*
X160442623Y-96561600D01*
X159902177Y-96561600D01*
X159902175Y-96561601D01*
X159847731Y-96570223D01*
X159788708Y-96558749D01*
X159750870Y-96512021D01*
X159751921Y-96451903D01*
X159771828Y-96421250D01*
X159818734Y-96374345D01*
X159873228Y-96348934D01*
X159880888Y-96348600D01*
X160856712Y-96348600D01*
X160913213Y-96369165D01*
G37*
%TD.AperFunction*%
%TA.AperFunction,Conductor*%
G36*
X153679684Y-97315765D02*
G01*
X153685338Y-97320945D01*
X154269452Y-97905059D01*
X154294863Y-97959553D01*
X154279300Y-98017631D01*
X154256132Y-98040300D01*
X154202811Y-98075928D01*
X154108328Y-98170411D01*
X154034095Y-98281507D01*
X154034095Y-98281509D01*
X153982968Y-98404942D01*
X153982965Y-98404950D01*
X153964716Y-98496700D01*
X153956900Y-98535993D01*
X153956900Y-98669607D01*
X153963372Y-98702144D01*
X153982965Y-98800649D01*
X153984220Y-98804784D01*
X153983098Y-98805124D01*
X153985521Y-98860549D01*
X153963843Y-98896277D01*
X153304667Y-99555455D01*
X153250173Y-99580866D01*
X153242512Y-99581200D01*
X152105034Y-99581200D01*
X152048533Y-99560635D01*
X152018469Y-99508564D01*
X152018216Y-99507050D01*
X152012652Y-99471917D01*
X152009879Y-99454409D01*
X151986640Y-99408800D01*
X151950084Y-99337055D01*
X151950083Y-99337054D01*
X151950082Y-99337052D01*
X151856948Y-99243918D01*
X151856945Y-99243916D01*
X151856944Y-99243915D01*
X151739591Y-99184120D01*
X151663490Y-99172068D01*
X151642225Y-99168700D01*
X151642223Y-99168700D01*
X151076777Y-99168700D01*
X151076775Y-99168701D01*
X150979411Y-99184120D01*
X150979405Y-99184122D01*
X150862055Y-99243915D01*
X150768915Y-99337055D01*
X150709120Y-99454408D01*
X150709120Y-99454409D01*
X150698374Y-99522265D01*
X150693743Y-99551507D01*
X150693700Y-99551776D01*
X150693700Y-100092222D01*
X150693701Y-100092224D01*
X150709120Y-100189588D01*
X150709122Y-100189594D01*
X150768915Y-100306944D01*
X150768916Y-100306945D01*
X150768918Y-100306948D01*
X150862052Y-100400082D01*
X150862054Y-100400083D01*
X150862055Y-100400084D01*
X150895805Y-100417281D01*
X150936812Y-100461255D01*
X150939958Y-100521300D01*
X150903772Y-100569319D01*
X150855899Y-100583500D01*
X150683269Y-100583500D01*
X150626768Y-100562935D01*
X150621114Y-100557755D01*
X150225690Y-100162331D01*
X150200279Y-100107837D01*
X150200218Y-100093259D01*
X150200297Y-100092242D01*
X150200300Y-100092225D01*
X150200299Y-99551776D01*
X150184879Y-99454409D01*
X150161640Y-99408800D01*
X150125084Y-99337055D01*
X150125083Y-99337054D01*
X150125082Y-99337052D01*
X150031948Y-99243918D01*
X150031945Y-99243916D01*
X150031944Y-99243915D01*
X149914591Y-99184120D01*
X149838490Y-99172068D01*
X149817225Y-99168700D01*
X149817223Y-99168700D01*
X149251777Y-99168700D01*
X149251775Y-99168701D01*
X149154411Y-99184120D01*
X149154405Y-99184122D01*
X149037055Y-99243915D01*
X149037052Y-99243917D01*
X149037052Y-99243918D01*
X148943918Y-99337052D01*
X148943916Y-99337054D01*
X148943516Y-99337455D01*
X148889022Y-99362866D01*
X148881361Y-99363200D01*
X148639717Y-99363200D01*
X148583216Y-99342635D01*
X148553152Y-99290564D01*
X148552899Y-99289049D01*
X148547313Y-99253780D01*
X148544879Y-99238409D01*
X148537031Y-99223007D01*
X148485084Y-99121055D01*
X148485083Y-99121054D01*
X148485082Y-99121052D01*
X148391948Y-99027918D01*
X148391945Y-99027916D01*
X148391944Y-99027915D01*
X148274591Y-98968120D01*
X148200646Y-98956409D01*
X148177225Y-98952700D01*
X148177223Y-98952700D01*
X147636777Y-98952700D01*
X147636775Y-98952701D01*
X147539411Y-98968120D01*
X147539405Y-98968122D01*
X147422055Y-99027915D01*
X147328915Y-99121055D01*
X147269120Y-99238408D01*
X147269120Y-99238409D01*
X147253700Y-99335776D01*
X147253700Y-99408800D01*
X147233135Y-99465301D01*
X147181064Y-99495365D01*
X147165800Y-99496700D01*
X146817138Y-99496700D01*
X146768304Y-99481887D01*
X146753382Y-99471916D01*
X146708983Y-99463085D01*
X146686937Y-99458700D01*
X146686935Y-99458700D01*
X145791061Y-99458700D01*
X145730483Y-99470750D01*
X145724617Y-99471917D01*
X145724616Y-99471917D01*
X145716127Y-99473606D01*
X145715653Y-99471227D01*
X145667457Y-99473326D01*
X145619760Y-99436717D01*
X145606000Y-99389498D01*
X145606000Y-97886288D01*
X145626565Y-97829787D01*
X145631745Y-97824133D01*
X146134933Y-97320945D01*
X146189427Y-97295534D01*
X146197088Y-97295200D01*
X153623183Y-97295200D01*
X153679684Y-97315765D01*
G37*
%TD.AperFunction*%
%TD*%
M02*
