%TF.GenerationSoftware,KiCad,Pcbnew,9.0.2*%
%TF.CreationDate,2026-02-10T20:05:31-06:00*%
%TF.ProjectId,CCD_Breakout,4343445f-4272-4656-916b-6f75742e6b69,rev?*%
%TF.SameCoordinates,Original*%
%TF.FileFunction,Paste,Top*%
%TF.FilePolarity,Positive*%
%FSLAX46Y46*%
G04 Gerber Fmt 4.6, Leading zero omitted, Abs format (unit mm)*
G04 Created by KiCad (PCBNEW 9.0.2) date 2026-02-10 20:05:31*
%MOMM*%
%LPD*%
G01*
G04 APERTURE LIST*
G04 Aperture macros list*
%AMRoundRect*
0 Rectangle with rounded corners*
0 $1 Rounding radius*
0 $2 $3 $4 $5 $6 $7 $8 $9 X,Y pos of 4 corners*
0 Add a 4 corners polygon primitive as box body*
4,1,4,$2,$3,$4,$5,$6,$7,$8,$9,$2,$3,0*
0 Add four circle primitives for the rounded corners*
1,1,$1+$1,$2,$3*
1,1,$1+$1,$4,$5*
1,1,$1+$1,$6,$7*
1,1,$1+$1,$8,$9*
0 Add four rect primitives between the rounded corners*
20,1,$1+$1,$2,$3,$4,$5,0*
20,1,$1+$1,$4,$5,$6,$7,0*
20,1,$1+$1,$6,$7,$8,$9,0*
20,1,$1+$1,$8,$9,$2,$3,0*%
G04 Aperture macros list end*
%ADD10RoundRect,0.237500X0.237500X-0.250000X0.237500X0.250000X-0.237500X0.250000X-0.237500X-0.250000X0*%
%ADD11RoundRect,0.237500X0.250000X0.237500X-0.250000X0.237500X-0.250000X-0.237500X0.250000X-0.237500X0*%
%ADD12R,0.355600X1.473200*%
%ADD13RoundRect,0.237500X-0.237500X0.300000X-0.237500X-0.300000X0.237500X-0.300000X0.237500X0.300000X0*%
%ADD14RoundRect,0.237500X-0.250000X-0.237500X0.250000X-0.237500X0.250000X0.237500X-0.250000X0.237500X0*%
%ADD15RoundRect,0.237500X0.237500X-0.300000X0.237500X0.300000X-0.237500X0.300000X-0.237500X-0.300000X0*%
%ADD16RoundRect,0.237500X-0.237500X0.250000X-0.237500X-0.250000X0.237500X-0.250000X0.237500X0.250000X0*%
%ADD17RoundRect,0.100000X-0.650000X-0.100000X0.650000X-0.100000X0.650000X0.100000X-0.650000X0.100000X0*%
%ADD18RoundRect,0.250000X-0.250000X0.250000X-0.250000X-0.250000X0.250000X-0.250000X0.250000X0.250000X0*%
%ADD19RoundRect,0.250000X-0.407500X-0.295000X0.407500X-0.295000X0.407500X0.295000X-0.407500X0.295000X0*%
%ADD20RoundRect,0.250000X0.407500X0.295000X-0.407500X0.295000X-0.407500X-0.295000X0.407500X-0.295000X0*%
%ADD21R,0.355600X1.409700*%
%ADD22RoundRect,0.049500X0.425500X-0.115500X0.425500X0.115500X-0.425500X0.115500X-0.425500X-0.115500X0*%
%ADD23RoundRect,0.237500X0.300000X0.237500X-0.300000X0.237500X-0.300000X-0.237500X0.300000X-0.237500X0*%
G04 APERTURE END LIST*
D10*
%TO.C,R8*%
X167804000Y-96076500D03*
X167804000Y-94251500D03*
%TD*%
D11*
%TO.C,R4*%
X135888100Y-97028000D03*
X134063100Y-97028000D03*
%TD*%
D12*
%TO.C,U8*%
X165944001Y-95902500D03*
X165294000Y-95902500D03*
X164643999Y-95902500D03*
X163994000Y-95902500D03*
X163344001Y-95902500D03*
X162694000Y-95902500D03*
X162044001Y-95902500D03*
X162043999Y-101744500D03*
X162694000Y-101744500D03*
X163343999Y-101744500D03*
X163994000Y-101744500D03*
X164643999Y-101744500D03*
X165294000Y-101744500D03*
X165943999Y-101744500D03*
%TD*%
D13*
%TO.C,C9*%
X126066001Y-102452000D03*
X126066001Y-104177000D03*
%TD*%
D14*
%TO.C,R6*%
X155551500Y-93014800D03*
X157376500Y-93014800D03*
%TD*%
D11*
%TO.C,R1*%
X161846900Y-88798400D03*
X160021900Y-88798400D03*
%TD*%
D15*
%TO.C,C11*%
X164998400Y-92302500D03*
X164998400Y-90577500D03*
%TD*%
D16*
%TO.C,R13*%
X160172400Y-98858700D03*
X160172400Y-100683700D03*
%TD*%
%TO.C,R15*%
X167804000Y-97807500D03*
X167804000Y-99632500D03*
%TD*%
D11*
%TO.C,R14*%
X158595700Y-98704400D03*
X156770700Y-98704400D03*
%TD*%
D13*
%TO.C,C2*%
X121383870Y-106068965D03*
X121383870Y-107793965D03*
%TD*%
D17*
%TO.C,U2*%
X150740300Y-93361750D03*
X150740300Y-94011750D03*
X150740300Y-94661750D03*
X153400300Y-94661750D03*
X153400300Y-93361750D03*
%TD*%
D11*
%TO.C,R3*%
X131265300Y-90881200D03*
X129440300Y-90881200D03*
%TD*%
D15*
%TO.C,C12*%
X163220400Y-92302500D03*
X163220400Y-90577500D03*
%TD*%
D18*
%TO.C,D1*%
X166370000Y-103804400D03*
X166370000Y-106304400D03*
%TD*%
D19*
%TO.C,C4*%
X148323700Y-101904800D03*
X150278700Y-101904800D03*
%TD*%
%TO.C,C7*%
X155689700Y-91236800D03*
X157644700Y-91236800D03*
%TD*%
D13*
%TO.C,C8*%
X127844001Y-102452000D03*
X127844001Y-104177000D03*
%TD*%
D20*
%TO.C,C10*%
X147992700Y-94386400D03*
X146037700Y-94386400D03*
%TD*%
D15*
%TO.C,C16*%
X147907000Y-99668500D03*
X147907000Y-97943500D03*
%TD*%
D16*
%TO.C,R12*%
X160172400Y-95402400D03*
X160172400Y-97227400D03*
%TD*%
D21*
%TO.C,U5*%
X129621999Y-108712000D03*
X130272000Y-108712000D03*
X130921998Y-108712000D03*
X131572000Y-108712000D03*
X132221998Y-108712000D03*
X132871997Y-108712000D03*
X133521998Y-108712000D03*
X134171997Y-108712000D03*
X134821998Y-108712000D03*
X135471997Y-108712000D03*
X135471999Y-102806500D03*
X134822001Y-102806500D03*
X134172000Y-102806500D03*
X133522001Y-102806500D03*
X132872000Y-102806500D03*
X132222001Y-102806500D03*
X131572000Y-102806500D03*
X130922001Y-102806500D03*
X130272000Y-102806500D03*
X129622001Y-102806500D03*
%TD*%
D13*
%TO.C,C3*%
X123161870Y-106068965D03*
X123161870Y-107793965D03*
%TD*%
D11*
%TO.C,R7*%
X151359500Y-99822000D03*
X149534500Y-99822000D03*
%TD*%
D14*
%TO.C,R5*%
X151942800Y-91693250D03*
X153767800Y-91693250D03*
%TD*%
D22*
%TO.C,U3*%
X146239000Y-100802000D03*
X146239000Y-100302000D03*
X146239000Y-99802000D03*
X146235203Y-99299221D03*
X146239000Y-98802000D03*
X142289000Y-98802000D03*
X142289000Y-99299221D03*
X142289000Y-99802000D03*
X142289000Y-100302000D03*
X142289000Y-100802000D03*
%TD*%
D23*
%TO.C,C6*%
X142137300Y-102920800D03*
X140412300Y-102920800D03*
%TD*%
%TO.C,C1*%
X134415700Y-86309200D03*
X132690700Y-86309200D03*
%TD*%
D10*
%TO.C,R2*%
X164439600Y-105509700D03*
X164439600Y-103684700D03*
%TD*%
D13*
%TO.C,C5*%
X168249600Y-103633100D03*
X168249600Y-105358100D03*
%TD*%
D11*
%TO.C,R9*%
X157360800Y-94631750D03*
X155535800Y-94631750D03*
%TD*%
M02*
